<svg width="793" height="683" viewBox="0 0 793 683" fill="none" xmlns="http://www.w3.org/2000/svg">
<g clip-path="url(#clip0_1080_1216)">
<path d="M661.456 124.886L614.423 171.753C588.582 138.743 555.517 112.049 517.751 93.7077C479.984 75.3658 438.514 65.8605 396.501 65.9162C328.157 65.8744 262.221 91.0698 211.429 136.637C160.637 182.204 128.593 244.909 121.484 312.642H157.162C160.073 312.621 162.937 313.368 165.464 314.807C167.991 316.245 170.092 318.324 171.552 320.834C173.012 323.343 173.78 326.193 173.777 329.093C173.774 331.993 172.999 334.841 171.535 337.347L101.253 458.688C99.8104 461.219 97.7214 463.324 95.1967 464.788C92.672 466.253 89.8018 467.025 86.8806 467.025C83.9593 467.025 81.0909 466.253 78.5662 464.788C76.0415 463.324 73.9507 461.219 72.5081 458.688L2.26344 337.347C0.810269 334.839 0.046764 331.994 0.0493228 329.098C0.0518816 326.202 0.819875 323.357 2.27747 320.852C3.73507 318.347 5.8306 316.268 8.35138 314.827C10.8722 313.386 13.7296 312.632 16.6359 312.642H55.0461C62.2931 227.393 101.391 147.961 164.603 90.0652C227.814 32.1689 310.534 0.0272089 396.392 0.000610137C447.106 -0.0950662 497.205 11.0628 543.053 32.664C588.901 54.2653 629.348 85.7681 661.456 124.886Z" fill="#004DFF"/>
<path d="M86.8458 323.418C84.7024 323.236 82.7193 322.214 81.3315 320.576C79.9438 318.938 79.2646 316.818 79.4437 314.682C86.177 235.547 122.473 161.812 181.153 108.068C239.832 54.3231 316.619 24.4837 396.32 24.4537C461.553 24.1943 525.261 44.0963 578.671 81.4182C579.547 82.0264 580.294 82.8008 580.869 83.697C581.444 84.5933 581.838 85.5939 582.025 86.6415C582.212 87.6891 582.189 88.7629 581.958 89.8019C581.728 90.8409 581.295 91.8248 580.683 92.6966C580.07 93.5669 579.291 94.308 578.39 94.878C577.489 95.448 576.485 95.8358 575.434 96.0187C574.383 96.2016 573.305 96.1761 572.263 95.944C571.222 95.7119 570.238 95.2773 569.365 94.6656C518.676 59.2628 458.22 40.3873 396.32 40.6372C240.631 40.6372 108.548 161.584 95.6127 316.007C95.5266 317.068 95.2317 318.101 94.7443 319.048C94.2568 319.995 93.5867 320.837 92.7723 321.525C91.9579 322.213 91.0155 322.735 89.9985 323.06C88.9816 323.385 87.91 323.507 86.8458 323.418ZM610.182 128.895C605.044 123.81 599.69 118.798 594.264 114.107C593.459 113.409 592.801 112.56 592.326 111.608C591.85 110.656 591.567 109.62 591.494 108.56C591.421 107.499 591.558 106.434 591.897 105.426C592.237 104.419 592.774 103.488 593.475 102.686C594.175 101.884 595.027 101.227 595.982 100.753C596.937 100.28 597.977 99.9983 599.042 99.9252C600.106 99.852 601.174 99.9887 602.186 100.327C603.197 100.666 604.132 101.199 604.937 101.898C610.65 106.839 616.291 112.102 621.681 117.473C622.437 118.224 623.037 119.117 623.446 120.1C623.855 121.083 624.065 122.138 624.065 123.202C624.065 124.266 623.855 125.32 623.446 126.303C623.037 127.286 622.437 128.179 621.681 128.93C620.924 129.682 620.027 130.276 619.039 130.681C618.051 131.086 616.993 131.293 615.925 131.289C614.857 131.286 613.799 131.073 612.814 130.662C611.829 130.251 610.934 129.65 610.182 128.895Z" fill="#CDE3FC"/>
<path d="M131.616 558.079L178.649 511.212C330.817 705.163 645.754 617.084 671.625 370.358H635.909C633.003 370.368 630.146 369.615 627.625 368.173C625.104 366.732 623.009 364.654 621.551 362.148C620.093 359.643 619.325 356.799 619.323 353.903C619.32 351.007 620.084 348.161 621.537 345.653L691.819 224.313C693.269 221.791 695.36 219.695 697.884 218.238C700.407 216.78 703.274 216.013 706.191 216.013C709.108 216.013 711.973 216.78 714.497 218.238C717.02 219.695 719.113 221.791 720.563 224.313L790.845 345.653C792.298 348.161 793.062 351.007 793.059 353.903C793.056 356.799 792.287 359.643 790.829 362.148C789.372 364.654 787.278 366.732 784.757 368.173C782.236 369.615 779.379 370.368 776.472 370.358H738.061C730.817 455.665 691.675 535.148 628.393 593.054C565.111 650.96 482.308 683.062 396.392 683C345.722 683.054 295.676 671.872 249.88 650.266C204.084 628.659 163.686 597.17 131.616 558.079Z" fill="#004DFF"/>
<path d="M396.32 658.546C331.185 658.749 267.585 638.849 214.257 601.582C213.384 600.971 212.64 600.195 212.068 599.297C211.496 598.399 211.107 597.398 210.924 596.351C210.74 595.303 210.764 594.23 210.997 593.192C211.23 592.155 211.668 591.173 212.282 590.304C212.892 589.43 213.668 588.686 214.568 588.113C215.467 587.539 216.471 587.148 217.522 586.962C218.573 586.775 219.652 586.798 220.694 587.027C221.737 587.257 222.725 587.688 223.6 588.298C274.262 623.732 334.712 642.623 396.608 642.363C552.297 642.363 684.38 521.381 697.315 366.993C697.498 364.854 698.523 362.875 700.166 361.486C701.808 360.098 703.935 359.413 706.082 359.582C708.224 359.773 710.206 360.797 711.598 362.431C712.99 364.066 713.68 366.18 713.521 368.318C706.783 447.509 670.439 521.289 611.691 575.041C552.943 628.794 476.077 658.597 396.32 658.546ZM187.919 581.102C182.206 576.161 176.565 570.898 171.212 565.527C170.456 564.775 169.856 563.883 169.447 562.9C169.037 561.917 168.826 560.863 168.826 559.798C168.826 558.734 169.037 557.68 169.447 556.697C169.856 555.714 170.456 554.821 171.212 554.07C171.966 553.316 172.862 552.718 173.849 552.311C174.835 551.903 175.893 551.693 176.961 551.693C178.029 551.693 179.087 551.903 180.073 552.311C181.06 552.718 181.956 553.316 182.71 554.07C187.813 559.154 193.166 564.131 198.592 568.857C199.403 569.55 200.068 570.396 200.55 571.346C201.031 572.297 201.318 573.334 201.395 574.396C201.472 575.458 201.337 576.525 200.997 577.534C200.658 578.544 200.122 579.477 199.418 580.278C198.005 581.874 196.021 582.854 193.892 583.008C191.762 583.162 189.657 582.478 188.028 581.102H187.919Z" fill="#CDE3FC"/>
<path d="M302.5 398V313.1L313 313.7L276.1 358.85L273.55 355.1H341.65V374.15H262.6L253.3 356.45L306.25 292.4H324.25V398H302.5ZM396.166 399.5C387.166 399.5 379.466 397.35 373.066 393.05C366.766 388.75 361.916 382.6 358.516 374.6C355.216 366.5 353.566 356.8 353.566 345.5C353.566 334.2 355.216 324.55 358.516 316.55C361.916 308.45 366.766 302.25 373.066 297.95C379.466 293.65 387.166 291.5 396.166 291.5C405.166 291.5 412.866 293.65 419.266 297.95C425.666 302.25 430.516 308.45 433.816 316.55C437.216 324.55 438.916 334.2 438.916 345.5C438.916 356.8 437.216 366.5 433.816 374.6C430.516 382.6 425.666 388.75 419.266 393.05C412.866 397.35 405.166 399.5 396.166 399.5ZM396.166 380.15C402.866 380.15 408.066 377.15 411.766 371.15C415.466 365.15 417.316 356.6 417.316 345.5C417.316 334.2 415.466 325.5 411.766 319.4C408.066 313.3 402.866 310.25 396.166 310.25C389.366 310.25 384.116 313.3 380.416 319.4C376.816 325.5 375.016 334.2 375.016 345.5C375.016 356.6 376.816 365.15 380.416 371.15C384.116 377.15 389.366 380.15 396.166 380.15ZM497.764 398V313.1L508.264 313.7L471.364 358.85L468.814 355.1H536.914V374.15H457.864L448.564 356.45L501.514 292.4H519.514V398H497.764Z" fill="#004DFF"/>
</g>
<defs>
<clipPath id="clip0_1080_1216">
<rect width="793" height="683" fill="white"/>
</clipPath>
</defs>
</svg>
