<svg xmlns="http://www.w3.org/2000/svg" width="132.652" height="34.102" viewBox="0 0 132.652 34.102">
  <g id="Grupo_34" data-name="Grupo 34" transform="translate(509.189 -1.229)">
    <path id="Trazado_17" data-name="Trazado 17" d="M-482.032,12.171l-1.589.49c-1.348-4.8-3.708-7.535-7.8-7.535h-5.345a124.275,124.275,0,0,0-.289,13.455l3.564-.2c2.408,0,3.419-1.81,4-4.452h1.348V25.038H-489.5c-.578-2.69-1.589-4.5-4-4.647l-3.564-.049c0,3.963.049,7.339.289,9.393.241,2.936,1.011,4.257,3.082,4.55l1.926.2v1.272h-17.43V34.481l1.444-.2c2.023-.293,2.841-1.614,3.082-4.55a164.724,164.724,0,0,0,0-20.7c-.24-3.033-1.059-4.257-3.082-4.5l-1.444-.244V2.973h27.109Z" transform="translate(0 -1.059)"/>
    <path id="Trazado_18" data-name="Trazado 18" d="M-372.069,32.182c-3.13-2.153-6.5-1.223-7.175,0a90.111,90.111,0,0,0,.05,12.524c.144,1.958.674,2.79,2.118,2.936l1.927.2v1.271H-389.5V47.838l1.108-.2c1.4-.146,1.878-.978,1.975-2.936a79.067,79.067,0,0,0,0-13.5c-.1-2.1-.579-2.886-1.975-3.082l-1.108-.147v-.88l10.255-2.055-.144,5.48c2.407-5.675,7.174-6.361,9.774-4.844Z" transform="translate(-72.647 -14.415)"/>
    <path id="Trazado_19" data-name="Trazado 19" d="M-366.465,20.066c.144-3.229-.481-7.878-3.034-7.878-2.6,0-4.044,4.356-4.092,8.073Zm-2.408-9.443c6.4,0,9.486,4.893,9.533,11.3h-14.4c-.048,5.675,2.841,9.98,8.233,9.98a7.733,7.733,0,0,0,5.152-1.76l.674.782a11.288,11.288,0,0,1-9.244,4.4c-7.03,0-11.893-5.041-11.893-12.134,0-6.409,4-12.574,11.94-12.574m-20.752,11.889c-.145-5.088-1.926-9.1-5.345-9.1a6.571,6.571,0,0,0-2.407.489c0,8.122.1,17.319.288,19.521a5.69,5.69,0,0,0,1.735.245c3.321,0,5.729-4.893,5.729-11.156m7.126-.39c0,8.024-4.864,13.21-13.1,13.21a37.768,37.768,0,0,1-8.619-1.126c.241-3.229.241-23.191,0-26.958-.241-1.958-.77-2.888-2.214-3.083l-.963-.1V3.186l10.159-1.957c-.048,1.664-.144,6.019-.144,11.155a11.387,11.387,0,0,1,5.633-1.468c5.3,0,9.245,4.7,9.245,11.205m-59.514.88c0,5.969,1.54,10.862,4.67,10.862,3.371,0,4.334-4.793,4.334-10.862s-1.493-10.812-4.67-10.812c-3.371,0-4.334,4.648-4.334,10.812m16.274-.1c0,6.85-4.334,12.427-12.086,12.427-7.607,0-11.459-5.285-11.459-12.231,0-6.8,4.334-12.477,12.086-12.477,7.608,0,11.46,5.333,11.46,12.281" transform="translate(-36.361)"/>
    <path id="Trazado_20" data-name="Trazado 20" d="M-200.943,32.42l-1.2.342c-1.155-4.11-3.081-5.871-5.827-5.871a3.162,3.162,0,0,0-3.273,3.425c0,2.005,1.589,3.083,5.874,4.893,3.948,1.517,5.585,3.375,5.585,6.6,0,4.942-3.707,8.025-9.822,8.025a23.794,23.794,0,0,1-8.137-1.469l-.241-6.848,1.155-.245c1.734,4.7,3.949,6.458,6.838,6.458a3.593,3.593,0,0,0,3.8-3.669c0-1.86-1.011-2.936-4.911-4.4-3.708-1.27-6.259-2.934-6.259-7.045,0-4.06,3.419-7.486,9.244-7.486a16.854,16.854,0,0,1,6.886,1.272Z" transform="translate(-176.748 -14.506)"/>
    <path id="Trazado_21" data-name="Trazado 21" d="M-200.89,7.657a.406.406,0,0,1,.428-.4.406.406,0,0,1,.428.4.4.4,0,0,1-.428.4.4.4,0,0,1-.428-.4m-.243,3.1.127-.034c.16-.044.18-.068.18-.277V8.93c0-.209-.025-.223-.161-.316l-.16-.107v-.1l1.064-.116.049.034c-.01.151-.02.326-.02.559v1.556c0,.219.02.238.18.277l.126.034v.131h-1.386Z" transform="translate(-186.97 -3.656)"/>
    <path id="Trazado_22" data-name="Trazado 22" d="M-197.236,12.361l.127-.034c.16-.044.18-.068.18-.277V10.538c0-.209-.024-.224-.16-.316l-.16-.107v-.1l1.026-.116.053.033-.009.312h.019a1.635,1.635,0,0,1,.933-.345.572.572,0,0,1,.637.652v1.5c0,.213.02.238.175.277l.126.034v.131h-1.356v-.131l.117-.029c.146-.039.16-.054.16-.282V10.742c0-.3-.107-.389-.336-.389a2.1,2.1,0,0,0-.452.063V12.05c0,.233.015.243.16.282l.117.029v.131h-1.356Z" transform="translate(-189.335 -5.264)"/>
    <path id="Trazado_23" data-name="Trazado 23" d="M-187.894,12.065v-.778l-.224.019c-.248.02-.379.132-.379.481,0,.316.141.418.331.418a.29.29,0,0,0,.272-.141m-1.366-.156c0-.428.326-.617.875-.748l.491-.122v-.423c0-.4-.078-.525-.345-.525-.146,0-.195.039-.2.175-.024.307-.127.428-.379.428-.214,0-.331-.112-.331-.3,0-.311.4-.491,1.075-.491.608,0,.963.189.963.666v1.347c0,.18.019.253.112.3a.612.612,0,0,0,.228.049v.117a.929.929,0,0,1-.568.17c-.282,0-.452-.107-.506-.3h-.024a.811.811,0,0,1-.656.3c-.457,0-.729-.233-.729-.642" transform="translate(-194.185 -5.264)"/>
    <path id="Trazado_24" data-name="Trazado 24" d="M-240.519,10.013h.827l-.4-1.186h-.025Zm-.929,1.142.121-.034c.146-.044.19-.092.331-.491l.977-2.708h.486l1.006,2.723c.132.36.185.443.326.486l.1.024v.136h-1.619v-.136l.136-.034c.127-.034.175-.092.175-.195a1.356,1.356,0,0,0-.092-.355l-.122-.345h-.967l-.117.35a1.211,1.211,0,0,0-.073.331c0,.136.059.175.209.214l.136.034v.136h-1.016Z" transform="translate(-162.509 -4.062)"/>
    <path id="Trazado_25" data-name="Trazado 25" d="M-231.547,12.034c.032.208.088.3.241.311l.2.021V12.5h-1.522v-.135l.118-.021c.147-.015.2-.1.209-.311V10.6c-.01-.223-.062-.307-.209-.328l-.118-.015v-.094l1.072-.219v.582c.256-.6.762-.675,1.038-.514l-.261.69a.606.606,0,0,0-.777,0Z" transform="translate(-167.865 -5.288)"/>
    <path id="Trazado_26" data-name="Trazado 26" d="M-225.647,10.542c0-.505-.1-.651-.325-.651s-.325.145-.325.612c0,.506.1.642.325.642s.325-.136.325-.6m.481,2.081c0-.214-.127-.32-.428-.32h-.817a.4.4,0,0,0-.2.359c0,.287.17.472.617.472.564,0,.827-.194.827-.511m-2.032.132c0-.229.219-.4.613-.491v-.019a.473.473,0,0,1-.418-.467.762.762,0,0,1,.375-.579v-.019a.672.672,0,0,1-.389-.623c0-.554.476-.851,1.045-.851a1.448,1.448,0,0,1,.6.116.854.854,0,0,1,.554-.243c.18,0,.306.087.306.262,0,.151-.063.277-.238.277A.236.236,0,0,1-225,9.944c-.044-.092-.151-.083-.268-.024v.015a.651.651,0,0,1,.34.559c0,.555-.476.841-1.045.841a1.5,1.5,0,0,1-.5-.083.326.326,0,0,0-.107.214c0,.1.068.165.243.165h.851c.462,0,.822.146.822.656,0,.559-.472,1.036-1.429,1.036-.72,0-1.1-.209-1.1-.569" transform="translate(-171.158 -5.069)"/>
    <path id="Trazado_27" data-name="Trazado 27" d="M-219.391,10.932l.831-.044c0-.588-.078-.8-.369-.8-.248,0-.443.234-.462.846m-.768.287A1.256,1.256,0,0,1-218.89,9.9c.671,0,1.089.336,1.1,1.215h-1.6c.015.8.316,1.016.816,1.016a1.486,1.486,0,0,0,.715-.185v.161a1.422,1.422,0,0,1-1.031.442,1.176,1.176,0,0,1-1.269-1.332" transform="translate(-175.431 -5.264)"/>
    <path id="Trazado_28" data-name="Trazado 28" d="M-213.65,12.361l.127-.034c.16-.044.18-.068.18-.277V10.538c0-.209-.024-.224-.16-.316l-.16-.107v-.1l1.025-.116.054.033-.01.312h.02a1.632,1.632,0,0,1,.933-.345.573.573,0,0,1,.637.652v1.5c0,.213.019.238.175.277l.126.034v.131h-1.356v-.131l.117-.029c.145-.039.16-.054.16-.282V10.742c0-.3-.107-.389-.335-.389a2.1,2.1,0,0,0-.452.063V12.05c0,.233.015.243.16.282l.117.029v.131h-1.356Z" transform="translate(-179.372 -5.264)"/>
    <path id="Trazado_29" data-name="Trazado 29" d="M-205.578,10.986V9.362h-.307V9.246a1.34,1.34,0,0,0,.807-.817h.277v.647h.646l-.062.287h-.584v1.575c0,.243.073.34.316.34a1.831,1.831,0,0,0,.35-.044v.136a1.1,1.1,0,0,1-.769.287.589.589,0,0,1-.675-.671" transform="translate(-184.095 -4.37)"/>
  </g>
</svg>
