<svg width="19" height="19" viewBox="0 0 19 19" fill="none" xmlns="http://www.w3.org/2000/svg">
<path d="M18.9011 1.66992V17.3301C18.8797 17.3793 18.8637 17.4307 18.8534 17.4833C18.7897 18.1884 18.1911 18.8367 17.5008 18.9462C17.4127 18.9603 17.326 18.9833 17.2383 19H1.64799C1.59882 18.9785 1.54742 18.9626 1.49474 18.9525C1.19083 18.9273 0.925419 18.8078 0.68518 18.6274C0.178051 18.2463 0 17.7127 0 17.103C0 12.2013 0 7.29966 0 2.39801C0 2.10818 0.0136967 1.81836 0.0329454 1.52928C0.0803268 0.824199 0.686661 0.16625 1.38184 0.0541794C1.47031 0.0400778 1.55766 0.0170703 1.64576 0H17.2361C17.285 0.0214765 17.3362 0.037529 17.3886 0.0478714C18.0919 0.1117 18.736 0.713242 18.8452 1.40645C18.8611 1.49477 18.883 1.58234 18.9011 1.66992ZM10.381 8.06387C10.381 7.88537 10.381 7.68758 10.381 7.49016C10.378 7.16025 10.18 6.96246 9.85089 6.96172C9.16756 6.96172 8.48436 6.96172 7.80128 6.96172C7.40409 6.96172 7.21382 7.15098 7.21382 7.54953C7.21382 10.4802 7.21382 13.411 7.21382 16.3419C7.21382 16.7337 7.41408 16.9356 7.80387 16.9356C8.46869 16.9356 9.13351 16.9356 9.79833 16.9356C10.1907 16.9356 10.3813 16.74 10.3813 16.3419C10.3813 14.8456 10.3813 13.3489 10.3813 11.8516C10.3787 11.3563 10.4909 10.8671 10.7089 10.4225C11.0029 9.81988 11.5496 9.50816 12.2451 9.55344C12.8763 9.59426 13.3142 9.93937 13.5341 10.5736C13.6821 11.0052 13.7095 11.4549 13.7095 11.9058C13.7095 12.8829 13.7003 13.8596 13.698 14.8374C13.698 15.357 13.6932 15.8765 13.7084 16.396C13.7199 16.7708 13.909 16.936 14.2851 16.9367C14.9749 16.9367 15.6644 16.9367 16.3536 16.9367C16.7419 16.9367 16.9496 16.7374 16.9481 16.343C16.9407 14.538 16.94 12.7326 16.9111 10.928C16.9 10.2118 16.7849 9.50371 16.5154 8.83092C16.1537 7.92768 15.5485 7.28457 14.6016 6.99029C14.0027 6.80475 13.3908 6.77951 12.7767 6.82998C12.2029 6.87748 11.6407 7.00699 11.1683 7.3599C10.8855 7.57031 10.6393 7.83008 10.381 8.06387ZM2.70407 11.9303C2.70407 13.3899 2.70407 14.8496 2.70407 16.3092C2.70407 16.7348 2.90063 16.9349 3.32151 16.9356C3.94339 16.9356 4.56515 16.9356 5.18678 16.9356C5.67689 16.9356 5.87011 16.743 5.87011 16.2532C5.87011 14.6451 5.87011 13.037 5.87011 11.4289C5.87011 10.1489 5.87011 8.86902 5.87011 7.58924C5.87011 7.16545 5.66615 6.96135 5.25119 6.96098H3.31152C2.89619 6.96098 2.70407 7.15357 2.70407 7.57068C2.70284 9.02389 2.70284 10.4771 2.70407 11.9303ZM6.31727 4.11654C6.31727 2.98916 5.39741 2.05623 4.27617 2.06848C3.15494 2.08072 2.24765 2.94277 2.24321 4.12582C2.23877 5.2532 3.16863 6.16684 4.27654 6.16981C5.39593 6.17129 6.31727 5.24652 6.31727 4.11654Z" fill="url(#paint0_linear_574_224)"/>
<defs>
<linearGradient id="paint0_linear_574_224" x1="0" y1="9.67925" x2="18.9011" y2="9.67925" gradientUnits="userSpaceOnUse">
<stop stop-color="#004DFF"/>
<stop offset="1" stop-color="#FF00CC"/>
</linearGradient>
</defs>
</svg>
