<svg width="30" height="30" viewBox="0 0 30 30" fill="none" xmlns="http://www.w3.org/2000/svg">
<path d="M23.3875 9.01251C23.2713 8.89535 23.133 8.80236 22.9807 8.73889C22.8284 8.67543 22.665 8.64276 22.5 8.64276C22.335 8.64276 22.1716 8.67543 22.0193 8.73889C21.867 8.80236 21.7287 8.89535 21.6125 9.01251L12.3 18.3375L8.3875 14.4125C8.26685 14.296 8.12442 14.2043 7.96835 14.1428C7.81228 14.0813 7.64563 14.0511 7.4779 14.054C7.31018 14.0569 7.14467 14.0929 6.99082 14.1597C6.83697 14.2266 6.6978 14.3231 6.58125 14.4438C6.4647 14.5644 6.37306 14.7068 6.31155 14.8629C6.25005 15.019 6.21989 15.1856 6.22279 15.3534C6.22569 15.5211 6.2616 15.6866 6.32847 15.8404C6.39533 15.9943 6.49185 16.1335 6.6125 16.25L11.4125 21.05C11.5287 21.1672 11.667 21.2602 11.8193 21.3236C11.9716 21.3871 12.135 21.4198 12.3 21.4198C12.465 21.4198 12.6284 21.3871 12.7807 21.3236C12.933 21.2602 13.0713 21.1672 13.1875 21.05L23.3875 10.85C23.5144 10.733 23.6156 10.5909 23.6849 10.4328C23.7542 10.2746 23.7899 10.1039 23.7899 9.93126C23.7899 9.75863 23.7542 9.58788 23.6849 9.42975C23.6156 9.27163 23.5144 9.12956 23.3875 9.01251Z" fill="#F3F2F2"/>
</svg>
