<svg width="53" height="53" viewBox="0 0 53 53" fill="none" xmlns="http://www.w3.org/2000/svg">
<rect x="1.25" y="1.25" width="50.5" height="50.5" rx="25.25" fill="url(#paint0_linear_716_263)"/>
<path d="M34.8125 25.2125H27.7875V18.1875C27.7875 17.846 27.6519 17.5186 27.4104 17.2771C27.1689 17.0356 26.8415 16.9 26.5 16.9C26.1585 16.9 25.8311 17.0356 25.5896 17.2771C25.3481 17.5186 25.2125 17.846 25.2125 18.1875V25.2125H18.1875C17.846 25.2125 17.5186 25.3481 17.2771 25.5896C17.0356 25.8311 16.9 26.1585 16.9 26.5C16.9 26.8415 17.0356 27.1689 17.2771 27.4104C17.5186 27.6519 17.846 27.7875 18.1875 27.7875H25.2125V34.8125C25.2125 35.154 25.3481 35.4814 25.5896 35.7229C25.8311 35.9644 26.1585 36.1 26.5 36.1C26.8415 36.1 27.1689 35.9644 27.4104 35.7229C27.6519 35.4814 27.7875 35.154 27.7875 34.8125V27.7875H34.8125C35.154 27.7875 35.4814 27.6519 35.7229 27.4104C35.9644 27.1689 36.1 26.8415 36.1 26.5C36.1 26.1585 35.9644 25.8311 35.7229 25.5896C35.4814 25.3481 35.154 25.2125 34.8125 25.2125Z" fill="#F3F2F2" stroke="#F3F2F2" stroke-width="0.2"/>
<rect x="1.25" y="1.25" width="50.5" height="50.5" rx="25.25" stroke="url(#paint1_linear_716_263)" stroke-width="2.5"/>
<defs>
<linearGradient id="paint0_linear_716_263" x1="0" y1="27" x2="53" y2="27" gradientUnits="userSpaceOnUse">
<stop stop-color="#004DFF"/>
<stop offset="1" stop-color="#FF00CC"/>
</linearGradient>
<linearGradient id="paint1_linear_716_263" x1="0" y1="27" x2="53" y2="27" gradientUnits="userSpaceOnUse">
<stop stop-color="#004DFF"/>
<stop offset="1" stop-color="#FF00CC"/>
</linearGradient>
</defs>
</svg>
