<svg width="50" height="50" viewBox="0 0 50 50" fill="none" xmlns="http://www.w3.org/2000/svg">
<path d="M24.9999 25.0001C23.7638 25.0001 22.5554 25.3666 21.5276 26.0534C20.4998 26.7402 19.6987 27.7163 19.2257 28.8583C18.7526 30.0004 18.6289 31.257 18.87 32.4694C19.1112 33.6818 19.7064 34.7954 20.5805 35.6695C21.4546 36.5436 22.5682 37.1388 23.7806 37.38C24.993 37.6212 26.2497 37.4974 27.3917 37.0243C28.5337 36.5513 29.5098 35.7502 30.1966 34.7224C30.8834 33.6946 31.2499 32.4862 31.2499 31.2501C31.2499 29.5925 30.5914 28.0028 29.4193 26.8307C28.2472 25.6586 26.6575 25.0001 24.9999 25.0001ZM24.9999 33.3334C24.5879 33.3334 24.1851 33.2112 23.8425 32.9823C23.4999 32.7534 23.2329 32.428 23.0752 32.0473C22.9175 31.6667 22.8762 31.2478 22.9566 30.8436C23.037 30.4395 23.2354 30.0683 23.5268 29.7769C23.8181 29.4856 24.1894 29.2872 24.5935 29.2068C24.9976 29.1264 25.4165 29.1677 25.7972 29.3253C26.1779 29.483 26.5032 29.75 26.7321 30.0926C26.9611 30.4352 27.0833 30.838 27.0833 31.2501C27.0833 31.8026 26.8638 32.3325 26.4731 32.7232C26.0824 33.1139 25.5525 33.3334 24.9999 33.3334ZM23.5208 20.2292C23.7189 20.4189 23.9525 20.5676 24.2083 20.6667C24.4576 20.777 24.7273 20.8339 24.9999 20.8339C25.2726 20.8339 25.5422 20.777 25.7916 20.6667C26.0473 20.5676 26.281 20.4189 26.4791 20.2292L31.2499 15.5417C31.6533 15.1384 31.8799 14.5913 31.8799 14.0209C31.8799 13.4505 31.6533 12.9034 31.2499 12.5001C30.8466 12.0967 30.2995 11.8701 29.7291 11.8701C29.1587 11.8701 28.6116 12.0967 28.2083 12.5001L27.0833 13.7292V6.25008C27.0833 5.69755 26.8638 5.16764 26.4731 4.77694C26.0824 4.38624 25.5525 4.16675 24.9999 4.16675C24.4474 4.16675 23.9175 4.38624 23.5268 4.77694C23.1361 5.16764 22.9166 5.69755 22.9166 6.25008V13.7292L21.7916 12.5001C21.3882 12.0967 20.8412 11.8701 20.2708 11.8701C19.7003 11.8701 19.1533 12.0967 18.7499 12.5001C18.3466 12.9034 18.12 13.4505 18.12 14.0209C18.12 14.5913 18.3466 15.1384 18.7499 15.5417L23.5208 20.2292ZM39.5833 31.2501C39.5833 30.838 39.4611 30.4352 39.2321 30.0926C39.0032 29.75 38.6779 29.483 38.2972 29.3253C37.9165 29.1677 37.4976 29.1264 37.0935 29.2068C36.6894 29.2872 36.3181 29.4856 36.0268 29.7769C35.7354 30.0683 35.537 30.4395 35.4566 30.8436C35.3762 31.2478 35.4175 31.6667 35.5752 32.0473C35.7328 32.428 35.9999 32.7534 36.3425 32.9823C36.6851 33.2112 37.0879 33.3334 37.4999 33.3334C38.0525 33.3334 38.5824 33.1139 38.9731 32.7232C39.3638 32.3325 39.5833 31.8026 39.5833 31.2501ZM41.6666 16.6667H35.4166C34.864 16.6667 34.3341 16.8862 33.9434 17.2769C33.5527 17.6676 33.3333 18.1975 33.3333 18.7501C33.3333 19.3026 33.5527 19.8325 33.9434 20.2232C34.3341 20.6139 34.864 20.8334 35.4166 20.8334H41.6666C42.2191 20.8334 42.749 21.0529 43.1397 21.4436C43.5304 21.8343 43.7499 22.3642 43.7499 22.9167V39.5834C43.7499 40.136 43.5304 40.6659 43.1397 41.0566C42.749 41.4473 42.2191 41.6668 41.6666 41.6668H8.33325C7.78072 41.6668 7.25081 41.4473 6.86011 41.0566C6.46941 40.6659 6.24992 40.136 6.24992 39.5834V22.9167C6.24992 22.3642 6.46941 21.8343 6.86011 21.4436C7.25081 21.0529 7.78072 20.8334 8.33325 20.8334H14.5833C15.1358 20.8334 15.6657 20.6139 16.0564 20.2232C16.4471 19.8325 16.6666 19.3026 16.6666 18.7501C16.6666 18.1975 16.4471 17.6676 16.0564 17.2769C15.6657 16.8862 15.1358 16.6667 14.5833 16.6667H8.33325C6.67565 16.6667 5.08594 17.3252 3.91383 18.4973C2.74173 19.6694 2.08325 21.2591 2.08325 22.9167V39.5834C2.08325 41.241 2.74173 42.8307 3.91383 44.0028C5.08594 45.1749 6.67565 45.8334 8.33325 45.8334H41.6666C43.3242 45.8334 44.9139 45.1749 46.086 44.0028C47.2581 42.8307 47.9166 41.241 47.9166 39.5834V22.9167C47.9166 21.2591 47.2581 19.6694 46.086 18.4973C44.9139 17.3252 43.3242 16.6667 41.6666 16.6667ZM10.4166 31.2501C10.4166 31.6621 10.5388 32.0649 10.7677 32.4075C10.9966 32.7501 11.322 33.0172 11.7027 33.1748C12.0833 33.3325 12.5022 33.3738 12.9064 33.2934C13.3105 33.213 13.6817 33.0146 13.9731 32.7232C14.2644 32.4319 14.4628 32.0606 14.5432 31.6565C14.6236 31.2524 14.5823 30.8335 14.4247 30.4528C14.267 30.0721 14 29.7468 13.6574 29.5179C13.3148 29.2889 12.912 29.1667 12.4999 29.1667C11.9474 29.1667 11.4175 29.3862 11.0268 29.7769C10.6361 30.1676 10.4166 30.6975 10.4166 31.2501Z" fill="#5C8AF5"/>
</svg>
