<svg width="50" height="50" viewBox="0 0 50 50" fill="none" xmlns="http://www.w3.org/2000/svg">
<path d="M24.6667 26.9167C24.0324 26.9093 23.4111 27.0963 22.8863 27.4527C22.3616 27.8091 21.9586 28.3177 21.7317 28.91C21.5047 29.5023 21.4647 30.15 21.617 30.7658C21.7692 31.3815 22.1065 31.9359 22.5833 32.3542V35.25C22.5833 35.8025 22.8028 36.3324 23.1935 36.7231C23.5842 37.1138 24.1141 37.3333 24.6667 37.3333C25.2192 37.3333 25.7491 37.1138 26.1398 36.7231C26.5305 36.3324 26.75 35.8025 26.75 35.25V32.3542C27.2268 31.9359 27.5641 31.3815 27.7164 30.7658C27.8686 30.15 27.8286 29.5023 27.6016 28.91C27.3747 28.3177 26.9717 27.8091 26.447 27.4527C25.9223 27.0963 25.3009 26.9093 24.6667 26.9167ZM35.0833 18.5833V14.4167C35.0833 11.654 33.9859 9.00448 32.0324 7.05097C30.0789 5.09747 27.4293 4 24.6667 4C21.904 4 19.2545 5.09747 17.301 7.05097C15.3475 9.00448 14.25 11.654 14.25 14.4167V18.5833C12.5924 18.5833 11.0027 19.2418 9.83058 20.4139C8.65848 21.586 8 23.1757 8 24.8333V39.4167C8 41.0743 8.65848 42.664 9.83058 43.8361C11.0027 45.0082 12.5924 45.6667 14.25 45.6667H35.0833C36.7409 45.6667 38.3306 45.0082 39.5028 43.8361C40.6749 42.664 41.3333 41.0743 41.3333 39.4167V24.8333C41.3333 23.1757 40.6749 21.586 39.5028 20.4139C38.3306 19.2418 36.7409 18.5833 35.0833 18.5833ZM18.4167 14.4167C18.4167 12.7591 19.0751 11.1694 20.2472 9.99725C21.4194 8.82515 23.0091 8.16667 24.6667 8.16667C26.3243 8.16667 27.914 8.82515 29.0861 9.99725C30.2582 11.1694 30.9167 12.7591 30.9167 14.4167V18.5833H18.4167V14.4167ZM37.1667 39.4167C37.1667 39.9692 36.9472 40.4991 36.5565 40.8898C36.1658 41.2805 35.6359 41.5 35.0833 41.5H14.25C13.6975 41.5 13.1676 41.2805 12.7769 40.8898C12.3862 40.4991 12.1667 39.9692 12.1667 39.4167V24.8333C12.1667 24.2808 12.3862 23.7509 12.7769 23.3602C13.1676 22.9695 13.6975 22.75 14.25 22.75H35.0833C35.6359 22.75 36.1658 22.9695 36.5565 23.3602C36.9472 23.7509 37.1667 24.2808 37.1667 24.8333V39.4167Z" fill="#004DFF" fill-opacity="0.6"/>
</svg>
