<svg width="50" height="50" viewBox="0 0 50 50" fill="none" xmlns="http://www.w3.org/2000/svg">
<path d="M44.7915 31.2501C44.7869 29.9995 44.4072 28.779 43.7015 27.7465C42.9959 26.714 41.9967 25.917 40.8332 25.4584L44.729 10.8751C44.8104 10.5645 44.8189 10.2393 44.7538 9.92492C44.6888 9.61051 44.5519 9.31539 44.354 9.0626C44.1516 8.82574 43.8987 8.63727 43.6139 8.51108C43.3291 8.38489 43.0196 8.32419 42.7082 8.33343H14.1665L13.479 5.70843C13.3595 5.2645 13.0965 4.87257 12.7309 4.59372C12.3654 4.31486 11.9179 4.16475 11.4582 4.16677H7.2915V8.33343H9.854L15.0207 27.6251C15.1428 28.0796 15.4151 28.4794 15.7934 28.7593C16.1717 29.0393 16.6337 29.1829 17.104 29.1668H38.5415C39.094 29.1668 39.6239 29.3863 40.0146 29.777C40.4053 30.1677 40.6248 30.6976 40.6248 31.2501C40.6248 31.8026 40.4053 32.3325 40.0146 32.7232C39.6239 33.1139 39.094 33.3334 38.5415 33.3334H11.4582C10.9056 33.3334 10.3757 33.5529 9.98503 33.9436C9.59433 34.3343 9.37484 34.8642 9.37484 35.4168C9.37484 35.9693 9.59433 36.4992 9.98503 36.8899C10.3757 37.2806 10.9056 37.5001 11.4582 37.5001H13.9165C13.5739 38.4441 13.4638 39.4568 13.5955 40.4524C13.7273 41.448 14.097 42.3972 14.6734 43.2196C15.2498 44.042 16.0159 44.7134 16.9068 45.1769C17.7977 45.6404 18.7872 45.8824 19.7915 45.8824C20.7958 45.8824 21.7853 45.6404 22.6762 45.1769C23.5671 44.7134 24.3332 44.042 24.9096 43.2196C25.486 42.3972 25.8557 41.448 25.9875 40.4524C26.1192 39.4568 26.0091 38.4441 25.6665 37.5001H30.5832C30.2713 38.3597 30.1518 39.2773 30.2332 40.1881C30.3145 41.0989 30.5948 41.9807 31.0541 42.7714C31.5134 43.5621 32.1407 44.2424 32.8916 44.7642C33.6425 45.2861 34.4988 45.6368 35.4 45.7917C36.3012 45.9465 37.2254 45.9017 38.1075 45.6604C38.9895 45.4192 39.8078 44.9873 40.5047 44.3952C41.2017 43.8032 41.7602 43.0655 42.1409 42.2341C42.5216 41.4027 42.7153 40.4978 42.7082 39.5834C42.7043 38.5071 42.4169 37.4508 41.8748 36.5209C42.7657 35.9593 43.5002 35.1816 44.0101 34.2601C44.52 33.3386 44.7888 32.3032 44.7915 31.2501ZM36.6457 25.0001H18.7498L15.2915 12.5001H39.9998L36.6457 25.0001ZM19.7915 41.6668C19.3795 41.6668 18.9767 41.5446 18.6341 41.3157C18.2915 41.0867 18.0244 40.7614 17.8668 40.3807C17.7091 40 17.6678 39.5811 17.7482 39.177C17.8286 38.7729 18.027 38.4017 18.3184 38.1103C18.6097 37.8189 18.9809 37.6205 19.3851 37.5401C19.7892 37.4597 20.2081 37.501 20.5888 37.6587C20.9694 37.8164 21.2948 38.0834 21.5237 38.426C21.7527 38.7686 21.8748 39.1714 21.8748 39.5834C21.8748 40.136 21.6553 40.6659 21.2646 41.0566C20.8739 41.4473 20.344 41.6668 19.7915 41.6668ZM36.4582 41.6668C36.0461 41.6668 35.6433 41.5446 35.3007 41.3157C34.9581 41.0867 34.6911 40.7614 34.5334 40.3807C34.3757 40 34.3345 39.5811 34.4149 39.177C34.4953 38.7729 34.6937 38.4017 34.985 38.1103C35.2764 37.8189 35.6476 37.6205 36.0517 37.5401C36.4559 37.4597 36.8747 37.501 37.2554 37.6587C37.6361 37.8164 37.9615 38.0834 38.1904 38.426C38.4193 38.7686 38.5415 39.1714 38.5415 39.5834C38.5415 40.136 38.322 40.6659 37.9313 41.0566C37.5406 41.4473 37.0107 41.6668 36.4582 41.6668Z" fill="#004DFF" fill-opacity="0.6"/>
</svg>
