<svg width="50" height="50" viewBox="0 0 50 50" fill="none" xmlns="http://www.w3.org/2000/svg">
<path d="M29.1667 22.9167H20.8333C19.7283 22.9167 18.6685 22.4778 17.8871 21.6964C17.1057 20.915 16.6667 19.8552 16.6667 18.7501C16.6667 17.645 17.1057 16.5852 17.8871 15.8038C18.6685 15.0224 19.7283 14.5834 20.8333 14.5834H31.25C31.8025 14.5834 32.3324 14.8029 32.7231 15.1936C33.1138 15.5843 33.3333 16.1142 33.3333 16.6667C33.3333 17.2193 33.5528 17.7492 33.9435 18.1399C34.3342 18.5306 34.8641 18.7501 35.4167 18.7501C35.9692 18.7501 36.4991 18.5306 36.8898 18.1399C37.2805 17.7492 37.5 17.2193 37.5 16.6667C37.5 15.0091 36.8415 13.4194 35.6694 12.2473C34.4973 11.0752 32.9076 10.4167 31.25 10.4167H27.0833V6.25008C27.0833 5.69755 26.8638 5.16764 26.4731 4.77694C26.0824 4.38624 25.5525 4.16675 25 4.16675C24.4475 4.16675 23.9176 4.38624 23.5269 4.77694C23.1362 5.16764 22.9167 5.69755 22.9167 6.25008V10.4167H20.8333C18.6232 10.4167 16.5036 11.2947 14.9408 12.8575C13.378 14.4203 12.5 16.5399 12.5 18.7501C12.5 20.9602 13.378 23.0798 14.9408 24.6426C16.5036 26.2054 18.6232 27.0834 20.8333 27.0834H29.1667C30.2717 27.0834 31.3315 27.5224 32.1129 28.3038C32.8943 29.0852 33.3333 30.145 33.3333 31.2501C33.3333 32.3552 32.8943 33.415 32.1129 34.1964C31.3315 34.9778 30.2717 35.4167 29.1667 35.4167H18.75C18.1975 35.4167 17.6676 35.1973 17.2769 34.8066C16.8862 34.4159 16.6667 33.886 16.6667 33.3334C16.6667 32.7809 16.4472 32.251 16.0565 31.8603C15.6658 31.4696 15.1359 31.2501 14.5833 31.2501C14.0308 31.2501 13.5009 31.4696 13.1102 31.8603C12.7195 32.251 12.5 32.7809 12.5 33.3334C12.5 34.991 13.1585 36.5807 14.3306 37.7528C15.5027 38.9249 17.0924 39.5834 18.75 39.5834H22.9167V43.7501C22.9167 44.3026 23.1362 44.8325 23.5269 45.2232C23.9176 45.6139 24.4475 45.8334 25 45.8334C25.5525 45.8334 26.0824 45.6139 26.4731 45.2232C26.8638 44.8325 27.0833 44.3026 27.0833 43.7501V39.5834H29.1667C31.3768 39.5834 33.4964 38.7054 35.0592 37.1426C36.622 35.5798 37.5 33.4602 37.5 31.2501C37.5 29.0399 36.622 26.9203 35.0592 25.3575C33.4964 23.7947 31.3768 22.9167 29.1667 22.9167Z" fill="#004DFF" fill-opacity="0.6"/>
</svg>
