<svg width="50" height="50" viewBox="0 0 50 50" fill="none" xmlns="http://www.w3.org/2000/svg">
<path d="M24.9999 4.16675C20.5796 4.16675 16.3404 5.9227 13.2148 9.0483C10.0892 12.1739 8.33325 16.4131 8.33325 20.8334C8.33325 32.0834 23.0208 44.7917 23.6458 45.3334C24.0231 45.6562 24.5034 45.8335 24.9999 45.8335C25.4965 45.8335 25.9767 45.6562 26.3541 45.3334C27.0833 44.7917 41.6666 32.0834 41.6666 20.8334C41.6666 16.4131 39.9106 12.1739 36.785 9.0483C33.6594 5.9227 29.4202 4.16675 24.9999 4.16675ZM24.9999 40.9376C20.5624 36.7709 12.4999 27.7917 12.4999 20.8334C12.4999 17.5182 13.8169 14.3388 16.1611 11.9946C18.5053 9.65038 21.6847 8.33341 24.9999 8.33341C28.3151 8.33341 31.4946 9.65038 33.8388 11.9946C36.183 14.3388 37.4999 17.5182 37.4999 20.8334C37.4999 27.7917 29.4374 36.7917 24.9999 40.9376ZM24.9999 12.5001C23.3517 12.5001 21.7406 12.9888 20.3702 13.9045C18.9998 14.8202 17.9317 16.1217 17.3009 17.6444C16.6702 19.1671 16.5052 20.8427 16.8267 22.4592C17.1483 24.0757 17.9419 25.5605 19.1074 26.726C20.2728 27.8914 21.7577 28.6851 23.3742 29.0066C24.9907 29.3282 26.6662 29.1631 28.1889 28.5324C29.7117 27.9017 31.0132 26.8336 31.9288 25.4632C32.8445 24.0928 33.3333 22.4816 33.3333 20.8334C33.3333 18.6233 32.4553 16.5037 30.8925 14.9409C29.3297 13.3781 27.2101 12.5001 24.9999 12.5001ZM24.9999 25.0001C24.1758 25.0001 23.3702 24.7557 22.685 24.2979C21.9998 23.84 21.4658 23.1893 21.1504 22.4279C20.8351 21.6666 20.7525 20.8288 20.9133 20.0205C21.0741 19.2123 21.4709 18.4699 22.0536 17.8871C22.6364 17.3044 23.3788 16.9076 24.187 16.7468C24.9953 16.586 25.8331 16.6686 26.5944 16.9839C27.3558 17.2993 28.0065 17.8333 28.4644 18.5185C28.9222 19.2037 29.1666 20.0093 29.1666 20.8334C29.1666 21.9385 28.7276 22.9983 27.9462 23.7797C27.1648 24.5611 26.105 25.0001 24.9999 25.0001Z" fill="#5C8AF5"/>
</svg>
