<svg width="50" height="50" viewBox="0 0 50 50" fill="none" xmlns="http://www.w3.org/2000/svg">
<path d="M39.5832 13.5416H33.3332V11.4583C33.3332 9.80065 32.6747 8.21094 31.5026 7.03883C30.3305 5.86673 28.7408 5.20825 27.0832 5.20825H22.9165C21.2589 5.20825 19.6692 5.86673 18.4971 7.03883C17.325 8.21094 16.6665 9.80065 16.6665 11.4583V13.5416H10.4165C8.7589 13.5416 7.16919 14.2001 5.99709 15.3722C4.82498 16.5443 4.1665 18.134 4.1665 19.7916V38.5416C4.1665 40.1992 4.82498 41.7889 5.99709 42.961C7.16919 44.1331 8.7589 44.7916 10.4165 44.7916H39.5832C41.2408 44.7916 42.8305 44.1331 44.0026 42.961C45.1747 41.7889 45.8332 40.1992 45.8332 38.5416V19.7916C45.8332 18.134 45.1747 16.5443 44.0026 15.3722C42.8305 14.2001 41.2408 13.5416 39.5832 13.5416ZM20.8332 11.4583C20.8332 10.9057 21.0527 10.3758 21.4434 9.98511C21.8341 9.59441 22.364 9.37492 22.9165 9.37492H27.0832C27.6357 9.37492 28.1656 9.59441 28.5563 9.98511C28.947 10.3758 29.1665 10.9057 29.1665 11.4583V13.5416H20.8332V11.4583ZM41.6665 38.5416C41.6665 39.0941 41.447 39.624 41.0563 40.0147C40.6656 40.4054 40.1357 40.6249 39.5832 40.6249H10.4165C9.86397 40.6249 9.33407 40.4054 8.94337 40.0147C8.55266 39.624 8.33317 39.0941 8.33317 38.5416V28.0208H14.5832V30.2083C14.5832 30.7608 14.8027 31.2907 15.1934 31.6814C15.5841 32.0721 16.114 32.2916 16.6665 32.2916C17.219 32.2916 17.7489 32.0721 18.1396 31.6814C18.5303 31.2907 18.7498 30.7608 18.7498 30.2083V28.0208H31.2498V30.2083C31.2498 30.7608 31.4693 31.2907 31.86 31.6814C32.2507 32.0721 32.7806 32.2916 33.3332 32.2916C33.8857 32.2916 34.4156 32.0721 34.8063 31.6814C35.197 31.2907 35.4165 30.7608 35.4165 30.2083V28.0208H41.6665V38.5416ZM41.6665 23.9583H8.33317V19.7916C8.33317 19.239 8.55266 18.7091 8.94337 18.3184C9.33407 17.9277 9.86397 17.7083 10.4165 17.7083H39.5832C40.1357 17.7083 40.6656 17.9277 41.0563 18.3184C41.447 18.7091 41.6665 19.239 41.6665 19.7916V23.9583Z" fill="#004DFF" fill-opacity="0.6"/>
</svg>
