<svg width="50" height="50" viewBox="0 0 50 50" fill="none" xmlns="http://www.w3.org/2000/svg">
<path d="M21.7916 12.4999L22.9166 11.2708V18.7499C22.9166 19.3025 23.1361 19.8324 23.5268 20.2231C23.9175 20.6138 24.4474 20.8333 24.9999 20.8333C25.5525 20.8333 26.0824 20.6138 26.4731 20.2231C26.8638 19.8324 27.0833 19.3025 27.0833 18.7499V11.2708L28.2083 12.4166C28.3974 12.6302 28.6283 12.8027 28.8868 12.9233C29.1453 13.044 29.4258 13.1103 29.711 13.1181C29.9962 13.1259 30.2799 13.0751 30.5446 12.9688C30.8093 12.8624 31.0494 12.7029 31.2499 12.4999C31.4452 12.3063 31.6002 12.0759 31.7059 11.822C31.8117 11.5681 31.8662 11.2958 31.8662 11.0208C31.8662 10.7458 31.8117 10.4735 31.7059 10.2196C31.6002 9.96571 31.4452 9.73529 31.2499 9.54161L26.4791 4.77078C26.281 4.58111 26.0473 4.43244 25.7916 4.33328C25.2844 4.12491 24.7155 4.12491 24.2083 4.33328C23.9525 4.43244 23.7189 4.58111 23.5208 4.77078L18.7499 9.45828C18.3466 9.86163 18.12 10.4087 18.12 10.9791C18.12 11.5495 18.3466 12.0966 18.7499 12.4999C19.1533 12.9033 19.7003 13.1299 20.2708 13.1299C20.8412 13.1299 21.3882 12.9033 21.7916 12.4999ZM24.9999 24.9999C23.7638 24.9999 22.5554 25.3665 21.5276 26.0533C20.4998 26.74 19.6987 27.7161 19.2257 28.8582C18.7526 30.0002 18.6289 31.2569 18.87 32.4693C19.1112 33.6816 19.7064 34.7953 20.5805 35.6694C21.4546 36.5434 22.5682 37.1387 23.7806 37.3799C24.993 37.621 26.2497 37.4972 27.3917 37.0242C28.5337 36.5511 29.5098 35.7501 30.1966 34.7223C30.8834 33.6945 31.2499 32.4861 31.2499 31.2499C31.2499 29.5923 30.5914 28.0026 29.4193 26.8305C28.2472 25.6584 26.6575 24.9999 24.9999 24.9999ZM24.9999 33.3333C24.5879 33.3333 24.1851 33.2111 23.8425 32.9822C23.4999 32.7533 23.2329 32.4279 23.0752 32.0472C22.9175 31.6665 22.8762 31.2476 22.9566 30.8435C23.037 30.4394 23.2354 30.0682 23.5268 29.7768C23.8181 29.4855 24.1894 29.287 24.5935 29.2066C24.9976 29.1263 25.4165 29.1675 25.7972 29.3252C26.1779 29.4829 26.5032 29.7499 26.7321 30.0925C26.9611 30.4351 27.0833 30.8379 27.0833 31.2499C27.0833 31.8025 26.8638 32.3324 26.4731 32.7231C26.0824 33.1138 25.5525 33.3333 24.9999 33.3333ZM10.4166 31.2499C10.4166 31.662 10.5388 32.0648 10.7677 32.4074C10.9966 32.75 11.322 33.017 11.7027 33.1747C12.0833 33.3324 12.5022 33.3736 12.9064 33.2933C13.3105 33.2129 13.6817 33.0144 13.9731 32.7231C14.2644 32.4317 14.4628 32.0605 14.5432 31.6564C14.6236 31.2523 14.5823 30.8334 14.4247 30.4527C14.267 30.072 14 29.7466 13.6574 29.5177C13.3148 29.2888 12.912 29.1666 12.4999 29.1666C11.9474 29.1666 11.4175 29.3861 11.0268 29.7768C10.6361 30.1675 10.4166 30.6974 10.4166 31.2499ZM39.5833 31.2499C39.5833 30.8379 39.4611 30.4351 39.2321 30.0925C39.0032 29.7499 38.6779 29.4829 38.2972 29.3252C37.9165 29.1675 37.4976 29.1263 37.0935 29.2066C36.6894 29.287 36.3181 29.4855 36.0268 29.7768C35.7354 30.0682 35.537 30.4394 35.4566 30.8435C35.3762 31.2476 35.4175 31.6665 35.5752 32.0472C35.7328 32.4279 35.9999 32.7533 36.3425 32.9822C36.6851 33.2111 37.0879 33.3333 37.4999 33.3333C38.0525 33.3333 38.5824 33.1138 38.9731 32.7231C39.3638 32.3324 39.5833 31.8025 39.5833 31.2499ZM41.6666 16.6666H33.3333C32.7807 16.6666 32.2508 16.8861 31.8601 17.2768C31.4694 17.6675 31.2499 18.1974 31.2499 18.7499C31.2499 19.3025 31.4694 19.8324 31.8601 20.2231C32.2508 20.6138 32.7807 20.8333 33.3333 20.8333H41.6666C42.2191 20.8333 42.749 21.0528 43.1397 21.4435C43.5304 21.8342 43.7499 22.3641 43.7499 22.9166V39.5833C43.7499 40.1358 43.5304 40.6657 43.1397 41.0564C42.749 41.4471 42.2191 41.6666 41.6666 41.6666H8.33325C7.78072 41.6666 7.25081 41.4471 6.86011 41.0564C6.46941 40.6657 6.24992 40.1358 6.24992 39.5833V22.9166C6.24992 22.3641 6.46941 21.8342 6.86011 21.4435C7.25081 21.0528 7.78072 20.8333 8.33325 20.8333H16.6666C17.2191 20.8333 17.749 20.6138 18.1397 20.2231C18.5304 19.8324 18.7499 19.3025 18.7499 18.7499C18.7499 18.1974 18.5304 17.6675 18.1397 17.2768C17.749 16.8861 17.2191 16.6666 16.6666 16.6666H8.33325C6.67565 16.6666 5.08594 17.3251 3.91383 18.4972C2.74173 19.6693 2.08325 21.259 2.08325 22.9166V39.5833C2.08325 41.2409 2.74173 42.8306 3.91383 44.0027C5.08594 45.1748 6.67565 45.8333 8.33325 45.8333H41.6666C43.3242 45.8333 44.9139 45.1748 46.086 44.0027C47.2581 42.8306 47.9166 41.2409 47.9166 39.5833V22.9166C47.9166 21.259 47.2581 19.6693 46.086 18.4972C44.9139 17.3251 43.3242 16.6666 41.6666 16.6666Z" fill="#5C8AF5"/>
</svg>
