<svg width="50" height="50" viewBox="0 0 50 50" fill="none" xmlns="http://www.w3.org/2000/svg">
<path d="M30.6668 18.3126L21.7293 27.2709L18.2918 23.8334C18.105 23.6153 17.8752 23.4382 17.6167 23.3132C17.3582 23.1881 17.0767 23.1178 16.7898 23.1068C16.5029 23.0957 16.2168 23.144 15.9494 23.2488C15.6821 23.3535 15.4393 23.5124 15.2362 23.7154C15.0332 23.9184 14.8743 24.1612 14.7696 24.4286C14.6649 24.6959 14.6165 24.982 14.6276 25.2689C14.6387 25.5559 14.7089 25.8374 14.834 26.0959C14.959 26.3543 15.1362 26.5842 15.3543 26.7709L20.2501 31.6876C20.4448 31.8807 20.6756 32.0334 20.9295 32.1371C21.1833 32.2408 21.4551 32.2933 21.7293 32.2917C22.2758 32.2894 22.7995 32.0725 23.1876 31.6876L33.6043 21.2709C33.7995 21.0772 33.9545 20.8468 34.0603 20.5929C34.1661 20.3391 34.2205 20.0668 34.2205 19.7917C34.2205 19.5167 34.1661 19.2444 34.0603 18.9905C33.9545 18.7367 33.7995 18.5063 33.6043 18.3126C33.2139 17.9246 32.6859 17.7068 32.1355 17.7068C31.5851 17.7068 31.0571 17.9246 30.6668 18.3126ZM25.0001 4.16675C20.8796 4.16675 16.8517 5.3886 13.4257 7.6778C9.99969 9.96699 7.32943 13.2207 5.7526 17.0275C4.17577 20.8343 3.76321 25.0232 4.56706 29.0645C5.37092 33.1057 7.35511 36.8179 10.2687 39.7315C13.1823 42.6451 16.8944 44.6292 20.9357 45.4331C24.977 46.237 29.1659 45.8244 32.9727 44.2476C36.7795 42.6707 40.0332 40.0005 42.3224 36.5745C44.6116 33.1484 45.8334 29.1205 45.8334 25.0001C45.8334 22.2642 45.2946 19.5551 44.2476 17.0275C43.2006 14.4999 41.666 12.2032 39.7315 10.2687C37.7969 8.33414 35.5003 6.79956 32.9727 5.75259C30.445 4.70562 27.736 4.16675 25.0001 4.16675ZM25.0001 41.6667C21.7037 41.6667 18.4814 40.6893 15.7406 38.8579C12.9998 37.0266 10.8636 34.4236 9.6021 31.3781C8.34064 28.3327 8.01058 24.9816 8.65367 21.7486C9.29676 18.5156 10.8841 15.5458 13.215 13.215C15.5459 10.8841 18.5156 9.29675 21.7486 8.65366C24.9816 8.01057 28.3327 8.34063 31.3782 9.60209C34.4236 10.8635 37.0266 12.9998 38.8579 15.7406C40.6893 18.4814 41.6668 21.7037 41.6668 25.0001C41.6668 29.4204 39.9108 33.6596 36.7852 36.7852C33.6596 39.9108 29.4204 41.6667 25.0001 41.6667Z" fill="#5C8AF5"/>
</svg>
