<svg width="92" height="92" viewBox="0 0 92 92" fill="none" xmlns="http://www.w3.org/2000/svg">
<path d="M42.1667 7.66669C34.585 7.66669 27.1737 9.9149 20.8698 14.127C14.5659 18.3391 9.65264 24.326 6.75128 31.3305C3.84992 38.335 3.09079 46.0425 4.56989 53.4785C6.04899 60.9144 9.69989 67.7448 15.0609 73.1058C20.4219 78.4668 27.2523 82.1177 34.6882 83.5968C42.1241 85.0759 49.8317 84.3168 56.8362 81.4154C63.8407 78.5141 69.8275 73.6008 74.0397 67.2969C78.2518 60.993 80.5 53.5816 80.5 46C80.5 40.966 79.5085 35.9813 77.582 31.3305C75.6556 26.6797 72.832 22.4538 69.2724 18.8943C65.7128 15.3347 61.487 12.5111 56.8362 10.5846C52.1854 8.65821 47.2007 7.66669 42.1667 7.66669ZM42.1667 76.6667C36.1014 76.6667 30.1723 74.8681 25.1292 71.4984C20.0861 68.1287 16.1554 63.3393 13.8344 57.7356C11.5133 52.132 10.906 45.966 12.0892 40.0173C13.2725 34.0685 16.1932 28.6042 20.4821 24.3154C24.7709 20.0266 30.2351 17.1059 36.1839 15.9226C42.1326 14.7393 48.2987 15.3466 53.9023 17.6677C59.5059 19.9888 64.2954 23.9194 67.6651 28.9625C71.0348 34.0056 72.8333 39.9347 72.8333 46C72.8333 54.1333 69.6024 61.9335 63.8513 67.6846C58.1002 73.4358 50.3 76.6667 42.1667 76.6667ZM54.05 48.415L46 43.7767V26.8334C46 25.8167 45.5961 24.8417 44.8772 24.1228C44.1583 23.4039 43.1833 23 42.1667 23C41.15 23 40.175 23.4039 39.4561 24.1228C38.7372 24.8417 38.3333 25.8167 38.3333 26.8334V46C38.3333 46 38.3333 46.3067 38.3333 46.46C38.356 46.7241 38.4207 46.983 38.525 47.2267C38.6039 47.4541 38.7067 47.6726 38.8317 47.8784C38.9366 48.0962 39.0651 48.3019 39.215 48.4917L39.8283 48.99L40.1733 49.335L50.14 55.085C50.7242 55.4161 51.3852 55.588 52.0567 55.5834C52.9054 55.5893 53.7322 55.3134 54.4072 54.7988C55.0823 54.2843 55.5675 53.5603 55.7867 52.7403C56.006 51.9203 55.9468 51.0508 55.6187 50.268C55.2905 49.4852 54.7118 48.8335 53.9733 48.415H54.05Z" fill="#004DFF" fill-opacity="0.34"/>
</svg>
