<svg width="50" height="50" viewBox="0 0 50 50" fill="none" xmlns="http://www.w3.org/2000/svg">
<path d="M14.5833 33.3334C15.4121 33.3334 16.207 33.0042 16.793 32.4181C17.3791 31.8321 17.7083 31.0372 17.7083 30.2084C17.7185 30.1045 17.7185 29.9998 17.7083 29.8959L23.5208 24.0834H24H24.4792L27.8333 27.4376C27.8333 27.4376 27.8333 27.5417 27.8333 27.6042C27.8333 28.4331 28.1626 29.2279 28.7486 29.814C29.3347 30.4 30.1295 30.7292 30.9583 30.7292C31.7871 30.7292 32.582 30.4 33.168 29.814C33.7541 29.2279 34.0833 28.4331 34.0833 27.6042V27.4376L41.6667 19.7917C42.2847 19.7917 42.8889 19.6085 43.4028 19.2651C43.9167 18.9217 44.3173 18.4337 44.5538 17.8626C44.7903 17.2916 44.8522 16.6633 44.7316 16.0571C44.611 15.4509 44.3134 14.8941 43.8764 14.457C43.4393 14.02 42.8825 13.7224 42.2763 13.6018C41.6701 13.4812 41.0418 13.5431 40.4708 13.7796C39.8998 14.0161 39.4117 14.4167 39.0683 14.9306C38.7249 15.4445 38.5417 16.0487 38.5417 16.6667C38.5315 16.7707 38.5315 16.8753 38.5417 16.9792L31.0208 24.5001H30.6875L27.0833 20.8334C27.0833 20.0046 26.7541 19.2098 26.168 18.6237C25.582 18.0377 24.7871 17.7084 23.9583 17.7084C23.1295 17.7084 22.3347 18.0377 21.7486 18.6237C21.1626 19.2098 20.8333 20.0046 20.8333 20.8334L14.5833 27.0834C13.7545 27.0834 12.9597 27.4127 12.3736 27.9987C11.7876 28.5848 11.4583 29.3796 11.4583 30.2084C11.4583 31.0372 11.7876 31.8321 12.3736 32.4181C12.9597 33.0042 13.7545 33.3334 14.5833 33.3334ZM42.7083 41.6668H7.29167V6.25008C7.29167 5.69755 7.07217 5.16764 6.68147 4.77694C6.29077 4.38624 5.76087 4.16675 5.20833 4.16675C4.6558 4.16675 4.12589 4.38624 3.73519 4.77694C3.34449 5.16764 3.125 5.69755 3.125 6.25008V43.7501C3.125 44.3026 3.34449 44.8325 3.73519 45.2232C4.12589 45.6139 4.6558 45.8334 5.20833 45.8334H42.7083C43.2609 45.8334 43.7908 45.6139 44.1815 45.2232C44.5722 44.8325 44.7917 44.3026 44.7917 43.7501C44.7917 43.1976 44.5722 42.6676 44.1815 42.2769C43.7908 41.8862 43.2609 41.6668 42.7083 41.6668Z" fill="#5C8AF5"/>
</svg>
