<svg width="33" height="33" viewBox="0 0 33 33" fill="none" xmlns="http://www.w3.org/2000/svg">
<path d="M26.125 8.9375H24.365L23.925 7.5625C23.6398 6.75569 23.1107 6.05757 22.411 5.56485C21.7113 5.07213 20.8757 4.8092 20.02 4.8125H12.98C12.1159 4.81412 11.2741 5.08706 10.5734 5.59282C9.87277 6.09858 9.34864 6.8116 9.075 7.63125L8.635 9.00625H6.875C5.78098 9.00625 4.73177 9.44085 3.95818 10.2144C3.1846 10.988 2.75 12.0372 2.75 13.1312V24.1312C2.75 25.2253 3.1846 26.2745 3.95818 27.0481C4.73177 27.8217 5.78098 28.2562 6.875 28.2562H26.125C27.219 28.2562 28.2682 27.8217 29.0418 27.0481C29.8154 26.2745 30.25 25.2253 30.25 24.1312V13.1312C30.2591 12.5838 30.1592 12.04 29.956 11.5316C29.7527 11.0231 29.4503 10.5602 29.0664 10.1699C28.6824 9.77954 28.2246 9.46953 27.7196 9.25794C27.2146 9.04635 26.6725 8.93742 26.125 8.9375ZM27.5 24.0625C27.5 24.4272 27.3551 24.7769 27.0973 25.0348C26.8394 25.2926 26.4897 25.4375 26.125 25.4375H6.875C6.51033 25.4375 6.16059 25.2926 5.90273 25.0348C5.64487 24.7769 5.5 24.4272 5.5 24.0625V13.0625C5.5 12.6978 5.64487 12.3481 5.90273 12.0902C6.16059 11.8324 6.51033 11.6875 6.875 11.6875H9.625C9.92484 11.7032 10.2216 11.6202 10.4698 11.4514C10.7181 11.2826 10.9043 11.0371 11 10.7525L11.7425 8.4975C11.8347 8.2244 12.0105 7.98719 12.2449 7.81941C12.4793 7.65163 12.7605 7.56176 13.0487 7.5625H20.0887C20.377 7.56176 20.6582 7.65163 20.8926 7.81941C21.127 7.98719 21.3028 8.2244 21.395 8.4975L22.1375 10.7525C22.2257 11.0148 22.391 11.2443 22.6118 11.4111C22.8326 11.578 23.0986 11.6743 23.375 11.6875H26.125C26.4897 11.6875 26.8394 11.8324 27.0973 12.0902C27.3551 12.3481 27.5 12.6978 27.5 13.0625V24.0625ZM16.5 11.6875C15.4122 11.6875 14.3488 12.0101 13.4444 12.6144C12.5399 13.2188 11.8349 14.0777 11.4187 15.0827C11.0024 16.0877 10.8935 17.1936 11.1057 18.2605C11.3179 19.3274 11.8417 20.3074 12.6109 21.0766C13.3801 21.8458 14.3601 22.3696 15.427 22.5818C16.4939 22.794 17.5998 22.6851 18.6048 22.2688C19.6098 21.8526 20.4687 21.1476 21.0731 20.2431C21.6774 19.3387 22 18.2753 22 17.1875C22 15.7288 21.4205 14.3299 20.3891 13.2984C19.3576 12.267 17.9587 11.6875 16.5 11.6875V11.6875ZM16.5 19.9375C15.9561 19.9375 15.4244 19.7762 14.9722 19.474C14.5199 19.1719 14.1675 18.7424 13.9593 18.2399C13.7512 17.7374 13.6967 17.1844 13.8028 16.651C13.9089 16.1176 14.1709 15.6276 14.5555 15.243C14.9401 14.8584 15.4301 14.5964 15.9635 14.4903C16.4969 14.3842 17.0499 14.4387 17.5524 14.6468C18.0549 14.855 18.4844 15.2074 18.7865 15.6597C19.0887 16.1119 19.25 16.6436 19.25 17.1875C19.25 17.9168 18.9603 18.6163 18.4445 19.132C17.9288 19.6478 17.2293 19.9375 16.5 19.9375Z" fill="#000F33"/>
</svg>
