<svg width="50" height="50" viewBox="0 0 50 50" fill="none" xmlns="http://www.w3.org/2000/svg">
<path d="M32.3749 23.5208L20.5832 11.75C20.3895 11.5547 20.1591 11.3997 19.9052 11.294C19.6514 11.1882 19.3791 11.1337 19.104 11.1337C18.829 11.1337 18.5567 11.1882 18.3028 11.294C18.049 11.3997 17.8185 11.5547 17.6249 11.75C17.2368 12.1403 17.019 12.6683 17.019 13.2187C17.019 13.7691 17.2368 14.2971 17.6249 14.6875L27.9374 25.1041L17.6249 35.4166C17.2368 35.807 17.019 36.335 17.019 36.8854C17.019 37.4358 17.2368 37.9638 17.6249 38.3541C17.8178 38.551 18.0479 38.7076 18.3018 38.8149C18.5557 38.9222 18.8284 38.978 19.104 38.9791C19.3797 38.978 19.6523 38.9222 19.9062 38.8149C20.1602 38.7076 20.3902 38.551 20.5832 38.3541L32.3749 26.5833C32.5863 26.3882 32.7551 26.1514 32.8705 25.8879C32.986 25.6244 33.0456 25.3398 33.0456 25.0521C33.0456 24.7643 32.986 24.4798 32.8705 24.2162C32.7551 23.9527 32.5863 23.7159 32.3749 23.5208V23.5208Z" fill="#000F33"/>
</svg>
