<svg width="33" height="28" viewBox="0 0 33 28" fill="none" xmlns="http://www.w3.org/2000/svg">
<g clip-path="url(#clip0_1475_624)">
<path d="M27.5258 5.11974L25.5686 7.0411C24.4932 5.68784 23.1173 4.59352 21.5456 3.84159C19.974 3.08965 18.2483 2.69997 16.4999 2.70226C13.6558 2.70054 10.912 3.73345 8.79833 5.60149C6.68467 7.46954 5.35117 10.0402 5.05533 12.8169H6.54006C6.66118 12.8161 6.78037 12.8467 6.88555 12.9057C6.99072 12.9647 7.07814 13.0499 7.13889 13.1528C7.19964 13.2556 7.23159 13.3724 7.23147 13.4913C7.23134 13.6102 7.19912 13.727 7.13816 13.8297L4.21346 18.8042C4.15342 18.9079 4.06649 18.9942 3.96143 19.0543C3.85636 19.1143 3.73693 19.1459 3.61536 19.1459C3.49379 19.1459 3.37443 19.1143 3.26937 19.0543C3.1643 18.9942 3.07729 18.9079 3.01726 18.8042L0.0940919 13.8297C0.0336195 13.7269 0.00184691 13.6103 0.00195339 13.4915C0.00205987 13.3728 0.0340193 13.2562 0.094676 13.1535C0.155333 13.0508 0.242536 12.9656 0.347436 12.9065C0.452336 12.8474 0.571247 12.8165 0.692189 12.8169H2.29059C2.59218 9.32211 4.21919 6.06575 6.8497 3.69226C9.4802 1.31877 12.9225 0.00110019 16.4954 9.75414e-06C18.6058 -0.00391256 20.6907 0.453509 22.5986 1.33907C24.5065 2.22462 26.1897 3.5161 27.5258 5.11974Z" fill="#000F33"/>
<path d="M5.47705 22.8788L7.4343 20.9574C13.7667 28.9086 26.8725 25.2977 27.9491 15.183H26.4628C26.3419 15.1835 26.2229 15.1526 26.118 15.0935C26.0131 15.0344 25.9259 14.9492 25.8653 14.8465C25.8046 14.7438 25.7727 14.6272 25.7726 14.5085C25.7725 14.3897 25.8042 14.2731 25.8647 14.1703L28.7894 9.19585C28.8497 9.09246 28.9368 9.00655 29.0418 8.94679C29.1468 8.88704 29.2661 8.85558 29.3875 8.85558C29.5089 8.85558 29.6281 8.88704 29.7331 8.94679C29.8381 9.00655 29.9252 9.09246 29.9856 9.19585L32.9103 14.1703C32.9708 14.2731 33.0025 14.3897 33.0024 14.5085C33.0023 14.6272 32.9703 14.7438 32.9096 14.8465C32.849 14.9492 32.7619 15.0344 32.657 15.0935C32.5521 15.1526 32.4331 15.1835 32.3122 15.183H30.7137C30.4123 18.6803 28.7834 21.9387 26.15 24.3126C23.5166 26.6865 20.0708 28.0026 16.4955 28C14.3869 28.0022 12.3043 27.5438 10.3985 26.658C8.49274 25.7723 6.81163 24.4813 5.47705 22.8788V22.8788Z" fill="#000F33"/>
</g>
<defs>
<clipPath id="clip0_1475_624">
<rect width="33" height="28" fill="white"/>
</clipPath>
</defs>
</svg>
