<svg width="22" height="25" viewBox="0 0 22 25" fill="none" xmlns="http://www.w3.org/2000/svg">
<path d="M21.3032 11.3028L2.06161 0.184356C1.85268 0.0635821 1.61567 0 1.37441 0C1.13316 0 0.896148 0.0635821 0.687212 0.184356C0.477472 0.305592 0.303453 0.480163 0.182776 0.690393C0.062099 0.900622 -0.000950653 1.13905 1.08343e-05 1.38152V23.6185C-0.000950653 23.861 0.062099 24.0994 0.182776 24.3096C0.303453 24.5198 0.477472 24.6944 0.687212 24.8156C0.896148 24.9364 1.13316 25 1.37441 25C1.61567 25 1.85268 24.9364 2.06161 24.8156L21.3032 13.6972C21.5148 13.5771 21.6907 13.4031 21.8131 13.1928C21.9355 12.9825 22 12.7434 22 12.5C22 12.2566 21.9355 12.0175 21.8131 11.8072C21.6907 11.5969 21.5148 11.4229 21.3032 11.3028V11.3028ZM2.74882 21.2379V3.76208L17.8672 12.5L2.74882 21.2379Z" fill="#000F33"/>
</svg>
