<svg width="74" height="74" viewBox="0 0 74 74" fill="none" xmlns="http://www.w3.org/2000/svg">
<path d="M67.8335 37H15.4168V19.7647C15.406 18.6543 15.6991 17.5621 16.2643 16.6062C16.8295 15.6504 17.6453 14.8673 18.6235 14.3417C19.7052 13.7555 20.9378 13.5072 22.1621 13.6289C21.5389 15.516 21.4504 17.5389 21.9063 19.4733C22.3622 21.4077 23.3447 23.1781 24.745 24.5884L28.0151 27.8584C28.3014 28.1448 28.6412 28.372 29.0153 28.5269C29.3893 28.6819 29.7903 28.7617 30.1951 28.7617C30.6 28.7617 31.001 28.6819 31.375 28.5269C31.7491 28.372 32.0889 28.1448 32.3752 27.8584L43.2752 16.9583C43.5616 16.6721 43.7888 16.3323 43.9438 15.9582C44.0988 15.5841 44.1785 15.1832 44.1785 14.7783C44.1785 14.3734 44.0988 13.9725 43.9438 13.5984C43.7888 13.2244 43.5616 12.8845 43.2752 12.5983L40.0052 9.32828C38.1852 7.51644 35.7778 6.41436 33.2169 6.22072C30.6561 6.02707 28.1104 6.7546 26.0386 8.27215C24.1706 7.5426 22.1526 7.28046 20.1603 7.50853C18.1679 7.7366 16.2614 8.44796 14.6066 9.58076C12.9518 10.7136 11.5988 12.2335 10.6652 14.0083C9.73172 15.7832 9.24595 17.7593 9.25016 19.7647V37H6.16683C5.34908 37 4.56482 37.3248 3.98658 37.9031C3.40835 38.4813 3.0835 39.2656 3.0835 40.0833C3.0835 40.9011 3.40835 41.6853 3.98658 42.2636C4.56482 42.8418 5.34908 43.1667 6.16683 43.1667H9.25016V52.4167C9.25603 54.3233 9.85195 56.1814 10.9561 57.7359C12.0602 59.2903 13.6184 60.4649 15.4168 61.0983V64.75C15.4168 65.5677 15.7417 66.352 16.3199 66.9302C16.8982 67.5085 17.6824 67.8333 18.5002 67.8333C19.3179 67.8333 20.1022 67.5085 20.6804 66.9302C21.2586 66.352 21.5835 65.5677 21.5835 64.75V61.6667H52.4168V64.75C52.4168 65.5677 52.7417 66.352 53.3199 66.9302C53.8981 67.5085 54.6824 67.8333 55.5002 67.8333C56.3179 67.8333 57.1022 67.5085 57.6804 66.9302C58.2586 66.352 58.5835 65.5677 58.5835 64.75V61.0985C60.3819 60.465 61.9401 59.2904 63.0443 57.736C64.1484 56.1815 64.7443 54.3233 64.7502 52.4167V43.1667H67.8335C68.6512 43.1667 69.4355 42.8418 70.0137 42.2636C70.592 41.6853 70.9168 40.9011 70.9168 40.0833C70.9168 39.2656 70.592 38.4813 70.0137 37.9031C69.4355 37.3248 68.6512 37 67.8335 37ZM29.1051 13.6883C29.9732 12.8225 31.1492 12.3364 32.3752 12.3364C33.6012 12.3364 34.7771 12.8225 35.6452 13.6883L36.7352 14.7783L30.1952 21.3184L29.1052 20.2284C28.239 19.3606 27.7525 18.1845 27.7525 16.9584C27.7524 15.7322 28.2389 14.5561 29.1051 13.6883V13.6883ZM58.5835 52.4167C58.5829 53.2342 58.2579 54.0182 57.6798 54.5963C57.1017 55.1744 56.3177 55.4994 55.5002 55.5H18.5002C17.6826 55.4994 16.8986 55.1744 16.3205 54.5963C15.7424 54.0182 15.4174 53.2342 15.4168 52.4167V43.1667H58.5835V52.4167Z" fill="#000F33"/>
</svg>
