<svg width="74" height="74" viewBox="0 0 74 74" fill="none" xmlns="http://www.w3.org/2000/svg">
<path d="M61.6665 24.6667L43.1665 8.44834C41.4706 6.93148 39.2751 6.09288 36.9998 6.09288C34.7245 6.09288 32.529 6.93148 30.8331 8.44834L12.3331 24.6667C11.3538 25.5426 10.5722 26.6171 10.0406 27.8186C9.50894 29.0201 9.23936 30.3211 9.2498 31.635V58.5833C9.2498 61.0366 10.2244 63.3894 11.9591 65.1241C13.6938 66.8588 16.0466 67.8333 18.4998 67.8333H55.4998C57.9531 67.8333 60.3058 66.8588 62.0405 65.1241C63.7753 63.3894 64.7498 61.0366 64.7498 58.5833V31.6042C64.7559 30.2955 64.4842 29.0004 63.9527 27.8045C63.4211 26.6086 62.6419 25.5391 61.6665 24.6667V24.6667ZM43.1665 61.6667H30.8331V46.25C30.8331 45.4323 31.158 44.648 31.7362 44.0698C32.3145 43.4915 33.0987 43.1667 33.9165 43.1667H40.0831C40.9009 43.1667 41.6851 43.4915 42.2634 44.0698C42.8416 44.648 43.1665 45.4323 43.1665 46.25V61.6667ZM58.5831 58.5833C58.5831 59.4011 58.2583 60.1853 57.68 60.7636C57.1018 61.3418 56.3176 61.6667 55.4998 61.6667H49.3331V46.25C49.3331 43.7968 48.3586 41.444 46.6239 39.7093C44.8892 37.9746 42.5364 37 40.0831 37H33.9165C31.4632 37 29.1104 37.9746 27.3757 39.7093C25.641 41.444 24.6665 43.7968 24.6665 46.25V61.6667H18.4998C17.6821 61.6667 16.8978 61.3418 16.3196 60.7636C15.7413 60.1853 15.4165 59.4011 15.4165 58.5833V31.6042C15.417 31.1664 15.5108 30.7337 15.6916 30.335C15.8723 29.9363 16.1359 29.5806 16.4648 29.2917L34.9648 13.1042C35.5275 12.6099 36.2508 12.3372 36.9998 12.3372C37.7488 12.3372 38.4721 12.6099 39.0348 13.1042L57.5348 29.2917C57.8637 29.5806 58.1273 29.9363 58.308 30.335C58.4888 30.7337 58.5826 31.1664 58.5831 31.6042V58.5833Z" fill="#000F33"/>
</svg>
