<svg width="33" height="33" viewBox="0 0 33 33" fill="none" xmlns="http://www.w3.org/2000/svg">
<path d="M24.3512 15.5237L20.9138 12.0862C20.6548 11.8273 20.3037 11.6819 19.9375 11.6819C19.5713 11.6819 19.2202 11.8273 18.9612 12.0862C18.7023 12.3452 18.5569 12.6963 18.5569 13.0625C18.5569 13.4287 18.7023 13.7798 18.9612 14.0388L20.0613 15.125H12.9387L14.0388 14.0388C14.2977 13.7798 14.4431 13.4287 14.4431 13.0625C14.4431 12.6963 14.2977 12.3452 14.0388 12.0862C13.7798 11.8273 13.4287 11.6819 13.0625 11.6819C12.6963 11.6819 12.3452 11.8273 12.0862 12.0862L8.64875 15.5237C8.52357 15.6545 8.42544 15.8087 8.36 15.9775C8.22248 16.3123 8.22248 16.6877 8.36 17.0225C8.42544 17.1913 8.52357 17.3455 8.64875 17.4763L12.0862 20.9138C12.2141 21.0426 12.3662 21.1449 12.5337 21.2147C12.7013 21.2845 12.881 21.3205 13.0625 21.3205C13.244 21.3205 13.4237 21.2845 13.5913 21.2147C13.7588 21.1449 13.9109 21.0426 14.0388 20.9138C14.1676 20.7859 14.2699 20.6338 14.3397 20.4663C14.4095 20.2987 14.4455 20.119 14.4455 19.9375C14.4455 19.756 14.4095 19.5763 14.3397 19.4087C14.2699 19.2412 14.1676 19.0891 14.0388 18.9612L12.9387 17.875H20.0613L18.9612 18.9612C18.8324 19.0891 18.7301 19.2412 18.6603 19.4087C18.5905 19.5763 18.5545 19.756 18.5545 19.9375C18.5545 20.119 18.5905 20.2987 18.6603 20.4663C18.7301 20.6338 18.8324 20.7859 18.9612 20.9138C19.0891 21.0426 19.2412 21.1449 19.4087 21.2147C19.5763 21.2845 19.756 21.3205 19.9375 21.3205C20.119 21.3205 20.2987 21.2845 20.4663 21.2147C20.6338 21.1449 20.7859 21.0426 20.9138 20.9138L24.3512 17.4763C24.4764 17.3455 24.5746 17.1913 24.64 17.0225C24.7775 16.6877 24.7775 16.3123 24.64 15.9775C24.5746 15.8087 24.4764 15.6545 24.3512 15.5237V15.5237ZM4.125 8.25C3.76033 8.25 3.41059 8.39487 3.15273 8.65273C2.89487 8.91059 2.75 9.26033 2.75 9.625V23.375C2.75 23.7397 2.89487 24.0894 3.15273 24.3473C3.41059 24.6051 3.76033 24.75 4.125 24.75C4.48967 24.75 4.83941 24.6051 5.09727 24.3473C5.35513 24.0894 5.5 23.7397 5.5 23.375V9.625C5.5 9.26033 5.35513 8.91059 5.09727 8.65273C4.83941 8.39487 4.48967 8.25 4.125 8.25ZM28.875 8.25C28.5103 8.25 28.1606 8.39487 27.9027 8.65273C27.6449 8.91059 27.5 9.26033 27.5 9.625V23.375C27.5 23.7397 27.6449 24.0894 27.9027 24.3473C28.1606 24.6051 28.5103 24.75 28.875 24.75C29.2397 24.75 29.5894 24.6051 29.8473 24.3473C30.1051 24.0894 30.25 23.7397 30.25 23.375V9.625C30.25 9.26033 30.1051 8.91059 29.8473 8.65273C29.5894 8.39487 29.2397 8.25 28.875 8.25Z" fill="#000F33"/>
</svg>
