<svg width="75" height="75" viewBox="0 0 75 75" fill="none" xmlns="http://www.w3.org/2000/svg">
<path d="M56.1369 19.7229C55.9484 19.2691 55.5878 18.9085 55.134 18.72C54.9107 18.6248 54.671 18.5744 54.4283 18.5714H43.2854C42.7929 18.5714 42.3205 18.7671 41.9722 19.1154C41.624 19.4637 41.4283 19.936 41.4283 20.4286C41.4283 20.9211 41.624 21.3935 41.9722 21.7418C42.3205 22.09 42.7929 22.2857 43.2854 22.2857H49.9526L22.8569 49.3814V42.7143C22.8569 42.2217 22.6612 41.7494 22.3129 41.4011C21.9646 41.0528 21.4923 40.8571 20.9997 40.8571C20.5072 40.8571 20.0348 41.0528 19.6865 41.4011C19.3382 41.7494 19.1426 42.2217 19.1426 42.7143V53.8571C19.1455 54.0998 19.196 54.3396 19.2911 54.5629C19.4796 55.0166 19.8402 55.3773 20.294 55.5657C20.5173 55.6609 20.757 55.7113 20.9997 55.7143H32.1426C32.6351 55.7143 33.1075 55.5186 33.4558 55.1703C33.8041 54.8221 33.9997 54.3497 33.9997 53.8571C33.9997 53.3646 33.8041 52.8922 33.4558 52.5439C33.1075 52.1957 32.6351 52 32.1426 52H25.4754L52.5711 24.9043V31.5714C52.5711 32.064 52.7668 32.5363 53.1151 32.8846C53.4634 33.2329 53.9357 33.4286 54.4283 33.4286C54.9208 33.4286 55.3932 33.2329 55.7415 32.8846C56.0898 32.5363 56.2854 32.064 56.2854 31.5714V20.4286C56.2825 20.1859 56.232 19.9461 56.1369 19.7229Z" fill="#000F33"/>
<path d="M53.1903 6.19048H22.2379C18.1334 6.19048 14.1969 7.821 11.2946 10.7233C8.39224 13.6257 6.76172 17.5621 6.76172 21.6667V52.619C6.76172 56.7236 8.39224 60.66 11.2946 63.5624C14.1969 66.4647 18.1334 68.0952 22.2379 68.0952H53.1903C57.2948 68.0952 61.2313 66.4647 64.1336 63.5624C67.036 60.66 68.6665 56.7236 68.6665 52.619V21.6667C68.6665 17.5621 67.036 13.6257 64.1336 10.7233C61.2313 7.821 57.2948 6.19048 53.1903 6.19048V6.19048ZM62.476 52.619C62.476 55.0818 61.4977 57.4436 59.7563 59.185C58.0149 60.9265 55.653 61.9048 53.1903 61.9048H22.2379C19.7752 61.9048 17.4133 60.9265 15.6719 59.185C13.9305 57.4436 12.9522 55.0818 12.9522 52.619V21.6667C12.9522 19.2039 13.9305 16.8421 15.6719 15.1007C17.4133 13.3593 19.7752 12.381 22.2379 12.381H53.1903C55.653 12.381 58.0149 13.3593 59.7563 15.1007C61.4977 16.8421 62.476 19.2039 62.476 21.6667V52.619Z" fill="#000F33"/>
</svg>
