<svg width="50" height="50" viewBox="0 0 50 50" fill="none" xmlns="http://www.w3.org/2000/svg">
<path d="M17.6251 26.4792L29.4168 38.25C29.6105 38.4453 29.8409 38.6003 30.0948 38.706C30.3486 38.8118 30.6209 38.8663 30.896 38.8663C31.171 38.8663 31.4433 38.8118 31.6972 38.706C31.951 38.6003 32.1815 38.4453 32.3751 38.25C32.7632 37.8597 32.981 37.3317 32.981 36.7813C32.981 36.2309 32.7632 35.7029 32.3751 35.3125L22.0626 24.8959L32.3751 14.5834C32.7632 14.193 32.981 13.665 32.981 13.1146C32.981 12.5642 32.7632 12.0362 32.3751 11.6459C32.1822 11.449 31.9521 11.2924 31.6982 11.1851C31.4443 11.0778 31.1716 11.022 30.896 11.0209C30.6203 11.022 30.3477 11.0778 30.0938 11.1851C29.8398 11.2924 29.6098 11.449 29.4168 11.6459L17.6251 23.4167C17.4137 23.6118 17.2449 23.8486 17.1295 24.1121C17.014 24.3756 16.9544 24.6602 16.9544 24.9479C16.9544 25.2357 17.014 25.5202 17.1295 25.7838C17.2449 26.0473 17.4137 26.2841 17.6251 26.4792V26.4792Z" fill="#000F33"/>
</svg>
