<svg width="74" height="74" viewBox="0 0 74 74" fill="none" xmlns="http://www.w3.org/2000/svg">
<path d="M20.4115 40.33C20.0289 40.4685 19.6814 40.6894 19.3937 40.9772C19.1059 41.2649 18.885 41.6124 18.7465 41.995C18.5222 42.5553 18.4673 43.1692 18.5886 43.7604C18.7099 44.3516 19.002 44.8943 19.4288 45.3211C19.8556 45.7478 20.3982 46.04 20.9894 46.1612C21.5807 46.2825 22.1945 46.2276 22.7548 46.0033C23.1285 45.8472 23.4726 45.6282 23.7723 45.3558C24.0447 45.0561 24.2637 44.712 24.4198 44.3383C24.5924 43.9724 24.6769 43.5711 24.6665 43.1667C24.6551 42.3503 24.3358 41.5684 23.7723 40.9775C23.3387 40.5497 22.7881 40.2598 22.19 40.1446C21.5919 40.0294 20.973 40.0939 20.4115 40.33ZM60.9265 27.9967L56.7332 15.5708C56.0935 13.7616 54.9071 12.1961 53.3381 11.0912C51.7692 9.98636 49.8954 9.39677 47.9765 9.40417H26.0232C24.1042 9.39677 22.2305 9.98636 20.6616 11.0912C19.0926 12.1961 17.9061 13.7616 17.2665 15.5708L13.0732 28.0892C11.1008 28.6057 9.35441 29.7593 8.10539 31.3708C6.85638 32.9822 6.17476 34.9612 6.1665 37V49.3333C6.17187 51.2417 6.76738 53.1018 7.8714 54.6585C8.97542 56.2151 10.5339 57.3922 12.3332 58.0283V61.6667C12.3332 62.4844 12.658 63.2687 13.2363 63.8469C13.8145 64.4252 14.5988 64.75 15.4165 64.75C16.2343 64.75 17.0185 64.4252 17.5967 63.8469C18.175 63.2687 18.4998 62.4844 18.4998 61.6667V58.5833H55.4998V61.6667C55.4998 62.4844 55.8247 63.2687 56.4029 63.8469C56.9812 64.4252 57.7654 64.75 58.5832 64.75C59.4009 64.75 60.1852 64.4252 60.7634 63.8469C61.3417 63.2687 61.6665 62.4844 61.6665 61.6667V58.0283C63.4658 57.3922 65.0243 56.2151 66.1283 54.6585C67.2323 53.1018 67.8278 51.2417 67.8332 49.3333V37C67.8249 34.9612 67.1433 32.9822 65.8943 31.3708C64.6453 29.7593 62.8988 28.6057 60.9265 28.0892V27.9967ZM23.094 17.5133C23.3009 16.9009 23.6949 16.369 24.2206 15.9928C24.7462 15.6165 25.3768 15.415 26.0232 15.4167H47.9765C48.6489 15.3816 49.3143 15.5675 49.871 15.9461C50.4278 16.3247 50.8453 16.8751 51.0598 17.5133L54.2973 27.75H19.7023L23.094 17.5133ZM61.6665 49.3333C61.6665 50.1511 61.3417 50.9353 60.7634 51.5136C60.1852 52.0918 59.4009 52.4167 58.5832 52.4167H15.4165C14.5988 52.4167 13.8145 52.0918 13.2363 51.5136C12.658 50.9353 12.3332 50.1511 12.3332 49.3333V37C12.3332 36.1823 12.658 35.398 13.2363 34.8198C13.8145 34.2415 14.5988 33.9167 15.4165 33.9167H58.5832C59.4009 33.9167 60.1852 34.2415 60.7634 34.8198C61.3417 35.398 61.6665 36.1823 61.6665 37V49.3333ZM51.2448 40.33C50.8622 40.4685 50.5147 40.6894 50.227 40.9772C49.9393 41.2649 49.7183 41.6124 49.5798 41.995C49.3556 42.5553 49.3006 43.1692 49.4219 43.7604C49.5432 44.3516 49.8353 44.8943 50.2621 45.3211C50.6889 45.7478 51.2315 46.04 51.8228 46.1612C52.414 46.2825 53.0278 46.2276 53.5882 46.0033C53.9708 45.8649 54.3183 45.6439 54.606 45.3562C54.8938 45.0685 55.1147 44.721 55.2532 44.3383C55.4258 43.9724 55.5103 43.5711 55.4998 43.1667C55.4885 42.3503 55.1691 41.5684 54.6057 40.9775C54.1721 40.5497 53.6215 40.2598 53.0233 40.1446C52.4252 40.0294 51.8064 40.0939 51.2448 40.33V40.33ZM40.0832 40.0833H33.9165C33.0988 40.0833 32.3145 40.4082 31.7363 40.9864C31.158 41.5647 30.8332 42.3489 30.8332 43.1667C30.8332 43.9844 31.158 44.7687 31.7363 45.3469C32.3145 45.9252 33.0988 46.25 33.9165 46.25H40.0832C40.9009 46.25 41.6852 45.9252 42.2634 45.3469C42.8417 44.7687 43.1665 43.9844 43.1665 43.1667C43.1665 42.3489 42.8417 41.5647 42.2634 40.9864C41.6852 40.4082 40.9009 40.0833 40.0832 40.0833Z" fill="#000F33"/>
</svg>
