<svg width="27" height="27" viewBox="0 0 27 27" fill="none" xmlns="http://www.w3.org/2000/svg">
<g filter="url(#filter0_b_98_28)">
<mask id="path-1-inside-1_98_28" fill="white">
<path d="M19.125 12.375H10.5863L14.2988 8.67371C14.5106 8.46187 14.6296 8.17455 14.6296 7.87496C14.6296 7.57538 14.5106 7.28806 14.2988 7.07621C14.0869 6.86437 13.7996 6.74536 13.5 6.74536C13.2004 6.74536 12.9131 6.86437 12.7013 7.07621L7.07626 12.7012C6.97383 12.8082 6.89355 12.9344 6.84001 13.0725C6.72749 13.3464 6.72749 13.6536 6.84001 13.9275C6.89355 14.0656 6.97383 14.1917 7.07626 14.2987L12.7013 19.9237C12.8058 20.0292 12.9303 20.1129 13.0674 20.17C13.2044 20.2271 13.3515 20.2565 13.5 20.2565C13.6485 20.2565 13.7956 20.2271 13.9327 20.17C14.0697 20.1129 14.1942 20.0292 14.2988 19.9237C14.4042 19.8191 14.4879 19.6947 14.545 19.5576C14.6021 19.4205 14.6315 19.2735 14.6315 19.125C14.6315 18.9765 14.6021 18.8294 14.545 18.6923C14.4879 18.5552 14.4042 18.4308 14.2988 18.3262L10.5863 14.625H19.125C19.4234 14.625 19.7095 14.5064 19.9205 14.2955C20.1315 14.0845 20.25 13.7983 20.25 13.5C20.25 13.2016 20.1315 12.9154 19.9205 12.7045C19.7095 12.4935 19.4234 12.375 19.125 12.375Z"/>
</mask>
<path d="M10.5863 12.375L8.82117 10.6045L4.53774 14.875H10.5863V12.375ZM14.2988 8.67371L16.0638 10.4442L16.0665 10.4415L14.2988 8.67371ZM13.5 6.74536V4.24536V6.74536ZM12.7013 7.07621L14.469 8.84398L12.7013 7.07621ZM7.07626 12.7012L5.30849 10.9334L5.2892 10.9527L5.27033 10.9724L7.07626 12.7012ZM6.84001 13.0725L9.15247 14.0225L9.16193 13.9994L9.17093 13.9762L6.84001 13.0725ZM6.84001 13.9275L9.17093 13.0237L9.16193 13.0005L9.15247 12.9775L6.84001 13.9275ZM7.07626 14.2987L5.27033 16.0275L5.2892 16.0472L5.30849 16.0665L7.07626 14.2987ZM12.7013 19.9237L14.4763 18.1632L14.469 18.1559L12.7013 19.9237ZM14.2988 19.9237L12.5383 18.1487L12.531 18.1559L12.5238 18.1632L14.2988 19.9237ZM14.6315 19.125H17.1315H14.6315ZM14.2988 18.3262L12.5337 20.0967L12.5383 20.1012L14.2988 18.3262ZM10.5863 14.625V12.125H4.53775L8.82117 16.3954L10.5863 14.625ZM19.125 9.87496H10.5863V14.875H19.125V9.87496ZM12.3513 14.1454L16.0638 10.4442L12.5337 6.90327L8.82117 10.6045L12.3513 14.1454ZM16.0665 10.4415C16.7472 9.7608 17.1296 8.83759 17.1296 7.87496H12.1296C12.1296 7.51152 12.274 7.16295 12.531 6.90595L16.0665 10.4415ZM17.1296 7.87496C17.1296 6.91234 16.7472 5.98913 16.0665 5.30845L12.531 8.84398C12.274 8.58698 12.1296 8.23841 12.1296 7.87496H17.1296ZM16.0665 5.30845C15.3858 4.62777 14.4626 4.24536 13.5 4.24536V9.24536C13.1366 9.24536 12.788 9.10098 12.531 8.84398L16.0665 5.30845ZM13.5 4.24536C12.5374 4.24536 11.6142 4.62777 10.9335 5.30845L14.469 8.84398C14.212 9.10098 13.8635 9.24536 13.5 9.24536V4.24536ZM10.9335 5.30845L5.30849 10.9334L8.84402 14.469L14.469 8.84398L10.9335 5.30845ZM5.27033 10.9724C4.94031 11.3172 4.68161 11.7237 4.50908 12.1687L9.17093 13.9762C9.10549 14.145 9.00736 14.2992 8.88218 14.43L5.27033 10.9724ZM4.52754 12.1225C4.16497 13.005 4.16497 13.9949 4.52754 14.8775L9.15247 12.9775C9.29 13.3122 9.29 13.6877 9.15247 14.0225L4.52754 12.1225ZM4.50908 14.8312C4.68161 15.2762 4.94031 15.6827 5.27033 16.0275L8.88218 12.5699C9.00736 12.7007 9.10549 12.8549 9.17093 13.0237L4.50908 14.8312ZM5.30849 16.0665L10.9335 21.6915L14.469 18.1559L8.84402 12.5309L5.30849 16.0665ZM10.9263 21.6842C11.2632 22.024 11.6642 22.2937 12.1059 22.4777L14.0288 17.8622C14.1964 17.932 14.3484 18.0343 14.4763 18.1632L10.9263 21.6842ZM12.1059 22.4777C12.5477 22.6617 13.0215 22.7565 13.5 22.7565V17.7565C13.6815 17.7565 13.8612 17.7924 14.0288 17.8622L12.1059 22.4777ZM13.5 22.7565C13.9785 22.7565 14.4523 22.6617 14.8941 22.4777L12.9712 17.8622C13.1388 17.7924 13.3185 17.7565 13.5 17.7565V22.7565ZM14.8941 22.4777C15.3359 22.2937 15.7368 22.024 16.0738 21.6842L12.5238 18.1632C12.6516 18.0343 12.8036 17.932 12.9712 17.8622L14.8941 22.4777ZM16.0593 21.6987C16.399 21.3617 16.6687 20.9608 16.8527 20.5191L12.2373 18.5962C12.3071 18.4286 12.4094 18.2765 12.5383 18.1487L16.0593 21.6987ZM16.8527 20.5191C17.0368 20.0773 17.1315 19.6035 17.1315 19.125H12.1315C12.1315 18.9434 12.1675 18.7637 12.2373 18.5962L16.8527 20.5191ZM17.1315 19.125C17.1315 18.6464 17.0368 18.1726 16.8527 17.7309L12.2373 19.6538C12.1675 19.4862 12.1315 19.3065 12.1315 19.125H17.1315ZM16.8527 17.7309C16.6687 17.2891 16.399 16.8882 16.0593 16.5512L12.5383 20.1012C12.4094 19.9734 12.3071 19.8213 12.2373 19.6538L16.8527 17.7309ZM16.0638 16.5558L12.3513 12.8545L8.82117 16.3954L12.5337 20.0967L16.0638 16.5558ZM10.5863 17.125H19.125V12.125H10.5863V17.125ZM19.125 17.125C20.0864 17.125 21.0084 16.743 21.6883 16.0632L18.1527 12.5277C18.4106 12.2698 18.7603 12.125 19.125 12.125V17.125ZM21.6883 16.0632C22.3681 15.3834 22.75 14.4614 22.75 13.5H17.75C17.75 13.1353 17.8949 12.7856 18.1527 12.5277L21.6883 16.0632ZM22.75 13.5C22.75 12.5386 22.3681 11.6165 21.6883 10.9367L18.1527 14.4722C17.8949 14.2144 17.75 13.8646 17.75 13.5H22.75ZM21.6883 10.9367C21.0084 10.2569 20.0864 9.87496 19.125 9.87496V14.875C18.7603 14.875 18.4106 14.7301 18.1527 14.4722L21.6883 10.9367Z" fill="url(#paint0_linear_98_28)" mask="url(#path-1-inside-1_98_28)"/>
</g>
<defs>
<filter id="filter0_b_98_28" x="-153" y="-153.011" width="333.007" height="333.023" filterUnits="userSpaceOnUse" color-interpolation-filters="sRGB">
<feFlood flood-opacity="0" result="BackgroundImageFix"/>
<feGaussianBlur in="BackgroundImage" stdDeviation="79.8781"/>
<feComposite in2="SourceAlpha" operator="in" result="effect1_backgroundBlur_98_28"/>
<feBlend mode="normal" in="SourceGraphic" in2="effect1_backgroundBlur_98_28" result="shape"/>
</filter>
<linearGradient id="paint0_linear_98_28" x1="6.75562" y1="13.5009" x2="20.7898" y2="13.5009" gradientUnits="userSpaceOnUse">
<stop stop-color="#004DFF"/>
<stop offset="1" stop-color="#FF00CC"/>
</linearGradient>
</defs>
</svg>
