<svg width="48" height="48" viewBox="0 0 48 48" fill="none" xmlns="http://www.w3.org/2000/svg">
<g clip-path="url(#clip0_153_89)">
<path d="M47.7483 4.21875V43.7812C47.6942 43.9055 47.6537 44.0354 47.6277 44.1684C47.4668 45.9497 45.9547 47.5875 44.2106 47.8641C43.988 47.8997 43.7692 47.9578 43.5476 48H4.16147C4.03725 47.9457 3.9074 47.9055 3.77431 47.88C3.00655 47.8163 2.33604 47.5144 1.72912 47.0588C0.447951 46.0959 -0.00186157 44.7478 -0.00186157 43.2075C-0.00186157 30.8244 -0.00186157 18.4412 -0.00186157 6.05812C-0.00186157 5.32594 0.0327407 4.59375 0.081369 3.86344C0.201069 2.08219 1.73286 0.419999 3.48909 0.136874C3.71259 0.101249 3.93329 0.043125 4.15586 0H43.542C43.6656 0.0542564 43.7948 0.0948102 43.9273 0.120938C45.7041 0.282188 47.3312 1.80187 47.6071 3.55312C47.6473 3.77625 47.7025 3.9975 47.7483 4.21875ZM26.2238 20.3719C26.2238 19.9209 26.2238 19.4213 26.2238 18.9225C26.2163 18.0891 25.716 17.5894 24.8846 17.5875C23.1583 17.5875 21.4323 17.5875 19.7066 17.5875C18.7032 17.5875 18.2225 18.0656 18.2225 19.0725C18.2225 26.4762 18.2225 33.8803 18.2225 41.2847C18.2225 42.2747 18.7284 42.7847 19.7132 42.7847C21.3927 42.7847 23.0723 42.7847 24.7518 42.7847C25.7431 42.7847 26.2247 42.2906 26.2247 41.2847C26.2247 37.5047 26.2247 33.7234 26.2247 29.9409C26.2181 28.6895 26.5014 27.4536 27.0523 26.3306C27.7948 24.8081 29.176 24.0206 30.9332 24.135C32.5277 24.2381 33.634 25.11 34.1894 26.7122C34.5635 27.8025 34.6327 28.9388 34.6327 30.0778C34.6327 32.5463 34.6093 35.0138 34.6037 37.4841C34.6037 38.7966 34.5916 40.1091 34.6299 41.4216C34.6589 42.3684 35.1368 42.7856 36.0869 42.7875C37.8294 42.7875 39.5713 42.7875 41.3126 42.7875C42.2935 42.7875 42.8182 42.2841 42.8144 41.2875C42.7957 36.7275 42.7938 32.1666 42.7209 27.6075C42.6928 25.7981 42.402 24.0094 41.7212 22.3097C40.8076 20.0278 39.2786 18.4031 36.8864 17.6597C35.3734 17.1909 33.8275 17.1272 32.2761 17.2547C30.8266 17.3747 29.4061 17.7019 28.2128 18.5934C27.4984 19.125 26.8765 19.7812 26.2238 20.3719ZM6.82948 30.1397C6.82948 33.8272 6.82948 37.5147 6.82948 41.2022C6.82948 42.2775 7.32605 42.7828 8.38932 42.7847C9.96039 42.7847 11.5311 42.7847 13.1016 42.7847C14.3397 42.7847 14.8279 42.2981 14.8279 41.0606C14.8279 36.9981 14.8279 32.9356 14.8279 28.8731C14.8279 25.6394 14.8279 22.4059 14.8279 19.1728C14.8279 18.1022 14.3126 17.5866 13.2643 17.5856H8.36408C7.31483 17.5856 6.82948 18.0722 6.82948 19.1259C6.82636 22.7972 6.82636 26.4684 6.82948 30.1397ZM15.9576 10.3997C15.9576 7.55156 13.6337 5.19469 10.8011 5.22562C7.9685 5.25656 5.67642 7.43437 5.6652 10.4231C5.65398 13.2712 8.00311 15.5794 10.802 15.5869C13.63 15.5906 15.9576 13.2544 15.9576 10.3997Z" fill="#F3F2F2"/>
</g>
<defs>
<clipPath id="clip0_153_89">
<rect width="47.7474" height="48" fill="white"/>
</clipPath>
</defs>
</svg>
