<svg width="60" height="60" viewBox="0 0 60 60" fill="none" xmlns="http://www.w3.org/2000/svg">
<path d="M42.725 7.05005C40.4257 5.15901 37.7333 3.80512 34.8441 3.08716C31.955 2.3692 28.942 2.30527 26.025 2.90005C22.1409 3.6846 18.5774 5.60523 15.7867 8.41825C12.9959 11.2313 11.1037 14.8099 10.35 18.7C9.79959 21.6169 9.89961 24.6192 10.6429 27.4929C11.3862 30.3666 12.7544 33.0409 14.65 35.3251C16.4092 37.3102 17.4176 39.8488 17.5 42.5V50C17.5 51.9892 18.2902 53.8968 19.6967 55.3034C21.1032 56.7099 23.0109 57.5 25 57.5H35C36.9891 57.5 38.8968 56.7099 40.3033 55.3034C41.7098 53.8968 42.5 51.9892 42.5 50V42.9751C42.5839 40.048 43.6593 37.2361 45.55 35C48.8628 30.902 50.4244 25.6621 49.8954 20.4191C49.3664 15.1761 46.7896 10.3538 42.725 7.00005V7.05005ZM37.5 50C37.5 50.6631 37.2366 51.299 36.7677 51.7678C36.2989 52.2367 35.663 52.5 35 52.5H25C24.3369 52.5 23.7011 52.2367 23.2322 51.7678C22.7634 51.299 22.5 50.6631 22.5 50V47.5H37.5V50ZM41.675 31.9001C39.1612 34.8815 37.6946 38.6051 37.5 42.5H32.5V35C32.5 34.337 32.2366 33.7011 31.7677 33.2323C31.2989 32.7634 30.663 32.5 30 32.5C29.3369 32.5 28.7011 32.7634 28.2322 33.2323C27.7634 33.7011 27.5 34.337 27.5 35V42.5H22.5C22.434 38.6703 21.0173 34.9869 18.5 32.1C16.8391 30.11 15.7222 27.7236 15.2583 25.1734C14.7943 22.6232 14.9991 19.9963 15.8527 17.5489C16.7063 15.1014 18.1795 12.9169 20.1288 11.2084C22.078 9.49982 24.4368 8.32555 26.975 7.80005C29.1564 7.35091 31.4104 7.39316 33.5734 7.92372C35.7364 8.45429 37.7541 9.45986 39.4801 10.8674C41.206 12.275 42.5969 14.0492 43.5517 16.0613C44.5065 18.0734 45.0012 20.2729 45 22.5C45.0185 25.9247 43.8427 29.2487 41.675 31.9001Z" fill="url(#paint0_linear_211_95)"/>
<defs>
<linearGradient id="paint0_linear_211_95" x1="-6.99988" y1="19.5" x2="81.0001" y2="39.5" gradientUnits="userSpaceOnUse">
<stop stop-color="#004DFF"/>
<stop offset="1" stop-color="#004DFF" stop-opacity="0"/>
</linearGradient>
</defs>
</svg>
