<svg width="27" height="27" viewBox="0 0 27 27" fill="none" xmlns="http://www.w3.org/2000/svg">
<g filter="url(#filter0_b_98_30)">
<mask id="path-1-inside-1_98_30" fill="white">
<path d="M7.87463 14.6244H16.4134L12.7009 18.3257C12.489 18.5375 12.37 18.8248 12.37 19.1244C12.37 19.424 12.489 19.7113 12.7009 19.9232C12.9127 20.135 13.2 20.254 13.4996 20.254C13.7992 20.254 14.0865 20.135 14.2984 19.9232L19.9234 14.2982C20.0258 14.1912 20.1061 14.065 20.1596 13.9269C20.2721 13.653 20.2721 13.3458 20.1596 13.0719C20.1061 12.9338 20.0258 12.8077 19.9234 12.7007L14.2984 7.07568C14.1938 6.97023 14.0694 6.88654 13.9323 6.82942C13.7952 6.77231 13.6481 6.7429 13.4996 6.7429C13.3511 6.7429 13.2041 6.77231 13.067 6.82942C12.9299 6.88654 12.8055 6.97023 12.7009 7.07568C12.5954 7.18026 12.5117 7.30468 12.4546 7.44178C12.3975 7.57887 12.3681 7.72591 12.3681 7.87443C12.3681 8.02294 12.3975 8.16998 12.4546 8.30707C12.5117 8.44417 12.5954 8.56859 12.7009 8.67317L16.4134 12.3744H7.87463C7.57626 12.3744 7.29011 12.493 7.07913 12.7039C6.86815 12.9149 6.74963 13.2011 6.74963 13.4994C6.74963 13.7978 6.86815 14.0839 7.07913 14.2949C7.29011 14.5059 7.57626 14.6244 7.87463 14.6244Z"/>
</mask>
<path d="M16.4134 14.6244L18.1785 16.3949L22.4619 12.1244H16.4134V14.6244ZM12.7009 18.3257L10.9358 16.5552L10.9331 16.5579L12.7009 18.3257ZM13.4996 20.254V22.754V20.254ZM14.2984 19.9232L12.5306 18.1554L14.2984 19.9232ZM19.9234 14.2982L21.6911 16.0659L21.7104 16.0467L21.7293 16.0269L19.9234 14.2982ZM20.1596 13.9269L17.8472 12.9769L17.8377 12.9999L17.8287 13.0232L20.1596 13.9269ZM20.1596 13.0719L17.8287 13.9757L17.8377 13.9989L17.8472 14.0219L20.1596 13.0719ZM19.9234 12.7007L21.7293 10.9719L21.7104 10.9522L21.6911 10.9329L19.9234 12.7007ZM14.2984 7.07568L12.5234 8.8362L12.5306 8.84344L14.2984 7.07568ZM12.7009 7.07568L14.4614 8.85068L14.4687 8.84346L14.4759 8.83618L12.7009 7.07568ZM12.3681 7.87443H9.8681H12.3681ZM12.7009 8.67317L14.466 6.90272L14.4614 6.89817L12.7009 8.67317ZM16.4134 12.3744V14.8744H22.4619L18.1785 10.604L16.4134 12.3744ZM7.87463 17.1244H16.4134V12.1244H7.87463V17.1244ZM14.6483 12.854L10.9358 16.5552L14.466 20.0961L18.1785 16.3949L14.6483 12.854ZM10.9331 16.5579C10.2524 17.2386 9.87003 18.1618 9.87003 19.1244H14.87C14.87 19.4879 14.7256 19.8364 14.4686 20.0934L10.9331 16.5579ZM9.87003 19.1244C9.87003 20.0871 10.2524 21.0103 10.9331 21.6909L14.4686 18.1554C14.7256 18.4124 14.87 18.761 14.87 19.1244H9.87003ZM10.9331 21.6909C11.6138 22.3716 12.537 22.754 13.4996 22.754V17.754C13.8631 17.754 14.2116 17.8984 14.4686 18.1554L10.9331 21.6909ZM13.4996 22.754C14.4623 22.754 15.3855 22.3716 16.0661 21.6909L12.5306 18.1554C12.7876 17.8984 13.1362 17.754 13.4996 17.754V22.754ZM16.0661 21.6909L21.6911 16.0659L18.1556 12.5304L12.5306 18.1554L16.0661 21.6909ZM21.7293 16.0269C22.0593 15.6822 22.318 15.2757 22.4906 14.8307L17.8287 13.0232C17.8941 12.8544 17.9923 12.7002 18.1175 12.5694L21.7293 16.0269ZM22.4721 14.8769C22.8347 13.9944 22.8347 13.0045 22.4721 12.1219L17.8472 14.0219C17.7096 13.6872 17.7096 13.3117 17.8472 12.9769L22.4721 14.8769ZM22.4906 12.1682C22.318 11.7232 22.0593 11.3167 21.7293 10.9719L18.1175 14.4294C17.9923 14.2987 17.8941 14.1445 17.8287 13.9757L22.4906 12.1682ZM21.6911 10.9329L16.0661 5.30791L12.5306 8.84344L18.1556 14.4684L21.6911 10.9329ZM16.0734 5.31517C15.7364 4.97542 15.3355 4.70573 14.8937 4.52169L12.9708 9.13715C12.8033 9.06734 12.6512 8.96504 12.5234 8.83618L16.0734 5.31517ZM14.8937 4.52169C14.452 4.33765 13.9782 4.2429 13.4996 4.2429V9.2429C13.3181 9.2429 13.1384 9.20697 12.9708 9.13715L14.8937 4.52169ZM13.4996 4.2429C13.0211 4.2429 12.5473 4.33765 12.1055 4.52169L14.0284 9.13715C13.8609 9.20697 13.6811 9.2429 13.4996 9.2429V4.2429ZM12.1055 4.52169C11.6638 4.70573 11.2629 4.97542 10.9259 5.31517L14.4759 8.83618C14.3481 8.96504 14.196 9.06734 14.0284 9.13715L12.1055 4.52169ZM10.9404 5.30068C10.6006 5.63766 10.3309 6.03859 10.1469 6.48034L14.7624 8.40322C14.6925 8.57078 14.5903 8.72286 14.4614 8.85068L10.9404 5.30068ZM10.1469 6.48034C9.96286 6.92207 9.8681 7.39588 9.8681 7.87443H14.8681C14.8681 8.05594 14.8322 8.23566 14.7624 8.40322L10.1469 6.48034ZM9.8681 7.87443C9.8681 8.35297 9.96286 8.82678 10.1469 9.26852L14.7624 7.34563C14.8322 7.51319 14.8681 7.69291 14.8681 7.87443H9.8681ZM10.1469 9.26852C10.3309 9.71026 10.6006 10.1112 10.9404 10.4482L14.4614 6.89817C14.5903 7.026 14.6925 7.17807 14.7624 7.34563L10.1469 9.26852ZM10.9358 10.4436L14.6483 14.1449L18.1785 10.604L14.466 6.90273L10.9358 10.4436ZM16.4134 9.87442H7.87463V14.8744H16.4134V9.87442ZM7.87463 9.87442C6.91322 9.87442 5.99119 10.2563 5.31137 10.9362L8.8469 14.4717C8.58904 14.7296 8.2393 14.8744 7.87463 14.8744V9.87442ZM5.31137 10.9362C4.63154 11.616 4.24963 12.538 4.24963 13.4994H9.24963C9.24963 13.8641 9.10476 14.2138 8.8469 14.4717L5.31137 10.9362ZM4.24963 13.4994C4.24963 14.4608 4.63154 15.3829 5.31137 16.0627L8.8469 12.5272C9.10476 12.785 9.24963 13.1348 9.24963 13.4994H4.24963ZM5.31137 16.0627C5.99119 16.7425 6.91322 17.1244 7.87463 17.1244V12.1244C8.2393 12.1244 8.58904 12.2693 8.8469 12.5272L5.31137 16.0627Z" fill="url(#paint0_linear_98_30)" mask="url(#path-1-inside-1_98_30)"/>
</g>
<defs>
<filter id="filter0_b_98_30" x="-153.006" y="-153.013" width="333.007" height="333.023" filterUnits="userSpaceOnUse" color-interpolation-filters="sRGB">
<feFlood flood-opacity="0" result="BackgroundImageFix"/>
<feGaussianBlur in="BackgroundImage" stdDeviation="79.8781"/>
<feComposite in2="SourceAlpha" operator="in" result="effect1_backgroundBlur_98_30"/>
<feBlend mode="normal" in="SourceGraphic" in2="effect1_backgroundBlur_98_30" result="shape"/>
</filter>
<linearGradient id="paint0_linear_98_30" x1="20.244" y1="13.4985" x2="6.20985" y2="13.4985" gradientUnits="userSpaceOnUse">
<stop stop-color="#FF00CC"/>
<stop offset="1" stop-color="#004DFF"/>
</linearGradient>
</defs>
</svg>
