<svg width="60" height="60" viewBox="0 0 60 60" fill="none" xmlns="http://www.w3.org/2000/svg">
<path d="M52.5 26.025H46.25C45.9193 26.0264 45.5921 26.0934 45.2874 26.2221C44.9827 26.3509 44.7066 26.5388 44.475 26.775L41.375 30L34.375 22.025C34.1412 21.7752 33.8585 21.5761 33.5446 21.44C33.2307 21.3039 32.8922 21.2336 32.55 21.2336C32.2079 21.2336 31.8693 21.3039 31.5554 21.44C31.2415 21.5761 30.9589 21.7752 30.725 22.025L26.475 26.275H22.5C21.837 26.275 21.2011 26.5384 20.7323 27.0072C20.2634 27.4761 20 28.112 20 28.775C20 29.4381 20.2634 30.0739 20.7323 30.5428C21.2011 31.0116 21.837 31.275 22.5 31.275H27.5C27.829 31.2769 28.1552 31.2138 28.4598 31.0894C28.7644 30.965 29.0414 30.7817 29.275 30.55L32.5 27.2L39.5 35.175C39.7259 35.4324 40.0021 35.6407 40.3118 35.7869C40.6214 35.9331 40.9578 36.0142 41.3 36.025C41.629 36.0269 41.9552 35.9639 42.2598 35.8394C42.5644 35.715 42.8414 35.5317 43.075 35.3L47.325 31.025H52.5C53.1631 31.025 53.799 30.7616 54.2678 30.2928C54.7366 29.8239 55 29.1881 55 28.525C55 27.862 54.7366 27.2261 54.2678 26.7572C53.799 26.2884 53.1631 26.025 52.5 26.025ZM34.025 39.275L29.275 44.025C29.0426 44.2593 28.7661 44.4453 28.4615 44.5722C28.1568 44.6992 27.8301 44.7645 27.5 44.7645C27.17 44.7645 26.8432 44.6992 26.5386 44.5722C26.2339 44.4453 25.9574 44.2593 25.725 44.025L12.7 31C11.8428 30.1433 11.1628 29.1261 10.6989 28.0065C10.2349 26.8869 9.99615 25.6869 9.99615 24.475C9.99615 23.2631 10.2349 22.0631 10.6989 20.9435C11.1628 19.8239 11.8428 18.8067 12.7 17.95C14.4292 16.2264 16.7711 15.2586 19.2125 15.2586C21.654 15.2586 23.9959 16.2264 25.725 17.95C25.9574 18.1843 26.2339 18.3703 26.5386 18.4972C26.8432 18.6242 27.17 18.6895 27.5 18.6895C27.8301 18.6895 28.1568 18.6242 28.4615 18.4972C28.7661 18.3703 29.0426 18.1843 29.275 17.95C31.0317 16.2793 33.3633 15.3476 35.7875 15.3476C38.2118 15.3476 40.5434 16.2793 42.3 17.95C42.8571 18.5144 43.3439 19.1439 43.75 19.825C44.114 20.3255 44.6508 20.6733 45.2564 20.8009C45.862 20.9285 46.4934 20.8269 47.0284 20.5159C47.5635 20.2048 47.9641 19.7063 48.1528 19.1169C48.3415 18.5275 48.3049 17.889 48.05 17.325C47.4321 16.2989 46.6935 15.3505 45.85 14.5C43.4775 12.0996 40.3276 10.6228 36.965 10.3342C33.6024 10.0455 30.2469 10.964 27.5 12.925C25.3772 11.3957 22.8731 10.4827 20.2641 10.2866C17.6552 10.0906 15.0427 10.6191 12.7152 11.8139C10.3876 13.0088 8.43539 14.8234 7.07396 17.0576C5.71252 19.2918 4.99481 21.8587 5.00003 24.475C4.99928 26.3352 5.36794 28.1771 6.08464 29.8937C6.80133 31.6103 7.85177 33.1676 9.17503 34.475L22.2 47.5C23.6063 48.9045 25.5125 49.6934 27.5 49.6934C29.4875 49.6934 31.3938 48.9045 32.8 47.5L37.5 42.8C37.9657 42.3316 38.227 41.698 38.227 41.0375C38.227 40.377 37.9657 39.7434 37.5 39.275C37.0339 38.8244 36.4109 38.5725 35.7625 38.5725C35.1142 38.5725 34.4912 38.8244 34.025 39.275Z" fill="url(#paint0_linear_211_91)"/>
<defs>
<linearGradient id="paint0_linear_211_91" x1="-16.2519" y1="22.4409" x2="83.7462" y2="62.0565" gradientUnits="userSpaceOnUse">
<stop stop-color="#004DFF"/>
<stop offset="1" stop-color="#004DFF" stop-opacity="0"/>
</linearGradient>
</defs>
</svg>
