<svg width="55" height="38" viewBox="0 0 55 38" fill="none" xmlns="http://www.w3.org/2000/svg">
<path d="M27.5 5C36.975 5 45.425 10.325 49.55 18.75C45.425 27.175 36.975 32.5 27.5 32.5C18.025 32.5 9.575 27.175 5.45 18.75C9.575 10.325 18.025 5 27.5 5ZM27.5 0C15 0 4.325 7.775 0 18.75C4.325 29.725 15 37.5 27.5 37.5C40 37.5 50.675 29.725 55 18.75C50.675 7.775 40 0 27.5 0ZM27.5 12.5C30.95 12.5 33.75 15.3 33.75 18.75C33.75 22.2 30.95 25 27.5 25C24.05 25 21.25 22.2 21.25 18.75C21.25 15.3 24.05 12.5 27.5 12.5ZM27.5 7.5C21.3 7.5 16.25 12.55 16.25 18.75C16.25 24.95 21.3 30 27.5 30C33.7 30 38.75 24.95 38.75 18.75C38.75 12.55 33.7 7.5 27.5 7.5Z" fill="url(#paint0_linear_229_707)"/>
<defs>
<linearGradient id="paint0_linear_229_707" x1="-23.3771" y1="11.5924" x2="81.7862" y2="59.7995" gradientUnits="userSpaceOnUse">
<stop stop-color="#004DFF"/>
<stop offset="1" stop-color="#004DFF" stop-opacity="0"/>
</linearGradient>
</defs>
</svg>
