<svg width="20" height="20" viewBox="0 0 20 20" fill="none" xmlns="http://www.w3.org/2000/svg">
<g clip-path="url(#clip0_1326_625)">
<path d="M14.56 11.9838C14.313 11.8598 13.095 11.2598 12.868 11.1778C12.641 11.0948 12.476 11.0538 12.311 11.3018C12.146 11.5488 11.671 12.1078 11.526 12.2728C11.382 12.4378 11.237 12.4578 10.99 12.3338C10.2601 12.0432 9.58632 11.6277 8.999 11.1058C8.45732 10.6051 7.99293 10.0268 7.621 9.38982C7.477 9.14182 7.606 9.00782 7.73 8.88482C7.841 8.77382 7.978 8.59582 8.101 8.45082C8.20288 8.32564 8.28639 8.18658 8.349 8.03782C8.38196 7.96946 8.39729 7.89395 8.39363 7.81815C8.38996 7.74236 8.3674 7.66868 8.328 7.60382C8.266 7.47982 7.771 6.26082 7.565 5.76482C7.364 5.28282 7.16 5.34782 7.007 5.33982C6.863 5.33282 6.698 5.33082 6.533 5.33082C6.40749 5.33432 6.28406 5.36376 6.17047 5.41728C6.05689 5.4708 5.95561 5.54725 5.873 5.64182C5.59303 5.90696 5.37134 6.2275 5.22207 6.58303C5.0728 6.93856 4.99922 7.32129 5.006 7.70682C5.0863 8.64106 5.43768 9.53151 6.017 10.2688C7.07892 11.8609 8.53663 13.1494 10.247 14.0078C10.7084 14.206 11.1797 14.3803 11.659 14.5298C12.1643 14.6832 12.6985 14.7165 13.219 14.6268C13.5637 14.557 13.8902 14.4164 14.1778 14.214C14.4654 14.0116 14.7079 13.7517 14.89 13.4508C15.0525 13.0808 15.1025 12.6711 15.034 12.2728C14.973 12.1688 14.808 12.1078 14.56 11.9838ZM17.052 2.90482C15.352 1.20517 13.0922 0.181232 10.6934 0.0236273C8.29462 -0.133977 5.92031 0.585496 4.01249 2.0481C2.10467 3.5107 0.793362 5.61677 0.322698 7.97419C-0.147967 10.3316 0.254086 12.7798 1.454 14.8628L0.0480042 19.9978L5.302 18.6208C6.75516 19.4121 8.38339 19.8267 10.038 19.8268H10.042C12.0021 19.8258 13.9179 19.2439 15.5474 18.1545C17.1769 17.0652 18.447 15.5173 19.1971 13.7064C19.9473 11.8955 20.1439 9.90295 19.7621 7.98041C19.3803 6.05786 18.4372 4.29161 17.052 2.90481V2.90482ZM14.419 16.8938C13.1071 17.7161 11.5903 18.1524 10.042 18.1528H10.038C8.56291 18.1527 7.11499 17.7559 5.846 17.0038L5.545 16.8258L2.427 17.6438L3.259 14.6038L3.064 14.2918C2.19855 12.9117 1.76179 11.3059 1.80894 9.67747C1.8561 8.04909 2.38505 6.47126 3.32893 5.14349C4.2728 3.81573 5.58919 2.79767 7.11165 2.21804C8.63411 1.63841 10.2943 1.52325 11.8822 1.88712C13.4701 2.25099 14.9144 3.07754 16.0326 4.26227C17.1507 5.447 17.8925 6.93668 18.164 8.54296C18.4356 10.1492 18.2247 11.8 17.5581 13.2864C16.8915 14.7728 15.7991 16.0282 14.419 16.8938Z" fill="#00BB2D"/>
</g>
<defs>
<clipPath id="clip0_1326_625">
<rect width="19.904" height="19.9956" fill="white" transform="translate(0.0480042 0.00218964)"/>
</clipPath>
</defs>
</svg>
