<svg width="50" height="50" viewBox="0 0 50 50" fill="none" xmlns="http://www.w3.org/2000/svg">
<path d="M47.9166 20.2293C48.0197 17.2473 47.3675 14.2876 46.0208 11.6251C45.1071 10.5326 43.839 9.79532 42.4375 9.54176C36.6406 9.01577 30.8198 8.80018 25 8.89592C19.2013 8.79584 13.4015 9.00446 7.62497 9.52092C6.48293 9.72867 5.42605 10.2643 4.58331 11.0626C2.70831 12.7918 2.49997 15.7501 2.29164 18.2501C1.98937 22.745 1.98937 27.2552 2.29164 31.7501C2.35191 33.1572 2.56142 34.5539 2.91664 35.9168C3.16784 36.969 3.67606 37.9425 4.39581 38.7501C5.24428 39.5906 6.32578 40.1568 7.49997 40.3751C11.9915 40.9295 16.5171 41.1593 21.0416 41.0626C28.3333 41.1668 34.7291 41.0626 42.2916 40.4793C43.4947 40.2744 44.6066 39.7075 45.4791 38.8543C46.0624 38.2707 46.4981 37.5565 46.75 36.7709C47.495 34.4847 47.861 32.092 47.8333 29.6876C47.9166 28.5209 47.9166 21.4793 47.9166 20.2293ZM20.2916 30.9376V18.0418L32.625 24.5209C29.1666 26.4376 24.6041 28.6043 20.2916 30.9376Z" fill="#F3F2F2"/>
</svg>
