<?xml version="1.0" standalone="no"?>
<!DOCTYPE svg PUBLIC "-//W3C//DTD SVG 20010904//EN"
 "http://www.w3.org/TR/2001/REC-SVG-20010904/DTD/svg10.dtd">
<svg version="1.0" xmlns="http://www.w3.org/2000/svg"
 width="177.000000pt" height="177.000000pt" viewBox="0 0 177.000000 177.000000"
 preserveAspectRatio="xMidYMid meet">
<metadata>
Created by potrace 1.14, written by Peter Selinger 2001-2017
</metadata>
<g transform="translate(0.000000,177.000000) scale(0.100000,-0.100000)"
fill="#000000" stroke="none">
<path d="M857 1474 c-2 -3 -29 -7 -58 -9 -141 -11 -287 -98 -389 -234 -42 -57
-86 -167 -94 -241 -3 -28 -17 -40 -44 -38 -33 2 -52 -8 -52 -27 0 -14 104
-200 125 -223 21 -23 43 -1 104 104 69 117 75 143 34 145 -45 2 -53 4 -53 12
-2 21 14 84 24 96 6 8 9 15 6 15 -14 3 64 117 107 158 177 165 434 164 615 -1
l55 -50 36 37 c21 21 37 40 37 43 0 12 -61 72 -106 104 -67 48 -180 93 -245
99 -30 3 -64 7 -76 10 -11 2 -23 2 -26 0z"/>
<path d="M1361 1101 c-10 -10 -24 -32 -32 -49 -8 -18 -17 -32 -21 -32 -5 0 -8
-4 -8 -10 0 -5 -13 -32 -30 -60 -45 -76 -38 -100 27 -100 27 0 27 1 8 -80 -9
-42 -58 -127 -94 -166 -42 -45 -127 -105 -171 -119 -40 -14 -42 -14 -100 -25
-65 -12 -153 -5 -219 20 -58 21 -167 93 -181 120 -6 11 -16 20 -24 20 -13 0
-76 -66 -76 -80 0 -20 117 -112 183 -144 90 -44 108 -48 234 -53 117 -5 179 8
282 60 63 32 168 124 207 182 46 68 95 205 88 248 -1 11 5 17 19 18 52 3 60 5
70 20 8 13 -4 41 -54 127 -35 61 -70 114 -77 116 -7 3 -21 -3 -31 -13z"/>
<path d="M714 1091 c-2 -2 -4 -42 -4 -88 l0 -83 -62 -1 c-35 -1 -68 -1 -74 0
-7 1 -14 -4 -16 -11 -4 -11 -3 -147 1 -185 1 -10 71 -13 315 -13 291 0 314 1
318 18 2 9 3 55 3 102 -1 96 10 87 -102 89 l-53 1 0 88 0 87 -161 0 c-88 0
-163 -2 -165 -4z"/>
</g>
</svg>
