<svg width="1272" height="738" viewBox="0 0 1272 738" fill="none" xmlns="http://www.w3.org/2000/svg">
<path d="M319.535 -768.033C361.54 -783.068 393.86 -789.869 424.33 -790.08C541.524 -788.844 692.084 -669.929 807.892 -487.122C865.139 -395.43 900.67 -302.944 910.639 -219.67C918.829 -146.921 907.991 -70.1036 876.532 22.0776C854.49 85.2313 821.645 145.305 773.167 211.133C723.789 277.52 677.206 317.22 622.128 339.852C619.61 340.854 617.071 341.815 614.362 342.784C550.176 365.759 435.423 378.243 307.397 376.177C177.274 374.078 58.0398 356.893 -11.5566 330.207C-178.373 298.261 -202.68 217.281 -239.482 94.7052C-255.803 40.3325 -274.31 -21.2926 -308.196 -91.6326C-332.662 -142.39 -355.16 -187.48 -375.012 -227.265C-470.348 -418.316 -513.866 -505.511 -479.319 -631.395C-470.334 -660.958 -448.396 -682.172 -414.128 -694.438C-387.116 -704.106 -352.215 -708.311 -310.39 -706.932C-272.376 -705.547 -231.673 -701.398 -188.579 -697.003C-131.9 -691.222 -73.2934 -685.243 -12.4794 -684.576C59.7359 -684.086 131.523 -696.979 206.988 -723.991C218.189 -728.001 229.808 -732.443 241.519 -737.191C246.781 -739.328 251.995 -741.459 257.161 -743.567C278.842 -752.428 299.321 -760.797 319.535 -768.033ZM614.929 343.841C617.651 342.866 620.207 341.903 622.745 340.896C678.03 318.179 724.754 278.369 774.257 211.814C822.797 145.905 855.684 85.7473 877.764 22.5009C909.269 -69.8249 920.121 -146.778 911.915 -219.683C901.925 -303.126 866.334 -395.771 808.994 -487.606C692.94 -670.805 541.907 -789.979 424.217 -791.217C393.574 -791.007 361.115 -784.181 318.965 -769.094C298.725 -761.849 278.235 -753.476 256.54 -744.609C251.376 -742.497 246.167 -740.367 240.903 -738.233C229.206 -733.492 217.605 -729.056 206.418 -725.052C131.1 -698.093 59.4651 -685.224 -12.588 -685.71C-73.3274 -686.381 -131.897 -692.355 -188.548 -698.132C-231.666 -702.532 -272.389 -706.685 -310.454 -708.068C-352.46 -709.453 -387.53 -705.223 -414.697 -695.499C-449.313 -683.109 -471.47 -661.669 -480.56 -631.769C-497.36 -570.557 -496.46 -517.532 -477.54 -454.455C-459.176 -393.21 -424.361 -323.444 -376.179 -226.886C-356.329 -187.105 -333.827 -142.016 -309.371 -91.2638C-275.521 -21.0145 -257.032 40.5732 -240.719 94.9054C-221.724 158.171 -206.724 208.148 -175.118 247.679C-140.952 290.425 -90.5962 316.206 -11.838 331.281C57.7775 357.993 177.203 375.213 307.491 377.318C435.672 379.381 550.602 366.866 614.929 343.841Z" fill="#EDE9F6"/>
<path d="M608.845 330.379C607.338 330.954 605.835 331.506 604.28 332.063C542.927 354.036 432.188 365.778 308.061 363.456C181.74 361.105 65.6176 344.17 -2.57049 318.158C-164.822 286.788 -190.006 208.234 -228.122 89.3242C-244.607 37.9062 -263.292 -20.3736 -296.057 -86.6531C-319.812 -135.014 -341.715 -178.092 -361.036 -216.099C-454.77 -400.469 -497.55 -484.618 -465.412 -606.763C-456.704 -638.491 -433.563 -661.287 -396.616 -674.519C-371.839 -683.393 -340.695 -688.005 -304.052 -688.226C-259.764 -690.182 -211.238 -688.035 -159.865 -685.758C-111.593 -683.618 -61.6724 -681.408 -10.1836 -682.308C96.3318 -684.833 185.868 -712.018 243.95 -732.247L254.079 -736.027C266.376 -740.614 277.992 -744.949 289.628 -749.116C339.125 -766.843 380.884 -778.448 423.809 -777.457C537.52 -774.339 684.191 -659.212 797.462 -484.158C855.955 -394.775 892.829 -304.977 904.099 -224.477C913.784 -152.993 904.283 -77.5613 874.193 12.9077C852.387 79.0548 818.196 140.776 766.587 207.139C716.093 271.385 667.64 309.324 609.482 330.151L608.845 330.379ZM604.851 333.127C606.413 332.568 607.925 332.013 609.423 331.433L610.052 331.213C668.424 310.307 717.035 272.257 767.661 207.84C819.34 141.387 853.585 79.5754 875.427 13.3226C905.562 -77.2934 915.079 -152.868 905.372 -224.512C894.08 -305.174 857.145 -395.13 798.558 -484.657C685.044 -660.088 537.915 -775.466 423.725 -778.598C380.588 -779.589 338.692 -767.957 289.057 -750.181C277.412 -746.01 265.796 -741.672 253.492 -737.083L243.377 -733.31C185.39 -713.116 95.9881 -685.968 -10.3269 -683.444C-61.7697 -682.549 -111.666 -684.757 -159.921 -686.893C-211.323 -689.172 -259.879 -691.323 -304.196 -689.364C-340.973 -689.142 -372.265 -684.504 -397.185 -675.579C-434.482 -662.221 -457.862 -639.19 -466.652 -607.121C-498.899 -484.599 -456.059 -400.335 -362.198 -215.71C-342.877 -177.706 -320.979 -134.635 -297.221 -86.2745C-264.494 -20.0743 -245.825 38.165 -229.354 89.5417C-209.681 150.917 -194.141 199.393 -162.725 237.798C-128.764 279.314 -79.4543 304.429 -2.85772 319.235C65.3569 345.268 181.676 362.239 308.147 364.596C432.437 366.919 543.356 355.152 604.851 333.127Z" fill="#EDE9F6"/>
<path d="M-378.754 -654.853C-356.422 -662.857 -329.173 -667.691 -297.775 -669.226C-246.143 -675.901 -187.977 -676.537 -126.395 -677.21C-87.961 -677.631 -48.2191 -678.065 -7.57584 -679.971C92.2065 -685.468 177.145 -707.036 247.076 -727.408L251.085 -728.758C313.636 -749.839 367.661 -768.044 424.269 -765.047C534.656 -760.122 677.509 -648.894 788.214 -481.672C848.814 -393.406 885.959 -308.689 898.62 -229.858C909.607 -160.638 901.102 -84.4184 872.634 3.16452C851.287 71.3895 814.591 136.639 760.441 202.641C708.848 264.857 656.971 301.944 595.659 320.508L594.322 320.99C535.709 341.998 428.832 353.052 308.441 350.563C185.756 348.025 72.5929 331.41 5.7221 306.121C-152.181 275.431 -178.226 199.305 -217.649 84.0725C-234.219 35.645 -253.001 -19.2427 -284.575 -81.4228C-307.577 -127.305 -328.834 -168.296 -347.586 -204.463C-439.722 -382.161 -481.774 -463.263 -451.858 -581.727C-443.455 -615.873 -418.86 -640.479 -378.754 -654.853ZM610.176 316.96C665.632 297.084 713.717 260.987 761.498 203.368C815.732 137.262 852.487 71.9071 873.87 3.57085C902.389 -84.1615 910.899 -160.536 899.89 -229.917C887.204 -308.911 849.992 -393.79 789.301 -482.188C734.694 -564.672 671.56 -634.929 606.732 -685.365C541.896 -735.804 478.784 -763.751 424.224 -766.183C367.353 -769.195 313.22 -750.951 250.537 -729.829L246.555 -728.486C176.724 -708.144 91.8746 -686.597 -7.76491 -681.108C-48.3699 -679.207 -88.1049 -678.77 -126.53 -678.352C-188.152 -677.676 -246.362 -677.041 -298.013 -670.358C-329.499 -668.823 -356.868 -663.964 -379.324 -655.916C-419.804 -641.407 -444.628 -616.562 -453.112 -582.067C-483.12 -463.234 -441.008 -382.017 -348.738 -204.069C-329.99 -167.903 -308.734 -126.915 -285.738 -81.0358C-254.199 -18.9283 -235.427 35.9197 -218.879 84.3114C-198.526 143.787 -182.456 190.758 -151.204 228.011C-117.422 268.292 -69.1121 292.711 5.4361 307.198C72.3312 332.509 185.683 349.16 308.532 351.699C429.082 354.197 536.136 343.112 594.892 322.053L596.203 321.58C600.874 320.163 605.586 318.605 610.176 316.96Z" fill="#EDE9F6"/>
<path d="M-359.386 -635.683C-339.883 -642.678 -316.814 -647.474 -290.832 -649.933C-230.733 -663.057 -160.731 -667.305 -86.6166 -671.805C-60.044 -673.415 -32.5669 -675.083 -4.79194 -677.204C95.9563 -685.882 184.934 -706.74 249.906 -721.967C309.632 -739.88 366.007 -756.793 424.097 -751.904C476.748 -748.566 537.695 -721.225 600.373 -672.836C663.174 -624.347 724.574 -557.131 777.939 -478.453C839.81 -392.612 878.231 -310.571 892.128 -234.61C904.602 -166.735 897.459 -91.9883 870.297 -6.09852C849.215 65.0668 811.13 131.973 753.864 198.447C708.64 250.376 663.036 283.36 610.349 302.255C601.317 305.495 591.92 308.362 582.417 310.77C525.86 330.431 423.107 340.454 307.476 337.598C187.609 334.637 80.9915 318.714 14.9587 293.904C-138.4 263.81 -165.368 190.135 -206.187 78.6158C-222.803 33.2201 -241.637 -18.2342 -271.982 -76.2741C-294.176 -119.579 -314.751 -158.413 -332.9 -192.679C-423.508 -363.728 -464.864 -441.796 -437.307 -556.522C-429.323 -593.374 -403.103 -620.005 -359.386 -635.683ZM610.92 303.321C663.801 284.355 709.55 251.268 754.907 199.198C812.269 132.609 850.417 65.586 871.536 -5.7095C898.745 -91.7473 905.895 -166.652 893.393 -234.692C879.462 -310.821 840.976 -393.016 779.01 -478.987C725.578 -557.767 664.076 -625.091 601.159 -673.667C538.248 -722.237 477.02 -749.683 424.088 -753.04C365.747 -757.951 309.252 -741.003 249.438 -723.061C184.545 -707.852 95.6188 -687.012 -5.02399 -678.339C-32.777 -676.22 -60.2498 -674.554 -86.8212 -672.942C-160.986 -668.44 -231.044 -664.185 -291.158 -651.056C-317.175 -648.596 -340.349 -643.779 -359.956 -636.747C-404.051 -620.932 -430.502 -594.05 -438.568 -556.846C-466.202 -441.756 -424.791 -363.571 -334.052 -192.271C-315.9 -158.01 -295.331 -119.181 -273.135 -75.8795C-242.828 -17.8999 -224.009 33.513 -207.402 78.8766C-186.332 136.429 -169.695 181.894 -138.611 218C-105.006 257.038 -57.7276 280.78 14.6699 294.98C80.7359 319.814 187.537 335.772 307.564 338.739C423.336 341.596 526.281 331.543 582.923 311.854C592.409 309.446 601.849 306.574 610.92 303.321Z" fill="#EDE9F6"/>
<path d="M-340.294 -618.44C-324.019 -624.28 -305.397 -628.741 -284.928 -631.702C-214.761 -653.594 -129.747 -662.373 -39.7583 -671.664C-27.5371 -672.924 -15.2107 -674.195 -2.78245 -675.516C72.5269 -684.352 140.609 -697.009 200.674 -708.176C218.743 -711.538 235.812 -714.708 252.203 -717.618C315.491 -734.153 368.26 -746.287 423.572 -739.857C474.67 -735.585 533.821 -708.694 594.646 -662.096C655.617 -615.384 715.469 -551.007 767.731 -475.919C830.985 -392.381 870.731 -312.916 885.874 -239.708C899.868 -173.119 894.095 -99.7507 868.218 -15.4213C847.712 57.7696 807.089 128.377 747.484 194.464C704.698 241.39 661.514 271.592 611.59 289.508C598.086 294.353 583.831 298.333 569.226 301.353C514.205 319.437 415.483 328.243 305.071 324.921C190.233 321.465 87.6587 305.788 23.6557 281.9C-125.371 252.325 -153.356 180.984 -195.708 72.9891C-212.336 30.5869 -231.184 -17.4688 -260.287 -71.4307C-281.663 -112.132 -301.533 -148.798 -319.072 -181.144C-408.37 -345.885 -449.122 -421.07 -423.94 -532.259C-416.442 -572.222 -388.304 -601.211 -340.294 -618.44ZM612.161 290.575C662.273 272.592 705.595 242.295 748.51 195.226C808.224 129.028 848.914 58.2794 869.46 -15.0404C895.385 -99.5211 901.167 -173.049 887.132 -239.818C871.953 -313.187 832.14 -392.812 768.789 -476.474C716.466 -551.652 656.51 -616.137 595.428 -662.93C534.375 -709.703 474.957 -736.698 423.6 -740.989C368.065 -747.446 315.166 -735.29 251.792 -718.727C235.449 -715.828 218.378 -712.657 200.304 -709.296C140.26 -698.131 72.2011 -685.48 -3.05672 -676.649C-15.4721 -675.333 -27.7994 -674.059 -40.015 -672.797C-130.078 -663.5 -215.152 -654.715 -285.348 -632.805C-305.795 -629.859 -324.511 -625.373 -340.864 -619.505C-389.263 -602.136 -417.634 -572.886 -425.2 -532.564C-450.47 -421.018 -409.649 -345.719 -320.21 -180.73C-302.681 -148.383 -282.805 -111.725 -261.437 -71.0235C-232.368 -17.1152 -213.528 30.9052 -196.919 73.273C-175.056 129.01 -157.788 173.032 -126.801 208.054C-93.2994 245.916 -46.988 269.03 23.3705 282.979C87.4111 306.889 190.148 322.601 305.143 326.06C415.709 329.385 514.602 320.558 569.694 302.449C584.29 299.441 598.604 295.44 612.161 290.575Z" fill="#EDE9F6"/>
<path d="M-258.192 -619.862C-185.849 -645.845 -98.5602 -659.108 -0.217853 -672.578C39.7942 -678.555 77.4741 -684.757 113.911 -690.755C164.967 -699.161 213.196 -707.096 255.248 -712.19C313.954 -725.18 367.122 -735.239 423.911 -726.834C473.478 -721.675 530.823 -695.325 589.771 -650.626C648.88 -605.81 707.128 -544.407 758.223 -473.056C822.812 -392.001 863.804 -315.243 880.075 -244.893C895.529 -179.705 891.024 -107.811 866.301 -25.1051C845.977 51.0396 803.794 123.396 740.922 189.978C701.009 231.784 659.028 260.218 612.588 276.897C594.707 283.319 575.538 288.214 555.608 291.447C447.205 324.908 168.393 320.365 31.688 269.899C-113.108 240.995 -142.088 172.071 -185.961 67.7405C-202.482 28.436 -221.213 -16.1092 -248.957 -65.8631C-269.398 -103.801 -288.49 -138.15 -305.327 -168.458C-393.266 -326.708 -433.405 -398.933 -410.407 -506.517C-403.468 -549.978 -372.999 -581.68 -319.861 -600.765C-307.337 -605.262 -293.48 -609.041 -278.678 -612.001C-272.03 -614.719 -265.176 -617.354 -258.192 -619.862ZM613.159 277.964C659.774 261.222 701.895 232.695 741.931 190.757C804.923 124.055 847.185 51.5527 867.547 -24.7341C892.319 -107.597 896.831 -179.658 881.329 -245.026C865.02 -315.548 823.951 -392.462 759.265 -473.633C708.115 -545.065 649.77 -606.568 590.55 -651.47C531.386 -696.329 473.784 -722.781 423.976 -727.965C366.975 -736.401 313.677 -726.32 254.898 -713.313C212.881 -708.225 164.64 -700.283 113.57 -691.88C77.1326 -685.882 39.4614 -679.684 -0.530898 -673.708C-98.9387 -660.225 -186.301 -646.949 -258.76 -620.925C-265.759 -618.411 -272.632 -615.771 -279.182 -613.079C-293.932 -610.145 -307.85 -606.346 -320.429 -601.828C-373.974 -582.596 -404.674 -550.629 -411.676 -506.803C-422.814 -454.694 -419.39 -409.41 -400.218 -355.407C-381.874 -303.722 -350.249 -246.804 -306.472 -168.028C-289.631 -137.724 -270.545 -103.375 -250.097 -65.4398C-222.39 -15.7357 -203.671 28.7782 -187.154 68.0566C-164.509 121.9 -146.631 164.431 -115.739 198.3C-82.3321 234.925 -36.957 257.336 31.3996 270.979C93.4126 293.877 192.132 309.239 302.146 313.082C407.528 316.771 502.443 309.094 556.04 292.554C575.957 289.325 595.202 284.413 613.159 277.964Z" fill="#EDE9F6"/>
<path d="M-209.622 -620.253C-141.72 -644.652 -64.4073 -659.367 2.26329 -670.543C91.0405 -686.608 183.897 -702.692 257.844 -707.45C321.225 -718.781 371.017 -723.884 423.576 -714.34C521.809 -701.862 646.106 -608.349 747.988 -470.293C813.989 -391.627 856.284 -317.507 873.723 -249.962C890.732 -186.146 887.597 -115.698 864.155 -34.571C844.438 43.4453 799.625 119.611 734.565 185.708C696.958 223.507 657.5 249.491 613.943 265.142C591.6 273.17 568.249 278.566 542.561 281.638C490.57 296.553 399.929 302.976 299.982 298.838C195.227 294.503 100.79 279.433 40.8862 257.494C-99.6218 229.094 -129.735 162.501 -175.323 61.6976C-191.691 25.4901 -210.246 -15.545 -236.579 -61.1029C-256.05 -96.2088 -274.315 -128.195 -290.439 -156.411C-374.626 -303.852 -416.886 -377.858 -396.257 -481.941C-390.145 -528.76 -356.092 -564.565 -297.788 -585.515C-289.699 -588.422 -281.065 -591.075 -272.107 -593.401C-253.24 -603.101 -232.261 -612.118 -209.622 -620.253ZM614.513 266.208C658.239 250.497 697.831 224.427 735.563 186.508C800.749 120.281 845.647 43.9561 865.402 -34.2107C888.893 -115.496 892.026 -186.131 874.974 -250.119C857.486 -317.838 815.113 -392.113 749.015 -470.893C646.933 -609.216 522.262 -702.943 423.679 -715.468C365.239 -726.079 309.571 -717.884 257.562 -708.579C183.616 -703.824 90.7183 -687.736 1.90499 -671.666C-64.8125 -660.482 -142.191 -645.754 -210.192 -621.319C-232.874 -613.169 -253.907 -604.127 -272.691 -594.451C-281.561 -592.165 -290.232 -589.504 -298.359 -586.584C-357.079 -565.485 -391.369 -529.392 -397.527 -482.205C-418.221 -377.776 -375.893 -303.649 -291.564 -155.971C-275.451 -127.754 -257.19 -95.7718 -237.716 -60.6613C-211.408 -15.1547 -192.864 25.8566 -176.503 62.0364C-152.975 114.065 -134.396 155.157 -103.545 187.944C-70.1897 223.39 -25.7338 245.17 40.6074 258.577C100.538 280.537 195.142 295.64 300.042 299.981C400.124 304.122 490.931 297.686 542.947 282.751C568.633 279.689 592.077 274.27 614.513 266.208Z" fill="#EDE9F6"/>
<path d="M-159.331 -624.081C-113.671 -640.496 -59.9738 -654.743 4.82683 -667.63C110.667 -690.166 194.367 -701.372 260.723 -701.889C319.551 -709.8 369.722 -712.683 423.647 -701.05C518.487 -686.699 639.037 -596.933 738.296 -466.771C805.761 -390.506 849.364 -319.019 867.924 -254.26C886.475 -191.845 884.692 -122.814 862.478 -43.2269C837.945 59.1042 776.092 135.92 728.523 182.343C693.051 216.599 655.972 240.384 615.171 255.052C588.856 264.513 560.883 270.312 529.655 272.781C426.867 299.887 175.826 291.828 49.8951 246.151C-86.5197 218.251 -117.855 153.937 -165.279 56.588C-181.386 23.5264 -199.642 -13.9469 -224.478 -55.2644C-242.884 -87.4199 -260.244 -116.937 -275.564 -142.978C-358.848 -284.552 -400.65 -355.616 -382.338 -456.303C-377.096 -507.729 -339.757 -547.322 -274.346 -570.837C-271.507 -571.858 -268.576 -572.859 -265.635 -573.818C-235.022 -592.934 -200.29 -609.356 -159.331 -624.081ZM615.741 256.12C656.705 241.394 693.916 217.527 729.504 183.156C777.169 136.638 839.142 59.6643 863.725 -42.8769C885.99 -122.631 887.774 -191.841 869.162 -254.45C850.559 -319.375 806.865 -391.026 739.307 -467.392C639.861 -597.797 518.949 -687.773 423.793 -702.17C369.708 -713.838 319.397 -710.952 260.506 -703.028C194.143 -702.515 110.353 -691.299 4.43896 -668.746C-60.4195 -655.847 -114.179 -641.586 -159.901 -625.149C-200.945 -610.394 -235.748 -593.935 -266.305 -574.836C-269.121 -573.936 -272.065 -572.93 -274.917 -571.905C-340.747 -548.239 -378.334 -508.348 -383.606 -456.55C-401.985 -355.518 -360.113 -284.336 -276.691 -142.521C-261.376 -116.484 -244.013 -86.9758 -225.597 -54.8126C-200.789 -13.5265 -182.544 23.9207 -166.448 56.9617C-118.847 154.67 -87.3935 219.22 49.6119 247.232C175.663 292.965 427.144 301.038 530.008 273.905C561.228 271.439 589.316 265.62 615.741 256.12Z" fill="#EDE9F6"/>
<path d="M-110.746 -629.293C-74.9342 -642.176 -36.2081 -653.362 7.62641 -663.487C107.26 -687.94 193.521 -698.63 264.022 -695.259C312.479 -699.551 365.351 -701.494 424.229 -686.8C515.734 -670.662 632.517 -584.81 729.052 -462.736C798.95 -387.965 842.565 -321.123 862.423 -258.34C882.485 -197.408 881.972 -129.869 860.868 -51.8512C841.932 30.8882 792.69 112.836 722.209 178.912C688.678 210.038 653.785 231.855 615.545 245.612C585.495 256.422 553.02 262.414 516.256 263.931C416.382 287.813 180.761 279.044 58.1593 235.171C-74.3272 207.867 -106.943 145.864 -156.314 52.0033C-171.996 22.1917 -189.773 -11.6024 -212.953 -48.565C-230.169 -77.6023 -246.498 -104.485 -260.917 -128.205C-343.387 -263.888 -384.779 -331.995 -368.658 -429.313C-363.598 -497.393 -306.353 -534.072 -259.225 -552.866L-259.091 -552.939C-218.479 -583.017 -169.953 -607.994 -110.746 -629.293ZM616.113 246.677C654.508 232.865 689.527 210.972 723.178 179.746C793.801 113.525 843.149 31.4023 862.123 -51.5072C883.277 -129.705 883.78 -197.432 863.658 -258.56C843.742 -321.508 800.036 -388.512 730.043 -463.378C633.337 -585.671 516.216 -671.721 424.419 -687.913C365.381 -702.646 312.366 -700.701 263.878 -696.4C193.336 -699.779 106.943 -689.079 7.19645 -664.597C-36.6817 -654.462 -75.4466 -643.262 -111.315 -630.358C-170.609 -609.028 -219.213 -584.014 -259.905 -553.888C-307.308 -534.976 -364.84 -498.052 -369.938 -429.535C-386.112 -331.88 -344.646 -263.654 -262.036 -127.731C-247.624 -104.017 -231.284 -77.1383 -214.074 -48.0932C-190.901 -11.1529 -173.14 22.6144 -157.471 52.4137C-107.912 146.61 -75.179 208.842 57.8808 236.258C180.598 280.175 416.635 288.959 516.561 265.059C553.33 263.55 585.94 257.532 616.113 246.677Z" fill="#EDE9F6"/>
<path d="M-67.6804 -636.442C-43.2135 -645.247 -17.0037 -653.339 10.2259 -660.501C105.843 -687.058 194.58 -697.106 266.853 -689.568C328.704 -692.014 375.736 -687.153 424.214 -673.312C467.593 -664.437 517.673 -640.05 569.092 -602.771C620.82 -565.268 672.746 -515.542 719.254 -458.965C790.727 -386.643 835.626 -322.353 856.559 -262.369C878.207 -202.877 879.07 -136.761 859.198 -60.2411C840.61 25.4727 789.856 109.296 716.28 175.815C684.608 204.17 651.807 224.221 615.996 237.108C582.514 249.157 545.731 255.103 503.536 255.286C405.654 276.048 185.313 265.646 67.492 223.921C-61.1537 197.01 -95.2605 137.153 -146.887 46.5438C-162.005 20.0148 -179.137 -10.0577 -200.543 -42.6534C-216.443 -68.4563 -231 -91.5596 -245.075 -113.895C-327.102 -244.092 -368.277 -309.442 -354.515 -403.594C-351.413 -471.791 -297.387 -511.715 -252.618 -533.206L-252.489 -533.288C-204.248 -574.966 -142.07 -609.672 -67.6804 -636.442ZM616.567 238.177C652.522 225.238 685.45 205.114 717.231 176.659C790.967 110.001 841.829 25.987 860.456 -59.9055C880.374 -136.612 879.5 -202.928 857.781 -262.622C836.789 -322.775 791.794 -387.219 720.226 -459.634C673.683 -516.252 621.668 -566.062 569.843 -603.632C518.257 -641.035 467.978 -665.509 424.444 -674.414C375.86 -688.288 328.693 -693.166 266.783 -690.71C194.437 -698.263 105.524 -688.198 9.75177 -661.602C-17.4995 -654.432 -43.7483 -646.326 -68.2497 -637.509C-142.746 -610.701 -205.029 -575.94 -253.373 -534.195C-298.389 -512.571 -352.671 -472.404 -355.788 -403.795C-369.603 -309.308 -328.356 -243.836 -246.181 -113.406C-232.105 -91.0686 -217.554 -67.9744 -201.644 -42.1584C-180.249 -9.5804 -163.128 20.4736 -148.02 46.9927C-96.2118 137.918 -61.9829 197.99 67.2106 225.008C121.027 244.073 203.459 258.287 293.266 263.981C377.603 269.327 456.307 266.499 503.804 256.415C546.013 256.25 582.942 250.277 616.567 238.177Z" fill="#EDE9F6"/>
<path d="M-32.2719 -641.804C-17.7726 -647.024 -2.69022 -651.953 12.5564 -656.464C106.547 -685.631 195.386 -694.776 269.485 -682.915C326.879 -682.254 374.506 -674.863 424.015 -658.938C510.112 -638.769 616.696 -562.407 709.184 -454.646C782.232 -384.893 828.376 -323.238 850.298 -266.103C873.509 -208.13 875.697 -143.501 856.992 -68.5159C838.703 20.1143 786.367 105.771 709.627 172.703C679.648 198.609 648.742 217.077 615.147 229.17C578.456 242.378 537.521 248.096 489.992 246.649C396.204 263.833 186.822 251.638 75.9452 212.916C-49.08 186.422 -84.8367 128.677 -138.94 41.2709C-153.249 18.161 -169.461 -8.03568 -188.876 -36.12C-203.263 -58.4851 -216.56 -78.7562 -229.421 -98.3578C-308.675 -219.203 -352.334 -285.77 -340.869 -376.836C-339.683 -445.055 -288.847 -488.237 -246.405 -512.457C-191.633 -566.868 -119.627 -610.358 -32.2719 -641.804ZM615.719 230.242C649.45 218.099 680.477 199.557 710.561 173.559C787.473 106.483 839.921 20.6318 858.25 -68.1888C877.005 -143.37 874.801 -208.21 851.505 -266.389C829.524 -323.687 783.277 -385.498 710.126 -455.342C617.496 -563.272 510.625 -639.811 424.292 -660.029C374.693 -675.987 326.932 -683.399 269.492 -684.055C195.288 -695.941 106.228 -686.78 12.052 -657.554C-3.21748 -653.038 -18.3281 -648.098 -32.8425 -642.874C-120.36 -611.369 -192.503 -567.794 -247.283 -513.352C-289.838 -489.084 -340.958 -445.645 -342.15 -377.012C-353.657 -285.612 -309.918 -218.92 -230.514 -97.8487C-217.656 -78.2463 -204.363 -57.979 -189.956 -35.5994C-170.554 -7.5297 -154.351 18.6508 -140.053 41.7539C-85.7552 129.461 -49.883 187.403 75.667 214.005C128.192 232.352 204.529 245.901 290.529 252.126C369.561 257.846 444.212 256.221 490.216 247.783C537.771 249.247 578.87 243.506 615.719 230.242Z" fill="#EDE9F6"/>
<path d="M-3.01736 -646.016C3.19096 -648.252 9.53996 -650.436 15.8497 -652.511C108.643 -684.347 197.523 -692.582 272.885 -676.319C325.641 -672.875 373.774 -662.808 424.474 -644.625C507.183 -622.591 610.002 -550.029 699.569 -450.503C775.242 -382.44 821.253 -325.136 844.414 -270.121C869.19 -213.728 872.706 -150.629 855.175 -77.2088C837.477 12.9642 782.194 102.697 703.498 169.007C675.101 192.723 645.958 209.771 614.412 221.13C574.196 235.611 530.581 240.768 477.149 237.362C386.974 251.067 192.227 238.011 85.4103 201.251C-36.2233 175.096 -73.8388 119.358 -130.781 34.9833C-143.965 15.4537 -158.904 -6.67876 -176.023 -30.0938C-188.665 -48.7999 -200.468 -66.0121 -211.889 -82.6533C-291.337 -198.455 -335.105 -262.239 -325.976 -350.375C-326.71 -418.52 -279.098 -464.95 -239.03 -491.91C-180.383 -558.267 -98.7972 -611.528 -3.01736 -646.016ZM614.984 222.201C646.664 210.794 675.921 193.68 704.42 169.875C783.293 103.418 838.696 13.4699 856.432 -76.9011C874.016 -150.519 870.477 -213.834 845.607 -270.444C822.377 -325.626 776.262 -383.076 700.489 -451.221C610.795 -550.891 507.712 -623.616 424.795 -645.702C374.023 -663.916 325.761 -674.008 272.972 -677.446C197.462 -693.746 108.323 -685.503 15.3077 -653.589C8.99356 -651.514 2.63496 -649.323 -3.58632 -647.083C-99.5544 -612.527 -181.29 -559.165 -239.957 -492.757C-280.14 -465.747 -327.999 -419.056 -327.26 -350.525C-336.42 -262.059 -292.573 -198.147 -212.968 -82.1221C-201.55 -65.4824 -189.741 -48.2749 -177.097 -29.5534C-159.977 -6.13608 -145.041 15.9895 -131.867 35.506C-102.432 79.1201 -79.1875 113.568 -47.4515 141.259C-13.1868 171.156 27.7021 189.999 85.1312 202.343C135.529 219.687 207.83 232.931 288.64 239.602C362.298 245.681 432.832 245.269 477.32 238.501C530.801 241.925 574.592 236.745 614.984 222.201Z" fill="#EDE9F6"/>
<path d="M25.6708 -651.97C114.899 -684.104 201.252 -690.436 275.396 -670.274C324.652 -664.245 370.497 -652.063 424.144 -630.75C503.612 -606.763 602.768 -537.862 689.456 -446.416C766.867 -380.909 814.119 -326.102 838.22 -273.889C864.246 -219.771 869.272 -156.358 853.168 -85.3799C835.851 7.74142 779.025 99.398 697.253 166.103C670.312 187.902 642.777 203.694 613.083 214.388C570.02 229.896 522.681 234.501 464.107 228.868C374.483 239.425 197.431 225.113 94.4142 190.166C-24.3333 164.158 -62.0911 113.011 -124.65 28.2745C-136.854 11.7472 -149.467 -5.33705 -163.918 -23.9147C-174.5 -38.7444 -184.533 -52.6363 -194.224 -66.0766C-274.555 -177.358 -318.801 -238.656 -312.1 -324.251C-314.787 -392.369 -270.408 -442.119 -232.708 -471.873C-171.062 -550.771 -84.3527 -612.056 18.1243 -649.194C20.6526 -650.141 23.1589 -651.065 25.6708 -651.97ZM613.656 215.462C643.478 204.723 671.122 188.864 698.162 166.985C780.121 100.128 837.077 8.2542 854.43 -85.0753C870.582 -156.261 865.527 -219.913 839.394 -274.249C815.219 -326.627 767.859 -381.574 690.347 -447.163C603.555 -538.728 504.155 -607.775 424.514 -631.813C370.802 -653.154 324.843 -665.367 275.56 -671.392C201.235 -691.609 114.591 -685.271 25.0987 -653.042C22.5826 -652.136 20.0718 -651.21 17.546 -650.259C-85.1313 -613.051 -172.011 -551.641 -233.694 -472.673C-271.494 -442.86 -316.085 -392.853 -313.38 -324.378C-320.111 -238.448 -275.77 -177.025 -195.29 -65.5169C-185.588 -52.0804 -175.564 -38.1907 -164.968 -23.3442C-150.506 -4.75657 -137.902 12.3254 -125.704 28.8411C-94.4468 71.1803 -69.7583 104.618 -37.3989 131.53C-2.50597 160.556 38.0593 178.975 94.1433 191.258C142.447 207.649 210.769 220.634 286.44 227.793C354.745 234.257 421.215 235.085 464.237 230.007C522.871 235.661 570.403 231.039 613.656 215.462Z" fill="#EDE9F6"/>
<path d="M40.418 -652.987C124.808 -683.386 207.071 -687.141 278.311 -663.848C322.9 -655.738 367.901 -641.169 424.323 -616.581C500.708 -590.655 596.232 -525.504 679.906 -442.277C760.208 -378.567 807.271 -327.853 832.57 -277.772C860.176 -225.207 866.558 -163.299 851.55 -93.7475C834.528 2.31468 776.025 95.9004 691.028 163.028C665.392 183.124 639.294 197.801 611.254 207.902C565.425 224.411 514.441 228.35 450.808 220.305C365.291 227.235 201.471 212.08 102.882 179.245C-13.7228 153.284 -54.1425 103.437 -121.118 20.8578C-130.994 8.68862 -141.204 -3.91087 -152.38 -17.3119C-160.454 -27.9299 -168.263 -38.1289 -175.772 -47.9405C-257.772 -155.054 -302.936 -214.055 -298.646 -297.474C-303.215 -365.473 -261.998 -418.588 -226.624 -451.181C-166.054 -538.126 -80.6119 -605.232 20.5502 -645.343C27.1406 -648.042 33.8253 -650.612 40.418 -652.987ZM611.824 208.973C639.986 198.828 666.187 184.092 691.926 163.918C777.115 96.6327 835.758 2.82908 852.816 -93.4521C867.876 -163.219 861.454 -225.378 833.729 -278.167C808.345 -328.413 761.17 -379.265 680.766 -443.055C597.002 -526.373 501.27 -591.655 424.739 -617.626C368.267 -642.241 323.164 -656.84 278.555 -664.946C207.103 -688.316 124.526 -684.558 39.8482 -654.055C33.2382 -651.674 26.5384 -649.098 19.9307 -646.394C-81.4251 -606.21 -167.045 -538.962 -227.653 -451.933C-263.123 -419.275 -304.519 -365.903 -299.928 -297.568C-304.245 -213.812 -258.981 -154.687 -176.814 -47.3533C-169.304 -37.5393 -161.497 -27.345 -153.404 -16.7039C-142.213 -3.28595 -132.004 9.30279 -122.135 21.4774C-88.6095 62.807 -62.1427 95.4501 -28.8632 121.711C6.98955 149.994 47.5346 168.077 102.61 180.336C201.286 213.203 365.382 228.388 450.893 221.447C514.607 229.518 565.793 225.555 611.824 208.973Z" fill="#EDE9F6"/>
<path d="M52.456 -653.029C133.201 -682.121 212.337 -683.567 281.316 -657.205C328.277 -645.702 372.483 -626.898 424.438 -602.19C498.959 -573.822 588.47 -513.978 670.076 -437.982C725.383 -396.928 793.087 -342.099 826.527 -281.579C855.712 -230.618 863.468 -170.255 849.58 -102.166C833.155 -4.67564 771.519 93.2141 684.697 159.701C660.297 178.26 635.552 191.922 609.055 201.468C559.967 219.155 507.112 222.226 437.672 211.406C354.879 214.777 204.297 198.122 111.898 167.94C-3.52434 141.736 -47.3992 92.6431 -120.095 11.3047C-126.526 4.11727 -133.167 -3.31674 -140.092 -11.0001C-145.005 -17.0043 -149.832 -22.8826 -154.54 -28.6333C-236.594 -128.693 -286.117 -189.091 -284.379 -270.824C-290.825 -338.602 -252.844 -395.065 -219.845 -430.508C-161.49 -524.044 -75.1413 -598.891 23.3411 -641.342C32.9858 -645.612 42.7828 -649.544 52.456 -653.029ZM609.626 202.539C636.24 192.95 661.088 179.236 685.582 160.606C726.287 129.428 762.67 90.2705 790.8 47.3462C821.976 -0.218602 842.182 -50.4197 850.848 -101.874C864.785 -170.207 856.985 -230.821 827.668 -282.015C794.108 -342.75 726.262 -397.701 670.903 -438.789C589.226 -514.855 499.54 -574.804 424.905 -603.217C372.919 -627.941 328.632 -646.779 281.638 -658.281C212.419 -684.741 132.942 -683.304 51.8851 -654.1C42.1859 -650.605 32.3621 -646.661 22.6936 -642.383C-26.4135 -621.218 -72.2342 -592.431 -113.488 -556.822C-155.293 -520.745 -191.436 -478.482 -220.923 -431.212C-254 -395.699 -292.14 -338.976 -285.66 -270.891C-287.411 -188.812 -237.781 -128.285 -155.557 -28.0083C-150.837 -22.2646 -146.02 -16.3856 -141.089 -10.3575C-134.136 -2.6511 -127.498 4.78368 -121.073 11.968C-48.1892 93.5193 -4.19454 142.745 111.624 169.034C204.115 199.241 354.924 215.927 437.708 212.548C507.251 223.387 560.315 220.306 609.626 202.539Z" fill="#EDE9F6"/>
<path d="M63.0186 -652.621C140.978 -680.717 217.702 -680.046 284.89 -650.682C331.979 -636.022 377.222 -612.674 425.12 -587.954C497.009 -557.353 582.891 -501.211 660.791 -433.902C720.869 -392.311 786.835 -342.21 821.001 -285.657C851.762 -236.336 860.88 -177.535 848.093 -110.891C832 -10.5728 768.71 89.2056 678.793 156.034C655.538 173.205 632.04 185.947 606.949 194.99C555.324 213.595 499.191 215.817 424.951 202.188C345.331 201.914 210.066 184.709 121.32 156.36C5.15862 129.426 -43.6237 79.9831 -124.449 -1.93518L-127.382 -4.90465L-129.61 -7.40464C-216.312 -104.697 -268.651 -163.422 -269.628 -244.316C-277.922 -311.78 -243.173 -371.619 -212.564 -409.95C-155.666 -511.269 -70.7109 -592.033 26.6942 -637.437C38.7084 -643.156 50.927 -648.263 63.0186 -652.621ZM607.521 196.063C632.722 186.98 656.318 174.183 679.663 156.941C769.793 89.9593 833.232 -10.0625 849.365 -110.612C862.192 -177.515 853.027 -236.569 822.117 -286.136C787.821 -342.901 721.716 -393.109 661.577 -434.743C583.63 -502.097 497.608 -558.322 425.631 -588.96C377.725 -613.686 332.428 -637.064 285.292 -651.735C217.828 -681.225 140.745 -681.909 62.448 -653.692C50.3196 -649.32 38.0633 -644.196 26.0169 -638.461C-71.5952 -592.965 -156.72 -512.039 -213.676 -410.602C-244.357 -372.194 -279.239 -312.106 -270.912 -244.351C-269.929 -163.099 -217.478 -104.244 -130.584 -6.74278L-128.333 -4.21824L-125.374 -1.21961C-44.366 80.8859 4.52591 130.438 121.043 157.453C209.876 185.825 345.331 203.063 424.937 203.323C499.302 216.987 555.658 214.754 607.521 196.063Z" fill="#EDE9F6"/>
<path d="M70.8189 -652.106C146.547 -679.404 221.325 -676.721 287.075 -644.352C324.949 -629.875 362.099 -608.918 401.429 -586.736C408.94 -582.499 416.585 -578.19 424.397 -573.827C494.517 -540.464 576.779 -487.967 650.119 -429.778C711.591 -390.176 779.093 -342.588 814.122 -289.562C846.48 -241.863 856.985 -184.597 845.336 -119.354C829.638 -16.1646 764.771 85.5329 671.816 152.687C649.647 168.611 627.313 180.522 603.538 189.092C549.467 208.583 490.164 209.856 411.262 193.216C335.611 189.253 214.721 171.395 129.828 144.898C18.6476 118.445 -37.0546 72.9422 -115.593 1.14754C-200.042 -84.4389 -252.016 -140.83 -255.897 -218.007C-266.036 -285.133 -234.573 -348.391 -206.395 -389.647C-151.142 -498.749 -67.6524 -585.438 28.7401 -633.809C42.6278 -640.892 56.786 -647.047 70.8189 -652.106ZM604.109 190.162C627.989 181.554 650.416 169.599 672.678 153.612C765.852 86.2879 830.869 -15.6508 846.605 -119.084C858.301 -184.598 847.738 -242.135 815.209 -290.083C780.046 -343.312 712.399 -391.007 650.865 -430.649C577.497 -488.861 495.137 -541.422 424.956 -574.81C417.192 -579.146 409.549 -583.456 402.042 -587.692C362.659 -609.904 325.465 -630.881 287.55 -645.376C255.827 -660.995 221.486 -669.791 185.541 -671.487C147.704 -673.272 108.913 -667.111 70.2494 -653.174C56.1689 -648.099 41.9677 -641.923 28.0336 -634.82C-68.5641 -586.35 -152.222 -499.493 -207.542 -390.254C-235.783 -348.909 -267.353 -285.407 -257.177 -218.01C-253.281 -140.473 -201.177 -83.936 -116.495 1.88537C-37.7643 73.8665 18.0736 119.469 129.56 145.993C214.517 172.514 335.563 190.398 411.192 194.348C490.255 211.028 549.789 209.743 604.109 190.162Z" fill="#EDE9F6"/>
<path d="M78.825 -650.865C152.858 -677.56 226.149 -673.004 290.766 -637.684C322.216 -623.318 353.028 -604.123 385.651 -583.801C398.401 -575.859 411.588 -567.646 425.297 -559.411C476.446 -532.289 555.397 -487.052 641.244 -425.452C707.363 -386.012 773.425 -342.733 809.128 -293.329C843.1 -247.283 854.958 -191.543 844.372 -127.666C828.982 -21.5657 762.386 82.0985 666.213 149.64C645.317 164.243 623.419 175.725 601.134 183.76C544.601 204.146 482.136 204.429 398.595 184.685C333.007 177.733 225.763 160.302 139.062 134.005C34.9515 108.578 -26.4242 70.0631 -103.281 7.87181C-190.001 -69.6521 -235.215 -121.701 -241.642 -190.989C-253.545 -257.705 -225.309 -324.445 -199.522 -368.692C-145.857 -485.597 -63.6589 -578.277 31.9611 -629.706C47.4033 -638.103 63.1713 -645.22 78.825 -650.865ZM601.705 184.832C624.089 176.76 646.078 165.231 667.058 150.568C711.672 119.236 751.542 78.3494 782.362 32.3288C815.861 -17.6959 837.742 -72.9359 845.645 -127.404C856.279 -191.571 844.35 -247.588 810.183 -293.897C774.342 -343.49 708.142 -386.868 641.941 -426.353C556.078 -487.969 477.065 -533.241 425.909 -560.367C412.244 -568.576 399.064 -576.787 386.317 -584.724C353.656 -605.071 322.806 -624.29 291.315 -638.674C260.137 -655.716 226.434 -665.703 191.187 -668.323C154.064 -671.084 116.069 -665.572 78.2543 -651.936C62.5421 -646.27 46.7215 -639.126 31.2277 -630.704C-64.5996 -579.166 -146.959 -486.314 -200.695 -369.252C-226.539 -324.902 -254.867 -257.927 -242.91 -190.955C-239.732 -156.581 -226.475 -124.792 -201.204 -90.9604C-175.814 -56.9771 -139.542 -22.9955 -104.123 8.66788C-27.0715 71.0149 34.4479 109.615 138.794 135.098C225.547 161.415 332.906 178.868 398.466 185.805C482.201 205.608 544.911 205.311 601.705 184.832Z" fill="#EDE9F6"/>
<path d="M85.1973 -649.91C157.746 -676.078 229.72 -669.686 293.343 -631.424C319.992 -617.125 346.141 -599.041 373.824 -579.897C390.145 -568.612 407.024 -556.936 424.942 -545.387C437.485 -537.966 450.617 -530.261 464.247 -522.263C514.962 -492.507 572.441 -458.78 630.913 -421.494C709.106 -378.44 768.196 -340.882 802.534 -297.47C838.104 -253.102 851.339 -198.916 841.859 -136.422C827.09 -29.0907 757.196 79.1047 659.458 145.953C639.502 159.537 618.646 170.302 597.469 177.94C537.809 199.459 474.31 198.691 385.145 175.383C354.493 170.288 247.003 151.442 147.83 122.256C54.6895 98.76 -14.5522 67.3159 -91.2033 13.7147C-155.864 -35.6761 -217.152 -91.4991 -227.549 -164.803C-238.359 -217.213 -226.402 -280.711 -192.973 -348.466C-141.106 -473.07 -60.3521 -571.671 34.4127 -626.124C51.1149 -635.776 68.1995 -643.779 85.1973 -649.91ZM598.041 179.013C619.31 171.342 640.256 160.531 660.29 146.886C706.169 115.511 747.164 74.0642 778.851 27.0215C813.24 -24.0289 835.466 -80.4608 843.132 -136.174C852.657 -198.971 839.341 -253.447 803.555 -298.078C769.079 -341.671 709.861 -379.315 631.553 -422.435C573.098 -459.71 515.607 -493.444 464.88 -523.207C451.253 -531.204 438.124 -538.909 425.605 -546.312C407.733 -557.836 390.863 -569.501 374.551 -580.782C346.828 -599.95 320.648 -618.056 293.958 -632.378C263.257 -650.843 230.116 -661.999 195.473 -665.525C158.976 -669.242 121.684 -664.348 84.6268 -650.982C67.5619 -644.826 50.4104 -636.793 33.6494 -627.106C-61.3166 -572.537 -142.228 -473.761 -194.165 -348.98C-227.679 -281.054 -239.672 -217.328 -228.818 -164.728C-224.251 -132.531 -210.125 -102.09 -185.624 -71.7112C-164.505 -45.5179 -134.744 -18.0982 -91.9599 14.5766C-15.1228 68.3088 54.2593 99.818 147.566 123.358C246.782 152.554 354.35 171.41 384.955 176.495C474.355 199.872 538.106 200.631 598.041 179.013Z" fill="#EDE9F6"/>
<path d="M91.0744 -648.864C161.437 -674.251 234.301 -665.856 296.246 -625.223C319.179 -610.968 341.743 -593.645 365.635 -575.303C384.482 -560.835 403.973 -545.87 425.048 -531.327C477.184 -496.934 540.184 -462.158 606.879 -425.336L621.248 -417.403C688.799 -383.235 757.978 -346.136 796.774 -301.37C833.986 -258.658 848.601 -205.972 840.21 -144.778C825.816 -34.5152 754.217 75.7367 653.354 142.955C634.265 155.631 614.361 165.744 594.197 173.02C516.19 201.165 438.127 185.677 372.058 166.812C330.844 157.185 248.118 137.177 156.721 111.2C81.3858 91.4789 0.672602 66.8074 -79.2503 20.1641C-159.43 -29.5769 -202.157 -79.8875 -213.697 -138.161C-226.042 -190.908 -216.93 -254.765 -186.619 -327.976C-136.554 -460.386 -57.1667 -565.008 36.9169 -622.581C54.6889 -633.468 72.9093 -642.31 91.0744 -648.864ZM594.768 174.092C615.021 166.785 635.012 156.626 654.181 143.902C755.283 76.5174 827.056 -34.0039 841.485 -144.541C849.922 -206.052 835.209 -259.042 797.764 -302.022C758.799 -346.98 689.483 -384.157 621.827 -418.381L607.48 -426.302C540.809 -463.105 477.838 -497.87 425.761 -532.224C404.726 -546.737 385.252 -561.689 366.419 -576.148C342.496 -594.51 319.904 -611.855 296.926 -626.138C266.6 -646.031 233.892 -658.354 199.716 -662.764C163.704 -667.407 126.96 -663.093 90.5022 -649.939C72.2635 -643.358 53.9678 -634.478 36.1295 -623.551C-58.1504 -565.852 -137.694 -461.046 -187.837 -328.445C-218.221 -255.051 -227.35 -190.985 -214.964 -138.042C-203.35 -79.4376 -160.434 -28.8622 -79.8961 21.0998C0.196886 67.8443 81.0262 92.5593 156.451 112.298C247.863 138.275 330.614 158.291 371.802 167.913C438.062 186.836 516.395 202.37 594.768 174.092Z" fill="#EDE9F6"/>
<path d="M96.4005 -647.625C165.776 -672.665 237.731 -662.476 299.011 -618.935C318.926 -604.744 338.592 -588.007 359.412 -570.291C380.082 -552.697 401.457 -534.505 424.984 -517.176C470.634 -483.555 526.376 -452.47 611.365 -413.242C683.449 -379.923 751.408 -346.588 790.744 -305.22C829.593 -264.183 845.59 -213.009 838.292 -153.11C824.294 -39.9253 751.018 72.3577 647.064 139.927C628.806 151.765 609.807 161.278 590.595 168.212C509.646 197.429 428.028 179.534 358.869 158.176C347.613 154.691 336.089 151.087 324.276 147.389C277.193 132.666 223.83 115.973 165.591 100.067C151.797 96.3009 137.527 92.5274 123.723 88.8779C59.2532 71.8285 -7.40632 54.2017 -67.262 26.5711C-137.818 -6.02498 -184.878 -55.0632 -199.769 -111.506C-213.448 -163.782 -206.874 -229.705 -180.227 -307.448C-132.027 -447.626 -54.0452 -558.262 39.3649 -618.978C58.0385 -631.068 77.2296 -640.706 96.4005 -647.625ZM591.168 169.288C610.464 162.323 629.546 152.766 647.881 140.884C752.084 73.1478 825.537 -39.4142 839.569 -152.884C846.91 -213.119 830.801 -264.605 791.692 -305.915C752.182 -347.463 684.084 -380.875 611.869 -414.254C526.974 -453.442 471.311 -484.478 425.747 -518.039C402.259 -535.338 380.903 -553.512 360.25 -571.09C339.408 -588.828 319.72 -605.582 299.749 -619.81C269.745 -641.128 237.411 -654.609 203.632 -659.882C168.041 -665.43 131.77 -661.671 95.8292 -648.699C76.5717 -641.748 57.3001 -632.068 38.5494 -619.933C-7.96196 -589.699 -50.8143 -546.955 -88.8228 -492.882C-126.525 -439.243 -157.687 -376.999 -181.459 -307.874C-208.168 -229.944 -214.749 -163.82 -201.022 -111.341C-186.033 -54.5305 -138.707 -5.18585 -67.7621 27.5872C-7.79433 55.2683 58.9361 72.9165 123.466 89.9826C137.266 93.6283 151.53 97.4011 165.315 101.17C223.536 117.061 276.881 133.749 323.956 148.473C335.76 152.168 347.296 155.773 358.551 159.262C427.946 180.695 509.842 198.641 591.168 169.288Z" fill="#EDE9F6"/>
<path d="M104.917 -634.609C174.004 -659.561 244.369 -650.439 303.05 -608.92C323.842 -594.224 343.975 -576.992 365.286 -558.75C384.257 -542.512 403.874 -525.721 425.431 -509.465C435.558 -501.873 446.569 -494.161 458.156 -486.542C496.578 -461.276 541.863 -436.562 604.985 -406.404C674.16 -373.238 739.386 -340.096 777.261 -299.323C814.623 -258.955 830.056 -208.996 823.135 -150.835C815.203 -83.7779 786.16 -18.7864 739.153 37.1155C709.384 73.2618 672.478 105.559 632.42 130.531C614.857 141.655 596.58 150.68 578.105 157.353C528.46 175.283 474.958 177.755 409.74 165.13C391.859 161.62 372.815 156.92 351.529 150.76C334.782 146.015 317.633 141.042 299.477 135.781C258.779 123.995 212.659 110.628 163.426 97.6589C155.373 95.5623 147.264 93.4722 139.109 91.3714C83.645 77.0751 26.2882 62.2949 -27.1149 41.0927C-39.8001 36.0619 -51.9661 30.7882 -63.269 25.4127C-131.309 -6.80718 -176.916 -54.9527 -191.692 -110.148C-205.418 -161.669 -199.567 -226.075 -174.316 -301.571C-157.811 -352.411 -134.446 -401.43 -104.874 -447.269C-84.4713 -479.343 -61.2333 -509.307 -35.8088 -536.326C-10.2538 -563.425 16.3529 -585.573 47.9357 -606.026C66.5186 -618.046 85.6911 -627.665 104.917 -634.609ZM578.675 158.425C597.233 151.723 615.59 142.663 633.221 131.492C673.376 106.466 710.37 74.0816 740.205 37.8561C787.336 -18.1926 816.458 -83.3647 824.414 -150.61C831.377 -209.101 815.833 -259.367 778.219 -300.008C740.173 -340.968 674.816 -374.182 605.507 -407.409C542.446 -437.54 497.216 -462.225 458.852 -487.448C447.292 -495.052 436.307 -502.745 426.202 -510.318C404.682 -526.548 385.083 -543.324 366.131 -559.547C344.791 -577.814 324.636 -595.063 303.787 -609.799C244.704 -651.601 173.873 -660.794 104.346 -635.683C85.033 -628.708 65.7829 -619.05 47.1264 -606.984C15.4679 -586.479 -11.2098 -564.275 -36.8221 -537.113C-62.2917 -510.048 -85.5657 -480.035 -106.004 -447.907C-135.618 -402 -159.021 -352.904 -175.555 -301.987C-200.869 -226.306 -206.718 -161.702 -192.941 -109.975C-178.063 -54.4194 -132.199 -5.9748 -63.7885 26.423C-52.4542 31.8093 -40.2597 37.0975 -27.5474 42.1352C25.9439 63.3772 83.3433 78.1696 138.86 92.4772C147.014 94.5757 155.125 96.6652 163.172 98.7664C212.387 111.728 256.512 124.513 299.188 136.874C317.343 142.138 334.491 147.111 351.241 151.855C372.571 158.026 391.651 162.735 409.574 166.25C475.059 178.931 528.789 176.442 578.675 158.425Z" fill="#EDE9F6"/>
<path d="M113.943 -621.763C182.619 -646.585 251.295 -638.529 307.318 -599.08C329.034 -583.858 349.607 -566.126 371.39 -547.353C388.621 -532.502 406.437 -517.145 425.98 -502.042C435.698 -494.618 446.294 -487.027 457.482 -479.477C494.583 -454.434 538.083 -429.912 598.525 -399.974C664.719 -367.012 727.145 -334.103 763.522 -293.961C799.357 -254.296 814.21 -205.61 807.663 -149.245C800.161 -82.8284 771.1 -20.0399 723.629 32.3377C694.176 66.2116 658.514 95.7515 617.62 120.135C600.789 130.536 583.28 139.05 565.584 145.446C517.024 162.996 464.65 166.07 400.753 155.125C383.346 152.059 364.883 147.881 344.302 142.353C320.246 136.194 295.089 129.475 268.459 122.357C234.582 113.305 199.557 103.943 161.56 94.3292L157.511 93.3248C96.9035 78.3449 34.2379 62.8503 -23.8073 39.0498C-36.0243 34.0523 -47.7883 28.7945 -58.7476 23.428C-124.199 -8.38416 -168.308 -55.5756 -182.944 -109.461C-196.703 -160.18 -191.587 -222.995 -167.75 -296.163C-152.581 -345.757 -129.597 -392.585 -97.4925 -439.34C-77.0806 -469.863 -54.0757 -498.127 -27.1735 -525.755C-2.72319 -550.759 22.4479 -570.943 56.9872 -593.234C75.4792 -605.19 94.6409 -614.787 113.943 -621.763ZM566.156 146.523C583.931 140.098 601.51 131.548 618.408 121.112C659.391 96.6683 695.143 67.0546 724.659 33.1C772.268 -19.4213 801.42 -82.3998 808.945 -149.026C815.525 -205.713 800.572 -254.702 764.491 -294.637C727.952 -334.955 665.391 -367.939 599.065 -400.97C538.686 -430.878 495.238 -455.369 458.193 -480.375C447.029 -487.909 436.456 -495.485 426.761 -502.89C407.253 -517.967 389.45 -533.31 372.236 -548.147C350.431 -566.943 329.827 -584.699 308.053 -599.962C280.505 -619.359 249.733 -631.273 216.588 -635.371C182.7 -639.561 147.972 -635.343 113.372 -622.838C93.9854 -615.831 74.7433 -606.191 56.1754 -594.188C21.5614 -571.848 -3.66711 -551.622 -28.1714 -526.553C-55.1198 -498.882 -78.1619 -470.571 -98.6089 -440.002C-130.77 -393.169 -153.793 -346.249 -168.988 -296.568C-192.888 -223.218 -198.007 -160.205 -184.192 -109.288C-169.46 -55.0461 -125.099 -7.55631 -59.2796 24.4291C-48.2875 29.8141 -36.5033 35.0756 -24.2488 40.0899C33.8925 63.9303 96.616 79.4371 157.282 94.4344L161.316 95.4358C199.297 105.048 234.325 114.41 268.198 123.459C294.833 130.577 319.989 137.3 344.051 143.46C364.657 148.992 383.162 153.18 400.618 156.256C464.769 167.247 517.371 164.155 566.156 146.523Z" fill="#EDE9F6"/>
<path d="M123.131 -609.063C190.481 -633.424 259.316 -626.243 311.992 -589.36C334.748 -573.555 355.781 -555.276 378.051 -535.924C393.55 -522.455 409.569 -508.534 427.108 -494.637C436.447 -487.366 446.65 -479.886 457.435 -472.406C493.268 -447.558 535.051 -423.209 592.914 -393.459C656.231 -360.674 715.955 -327.974 750.896 -288.409C785.255 -249.403 799.531 -201.922 793.335 -147.289C786.226 -81.4215 757.075 -20.7467 709.028 28.1852C680.328 59.3275 644.834 87.0208 603.531 110.52C587.425 120.204 570.678 128.21 553.753 134.332C506.172 151.543 454.798 155.246 392.069 145.994C375.092 143.363 357.173 139.71 337.287 134.82C302.575 126.944 265.163 117.734 225.558 107.989C204.367 102.77 182.458 97.3763 159.587 91.8473C100.04 77.9782 37.0602 62.3884 -20.9073 37.8302C-32.72 32.8475 -44.0876 27.607 -54.7084 22.2485C-117.675 -9.17658 -160.346 -55.4767 -174.852 -108.12C-188.652 -158.104 -184.237 -219.415 -161.741 -290.354C-147.688 -339.192 -125.054 -383.948 -90.4978 -431.214C-70.4225 -459.715 -46.9618 -487.154 -18.7567 -515.118C7.74592 -541.262 32.383 -558.882 65.9846 -580.488C84.4526 -592.414 103.678 -602.026 123.131 -609.063ZM554.324 135.408C571.321 129.26 588.135 121.215 604.302 111.498C645.689 87.9526 681.27 60.1862 710.039 28.9777C758.236 -20.1029 787.485 -80.9843 794.615 -147.075C800.849 -202.022 786.469 -249.8 751.873 -289.072C716.779 -328.819 656.924 -361.599 593.481 -394.446C535.671 -424.169 493.939 -448.486 458.165 -473.292C447.399 -480.76 437.22 -488.224 427.902 -495.474C410.397 -509.35 394.385 -523.26 378.904 -536.713C356.603 -556.095 335.538 -574.399 312.724 -590.246C259.653 -627.406 190.34 -634.659 122.558 -610.141C103.021 -603.074 83.7148 -593.418 65.1731 -581.446C31.5138 -559.803 6.82579 -542.142 -19.7463 -515.935C-47.9922 -487.925 -71.4958 -460.44 -91.5932 -431.899C-126.219 -384.543 -148.901 -339.69 -162.982 -290.748C-185.543 -219.634 -189.953 -158.125 -176.099 -107.94C-161.49 -54.9469 -118.579 -8.35502 -55.254 23.2474C-44.6129 28.6151 -33.2091 33.8701 -21.369 38.865C36.7103 63.4684 99.7611 79.0797 159.366 92.9609C182.226 98.4883 204.137 103.881 225.325 109.095C264.938 118.85 302.354 128.058 337.064 135.929C356.986 140.83 374.948 144.49 391.966 147.131C454.941 156.422 506.529 152.696 554.324 135.408Z" fill="#EDE9F6"/>
<path d="M131.9 -597.116C198.71 -621.298 265.763 -615.12 315.87 -580.16C339.729 -563.7 361.203 -544.816 383.939 -524.824C397.68 -512.742 411.891 -500.245 427.399 -487.6C436.34 -480.48 446.14 -473.101 456.538 -465.666C491.072 -440.971 531.108 -416.744 586.358 -387.108C644.335 -355.734 703.741 -321.844 737.215 -282.819C770.104 -244.416 783.856 -198.112 778.091 -145.193C771.482 -79.8556 742.366 -21.2954 693.893 24.1574C666.125 52.5133 630.899 78.342 589.179 100.946C573.863 109.885 557.952 117.367 541.878 123.185C495.347 140.027 445.016 144.329 383.489 136.724C366.981 134.52 349.63 131.367 330.438 127.09C278.091 116.747 219.763 103.271 158.009 89.0012C103.803 77.1235 40.5764 61.5423 -17.4156 36.0452C-28.7993 31.0697 -39.7695 25.831 -50.0388 20.466C-110.473 -10.6421 -151.707 -56.1089 -166.137 -107.56C-180.034 -156.842 -176.416 -216.671 -155.387 -285.385C-142.434 -333.763 -120.251 -376.487 -83.4577 -423.927C-63.6742 -450.672 -40.4998 -476.524 -10.5366 -505.283C17.0392 -531.575 41.5506 -547.297 72.5873 -567.208L74.5811 -568.484C93.0058 -580.387 112.29 -590.018 131.9 -597.116ZM542.45 124.263C558.594 118.42 574.571 110.911 589.931 101.939C631.734 79.2917 667.048 53.3951 694.875 24.9792C743.519 -20.624 772.739 -79.4021 779.37 -144.983C785.172 -198.209 771.324 -244.806 738.21 -283.467C704.578 -322.673 645.039 -356.648 586.944 -388.084C531.748 -417.69 491.763 -441.886 457.281 -466.542C446.903 -473.967 437.121 -481.328 428.209 -488.428C412.726 -501.049 398.528 -513.536 384.795 -525.613C362.028 -545.633 340.521 -564.546 316.598 -581.05C266.096 -616.285 198.568 -622.531 131.328 -598.194C111.633 -591.066 92.266 -581.397 73.7688 -569.444L71.7772 -568.17C40.6946 -548.228 16.1461 -532.479 -11.5119 -506.113C-41.5226 -477.311 -64.7258 -451.422 -84.5392 -424.635C-121.417 -377.092 -143.647 -334.261 -156.634 -285.768C-177.717 -216.881 -181.33 -156.858 -167.382 -107.373C-152.855 -55.5827 -111.38 -9.832 -50.6039 21.4571C-40.3086 26.8321 -29.2967 32.0861 -17.8889 37.0778C40.2188 62.6272 103.53 78.2276 157.806 90.1189C219.561 104.391 277.906 117.87 330.266 128.208C349.471 132.493 366.864 135.659 383.423 137.87C445.188 145.505 495.717 141.178 542.45 124.263Z" fill="#EDE9F6"/>
<path d="M140.888 -584.253C207.146 -608.258 272.392 -603.138 319.903 -570.207C344.931 -553.104 366.795 -533.644 389.943 -513.04C401.915 -502.381 414.291 -491.362 427.758 -480.081C436.429 -473.02 445.564 -465.967 455.685 -458.507C488.885 -434.05 527.162 -410.022 579.787 -380.605C634.927 -349.454 691.442 -315.821 723.447 -277.396C754.815 -239.697 767.976 -194.656 762.555 -143.534C756.343 -78.8211 727.162 -22.4429 678.163 19.5073C651.011 45.4011 616.963 68.6917 574.05 90.7255C559.557 98.918 544.509 105.855 529.31 111.361C483.751 127.866 434.394 132.829 373.985 126.973C357.93 125.219 341.143 122.59 322.662 118.948C276.93 111.398 225.367 101.238 155.46 85.9991C85.3018 71.7511 31.1686 55.351 -14.9018 34.379C-25.8566 29.4313 -36.4291 24.2095 -46.3405 18.8589C-104.216 -11.8162 -143.958 -56.3291 -158.258 -106.486C-171.979 -154.299 -168.981 -214.174 -149.586 -279.633C-134.392 -340.378 -102.664 -384.264 -76.7222 -415.709C-51.9076 -447.498 -23.99 -474.498 -2.44014 -494.465C21.7649 -516.718 43.3444 -530.325 68.3303 -546.075C73.1133 -549.091 78.0492 -552.203 83.1861 -555.488C101.64 -567.389 121.052 -577.067 140.888 -584.253ZM529.883 112.441C545.144 106.912 560.252 99.946 574.784 91.7338C617.774 69.6554 651.904 46.3047 679.115 20.3616C728.297 -21.7462 757.601 -78.3546 763.838 -143.323C769.286 -194.751 756.034 -240.08 724.449 -278.034C692.294 -316.639 635.652 -350.348 580.398 -381.569C527.824 -410.959 489.596 -434.953 456.447 -459.373C446.344 -466.818 437.226 -473.858 428.581 -480.899C415.141 -492.16 402.769 -503.172 390.806 -513.821C367.622 -534.459 345.728 -553.952 320.624 -571.102C272.726 -604.304 207.004 -609.492 140.316 -585.332C120.396 -578.115 100.9 -568.398 82.3797 -556.447C77.2439 -553.166 72.3089 -550.057 67.5336 -547.041C42.4997 -531.26 20.8792 -517.633 -3.39731 -495.309C-24.9797 -475.311 -52.9387 -448.277 -77.7906 -416.441C-103.789 -384.923 -135.596 -340.925 -150.838 -280.004C-170.286 -214.377 -173.281 -154.307 -159.5 -106.296C-145.114 -55.8077 -105.13 -11.0085 -46.9237 19.8375C-36.9865 25.1981 -26.3829 30.4391 -15.3985 35.4037C30.7815 56.4164 85.0088 72.8573 155.278 87.1203C225.204 102.369 276.779 112.533 322.519 120.08C341.017 123.73 357.848 126.363 373.947 128.122C434.586 133.997 484.133 129.016 529.883 112.441Z" fill="#EDE9F6"/>
<path d="M150.405 -571.609C214.972 -595.02 279.937 -590.776 324.193 -560.261C350.462 -542.463 372.669 -522.37 396.18 -501.101C406.392 -491.861 416.952 -482.31 428.381 -472.433C436.641 -465.542 445.38 -458.597 455.103 -451.188C486.536 -427.256 524.15 -402.664 573.477 -373.797C625.766 -342.818 679.377 -309.393 709.934 -271.499C739.802 -234.451 752.404 -190.637 747.39 -141.276C741.641 -77.1569 712.471 -22.9419 663.03 15.506C636.732 38.8131 603.898 59.6563 559.67 81.12C546.072 88.5409 531.968 94.9139 517.729 100.077C473.151 116.241 424.747 121.845 365.399 117.729C349.813 116.414 333.596 114.308 315.825 111.273C267.663 104.926 214.719 95.7843 153.947 83.3278C89.6346 71.2951 34.05 54.3313 -11.2772 32.894C-21.7913 27.9654 -31.9705 22.7517 -41.5289 17.4017C-96.8353 -12.8992 -135.105 -56.5181 -149.3 -105.436C-163.094 -152.517 -160.88 -210.809 -142.896 -274.013C-129.157 -333.401 -97.9724 -374.905 -69.2805 -407.668C-45.8999 -436.099 -19.1745 -461.075 6.21879 -483.826C28.1476 -503.303 47.0137 -514.816 68.8541 -528.148C76.266 -532.669 83.9247 -537.348 92.2311 -542.645C110.73 -554.574 130.3 -564.319 150.405 -571.609ZM518.302 101.159C532.601 95.9737 546.759 89.5755 560.382 82.1374C604.683 60.6416 637.598 39.7414 663.944 16.3866C713.596 -22.213 742.9 -76.6735 748.674 -141.074C753.717 -190.725 741.026 -234.814 710.952 -272.12C680.249 -310.191 626.515 -343.697 574.11 -374.748C524.835 -403.586 487.266 -428.147 455.88 -452.044C446.173 -459.436 437.451 -466.371 429.219 -473.239C417.811 -483.096 407.257 -492.644 397.051 -501.877C373.503 -523.183 351.259 -543.306 324.909 -561.159C302.067 -576.911 274.629 -585.792 243.369 -587.555C213.629 -589.234 181.284 -584.092 149.834 -572.688C129.644 -565.368 109.99 -555.585 91.4256 -543.609C83.1236 -538.314 75.4689 -533.642 68.0656 -529.124C46.1782 -515.764 27.2724 -504.228 5.27316 -484.684C-20.1571 -461.9 -46.9107 -436.894 -70.3289 -408.422C-99.0925 -375.575 -130.365 -333.948 -144.145 -274.37C-162.179 -211.007 -164.391 -152.515 -150.541 -105.241C-136.254 -55.9963 -97.7527 -12.0978 -42.1288 18.368C-32.544 23.7334 -22.3297 28.9648 -11.7905 33.9065C33.6467 55.3955 89.3622 72.4061 153.778 84.4594C214.584 96.9204 267.558 106.065 315.724 112.416C333.508 115.449 349.771 117.561 365.403 118.879C424.969 123.015 473.546 117.387 518.302 101.159Z" fill="#EDE9F6"/>
<path d="M159.741 -558.895C223.535 -582.049 286.529 -578.806 328.255 -550.221C355.838 -531.701 377.291 -511.925 402.135 -489.026C410.62 -481.204 419.395 -473.113 428.832 -464.703C436.711 -457.953 445.059 -451.117 454.359 -443.788C484.474 -420.064 520.291 -395.641 567.071 -366.923C616.539 -336.128 667.274 -302.933 696.401 -265.55C724.777 -229.141 736.816 -186.547 732.176 -138.946C726.859 -75.3973 697.646 -23.3262 647.696 11.6329C615.41 38.0346 575.838 57.5983 544.968 71.6985C532.327 78.3276 519.241 84.1158 506.032 88.91C462.332 104.771 414.753 111.066 356.297 108.733C341.168 107.87 325.506 106.282 308.437 103.875C258.711 99.0816 207.468 91.595 151.752 80.9867C91.7057 70.7948 36.3158 53.7787 -8.45361 31.7749C-18.542 26.8619 -28.3243 21.6572 -37.5401 16.3108C-90.2982 -13.5896 -127.115 -56.3233 -141.199 -104.014C-158.713 -162.592 -148.562 -225.561 -136.976 -268.066C-124.521 -326.461 -93.8127 -365.68 -62.489 -399.366C-39.5279 -425.801 -14.1117 -448.335 14.3343 -472.96C34.7183 -490.44 51.734 -500.379 71.4381 -511.89C80.6329 -517.26 90.1428 -522.816 100.841 -529.623C119.455 -541.619 139.274 -551.467 159.741 -558.895ZM506.601 89.9862C519.862 85.1732 533.002 79.3683 545.659 72.7307C576.565 58.6147 616.222 39.0063 648.58 12.5451C698.751 -22.5723 728.117 -74.8985 733.46 -138.749C738.127 -186.631 726.005 -229.5 697.43 -266.157C668.166 -303.715 617.313 -336.997 567.734 -367.86C520.998 -396.547 485.226 -420.942 455.157 -444.627C445.87 -451.947 437.537 -458.772 429.685 -465.496C420.266 -473.89 411.494 -481.977 403.014 -489.795C378.128 -512.734 356.64 -532.548 328.966 -551.121C286.861 -579.973 223.384 -583.283 159.169 -559.976C138.615 -552.516 118.719 -542.629 100.033 -530.588C89.3542 -523.793 79.8548 -518.246 70.6687 -512.88C50.9153 -501.34 33.8588 -491.375 13.4041 -473.833C-15.0823 -449.177 -40.5224 -426.615 -63.5179 -400.142C-94.9283 -366.361 -125.733 -327.015 -138.233 -268.409C-149.855 -225.8 -160.022 -162.631 -142.446 -103.809C-128.265 -55.8032 -91.229 -12.8019 -38.1617 17.2722C-28.9172 22.6388 -19.0978 27.855 -8.98524 32.7843C35.9057 54.8467 91.4407 71.9073 151.614 82.1197C207.357 92.738 258.64 100.229 308.386 105.024C325.462 107.431 341.161 109.025 356.344 109.893C414.996 112.233 462.739 105.906 506.601 89.9862Z" fill="#EDE9F6"/>
<path d="M169.387 -547.321C232.332 -570.192 293.327 -567.932 332.543 -541.273C361.493 -522.041 383.128 -501.658 408.175 -478.06C414.992 -471.638 422.04 -465 429.556 -458.079C437.047 -451.485 445.008 -444.757 453.904 -437.494C482.698 -413.998 516.731 -389.747 561.012 -361.169C607.678 -330.586 655.557 -297.637 683.266 -260.74C710.159 -224.971 721.622 -183.582 717.335 -137.731C712.41 -74.737 683.106 -24.7937 632.587 6.70472C604.442 27.7349 571.369 43.7206 530.357 61.2562C518.779 67.0702 506.803 72.2368 494.73 76.6235C451.796 92.224 404.885 99.27 347.102 98.8012C332.402 98.4031 317.285 97.3387 300.906 95.5516C250.611 92.6121 201.029 86.7999 149.287 77.779C92.2044 69.1694 38.5066 52.5947 -6.02347 29.8386C-15.6947 24.9436 -25.0845 19.7574 -33.9501 14.4111C-84.2036 -15.0804 -119.573 -56.9153 -133.541 -103.399C-151.128 -161.088 -142.092 -222.015 -131.415 -262.971C-120.729 -317.456 -93.502 -353.941 -55.9155 -391.969C-33.3105 -416.565 -8.09648 -437.626 18.5992 -459.923L22.3441 -463.049C41.6576 -479.032 57.3647 -487.734 75.5565 -497.809C86.0308 -503.612 96.8614 -509.608 109.454 -517.599C128.277 -529.71 148.44 -539.709 169.387 -547.321ZM495.301 77.7035C507.417 73.301 519.437 68.1188 531.026 62.2977C572.084 44.7455 605.226 28.7235 633.422 7.65568C684.194 -24.0045 713.669 -74.2184 718.618 -137.539C722.931 -183.663 711.392 -225.316 684.316 -261.328C656.471 -298.402 608.476 -331.434 561.701 -362.09C517.465 -390.639 483.472 -414.863 454.72 -438.322C445.836 -445.572 437.893 -452.291 430.428 -458.86C422.928 -465.765 415.878 -472.402 409.068 -478.821C383.971 -502.465 362.299 -522.884 333.252 -542.181C293.655 -569.099 232.179 -571.427 168.815 -548.403C147.785 -540.762 127.543 -530.723 108.647 -518.568C96.0892 -510.598 85.276 -504.609 74.8145 -498.816C56.5732 -488.712 40.8155 -479.983 21.4255 -463.939L17.6779 -460.803C-9.0477 -438.484 -34.2882 -417.4 -56.9189 -392.77C-94.6321 -354.623 -121.956 -318.002 -132.678 -263.301C-143.382 -222.249 -152.438 -161.116 -134.785 -103.188C-120.72 -56.404 -85.139 -14.3011 -34.5905 15.3613C-25.7021 20.7214 -16.2766 25.9309 -6.57721 30.8351C38.0875 53.6646 91.9441 70.2899 149.172 78.9246C200.949 87.9492 250.586 93.7668 300.903 96.7092C317.286 98.4925 332.44 99.5574 347.191 99.9647C405.16 100.427 452.217 93.3585 495.301 77.7035Z" fill="#EDE9F6"/>
<path d="M179.6 -534.934C241.38 -557.407 300.153 -556.046 336.817 -531.284C367.081 -511.361 388.739 -490.399 413.819 -466.129C419.043 -461.074 424.454 -455.839 430.158 -450.396C437.26 -443.953 444.821 -437.331 453.294 -430.142C480.712 -406.887 512.92 -382.796 554.659 -354.331C598.455 -323.952 643.42 -291.242 669.701 -254.808C695.092 -219.675 705.994 -179.517 702.105 -135.455C697.645 -73.0525 668.354 -25.283 617.4 2.69904C589.08 21.8627 556.097 35.6201 515.92 51.6208C505.594 56.5606 494.932 61.0289 484.199 64.9332C442.029 80.2725 395.723 88.0921 338.468 89.5339C324.224 89.5893 309.683 89.0482 294.033 87.8744C243.848 86.9144 196.005 82.747 147.754 75.139C94.2323 68.0948 40.9152 51.49 -2.40375 28.3861C-11.641 23.5101 -20.6354 18.3285 -29.1348 12.9863C-76.8022 -16.0981 -110.695 -57.0453 -124.574 -102.307C-142.263 -159.094 -134.411 -217.938 -124.709 -257.302C-115.126 -311.165 -87.2963 -346.853 -48.4607 -383.875C-27.8388 -405.087 -5.07013 -423.365 19.0385 -442.715C22.9992 -445.896 26.9897 -449.098 31.012 -452.349C49.5163 -467.144 64.9388 -475.184 81.2642 -483.692C92.6418 -489.624 104.406 -495.755 118.508 -504.688C137.574 -516.947 158.126 -527.123 179.6 -534.934ZM484.773 66.0217C495.542 62.1047 506.236 57.6105 516.564 52.6731C556.772 36.6637 589.815 22.8818 618.184 3.68044C669.424 -24.4582 698.905 -72.5142 703.389 -135.265C707.302 -179.595 696.324 -220.009 670.764 -255.381C644.355 -291.986 599.286 -324.778 555.379 -355.233C513.682 -383.668 481.506 -407.732 454.128 -430.955C445.672 -438.134 438.119 -444.744 431.042 -451.169C425.353 -456.593 419.949 -461.827 414.724 -466.882C389.595 -491.201 367.89 -512.201 337.523 -532.198C300.477 -557.213 241.224 -558.642 179.027 -536.018C157.471 -528.177 136.837 -517.962 117.703 -505.659C103.645 -496.756 91.9021 -490.633 80.5493 -484.713C64.1711 -476.177 48.7001 -468.111 30.111 -453.247C26.0831 -449.997 22.0982 -446.793 18.1363 -443.614C-5.99875 -424.241 -28.8008 -405.943 -49.4488 -384.702C-88.4181 -347.551 -116.351 -311.716 -125.968 -257.618C-135.699 -218.16 -143.574 -159.116 -125.815 -102.092C-111.845 -56.5352 -77.7466 -15.3314 -29.7997 13.9243C-21.2772 19.2859 -12.2486 24.4829 -2.9764 29.3712C40.4898 52.558 93.985 69.2205 147.668 76.2867C195.967 83.9023 243.87 88.0732 294.078 89.0332C309.729 90.2062 324.307 90.7534 338.607 90.6946C396.027 89.2512 442.469 81.4099 484.773 66.0217Z" fill="#EDE9F6"/>
<path d="M189.79 -522.539C251.167 -544.892 306.243 -544.405 340.893 -521.199C372.416 -500.651 392.914 -480.201 418.869 -454.308C422.644 -450.539 426.538 -446.657 430.6 -442.635C437.332 -436.323 444.505 -429.81 452.533 -422.713C478.567 -399.72 508.967 -375.797 548.216 -347.427C587.364 -318.609 631.227 -284.84 656.098 -248.829C679.989 -214.33 690.321 -175.394 686.81 -133.106C682.775 -71.2864 653.444 -25.6759 601.988 -1.18934C575.362 14.9043 543.72 26.5175 510.218 38.8053L501.136 42.1408C492.299 46.1371 483.211 49.843 474.08 53.1685C432.47 68.323 386.466 77.0114 329.298 80.5031C315.495 81.0271 301.51 81.0128 286.581 80.4471C236.121 81.61 191.309 79.1883 145.513 72.8171C94.4678 67.1643 42.9405 50.9999 0.404142 27.3035C-8.40858 22.4468 -17.0107 17.282 -25.1597 11.9299C-70.2657 -16.7334 -102.694 -56.781 -116.476 -100.84C-134.259 -156.738 -127.544 -213.509 -118.775 -251.288C-109.265 -310.576 -75.4601 -345.158 -41.655 -375.498C-22.6051 -393.976 -1.75081 -409.961 20.3198 -426.883C26.5277 -431.639 32.8121 -436.457 39.1572 -441.405C57.0974 -455.261 71.7422 -462.385 87.2451 -469.929C99.3026 -475.793 111.768 -481.861 127.143 -491.579C146.298 -503.883 167.962 -514.589 189.79 -522.539ZM474.652 54.2539C483.812 50.9181 492.932 47.2034 501.755 43.2064L510.793 39.8898C544.35 27.576 576.047 15.9484 602.721 -0.178992C654.496 -24.8101 684.037 -70.7224 688.096 -132.928C691.629 -175.464 681.228 -214.644 657.175 -249.377C632.186 -285.557 588.22 -319.414 548.967 -348.308C509.754 -376.655 479.387 -400.548 453.395 -423.509C445.372 -430.594 438.211 -437.098 431.506 -443.388C427.455 -447.395 423.563 -451.278 419.789 -455.045C393.777 -480.992 373.231 -501.492 341.594 -522.115C306.554 -545.578 251.016 -546.131 189.218 -523.624C167.307 -515.644 145.561 -504.897 126.338 -492.551C111.024 -482.87 98.5841 -476.817 86.5527 -470.963C70.9945 -463.395 56.3025 -456.243 38.2674 -442.316C31.918 -437.366 25.6401 -432.551 19.4374 -427.799C-2.6651 -410.855 -23.5427 -394.851 -42.6125 -376.351C-76.5455 -345.894 -110.489 -311.168 -120.045 -251.589C-128.835 -213.716 -135.568 -156.749 -117.71 -100.616C-103.842 -56.2762 -71.2146 -15.9779 -25.8455 12.8599C-17.6683 18.2213 -9.03936 23.4126 -0.196231 28.2777C42.5048 52.0703 94.2317 68.2987 145.45 73.975C191.306 80.3466 236.19 82.7781 286.683 81.6142C301.609 82.1698 315.624 82.1903 329.484 81.6621C386.8 78.1612 432.918 69.4535 474.652 54.2539Z" fill="#EDE9F6"/>
<path d="M200.23 -511.234C259.933 -533.001 312.589 -533.239 344.691 -511.887C377.337 -490.781 396.527 -470.937 423.085 -443.467C425.585 -440.884 428.145 -438.236 430.789 -435.512C437.161 -429.311 443.939 -422.896 451.527 -415.888C476.136 -393.161 504.733 -369.362 541.531 -340.982C586.721 -305.462 621.159 -275.222 642.292 -243.135C664.706 -209.201 674.51 -171.455 671.427 -130.934C667.9 -69.6493 638.615 -26.1798 586.737 -5.22249C575.311 0.841319 562.242 6.49237 545.543 12.5804C533.448 16.9899 520.973 21.0906 507.762 25.4291C500.818 27.7145 493.773 30.0316 486.642 32.4383C479.735 35.3785 472.658 38.1712 465.576 40.7532C423.782 55.9904 379.08 65.3593 320.624 71.1344C307.441 72.1159 293.653 72.6274 279.65 72.6579C229.908 75.9943 186.789 75.157 143.918 70.0218C95.2058 65.6603 45.497 49.8774 3.91918 25.5804C-4.49145 20.7204 -12.6956 15.5447 -20.4613 10.2036C-63.0021 -18.0844 -93.9837 -57.2938 -107.72 -100.213C-125.666 -155.305 -120.16 -210.031 -112.384 -246.238C-104.044 -305.07 -70.8339 -337.459 -34.5988 -368.121C-16.8963 -384.322 2.3535 -398.366 22.7376 -413.24C30.7555 -419.093 39.0561 -425.147 47.3837 -431.435C64.8954 -444.512 78.9163 -450.829 93.7554 -457.514C106.314 -463.172 119.294 -469.017 135.724 -479.399C155.336 -491.99 177.637 -502.997 200.23 -511.234ZM546.116 13.6687C562.87 7.56087 575.988 1.88932 587.407 -4.17525C639.641 -25.2789 669.164 -69.0532 672.711 -130.757C675.812 -171.519 665.946 -209.508 643.383 -243.659C622.144 -275.902 587.624 -306.225 542.318 -341.837C505.548 -370.193 476.981 -393.966 452.408 -416.662C444.83 -423.663 438.056 -430.07 431.707 -436.249C429.083 -438.955 426.517 -441.607 424.019 -444.191C397.395 -471.726 378.156 -491.619 345.381 -512.809C312.896 -534.416 259.777 -534.241 199.657 -512.323C176.981 -504.056 154.598 -493.007 134.921 -480.373C118.561 -470.039 105.62 -464.208 93.1021 -458.568C78.2003 -451.854 64.1243 -445.515 46.5095 -432.357C38.1815 -426.075 29.8896 -420.024 21.8747 -414.175C1.46398 -399.283 -17.8113 -385.218 -35.5411 -368.991C-71.9194 -338.212 -105.278 -305.672 -113.661 -246.524C-121.449 -210.227 -126.97 -155.305 -108.954 -99.9839C-95.1306 -56.7975 -63.9603 -17.338 -21.1712 11.1167C-13.3813 16.4742 -5.14751 21.667 3.29842 26.5448C45.0571 50.9493 94.9856 66.8003 143.893 71.1774C186.831 76.3218 230.03 77.1659 279.817 73.8246C293.805 73.7965 307.623 73.2825 320.859 72.2985C379.444 66.5072 424.247 57.1152 466.148 41.8392C473.252 39.2493 480.347 36.4502 487.231 33.5179C494.312 31.1294 501.357 28.81 508.298 26.5309C521.517 22.1868 534.002 18.0853 546.116 13.6687Z" fill="#EDE9F6"/>
<path d="M571.54 -10.2602C565.892 -7.68432 559.913 -5.25583 553.209 -2.80907C537.684 2.85772 520.939 7.62502 503.212 12.6752C493.08 15.5628 482.598 18.5445 471.979 21.8082C467.764 23.4753 463.499 25.0963 459.249 26.6476C417.343 41.9435 371.757 52.5497 311.453 61.0384C298.661 62.5035 285.443 63.5709 272.169 64.2029C222.535 69.9237 182.275 70.7244 141.58 66.7858C94.9949 63.7643 47.0691 48.4755 6.60388 23.7372C-1.38999 18.911 -9.19507 13.7587 -16.6026 8.43061C-57.134 -19.7502 -85.8555 -56.9886 -99.6596 -99.275C-117.677 -153.429 -113.248 -205.999 -106.365 -240.566C-99.022 -298.911 -66.3183 -329.171 -27.5302 -359.994C-10.8924 -374.275 7.08984 -386.67 26.1176 -399.794C35.7994 -406.47 45.805 -413.373 55.8993 -420.715C73.1632 -433.15 86.7253 -438.749 101.077 -444.675C114.037 -450.023 127.438 -455.554 144.837 -466.515C165.105 -479.493 188.267 -490.9 211.818 -499.496C269.677 -520.615 319.817 -521.58 349.386 -502.149C382.945 -480.731 400.647 -461.723 427.442 -432.952L431.815 -428.257C437.839 -422.173 444.222 -415.881 451.345 -409.003C474.772 -386.383 500.762 -363.493 535.62 -334.776C577.403 -299.663 609.305 -269.769 629.171 -238.029C650.066 -204.77 659.263 -168.3 656.511 -129.629C653.432 -70.6548 625.447 -29.8725 575.577 -11.6694C574.246 -11.1835 572.898 -10.7085 571.54 -10.2602ZM553.783 -1.71849C560.517 -4.17637 566.522 -6.6199 572.14 -9.18228C573.448 -9.62022 574.807 -10.0913 576.149 -10.5811C626.464 -28.9462 654.7 -70.0495 657.8 -129.457C660.566 -168.356 651.312 -205.054 630.28 -238.532C610.32 -270.422 578.336 -300.398 536.445 -335.603C501.612 -364.298 475.648 -387.166 452.247 -409.757C445.132 -416.629 438.756 -422.913 432.753 -428.977L428.396 -433.657C401.529 -462.506 383.779 -481.566 350.072 -503.076C320.121 -522.762 269.518 -521.854 211.245 -500.584C187.612 -491.958 164.371 -480.514 144.032 -467.488C126.722 -456.585 113.37 -451.074 100.46 -445.744C86.0357 -439.788 72.4161 -434.166 55.0411 -421.651C44.9587 -414.317 34.9571 -407.421 25.2775 -400.745C6.22301 -387.603 -11.7792 -375.187 -28.4425 -360.885C-65.9574 -331.072 -100.261 -299.448 -107.639 -240.834C-114.538 -206.183 -118.982 -153.416 -100.896 -99.0333C-87.0029 -56.4887 -58.1027 -19.0192 -17.341 9.32356C-9.91148 14.6688 -2.07204 19.8421 5.94845 24.6893C46.6163 49.5465 94.7845 64.9118 141.582 67.948C182.354 71.8949 222.713 71.0945 272.389 65.361C285.657 64.7369 298.907 63.6662 311.738 62.1923C372.162 53.6905 417.827 43.0643 459.822 27.7359C464.08 26.1814 468.357 24.5532 472.536 22.902C483.098 19.6566 493.57 16.6757 503.697 13.7928C521.45 8.73865 538.212 3.95946 553.783 -1.71849Z" fill="#EDE9F6"/>
<path d="M222.856 -488.499C278.422 -508.797 325.815 -510.347 352.879 -492.755C387.104 -471.149 403.197 -453.113 429.85 -423.24L431.675 -421.194C437.375 -415.19 443.367 -409.006 450.006 -402.27C471.841 -380.128 496.078 -357.396 528.585 -328.566C561.797 -298.505 595.251 -266.088 614.982 -232.729C634.384 -200.07 643.022 -164.836 640.665 -127.991C638.176 -73.0149 613.03 -35.2532 567.937 -18.7808C564.006 -17.3448 559.875 -16.0517 555.655 -14.944C554.777 -14.612 553.96 -14.3108 553.131 -14.0081C536.048 -7.76765 516.842 -3.24322 496.509 1.54135C483.656 4.56776 470.369 7.69424 456.755 11.4524C402.54 31.1728 348.052 42.5493 301.903 51.0894C289.506 53.048 276.863 54.6593 264.34 55.8604C231.565 61.2956 187.738 67.0841 139.011 63.5561C95.1089 61.8071 47.7688 46.5571 9.10239 21.7218C1.52932 16.9095 -5.87948 11.7685 -12.9158 6.4382C-50.8282 -21.2594 -78.1226 -57.626 -91.8731 -98.7329C-110.029 -152.039 -106.75 -202.493 -100.802 -235.432C-94.526 -293.297 -61.0183 -322.654 -21.1527 -352.442C-5.46555 -365.068 11.3995 -376.03 29.2537 -387.636C40.3938 -394.877 51.91 -402.365 63.5642 -410.548C80.6422 -422.422 93.8198 -427.356 107.77 -432.581C121.017 -437.54 134.725 -442.671 152.959 -454.13C173.756 -467.425 198.577 -479.63 222.856 -488.499ZM568.51 -17.691C614.051 -34.3271 639.446 -72.4149 641.95 -127.83C644.328 -164.882 635.634 -200.341 616.106 -233.209C596.283 -266.714 562.747 -299.219 529.452 -329.359C496.959 -358.171 472.744 -380.886 450.931 -403.006C444.3 -409.73 438.314 -415.909 432.638 -421.893L430.827 -423.922C404.088 -453.89 387.949 -471.979 353.557 -493.686C326.112 -511.528 278.26 -510.037 222.283 -489.589C197.923 -480.69 173.019 -468.446 152.157 -455.108C134.031 -443.714 120.385 -438.606 107.19 -433.665C93.1643 -428.416 79.9227 -423.455 62.7163 -411.495C51.0804 -403.322 39.5759 -395.841 28.4421 -388.608C10.5655 -376.985 -6.32099 -366.009 -22.0423 -353.36C-62.0881 -323.437 -95.7637 -293.92 -102.086 -235.685C-108.051 -202.659 -111.336 -152.014 -93.0975 -98.4872C-79.2696 -57.1342 -51.8048 -20.5472 -13.6828 7.31745C-6.62038 12.6578 0.820967 17.8262 8.43152 22.6555C47.303 47.6343 94.9135 62.9647 139.048 64.7212C187.898 68.2604 231.83 62.4591 264.639 57.0167C277.138 55.8188 289.806 54.2065 302.249 52.2367C348.468 43.6876 403.022 32.2928 457.277 12.5604C470.823 8.82456 484.097 5.69739 496.937 2.67572C518.293 -2.35127 538.407 -7.08934 556.181 -13.8398C560.371 -14.9419 564.542 -16.2416 568.51 -17.691Z" fill="#EDE9F6"/>
<path d="M235.778 -477.346C266.837 -488.7 323.967 -504.517 357.628 -482.901C392.231 -461.31 406.603 -444.439 432.695 -413.81C438.193 -407.735 443.788 -401.665 449.892 -395.139C475.568 -367.701 502.32 -341.639 522.756 -321.992C552.99 -292.327 583.52 -260.293 601.961 -227.13C619.867 -195.069 627.944 -161.085 625.966 -126.112C624.003 -74.7796 601.384 -39.7633 560.555 -24.8379C554.435 -22.6009 547.836 -20.7797 540.931 -19.4355C525.407 -14.7497 508.096 -11.6104 489.766 -8.28664C474.609 -5.53949 458.937 -2.69425 442.702 1.26499C396.677 16.4085 349.799 28.2239 293.558 41.3097C281.524 43.7836 269.461 45.9317 257.729 47.6903C223.665 55.191 182.803 62.5596 137.685 60.5129C95.6936 59.98 50.2139 45.1835 12.8907 19.9289C5.73885 15.1397 -1.27475 10.0115 -7.95225 4.67895C-43.2026 -22.4991 -69.0691 -57.9667 -82.7635 -97.9063C-101.075 -150.354 -98.9345 -198.652 -93.9123 -229.937C-88.649 -287.422 -55.8211 -314.737 -13.455 -344.474C1.42045 -355.662 17.3202 -365.364 34.1587 -375.639C46.6115 -383.234 59.4852 -391.09 72.5433 -399.933C85.8022 -408.837 96.4471 -413.269 105.107 -416.435C108.753 -417.768 112.266 -418.949 115.994 -420.199C119.679 -421.434 123.502 -422.714 127.414 -424.144C135.937 -427.26 147.615 -432.025 162.384 -441.288C184.24 -455.23 210.306 -468.034 235.778 -477.346ZM561.129 -23.7447C602.41 -38.8355 625.274 -74.1766 627.251 -125.96C629.214 -160.635 620.863 -195.778 603.105 -227.579C584.582 -260.889 553.975 -293.004 523.66 -322.748C503.23 -342.386 476.5 -368.428 450.844 -395.849C444.745 -402.365 439.153 -408.431 433.752 -414.398C407.509 -445.208 393.085 -462.137 358.302 -483.84C324.116 -505.794 266.503 -489.878 235.205 -478.436C209.653 -469.096 183.507 -456.251 161.582 -442.267C146.91 -433.062 135.313 -428.329 126.842 -425.232C122.944 -423.807 119.136 -422.536 115.449 -421.3C111.885 -420.104 108.194 -418.867 104.533 -417.528C95.8033 -414.337 85.0838 -409.869 71.7145 -400.893C58.6812 -392.063 45.8151 -384.213 33.3697 -376.623C16.5139 -366.341 0.586037 -356.624 -14.3125 -345.41C-56.8938 -315.53 -89.8917 -288.055 -95.1989 -230.17C-100.234 -198.802 -102.375 -150.311 -83.9917 -97.6478C-70.2185 -57.4793 -44.1995 -21.7956 -8.74138 5.53629C-2.04626 10.8876 4.99834 16.0354 12.1846 20.8456C49.7425 46.261 95.5132 61.1472 137.758 61.6743C183.022 63.7376 223.99 56.3442 258.09 48.8387C269.814 47.0864 281.89 44.9249 293.964 42.4476C350.258 29.3506 397.167 17.5241 443.191 2.38688C459.337 -1.55391 474.989 -4.39202 490.128 -7.13832C508.495 -10.4701 525.846 -13.6128 541.374 -18.3056C548.278 -19.6522 554.946 -21.4847 561.129 -23.7447Z" fill="#EDE9F6"/>
<path d="M248.564 -467.113C299.037 -485.578 339.232 -487.896 361.744 -473.641C396.46 -452.245 409.545 -436.097 433.297 -406.79C438.504 -400.736 443.711 -394.771 449.227 -388.535C471.823 -362.983 494.88 -338.52 516.432 -315.891C542.413 -288.054 571.299 -255.106 588.523 -221.909C604.716 -190.847 612.44 -157.176 610.864 -124.528C609.341 -75.7777 589.506 -44.0911 551.91 -30.3375C543.952 -27.4263 535.133 -25.3398 525.697 -24.1336C512.151 -21.1154 497.255 -19.2818 481.483 -17.3412C464.331 -15.2299 446.594 -13.0452 428.031 -9.11211C400.35 -1.05472 372.842 6.61942 343.716 14.7423C324.416 20.1211 304.464 25.6878 284.422 31.3832C272.685 34.4136 261.197 37.1085 250.283 39.3971C215.312 49.1194 177.225 58.0159 135.403 57.3697C95.1943 58.0391 51.5297 43.6897 15.596 18.014C8.84391 13.2409 2.22417 8.12186 -4.08374 2.79043C-36.6973 -23.85 -61.1627 -58.4601 -74.8273 -97.291C-93.3128 -148.963 -92.302 -195.133 -88.1923 -224.77C-83.9105 -281.96 -51.76 -307.335 -6.81511 -336.941C7.34178 -346.876 22.4261 -355.474 38.3918 -364.574C52.0625 -372.369 66.202 -380.428 80.5704 -389.811C89.4765 -395.585 98.0372 -399.884 107.493 -403.344C112.942 -405.337 118.064 -406.851 123.483 -408.452C128.903 -410.05 134.515 -411.707 140.484 -413.891C150.947 -417.718 160.63 -422.51 170.949 -428.975C193.877 -443.556 222.165 -457.456 248.564 -467.113ZM552.485 -29.2422C590.544 -43.1656 610.616 -75.1775 612.149 -124.385C613.741 -157.211 605.967 -191.086 589.682 -222.327C572.388 -255.667 543.429 -288.695 517.378 -316.61C495.834 -339.229 472.786 -363.681 450.204 -389.216C444.693 -395.448 439.49 -401.411 434.301 -407.438C410.463 -436.856 397.326 -453.067 362.409 -474.586C339.516 -489.086 298.876 -486.821 247.991 -468.206C221.515 -458.521 193.143 -444.579 170.15 -429.954C159.902 -423.541 150.296 -418.78 139.912 -414.982C133.984 -412.813 128.391 -411.163 122.985 -409.567C117.548 -407.962 112.404 -406.446 106.919 -404.439C97.3731 -400.947 88.7445 -396.608 79.7591 -390.783C65.4162 -381.42 51.2941 -373.368 37.6405 -365.585C21.6447 -356.469 6.54103 -347.858 -7.65041 -337.905C-52.831 -308.139 -85.161 -282.612 -89.4783 -224.984C-93.5957 -195.263 -94.6132 -148.908 -76.0466 -97.0274C-62.3069 -57.9741 -37.7068 -23.1719 -4.90632 3.62195C1.42361 8.97059 8.07456 14.1147 14.8515 18.9152C51.0453 44.7653 95.0239 59.2132 135.52 58.548C177.492 59.1873 215.694 50.2681 250.721 40.5339C261.613 38.2508 273.12 35.5488 284.892 32.511C304.948 26.8078 324.907 21.2442 344.191 15.8655C373.324 7.74019 400.836 0.0699912 428.479 -7.98175C446.938 -11.8907 464.644 -14.0698 481.767 -16.1818C497.573 -18.1265 512.502 -19.9634 526.049 -22.9823C535.522 -24.1879 544.436 -26.2976 552.485 -29.2422Z" fill="#EDE9F6"/>
</svg>
