<svg width="1725" height="671" viewBox="0 0 1725 671" fill="none" xmlns="http://www.w3.org/2000/svg">
<path d="M1081.53 -412.463C1081.53 -460.75 1085.43 -495.436 1094.19 -524.927C1129.52 -637.297 1270.93 -720.936 1454.44 -737.995C1546.24 -745.742 1632.32 -732.138 1703.39 -698.652C1765.32 -668.898 1825 -618.69 1891.22 -540.646C1936.44 -486.705 1975.98 -423.941 2015.64 -343.125C2055.51 -261.15 2074.35 -195.684 2076.73 -130.859C2076.82 -127.913 2076.86 -124.967 2076.86 -121.852C2076.86 -48.0677 2053.46 69.049 2014.27 191.434C1974.44 315.823 1925.46 421.907 1883.24 475.206C1808.24 619.532 1734.85 601.059 1623.77 573.108C1574.5 560.705 1518.65 546.656 1451.16 542.928C1402.46 540.25 1358.98 538.608 1320.61 537.16C1136.35 530.213 1052.25 527.048 959.358 428.583C937.799 404.619 926.866 372.484 926.866 333.092C926.866 302.04 933.648 266.21 947.026 226.591C959.294 190.651 974.611 153.549 990.829 114.269C1012.16 62.6057 1034.22 9.1866 1052.58 -49.1109C1074.13 -118.494 1084.61 -194.39 1084.61 -281.141C1084.61 -294.018 1084.37 -307.52 1083.92 -321.271C1083.71 -327.451 1083.5 -333.581 1083.28 -339.654C1082.38 -365.147 1081.53 -389.226 1081.53 -412.463ZM2077.89 -121.852C2077.89 -124.982 2077.85 -127.945 2077.77 -130.914C2075.37 -195.982 2056.48 -261.642 2016.52 -343.823C1976.8 -424.741 1937.21 -487.589 1891.92 -541.614C1825.6 -619.778 1765.81 -670.07 1703.75 -699.889C1632.54 -733.442 1546.31 -747.071 1454.36 -739.309C1270.46 -722.215 1128.71 -638.253 1093.22 -525.407C1084.42 -495.749 1080.5 -460.917 1080.5 -412.463C1080.5 -389.196 1081.35 -365.105 1082.25 -339.595C1082.46 -333.522 1082.68 -327.396 1082.89 -321.216C1083.34 -307.483 1083.57 -294 1083.57 -281.141C1083.57 -194.559 1073.12 -118.822 1051.62 -49.5928C1033.28 8.63018 1011.24 62.017 989.915 113.655C973.685 152.956 958.359 190.075 946.078 226.065C932.641 265.855 925.831 301.861 925.831 333.092C925.831 372.884 936.885 405.346 958.689 429.587C1003.86 477.467 1047.51 504.042 1104.67 518.444C1160.16 532.433 1227.45 534.969 1320.57 538.482C1358.94 539.93 1402.43 541.567 1451.12 544.252C1518.52 547.968 1574.33 562.014 1623.57 574.404C1680.9 588.831 1726.19 600.232 1767.8 590.214C1812.78 579.392 1848.63 544.177 1884.03 476.034C1926.28 422.729 1975.35 316.479 2015.24 191.933C2054.47 69.3967 2077.89 -47.9062 2077.89 -121.852Z" fill="#EDE9F6"/>
<path d="M2065.53 -122.718C2065.55 -120.968 2065.57 -119.233 2065.57 -117.446C2065.57 -46.9344 2042.74 65.8978 2004.49 184.364C1965.58 304.93 1917.73 408.122 1876.49 460.408C1803.33 600.607 1731.72 584.263 1623.33 559.518C1576.46 548.82 1523.34 536.695 1459.55 534.007C1413.05 531.9 1371.42 530.739 1334.68 529.711C1156.48 524.732 1075.15 522.459 984.691 428.311C961.298 403.508 949.436 369.411 949.436 326.948C949.436 298.472 954.785 266.062 965.335 230.621C976.704 186.913 992.67 141.242 1009.58 92.8922C1025.46 47.4615 1041.89 0.476956 1056.23 -49.6274C1085.36 -153.621 1089.35 -253.999 1089.82 -320.454L1089.69 -332.174C1089.54 -346.401 1089.4 -359.841 1089.4 -373.214C1089.4 -430.1 1092.14 -476.359 1105.52 -517.231C1141.37 -625.243 1278.45 -707.107 1454.75 -725.782C1544.97 -735.95 1629.19 -725.062 1698.31 -694.297C1759.59 -666.668 1818.49 -618.499 1883.65 -542.706C1931.35 -487.476 1971.8 -422.597 2010.95 -338.523C2048.7 -256.62 2065.53 -190.288 2065.53 -123.45V-122.718ZM2066.6 -117.446C2066.6 -119.24 2066.59 -120.985 2066.56 -122.73L2066.56 -123.45C2066.56 -190.536 2049.68 -257.076 2011.84 -339.196C1972.64 -423.383 1932.12 -488.362 1884.35 -543.681C1819.08 -619.594 1760.08 -667.851 1698.65 -695.543C1629.39 -726.37 1545.02 -737.281 1454.67 -727.097C1277.99 -708.383 1140.56 -626.206 1104.56 -517.739C1091.12 -476.665 1088.36 -430.259 1088.36 -373.214C1088.36 -359.832 1088.51 -346.389 1088.66 -332.155L1088.78 -320.452C1088.31 -254.105 1084.33 -153.877 1055.26 -50.0766C1040.93 -0.0194034 1024.51 46.9427 1008.63 92.3585C991.715 140.735 975.738 186.434 964.362 230.172C953.774 265.742 948.403 298.308 948.403 326.948C948.403 369.813 960.388 404.263 984.035 429.321C1074.77 523.769 1156.22 526.045 1334.66 531.032C1371.39 532.059 1413.02 533.221 1459.52 535.325C1523.23 538.008 1576.32 550.128 1623.15 560.818C1679.09 573.591 1723.28 583.677 1763.88 573.251C1807.77 561.98 1842.75 527.43 1877.28 461.242C1918.55 408.941 1966.48 305.578 2005.45 184.871C2043.74 66.2478 2066.6 -46.7706 2066.6 -117.446Z" fill="#EDE9F6"/>
<path d="M972.01 320.381C972.01 294.723 976.038 265.964 983.977 234.91C993.64 181.7 1010.15 125.312 1027.63 65.6137C1038.54 28.3542 1049.82 -10.1722 1060.16 -50.3282C1084.88 -149.336 1092.13 -242.339 1095.96 -320.262L1096.03 -324.822C1097.13 -395.998 1098.07 -457.47 1117.09 -510.479C1153.43 -614.323 1286.1 -694.543 1455.1 -714.853C1544.94 -727.662 1625.01 -719.698 1693.11 -691.177C1752.87 -666.008 1812.64 -618.437 1875.84 -545.756C1925.32 -489.938 1967.87 -420.864 2005.93 -334.58C2041.64 -252.715 2056.75 -183.56 2053.96 -114.878L2053.97 -113.341C2053.97 -45.9984 2031.71 62.7172 1994.43 177.462C1956.44 294.392 1909.74 394.873 1869.51 446.257C1798.21 582.587 1728.4 568.362 1622.74 546.83C1578.33 537.783 1528 527.531 1467.97 525.839C1423.76 524.306 1384.05 523.618 1349.02 523.007C1176.9 520.009 1098.34 518.642 1010.34 428.613C984.907 402.874 972.01 366.459 972.01 320.381ZM2055.32 -130.702C2055.32 -194.418 2039.91 -259.408 2006.83 -335.223C1968.71 -421.641 1926.09 -490.827 1876.53 -546.737C1813.22 -619.545 1753.33 -667.2 1693.44 -692.432C1625.2 -721.012 1544.97 -728.996 1455 -716.168C1371.64 -706.149 1295.77 -681.596 1235.59 -645.171C1175.41 -608.739 1134.11 -562.35 1116.15 -511.023C1097.04 -457.768 1096.1 -396.172 1095 -324.847L1094.93 -320.316C1091.1 -242.506 1083.86 -149.599 1059.17 -50.7331C1048.84 -10.6169 1037.56 27.9046 1026.66 65.1542C1009.17 124.893 992.645 181.322 982.982 234.555C975.019 265.693 970.975 294.581 970.975 320.381C970.975 366.889 984.002 403.649 1009.69 429.646C1097.97 519.954 1176.64 521.323 1349 524.321C1384.03 524.935 1423.74 525.623 1467.94 527.16C1527.91 528.847 1578.2 539.089 1622.57 548.139C1677.11 559.248 1720.18 568.025 1759.76 557.149C1802.56 545.399 1836.64 511.453 1870.3 447.089C1910.56 395.693 1957.35 295.048 1995.38 177.961C2032.72 63.0674 2055 -45.8345 2055 -113.341L2055 -114.849C2055.21 -120.083 2055.32 -125.429 2055.32 -130.702Z" fill="#EDE9F6"/>
<path d="M994.582 312.104C994.582 289.701 997.42 264.999 1003.02 238.695C1009.9 174.014 1026.92 104.372 1044.94 30.6389C1051.4 4.20408 1058.08 -23.1315 1064.48 -50.9882C1086.89 -152.541 1095.91 -249.039 1102.5 -319.5C1105.36 -386.293 1108.06 -449.341 1129.05 -502.789C1147.18 -551.797 1187.34 -596.411 1245.17 -631.829C1303.12 -667.313 1375.95 -691.783 1455.78 -702.595C1543.94 -717.905 1622.14 -712.582 1688.2 -686.768C1747.24 -663.755 1806.15 -618.295 1868.3 -547.795C1920.21 -490.752 1963.66 -419.524 2001.15 -330.039C2030.29 -259.662 2043.86 -198.698 2043.86 -138.181C2043.86 -127.806 2043.45 -117.272 2042.64 -106.873C2042.13 -42.2311 2020.23 61.9473 1984.06 171.887C1946.56 285.855 1902.36 380.366 1862.78 431.186C1793.34 563.419 1725.32 551.379 1622.36 533.153C1580.45 525.733 1532.95 517.324 1476.7 516.607C1434.86 515.641 1397.15 515.423 1363.87 515.225C1197.76 514.247 1121.94 513.803 1036.38 428.039C1008.64 401.326 994.582 362.318 994.582 312.104ZM2044.9 -138.181C2044.9 -198.922 2031.29 -260.079 2002.07 -330.656C1964.51 -420.294 1920.98 -491.642 1868.98 -548.787C1806.73 -619.409 1747.69 -664.959 1688.5 -688.029C1622.3 -713.898 1543.95 -719.238 1455.66 -703.902C1375.73 -693.078 1302.78 -668.567 1244.72 -633.015C1186.67 -597.466 1146.35 -552.636 1128.12 -503.367C1107.04 -449.689 1104.33 -386.506 1101.47 -319.614C1094.89 -249.238 1085.87 -152.799 1063.49 -51.3504C1057.09 -23.5161 1050.41 3.81451 1043.95 30.2493C1025.92 104.032 1008.89 173.731 1002.01 238.43C996.399 264.768 993.548 289.582 993.548 312.104C993.548 362.752 1007.74 402.113 1035.75 429.086C1121.58 515.113 1197.51 515.565 1363.87 516.545C1397.14 516.738 1434.85 516.959 1476.68 517.922C1532.87 518.644 1580.34 527.046 1622.22 534.458C1675.35 543.86 1717.33 551.295 1755.89 539.979C1797.58 527.748 1830.8 494.447 1863.58 432.019C1903.18 381.18 1947.46 286.51 1985.01 172.391C2021.23 62.3169 2043.16 -42.0624 2043.67 -106.801C2044.48 -117.183 2044.9 -127.761 2044.9 -138.181Z" fill="#EDE9F6"/>
<path d="M1015.42 303.078C1015.42 284.389 1017.23 264.151 1020.81 242.905C1023.49 164.025 1041.21 77.605 1059.96 -13.8716C1062.51 -26.2942 1065.08 -38.8235 1067.64 -51.4769C1082.47 -128.578 1092.08 -200.688 1100.55 -264.307C1103.09 -283.446 1105.5 -301.523 1107.93 -318.813C1112.96 -388.305 1118.51 -445.394 1139.94 -495.36C1158.37 -542.379 1197.61 -585.492 1253.41 -620.056C1309.34 -654.701 1379.34 -679.159 1455.87 -690.783C1542.49 -708.637 1618.92 -705.947 1683.05 -682.784C1741.44 -661.926 1799.57 -618.532 1860.76 -550.12C1914.44 -492.624 1960.13 -417.083 1996.58 -325.586C2022.32 -260.173 2034.31 -203 2034.31 -145.67C2034.31 -130.164 2033.39 -114.379 2031.57 -98.7534C2030.22 -36.4268 2008.51 63.2124 1973.49 167.858C1937.07 276.7 1894.27 367.425 1856.07 416.76C1788.34 545.066 1721.98 535.236 1621.53 520.345C1582.09 514.497 1537.38 507.872 1484.87 508.081C1445.42 507.684 1409.71 507.917 1378.2 508.133C1217.74 509.202 1144.51 509.688 1061.22 428.094C1030.82 400.264 1015.42 358.21 1015.42 303.078ZM2035.35 -145.67C2035.35 -203.216 2023.32 -260.57 1997.5 -326.182C1960.99 -417.84 1915.21 -493.519 1861.44 -551.119C1800.14 -619.656 1741.88 -663.142 1683.32 -684.052C1619.06 -707.265 1542.48 -709.972 1455.72 -692.088C1379.11 -680.452 1308.98 -655.949 1252.95 -621.239C1196.95 -586.546 1157.55 -543.23 1139.02 -495.971C1117.51 -445.804 1111.94 -388.578 1106.9 -318.989C1104.48 -301.751 1102.07 -283.672 1099.52 -264.528C1091.06 -200.931 1081.46 -128.846 1066.64 -51.7969C1064.08 -39.1585 1061.51 -26.6267 1058.96 -14.2089C1040.19 77.342 1022.46 163.824 1019.78 242.742C1016.2 263.957 1014.38 284.299 1014.38 303.078C1014.38 358.657 1029.93 401.07 1060.6 429.151C1144.16 511.013 1217.5 510.52 1378.21 509.443C1409.71 509.237 1445.42 508.994 1484.86 509.398C1537.33 509.195 1582 515.809 1621.4 521.657C1673.25 529.338 1714.2 535.405 1751.82 523.615C1792.5 510.867 1824.9 478.174 1856.86 417.592C1895.1 368.231 1937.97 277.367 1974.44 168.377C2009.51 63.5845 2031.25 -36.2308 2032.6 -98.6393C2034.42 -114.25 2035.35 -130.102 2035.35 -145.67Z" fill="#EDE9F6"/>
<path d="M1039.61 223.779C1039.61 140.73 1054.34 49.8407 1072.13 -51.8002C1078.97 -93.41 1084.94 -132.889 1090.72 -171.068C1098.81 -224.564 1106.45 -275.095 1114.6 -318.214C1121.2 -381.438 1128.56 -437.819 1152.02 -488.177C1170.72 -533.253 1208.96 -574.902 1262.61 -608.646C1316.4 -642.484 1383.46 -666.949 1456.52 -679.401C1541.44 -699.851 1615.95 -699.789 1678.01 -679.222C1735.63 -660.528 1792.87 -619.159 1853 -552.752C1909.07 -493.96 1955.67 -416.069 1991.51 -321.229C2013.88 -261.26 2024.76 -206.187 2024.76 -152.875C2024.76 -132.348 2023.14 -111.367 2019.95 -90.5099C2015.49 31.1165 1930.22 297.27 1849.13 402.921C1783.23 527.469 1718.61 519.877 1620.8 508.388C1583.95 504.052 1542.19 499.146 1493.55 500.236C1456.67 500.38 1423.1 501.073 1393.49 501.676C1238.87 504.85 1168.3 506.302 1087.4 428.741C1054.03 399.673 1037.12 354.003 1037.12 293.002C1037.12 278.625 1038.1 263.335 1040.02 247.556C1039.75 239.754 1039.61 231.796 1039.61 223.779ZM2025.8 -152.875C2025.8 -206.388 2014.89 -261.644 1992.44 -321.8C1956.54 -416.816 1909.85 -494.859 1853.67 -553.76C1793.42 -620.296 1736.05 -661.757 1678.27 -680.499C1616.06 -701.117 1541.39 -701.184 1456.36 -680.702C1383.21 -668.238 1316.05 -643.731 1262.15 -609.831C1208.3 -575.963 1169.91 -534.117 1151.11 -488.822C1127.57 -438.276 1120.19 -381.759 1113.59 -318.455C1105.44 -275.373 1097.8 -224.827 1089.7 -171.319C1083.93 -133.14 1077.95 -93.6708 1071.12 -52.0808C1053.32 49.6296 1038.57 140.596 1038.57 223.779C1038.57 231.813 1038.71 239.791 1038.99 247.486C1037.06 263.201 1036.09 278.561 1036.09 293.002C1036.09 354.47 1053.15 400.5 1086.79 429.816C1125.98 467.381 1163.86 487.409 1213.46 496.762C1260.92 505.719 1316.54 504.581 1393.51 503C1423.12 502.391 1456.68 501.704 1493.56 501.552C1542.15 500.472 1583.88 505.373 1620.71 509.699C1671.19 515.626 1711.06 520.316 1747.68 508.013C1787.29 494.707 1818.81 462.554 1849.92 403.755C1886.71 355.831 1928.11 268.678 1963.42 164.716C1997.25 65.1333 2018.77 -30.2231 2020.97 -90.356C2024.17 -111.198 2025.8 -132.261 2025.8 -152.875Z" fill="#EDE9F6"/>
<path d="M1054.49 177.296C1054.49 99.3602 1065.12 17.348 1075.52 -52.5962C1088.41 -146.342 1102.48 -244.024 1120.24 -317.67C1129.55 -384.528 1139.96 -435.095 1163.1 -480.787C1201.99 -568.945 1314.47 -640.484 1456.64 -667.516C1539.98 -690.57 1612.69 -693.14 1672.77 -675.162C1729.69 -658.69 1786.12 -619.41 1845.3 -555.08C1903.04 -495.939 1951.93 -413.587 1986.7 -316.924C2006.47 -261.258 2016.08 -209.892 2016.08 -159.898C2016.08 -134.254 2013.64 -108.994 2008.63 -82.6794C2005.57 -24.9446 1984.28 65.6324 1951.68 159.733C1917.51 258.361 1877.62 341.529 1842.24 387.913C1778.03 508.578 1715.01 503.293 1619.63 495.299C1585.37 492.421 1546.54 489.163 1501.75 491.066C1467.48 491.744 1436.1 492.865 1408.42 493.865C1263.77 499.028 1191.17 501.623 1112.48 428.186C1076.16 398.202 1056.97 346.985 1056.97 280.065C1056.97 270.781 1057.34 261.102 1058.07 251.28C1055.69 228.121 1054.49 203.28 1054.49 177.296ZM2017.12 -159.898C2017.12 -210.086 2007.48 -261.625 1987.65 -317.472C1952.8 -414.323 1903.81 -496.839 1845.96 -556.095C1786.66 -620.554 1730.08 -659.929 1673.01 -676.448C1612.77 -694.468 1539.92 -691.902 1456.46 -668.813C1314 -641.727 1201.25 -569.937 1162.21 -481.467C1136.48 -430.661 1126.87 -372.845 1119.24 -317.98C1101.48 -244.337 1087.4 -146.612 1074.5 -52.8294C1064.09 17.1644 1053.45 99.2461 1053.45 177.296C1053.45 203.33 1054.66 228.235 1057.04 251.302C1056.31 261.018 1055.94 270.736 1055.94 280.065C1055.94 347.461 1075.29 399.055 1111.9 429.273C1190.85 502.951 1263.57 500.353 1408.44 495.175C1436.13 494.185 1467.5 493.066 1501.78 492.389C1546.51 490.483 1585.32 493.739 1619.56 496.609C1668.79 500.738 1707.67 504 1743.38 491.173C1781.99 477.304 1812.73 445.712 1843.04 388.739C1878.45 342.34 1918.41 259.028 1952.63 160.263C1985.27 66.0343 2006.59 -24.7089 2009.65 -82.4785C2014.67 -108.785 2017.12 -134.147 2017.12 -159.898Z" fill="#EDE9F6"/>
<path d="M1066.64 127.111C1066.64 74.7146 1070.75 15.6958 1079.22 -53.3122C1091.84 -166.79 1107.2 -253.126 1126.19 -317.268C1136.96 -377.967 1149.28 -427.746 1174.52 -473.672C1213.92 -557.587 1322.2 -627.458 1457.11 -656.056C1538.87 -681.77 1609.78 -686.973 1667.88 -671.528C1724.08 -657.281 1779.71 -620.057 1837.96 -557.735C1914.02 -481.483 1958.42 -382.428 1982.27 -312.758C1999.76 -260.991 2008.27 -213.063 2008.27 -166.241C2008.27 -136.043 2004.81 -106.133 1997.68 -74.8014C1989.67 38.088 1909.7 275.603 1835.72 373.332C1773.13 490.298 1711.65 487.38 1618.59 482.959C1586.99 481.458 1551.17 479.756 1510.29 482.411C1478.75 483.589 1449.67 485.118 1424 486.47C1284.49 493.819 1214.45 497.506 1137.9 428.086C1097.6 396.588 1076.32 340.278 1076.32 265.216C1076.32 261.959 1076.36 258.622 1076.44 255.297C1069.84 215.996 1066.64 174.114 1066.64 127.111ZM2009.3 -166.241C2009.3 -213.249 2000.77 -261.346 1983.22 -313.284C1959.32 -383.095 1914.83 -482.346 1838.6 -558.755C1780.24 -621.213 1724.46 -658.529 1668.09 -672.818C1609.84 -688.305 1538.77 -683.1 1456.9 -657.348C1321.74 -628.696 1213.19 -558.584 1173.65 -474.389C1148.34 -428.327 1135.97 -378.411 1125.2 -317.645C1106.21 -253.498 1090.83 -167.07 1078.2 -53.5132C1069.73 15.5568 1065.61 74.6427 1065.61 127.111C1065.61 174.211 1068.82 216.179 1075.42 255.419C1075.32 258.592 1075.28 261.944 1075.28 265.216C1075.28 340.76 1096.74 397.461 1137.33 429.18C1214.14 498.841 1284.29 495.149 1424.05 487.79C1449.71 486.44 1478.79 484.904 1510.33 483.721C1551.17 481.076 1586.97 482.775 1618.56 484.276C1711.96 488.713 1773.66 491.638 1836.52 374.161C1910.58 276.344 1990.69 38.4131 1998.7 -74.5631C2005.82 -105.885 2009.3 -135.917 2009.3 -166.241Z" fill="#EDE9F6"/>
<path d="M1077.06 77.7622C1077.06 36.6764 1079.29 -6.34158 1083.87 -53.7306C1093.13 -162.183 1109.66 -250.693 1133.02 -316.811C1143.69 -365.65 1157.57 -417.532 1186.73 -466.644C1226.6 -546.414 1330.52 -614.685 1457.95 -644.856C1539.16 -673.7 1606.23 -681.324 1663.07 -668.171C1718.45 -656.166 1773.19 -620.964 1830.43 -560.561C1892.14 -499.818 1944.34 -410.315 1977.44 -308.528C1992.93 -260.262 2000.46 -215.471 2000.46 -171.598C2000.46 -137.124 1995.83 -102.791 1986.32 -66.6303C1976.53 41.7602 1900.51 264.013 1829.01 359.456C1768.08 472.928 1708.16 472.454 1617.44 471.734C1588.63 471.505 1555.96 471.247 1519.14 474.56C1490.51 476.207 1463.89 478.107 1440.4 479.793C1306.01 489.434 1238.56 494.27 1164.18 428.743C1110.33 388.887 1097.25 314.946 1095.76 259.932L1095.74 259.766C1083.17 205.224 1077.06 145.688 1077.06 77.7622ZM2001.49 -171.598C2001.49 -215.647 1993.94 -260.6 1978.4 -309.032C1945.23 -411.03 1892.91 -500.724 1831.08 -561.591C1773.71 -622.136 1718.81 -657.425 1663.25 -669.473C1606.27 -682.656 1539.03 -675.026 1457.72 -646.14C1330.06 -615.917 1225.88 -547.423 1185.88 -467.399C1156.65 -418.153 1142.73 -366.132 1132.05 -317.258C1108.68 -251.105 1092.11 -162.464 1082.85 -53.8871C1078.25 -6.4508 1076.02 36.6118 1076.02 77.7622C1076.02 145.787 1082.14 205.418 1094.73 260.061C1096.24 315.4 1109.43 389.744 1163.62 429.861C1238.26 495.611 1305.83 490.765 1440.45 481.114C1463.94 479.43 1490.56 477.518 1519.2 475.881C1556 472.563 1588.63 472.824 1617.43 473.057C1708.48 473.77 1768.63 474.25 1829.81 360.283C1901.38 264.75 1977.53 42.1054 1987.32 -66.3447C1996.85 -102.506 2001.49 -136.982 2001.49 -171.598Z" fill="#EDE9F6"/>
<path d="M1084 32.7002C1084 4.6339 1085.09 -24.7434 1087.23 -54.6247C1093.61 -160.276 1111.39 -250.826 1138.64 -316.5C1154.74 -377.273 1172.43 -420.033 1197.85 -459.573C1217.74 -496.756 1252.19 -532.42 1297.51 -562.751C1343.1 -593.263 1398.67 -617.687 1458.23 -633.378C1537.88 -665.005 1603.23 -675.187 1658.08 -664.519C1712.73 -654.791 1766.7 -621.659 1823.05 -563.232C1887.25 -501.317 1940.51 -409.421 1973.03 -304.453C1986.81 -259.412 1993.51 -217.548 1993.51 -176.469C1993.51 -138.061 1987.59 -99.6118 1975.4 -58.9151C1963.65 45.9389 1890.79 252.623 1822.45 344.566C1762.98 454.534 1704.38 456.608 1615.68 459.743C1589.71 460.665 1560.27 461.702 1527.53 465.558C1501.93 467.604 1478.9 469.744 1456.64 471.815C1326.89 483.869 1261.77 489.923 1189.31 428.318C1134.81 390.303 1118.17 317.808 1113.8 263.689L1113.77 263.522C1094.02 195.693 1084 118.034 1084 32.7002ZM1994.55 -176.469C1994.55 -217.714 1987.82 -259.737 1974 -304.935C1941.4 -410.129 1888.02 -502.226 1823.69 -564.27C1767.2 -622.839 1713.07 -656.062 1658.23 -665.825C1603.23 -676.523 1537.72 -666.329 1457.97 -634.657C1398.37 -618.953 1342.7 -594.487 1297.03 -563.915C1251.56 -533.488 1216.98 -497.677 1197.02 -460.36C1171.55 -420.736 1153.8 -377.854 1137.69 -317.019C1110.41 -251.283 1092.59 -160.554 1086.2 -54.7339C1084.06 -24.8278 1082.97 4.59411 1082.97 32.7002C1082.97 118.156 1093 195.944 1112.78 263.907C1117.19 318.332 1133.95 391.199 1188.77 429.44C1261.49 491.268 1326.74 485.208 1456.72 473.131C1478.98 471.06 1501.99 468.92 1527.62 466.872C1560.34 463.018 1589.76 461.98 1615.72 461.064C1704.73 457.916 1763.53 455.835 1823.25 345.395C1854.47 303.402 1890.11 231.382 1920.99 147.888C1949.99 69.4789 1970.7 -7.70839 1976.4 -58.5923C1988.6 -99.2939 1994.55 -137.898 1994.55 -176.469Z" fill="#EDE9F6"/>
<path d="M1090.08 -4.11594C1090.08 -20.7462 1090.49 -37.7886 1091.28 -54.774C1095.07 -160.183 1113.61 -250.354 1144.9 -315.559C1162.22 -370.441 1182.14 -412.47 1209.54 -451.929C1251.09 -524.412 1344.25 -587.755 1458.79 -621.415C1536.78 -655.885 1600.33 -668.626 1653.13 -660.384C1706.99 -652.952 1760.11 -621.874 1815.53 -565.378C1882.15 -502.276 1936.41 -407.943 1968.33 -299.743C1980.6 -257.598 1986.56 -218.38 1986.56 -179.847C1986.56 -137.764 1979.24 -95.442 1964.17 -50.4556C1950.71 48.6059 1879.61 243.801 1815.75 330.6C1757.69 437.29 1700.35 442.046 1613.56 449.225C1590.62 451.127 1564.6 453.275 1536.12 457.536C1513.76 459.895 1493.41 462.282 1473.74 464.591C1352.44 478.8 1285.63 486.63 1215.03 428.842C1159.98 392.676 1139.78 321.594 1132.52 268.323C1104.35 187.687 1090.08 96.0779 1090.08 -4.11594ZM1987.6 -179.847C1987.6 -218.536 1981.61 -257.908 1969.3 -300.203C1937.31 -408.641 1882.93 -503.183 1816.17 -566.421C1760.6 -623.066 1707.31 -654.236 1653.25 -661.693C1600.3 -669.962 1536.59 -657.201 1458.5 -622.679C1343.78 -588.969 1250.39 -525.44 1208.74 -452.756C1181.28 -413.227 1161.3 -371.079 1143.98 -316.15C1112.64 -250.858 1094.04 -160.466 1090.25 -54.8485C1089.45 -37.8383 1089.05 -20.7636 1089.05 -4.11594C1089.05 96.2641 1103.34 188.05 1131.54 268.708C1138.8 322.113 1159.13 393.6 1214.52 429.985C1285.37 487.983 1352.31 480.141 1473.83 465.905C1493.51 463.598 1513.85 461.214 1536.23 458.842C1564.7 454.586 1590.69 452.438 1613.63 450.543C1700.72 443.332 1758.26 438.567 1816.56 331.427C1846.81 290.31 1880.12 223.818 1910.32 144.27C1938.06 71.1661 1958.56 -1.49359 1965.16 -50.0881C1980.25 -95.0919 1987.6 -137.583 1987.6 -179.847Z" fill="#EDE9F6"/>
<path d="M1095.29 -34.3535C1095.29 -41.4736 1095.37 -48.7028 1095.53 -55.8377C1096.81 -161.449 1116.1 -251.183 1151.33 -315.338C1169.55 -364.324 1191.79 -405.463 1221.36 -444.908C1263.42 -513.17 1352.37 -574.845 1459.34 -609.934C1536.7 -647.802 1596.66 -662.658 1648.09 -656.704C1701.11 -651.597 1753.35 -622.596 1807.82 -568.048C1875.85 -504.742 1932.52 -405.503 1963.35 -295.762C1974.3 -256.27 1979.62 -219.484 1979.62 -183.306C1979.62 -137.183 1971.06 -92.577 1952.68 -42.9205C1937.44 50.8658 1869.93 231.522 1808.87 315.419C1752.09 419.013 1695.85 426.594 1610.72 438.072C1591.01 440.732 1568.68 443.745 1544.67 448.197C1525.79 450.758 1508.37 453.28 1491.53 455.727C1374.31 472.727 1309.74 482.098 1240.87 428.081C1185.34 393.813 1161.57 324.179 1151.4 271.795C1114.67 181.317 1095.29 75.4919 1095.29 -34.3535ZM1980.65 -183.306C1980.65 -219.638 1975.31 -256.568 1964.32 -296.204C1933.43 -406.191 1876.61 -505.655 1808.44 -569.1C1753.82 -623.799 1701.4 -652.89 1648.18 -658.017C1596.6 -663.99 1536.48 -649.11 1459.02 -611.187C1351.9 -576.051 1262.74 -514.204 1220.58 -445.769C1190.96 -406.272 1168.66 -365.021 1150.44 -316C1115.14 -251.722 1095.78 -161.735 1094.5 -55.87C1094.34 -48.7301 1094.26 -41.4884 1094.26 -34.3535C1094.26 75.7078 1113.68 181.729 1150.44 272.252C1160.62 324.772 1184.53 394.779 1240.37 429.24C1309.5 483.455 1374.2 474.074 1491.64 457.037C1508.48 454.593 1525.9 452.064 1544.8 449.508C1568.81 445.055 1591.13 442.043 1610.82 439.385C1654.83 433.451 1689.58 428.768 1721.34 412.448C1755.62 394.828 1782.87 365.162 1809.67 316.247C1838.48 276.664 1870.36 213.904 1899.4 139.584C1925.86 71.8412 1946.14 3.77288 1953.65 -42.5011C1972.06 -92.1948 1980.65 -136.982 1980.65 -183.306Z" fill="#EDE9F6"/>
<path d="M1098.77 -65.0141C1098.77 -167.34 1118.86 -253.661 1156.9 -314.641C1176.18 -358.932 1199.47 -396.784 1232.45 -437.457C1275.14 -501.596 1360.03 -561.629 1459.58 -598.099C1535.37 -638.955 1593.66 -656.288 1643.08 -652.681C1694.6 -649.949 1747.53 -622.245 1800.43 -570.333C1870.94 -505.891 1928.72 -404.192 1958.95 -291.299C1968.77 -254.197 1973.54 -219.605 1973.54 -185.552C1973.54 -136.167 1963.44 -88.2646 1941.75 -34.8065C1924.12 56.8285 1860.76 219.808 1802.29 300.978C1746.48 401.867 1693.94 411.945 1606.88 428.646C1589.91 431.906 1572.35 435.273 1553.05 439.642C1537.93 442.213 1523.72 444.736 1509.98 447.162C1396.19 467.339 1333.51 478.449 1266.01 428.083C1209.94 395.714 1182.54 327.493 1169.41 275.958C1123.4 176.17 1099 61.3093 1098.81 -56.3302C1098.78 -59.248 1098.77 -62.1335 1098.77 -65.0141ZM1974.58 -185.552C1974.58 -219.751 1969.79 -254.482 1959.93 -291.721C1929.63 -404.872 1871.71 -506.806 1801.05 -571.39C1748 -623.456 1694.86 -651.254 1643.13 -653.996C1593.55 -657.616 1535.12 -640.25 1459.24 -599.339C1359.56 -562.83 1274.48 -502.638 1231.69 -438.357C1198.67 -397.637 1175.33 -359.691 1156.04 -315.373C1117.91 -254.246 1097.73 -167.643 1097.73 -65.0141C1097.73 -62.1286 1097.75 -59.238 1097.78 -56.3202C1097.97 61.5476 1122.41 176.637 1168.47 276.496C1181.62 328.158 1209.17 396.714 1265.53 429.249C1333.3 479.816 1396.11 468.679 1510.12 448.475C1523.86 446.036 1538.06 443.52 1553.21 440.945C1572.52 436.571 1590.07 433.211 1607.04 429.951C1650.53 421.607 1684.88 415.015 1716.18 397.694C1749.94 379.021 1776.74 349.449 1803.1 301.799C1830.52 263.741 1861.03 204.678 1888.95 135.557C1914.16 73.1642 1934.26 9.64519 1942.71 -34.3475C1964.44 -87.8527 1974.58 -135.949 1974.58 -185.552Z" fill="#EDE9F6"/>
<path d="M1102.23 -79.7007C1102.23 -176.469 1123.23 -257.524 1162.94 -314.103C1182.55 -352.832 1207.52 -388.647 1243.96 -430.307C1287.32 -490.484 1368.09 -548.949 1460.06 -586.745C1535.21 -631.309 1590.11 -650.565 1638.13 -649.212C1688.84 -648.805 1740.93 -623.188 1792.97 -573.076C1865.93 -507.428 1924.75 -403.15 1954.37 -286.958C1963.18 -251.991 1967.46 -219.359 1967.46 -187.205C1967.46 -134.655 1955.76 -83.5923 1930.64 -26.5098C1911.27 59.3039 1851.1 209.109 1795.65 287.1C1740.51 385.947 1688.26 399.258 1601.7 421.324C1588.94 424.582 1575.73 427.94 1561.59 431.817C1550.62 434.136 1540.06 436.416 1529.91 438.606C1419.05 462.54 1357.98 475.719 1291.56 428.804C1235.06 398.32 1204.02 331.427 1187.91 280.683C1135.08 177.822 1105.61 61.2138 1102.63 -56.669C1102.37 -64.3926 1102.23 -72.1411 1102.23 -79.7007ZM1968.5 -187.205C1968.5 -219.498 1964.2 -252.259 1955.36 -287.366C1925.67 -403.823 1866.7 -508.347 1793.58 -574.142C1741.38 -624.415 1689.08 -650.121 1638.15 -650.531C1589.97 -651.887 1534.93 -632.593 1459.68 -587.972C1367.61 -550.137 1286.67 -491.537 1243.23 -431.243C1206.76 -389.548 1181.74 -353.652 1162.12 -314.9C1122.28 -258.158 1101.2 -176.799 1101.2 -79.7007C1101.2 -72.1212 1101.33 -64.3554 1101.6 -56.612C1104.57 61.4943 1134.11 178.346 1187 281.286C1203.13 332.158 1234.33 399.353 1291.11 429.989C1357.8 477.103 1418.99 463.891 1530.08 439.91C1540.24 437.72 1550.79 435.44 1561.79 433.113C1575.94 429.231 1589.14 425.869 1601.9 422.62C1645.23 411.571 1679.44 402.857 1710.47 384.315C1743.9 364.336 1770.42 334.611 1796.46 287.922C1851.96 209.864 1912.23 59.8081 1931.59 -26.0057C1956.76 -83.1528 1968.5 -134.421 1968.5 -187.205Z" fill="#EDE9F6"/>
<path d="M1105.71 -91.2516C1105.71 -183.833 1127.66 -260.69 1169.2 -313.517C1192.25 -352.787 1220.42 -385.664 1255.64 -422.965C1300.42 -480.095 1375.12 -535.502 1460.6 -575.023C1510.06 -607.167 1574.31 -644.17 1633.17 -645.3C1683.03 -647.239 1734.25 -623.746 1785.41 -575.472C1859.68 -509.682 1921.06 -400.201 1949.62 -282.599C1957.54 -249.614 1961.39 -218.808 1961.39 -188.426C1961.39 -132.143 1948.43 -79.7308 1919.37 -18.4891C1897.91 62.872 1840.4 199.165 1788.92 272.561C1733.94 370.141 1681.3 387.166 1594.09 415.377C1586.38 417.878 1578.41 420.453 1570.15 423.174C1563.85 424.82 1557.67 426.449 1551.63 428.028C1446.5 455.641 1383.04 472.301 1317.26 428.718C1260.41 400.162 1225.71 334.677 1206.61 284.762C1147.8 180.67 1112.33 59.237 1106.68 -57.2552C1106.03 -68.7214 1105.71 -80.1604 1105.71 -91.2516ZM1962.42 -188.426C1962.42 -218.942 1958.56 -249.874 1950.61 -282.987C1937.22 -338.125 1916.09 -393.2 1889.5 -442.267C1860.03 -496.644 1825.22 -541.821 1786.02 -576.542C1734.67 -624.987 1683.23 -648.568 1633.15 -646.621C1574.08 -645.486 1509.69 -608.408 1460.19 -576.232C1374.63 -536.679 1299.8 -481.158 1254.94 -423.941C1219.7 -386.617 1191.48 -353.681 1168.42 -314.379C1126.73 -261.37 1104.67 -184.191 1104.67 -91.2516C1104.67 -80.1306 1105 -68.6594 1105.65 -57.1658C1108.46 0.920095 1118.42 59.7533 1135.24 117.693C1152.29 176.402 1176 232.837 1205.72 285.438C1224.86 335.464 1259.72 401.235 1316.83 429.915C1382.89 473.689 1446.48 456.992 1551.84 429.327C1557.88 427.733 1564.05 426.114 1570.38 424.463C1578.66 421.726 1586.63 419.154 1594.34 416.659C1681.78 388.376 1734.56 371.303 1789.72 273.386C1841.25 199.915 1898.85 63.4182 1920.3 -17.9378C1949.41 -79.2689 1962.42 -131.887 1962.42 -188.426Z" fill="#EDE9F6"/>
<path d="M1109.18 -101.099C1109.18 -190.477 1132.14 -263.922 1175.58 -313.486C1201.23 -351.259 1233.37 -382.802 1267.41 -416.196C1313.23 -469.648 1383.84 -523.465 1461.17 -563.882C1512.44 -600.341 1572.34 -638.101 1628.17 -641.971C1677.15 -646.274 1727.48 -624.901 1777.78 -578.442C1854.41 -511.542 1916.81 -399.528 1944.72 -278.795C1951.84 -247.628 1955.31 -218.498 1955.31 -189.732C1955.31 -130.545 1940.71 -75.4216 1907.97 -11.0086C1884.48 65.4251 1831.01 186.694 1782.09 257.512C1726.32 355.423 1671.98 376.994 1581.95 412.736L1578.68 414.034L1576 414.896C1471.79 448.408 1408.89 468.641 1343.02 428.115C1285.9 401.509 1247.54 337.417 1225.4 288.331C1159.88 181.674 1119.23 58.5708 1110.88 -58.3812C1109.75 -72.867 1109.18 -87.2362 1109.18 -101.099ZM1956.35 -189.732C1956.35 -218.624 1952.87 -247.877 1945.71 -279.167C1917.74 -400.183 1855.18 -512.465 1778.37 -579.522C1727.88 -626.152 1677.33 -647.609 1628.11 -643.29C1572.07 -639.404 1512.04 -601.565 1460.72 -565.069C1383.34 -524.63 1312.62 -470.721 1266.74 -417.204C1232.7 -383.805 1200.51 -352.224 1174.84 -314.412C1131.22 -264.646 1108.15 -190.864 1108.15 -101.099C1108.15 -87.194 1108.72 -72.7801 1109.85 -58.2546C1118.21 58.9431 1158.95 182.293 1224.55 289.066C1246.72 338.261 1285.25 402.609 1342.61 429.332C1408.77 470.036 1471.82 449.761 1576.25 416.172L1578.96 415.3L1582.26 413.992C1672.49 378.171 1726.95 356.55 1782.9 258.339C1831.86 187.449 1885.41 66.0135 1908.88 -10.4128C1941.69 -74.9276 1956.35 -130.272 1956.35 -189.732Z" fill="#EDE9F6"/>
<path d="M1111.78 -108.338C1111.78 -195.152 1135.8 -265.688 1181.25 -312.329C1204.05 -341.332 1231.89 -366.319 1261.36 -392.774C1266.99 -397.825 1272.72 -402.969 1278.53 -408.246C1326.06 -458.581 1392.65 -510.787 1461.24 -551.496C1511.3 -590.317 1569.59 -630.844 1622.8 -637.357C1670.92 -644.031 1720.4 -624.788 1769.88 -580.152C1848.93 -512.176 1912.4 -397.681 1939.68 -273.878C1946.11 -244.398 1949.23 -216.816 1949.23 -189.562C1949.23 -127.576 1932.94 -69.8941 1896.4 -2.54382C1871.08 68.1757 1821.29 175.28 1775.01 243.339C1721.09 336.701 1667.93 366.95 1586.79 405.686C1492.75 443.038 1431.86 464.122 1368.17 428.306C1310.8 403.657 1268.72 340.983 1243.52 292.744C1171.23 183.7 1125.36 58.9884 1114.32 -58.4962C1112.63 -75.4814 1111.78 -92.2507 1111.78 -108.338ZM1950.27 -189.562C1950.27 -216.938 1947.13 -244.631 1940.68 -274.232C1913.33 -398.334 1849.71 -513.097 1770.47 -581.234C1720.78 -626.054 1671.06 -645.381 1622.7 -638.67C1569.28 -632.132 1510.86 -591.52 1460.75 -552.659C1392.13 -511.936 1325.47 -459.668 1277.9 -409.288C1272.12 -404.043 1266.39 -398.902 1260.76 -393.853C1231.25 -367.363 1203.39 -342.344 1180.56 -313.311C1158.63 -290.808 1141.47 -262.291 1129.59 -228.594C1117.09 -193.122 1110.75 -152.662 1110.75 -108.338C1110.75 -92.1961 1111.61 -75.3747 1113.29 -58.3349C1124.36 59.3978 1170.31 184.358 1242.69 293.536C1267.95 341.881 1310.2 404.783 1367.79 429.534C1431.78 465.521 1492.83 444.388 1587.13 406.932C1668.47 368.106 1721.75 337.778 1775.82 244.158C1822.14 176.049 1872 68.8083 1897.3 -1.89631C1933.92 -69.3806 1950.27 -127.29 1950.27 -189.562Z" fill="#EDE9F6"/>
<path d="M1115.26 -115.271C1115.26 -200.131 1140.36 -268.27 1187.85 -312.31C1208.68 -335.192 1233.23 -354.987 1259.22 -375.947C1269.38 -384.138 1279.89 -392.611 1290.57 -401.575C1327.48 -436.865 1387.2 -489.608 1462.18 -540.601C1513.45 -583.976 1567.81 -625.33 1618.27 -634.353C1665.5 -643.434 1714.12 -626.286 1762.78 -583.388C1844.24 -514.243 1908.77 -397.11 1935.39 -270.04C1941.12 -242.468 1944.02 -215.531 1944.02 -189.987C1944.02 -125.186 1926.01 -64.9779 1885.6 5.23684C1860.81 64.7419 1815.36 158.933 1768.73 228.83C1717.71 315.913 1668.58 355.2 1595.74 397.247C1507.6 440.922 1452.22 457.738 1394.21 428.427C1336.68 405.699 1290.86 344.364 1262.55 296.905C1183.51 185.423 1132.44 58.914 1118.71 -59.3711C1116.42 -78.5207 1115.26 -97.3277 1115.26 -115.271ZM1945.06 -189.987C1945.06 -215.645 1942.14 -242.694 1936.39 -270.378C1924.04 -329.324 1902.56 -388.603 1874.28 -441.811C1843.54 -499.645 1805.18 -548.979 1763.36 -584.478C1714.48 -627.569 1665.62 -644.792 1618.12 -635.659C1567.47 -626.599 1512.98 -585.163 1461.66 -541.734C1386.65 -490.733 1326.89 -437.947 1289.97 -402.653C1279.33 -393.718 1268.83 -385.251 1258.67 -377.059C1232.65 -356.077 1208.06 -336.257 1187.21 -313.345C1164.29 -292.095 1146.36 -264.803 1133.94 -232.255C1120.86 -197.973 1114.22 -158.616 1114.22 -115.271C1114.22 -97.2607 1115.39 -78.3891 1117.69 -59.1773C1131.45 59.3635 1182.61 186.116 1261.75 297.746C1290.13 345.313 1336.12 406.856 1393.87 429.664C1422.65 444.215 1452.27 447.751 1487.06 440.78C1522.01 433.773 1560.14 416.302 1596.14 398.463C1669.16 356.31 1718.4 316.928 1769.53 229.647C1816.2 159.711 1861.7 65.4198 1886.47 5.93457C1926.98 -64.4365 1945.06 -124.888 1945.06 -189.987Z" fill="#EDE9F6"/>
<path d="M1117.86 -120.856C1117.86 -204.006 1144.06 -269.933 1193.63 -311.512C1213 -329.812 1235.28 -345.693 1258.87 -362.507C1272.78 -372.421 1287.17 -382.671 1301.75 -393.984C1311.43 -402.245 1321.5 -410.925 1331.96 -419.935C1370.88 -453.459 1414.98 -491.452 1462.26 -528.579C1519.96 -581.714 1567.64 -619.295 1612.83 -630.082C1659.15 -641.563 1706.9 -626.543 1754.74 -585.431C1837.35 -516.276 1904.56 -393.679 1930.15 -265.481C1935.32 -239.339 1937.95 -213.776 1937.95 -189.505C1937.95 -121.127 1918.78 -60.4684 1873.85 13.3242C1860.77 40.1856 1814.11 133.882 1761.51 214.287C1715.27 291.807 1669.58 342.279 1603.78 388.53C1544.89 425.409 1481.78 455.752 1419.38 428.216C1373.77 411.774 1325.84 367.766 1280.73 300.934C1194.97 187.267 1138.71 59.1412 1122.29 -59.8506C1119.35 -80.8508 1117.86 -101.375 1117.86 -120.856ZM1938.98 -189.505C1938.98 -213.882 1936.35 -239.555 1931.15 -265.804C1919.14 -325.978 1897.55 -386.614 1868.71 -441.166C1837.41 -500.368 1798.2 -550.632 1755.32 -586.528C1707.24 -627.839 1659.24 -642.928 1612.64 -631.375C1567.26 -620.548 1519.48 -582.888 1461.68 -529.676C1414.42 -492.561 1370.3 -454.558 1331.38 -421.027C1320.93 -412.019 1310.85 -403.342 1301.2 -395.096C1286.65 -383.813 1272.27 -373.567 1258.37 -363.659C1234.75 -346.82 1212.44 -330.919 1193.04 -312.591C1169.12 -292.529 1150.4 -266.377 1137.43 -234.875C1123.76 -201.689 1116.83 -163.328 1116.83 -120.856C1116.83 -101.298 1118.32 -80.6945 1121.27 -59.6197C1137.72 59.6251 1194.08 187.992 1279.97 301.817C1325.19 368.818 1373.3 412.977 1419.07 429.474C1446.47 441.568 1475.25 443.573 1507.01 435.571C1534.4 428.677 1565.3 414.104 1604.26 389.699C1670.22 343.336 1716 292.762 1762.32 215.106C1814.95 134.663 1861.64 40.8977 1874.7 14.076C1919.75 -59.9077 1938.98 -120.812 1938.98 -189.505Z" fill="#EDE9F6"/>
<path d="M1120.47 -125.893C1120.47 -206.527 1148.55 -272.277 1199.53 -311.032C1217.77 -325.782 1238.38 -338.608 1260.21 -352.189C1277.43 -362.903 1295.23 -373.982 1313.16 -386.798C1356.23 -419.317 1402.78 -462.083 1452.07 -507.354L1462.69 -517.107C1510.08 -564.559 1560.32 -612.077 1607.89 -626.462C1653.33 -640.375 1700.25 -627.462 1747.33 -588.077C1832.39 -517.809 1900.73 -392.555 1925.68 -261.191C1930.37 -236.353 1932.74 -212.043 1932.74 -188.935C1932.74 -99.5404 1897.4 -32.4227 1862.83 21.4369C1843 56.1303 1802.64 125.418 1754.92 199.985C1716.95 262.314 1673.4 327.28 1612.3 380.241C1548.62 431.864 1495.41 447.19 1444.87 428.461C1398.56 413.333 1349.53 371.893 1299.12 305.286C1206.56 189.393 1145.05 59.5312 1125.93 -60.3788C1122.3 -83.0352 1120.47 -105.076 1120.47 -125.893ZM1933.77 -188.935C1933.77 -212.145 1931.39 -236.561 1926.69 -261.501C1901.67 -393.18 1833.16 -518.74 1747.9 -589.182C1700.57 -628.773 1653.38 -641.748 1607.65 -627.748C1559.87 -613.298 1509.53 -565.689 1462.07 -518.164L1451.46 -508.426C1402.2 -463.168 1355.66 -420.424 1312.64 -387.942C1294.75 -375.148 1276.96 -364.08 1259.75 -353.376C1237.9 -339.775 1217.26 -326.934 1198.99 -312.154C1174.03 -293.181 1154.5 -268.045 1140.95 -237.447C1126.67 -205.204 1119.43 -167.674 1119.43 -125.893C1119.43 -104.992 1121.28 -82.859 1124.91 -60.1181C1144.08 60.0451 1205.69 190.15 1298.39 306.217C1348.92 372.988 1398.12 414.552 1444.59 429.739C1495.43 448.568 1548.9 433.195 1612.87 381.341C1674.1 328.268 1717.72 263.213 1755.73 200.807C1803.46 126.225 1843.83 56.9172 1863.65 22.2462C1898.32 -31.7673 1933.77 -99.1209 1933.77 -188.935Z" fill="#EDE9F6"/>
<path d="M1123.07 -130.299C1123.07 -209.793 1152.33 -273.745 1205.46 -310.375C1222.76 -322.258 1242.04 -332.6 1262.46 -343.55C1282.73 -354.418 1303.69 -365.658 1324.58 -379.408C1365.12 -406.089 1406.55 -443.767 1463.11 -505.392C1511.13 -557.637 1557.95 -605.907 1602.91 -622.556C1647.46 -638.906 1693.54 -628.105 1739.87 -590.449C1827.36 -519.095 1896.82 -391.224 1921.13 -256.738C1925.38 -233.133 1927.53 -210.004 1927.53 -187.99C1927.53 -95.2354 1889.21 -25.9367 1851.73 29.6144C1845.62 38.6504 1839.34 47.8848 1832.9 57.3478C1807.24 95.0728 1778.15 137.827 1748.27 185.67C1741.19 197.003 1733.97 208.789 1726.99 220.191C1694.36 273.438 1660.63 328.495 1620.8 371.895C1573.81 423.04 1520.39 443.19 1470.37 428.63C1424.08 415.037 1372.66 374.996 1317.54 309.614C1218.19 191.576 1151.44 60.0238 1129.59 -60.8219C1125.27 -84.9558 1123.07 -108.333 1123.07 -130.299ZM1928.56 -187.99C1928.56 -210.101 1926.4 -233.331 1922.14 -257.033C1897.77 -391.845 1828.14 -520.028 1740.43 -591.561C1693.83 -629.43 1647.47 -640.283 1602.62 -623.822C1557.46 -607.099 1510.54 -558.734 1462.44 -506.395C1405.94 -444.839 1364.57 -407.211 1324.11 -380.582C1303.25 -366.854 1282.31 -355.624 1262.06 -344.764C1241.62 -333.804 1222.31 -323.45 1204.96 -311.532C1178.95 -293.596 1158.6 -269.413 1144.47 -239.641C1129.59 -208.269 1122.04 -171.482 1122.04 -130.299C1122.04 -108.233 1124.24 -84.7572 1128.58 -60.5265C1139.46 -0.353185 1161.53 62.7023 1194.19 126.897C1226.58 190.576 1267.84 252.37 1316.83 310.58C1372.09 376.118 1423.67 416.268 1470.14 429.919C1520.49 444.572 1574.23 424.323 1621.47 372.895C1661.38 329.414 1695.15 274.299 1727.81 221.002C1734.79 209.603 1742 197.822 1749.08 186.5C1778.94 138.666 1808.02 95.9267 1833.68 58.2091C1840.12 48.7537 1846.41 39.5092 1852.52 30.4758C1890.13 -25.264 1928.56 -94.8034 1928.56 -187.99Z" fill="#EDE9F6"/>
<path d="M1136.09 -132.024C1136.09 -211.169 1164.01 -274.126 1214.71 -309.299C1232.67 -321.768 1252.47 -332.309 1273.44 -343.465C1292.11 -353.397 1311.41 -363.667 1330.85 -376.075C1339.94 -381.928 1349.39 -388.567 1358.94 -395.808C1390.58 -419.819 1423.78 -450.705 1466.6 -495.951C1513.61 -545.478 1559.44 -591.221 1603.47 -606.78C1647.01 -622.053 1691.9 -611.351 1736.9 -574.974C1788.8 -533.08 1832.86 -471.955 1864.33 -398.211C1884.86 -351.13 1900.19 -299.158 1908.68 -247.9C1912.55 -225.337 1914.51 -203.161 1914.51 -181.995C1914.51 -125.124 1900.89 -72.4462 1871.64 -16.2251C1863.58 -0.835248 1854.22 15.0638 1843.02 32.3706C1834.3 46.0397 1825.27 59.9771 1815.72 74.7363C1794.3 107.823 1770.03 145.312 1745.17 185.996C1741.13 192.663 1737.07 199.387 1732.99 206.151C1705.24 252.145 1676.54 299.71 1643.81 340.193C1636.04 349.813 1628.22 358.809 1620.57 366.923C1574.66 415.842 1522.42 435.063 1473.48 421.054C1427.82 407.913 1377.47 369.374 1323.8 306.523C1287.52 264.679 1254.72 217.173 1226.29 165.328C1206.32 129.328 1188.88 91.683 1174.46 53.4417C1160.01 15.034 1149.88 -21.8541 1142.56 -62.658C1138.27 -86.6591 1136.09 -110 1136.09 -132.024ZM1915.54 -181.995C1915.54 -203.255 1913.58 -225.526 1909.7 -248.179C1901.19 -299.558 1885.81 -351.659 1865.23 -398.845C1833.68 -472.782 1789.5 -534.076 1737.46 -576.089C1692.2 -612.674 1647.03 -623.426 1603.19 -608.051C1558.97 -592.423 1513.03 -546.591 1465.93 -496.967C1423.16 -451.766 1390 -420.916 1358.41 -396.94C1348.88 -389.717 1339.46 -383.092 1330.39 -377.252C1310.98 -364.867 1291.7 -354.607 1273.05 -344.684C1252.05 -333.513 1232.22 -322.96 1214.22 -310.456C1163.17 -275.043 1135.06 -211.673 1135.06 -132.024C1135.06 -109.9 1137.25 -86.4654 1141.55 -62.3699C1148.89 -21.4668 1159.05 15.5182 1173.53 54.0128C1187.97 92.3211 1205.44 130.026 1225.45 166.087C1253.91 218.008 1286.77 265.59 1323.11 307.502C1376.9 370.506 1427.42 409.145 1473.26 422.342C1522.52 436.439 1575.07 417.123 1621.24 367.939C1628.9 359.799 1636.74 350.784 1644.52 341.142C1677.31 300.594 1706.03 252.994 1733.81 206.956C1737.89 200.192 1741.94 193.465 1745.99 186.806C1770.84 146.136 1794.06 110.266 1816.51 75.573C1826.07 60.8163 1835.1 46.879 1843.82 33.2073C1855.04 15.8633 1864.42 -0.0654412 1872.49 -15.4926C1901.87 -71.9421 1915.54 -124.848 1915.54 -181.995Z" fill="#EDE9F6"/>
<path d="M1149.12 -134.292C1149.12 -212.945 1175.67 -274.812 1223.89 -308.494C1242.52 -321.586 1262.85 -332.297 1284.37 -343.64C1301.39 -352.612 1319 -361.887 1336.9 -372.952C1345.73 -378.497 1354.96 -384.803 1364.32 -391.696C1395.38 -414.554 1427.88 -443.826 1469.71 -486.609C1515.65 -533.375 1560.45 -576.548 1603.5 -591.002C1645.99 -605.178 1689.65 -594.59 1733.27 -559.521C1784.72 -518.403 1826.95 -458.424 1855.39 -386.073C1874.16 -340.481 1887.6 -291.137 1895.36 -239.399C1898.85 -217.918 1900.61 -196.75 1900.61 -176.482C1900.61 -120.868 1887.81 -68.9805 1860.32 -13.1802C1852.76 1.9783 1843.99 17.5834 1833.52 34.5334C1821.52 54.5007 1808.75 75.2398 1795.23 97.1897C1778.03 125.115 1760.25 153.985 1741.39 185.582L1739.39 188.959C1709.6 239.539 1678.8 291.833 1642.63 335.448C1635.03 344.634 1627.35 353.251 1619.81 361.04C1575.01 407.679 1524.02 425.962 1476.23 412.511C1431.24 399.833 1382 362.847 1329.87 302.587C1294.24 262.692 1263.12 216.701 1234.73 161.985C1216.04 126.79 1199.93 90.2568 1185.47 50.3049C1172.41 14.0475 1163.45 -20.4405 1155.53 -65.0054C1151.27 -88.8758 1149.12 -112.186 1149.12 -134.292ZM1901.65 -176.482C1901.65 -196.839 1899.88 -218.094 1896.38 -239.657C1888.6 -291.512 1875.12 -340.98 1856.31 -386.673C1827.79 -459.23 1785.43 -519.393 1733.82 -560.64C1689.95 -595.905 1646.02 -606.552 1603.23 -592.277C1560 -577.759 1515.1 -534.494 1469.06 -487.637C1427.28 -444.898 1394.81 -415.66 1363.8 -392.837C1354.46 -385.959 1345.25 -379.669 1336.44 -374.135C1318.57 -363.091 1300.98 -353.821 1283.97 -344.858C1262.43 -333.506 1242.07 -322.777 1223.39 -309.65C1199.68 -293.087 1181.07 -269.607 1168.09 -239.855C1154.81 -209.437 1148.08 -173.919 1148.08 -134.292C1148.08 -112.089 1150.25 -88.6799 1154.52 -64.7126C1162.46 -20.051 1171.44 14.514 1184.53 50.8557C1199.01 90.8747 1215.15 127.467 1233.87 162.719C1262.31 217.53 1293.49 263.605 1329.18 303.57C1381.44 363.983 1430.84 401.074 1476 413.798C1524.11 427.339 1575.42 408.967 1620.46 362.062C1628.02 354.251 1635.71 345.616 1643.34 336.403C1679.57 292.717 1710.4 240.373 1740.22 189.746L1742.21 186.381C1761.06 154.799 1778.85 125.926 1796.04 98.0036C1809.57 76.0488 1822.34 55.3121 1834.34 35.3398C1844.82 18.3675 1853.61 2.72768 1861.19 -12.473C1888.79 -68.4941 1901.65 -120.61 1901.65 -176.482Z" fill="#EDE9F6"/>
<path d="M1162.14 -136.76C1162.14 -213.872 1188.02 -276.324 1233.15 -308.106C1252.55 -321.902 1273.43 -332.781 1295.55 -344.301C1310.94 -352.318 1326.84 -360.603 1343.17 -370.362C1351.76 -375.624 1360.78 -381.609 1369.96 -388.153C1400.47 -409.896 1432.3 -437.609 1473.19 -478.012C1518.12 -522.104 1561.94 -562.791 1604.05 -576.172C1645.55 -589.279 1688.03 -578.775 1730.3 -544.961C1781.37 -504.54 1821.81 -445.596 1847.27 -374.494C1864.02 -331.044 1876 -282.83 1882.91 -231.176C1886.02 -210.766 1887.59 -190.598 1887.59 -171.22C1887.59 -116.743 1875.59 -65.5107 1849.82 -9.98016C1842.74 4.98319 1834.56 20.3316 1824.81 36.9371C1808.33 66.26 1789.98 97.4959 1770.56 130.565C1760.16 148.256 1749.42 166.549 1738.28 185.696C1709.72 235.815 1678.76 288.355 1642.03 331.506C1634.56 340.31 1627.01 348.556 1619.59 356.024C1575.86 400.474 1526.05 417.845 1479.35 404.929C1434.99 392.691 1386.81 357.182 1336.14 299.395C1300.84 260.989 1271.34 216.425 1243.29 159.128C1226.15 125.311 1210.86 88.7832 1196.53 47.431C1183.17 8.64266 1176.14 -24.0068 1168.52 -67.2994C1164.29 -91.1194 1162.14 -114.487 1162.14 -136.76ZM1888.63 -171.22C1888.63 -190.68 1887.05 -210.933 1883.92 -231.416C1877 -283.176 1864.99 -331.512 1848.2 -375.06C1822.67 -446.384 1782.09 -505.526 1730.84 -546.081C1688.33 -580.092 1645.59 -590.648 1603.8 -577.449C1561.49 -564.013 1517.58 -523.242 1472.56 -479.06C1431.71 -438.694 1399.91 -411.014 1369.46 -389.305C1360.29 -382.774 1351.3 -376.804 1342.73 -371.552C1326.43 -361.816 1310.53 -353.53 1295.16 -345.523C1273.01 -333.988 1252.1 -323.092 1232.65 -309.262C1187.18 -277.241 1161.1 -214.366 1161.1 -136.76C1161.1 -114.391 1163.26 -90.9232 1167.51 -67.0087C1175.15 -23.6416 1182.19 9.07743 1195.58 47.9652C1209.94 89.3795 1225.25 125.972 1242.41 159.831C1270.52 217.24 1300.09 261.901 1335.46 300.387C1386.25 358.324 1434.59 393.93 1479.13 406.218C1526.15 419.214 1576.26 401.761 1620.24 357.057C1627.67 349.574 1635.24 341.302 1642.73 332.477C1679.53 289.242 1710.52 236.645 1739.12 186.476C1750.25 167.339 1760.99 149.044 1771.39 131.353C1790.82 98.2811 1809.16 67.0401 1825.64 37.7172C1835.41 21.0819 1843.61 5.69621 1850.7 -9.30189C1876.58 -65.0485 1888.63 -116.497 1888.63 -171.22Z" fill="#EDE9F6"/>
<path d="M1174.29 -139.265C1174.29 -215.742 1198.84 -276.981 1241.64 -307.283C1261.87 -321.806 1283.36 -332.804 1306.11 -344.449C1319.86 -351.487 1334.08 -358.766 1348.8 -367.214C1357.15 -372.172 1365.95 -377.822 1374.98 -384.018C1404.96 -404.596 1436.18 -430.695 1476.19 -468.648C1518.4 -508.334 1563.05 -548.109 1604.27 -560.368C1644.83 -572.381 1686.17 -561.992 1727.15 -529.49C1777.89 -489.852 1816.6 -432.053 1839.1 -362.346C1853.85 -321.233 1864.4 -274.246 1870.44 -222.666C1873.18 -203.404 1874.57 -184.313 1874.57 -165.913C1874.57 -112.65 1863.35 -62.1275 1839.27 -6.92086C1832.68 7.80807 1825.07 22.8622 1816.02 39.1129C1792.41 84.1088 1764.53 133.251 1735.01 185.28C1709.62 231.279 1678.61 284.053 1641.14 326.747C1633.8 335.143 1626.38 343.008 1619.06 350.135C1576.35 392.316 1527.66 408.743 1481.98 396.382C1438.2 384.615 1391.02 350.654 1341.76 295.447C1306.54 258.358 1278.58 215.286 1251.07 155.782C1235.28 123.157 1221.2 87.7309 1206.76 44.3039C1193.61 4.42685 1188.09 -27.1213 1181.1 -67.0703L1180.65 -69.6348C1176.43 -93.3927 1174.29 -116.818 1174.29 -139.265ZM1875.61 -165.913C1875.61 -184.393 1874.22 -203.56 1871.46 -222.882C1865.4 -274.563 1854.83 -321.67 1840.04 -362.87C1817.48 -432.818 1778.62 -490.827 1727.69 -530.612C1686.47 -563.305 1644.87 -573.751 1604.04 -561.654C1562.62 -549.336 1517.86 -509.476 1475.57 -469.708C1435.6 -431.792 1404.43 -405.726 1374.49 -385.178C1365.48 -378.996 1356.69 -373.354 1348.37 -368.413C1333.68 -359.978 1319.47 -352.706 1305.72 -345.673C1282.94 -334.013 1261.42 -322.998 1241.14 -308.435C1198 -277.895 1173.26 -216.234 1173.26 -139.265C1173.26 -116.721 1175.4 -93.1966 1179.64 -69.3443L1180.09 -66.7823C1187.09 -26.7737 1192.63 4.82397 1205.81 44.8177C1220.27 88.3117 1234.37 123.785 1250.18 156.46C1277.75 216.098 1305.79 259.269 1341.09 296.45C1390.47 351.796 1437.8 385.852 1481.77 397.673C1527.75 410.113 1576.74 393.6 1619.69 351.183C1627.03 344.036 1634.48 336.139 1641.83 327.728C1679.38 284.949 1710.43 232.103 1735.85 186.044C1765.37 134.015 1793.26 84.8586 1816.88 39.8477C1825.93 23.5895 1833.56 8.50066 1840.17 -6.27293C1864.35 -61.6931 1875.61 -112.419 1875.61 -165.913Z" fill="#EDE9F6"/>
<path d="M1187.32 -141.493C1187.32 -217.314 1210.47 -277.341 1250.84 -306.19C1271.91 -321.511 1293.96 -332.596 1317.3 -344.331C1329.37 -350.4 1341.86 -356.672 1354.87 -363.858C1363.08 -368.589 1371.42 -373.768 1380.38 -379.688C1409.76 -399.111 1440.27 -423.627 1479.3 -459.173C1520.47 -496.252 1564.03 -533.387 1604.3 -544.556C1643.81 -555.482 1683.91 -545.194 1723.49 -513.974C1773.78 -475.078 1810.66 -418.376 1830.14 -349.99C1843.07 -310.749 1851.89 -266.211 1857.11 -213.805C1859.48 -195.723 1860.68 -177.747 1860.68 -160.355C1860.68 -108.222 1850.28 -58.3159 1827.94 -3.30705C1821.85 11.2118 1814.83 25.9889 1806.51 41.8761C1787.09 81.934 1763.87 126.26 1731.21 185.612C1699.27 245.709 1670.28 289.328 1639.96 322.88C1632.78 330.878 1625.49 338.37 1618.29 345.161C1576.71 385.107 1529.28 400.605 1484.72 388.807C1442.23 377.646 1394.89 344.297 1347.85 292.367C1303.37 246.869 1277.29 194.077 1259.54 153.173C1241.19 113.174 1227.59 72.6347 1217.8 41.7867C1206.94 7.22645 1202.28 -20.4133 1196.89 -52.4135C1195.86 -58.5394 1194.79 -64.8614 1193.64 -71.4641C1189.45 -95.2352 1187.32 -118.795 1187.32 -141.493ZM1861.72 -160.355C1861.72 -177.819 1860.51 -195.867 1858.14 -213.996C1852.9 -266.5 1844.06 -311.146 1831.11 -350.469C1811.55 -419.11 1774.52 -476.049 1724.03 -515.099C1684.22 -546.5 1643.85 -556.848 1604.08 -545.842C1563.62 -534.621 1519.96 -497.404 1478.71 -460.251C1439.71 -424.74 1409.24 -400.254 1379.91 -380.86C1370.97 -374.95 1362.64 -369.781 1354.45 -365.065C1341.46 -357.894 1328.98 -351.621 1316.92 -345.558C1293.54 -333.805 1271.46 -322.708 1250.33 -307.337C1209.63 -278.255 1186.28 -217.805 1186.28 -141.493C1186.28 -118.698 1188.42 -95.039 1192.64 -71.1786C1193.78 -64.5784 1194.84 -58.2588 1195.88 -52.1404C1201.28 -20.0782 1205.95 7.6113 1216.84 42.2759C1226.65 73.1711 1240.26 113.768 1258.64 153.826C1276.43 194.822 1302.58 247.745 1347.18 293.38C1394.35 345.447 1441.84 378.892 1484.51 390.096C1529.36 401.98 1577.09 386.396 1618.91 346.219C1626.12 339.408 1633.43 331.896 1640.64 323.878C1671.02 290.242 1700.08 246.553 1732.06 186.357C1764.73 126.993 1787.96 82.6566 1807.38 42.5888C1815.71 26.6892 1822.74 11.8724 1828.86 -2.68625C1851.27 -57.9062 1861.72 -108.003 1861.72 -160.355Z" fill="#EDE9F6"/>
<path d="M1200.34 -144.318C1200.34 -218.18 1222.7 -278.367 1260.14 -305.327C1282.12 -321.489 1304.75 -332.587 1328.72 -344.338C1339.12 -349.442 1349.89 -354.721 1361.16 -360.669C1369.11 -365.093 1377.25 -369.948 1386.04 -375.513C1414.45 -393.514 1445.2 -417.109 1482.8 -449.773C1522.96 -484.206 1565.48 -518.664 1604.87 -528.727C1643.37 -538.558 1682.28 -528.38 1720.52 -498.478C1770.41 -460.368 1805.51 -404.815 1822.01 -337.825C1833.09 -300.74 1840.28 -258.635 1844.64 -205.281C1846.64 -188.459 1847.66 -171.684 1847.66 -155.396C1847.66 -104.399 1838.05 -55.099 1817.43 -0.236434C1811.83 14.0523 1805.41 28.5446 1797.78 44.0566C1778.63 87.0494 1755.84 133.211 1728.1 185.2C1699.67 240.802 1669.82 285.522 1639.36 318.124C1632.33 325.708 1625.17 332.827 1618.08 339.28C1577.58 376.953 1531.34 391.508 1487.86 380.263C1445.97 369.569 1399.73 337.814 1354.15 288.427C1310.39 245.055 1286.11 194.03 1268.12 149.842C1252.08 112.952 1239.78 74.6091 1228.89 38.675C1219.62 7.73047 1215.86 -16.2272 1211.51 -43.9637C1210.04 -53.3746 1208.51 -63.103 1206.67 -73.7669C1202.47 -97.5831 1200.34 -121.318 1200.34 -144.318ZM1848.69 -155.396C1848.69 -171.754 1847.68 -188.593 1845.67 -205.447C1841.3 -258.888 1834.09 -301.1 1822.99 -338.254C1806.42 -405.525 1771.17 -461.33 1721.06 -499.606C1682.6 -529.685 1643.44 -539.917 1604.66 -530.02C1565.09 -519.907 1522.48 -485.372 1482.22 -450.865C1444.66 -418.236 1413.95 -394.668 1385.58 -376.694C1376.8 -371.137 1368.68 -366.291 1360.76 -361.882C1349.5 -355.945 1338.75 -350.67 1328.35 -345.569C1304.34 -333.801 1281.67 -322.683 1259.63 -306.471C1240.3 -292.557 1225.16 -270.741 1214.62 -241.637C1204.6 -213.95 1199.3 -180.296 1199.3 -144.318C1199.3 -121.221 1201.44 -97.3871 1205.66 -73.484C1207.49 -62.8251 1209.02 -53.1041 1210.49 -43.7031C1214.86 -15.9072 1218.62 8.10019 1227.92 39.1464C1238.83 75.1326 1251.14 113.518 1267.21 150.464C1285.24 194.765 1309.6 245.935 1353.5 289.444C1399.2 338.96 1445.59 370.815 1487.65 381.553C1531.42 392.875 1577.96 378.241 1618.68 340.347C1625.79 333.876 1632.98 326.733 1640.02 319.131C1670.56 286.45 1700.48 241.628 1728.96 185.937C1756.72 133.918 1779.52 87.7292 1798.67 44.7339C1806.3 29.2095 1812.74 14.6751 1818.36 0.344151C1839.05 -54.7168 1848.69 -104.195 1848.69 -155.396Z" fill="#EDE9F6"/>
<path d="M1213.36 -146.947C1213.36 -219.901 1234.33 -278.688 1269.45 -304.207C1292.37 -321.268 1314.51 -331.81 1340.14 -344.019C1348.9 -348.188 1357.96 -352.499 1367.46 -357.283C1375.18 -361.415 1383.11 -365.954 1391.71 -371.155C1419.54 -388.003 1449.6 -409.965 1486.3 -440.266C1525.46 -472.09 1566.91 -503.912 1605.43 -512.878C1642.95 -521.618 1680.67 -511.545 1717.55 -482.93C1767.04 -445.569 1800.35 -391.11 1813.87 -325.444C1825.66 -281.068 1829.84 -233.173 1832.17 -196.401C1833.81 -180.908 1834.64 -165.415 1834.64 -150.31C1834.64 -100.335 1825.83 -51.4945 1806.91 3.40119C1801.81 17.4769 1795.97 31.6965 1789.06 46.8492C1770.71 92.1212 1749.76 137.48 1724.99 185.546C1699.3 237.978 1669.49 282.478 1638.76 314.257C1631.88 321.442 1624.84 328.184 1617.86 334.311C1578.47 369.746 1533.41 383.373 1491 372.674C1438.84 359.74 1391.22 318.037 1360.46 285.344C1317.19 243.752 1294.64 194.383 1276.71 147.233C1262.17 111.785 1251.48 75.9634 1240 36.1733C1231.9 7.74396 1228.88 -13.6251 1225.37 -38.3718C1223.74 -49.9187 1222.05 -61.8626 1219.7 -75.581C1215.49 -99.5285 1213.36 -123.541 1213.36 -146.947ZM1835.67 -150.31C1835.67 -165.475 1834.84 -181.027 1833.2 -196.54C1830.87 -233.354 1826.68 -281.353 1814.86 -325.829C1801.28 -391.788 1767.81 -446.522 1718.08 -484.061C1680.98 -512.845 1643.02 -522.978 1605.24 -514.173C1566.54 -505.165 1524.99 -473.274 1485.74 -441.378C1449.08 -411.104 1419.05 -389.169 1391.26 -372.347C1382.68 -367.153 1374.77 -362.624 1367.08 -358.504C1357.59 -353.73 1348.54 -349.419 1339.78 -345.252C1314.1 -333.023 1291.92 -322.466 1268.94 -305.346C1233.49 -279.599 1212.33 -220.383 1212.33 -146.947C1212.33 -123.441 1214.47 -99.335 1218.69 -75.2956C1221.04 -61.6021 1222.72 -49.673 1224.35 -38.136C1227.86 -13.3273 1230.9 8.0939 1239.02 36.6224C1250.52 76.4672 1261.23 112.326 1275.79 147.826C1293.76 195.108 1316.39 244.633 1359.82 286.376C1390.65 319.156 1438.43 360.976 1490.8 373.975C1533.49 384.74 1578.83 371.039 1618.45 335.396C1625.46 329.251 1632.51 322.479 1639.42 315.28C1670.23 283.413 1700.12 238.797 1725.86 186.254C1750.64 138.167 1771.61 92.7713 1789.96 47.482C1796.88 32.3218 1802.73 18.0699 1807.86 3.94462C1826.83 -51.1347 1835.67 -100.149 1835.67 -150.31Z" fill="#EDE9F6"/>
<path d="M1225.51 -150.417C1225.51 -222.373 1245.1 -279.721 1277.91 -303.816C1301.77 -321.831 1324.43 -332.247 1350.65 -344.306C1357.79 -347.589 1365.17 -350.983 1372.91 -354.683C1380.38 -358.524 1388.1 -362.749 1396.51 -367.599C1423.75 -383.303 1453.12 -403.649 1488.94 -431.628C1527.07 -460.88 1567.45 -490.094 1605.12 -497.966C1641.64 -505.627 1678.18 -495.64 1713.7 -468.289C1762.79 -431.638 1794.31 -378.222 1804.85 -313.81C1813.51 -276.16 1816.69 -236.34 1818.8 -188.122C1820.09 -174.073 1820.75 -159.969 1820.75 -146.168C1820.75 -97.0878 1812.73 -48.5292 1795.51 6.64647C1790.91 20.5416 1785.65 34.499 1779.44 49.3011C1762.43 96.0433 1743.32 140.646 1721 185.694C1697.46 236.071 1668.52 279.165 1637.29 310.335C1630.55 317.129 1623.65 323.505 1616.78 329.297C1578.48 362.542 1534.62 375.256 1493.27 365.091C1441.88 352.717 1395.65 313.171 1365.91 282.172C1325.33 244.308 1304 199.706 1284.45 144.386C1271.31 110.242 1261.77 75.3869 1251.67 38.4847L1250.25 33.3088C1243.06 6.68626 1240.66 -12.7874 1237.88 -35.3397C1236.28 -48.3255 1234.63 -61.751 1231.89 -77.8775C1227.66 -102.067 1225.51 -126.471 1225.51 -150.417ZM1821.78 -146.168C1821.78 -160.019 1821.13 -174.172 1819.84 -188.236C1817.72 -236.507 1814.53 -276.411 1805.85 -314.128C1795.26 -378.865 1763.57 -432.582 1714.23 -469.422C1678.49 -496.937 1641.72 -506.983 1604.95 -499.27C1567.1 -491.359 1526.62 -462.075 1488.4 -432.756C1452.62 -404.804 1423.28 -384.484 1396.09 -368.802C1387.68 -363.956 1379.98 -359.745 1372.54 -355.915C1364.81 -352.223 1357.43 -348.826 1350.3 -345.549C1324.03 -333.465 1301.33 -323.031 1277.39 -304.956C1244.26 -280.627 1224.48 -222.853 1224.48 -150.417C1224.48 -126.376 1226.63 -101.876 1230.87 -77.5943C1233.61 -61.5124 1235.26 -48.1068 1236.86 -35.1384C1239.64 -12.524 1242.05 7.01176 1249.27 33.7386L1250.69 38.922C1260.8 75.864 1270.36 110.756 1283.52 144.942C1303.12 200.443 1324.53 245.208 1365.28 283.216C1395.08 314.289 1441.47 353.959 1493.08 366.391C1534.7 376.616 1578.84 363.834 1617.36 330.393C1624.25 324.586 1631.17 318.187 1637.93 311.371C1669.26 280.11 1698.29 236.889 1721.89 186.384C1744.22 141.305 1763.35 96.6521 1780.37 49.89C1786.58 35.0829 1791.85 21.0908 1796.47 7.15091C1813.74 -48.2062 1821.78 -96.9163 1821.78 -146.168Z" fill="#EDE9F6"/>
<path d="M1238.54 -154.012C1238.54 -224.611 1256.75 -280.266 1287.26 -302.881C1312.04 -321.81 1335.14 -331.964 1361.88 -343.723C1367.45 -346.173 1373.22 -348.71 1379.24 -351.424C1386.47 -354.971 1393.98 -358.869 1402.2 -363.352C1428.82 -377.867 1457.49 -396.55 1492.45 -422.157C1529.54 -448.766 1568.84 -475.317 1605.68 -482.071C1641.21 -488.63 1676.55 -478.757 1710.71 -452.728C1759.39 -416.869 1789.11 -364.613 1796.68 -301.603C1803.78 -264.756 1805.19 -226.173 1806.3 -179.559C1807.25 -167.159 1807.72 -154.678 1807.72 -142.412C1807.72 -94.222 1800.49 -45.8732 1784.97 9.74414C1780.86 23.4275 1776.19 37.0935 1770.69 51.5018C1755.3 99.1256 1738.03 142.882 1717.88 185.287C1696.64 233.03 1667.81 275.739 1636.68 305.573C1630.09 311.961 1623.32 317.961 1616.56 323.405C1579.38 354.381 1536.71 366.148 1496.42 356.546C1445.78 344.761 1400.94 307.452 1372.24 278.229C1331.89 241.781 1311.42 197.039 1293.08 141.072C1282.1 110.567 1274.1 79.4892 1265.62 46.584C1264.23 41.1772 1262.82 35.7306 1261.39 30.2295C1254.93 5.00258 1252.99 -13.8518 1250.93 -33.8084C1249.49 -47.7177 1248.01 -62.0987 1244.96 -80.1388C1240.7 -104.621 1238.54 -129.473 1238.54 -154.012ZM1808.76 -142.412C1808.76 -154.717 1808.27 -167.244 1807.33 -179.644C1806.22 -226.292 1804.81 -264.944 1797.69 -301.859C1790.09 -365.221 1760.19 -417.805 1711.23 -453.863C1676.87 -480.051 1641.3 -489.981 1605.53 -483.38C1568.52 -476.59 1529.12 -449.98 1491.94 -423.304C1457.02 -397.722 1428.37 -379.056 1401.79 -364.563C1393.58 -360.09 1386.09 -356.195 1378.88 -352.662C1372.88 -349.954 1367.11 -347.422 1361.54 -344.972C1334.74 -333.19 1311.6 -323.012 1286.74 -304.021C1255.91 -281.167 1237.5 -225.088 1237.5 -154.012C1237.5 -129.379 1239.67 -104.427 1243.95 -79.8584C1246.99 -61.8753 1248.47 -47.5191 1249.9 -33.6396C1251.97 -13.6185 1253.92 5.2955 1260.41 30.6391C1261.84 36.1452 1263.25 41.5868 1264.64 46.9936C1273.12 79.936 1281.14 111.056 1292.13 141.601C1310.53 197.762 1331.1 242.677 1371.62 279.276C1400.39 308.574 1445.38 346.008 1496.23 357.844C1536.79 367.508 1579.72 355.674 1617.12 324.517C1623.9 319.06 1630.69 313.035 1637.31 306.621C1668.54 276.687 1697.47 233.837 1718.77 185.95C1738.94 143.502 1756.24 99.6916 1771.63 52.0454C1777.13 37.6347 1781.82 23.9364 1785.94 10.1984C1801.51 -45.5779 1808.76 -94.068 1808.76 -142.412Z" fill="#EDE9F6"/>
<path d="M1251.56 -157.591C1251.56 -227.701 1267.99 -280.232 1296.64 -301.71C1322.25 -321.536 1344.57 -330.846 1372.83 -342.634C1376.95 -344.347 1381.18 -346.118 1385.58 -347.977C1392.59 -351.24 1399.89 -354.822 1407.9 -358.929C1433.87 -372.259 1461.85 -389.304 1495.97 -412.58C1530.41 -435.533 1570.19 -460.503 1606.22 -466.141C1640.77 -471.604 1674.91 -461.831 1707.7 -437.1C1755.96 -401.998 1783.89 -350.845 1788.48 -289.165C1793.6 -255.518 1793.67 -219.328 1793.74 -181.016L1793.76 -170.628C1794.38 -160.141 1794.7 -149.559 1794.7 -139.129C1794.7 -91.5983 1788.25 -43.124 1774.39 13.4218C1770.79 26.9133 1766.71 40.3081 1761.91 54.3285C1748.14 103.269 1733.16 144.988 1714.73 185.654C1695.34 231.712 1667.41 272.922 1636.07 301.71C1629.62 307.701 1622.99 313.334 1616.33 318.439C1580.28 347.18 1538.81 358.02 1499.57 348.965C1449.69 337.763 1406.25 302.643 1378.6 275.151C1333.96 236.082 1316.15 186.215 1301.73 138.491C1292.51 110.899 1285.8 82.8385 1278.7 53.1392C1276.7 44.7871 1274.68 36.3307 1272.57 27.7501C1266.71 3.5577 1265.28 -14.0752 1263.76 -32.7434C1262.59 -47.2604 1261.37 -62.2714 1258.07 -81.9153C1253.81 -106.488 1251.56 -132.656 1251.56 -157.591ZM1795.73 -139.129C1795.73 -149.592 1795.42 -160.208 1794.79 -170.683L1794.77 -181.019C1794.7 -219.398 1794.63 -255.647 1789.51 -289.356C1784.89 -351.416 1756.78 -402.922 1708.22 -438.242C1675.24 -463.12 1640.88 -472.949 1606.1 -467.45C1569.89 -461.784 1530.01 -436.76 1495.48 -413.744C1461.39 -390.49 1433.44 -373.463 1407.51 -360.158C1399.51 -356.049 1392.23 -352.474 1385.24 -349.226C1380.86 -347.369 1376.62 -345.601 1372.51 -343.888C1344.19 -332.073 1321.81 -322.742 1296.11 -302.845C1267.14 -281.123 1250.53 -228.182 1250.53 -157.591C1250.53 -132.562 1252.79 -106.294 1257.06 -81.6347C1260.34 -62.0678 1261.56 -47.089 1262.74 -32.6019C1264.26 -13.8691 1265.7 3.82334 1271.58 28.1424C1273.69 36.7279 1275.71 45.1769 1277.71 53.5216C1284.82 83.263 1291.53 111.356 1300.77 138.977C1315.25 186.883 1333.13 236.956 1377.99 276.216C1405.71 303.776 1449.3 339.011 1499.39 350.261C1538.88 359.375 1580.61 348.471 1616.88 319.566C1623.55 314.439 1630.21 308.793 1636.68 302.777C1668.14 273.88 1696.18 232.512 1715.63 186.299C1734.08 145.576 1749.1 103.793 1762.87 54.8201C1767.66 40.7972 1771.76 27.3776 1775.37 13.829C1789.27 -42.8633 1795.73 -91.4567 1795.73 -139.129Z" fill="#EDE9F6"/>
<path d="M1263.72 -161.972C1263.72 -230.147 1278.86 -280.709 1305.25 -300.688C1331.61 -321.312 1353.04 -329.682 1382.71 -341.263C1385.5 -342.355 1388.36 -343.471 1391.31 -344.629C1398.12 -347.605 1405.21 -350.861 1413.02 -354.593C1438.33 -366.701 1465.66 -382.087 1499.04 -403.018C1540.56 -428.386 1574.73 -446.117 1606.51 -450.172C1640.13 -454.522 1673.13 -444.868 1704.59 -421.469C1752.5 -387.168 1778.69 -337.181 1780.32 -276.91C1781.84 -262.905 1782.54 -247.534 1782.54 -228.466C1782.54 -214.655 1782.19 -200.635 1781.81 -185.79C1781.61 -177.986 1781.41 -170.067 1781.25 -162.022C1781.59 -153.922 1781.76 -145.733 1781.76 -137.646C1781.76 -89.921 1776.23 -42.372 1763.82 16.5403C1760.77 29.6644 1757.16 43.1307 1753.11 56.5599C1741.29 105.894 1728.07 146.777 1711.49 185.254C1693.82 229.718 1666.75 269.373 1635.24 296.943C1628.91 302.548 1622.39 307.796 1615.86 312.54C1580.89 339.019 1540.56 348.914 1502.28 340.417C1453.07 329.811 1410.97 296.923 1384.32 271.206C1339.76 233.532 1323.57 185.376 1309.63 135.193C1301.85 110.061 1296.24 84.5342 1290.3 57.5023C1287.96 46.8681 1285.54 35.8619 1282.94 24.7118C1277.6 1.33791 1276.63 -15.2806 1275.62 -32.8687C1274.75 -47.7536 1273.87 -63.137 1270.36 -84.1153C1266.01 -109.255 1263.72 -136.173 1263.72 -161.972ZM1783.58 -228.466C1783.58 -247.596 1782.87 -263.025 1781.35 -277.024C1779.71 -337.71 1753.35 -388.078 1705.1 -422.61C1673.46 -446.147 1640.25 -455.864 1606.41 -451.482C1574.48 -447.405 1540.21 -429.635 1498.58 -404.203C1465.23 -383.287 1437.93 -367.916 1412.65 -355.828C1404.86 -352.101 1397.77 -348.845 1390.99 -345.881C1388.06 -344.733 1385.2 -343.612 1382.41 -342.523C1352.67 -330.912 1331.18 -322.52 1304.72 -301.814C1278 -281.597 1262.68 -230.623 1262.68 -161.972C1262.68 -136.079 1264.99 -109.062 1269.35 -83.8375C1272.84 -62.951 1273.72 -47.6123 1274.58 -32.7745C1275.61 -15.112 1276.57 1.571 1281.95 25.0838C1284.54 36.2314 1286.96 47.2277 1289.3 57.857C1295.25 84.9236 1300.87 110.485 1308.66 135.657C1322.65 186.035 1338.93 234.41 1383.72 272.285C1410.44 298.059 1452.69 331.06 1502.11 341.714C1540.62 350.263 1581.2 340.313 1616.39 313.681C1622.93 308.922 1629.48 303.654 1635.83 298.024C1667.48 270.335 1694.67 230.504 1712.4 185.862C1729.01 147.325 1742.26 106.368 1754.09 56.9889C1758.14 43.5747 1761.75 30.0785 1764.82 16.9023C1777.25 -42.1414 1782.79 -89.7994 1782.79 -137.646C1782.79 -145.758 1782.62 -153.967 1782.29 -162.042C1782.44 -170.03 1782.64 -177.948 1782.84 -185.748C1783.22 -200.603 1783.58 -214.632 1783.58 -228.466Z" fill="#EDE9F6"/>
<path d="M1771.52 -265.173C1771.93 -258.467 1772.13 -251.518 1772.13 -243.867C1772.13 -226.145 1771.05 -207.708 1769.92 -188.189C1769.27 -177.032 1768.6 -165.492 1768.11 -153.679C1768.22 -148.803 1768.27 -143.902 1768.27 -139.051C1768.27 -91.2164 1763.46 -42.2199 1752.67 19.8035C1750.12 32.7906 1747.12 45.9863 1743.76 59.0156C1733.88 109.427 1722.8 148.384 1707.82 185.369C1691.85 228.456 1665.71 266.648 1634.21 292.935C1628.04 298.159 1621.66 303.037 1615.25 307.447C1580.99 332.063 1542.93 340.807 1505.2 332.723C1456.78 322.696 1416.15 291.972 1390.59 267.966C1346.21 231.542 1331.6 184.982 1318.31 132.311C1311.76 109.184 1307.11 85.7198 1302.19 60.8876C1299.68 48.253 1297.09 35.1939 1294.17 21.8294C1289.28 -0.966948 1288.77 -16.7745 1288.22 -33.5031C1287.73 -48.6079 1287.22 -64.2267 1283.54 -86.4099C1279.09 -112.357 1276.74 -140.282 1276.74 -167.165C1276.74 -233.211 1290.56 -281.711 1314.66 -300.237C1341.5 -321.583 1361.81 -328.959 1392.55 -340.124L1397.57 -341.947C1404.17 -344.65 1411.04 -347.592 1418.6 -350.949C1443.46 -361.987 1469.27 -375.344 1502.31 -394.257C1542.47 -416.58 1575.59 -432.069 1606.68 -435.103C1639.28 -438.358 1671.04 -428.792 1701.07 -406.676C1747.2 -374.018 1771.57 -326.675 1771.57 -269.749C1771.57 -268.23 1771.56 -266.7 1771.52 -265.173ZM1773.16 -243.867C1773.16 -251.553 1772.96 -258.534 1772.55 -265.206C1772.58 -266.678 1772.61 -268.217 1772.61 -269.749C1772.61 -327.182 1748.05 -374.927 1701.58 -407.823C1671.37 -430.068 1639.42 -439.694 1606.6 -436.419C1575.37 -433.37 1542.16 -417.843 1501.89 -395.464C1468.88 -376.563 1443.09 -363.221 1418.26 -352.193C1410.71 -348.841 1403.85 -345.901 1397.26 -343.208L1392.26 -341.393C1361.44 -330.198 1341.08 -322.802 1314.12 -301.361C1289.71 -282.597 1275.7 -233.682 1275.7 -167.165C1275.7 -140.188 1278.06 -112.168 1282.53 -86.1293C1286.19 -64.0604 1286.69 -48.4987 1287.19 -33.4509C1287.74 -16.6379 1288.26 -0.763397 1293.18 22.1795C1296.09 35.529 1298.68 48.5807 1301.19 61.2128C1306.12 86.0797 1310.78 109.574 1317.33 132.735C1330.19 183.678 1345.42 232.459 1390.01 269.051C1415.63 293.114 1456.41 323.952 1505.03 334.029C1543 342.158 1581.29 333.359 1615.75 308.604C1622.17 304.182 1628.58 299.281 1634.78 294.042C1666.43 267.621 1692.7 229.236 1708.75 185.952C1723.76 148.898 1734.87 109.847 1744.75 59.388C1748.12 46.3686 1751.12 33.1407 1753.68 20.1113C1764.48 -42.0337 1769.3 -91.1146 1769.3 -139.051C1769.3 -143.912 1769.25 -148.828 1769.15 -153.662C1769.63 -165.41 1770.3 -176.94 1770.95 -188.09C1772.09 -207.636 1773.16 -226.095 1773.16 -243.867Z" fill="#EDE9F6"/>
<path d="M1288.89 -172.304C1288.89 -235.715 1301.45 -281.867 1323.33 -298.924C1350.5 -320.818 1369.55 -327.148 1401.1 -337.632L1403.26 -338.349C1409.7 -340.785 1416.37 -343.409 1423.67 -346.375C1447.66 -356.137 1472.82 -367.901 1505.24 -384.514C1538.85 -401.182 1574.4 -416.896 1606.72 -418.999C1638.38 -421.139 1668.96 -411.678 1697.62 -390.88C1740.68 -360.831 1763.45 -317.754 1763.45 -266.294C1763.45 -261.808 1763.27 -257.203 1762.93 -252.606C1762.94 -251.598 1762.94 -250.664 1762.94 -249.718C1762.94 -230.223 1760.95 -209.559 1758.85 -187.685C1757.52 -173.858 1756.14 -159.563 1755.18 -144.638C1755.11 -82.8112 1748.32 -24.9212 1741.69 23.5574C1739.64 36.4119 1737.25 49.3259 1734.56 61.9198C1729.36 96.032 1721.21 140.904 1704.23 185.778C1690.06 226.928 1664.14 264.575 1633.1 289.095C1627.07 293.924 1620.82 298.429 1614.52 302.483C1581.43 324.841 1544.52 332.671 1507.78 325.149C1460.03 315.705 1420.8 287.176 1396.29 264.906C1352.03 229.778 1338.39 182.925 1326.27 129.77C1320.77 108.398 1316.95 86.7351 1312.9 63.8016C1310.37 49.4923 1307.76 34.699 1304.63 19.424C1300.14 -2.9013 1300.05 -18 1299.95 -33.985C1299.85 -49.1631 1299.75 -64.8675 1295.93 -88.0915C1291.39 -114.692 1288.89 -144.596 1288.89 -172.304ZM1764.48 -266.294C1764.48 -318.266 1741.53 -361.745 1698.12 -392.029C1669.3 -412.952 1638.52 -422.472 1606.66 -420.317C1574.21 -418.2 1538.56 -402.451 1504.86 -385.743C1472.46 -369.135 1447.32 -357.383 1423.35 -347.632C1416.07 -344.667 1409.4 -342.046 1402.99 -339.623L1400.84 -338.91C1369.19 -328.392 1350.09 -322.044 1322.79 -300.042C1300.59 -282.746 1287.86 -236.184 1287.86 -172.304C1287.86 -144.504 1290.36 -114.5 1294.92 -87.8159C1298.72 -64.7285 1298.82 -49.0936 1298.91 -33.975C1299.01 -17.9057 1299.11 -2.73254 1303.63 19.7591C1306.76 35.0117 1309.37 49.7902 1311.89 64.0895C1315.95 87.0528 1319.77 108.743 1325.28 130.159C1337.46 183.556 1351.17 230.649 1395.72 266.008C1420.29 288.338 1459.67 316.969 1507.62 326.445C1544.58 334.016 1581.71 326.134 1615 303.66C1621.31 299.586 1627.59 295.063 1633.65 290.207C1664.86 265.563 1690.92 227.698 1705.16 186.329C1722.2 141.343 1730.36 96.3648 1735.57 62.2152C1738.25 49.6462 1740.65 36.7073 1742.71 23.8032C1749.35 -24.7474 1756.14 -82.7093 1756.21 -144.581C1757.18 -159.429 1758.55 -173.711 1759.88 -187.524C1762.09 -210.5 1764.17 -232.14 1763.96 -252.553C1764.3 -257.119 1764.48 -261.766 1764.48 -266.294Z" fill="#EDE9F6"/>
<path d="M1301.91 -179.065C1301.91 -214.501 1305.95 -277.135 1332.94 -298.487C1360.19 -320.752 1377.8 -326.027 1409.76 -335.602C1416.19 -337.811 1422.65 -340.114 1429.62 -342.675C1458.93 -353.457 1487.45 -365.961 1509.03 -375.643C1541.43 -389.668 1575.8 -402.785 1607.56 -403.763C1638.28 -404.783 1667.68 -395.428 1694.93 -375.953C1735.21 -348.267 1756.5 -309.013 1756.5 -262.43C1756.5 -255.448 1756.03 -248.216 1755.09 -240.931C1754.3 -223.717 1751.76 -205.569 1749.08 -186.354C1746.85 -170.465 1744.56 -154.034 1742.99 -136.505C1741.65 -84.8384 1737.41 -34.0285 1731.47 26.3815C1729.93 39.1435 1728.13 51.769 1726.12 63.8833C1722.18 100.258 1716.16 143.074 1701.4 185.229C1688.76 225.154 1663.76 261.246 1632.8 284.273C1626.91 288.711 1620.79 292.846 1614.6 296.556C1582.72 316.632 1546.97 323.559 1511.2 316.588C1464.14 307.747 1426.33 281.416 1402.89 260.881C1358.67 226.943 1346.49 181.789 1335.15 126.289C1330.57 106.426 1327.48 86.3298 1324.2 65.0474C1321.78 49.3095 1319.27 33.038 1316.03 16.0939C1312.8 -1.07348 1312.37 -13.4905 1312.37 -23.3711C1312.37 -27.5308 1312.46 -31.487 1312.54 -35.6839C1312.63 -39.8312 1312.73 -44.1348 1312.73 -48.5973C1312.73 -58.3215 1312.33 -71.8952 1309.26 -90.6883C1304.52 -118.617 1301.91 -150.004 1301.91 -179.065ZM1757.54 -262.43C1757.54 -309.529 1736.06 -349.18 1695.43 -377.107C1668.4 -396.419 1638.01 -406.093 1607.54 -405.083C1575.64 -404.1 1541.18 -390.951 1508.69 -376.889C1487.12 -367.207 1458.62 -354.715 1429.33 -343.944C1422.37 -341.382 1415.92 -339.079 1409.6 -336.91C1377.45 -327.28 1359.78 -321.986 1332.39 -299.604C1304.97 -277.919 1300.88 -214.774 1300.88 -179.065C1300.88 -149.912 1303.49 -118.429 1308.24 -90.4128C1311.3 -71.7413 1311.69 -58.2619 1311.69 -48.5973C1311.69 -44.1497 1311.6 -39.8659 1311.51 -35.7162C1311.42 -31.7029 1311.34 -27.5481 1311.34 -23.3711C1311.34 -13.4111 1311.77 -0.904725 1315.03 16.4042C1318.26 33.3185 1320.77 49.58 1323.19 65.3079C1326.46 86.6103 1329.56 106.741 1334.15 126.639C1345.54 182.417 1357.81 227.814 1402.33 261.995C1425.83 282.585 1463.79 309.013 1511.05 317.893C1547.02 324.905 1582.99 317.94 1615.06 297.742C1621.26 294.025 1627.41 289.87 1633.33 285.41C1664.48 262.239 1689.64 225.913 1702.35 185.743C1717.16 143.456 1723.19 100.526 1727.14 64.1142C1729.16 52.0123 1730.95 39.3669 1732.49 26.5652C1738.44 -33.9019 1742.68 -84.7465 1744.02 -136.408C1745.58 -153.843 1747.88 -170.251 1750.1 -186.123C1752.79 -205.378 1755.33 -223.565 1756.12 -240.787C1757.05 -248.072 1757.54 -255.376 1757.54 -262.43Z" fill="#EDE9F6"/>
<path d="M1314.07 -186.208C1314.07 -243.781 1323.92 -283.408 1341.8 -297.792C1368.91 -320.266 1385.55 -324.678 1415.76 -332.687C1422.09 -334.63 1428.34 -336.617 1434.9 -338.763C1461.79 -347.552 1487.95 -357.33 1512.21 -366.589C1541.89 -377.469 1576.49 -388.564 1607.89 -388.372C1637.3 -388.268 1666.31 -378.749 1691.81 -360.843C1730.13 -334.901 1749.55 -300.005 1749.55 -257.121C1749.55 -248.044 1748.65 -238.557 1746.86 -228.921C1745.32 -214.443 1742.45 -199.267 1739.4 -183.199C1736.09 -165.726 1732.67 -147.656 1730.4 -127.916C1728.75 -97.3808 1726.85 -67.203 1724.84 -35.2515C1723.5 -14.0814 1722.12 7.80668 1720.82 29.8463C1719.82 42.6001 1718.62 54.9464 1717.27 66.5401C1714.82 104.888 1710.82 145.803 1698.14 185.5C1686.98 224.313 1662.87 258.89 1632.01 280.381C1626.25 284.445 1620.25 288.208 1614.18 291.567C1583.51 309.396 1548.88 315.425 1514.03 308.998C1467.58 300.736 1431.16 276.58 1408.8 257.762C1364.57 224.941 1353.75 181.431 1343.28 123.552C1339.5 105.015 1337.05 86.262 1334.46 66.4134C1332.24 49.4167 1329.95 31.8386 1326.67 13.3762C1324.67 1.95392 1323.74 -8.39764 1323.74 -19.1839C1323.74 -25.3993 1324.02 -31.0607 1324.33 -37.0501C1324.63 -43.0394 1324.95 -49.2425 1324.95 -56.0516C1324.95 -67.9856 1323.95 -79.6588 1321.82 -92.7802C1316.89 -122.044 1314.07 -156.094 1314.07 -186.208ZM1750.59 -257.121C1750.59 -300.534 1730.98 -335.82 1692.3 -362C1666.67 -380.011 1637.47 -389.585 1607.9 -389.692C1576.36 -389.888 1541.68 -378.764 1511.91 -367.856C1487.66 -358.6 1461.52 -348.824 1434.65 -340.04C1428.09 -337.896 1421.84 -335.912 1415.53 -333.974C1385.21 -325.938 1368.5 -321.508 1341.24 -298.902C1323.05 -284.278 1313.03 -244.25 1313.03 -186.208C1313.03 -156.007 1315.87 -121.855 1320.81 -92.5069C1322.92 -79.4799 1323.91 -67.8962 1323.91 -56.0516C1323.91 -49.2897 1323.6 -43.109 1323.3 -37.1345C1322.99 -31.1253 1322.7 -25.4415 1322.7 -19.1839C1322.7 -8.29577 1323.64 2.14024 1325.66 13.6643C1328.93 32.092 1331.22 49.6501 1333.44 66.6245C1336.04 86.5104 1338.49 105.288 1342.27 123.867C1352.8 182.052 1363.69 225.811 1408.25 258.885C1430.68 277.752 1467.24 302.008 1513.89 310.298C1548.93 316.764 1583.76 310.702 1614.6 292.772C1620.69 289.401 1626.72 285.62 1632.51 281.546C1663.59 259.894 1687.86 225.065 1699.11 185.979C1711.83 146.136 1715.85 105.099 1718.3 66.6916C1719.65 55.1228 1720.85 42.7541 1721.86 29.963C1723.16 7.90604 1724.54 -13.9871 1725.87 -35.1423C1727.88 -67.1012 1729.79 -97.2815 1731.43 -127.777C1733.69 -147.405 1737.1 -165.442 1740.4 -182.889C1743.46 -198.991 1746.34 -214.199 1747.88 -228.68C1749.67 -238.35 1750.59 -247.939 1750.59 -257.121Z" fill="#EDE9F6"/>
</svg>
