<svg width="1602" height="636" viewBox="0 0 1602 636" fill="none" xmlns="http://www.w3.org/2000/svg">
<g style="mix-blend-mode:soft-light" opacity="0.6">
<path d="M-309.755 -548.463C-309.755 -596.75 -305.81 -631.436 -296.962 -660.927C-261.236 -773.297 -118.272 -856.935 67.2586 -873.995C160.068 -881.742 247.103 -868.138 318.948 -834.652C381.559 -804.897 441.902 -754.69 508.848 -676.645C554.568 -622.705 594.541 -559.941 634.645 -479.124C674.946 -397.15 693.995 -331.684 696.408 -266.859C696.492 -263.913 696.535 -260.967 696.535 -257.852C696.535 -184.068 672.882 -66.9509 633.261 55.4341C592.992 179.824 543.467 285.907 500.78 339.206C424.952 483.532 350.759 465.059 238.454 437.108C188.638 424.705 132.175 410.656 63.9475 406.928C14.7112 404.25 -29.2542 402.608 -68.0479 401.16C-254.336 394.213 -339.36 391.048 -433.275 292.583C-455.071 268.619 -466.125 236.484 -466.125 197.092C-466.125 166.04 -459.269 130.21 -445.743 90.5914C-433.34 54.6516 -417.854 17.5494 -401.457 -21.7313C-379.89 -73.3942 -357.589 -126.813 -339.028 -185.111C-317.239 -254.494 -306.647 -330.39 -306.647 -417.141C-306.647 -430.017 -306.882 -443.52 -307.342 -457.271C-307.551 -463.451 -307.77 -469.581 -307.985 -475.654C-308.896 -501.147 -309.755 -525.226 -309.755 -548.463ZM697.577 -257.852C697.577 -260.982 697.536 -263.945 697.455 -266.913C695.033 -331.982 675.933 -397.642 635.532 -479.822C595.378 -560.741 555.348 -623.589 509.563 -677.614C442.511 -755.778 382.06 -806.07 319.316 -835.889C247.324 -869.442 160.14 -883.071 67.1841 -875.309C-118.744 -858.215 -262.061 -774.253 -297.936 -661.406C-306.836 -631.749 -310.802 -596.917 -310.802 -548.463C-310.802 -525.196 -309.942 -501.105 -309.031 -475.595C-308.812 -469.522 -308.593 -463.396 -308.386 -457.216C-307.928 -443.483 -307.694 -430 -307.694 -417.141C-307.694 -330.559 -318.26 -254.822 -339.998 -185.593C-358.54 -127.37 -380.826 -73.9829 -402.382 -22.3448C-418.79 16.9557 -434.285 54.0754 -446.701 90.0648C-460.286 129.855 -467.172 165.862 -467.172 197.092C-467.172 236.884 -455.996 269.346 -433.951 293.587C-388.285 341.467 -344.151 368.042 -286.364 382.444C-230.257 396.433 -162.231 398.97 -68.0795 402.482C-29.2903 403.93 14.6751 405.567 63.9047 408.252C132.046 411.968 188.473 426.014 238.253 438.404C296.218 452.831 342.006 464.232 384.07 454.214C429.551 443.392 465.791 408.177 501.585 340.034C544.299 286.729 593.91 180.479 634.233 55.9333C673.897 -66.6031 697.577 -183.906 697.577 -257.852Z" fill="#FFEDC2"/>
<path d="M685.076 -258.717C685.106 -256.968 685.117 -255.233 685.117 -253.446C685.117 -182.934 662.038 -70.102 623.37 48.3643C584.027 168.93 535.649 272.122 493.957 324.409C419.989 464.607 347.595 448.263 238.013 423.518C190.628 412.82 136.919 400.696 72.428 398.008C25.417 395.9 -16.6782 394.739 -53.8169 393.711C-233.979 388.732 -316.206 386.459 -407.663 292.311C-431.313 267.508 -443.306 233.411 -443.306 190.948C-443.306 162.472 -437.898 130.062 -427.232 94.6217C-415.737 50.9135 -399.596 5.24196 -382.504 -43.1076C-366.443 -88.5383 -349.837 -135.523 -335.337 -185.627C-305.889 -289.621 -301.853 -389.998 -301.38 -456.454L-301.506 -468.174C-301.657 -482.401 -301.801 -495.841 -301.801 -509.214C-301.801 -566.099 -299.031 -612.359 -285.504 -653.23C-249.261 -761.243 -110.666 -843.107 67.5776 -861.781C158.784 -871.95 243.933 -861.062 313.816 -830.297C375.775 -802.667 435.319 -754.499 501.197 -678.706C549.422 -623.476 590.321 -558.596 629.901 -474.523C668.061 -392.619 685.079 -326.288 685.076 -259.45V-258.717ZM686.166 -253.446C686.166 -255.24 686.155 -256.985 686.119 -258.73L686.123 -259.45C686.123 -326.536 669.061 -393.076 630.799 -475.196C591.165 -559.383 550.207 -624.362 501.905 -679.681C435.919 -755.593 376.263 -803.851 314.163 -831.543C244.141 -862.37 158.843 -873.28 67.4896 -863.097C-111.138 -844.382 -250.075 -762.206 -286.472 -653.739C-300.062 -612.664 -302.85 -566.258 -302.85 -509.214C-302.85 -495.831 -302.704 -482.389 -302.553 -468.154L-302.429 -456.452C-302.902 -390.105 -306.929 -289.877 -336.319 -186.076C-350.809 -136.019 -367.407 -89.0571 -383.458 -43.6413C-400.561 4.73552 -416.714 50.4344 -428.215 94.1723C-438.92 129.742 -444.351 162.309 -444.351 190.948C-444.351 233.813 -432.233 268.263 -408.326 293.321C-316.59 387.769 -234.249 390.045 -53.8395 395.032C-16.703 396.059 25.3854 397.221 72.3964 399.326C136.81 402.009 190.481 414.128 237.829 424.818C294.389 437.591 339.063 447.678 380.111 437.251C424.485 425.98 459.846 391.43 494.763 325.242C536.479 272.942 584.945 169.578 624.337 48.8707C663.055 -69.752 686.166 -182.77 686.166 -253.446Z" fill="#FFEDC2"/>
<path d="M-420.483 184.381C-420.483 158.723 -416.41 129.964 -408.384 98.9099C-398.614 45.6998 -381.924 -10.6875 -364.252 -70.3862C-353.224 -107.646 -341.82 -146.172 -331.364 -186.328C-306.37 -285.336 -299.041 -378.339 -295.166 -456.261L-295.094 -460.822C-293.989 -531.998 -293.033 -593.47 -273.803 -646.479C-237.063 -750.323 -102.929 -830.543 67.9318 -850.853C158.76 -863.662 239.715 -855.697 308.561 -827.177C368.976 -802.008 429.402 -754.437 493.303 -681.756C543.325 -625.938 586.347 -556.864 624.826 -470.58C660.934 -388.715 676.206 -319.56 673.389 -250.878L673.391 -249.341C673.391 -181.998 650.887 -73.2827 613.198 41.4619C574.79 158.392 527.575 258.873 486.898 310.257C414.817 446.587 344.243 432.362 237.414 410.83C192.518 401.783 141.632 391.531 80.9375 389.839C36.2395 388.306 -3.90306 387.618 -39.3209 387.007C-213.336 384.009 -292.758 382.643 -381.732 292.613C-407.444 266.874 -420.483 230.46 -420.483 184.381ZM674.756 -266.702C674.756 -330.418 659.179 -395.408 625.739 -471.223C587.2 -557.641 544.108 -626.827 494.004 -682.737C429.995 -755.545 369.443 -803.2 308.888 -828.432C239.9 -857.012 158.791 -864.996 67.828 -852.167C-16.451 -842.149 -93.157 -817.596 -153.995 -781.171C-214.838 -744.739 -256.598 -698.35 -274.755 -647.023C-294.075 -593.768 -295.031 -532.172 -296.141 -460.847L-296.21 -456.316C-300.08 -378.506 -307.401 -285.599 -332.359 -186.733C-342.807 -146.617 -354.207 -108.095 -365.235 -70.8458C-382.916 -11.1073 -399.62 45.3222 -409.39 98.5547C-417.441 129.693 -421.53 158.581 -421.53 184.381C-421.53 230.889 -408.359 267.65 -382.384 293.646C-293.132 383.954 -213.598 385.323 -39.3367 388.321C-3.92111 388.935 36.2191 389.623 80.9126 391.161C141.537 392.847 192.387 403.089 237.247 412.139C292.387 423.248 335.933 432.025 375.947 421.149C419.21 409.399 453.674 375.454 487.703 311.09C528.405 259.693 575.705 159.048 614.163 41.9612C651.906 -72.9324 674.438 -181.834 674.438 -249.341L674.436 -250.848C674.647 -256.083 674.756 -261.428 674.756 -266.702Z" fill="#FFEDC2"/>
<path d="M-397.663 176.104C-397.663 153.701 -394.794 128.999 -389.134 102.695C-382.178 38.014 -364.969 -31.6277 -346.75 -105.361C-340.216 -131.796 -333.461 -159.132 -326.992 -186.988C-304.34 -288.541 -295.22 -385.04 -288.558 -455.5C-285.664 -522.293 -282.936 -585.341 -261.713 -638.789C-243.379 -687.798 -202.786 -732.412 -144.313 -767.829C-85.7217 -803.314 -12.0938 -827.783 68.6137 -838.595C157.749 -853.905 236.809 -848.583 303.596 -822.768C363.29 -799.755 422.848 -754.295 485.677 -683.795C538.156 -626.752 582.091 -555.524 619.991 -466.039C649.455 -395.663 663.174 -334.699 663.174 -274.181C663.174 -263.806 662.76 -253.273 661.935 -242.873C661.421 -178.231 639.285 -74.0529 602.712 35.8874C564.798 149.855 520.111 244.366 480.101 295.186C409.89 427.419 341.122 415.379 237.03 397.153C194.657 389.733 146.63 381.324 89.7626 380.607C47.4648 379.641 9.33457 379.423 -24.308 379.224C-192.251 378.247 -268.901 377.803 -355.406 292.039C-383.449 265.326 -397.663 226.318 -397.663 176.104ZM664.223 -274.181C664.223 -334.922 650.46 -396.079 620.919 -466.657C582.952 -556.294 538.941 -627.643 486.365 -684.788C423.427 -755.41 363.74 -800.959 303.902 -824.029C236.966 -849.898 157.76 -855.238 68.4898 -839.903C-12.3214 -829.079 -86.0688 -804.567 -144.766 -769.015C-203.457 -733.466 -244.22 -688.636 -262.653 -639.367C-283.969 -585.689 -286.703 -522.506 -289.599 -455.614C-296.253 -385.238 -305.372 -288.799 -327.998 -187.351C-334.462 -159.516 -341.217 -132.186 -347.749 -105.751C-365.981 -31.9677 -383.201 37.7311 -390.157 102.43C-395.826 128.768 -398.709 153.582 -398.709 176.104C-398.709 226.752 -384.356 266.113 -356.046 293.086C-269.264 379.113 -192.501 379.564 -24.3125 380.545C9.32784 380.738 47.4513 380.959 89.7469 381.922C146.553 382.644 194.542 391.046 236.885 398.458C290.606 407.86 333.041 415.295 372.03 403.979C414.184 391.748 447.764 358.447 480.904 296.019C520.943 245.18 565.713 150.51 603.679 36.3911C640.295 -73.6831 662.462 -178.063 662.978 -242.801C663.799 -253.183 664.223 -263.762 664.223 -274.181Z" fill="#FFEDC2"/>
<path d="M-376.596 167.078C-376.596 148.388 -374.764 128.15 -371.15 106.905C-368.438 28.0248 -350.525 -58.3953 -331.561 -149.872C-328.985 -162.294 -326.386 -174.824 -323.798 -187.477C-308.802 -264.578 -299.095 -336.688 -290.531 -400.307C-287.957 -419.446 -285.52 -437.523 -283.07 -454.813C-277.978 -524.305 -272.37 -581.394 -250.705 -631.36C-232.066 -678.379 -192.398 -721.492 -135.988 -756.056C-79.4407 -790.701 -8.66226 -815.16 68.7016 -826.783C156.283 -844.637 233.552 -841.948 298.384 -818.784C357.419 -797.926 416.196 -754.532 478.061 -686.12C532.332 -628.624 578.522 -553.083 615.369 -461.587C641.397 -396.174 653.519 -339 653.519 -281.67C653.519 -266.164 652.583 -250.379 650.751 -234.754C649.381 -172.427 627.435 -72.7879 592.031 31.8581C555.208 140.7 511.937 231.424 473.309 280.76C404.839 409.065 337.747 399.236 236.187 384.344C196.312 378.496 151.119 371.872 98.0232 372.08C58.1456 371.684 22.0401 371.917 -9.81507 372.133C-172.044 373.202 -246.082 373.688 -330.296 292.094C-361.023 264.264 -376.596 222.21 -376.596 167.078ZM654.568 -281.67C654.568 -339.216 642.408 -396.571 616.301 -462.182C579.395 -553.84 533.108 -629.52 478.742 -687.12C416.767 -755.656 357.862 -799.142 298.666 -820.052C233.69 -843.265 156.269 -845.972 68.5572 -828.088C-8.8991 -816.452 -79.7971 -791.949 -136.444 -757.239C-193.066 -722.547 -232.898 -679.23 -251.63 -631.971C-273.383 -581.804 -279.011 -524.578 -284.106 -454.99C-286.551 -437.751 -288.988 -419.672 -291.564 -400.528C-300.123 -336.931 -309.829 -264.846 -324.813 -187.797C-327.401 -175.159 -329.998 -162.627 -332.572 -150.209C-351.552 -58.6582 -369.478 27.824 -372.183 106.741C-375.804 127.957 -377.643 148.299 -377.643 167.078C-377.643 222.656 -361.923 265.07 -330.92 293.151C-246.439 375.013 -172.285 374.519 -9.81055 373.442C22.0424 373.236 58.1434 372.993 98.0188 373.398C151.06 373.195 196.221 379.809 236.063 385.657C288.48 393.338 329.88 399.404 367.919 387.614C409.044 374.867 441.799 342.174 474.115 281.591C512.772 232.231 556.119 141.367 592.992 32.3766C628.443 -72.4158 650.424 -172.231 651.793 -234.64C653.632 -250.25 654.568 -266.102 654.568 -281.67Z" fill="#FFEDC2"/>
<path d="M-352.143 87.7782C-352.143 4.72996 -337.249 -86.1596 -319.256 -187.8C-312.344 -229.41 -306.306 -268.89 -300.469 -307.068C-292.291 -360.564 -284.561 -411.095 -276.319 -454.214C-269.653 -517.439 -262.211 -573.82 -238.494 -624.177C-219.586 -669.253 -180.927 -710.903 -126.684 -744.646C-72.2962 -778.484 -4.50407 -802.949 69.3639 -815.401C155.215 -835.851 230.547 -835.789 293.291 -815.223C351.544 -796.528 409.415 -755.159 470.21 -688.752C526.903 -629.96 574.011 -552.069 610.245 -457.229C632.867 -397.26 643.865 -342.187 643.865 -288.875C643.865 -268.348 642.227 -247.367 638.995 -226.51C634.488 -104.884 548.285 161.27 466.295 266.92C399.668 391.469 334.339 383.876 235.449 372.388C198.196 368.052 155.974 363.146 106.797 364.236C69.5104 364.38 35.5772 365.073 5.63962 365.676C-150.685 368.849 -222.033 370.302 -303.825 292.741C-337.562 263.673 -354.656 218.003 -354.656 157.001C-354.656 142.625 -353.669 127.335 -351.729 111.555C-352.001 103.754 -352.143 95.7958 -352.143 87.7782ZM644.913 -288.875C644.913 -342.388 633.879 -397.645 611.185 -457.8C574.887 -552.816 527.682 -630.859 470.884 -689.76C409.974 -756.297 351.967 -797.757 293.553 -816.499C230.656 -837.118 155.172 -837.185 69.1972 -816.703C-4.75417 -804.238 -72.6568 -779.731 -127.148 -745.831C-181.587 -711.963 -220.406 -670.117 -239.407 -624.823C-263.212 -574.277 -270.674 -517.759 -277.347 -454.455C-285.584 -411.373 -293.312 -360.827 -301.497 -307.319C-307.334 -269.14 -313.372 -229.671 -320.279 -188.081C-338.281 -86.3706 -353.187 4.59588 -353.187 87.7782C-353.187 95.8132 -353.045 103.791 -352.765 111.486C-354.713 127.201 -355.7 142.56 -355.7 157.001C-355.7 218.47 -338.455 264.5 -304.436 293.816C-264.819 331.381 -226.516 351.409 -176.374 360.762C-128.387 369.718 -72.1632 368.581 5.65545 367C35.5907 366.391 69.5217 365.703 106.808 365.552C155.933 364.472 198.126 369.373 235.357 373.699C286.393 379.625 326.704 384.316 363.731 372.013C403.772 358.706 435.648 326.554 467.1 267.755C504.296 219.831 546.144 132.678 581.847 28.7156C616.053 -70.8669 637.803 -166.223 640.034 -226.356C643.266 -247.198 644.913 -268.261 644.913 -288.875Z" fill="#FFEDC2"/>
<path d="M-337.099 41.2959C-337.099 -36.6399 -326.347 -118.652 -315.829 -188.596C-302.798 -282.342 -288.575 -380.024 -270.624 -453.671C-261.207 -520.528 -250.682 -571.095 -227.286 -616.787C-187.968 -704.945 -74.2539 -776.484 69.4892 -803.516C153.746 -826.57 227.251 -829.14 287.995 -811.162C345.544 -794.691 402.593 -755.41 462.426 -691.08C520.8 -631.939 570.23 -549.587 605.387 -452.924C625.374 -397.258 635.089 -345.892 635.089 -295.898C635.089 -270.254 632.625 -244.994 627.556 -218.68C624.456 -160.945 602.938 -70.3677 569.978 23.7323C535.433 122.36 495.104 205.529 459.335 251.913C394.413 372.578 330.705 367.293 234.266 359.299C199.628 356.421 160.371 353.163 115.091 355.066C80.4421 355.744 48.7174 356.865 20.7286 357.865C-125.506 363.028 -198.907 365.623 -278.464 292.186C-315.187 262.202 -334.583 210.985 -334.583 144.065C-334.583 134.781 -334.213 125.102 -333.478 115.279C-335.882 92.1209 -337.099 67.2803 -337.099 41.2959ZM636.135 -295.898C636.135 -346.086 626.389 -397.625 606.34 -453.472C571.114 -550.324 521.578 -632.84 463.091 -692.095C403.143 -756.554 345.939 -795.929 288.237 -812.448C227.335 -830.468 153.679 -827.902 69.2998 -804.813C-74.7229 -777.727 -188.723 -705.937 -228.183 -617.467C-254.197 -566.662 -263.915 -508.845 -271.637 -453.981C-289.59 -380.337 -303.821 -282.612 -316.86 -188.83C-327.384 -118.836 -338.146 -36.7541 -338.146 41.2959C-338.146 67.3299 -336.924 92.2351 -334.516 115.302C-335.257 125.018 -335.632 134.736 -335.632 144.065C-335.632 211.461 -316.068 263.055 -279.057 293.272C-199.234 366.951 -125.713 364.353 20.7579 359.175C48.7445 358.185 80.4647 357.066 115.118 356.389C160.348 354.483 199.583 357.738 234.196 360.609C283.971 364.738 323.282 368 359.388 355.173C398.422 341.304 429.493 309.712 460.144 252.739C495.939 206.34 536.344 123.028 570.936 24.2633C603.939 -69.9658 625.496 -160.709 628.587 -218.479C633.662 -244.786 636.135 -270.147 636.135 -295.898Z" fill="#FFEDC2"/>
<path d="M-324.81 -8.88862C-324.81 -61.2853 -320.651 -120.304 -312.09 -189.312C-299.332 -302.789 -283.801 -389.126 -264.607 -453.268C-253.721 -513.967 -241.258 -563.746 -215.747 -609.672C-175.904 -693.586 -66.4376 -763.458 69.9558 -792.055C152.624 -817.77 224.307 -822.973 283.054 -807.528C339.869 -793.281 396.114 -756.056 455 -693.735C531.905 -617.482 576.792 -518.428 600.906 -448.757C618.591 -396.991 627.189 -349.063 627.189 -302.241C627.189 -272.043 623.689 -242.133 616.486 -210.801C608.388 -97.9119 527.538 139.603 452.739 237.332C389.461 354.298 327.304 351.38 233.222 346.959C201.269 345.458 165.053 343.756 123.73 346.411C91.8433 347.589 62.4352 349.117 36.4896 350.47C-104.566 357.819 -175.37 361.506 -252.762 292.086C-293.505 260.588 -315.027 204.278 -315.027 129.217C-315.027 125.959 -314.984 122.622 -314.903 119.297C-321.573 79.9958 -324.81 38.1141 -324.81 -8.88862ZM628.236 -302.241C628.236 -349.249 619.61 -397.346 601.864 -449.283C577.701 -519.095 532.719 -618.346 455.656 -694.755C396.648 -757.213 340.257 -794.529 283.263 -808.818C224.368 -824.305 152.523 -819.1 69.7438 -793.348C-66.9045 -764.696 -176.651 -694.584 -216.625 -610.389C-242.212 -564.326 -254.713 -514.411 -265.608 -453.645C-284.807 -389.498 -300.356 -303.07 -313.123 -189.513C-321.691 -120.443 -325.857 -61.3573 -325.857 -8.88862C-325.857 38.2108 -322.611 80.1794 -315.938 119.419C-316.031 122.592 -316.074 125.944 -316.074 129.217C-316.074 204.76 -294.38 261.461 -253.339 293.18C-175.683 362.841 -104.763 359.149 36.5325 351.79C62.4735 350.44 91.8749 348.904 123.771 347.721C165.06 345.076 201.251 346.775 233.184 348.276C327.613 352.713 390.001 355.638 453.545 238.161C528.424 140.345 609.417 -97.5869 617.515 -210.563C624.717 -241.885 628.236 -271.917 628.236 -302.241Z" fill="#FFEDC2"/>
<path d="M-314.281 -58.2381C-314.281 -99.3238 -312.025 -142.342 -307.387 -189.731C-298.029 -298.184 -281.315 -386.693 -257.705 -452.811C-246.908 -501.65 -232.876 -553.532 -203.398 -602.645C-163.09 -682.415 -58.028 -750.686 70.8128 -780.856C152.912 -809.7 220.726 -817.325 278.183 -804.172C334.18 -792.166 389.523 -756.964 447.39 -696.561C509.778 -635.818 562.557 -546.315 596.017 -444.528C611.681 -396.262 619.293 -351.471 619.293 -307.599C619.293 -273.124 614.617 -238.791 604.997 -202.631C595.097 -94.24 518.244 128.012 445.955 223.456C384.358 336.928 323.771 336.454 232.054 335.734C202.923 335.505 169.901 335.247 132.678 338.56C103.729 340.207 76.8138 342.106 53.062 343.793C-82.8029 353.434 -151 358.269 -226.199 292.743C-280.643 252.886 -293.86 178.946 -295.372 123.932L-295.392 123.766C-308.102 69.2238 -314.281 9.68761 -314.281 -58.2381ZM620.336 -307.599C620.336 -351.647 612.699 -396.6 596.988 -445.032C563.452 -547.03 510.56 -636.724 448.044 -697.592C390.044 -758.136 334.543 -793.425 278.368 -805.473C220.757 -818.656 152.783 -811.026 70.5784 -782.14C-58.4922 -751.917 -163.818 -683.423 -204.257 -603.4C-233.813 -554.153 -247.886 -502.132 -258.685 -453.258C-282.313 -387.105 -299.059 -298.464 -308.426 -189.887C-313.068 -142.451 -315.324 -99.3884 -315.324 -58.2381C-315.324 9.78695 -309.138 69.4176 -296.413 124.061C-294.885 179.4 -281.551 253.743 -226.76 293.86C-151.3 359.611 -82.9831 354.765 53.1206 345.114C76.8656 343.43 103.781 341.518 132.734 339.881C169.937 336.563 202.932 336.824 232.05 337.057C324.098 337.77 384.908 338.249 446.766 224.283C519.126 128.75 596.114 -93.8948 606.013 -202.345C615.642 -238.506 620.336 -272.983 620.336 -307.599Z" fill="#FFEDC2"/>
<path d="M-307.258 -103.3C-307.258 -131.366 -306.157 -160.744 -303.992 -190.625C-297.543 -296.276 -279.569 -386.826 -252.017 -452.5C-235.745 -513.273 -217.852 -556.033 -192.156 -595.573C-172.046 -632.756 -137.215 -668.42 -91.4001 -698.751C-45.3098 -729.263 10.8787 -753.687 71.0911 -769.379C151.615 -801.005 217.687 -811.188 273.141 -800.519C328.4 -790.791 382.957 -757.66 439.931 -699.233C504.835 -637.318 558.68 -545.422 591.566 -440.454C605.494 -395.412 612.268 -353.548 612.268 -312.469C612.268 -274.062 606.279 -235.612 593.959 -194.915C582.082 -90.0615 508.415 116.622 439.322 208.565C379.197 318.534 319.955 320.607 230.278 323.743C204.021 324.664 174.259 325.702 141.16 329.558C115.269 331.604 91.9912 333.744 69.4874 335.815C-61.6898 347.869 -127.532 353.922 -200.793 292.317C-255.888 254.302 -272.71 181.808 -277.128 127.688L-277.158 127.522C-297.131 59.6927 -307.258 -17.9665 -307.258 -103.3ZM613.314 -312.469C613.314 -353.715 606.518 -395.737 592.541 -440.935C559.587 -546.129 505.618 -638.226 440.578 -700.271C383.465 -758.839 328.74 -792.062 273.294 -801.825C217.685 -812.523 151.457 -802.329 70.8295 -770.657C10.5719 -754.953 -45.7113 -730.487 -91.8851 -699.916C-137.851 -669.488 -172.813 -633.678 -192.993 -596.36C-218.747 -556.736 -236.695 -513.854 -252.976 -453.019C-280.561 -387.283 -298.574 -296.554 -305.036 -190.734C-307.202 -160.828 -308.302 -131.406 -308.302 -103.3C-308.302 -17.8448 -298.161 59.9434 -278.164 127.907C-273.709 182.331 -256.763 255.199 -201.334 293.44C-127.814 355.268 -61.8499 349.207 69.5618 337.131C92.0679 335.06 115.336 332.92 141.242 330.871C174.322 327.018 204.066 325.98 230.312 325.064C320.302 321.916 379.757 319.835 440.132 209.395C471.696 167.402 507.733 95.3813 538.953 11.8875C568.271 -66.5214 589.209 -143.709 594.965 -194.593C607.306 -235.294 613.314 -273.898 613.314 -312.469Z" fill="#FFEDC2"/>
<path d="M-301.112 -140.115C-301.112 -156.746 -300.701 -173.788 -299.899 -190.773C-296.067 -296.182 -277.32 -386.353 -245.685 -451.558C-228.181 -506.441 -208.038 -548.469 -180.334 -587.928C-138.332 -660.411 -44.1439 -723.754 71.6549 -757.414C150.506 -791.884 214.759 -804.626 268.142 -796.384C322.595 -788.951 376.299 -757.874 432.33 -701.377C499.686 -638.276 554.54 -543.942 586.809 -435.743C599.216 -393.597 605.244 -354.379 605.244 -315.847C605.244 -273.763 597.841 -231.441 582.607 -186.455C568.998 -87.3936 497.108 107.802 432.553 194.601C373.854 301.291 315.881 306.046 228.136 313.225C204.936 315.127 178.638 317.275 149.845 321.537C127.233 323.896 106.661 326.282 86.7688 328.592C-35.8608 342.801 -103.411 350.63 -174.784 292.843C-230.438 256.677 -250.865 185.594 -258.206 132.324C-286.688 51.6878 -301.112 -39.9216 -301.112 -140.115ZM606.293 -315.847C606.293 -354.536 600.24 -393.907 587.787 -436.202C555.451 -544.64 500.471 -639.182 432.97 -702.42C376.793 -759.066 322.911 -790.235 268.264 -797.692C214.73 -805.962 150.318 -793.2 71.3617 -758.678C-44.6175 -724.968 -139.035 -661.44 -181.148 -588.755C-208.906 -549.227 -229.105 -507.079 -246.619 -452.149C-278.306 -386.858 -297.104 -296.465 -300.943 -190.848C-301.748 -173.838 -302.158 -156.763 -302.158 -140.115C-302.158 -39.7353 -287.705 52.0503 -259.2 132.708C-251.853 186.113 -231.3 257.601 -175.307 293.985C-103.673 351.984 -35.9961 344.141 86.8636 329.905C106.756 327.598 127.323 325.214 149.953 322.843C178.731 318.587 205.012 316.439 228.204 314.544C316.253 307.332 374.422 302.567 433.365 195.428C463.949 154.31 497.632 87.8189 528.157 8.27075C556.209 -64.8334 576.936 -137.493 583.604 -186.088C598.86 -231.091 606.293 -273.582 606.293 -315.847Z" fill="#FFEDC2"/>
<path d="M-295.848 -170.353C-295.848 -177.473 -295.765 -184.703 -295.603 -191.838C-294.309 -297.449 -274.804 -387.183 -239.188 -451.338C-220.773 -500.324 -198.288 -541.463 -168.384 -580.908C-125.862 -649.17 -35.9313 -710.845 72.2117 -745.934C150.429 -783.802 211.051 -798.658 263.043 -792.704C316.643 -787.597 369.464 -758.596 424.536 -704.048C493.307 -640.742 550.61 -541.503 581.773 -431.762C592.844 -392.27 598.223 -355.484 598.223 -319.306C598.223 -273.183 589.567 -228.577 570.983 -178.92C555.583 -85.1341 487.322 95.5219 425.591 179.419C368.184 283.013 311.327 290.594 225.259 302.072C205.336 304.733 182.759 307.745 158.485 312.198C139.398 314.759 121.785 317.28 104.754 319.727C-13.7551 336.727 -79.033 346.098 -148.665 292.081C-204.805 257.813 -228.838 188.179 -239.122 135.795C-276.248 45.317 -295.848 -60.508 -295.848 -170.353ZM599.271 -319.306C599.271 -355.638 593.871 -392.568 582.758 -432.204C551.527 -542.19 494.082 -641.655 425.16 -705.1C369.942 -759.799 316.936 -788.89 263.131 -794.017C210.981 -799.99 150.208 -785.11 71.894 -747.187C-36.4045 -712.051 -126.547 -650.204 -169.173 -581.769C-199.124 -542.272 -221.667 -501.021 -240.087 -452C-275.777 -387.721 -295.353 -297.735 -296.648 -191.87C-296.811 -184.73 -296.892 -177.488 -296.892 -170.353C-296.892 -60.2921 -277.253 45.7289 -240.091 136.252C-229.8 188.772 -205.625 258.779 -149.167 293.24C-79.2741 347.455 -13.8678 338.074 104.871 321.037C121.9 318.593 139.511 316.064 158.611 313.508C182.888 309.056 205.458 306.043 225.367 303.385C269.857 297.451 304.995 292.768 337.098 276.449C371.758 258.828 399.304 229.162 426.404 180.247C455.53 140.664 487.763 77.9043 517.117 3.58452C543.872 -64.1587 564.376 -132.227 571.968 -178.501C590.581 -228.195 599.271 -272.982 599.271 -319.306Z" fill="#FFEDC2"/>
<path d="M-292.332 -201.014C-292.332 -303.34 -272.012 -389.66 -233.561 -450.641C-214.06 -494.932 -190.518 -532.784 -157.18 -573.456C-114.017 -637.596 -28.1854 -697.629 72.46 -734.099C149.081 -774.955 208.012 -792.288 257.974 -788.681C310.067 -785.949 363.582 -758.245 417.06 -706.333C488.348 -641.891 546.761 -540.192 577.329 -427.299C587.255 -390.196 592.075 -355.605 592.075 -321.551C592.075 -272.167 581.866 -224.264 559.937 -170.806C542.116 -79.1713 478.057 83.8082 418.944 164.978C362.517 265.867 309.395 275.946 221.384 292.646C204.218 295.906 186.473 299.273 166.96 303.642C151.666 306.213 137.303 308.736 123.412 311.163C8.37005 331.339 -54.998 342.45 -123.248 292.083C-179.932 259.714 -207.638 191.494 -220.911 139.958C-267.43 40.1704 -292.093 -74.6904 -292.285 -192.33C-292.314 -195.248 -292.332 -198.133 -292.332 -201.014ZM593.127 -321.551C593.127 -355.751 588.283 -390.482 578.322 -427.721C547.683 -540.872 489.131 -642.806 417.683 -707.389C364.049 -759.456 310.329 -787.254 258.025 -789.996C207.906 -793.616 148.828 -776.25 72.1103 -735.339C-28.6636 -698.83 -114.687 -638.638 -157.942 -574.357C-191.324 -533.637 -214.924 -495.691 -234.43 -451.373C-272.98 -390.246 -293.381 -303.643 -293.381 -201.014C-293.381 -198.128 -293.363 -195.238 -293.329 -192.32C-293.14 -74.4522 -268.425 40.6368 -221.858 140.497C-208.567 192.158 -180.712 260.714 -123.73 293.249C-55.2146 343.817 8.28435 332.679 123.556 312.475C137.448 310.036 151.806 307.52 167.118 304.945C186.642 300.571 204.382 297.211 221.538 293.951C265.512 285.607 300.243 279.015 331.885 261.694C366.011 243.021 393.11 213.449 419.76 165.799C447.482 127.741 478.324 68.6784 506.557 -0.442994C532.044 -62.8356 552.364 -126.355 560.909 -170.347C582.874 -223.853 593.127 -271.949 593.127 -321.551Z" fill="#FFEDC2"/>
<path d="M-288.825 -215.701C-288.825 -312.469 -267.6 -393.525 -227.447 -450.103C-207.621 -488.833 -182.375 -524.647 -145.538 -566.307C-101.705 -626.484 -20.0443 -684.95 72.9406 -722.746C148.922 -767.309 204.423 -786.566 252.974 -785.212C304.244 -784.805 356.906 -759.188 409.519 -709.077C483.28 -643.429 542.754 -539.15 572.7 -422.959C581.608 -387.992 585.936 -355.359 585.936 -323.205C585.936 -270.655 574.104 -219.593 548.704 -162.51C529.122 -76.6964 468.289 73.1089 412.229 151.1C356.485 249.947 303.658 263.258 216.137 285.324C203.238 288.582 189.887 291.94 175.594 295.816C164.499 298.136 153.827 300.416 143.561 302.606C31.4786 326.539 -30.2586 339.719 -97.411 292.804C-154.534 262.319 -185.922 195.427 -202.203 144.682C-255.619 41.8222 -285.416 -74.7866 -288.426 -192.669C-288.692 -200.393 -288.825 -208.141 -288.825 -215.701ZM586.983 -323.205C586.983 -355.498 582.637 -388.26 573.695 -423.366C543.677 -539.823 484.065 -644.348 410.135 -710.142C357.362 -760.415 304.481 -786.121 252.992 -786.531C204.281 -787.887 148.633 -768.593 72.557 -723.973C-20.5294 -686.137 -102.359 -627.537 -146.271 -567.243C-183.146 -525.548 -208.446 -489.652 -228.275 -450.9C-268.554 -394.158 -289.87 -312.8 -289.87 -215.701C-289.87 -208.122 -289.737 -200.356 -289.471 -192.612C-286.458 -74.506 -256.598 42.3462 -203.124 145.286C-186.817 196.157 -155.272 263.352 -97.8668 293.988C-30.4459 341.102 31.4222 327.89 143.735 303.91C154.003 301.719 164.671 299.44 175.79 297.113C190.102 293.231 203.443 289.868 216.345 286.62C260.149 275.571 294.743 266.857 326.115 248.315C359.905 228.336 386.717 198.611 413.043 151.922C469.156 73.8639 530.094 -76.1922 549.665 -162.006C575.11 -219.153 586.983 -270.422 586.983 -323.205Z" fill="#FFEDC2"/>
<path d="M-285.312 -227.251C-285.312 -319.833 -263.118 -396.69 -221.123 -449.517C-197.817 -488.787 -169.338 -521.664 -133.729 -558.965C-88.4521 -616.095 -12.9368 -671.502 73.4872 -711.022C123.49 -743.167 188.451 -780.17 247.955 -781.3C298.364 -783.239 350.151 -759.745 401.88 -711.472C476.966 -645.681 539.024 -536.201 567.891 -418.599C575.901 -385.613 579.792 -354.807 579.792 -324.426C579.792 -268.143 566.695 -215.73 537.307 -154.489C515.612 -73.1278 457.468 63.1658 405.421 136.562C349.835 234.141 296.618 251.167 208.446 279.378C200.652 281.878 192.595 284.453 184.248 287.174C177.874 288.82 171.628 290.449 165.521 292.028C59.2333 319.641 -4.92216 336.302 -71.428 292.719C-128.909 264.162 -163.985 198.677 -183.299 148.763C-242.756 44.6704 -278.617 -76.7627 -284.331 -193.255C-284.983 -204.721 -285.312 -216.16 -285.312 -227.251ZM580.838 -324.426C580.838 -354.941 576.934 -385.874 568.894 -418.986C555.355 -474.125 533.996 -529.199 507.11 -578.267C477.318 -632.643 442.124 -677.821 402.493 -712.542C350.58 -760.987 298.574 -784.567 247.935 -782.621C188.219 -781.486 123.116 -744.408 73.0699 -712.232C-13.4331 -672.678 -89.0859 -617.157 -134.433 -559.941C-170.065 -522.617 -198.595 -489.681 -221.91 -450.378C-264.057 -397.37 -286.359 -320.19 -286.359 -227.251C-286.359 -216.13 -286.028 -204.659 -285.376 -193.166C-282.529 -135.08 -272.462 -76.2463 -255.451 -18.3069C-238.219 40.4022 -214.243 96.8369 -184.195 149.438C-164.847 199.464 -129.603 265.235 -71.8611 293.915C-5.07555 337.69 59.2175 320.992 165.733 293.327C171.837 291.733 178.081 290.114 184.481 288.463C192.854 285.727 200.912 283.154 208.701 280.659C297.103 252.376 350.465 235.303 406.238 137.386C458.332 63.9156 516.568 -72.5815 538.255 -153.938C567.688 -215.269 580.838 -267.887 580.838 -324.426Z" fill="#FFEDC2"/>
<path d="M-281.802 -237.099C-281.802 -326.477 -258.587 -399.922 -214.67 -449.486C-188.743 -487.259 -156.24 -518.802 -121.828 -552.196C-75.5084 -605.648 -4.12058 -659.465 74.0641 -699.882C125.902 -736.341 186.456 -774.101 242.904 -777.971C292.418 -782.274 343.31 -760.901 394.159 -714.442C471.633 -647.542 534.723 -535.528 562.938 -414.795C570.143 -383.628 573.646 -354.498 573.646 -325.732C573.646 -266.545 558.885 -211.422 525.782 -147.009C502.037 -70.5748 447.976 50.6942 398.523 121.512C342.131 219.423 287.193 240.994 196.17 276.736L192.869 278.034L190.162 278.896C84.8015 312.408 21.2046 332.641 -45.3906 292.115C-103.14 265.51 -141.923 201.417 -164.3 152.331C-230.541 45.6745 -271.644 -77.4292 -280.087 -194.381C-281.225 -208.867 -281.802 -223.236 -281.802 -237.099ZM574.694 -325.732C574.694 -354.624 571.175 -383.877 563.939 -415.167C535.661 -536.183 472.415 -648.465 394.763 -715.522C343.713 -762.152 292.601 -783.609 242.841 -779.29C186.181 -775.404 125.499 -737.565 73.6064 -701.069C-4.62781 -660.63 -76.1261 -606.721 -122.502 -553.204C-156.921 -519.805 -189.465 -488.224 -215.414 -450.412C-259.516 -400.646 -282.848 -326.864 -282.848 -237.099C-282.848 -223.194 -282.269 -208.78 -281.126 -194.255C-272.67 -77.0568 -231.483 46.2926 -165.163 153.066C-142.744 202.261 -103.796 266.609 -45.7986 293.332C21.0919 334.036 84.8285 313.761 190.417 280.172L193.151 279.3L196.483 277.992C287.714 242.171 342.773 220.55 399.337 122.339C448.835 51.449 502.98 -69.9865 526.709 -146.413C559.877 -210.928 574.694 -266.272 574.694 -325.732Z" fill="#FFEDC2"/>
<path d="M-279.171 -244.338C-279.171 -331.152 -254.885 -401.688 -208.939 -448.329C-185.888 -477.332 -157.741 -502.319 -127.947 -528.774C-122.256 -533.825 -116.466 -538.969 -110.584 -544.246C-62.5318 -594.581 4.78595 -646.787 74.1328 -687.496C124.742 -726.317 183.677 -766.845 237.476 -773.357C286.121 -780.031 336.151 -760.788 386.174 -716.152C466.094 -648.177 530.269 -533.682 557.841 -409.878C564.341 -380.398 567.504 -352.816 567.504 -325.562C567.504 -263.576 551.03 -205.894 514.088 -138.544C488.494 -67.8245 438.151 39.2794 391.361 107.339C336.843 200.701 283.102 230.95 201.071 269.686C105.993 307.038 44.4308 328.122 -19.9582 292.306C-77.96 267.657 -120.502 204.983 -145.986 156.744C-219.068 47.7002 -265.443 -77.0117 -276.608 -194.496C-278.31 -211.482 -279.171 -228.251 -279.171 -244.338ZM568.55 -325.562C568.55 -352.938 565.378 -380.631 558.853 -410.233C531.207 -534.334 466.879 -649.097 386.769 -717.234C336.539 -762.054 286.27 -781.381 237.37 -774.67C183.366 -768.132 124.3 -727.52 73.6391 -688.66C4.26513 -647.936 -63.1338 -595.668 -111.224 -545.288C-117.07 -540.043 -122.86 -534.902 -128.549 -529.853C-158.384 -503.363 -186.559 -478.344 -209.637 -449.311C-231.807 -426.808 -249.158 -398.291 -261.166 -364.594C-273.806 -329.122 -280.215 -288.662 -280.215 -244.338C-280.215 -228.196 -279.35 -211.375 -277.645 -194.335C-266.46 -76.6024 -219.997 48.3576 -146.822 157.536C-121.284 205.881 -78.5732 268.783 -20.3392 293.534C44.3496 329.521 106.069 308.388 201.409 270.931C283.65 232.106 337.513 201.778 392.18 108.158C439.008 40.0486 489.418 -67.1918 514.994 -137.896C552.017 -205.381 568.55 -263.291 568.55 -325.562Z" fill="#FFEDC2"/>
<path d="M-275.658 -251.271C-275.658 -336.131 -250.279 -404.27 -202.264 -448.31C-181.208 -471.192 -156.386 -490.987 -130.105 -511.947C-119.834 -520.139 -109.211 -528.611 -98.4177 -537.575C-61.0949 -572.865 -0.723792 -625.608 75.0872 -676.601C126.921 -719.976 181.882 -761.33 232.893 -770.353C280.642 -779.434 329.8 -762.286 378.994 -719.388C461.354 -650.243 526.595 -533.11 553.511 -406.04C559.3 -378.468 562.238 -351.531 562.238 -325.987C562.238 -261.186 544.021 -200.978 503.174 -130.763C478.108 -71.2583 432.156 22.9332 385.009 92.8301C333.432 179.912 283.758 219.2 210.117 261.247C121.006 304.922 65.0193 321.737 6.36829 292.427C-51.7936 269.699 -98.1202 208.364 -126.746 160.904C-206.651 49.423 -258.286 -77.0862 -272.168 -195.371C-274.486 -214.521 -275.658 -233.328 -275.658 -251.271ZM563.284 -325.987C563.284 -351.645 560.335 -378.694 554.521 -406.378C542.035 -465.324 520.321 -524.603 491.729 -577.811C460.649 -635.645 421.865 -684.979 379.585 -720.478C330.168 -763.57 280.762 -780.792 232.74 -771.66C181.532 -762.599 126.45 -721.163 74.5552 -677.734C-1.2739 -626.733 -61.6923 -573.947 -99.0196 -538.653C-109.78 -529.718 -120.397 -521.251 -130.664 -513.059C-156.976 -492.077 -181.83 -472.257 -202.913 -449.345C-226.081 -428.095 -244.215 -400.803 -256.771 -368.255C-269.997 -333.973 -276.704 -294.616 -276.704 -251.271C-276.704 -233.261 -275.525 -214.389 -273.203 -195.178C-259.292 -76.6367 -207.564 50.1157 -127.551 161.746C-98.8573 209.312 -52.3661 270.856 6.02115 293.663C35.1156 308.214 65.069 311.75 100.243 304.78C135.578 297.773 174.125 280.302 210.521 262.463C284.346 220.31 334.133 180.928 385.825 93.647C433.004 23.7104 479.008 -70.5804 504.053 -130.066C545.006 -200.437 563.284 -260.888 563.284 -325.987Z" fill="#FFEDC2"/>
<path d="M-273.025 -256.856C-273.025 -340.006 -246.536 -405.933 -196.417 -447.511C-176.84 -465.812 -154.311 -481.693 -130.461 -498.507C-116.4 -508.42 -101.855 -518.671 -87.1075 -529.984C-77.3267 -538.245 -67.1403 -546.925 -56.5663 -555.935C-17.2246 -589.459 27.3657 -627.452 75.1629 -664.579C133.507 -717.714 181.71 -755.295 227.396 -766.082C274.228 -777.563 322.503 -762.543 370.873 -721.431C454.392 -652.276 522.339 -529.679 548.209 -401.481C553.437 -375.339 556.092 -349.776 556.092 -325.505C556.092 -257.127 536.711 -196.468 491.293 -122.676C478.069 -95.8142 430.894 -2.11812 377.708 78.2875C330.963 155.807 284.768 206.279 218.244 252.531C158.707 289.409 94.9002 319.752 31.8098 292.216C-14.2949 275.774 -62.7547 231.766 -108.359 164.934C-195.065 51.2673 -251.949 -76.8586 -268.547 -195.85C-271.517 -216.851 -273.025 -237.374 -273.025 -256.856ZM557.14 -325.505C557.14 -349.882 554.474 -375.555 549.218 -401.804C537.078 -461.978 515.249 -522.614 486.09 -577.166C454.446 -636.368 414.805 -686.631 371.452 -722.528C322.848 -763.838 274.312 -778.928 227.2 -767.374C181.325 -756.548 133.014 -718.887 74.5815 -665.676C26.7977 -628.561 -17.8016 -590.558 -57.1522 -557.027C-67.724 -548.019 -77.9104 -539.341 -87.6686 -531.096C-102.383 -519.813 -116.916 -509.567 -130.97 -499.659C-154.852 -482.82 -177.408 -466.919 -197.017 -448.591C-221.203 -428.528 -240.124 -402.377 -253.243 -370.875C-267.064 -337.688 -274.071 -299.328 -274.071 -256.856C-274.071 -237.298 -272.559 -216.694 -269.577 -195.62C-252.943 -76.3747 -195.962 51.9918 -109.132 165.817C-63.4128 232.818 -14.7772 276.978 31.4966 293.474C59.2072 305.568 88.3038 307.574 120.414 299.571C148.097 292.678 179.337 278.104 218.726 253.699C285.413 207.336 331.703 156.762 378.533 79.1063C431.739 -1.33646 478.946 -95.1021 492.148 -121.924C537.691 -195.907 557.14 -256.812 557.14 -325.505Z" fill="#FFEDC2"/>
<path d="M-270.389 -261.893C-270.389 -342.527 -242.001 -408.277 -190.455 -447.032C-172.016 -461.782 -151.176 -474.608 -129.109 -488.189C-111.703 -498.903 -93.6992 -509.982 -75.5739 -522.798C-32.0305 -555.317 15.035 -598.083 64.8652 -643.354L75.601 -653.107C123.512 -700.559 174.303 -748.077 222.397 -762.462C268.342 -776.375 315.777 -763.462 363.381 -724.077C449.372 -653.809 518.462 -528.555 543.69 -397.191C548.428 -372.353 550.827 -348.043 550.827 -324.935C550.827 -235.54 515.1 -168.423 480.15 -114.563C460.101 -79.8697 419.298 -10.5823 371.048 63.9851C332.662 126.314 288.636 191.28 226.862 244.241C162.476 295.864 108.684 311.19 57.5839 292.461C10.7686 277.333 -38.8022 235.893 -89.7688 169.286C-183.352 53.3929 -245.535 -76.4688 -264.871 -196.379C-268.533 -219.035 -270.389 -241.076 -270.389 -261.893ZM551.874 -324.935C551.874 -348.145 549.463 -372.561 544.71 -397.501C519.416 -529.18 450.157 -654.74 363.952 -725.182C316.102 -764.773 268.389 -777.748 222.155 -763.748C173.854 -749.298 122.96 -701.689 74.9719 -654.164L64.2518 -644.426C14.4442 -599.168 -32.6033 -556.424 -76.097 -523.942C-94.1863 -511.148 -112.174 -500.08 -129.569 -489.376C-151.661 -475.775 -172.528 -462.934 -191.003 -448.154C-216.238 -429.181 -235.983 -404.045 -249.684 -373.447C-264.118 -341.204 -271.438 -303.673 -271.438 -261.893C-271.438 -240.992 -269.573 -218.859 -265.897 -196.118C-246.516 -75.9549 -184.229 54.15 -90.513 170.217C-39.4178 236.988 10.3199 278.552 57.3065 293.739C108.699 312.568 162.764 297.195 227.437 245.341C289.344 192.268 333.44 127.213 371.867 64.8068C420.121 -9.77544 460.938 -79.0827 480.975 -113.754C516.029 -167.767 551.874 -235.121 551.874 -324.935Z" fill="#FFEDC2"/>
<path d="M-267.757 -266.299C-267.757 -345.793 -238.177 -409.745 -184.464 -446.375C-166.975 -458.258 -147.476 -468.6 -126.836 -479.55C-106.34 -490.418 -85.1476 -501.658 -64.0246 -515.408C-23.0421 -542.089 18.8452 -579.767 76.0303 -641.392C124.57 -693.637 171.906 -741.907 217.362 -758.557C262.403 -774.906 308.99 -764.105 355.835 -726.449C444.293 -655.095 514.511 -527.224 539.093 -392.738C543.386 -369.133 545.559 -346.004 545.559 -323.99C545.559 -231.236 506.821 -161.937 468.929 -106.386C462.754 -97.3499 456.404 -88.1153 449.891 -78.6524C423.944 -40.9274 394.533 1.82692 364.325 49.6702C357.171 61.0024 349.871 72.7888 342.809 84.1905C309.827 137.438 275.725 192.495 235.448 235.895C187.951 287.04 133.94 307.189 83.3691 292.63C36.566 279.036 -15.4213 238.995 -71.1513 173.614C-171.593 55.5759 -239.075 -75.9765 -261.163 -196.822C-265.54 -220.956 -267.757 -244.333 -267.757 -266.299ZM546.608 -323.99C546.608 -346.101 544.424 -369.331 540.117 -393.033C515.473 -527.845 445.078 -656.029 356.397 -727.561C309.29 -765.43 262.414 -776.283 217.073 -759.823C171.419 -743.099 123.979 -694.734 75.3513 -642.395C18.227 -580.839 -23.597 -543.211 -64.5051 -516.582C-85.592 -502.855 -106.765 -491.624 -127.242 -480.764C-147.907 -469.804 -167.426 -459.45 -184.962 -447.532C-211.26 -429.597 -231.835 -405.413 -246.122 -375.642C-261.17 -344.269 -268.804 -307.483 -268.804 -266.299C-268.804 -244.233 -266.575 -220.757 -262.185 -196.527C-251.185 -136.353 -228.871 -73.2979 -195.859 -9.10308C-163.11 54.5754 -121.393 116.37 -71.8642 174.579C-15.9988 240.117 36.1509 280.268 83.1344 293.918C134.034 308.572 188.375 288.323 236.132 236.895C276.483 193.414 310.623 138.299 343.637 85.0022C350.694 73.603 357.992 61.8216 365.146 50.4993C395.336 2.66603 424.738 -40.0735 450.682 -77.7911C457.191 -87.2466 463.546 -96.491 469.723 -105.524C507.746 -161.264 546.608 -230.804 546.608 -323.99Z" fill="#FFEDC2"/>
<path d="M-254.592 -268.024C-254.592 -347.169 -226.365 -410.126 -175.107 -445.299C-156.957 -457.768 -136.93 -468.309 -115.729 -479.465C-96.857 -489.397 -77.3418 -499.667 -57.6913 -512.075C-48.4966 -517.928 -38.9432 -524.567 -29.2951 -531.808C2.69773 -555.819 36.2655 -586.705 79.5491 -631.951C127.077 -681.478 173.42 -727.221 217.927 -742.78C261.95 -758.053 307.339 -747.351 352.834 -710.974C405.301 -669.08 449.848 -607.955 481.662 -534.211C502.419 -487.13 517.922 -435.158 526.507 -383.9C530.415 -361.337 532.397 -339.161 532.397 -317.995C532.397 -261.124 518.624 -208.446 489.052 -152.225C480.904 -136.835 471.441 -120.936 460.123 -103.629C451.301 -89.9602 442.174 -76.0229 432.515 -61.2637C410.867 -28.1771 386.327 9.31179 361.194 49.9965C357.103 56.6634 353.001 63.3875 348.876 70.1513C320.818 116.145 291.806 163.71 258.712 204.193C250.856 213.813 242.954 222.809 235.224 230.923C188.804 279.842 135.989 299.063 86.5144 285.054C40.3517 271.914 -10.5628 233.374 -64.8146 170.523C-101.496 128.679 -134.664 81.1735 -163.401 29.3276C-183.593 -6.67158 -201.225 -44.317 -215.803 -82.5583C-230.408 -120.966 -240.657 -157.854 -248.051 -198.658C-252.39 -222.659 -254.592 -246 -254.592 -268.024ZM533.441 -317.995C533.441 -339.255 531.456 -361.526 527.53 -384.179C518.928 -435.558 503.38 -487.659 482.578 -534.845C450.68 -608.782 406.009 -670.076 353.396 -712.089C307.644 -748.674 261.971 -759.426 217.649 -744.051C172.939 -728.423 126.499 -682.591 78.8812 -632.967C35.6382 -587.766 2.11109 -556.916 -29.8298 -532.94C-39.4577 -525.717 -48.9885 -519.092 -58.1606 -513.252C-77.7795 -500.867 -97.2767 -490.607 -116.131 -480.684C-137.361 -469.513 -157.408 -458.96 -175.608 -446.456C-227.215 -411.043 -255.639 -347.673 -255.639 -268.024C-255.639 -245.9 -253.427 -222.465 -249.073 -198.37C-241.658 -157.467 -231.385 -120.482 -216.746 -81.9872C-202.143 -43.6788 -184.482 -5.97382 -164.256 30.0874C-135.477 82.0078 -102.256 129.59 -65.5208 171.502C-11.136 234.506 39.941 273.145 86.2865 286.342C136.086 300.439 189.221 281.123 235.896 231.939C243.644 223.8 251.567 214.784 259.437 205.142C292.589 164.594 321.624 116.994 349.706 70.9558C353.829 64.192 357.931 57.4655 362.024 50.806C387.146 10.1362 410.621 -25.7339 433.322 -60.427C442.984 -75.1837 452.111 -89.1209 460.933 -102.793C472.274 -120.137 481.755 -136.065 489.918 -151.493C519.614 -207.942 533.441 -260.848 533.441 -317.995Z" fill="#FFEDC2"/>
<path d="M-241.427 -270.292C-241.427 -348.945 -214.581 -410.812 -165.834 -444.494C-146.994 -457.585 -126.444 -468.297 -104.685 -479.64C-87.4727 -488.612 -69.6744 -497.887 -51.5741 -508.952C-42.6434 -514.497 -33.3183 -520.802 -23.8511 -527.696C7.5483 -550.554 40.4106 -579.826 82.695 -622.609C129.147 -669.375 174.443 -712.548 217.958 -727.002C260.923 -741.177 305.063 -730.59 349.157 -695.521C401.177 -654.403 443.872 -594.424 472.632 -522.073C491.6 -476.481 505.196 -427.137 513.038 -375.399C516.564 -353.918 518.349 -332.749 518.349 -312.482C518.349 -256.868 505.401 -204.98 477.606 -149.18C469.965 -134.022 461.104 -118.416 450.517 -101.467C438.388 -81.4992 425.476 -60.7601 411.805 -38.8102C394.415 -10.8852 376.434 17.9851 357.369 49.5824L355.354 52.9595C325.235 103.539 294.088 155.833 257.522 199.448C249.835 208.634 242.07 217.251 234.454 225.04C189.16 271.679 137.607 289.962 89.286 276.511C43.8098 263.833 -5.97395 226.847 -58.6857 166.587C-94.706 126.692 -126.162 80.7009 -154.865 25.9849C-173.766 -9.2104 -190.056 -45.7431 -204.676 -85.6951C-217.878 -121.952 -226.931 -156.44 -234.94 -201.005C-239.245 -224.876 -241.427 -248.185 -241.427 -270.292ZM519.397 -312.482C519.397 -332.839 517.603 -354.094 514.069 -375.657C506.204 -427.512 492.574 -476.98 473.558 -522.673C444.722 -595.23 401.898 -655.393 349.714 -696.64C305.367 -731.905 260.95 -742.552 217.692 -728.277C173.986 -713.759 128.588 -670.494 82.0414 -623.637C39.7998 -580.898 6.97804 -551.66 -24.3741 -528.837C-33.8209 -521.959 -43.1281 -515.669 -52.0362 -510.135C-70.105 -499.091 -87.8874 -489.821 -105.084 -480.858C-126.867 -469.506 -147.447 -458.776 -166.336 -445.65C-190.306 -429.087 -209.117 -405.606 -222.244 -375.855C-235.668 -345.436 -242.473 -309.919 -242.473 -270.292C-242.473 -248.089 -240.279 -224.68 -235.958 -200.713C-227.932 -156.051 -218.861 -121.486 -205.623 -85.1442C-190.98 -45.1252 -174.663 -8.53296 -155.735 26.7194C-126.985 81.5297 -95.4657 127.606 -59.3823 167.57C-6.53974 227.983 43.404 265.074 89.0583 277.798C137.699 291.339 189.57 272.967 235.114 226.063C242.755 218.251 250.53 209.616 258.241 200.403C294.868 156.717 326.042 104.373 356.192 53.7461L358.201 50.3814C377.259 18.7989 395.242 -10.0738 412.628 -37.9963C426.301 -59.9512 439.215 -80.6878 451.346 -100.66C461.945 -117.632 470.826 -133.272 478.49 -148.473C506.398 -204.494 519.397 -256.61 519.397 -312.482Z" fill="#FFEDC2"/>
<path d="M-228.259 -272.76C-228.259 -349.872 -202.09 -412.324 -156.463 -444.106C-136.857 -457.902 -115.741 -468.781 -93.3844 -480.301C-77.825 -488.318 -61.7426 -496.603 -45.2319 -506.362C-36.546 -511.624 -27.434 -517.609 -18.1507 -524.152C12.6908 -545.896 44.8804 -573.609 86.2203 -614.012C131.645 -658.104 175.94 -698.791 218.522 -712.172C260.478 -725.279 303.42 -714.775 346.156 -680.961C397.787 -640.54 438.678 -581.596 464.416 -510.493C481.35 -467.044 493.467 -418.83 500.449 -367.175C503.596 -346.766 505.185 -326.598 505.185 -307.22C505.185 -252.743 493.048 -201.511 466.992 -145.98C459.837 -131.017 451.57 -115.668 441.714 -99.0628C425.048 -69.7399 406.497 -38.504 386.862 -5.43461C376.352 12.2565 365.489 30.5489 354.231 49.6959C325.348 99.8155 294.049 152.355 256.914 195.506C249.364 204.31 241.735 212.556 234.23 220.024C190.019 264.474 139.661 281.845 92.4399 268.929C47.5968 256.691 -1.11245 221.182 -52.3398 163.395C-88.0304 124.99 -117.86 80.425 -146.219 23.1281C-163.544 -10.689 -179.004 -47.2167 -193.492 -88.5689C-206.998 -127.357 -214.101 -160.007 -221.811 -203.299C-226.09 -227.119 -228.259 -250.487 -228.259 -272.76ZM506.231 -307.22C506.231 -326.68 504.63 -346.933 501.474 -367.416C494.479 -419.176 482.328 -467.511 465.36 -511.06C439.546 -582.383 398.515 -641.526 346.708 -682.081C303.727 -716.092 260.511 -726.648 218.27 -713.449C175.494 -700.013 131.095 -659.242 85.5823 -615.06C44.2807 -574.694 12.1318 -547.014 -18.6579 -525.305C-27.9254 -518.774 -37.0171 -512.804 -45.6805 -507.552C-62.1642 -497.816 -78.2353 -489.53 -93.7766 -481.523C-116.167 -469.988 -137.312 -459.092 -156.97 -445.261C-202.94 -413.241 -229.307 -350.366 -229.307 -272.76C-229.307 -250.39 -227.127 -226.923 -222.832 -203.009C-215.109 -159.642 -207.988 -126.922 -194.45 -88.0348C-179.937 -46.6204 -164.452 -10.0282 -147.101 23.8312C-118.689 81.2399 -88.7946 125.901 -53.0274 164.387C-1.67601 222.324 47.1956 257.93 92.219 270.218C139.756 283.214 190.422 265.761 234.884 221.057C242.402 213.575 250.054 205.302 257.621 196.477C294.827 153.242 326.164 100.645 355.074 50.476C366.327 31.3389 377.191 13.0441 387.696 -4.64705C407.34 -37.7189 425.891 -68.9598 442.553 -98.2828C452.429 -114.918 460.714 -130.304 467.89 -145.302C494.049 -201.048 506.231 -252.497 506.231 -307.22Z" fill="#FFEDC2"/>
<path d="M-215.971 -275.265C-215.971 -351.742 -191.156 -412.981 -147.882 -443.283C-127.429 -457.806 -105.704 -468.803 -82.7036 -480.449C-68.8029 -487.487 -54.4258 -494.766 -39.5453 -503.214C-31.1051 -508.172 -22.1998 -513.822 -13.0734 -520.018C17.2406 -540.596 48.7962 -566.695 89.2479 -604.648C131.921 -644.334 177.066 -684.109 218.745 -696.368C259.746 -708.381 301.541 -697.991 342.97 -665.49C394.27 -625.851 433.408 -568.053 456.153 -498.346C471.072 -457.232 481.731 -410.245 487.847 -358.666C490.614 -339.404 492.018 -320.313 492.018 -301.912C492.018 -248.649 480.677 -198.127 456.329 -142.921C449.664 -128.192 441.975 -113.138 432.828 -96.8869C408.957 -51.8909 380.767 -2.74899 350.92 49.2801C325.249 95.279 293.899 148.053 256.012 190.747C248.599 199.143 241.093 207.008 233.691 214.135C190.51 256.316 141.291 272.743 95.1012 260.383C50.8368 248.616 3.14348 214.654 -46.656 159.448C-82.2634 122.358 -110.539 79.2865 -138.35 19.7825C-154.311 -12.843 -168.544 -48.2688 -183.144 -91.6959C-196.438 -131.573 -202.02 -163.121 -209.093 -203.07L-209.544 -205.635C-213.811 -229.392 -215.971 -252.818 -215.971 -275.265ZM493.066 -301.912C493.066 -320.392 491.659 -339.56 488.878 -358.882C482.752 -410.563 472.063 -457.669 457.113 -498.869C434.295 -568.818 395.011 -626.827 343.518 -666.612C301.85 -699.305 259.789 -709.751 218.511 -697.654C176.637 -685.335 131.384 -645.476 88.6249 -605.708C48.2138 -567.792 16.6989 -541.726 -13.5677 -521.178C-22.6806 -514.996 -31.5656 -509.353 -39.981 -504.413C-54.8344 -495.977 -69.2001 -488.706 -83.0941 -481.673C-106.126 -470.012 -127.885 -458.997 -148.393 -444.435C-192.007 -413.895 -217.018 -352.233 -217.018 -275.265C-217.018 -252.721 -214.851 -229.196 -210.567 -205.344L-210.115 -202.782C-203.032 -162.773 -197.438 -131.176 -184.108 -91.1821C-169.488 -47.688 -155.232 -12.2149 -139.246 20.4602C-111.376 80.0983 -83.0264 123.27 -47.3355 160.451C2.58814 215.796 50.4417 249.852 94.8867 261.674C141.381 274.114 190.903 257.6 234.332 215.183C241.75 208.036 249.281 200.139 256.714 191.728C294.678 148.949 326.069 96.1032 351.771 50.0446C381.62 -1.98441 409.817 -51.1412 433.688 -96.1521C442.846 -112.41 450.557 -127.499 457.244 -142.273C481.686 -197.693 493.066 -248.419 493.066 -301.912Z" fill="#FFEDC2"/>
<path d="M-202.806 -277.493C-202.806 -353.313 -179.398 -413.34 -138.58 -442.189C-117.277 -457.51 -94.9894 -468.595 -71.3913 -480.33C-59.1842 -486.399 -46.5644 -492.672 -33.4103 -499.858C-25.1061 -504.588 -16.6711 -509.768 -7.61382 -515.688C22.0856 -535.111 52.9327 -559.627 92.3974 -595.173C134.015 -632.251 178.059 -669.386 218.775 -680.556C258.714 -691.481 299.258 -681.194 339.273 -649.973C390.117 -611.077 427.404 -554.375 447.101 -485.989C460.172 -446.748 469.09 -402.211 474.37 -349.804C476.765 -331.722 477.973 -313.747 477.973 -296.355C477.973 -244.221 467.457 -194.315 444.876 -139.306C438.714 -124.788 431.623 -110.01 423.208 -94.1233C403.576 -54.0654 380.1 -9.73892 347.079 49.613C314.791 109.71 285.477 153.329 254.82 186.881C247.562 194.879 240.193 202.371 232.915 209.162C190.877 249.108 142.924 264.605 97.8786 252.808C54.9123 241.646 7.05775 208.298 -40.5059 156.368C-85.4722 110.869 -111.839 58.078 -129.785 17.1733C-148.343 -22.8251 -162.088 -63.3647 -171.986 -94.2127C-182.963 -128.773 -187.675 -156.413 -193.127 -188.413C-194.171 -194.539 -195.249 -200.861 -196.408 -207.464C-200.653 -231.235 -202.806 -254.795 -202.806 -277.493ZM479.022 -296.355C479.022 -313.819 477.806 -331.866 475.407 -349.996C470.113 -402.499 461.171 -447.146 448.078 -486.469C428.306 -555.11 390.868 -612.048 339.823 -651.098C299.567 -682.5 258.761 -692.847 218.552 -681.842C177.644 -670.621 133.501 -633.403 91.7931 -596.251C52.3645 -560.739 21.5602 -536.253 -8.09409 -516.86C-17.1333 -510.95 -25.5525 -505.78 -33.8342 -501.065C-46.9635 -493.893 -59.5765 -487.621 -71.7724 -481.557C-95.4088 -469.804 -117.733 -458.707 -139.097 -443.337C-180.248 -414.254 -203.853 -353.805 -203.853 -277.493C-203.853 -254.698 -201.693 -231.038 -197.427 -207.178C-196.27 -200.578 -195.194 -194.258 -194.148 -188.14C-188.685 -156.078 -183.968 -128.388 -172.956 -93.7235C-163.042 -62.8284 -149.281 -22.2316 -130.695 17.8264C-112.707 58.8229 -86.2726 111.746 -41.1779 157.381C6.50759 209.447 54.5222 242.893 97.6666 254.097C143.007 265.981 191.265 250.397 233.539 210.22C240.833 203.409 248.227 195.897 255.507 187.879C286.23 154.242 315.605 110.554 347.938 50.3579C380.972 -9.00644 404.455 -53.3428 424.087 -93.4107C432.513 -109.31 439.62 -124.127 445.8 -138.686C468.465 -193.906 479.022 -244.003 479.022 -296.355Z" fill="#FFEDC2"/>
<path d="M-189.64 -280.317C-189.64 -354.18 -167.035 -414.367 -129.176 -441.327C-106.959 -457.489 -84.0748 -468.587 -59.8487 -480.338C-49.3253 -485.442 -38.4457 -490.721 -27.0451 -496.669C-19.0066 -501.092 -10.7832 -505.948 -1.8923 -511.513C26.8345 -529.514 57.9198 -553.109 95.9343 -585.773C136.54 -620.206 179.524 -654.664 219.344 -664.727C258.274 -674.557 297.615 -664.38 336.272 -634.477C386.713 -596.367 422.195 -540.815 438.881 -473.825C450.079 -436.74 457.346 -394.635 461.759 -341.281C463.784 -324.459 464.807 -307.684 464.807 -291.396C464.807 -240.399 455.093 -191.099 434.25 -136.236C428.585 -121.948 422.091 -107.455 414.384 -91.9433C395.024 -48.9504 371.982 -2.78923 343.936 49.2001C315.191 104.802 285.01 149.522 254.216 182.124C247.108 189.708 239.868 196.827 232.7 203.28C191.756 240.954 145.007 255.508 101.046 244.263C58.6977 233.57 11.9525 201.814 -34.1366 152.427C-78.3745 109.055 -102.928 58.0305 -121.108 13.8417C-137.332 -23.0476 -149.761 -61.3908 -160.773 -97.3248C-170.145 -128.269 -173.944 -152.227 -178.346 -179.964C-179.836 -189.374 -181.383 -199.103 -183.241 -209.767C-187.487 -233.583 -189.64 -257.317 -189.64 -280.317ZM465.856 -291.396C465.856 -307.754 464.828 -324.593 462.796 -341.447C458.379 -394.888 451.089 -437.099 439.866 -474.254C423.12 -541.525 387.477 -597.33 336.815 -635.606C297.93 -665.685 258.34 -675.917 219.139 -666.02C179.131 -655.907 136.046 -621.372 95.348 -586.865C57.3719 -554.236 26.3249 -530.667 -2.35906 -512.694C-11.2319 -507.136 -19.4418 -502.291 -27.4533 -497.882C-38.8312 -491.945 -49.7064 -486.67 -60.223 -481.569C-84.4897 -469.801 -107.41 -458.683 -129.695 -442.471C-149.238 -428.557 -164.548 -406.74 -175.198 -377.637C-185.331 -349.95 -190.686 -316.296 -190.686 -280.317C-190.686 -257.221 -188.526 -233.387 -184.262 -209.484C-182.404 -198.825 -180.862 -189.104 -179.371 -179.703C-174.961 -151.907 -171.155 -127.9 -161.75 -96.8534C-150.721 -60.8673 -138.277 -22.4819 -122.031 14.4645C-103.802 58.7649 -79.175 109.936 -34.795 153.444C11.4091 202.96 58.3167 234.815 100.839 245.554C145.092 256.875 192.137 242.241 233.309 204.347C240.497 197.876 247.762 190.733 254.888 183.131C285.757 150.45 316.014 105.628 344.806 49.937C372.866 -2.08215 395.919 -48.2706 415.284 -91.266C422.993 -106.79 429.505 -121.325 435.185 -135.656C456.11 -190.717 465.856 -240.195 465.856 -291.396Z" fill="#FFEDC2"/>
<path d="M-176.474 -282.947C-176.474 -355.901 -155.274 -414.688 -119.763 -440.206C-96.5942 -457.267 -74.212 -467.809 -48.294 -480.019C-39.4413 -484.188 -30.2841 -488.498 -20.6737 -493.283C-12.8695 -497.415 -4.85779 -501.954 3.83487 -507.155C31.9761 -524.003 62.3655 -545.965 99.4745 -576.265C139.062 -608.09 180.971 -639.911 219.914 -648.877C257.843 -657.618 295.981 -647.545 333.268 -618.929C383.306 -581.569 416.981 -527.11 430.648 -461.444C442.572 -417.068 446.795 -369.173 449.147 -332.4C450.805 -316.907 451.648 -301.415 451.648 -286.309C451.648 -236.335 442.737 -187.494 423.613 -132.598C418.454 -118.523 412.548 -104.303 405.562 -89.1504C387.013 -43.8784 365.831 1.48038 340.795 49.5467C314.82 101.978 284.677 146.478 253.613 178.258C246.65 185.442 239.54 192.185 232.482 198.312C192.652 233.747 147.098 247.373 104.219 236.675C51.4878 223.741 3.34554 182.037 -27.7564 149.345C-71.5061 107.753 -94.3032 58.3837 -112.426 11.2331C-127.126 -24.2142 -137.933 -60.0362 -149.546 -99.8263C-157.734 -128.256 -160.789 -149.625 -164.329 -174.371C-165.98 -185.918 -167.689 -197.862 -170.064 -211.581C-174.319 -235.528 -176.474 -259.54 -176.474 -282.947ZM452.69 -286.309C452.69 -301.474 451.849 -317.027 450.189 -332.539C447.835 -369.354 443.6 -417.353 431.649 -461.828C417.919 -527.787 384.082 -582.522 333.807 -620.061C296.298 -648.845 257.913 -658.977 219.724 -650.173C180.599 -641.164 138.584 -609.273 98.9085 -577.377C61.8378 -547.104 31.4845 -525.169 3.38841 -508.346C-5.29298 -503.152 -13.2911 -498.623 -21.0661 -494.504C-30.6584 -489.729 -39.8111 -485.419 -48.6594 -481.252C-74.6223 -469.023 -97.0452 -458.466 -120.284 -441.345C-156.124 -415.599 -177.521 -356.382 -177.521 -282.947C-177.521 -259.441 -175.356 -235.335 -171.085 -211.295C-168.715 -197.602 -167.01 -185.673 -165.36 -174.136C-161.811 -149.327 -158.746 -127.906 -150.529 -99.3771C-138.903 -59.5324 -128.079 -23.6732 -113.359 11.8262C-95.1849 59.1083 -72.3133 108.634 -28.4058 150.377C2.77054 183.157 51.0706 224.977 104.018 237.975C147.182 248.741 193.017 235.039 233.08 199.396C240.163 193.252 247.293 186.479 254.276 179.28C285.423 147.414 315.646 102.797 341.674 50.254C366.726 2.16777 387.924 -43.2282 406.48 -88.5176C413.468 -103.678 419.389 -117.93 424.569 -132.055C443.756 -187.134 452.69 -236.149 452.69 -286.309Z" fill="#FFEDC2"/>
<path d="M-164.186 -286.417C-164.186 -358.373 -144.382 -415.721 -111.211 -439.816C-87.0867 -457.831 -64.1845 -468.247 -37.67 -480.306C-30.4545 -483.589 -22.9956 -486.983 -15.1691 -490.683C-7.61539 -494.524 0.186311 -498.749 8.69603 -503.599C36.232 -519.303 65.9235 -539.649 102.143 -567.628C140.691 -596.88 181.515 -626.094 219.597 -633.966C256.524 -641.627 293.463 -631.64 329.378 -604.289C379.006 -567.638 410.869 -514.222 421.526 -449.81C430.286 -412.16 433.503 -372.34 435.638 -324.122C436.942 -310.073 437.602 -295.969 437.602 -282.168C437.602 -233.088 429.494 -184.529 412.089 -129.354C407.435 -115.458 402.118 -101.501 395.843 -86.6989C378.641 -39.9567 359.319 4.64597 336.76 49.6935C312.96 100.071 283.699 143.165 252.127 174.335C245.309 181.129 238.337 187.505 231.389 193.297C192.67 226.542 148.326 239.256 106.519 229.091C54.5592 216.717 7.81891 177.17 -22.2447 146.172C-63.2758 108.308 -84.8387 63.7055 -104.6 8.38565C-117.883 -25.7584 -127.532 -60.6131 -137.746 -97.5153L-139.178 -102.691C-146.447 -129.314 -148.876 -148.787 -151.685 -171.34C-153.304 -184.325 -154.975 -197.751 -157.744 -213.878C-162.019 -238.067 -164.186 -262.471 -164.186 -286.417ZM438.646 -282.168C438.646 -296.019 437.986 -310.172 436.68 -324.236C434.545 -372.507 431.318 -412.411 422.542 -450.128C411.83 -514.865 379.798 -568.582 329.912 -605.423C293.783 -632.937 256.608 -642.983 219.43 -635.27C181.163 -627.359 140.238 -598.075 101.599 -568.756C65.4162 -540.804 35.7585 -520.484 8.26537 -504.802C-0.230815 -499.956 -8.01898 -495.745 -15.5456 -491.915C-23.3541 -488.223 -30.8131 -484.826 -38.024 -481.549C-64.5904 -469.465 -87.5332 -459.031 -111.739 -440.956C-145.232 -416.627 -165.232 -358.853 -165.232 -286.417C-165.232 -262.377 -163.056 -237.876 -158.768 -213.594C-156.006 -197.512 -154.335 -184.107 -152.72 -171.138C-149.902 -148.524 -147.467 -128.988 -140.17 -102.261L-138.731 -97.078C-128.508 -60.136 -118.848 -25.2441 -105.545 8.94225C-85.7248 64.4435 -64.0808 109.208 -22.8851 147.216C7.24844 178.289 54.1511 217.959 106.323 230.391C148.403 240.616 193.026 227.834 231.971 194.393C238.936 188.586 245.938 182.187 252.772 175.371C284.443 144.11 313.792 100.889 337.655 50.3843C360.228 5.30449 379.57 -39.3479 396.781 -86.11C403.054 -100.917 408.382 -114.909 413.059 -128.849C430.513 -184.206 438.646 -232.916 438.646 -282.168Z" fill="#FFEDC2"/>
<path d="M-151.02 -290.013C-151.02 -360.612 -132.607 -416.266 -101.758 -438.882C-76.7116 -457.81 -53.3587 -467.964 -26.3195 -479.723C-20.6875 -482.173 -14.8549 -484.711 -8.76757 -487.424C-1.45822 -490.971 6.13069 -494.869 14.4478 -499.352C41.354 -513.867 70.3478 -532.55 105.691 -558.157C143.189 -584.767 182.919 -611.317 220.162 -618.072C256.089 -624.63 291.817 -614.757 326.351 -588.729C375.566 -552.869 405.62 -500.613 413.269 -437.603C420.446 -400.756 421.871 -362.173 422.993 -315.56C423.952 -303.16 424.43 -290.678 424.43 -278.412C424.43 -230.222 417.123 -181.873 401.426 -126.256C397.275 -112.573 392.554 -98.9067 386.995 -84.4984C371.436 -36.8746 353.969 6.88155 333.597 49.2872C312.129 97.0301 282.98 139.739 251.512 169.573C244.843 175.96 237.998 181.961 231.169 187.405C193.579 218.381 150.44 230.148 109.702 220.546C58.5091 208.761 13.174 171.452 -15.8424 142.229C-56.6346 105.781 -77.3361 61.0392 -95.8755 5.07177C-106.977 -25.4328 -115.071 -56.5109 -123.638 -89.4161C-125.048 -94.8229 -126.466 -100.27 -127.913 -105.771C-134.442 -130.998 -136.411 -149.852 -138.492 -169.809C-139.944 -183.718 -141.443 -198.099 -144.523 -216.139C-148.833 -240.621 -151.02 -265.473 -151.02 -290.013ZM425.48 -278.412C425.48 -290.718 424.991 -303.244 424.035 -315.644C422.915 -362.292 421.487 -400.944 414.295 -437.859C406.603 -501.221 376.373 -553.805 326.883 -589.863C292.14 -616.051 256.182 -625.981 220.011 -619.38C182.592 -612.59 142.765 -585.981 105.172 -559.304C69.8654 -533.722 40.9031 -515.056 14.0352 -500.564C5.73163 -496.09 -1.84601 -492.195 -9.13282 -488.663C-15.1999 -485.954 -21.0303 -483.422 -26.6622 -480.972C-53.7555 -469.19 -77.1535 -459.012 -102.29 -440.021C-133.457 -417.167 -152.066 -361.088 -152.066 -290.013C-152.066 -265.379 -149.873 -240.428 -145.546 -215.859C-142.478 -197.876 -140.978 -183.519 -139.529 -169.64C-137.441 -149.619 -135.466 -130.705 -128.905 -105.361C-127.46 -99.855 -126.04 -94.4134 -124.633 -89.0066C-116.054 -56.0641 -107.953 -24.9438 -96.836 5.60057C-78.2312 61.7616 -57.4417 106.677 -16.4692 143.276C12.6149 172.574 58.1055 210.008 109.51 221.844C150.514 231.508 193.921 219.674 231.733 188.517C238.585 183.06 245.452 177.035 252.141 170.621C283.719 140.687 312.968 97.8369 334.501 49.95C354.894 7.50216 372.38 -36.3086 387.946 -83.9547C393.506 -98.3655 398.243 -112.064 402.407 -125.802C418.151 -181.578 425.48 -230.068 425.48 -278.412Z" fill="#FFEDC2"/>
<path d="M-137.854 -293.591C-137.854 -363.701 -121.244 -416.232 -92.2817 -437.71C-66.3892 -457.536 -43.8215 -466.846 -15.2466 -478.634C-11.0879 -480.347 -6.80291 -482.118 -2.35563 -483.977C4.72891 -487.24 12.1065 -490.822 20.2076 -494.929C46.4608 -508.259 74.7516 -525.304 109.243 -548.58C144.066 -571.533 184.281 -596.503 220.716 -602.141C255.641 -607.604 290.159 -597.831 323.312 -573.1C372.102 -537.998 400.338 -486.845 404.984 -425.165C410.155 -391.518 410.227 -355.329 410.297 -317.016L410.319 -306.628C410.948 -296.141 411.268 -285.559 411.268 -275.129C411.268 -227.598 404.747 -179.124 390.738 -122.578C387.098 -109.087 382.969 -95.692 378.116 -81.6716C364.199 -32.7305 349.047 8.98797 330.413 49.6538C310.813 95.7123 282.575 136.922 250.894 165.71C244.373 171.701 237.664 177.334 230.938 182.439C194.486 211.18 152.562 222.02 112.886 212.965C62.4601 201.763 18.5419 166.643 -9.41762 139.151C-54.5486 100.082 -72.5519 50.215 -87.1267 2.49052C-96.4563 -25.1008 -103.239 -53.1615 -110.42 -82.8608C-112.438 -91.213 -114.482 -99.6694 -116.614 -108.25C-122.534 -132.442 -123.981 -150.075 -125.516 -168.743C-126.706 -183.26 -127.941 -198.271 -131.27 -217.915C-135.578 -242.488 -137.854 -268.656 -137.854 -293.591ZM412.314 -275.129C412.314 -285.592 411.996 -296.208 411.363 -306.683L411.343 -317.019C411.268 -355.398 411.201 -391.647 406.016 -425.356C401.348 -487.416 372.929 -538.922 323.835 -574.242C290.489 -599.12 255.751 -608.949 220.59 -603.45C183.984 -597.784 143.668 -572.76 108.752 -549.744C74.2895 -526.49 46.0325 -509.463 19.8177 -496.158C11.7278 -492.049 4.36152 -488.474 -2.69823 -485.226C-7.12973 -483.369 -11.4147 -481.601 -15.5712 -479.888C-44.2069 -468.073 -66.8288 -458.742 -92.8159 -438.845C-122.101 -417.123 -138.9 -364.182 -138.9 -293.591C-138.9 -268.562 -136.615 -242.294 -132.294 -217.635C-128.976 -198.068 -127.745 -183.089 -126.555 -168.602C-125.018 -149.869 -123.561 -132.177 -117.613 -107.858C-115.481 -99.2721 -113.436 -90.8232 -111.421 -82.4785C-104.231 -52.737 -97.439 -24.6441 -88.0982 2.97711C-73.467 50.8828 -55.3871 100.956 -10.0352 140.216C17.9941 167.776 62.0657 203.011 112.703 214.261C152.632 223.375 194.817 212.471 231.488 183.566C238.23 178.439 244.968 172.793 251.504 166.777C283.312 137.88 311.661 96.5117 331.33 50.2993C349.982 9.57632 365.164 -32.2067 379.089 -81.1799C383.933 -95.2028 388.076 -108.622 391.73 -122.171C405.775 -178.863 412.314 -227.457 412.314 -275.129Z" fill="#FFEDC2"/>
<path d="M-125.565 -297.972C-125.565 -366.147 -110.258 -416.709 -83.5709 -436.688C-56.9218 -457.312 -35.2521 -465.682 -5.25771 -477.263C-2.43614 -478.355 0.455423 -479.471 3.43274 -480.629C10.3151 -483.605 17.4887 -486.861 25.38 -490.593C50.9728 -502.701 78.6039 -518.087 112.348 -539.018C154.326 -564.386 188.878 -582.118 221.003 -586.172C254.997 -590.522 288.357 -580.868 320.164 -557.469C368.605 -523.168 395.08 -473.181 396.73 -412.91C398.263 -398.906 398.978 -383.535 398.978 -364.466C398.978 -350.655 398.617 -336.635 398.231 -321.79C398.033 -313.986 397.829 -306.067 397.674 -298.022C398.015 -289.922 398.186 -281.733 398.186 -273.646C398.186 -225.921 392.593 -178.372 380.049 -119.46C376.961 -106.336 373.316 -92.8693 369.219 -79.4401C357.271 -30.1056 343.904 10.7771 327.139 49.2542C309.28 93.718 281.906 133.373 250.051 160.943C243.652 166.548 237.059 171.796 230.461 176.54C195.101 203.019 154.326 212.914 115.632 204.418C65.8707 193.811 23.3079 160.923 -3.63475 135.206C-48.6783 97.5323 -65.0524 49.3758 -79.1422 -0.806889C-87.011 -25.9392 -92.6835 -51.4657 -98.6923 -78.4977C-101.058 -89.1319 -103.502 -100.138 -106.128 -111.288C-111.532 -134.662 -112.504 -151.281 -113.534 -168.869C-114.405 -183.754 -115.303 -199.137 -118.85 -220.115C-123.242 -245.255 -125.565 -272.173 -125.565 -297.972ZM400.026 -364.466C400.026 -383.597 399.308 -399.025 397.773 -413.024C396.109 -473.71 369.458 -524.078 320.686 -558.61C288.689 -582.147 255.114 -591.864 220.901 -587.482C188.618 -583.405 153.976 -565.636 111.889 -540.203C78.1728 -519.287 50.571 -503.916 25.0144 -491.828C17.132 -488.101 9.96522 -484.845 3.10767 -481.881C0.150663 -480.733 -2.7454 -479.612 -5.56696 -478.523C-35.6336 -466.912 -57.3574 -458.52 -84.1127 -437.814C-111.118 -417.597 -126.612 -366.623 -126.612 -297.972C-126.612 -272.079 -124.281 -245.062 -119.872 -219.838C-116.344 -198.951 -115.446 -183.612 -114.577 -168.774C-113.543 -151.112 -112.568 -134.429 -107.13 -110.916C-104.509 -99.7686 -102.065 -88.7723 -99.7013 -78.143C-93.6857 -51.0764 -88.0042 -25.5151 -80.1218 -0.343122C-65.9801 50.0355 -49.527 98.4102 -4.24195 136.285C22.7706 162.059 65.4869 195.06 115.454 205.715C154.389 214.263 195.421 204.313 230.989 177.681C237.607 172.922 244.223 167.654 250.647 162.025C282.642 134.335 310.135 94.5042 328.064 49.8618C344.856 11.3252 358.253 -29.6319 370.21 -79.0111C374.304 -92.4253 377.957 -105.921 381.058 -119.098C393.626 -178.141 399.231 -225.799 399.231 -273.646C399.231 -281.758 399.06 -289.967 398.719 -298.042C398.875 -306.03 399.075 -313.948 399.279 -321.748C399.662 -336.603 400.026 -350.632 400.026 -364.466Z" fill="#FFEDC2"/>
<path d="M387.832 -401.174C388.247 -394.468 388.445 -387.519 388.445 -379.867C388.445 -362.145 387.361 -343.709 386.216 -324.189C385.563 -313.032 384.882 -301.492 384.389 -289.68C384.492 -284.804 384.544 -279.903 384.544 -275.051C384.544 -227.217 379.681 -178.22 368.78 -116.197C366.197 -103.21 363.168 -90.0141 359.772 -76.9848C349.779 -26.5731 338.578 12.3832 323.429 49.3684C307.286 92.456 280.86 130.648 249.011 156.935C242.768 162.158 236.318 167.037 229.844 171.446C195.2 196.062 156.73 204.807 118.58 196.723C69.6236 186.695 28.5483 155.971 2.70772 131.966C-42.165 95.542 -56.9356 48.9811 -70.3697 -3.68985C-76.9865 -26.8164 -81.6876 -50.2806 -86.6682 -75.1128C-89.2013 -87.7474 -91.8224 -100.806 -94.7701 -114.171C-99.7147 -136.967 -100.238 -152.775 -100.792 -169.503C-101.29 -184.608 -101.806 -200.227 -105.522 -222.41C-110.021 -248.357 -112.401 -276.283 -112.401 -303.166C-112.401 -369.211 -98.4256 -417.711 -74.0612 -436.237C-46.9203 -457.584 -26.3894 -464.96 4.68868 -476.125L9.75943 -477.947C16.437 -480.651 23.3873 -483.593 31.0272 -486.949C56.1556 -497.987 82.2554 -511.344 115.661 -530.258C156.261 -552.58 189.746 -568.07 221.178 -571.104C254.138 -574.358 286.244 -564.793 316.607 -542.676C363.243 -510.019 387.884 -462.676 387.884 -405.749C387.884 -404.23 387.871 -402.701 387.832 -401.174ZM389.493 -379.867C389.493 -387.553 389.29 -394.535 388.878 -401.206C388.91 -402.678 388.93 -404.217 388.93 -405.749C388.93 -463.182 364.103 -510.927 317.126 -543.823C286.582 -566.069 254.276 -575.694 221.099 -572.419C189.519 -569.371 155.944 -553.844 115.238 -531.464C81.8565 -512.563 55.7816 -499.221 30.6847 -488.193C23.0516 -484.841 16.1102 -481.902 9.45517 -479.208L4.4002 -477.393C-26.7612 -466.199 -47.3485 -458.803 -74.6066 -437.362C-99.2887 -418.597 -113.446 -369.683 -113.446 -303.166C-113.446 -276.189 -111.06 -248.168 -106.543 -222.13C-102.847 -200.061 -102.333 -184.499 -101.835 -169.451C-101.279 -152.638 -100.754 -136.764 -95.7776 -113.821C-92.832 -100.471 -90.2155 -87.4197 -87.6824 -74.7876C-82.695 -49.9207 -77.9826 -26.4266 -71.3568 -3.26532C-58.3621 47.6777 -42.9629 96.4582 2.11724 133.051C28.0209 157.114 69.2495 187.951 118.411 198.029C156.795 206.157 195.504 197.358 230.346 172.603C236.841 168.182 243.318 163.281 249.586 158.042C281.59 131.621 308.149 93.2356 324.367 49.9518C339.545 12.8972 350.775 -26.1535 360.77 -76.6124C364.171 -89.6318 367.207 -102.86 369.794 -115.889C380.72 -178.034 385.59 -227.115 385.59 -275.051C385.59 -279.913 385.536 -284.828 385.434 -289.662C385.926 -301.411 386.604 -312.94 387.26 -324.09C388.409 -343.637 389.489 -362.096 389.493 -379.867Z" fill="#FFEDC2"/>
<path d="M-100.112 -308.304C-100.112 -371.715 -87.4187 -417.867 -65.2899 -434.924C-37.8224 -456.818 -18.5637 -463.148 13.3341 -473.632L15.5188 -474.349C22.03 -476.785 28.7735 -479.409 36.1504 -482.375C60.4052 -492.137 85.8415 -503.901 118.621 -520.514C152.6 -537.182 188.547 -552.896 221.216 -554.999C253.224 -557.139 284.139 -547.678 313.117 -526.88C356.657 -496.831 379.67 -453.754 379.67 -402.294C379.67 -397.808 379.496 -393.203 379.147 -388.606C379.156 -387.598 379.158 -386.664 379.158 -385.718C379.158 -366.223 377.151 -345.559 375.023 -323.685C373.679 -309.858 372.288 -295.563 371.31 -280.638C371.242 -218.811 364.375 -160.921 357.676 -112.443C355.607 -99.5881 353.185 -86.6741 350.468 -74.0803C345.204 -39.968 336.973 4.90351 319.797 49.7775C305.474 90.9278 279.267 128.575 247.892 153.095C241.789 157.924 235.469 162.429 229.107 166.483C195.649 188.841 158.333 196.671 121.184 189.149C72.9159 179.705 33.2488 151.176 8.4732 128.905C-36.2803 93.7778 -50.0647 46.9252 -62.3252 -6.23053C-67.8782 -27.6025 -71.7448 -49.265 -75.8391 -72.1985C-78.3936 -86.5077 -81.0359 -101.301 -84.1969 -116.576C-88.7353 -138.901 -88.8323 -154 -88.936 -169.985C-89.0329 -185.163 -89.1322 -200.868 -92.9965 -224.092C-97.5846 -250.692 -100.112 -280.596 -100.112 -308.304ZM380.716 -402.294C380.716 -454.266 357.514 -497.745 313.624 -528.029C284.486 -548.952 253.373 -558.472 221.159 -556.317C188.346 -554.2 152.304 -538.451 118.238 -521.743C85.4762 -505.135 60.0603 -493.383 35.8303 -483.632C28.4646 -480.667 21.7279 -478.046 15.2392 -475.623L13.0726 -474.91C-18.9267 -464.392 -38.2417 -458.044 -65.8401 -436.042C-88.2822 -418.746 -101.158 -372.184 -101.158 -308.304C-101.158 -280.504 -98.6239 -250.501 -94.0201 -223.816C-90.176 -200.729 -90.0768 -185.094 -89.9799 -169.975C-89.8784 -153.906 -89.7792 -138.733 -85.2092 -116.241C-82.0505 -100.988 -79.4104 -86.2098 -76.8605 -71.9105C-72.7594 -48.9472 -68.8883 -27.2575 -63.3262 -5.84082C-51.0094 47.5557 -37.146 94.6492 7.89152 130.008C32.7325 152.338 72.5507 180.969 121.022 190.445C158.392 198.016 195.935 190.134 229.589 167.66C235.967 163.586 242.318 159.063 248.446 154.207C279.997 129.563 306.349 91.6974 320.746 50.3287C337.967 5.34296 346.219 -39.6353 351.488 -73.7848C354.2 -86.3539 356.628 -99.2927 358.702 -112.197C365.414 -160.747 372.286 -218.709 372.356 -280.581C373.332 -295.429 374.719 -309.711 376.063 -323.524C378.297 -346.5 380.398 -368.14 380.191 -388.553C380.536 -393.119 380.716 -397.766 380.716 -402.294Z" fill="#FFEDC2"/>
<path d="M-86.9458 -315.064C-86.9458 -350.501 -82.8695 -413.135 -55.5775 -434.487C-28.0285 -456.752 -10.2285 -462.026 22.089 -471.602C28.5935 -473.811 35.1229 -476.114 42.1685 -478.675C71.7962 -489.457 100.633 -501.961 122.45 -511.643C155.21 -525.668 189.962 -538.785 222.068 -539.763C253.129 -540.783 282.847 -531.428 310.403 -511.953C351.126 -484.267 372.646 -445.013 372.646 -398.43C372.646 -391.448 372.17 -384.216 371.221 -376.931C370.425 -359.717 367.859 -341.569 365.142 -322.354C362.895 -306.465 360.575 -290.034 358.985 -272.504C357.632 -220.838 353.351 -170.028 347.338 -109.618C345.789 -96.8565 343.97 -84.231 341.934 -72.1167C337.95 -35.7417 331.86 7.07391 316.944 49.2294C304.165 89.1535 278.884 125.246 247.588 148.273C241.631 152.711 235.442 156.845 229.188 160.556C196.954 180.632 160.81 187.559 124.649 180.588C77.0652 171.747 38.8362 145.416 15.1426 124.881C-29.5594 90.9431 -41.8808 45.7895 -53.3455 -9.71127C-57.9719 -29.5741 -61.1013 -49.6702 -64.4156 -70.9526C-66.8641 -86.6905 -69.3982 -102.962 -72.6719 -119.906C-75.9366 -137.073 -76.3717 -149.491 -76.3717 -159.371C-76.3717 -163.531 -76.2883 -167.487 -76.1981 -171.684C-76.1079 -175.831 -76.0132 -180.135 -76.0132 -184.597C-76.0132 -194.321 -76.4123 -207.895 -79.5214 -226.688C-84.3102 -254.617 -86.9458 -286.004 -86.9458 -315.064ZM373.694 -398.43C373.694 -445.529 351.985 -485.18 310.904 -513.107C283.582 -532.419 252.852 -542.093 222.043 -541.083C189.795 -540.1 154.955 -526.951 122.108 -512.888C100.299 -503.206 71.4851 -490.715 41.8777 -479.943C34.841 -477.382 28.3162 -475.079 21.9267 -472.91C-10.5802 -463.28 -28.4434 -457.986 -56.1344 -435.604C-83.8525 -413.919 -87.9919 -350.774 -87.9919 -315.064C-87.9919 -285.912 -85.3473 -254.429 -80.545 -226.413C-77.4539 -207.741 -77.0571 -194.262 -77.0571 -184.597C-77.0571 -180.15 -77.154 -175.866 -77.2442 -171.716C-77.3299 -167.703 -77.4201 -163.548 -77.4201 -159.371C-77.4201 -149.411 -76.9782 -136.905 -73.6887 -119.596C-70.4173 -102.681 -67.8854 -86.42 -65.4391 -70.6921C-62.1249 -49.3898 -58.991 -29.2589 -54.351 -9.36132C-42.8345 46.4174 -30.4342 91.8142 14.5767 125.995C38.3334 146.585 76.718 173.013 124.495 181.893C160.864 188.904 197.227 181.94 229.645 161.742C235.92 158.024 242.134 153.87 248.117 149.41C279.612 126.238 305.051 89.913 317.9 49.7431C332.872 7.45613 338.973 -35.4736 342.964 -71.8859C345.002 -83.9877 346.815 -96.6331 348.373 -109.435C354.393 -169.902 358.674 -220.746 360.031 -272.408C361.61 -289.843 363.93 -306.251 366.173 -322.123C368.894 -341.378 371.469 -359.565 372.26 -376.787C373.207 -384.072 373.694 -391.376 373.694 -398.43Z" fill="#FFEDC2"/>
<path d="M-74.6569 -322.207C-74.6569 -379.781 -64.7007 -419.408 -46.6229 -433.792C-19.2163 -456.266 -2.38874 -460.678 28.1523 -468.687C34.5498 -470.629 40.8751 -472.617 47.5096 -474.763C74.6928 -483.552 101.136 -493.33 125.663 -502.588C155.678 -513.469 190.656 -524.563 222.404 -524.372C252.133 -524.268 281.469 -514.748 307.249 -496.843C345.986 -470.9 365.623 -436.005 365.623 -393.121C365.623 -384.043 364.707 -374.556 362.901 -364.92C361.344 -350.442 358.438 -335.267 355.36 -319.199C352.013 -301.725 348.554 -283.655 346.256 -263.916C344.593 -233.381 342.673 -203.203 340.637 -171.251C339.286 -150.081 337.893 -128.193 336.578 -106.153C335.562 -93.3996 334.351 -81.0533 332.981 -69.4597C330.512 -31.1114 326.464 9.80298 313.646 49.5002C302.361 88.3129 277.987 122.89 246.782 144.381C240.96 148.445 234.899 152.209 228.759 155.567C197.755 173.396 162.741 179.425 127.511 172.999C80.542 164.736 43.7275 140.58 21.114 121.762C-23.5964 88.9415 -34.5387 45.4311 -45.12 -12.4478C-48.9427 -30.9847 -51.4182 -49.7377 -54.0382 -69.5863C-56.2835 -86.5831 -58.6033 -104.161 -61.9206 -122.624C-63.9425 -134.046 -64.8812 -144.397 -64.8812 -155.184C-64.8812 -161.399 -64.5924 -167.06 -64.2855 -173.05C-63.9763 -179.039 -63.6581 -185.242 -63.6581 -192.051C-63.6581 -203.985 -64.6623 -215.658 -66.8242 -228.78C-71.8023 -258.044 -74.6569 -292.094 -74.6569 -322.207ZM366.672 -393.121C366.672 -436.534 346.843 -471.819 307.74 -498C281.823 -516.01 252.309 -525.584 222.409 -525.691C190.525 -525.888 155.462 -514.763 125.363 -503.855C100.847 -494.599 74.4153 -484.824 47.2501 -476.04C40.6202 -473.896 34.2971 -471.911 27.9267 -469.974C-2.72944 -461.937 -19.6225 -457.508 -47.1871 -434.902C-65.574 -420.278 -75.704 -380.25 -75.704 -322.207C-75.704 -292.007 -72.8403 -257.855 -67.8464 -228.507C-65.7049 -215.48 -64.703 -203.896 -64.703 -192.051C-64.703 -185.289 -65.0211 -179.109 -65.328 -173.134C-65.6372 -167.125 -65.9305 -161.441 -65.9305 -155.184C-65.9305 -144.295 -64.9805 -133.859 -62.9405 -122.335C-59.6323 -103.908 -57.3125 -86.3496 -55.0717 -69.3752C-52.4473 -49.4894 -49.9672 -30.7114 -46.14 -12.1323C-35.5 46.0521 -24.4878 89.811 20.5633 122.885C43.2423 141.753 80.2035 166.008 127.365 174.298C162.796 180.764 198.003 174.703 229.185 156.772C235.346 153.401 241.437 149.62 247.288 145.546C278.709 123.894 303.254 89.0657 314.628 49.9796C327.484 10.136 331.548 -30.9002 334.023 -69.3081C335.391 -80.8769 336.603 -93.2457 337.623 -106.037C338.936 -128.094 340.333 -149.987 341.68 -171.142C343.715 -203.101 345.64 -233.281 347.297 -263.777C349.583 -283.404 353.038 -301.442 356.375 -318.888C359.46 -334.991 362.373 -350.199 363.93 -364.679C365.747 -374.35 366.672 -383.939 366.672 -393.121Z" fill="#FFEDC2"/>
</g>
</svg>
