<svg width="1672" height="636" viewBox="0 0 1672 636" fill="none" xmlns="http://www.w3.org/2000/svg">
<g style="mix-blend-mode:soft-light" opacity="0.6">
<path d="M686.161 1419.83C643.843 1402.34 614.673 1385.81 591.583 1366.23C504.23 1289.59 475.456 1115.45 518.289 922.591C540.405 826.402 579.435 743.754 631.157 683.591C676.734 631.367 739.529 588.834 828.777 549.736C890.289 523.267 957.744 505.775 1041.06 494.689C1125.45 483.826 1188.76 488.366 1246.32 509.413C1248.93 510.396 1251.53 511.42 1254.26 512.548C1318.92 539.268 1414.19 605.48 1509.11 689.667C1605.58 775.231 1683.13 863.479 1716.55 925.732C1819.41 1054.3 1780.12 1122.26 1720.64 1225.14C1694.26 1270.77 1664.36 1322.49 1639.84 1389.79C1622.16 1438.36 1607.03 1482.01 1593.68 1520.52C1529.57 1705.44 1500.32 1789.85 1384.78 1848.68C1356.98 1861.94 1325.38 1861.42 1290.86 1847.16C1263.64 1835.91 1234.38 1816.04 1203.87 1788.08C1176.23 1762.59 1148.54 1733.57 1119.22 1702.84C1080.66 1662.44 1040.79 1620.65 995.482 1580.86C941.462 1533.81 878.246 1495.67 802.219 1464.26C790.934 1459.59 779.027 1454.94 766.833 1450.42C761.351 1448.39 755.911 1446.39 750.521 1444.41C727.896 1436.1 706.526 1428.24 686.161 1419.83ZM1254.58 511.499C1251.84 510.366 1249.23 509.334 1246.6 508.341C1188.82 487.214 1125.33 482.654 1040.73 493.545C957.304 504.644 889.757 522.161 828.15 548.666C738.765 587.827 675.863 630.439 630.188 682.773C578.361 743.059 539.263 825.848 517.114 922.19C474.189 1115.46 503.135 1290.07 590.86 1367.03C614.08 1386.73 643.371 1403.33 685.835 1420.88C706.226 1429.3 727.607 1437.16 750.248 1445.49C755.638 1447.46 761.075 1449.46 766.555 1451.49C778.734 1456 790.623 1460.65 801.893 1465.31C877.772 1496.66 940.856 1534.72 994.758 1581.67C1040.01 1621.41 1079.86 1663.16 1118.4 1703.55C1147.73 1734.3 1175.43 1763.33 1203.11 1788.85C1233.75 1816.93 1263.16 1836.9 1290.53 1848.21C1325.4 1862.62 1357.33 1863.13 1385.44 1849.73C1441.63 1821.12 1478.66 1786.34 1509.28 1733.41C1539.02 1682.02 1562.43 1614.49 1594.83 1521.03C1608.18 1482.52 1623.31 1438.88 1640.99 1390.32C1665.47 1323.1 1695.36 1271.41 1721.72 1225.81C1752.41 1172.71 1776.67 1130.77 1780.99 1084.81C1785.67 1035.13 1766.09 985.914 1717.52 925.221C1684.11 862.939 1606.44 774.545 1509.85 688.869C1414.82 604.585 1319.39 538.278 1254.58 511.499Z" fill="#FFEDC2"/>
<path d="M1250.1 523.783C1251.64 524.387 1253.17 525.004 1254.73 525.651C1316.52 551.18 1408.2 615.25 1499.96 697.042C1593.36 780.272 1668.72 866.302 1701.55 927.173C1801.36 1052.35 1764.5 1119.25 1708.69 1220.53C1684.56 1264.33 1657.21 1313.97 1634.78 1377.87C1618.29 1424.4 1604.17 1466.33 1591.7 1503.32C1531.24 1682.76 1503.64 1764.65 1392.66 1822.57C1363.57 1837.38 1329.95 1837.1 1292.75 1821.73C1267.79 1811.42 1241.08 1794.24 1213.35 1770.68C1178.63 1743.29 1143.63 1710.52 1106.59 1675.82C1071.78 1643.21 1035.78 1609.5 996.394 1576.77C914.44 1509.49 827.742 1469.09 769.658 1444.55L759.349 1440.44C746.835 1435.44 735.014 1430.72 723.295 1425.87C673.45 1405.28 633.778 1385.74 602.177 1357.34C518.818 1281.77 490.242 1112.71 529.383 926.633C548.874 831.199 584.93 749.483 633.648 690.32C677.152 637.993 737.901 595.533 824.828 556.703C888.24 528.186 957.827 510.532 1043.82 501.155C1127.47 492.42 1190.89 499.317 1249.46 523.518L1250.1 523.783ZM1255.06 524.596C1253.49 523.946 1251.95 523.326 1250.41 522.73L1249.78 522.465C1191 498.176 1127.38 491.249 1043.51 500.008C957.4 509.398 887.708 527.075 824.194 555.637C737.129 594.533 676.267 637.074 632.664 689.519C583.848 748.8 547.726 830.658 528.203 926.246C488.978 1112.72 517.72 1282.24 601.43 1358.13C633.189 1386.67 672.984 1406.28 722.969 1426.93C734.696 1431.78 746.52 1436.49 759.04 1441.5L769.333 1445.61C827.321 1470.11 913.892 1510.45 995.695 1577.59C1035.05 1610.29 1071.03 1643.99 1105.82 1676.59C1142.89 1711.31 1177.9 1744.1 1212.65 1771.51C1240.48 1795.15 1267.32 1812.41 1292.42 1822.78C1329.98 1838.3 1363.94 1838.58 1393.34 1823.6C1504.67 1765.51 1532.3 1683.5 1592.85 1503.82C1605.31 1466.83 1619.44 1424.91 1635.92 1378.38C1658.33 1314.55 1685.66 1264.95 1709.77 1221.19C1738.58 1168.91 1761.33 1127.63 1764.97 1082.56C1768.92 1033.84 1749.65 985.755 1702.53 926.665C1669.69 865.763 1594.21 779.583 1500.71 696.251C1408.82 614.353 1316.99 550.184 1255.06 524.596Z" fill="#FFEDC2"/>
<path d="M1294.27 1796.12C1271.79 1786.83 1247.86 1772.33 1223.15 1753.01C1179.58 1723.93 1135.38 1686.73 1088.58 1647.35C1059.37 1622.77 1029.17 1597.36 997.247 1572.31C918.292 1511.33 839.097 1470.3 772.039 1438.2L768.066 1436.47C706.056 1409.6 652.5 1386.39 612.048 1347.86C532.513 1273.32 503.994 1109.39 539.394 930.195C556.451 834.211 588.631 755.676 635.05 696.758C675.908 645.108 736.395 601.556 819.962 563.596C884.435 533.492 958.342 515.225 1045.91 507.758C1128.87 501.075 1194.21 510.747 1253.5 538.439L1254.85 538.994C1313.85 563.369 1402.08 625.353 1490.87 704.79C1581.35 785.743 1654.68 869.598 1687.03 929.107C1784.02 1050.95 1749.59 1116.77 1697.47 1216.42C1675.56 1258.3 1650.74 1305.77 1630.36 1366.2C1615.11 1410.59 1602.01 1450.72 1590.44 1486.12C1533.64 1660.04 1507.72 1739.42 1401.15 1796.32C1370.59 1812.86 1334.63 1812.8 1294.27 1796.12ZM1240.06 531.337C1184.25 508.275 1122.46 500.417 1045.63 506.606C957.926 514.086 883.9 532.383 819.321 562.536C735.609 600.558 675.009 644.207 634.053 695.975C587.537 755.014 555.292 833.697 538.211 929.824C520.75 1018.21 518.379 1104.24 531.349 1178.61C544.324 1252.99 571.962 1311.78 611.275 1348.62C651.915 1387.33 705.579 1410.59 767.718 1437.52L771.666 1439.23C838.628 1471.28 917.741 1512.28 996.583 1573.16C1028.47 1598.19 1058.67 1623.6 1087.87 1648.17C1134.7 1687.58 1178.94 1724.8 1222.53 1753.9C1247.3 1773.26 1271.34 1787.83 1293.94 1797.17C1334.68 1814.01 1370.99 1814.07 1401.85 1797.35C1508.75 1740.28 1534.71 1660.78 1591.59 1486.61C1603.15 1451.21 1616.25 1411.09 1631.51 1366.7C1651.87 1306.34 1676.67 1258.9 1698.56 1217.06C1725.46 1165.63 1746.71 1125.01 1749.64 1080.83C1752.81 1033.07 1733.8 986.119 1688.01 928.598C1655.66 869.06 1582.21 785.059 1491.61 704C1402.7 624.455 1314.31 562.376 1255.18 537.941L1253.85 537.398C1249.33 535.29 1244.68 533.246 1240.06 531.337Z" fill="#FFEDC2"/>
<path d="M1294.3 1769.91C1274.68 1761.81 1253.94 1749.98 1232.66 1734.77C1178.17 1704.37 1122.53 1661.87 1063.61 1616.87C1042.49 1600.73 1020.65 1584.05 998.266 1567.46C916.367 1507.94 834.682 1463.85 775.04 1431.65C717.436 1404.57 663.061 1379.01 622.852 1338.33C585.632 1302.16 559.19 1245.2 546.368 1173.59C533.525 1101.83 535.01 1018.95 550.661 933.882C564.995 838.717 594.266 761.149 637.665 703.336C676.403 651.642 734.76 608.206 816.068 570.544C882.367 538.419 958.43 520.019 1048.61 514.292C1119.42 510.134 1177.09 518.4 1230.1 540.3C1239.18 544.054 1248.28 548.283 1257.13 552.876C1313.59 576.784 1397.95 636.742 1482.87 713.3C1570.89 792.664 1639.76 871.797 1671.82 930.418C1765.79 1048.87 1733.84 1113.66 1685.48 1211.72C1665.79 1251.64 1643.47 1296.89 1625.14 1353.81C1611.13 1395.99 1599.07 1434.26 1588.43 1468.01C1535.3 1636.52 1511.05 1713.43 1409 1769.38C1376.88 1787.91 1338.28 1788.09 1294.3 1769.91ZM1230.42 539.246C1177.22 517.265 1119.37 508.972 1048.36 513.135C958.024 518.874 881.831 537.308 815.412 569.494C733.964 607.221 675.489 650.753 636.657 702.571C593.163 760.514 563.832 838.223 549.477 933.534C533.804 1018.71 532.319 1101.73 545.188 1173.61C558.058 1245.49 584.636 1302.7 622.053 1339.06C662.436 1379.92 716.926 1405.54 774.616 1432.65C834.187 1464.81 915.819 1508.88 997.636 1568.34C1020 1584.91 1041.84 1601.6 1062.96 1617.73C1121.91 1662.76 1177.6 1705.3 1232.11 1735.71C1253.41 1750.94 1274.25 1762.82 1293.98 1770.97C1338.34 1789.29 1377.28 1789.11 1409.72 1770.4C1512.08 1714.27 1536.37 1637.25 1589.58 1468.49C1600.22 1434.74 1612.28 1396.48 1626.29 1354.31C1644.61 1297.45 1666.9 1252.24 1686.57 1212.34C1711.53 1161.73 1731.25 1121.75 1733.48 1078.45C1735.88 1031.64 1717.17 985.826 1672.8 929.913C1640.73 871.256 1571.75 791.981 1483.61 712.51C1398.59 635.86 1314.07 575.798 1257.52 551.852C1248.68 547.27 1239.55 543.016 1230.42 539.246Z" fill="#FFEDC2"/>
<path d="M1293.13 1745.23C1276.76 1738.47 1259.61 1729.31 1242.13 1717.99C1173.89 1686.72 1103.78 1637.45 1029.57 1585.29C1019.5 1578.2 1009.33 1571.06 999.057 1563.88C936.202 1520.91 876.073 1485.06 823.024 1453.44C807.064 1443.92 791.991 1434.94 777.612 1426.22C718.339 1395.96 670.088 1369.66 633.073 1329.81C597.697 1294.06 572.285 1238.58 559.571 1169.37C546.829 1099.99 547.436 1019.99 561.333 938.013C572.953 843.51 599.355 766.806 639.816 710.013C676.455 658.212 732.749 614.824 811.914 577.384C879.156 543.628 959.686 524.524 1051.28 520.584C1116.67 518.085 1170.51 526.584 1220.72 547.325C1234.3 552.936 1247.83 559.587 1260.94 567.082C1315.1 591.008 1395.53 649.119 1476.15 722.57C1560.01 798.965 1626 875.287 1657.18 931.968C1748.24 1047.22 1718.75 1111.11 1674.1 1207.82C1656.57 1245.79 1636.7 1288.82 1620.36 1342.27C1607.61 1382.22 1596.57 1418.6 1586.85 1450.7C1537.3 1614.17 1514.68 1688.78 1417.02 1743.91C1383.08 1764.74 1341.41 1765.18 1293.13 1745.23ZM1221.04 546.271C1170.65 525.451 1116.63 516.925 1051.05 519.432C959.295 523.373 878.613 542.524 811.251 576.337C731.942 613.844 675.528 657.327 638.794 709.271C598.244 766.191 571.78 843.041 560.145 937.686C546.23 1019.76 545.625 1099.9 558.393 1169.4C571.154 1238.87 596.693 1294.59 632.25 1330.52C669.415 1370.53 717.778 1396.9 777.135 1427.19C791.471 1435.89 806.545 1444.88 822.509 1454.4C875.54 1486.01 935.648 1521.84 998.461 1564.78C1008.72 1571.96 1018.89 1579.1 1028.96 1586.18C1103.23 1638.38 1173.39 1687.69 1241.66 1718.97C1259.11 1730.28 1276.36 1739.49 1292.8 1746.28C1341.47 1766.39 1383.51 1765.93 1417.75 1744.93C1515.73 1689.61 1538.38 1614.89 1588 1451.17C1597.73 1419.07 1608.75 1382.69 1621.52 1342.75C1637.84 1289.36 1657.69 1246.35 1675.21 1208.42C1698.25 1158.5 1716.45 1119.08 1717.96 1076.57C1719.6 1030.62 1701.16 985.863 1658.16 931.459C1626.96 874.74 1560.88 798.29 1476.91 721.791C1396.17 648.24 1315.59 590.031 1261.37 566.076C1248.27 558.58 1234.68 551.903 1221.04 546.271Z" fill="#FFEDC2"/>
<path d="M1231.48 1691.68C1158.77 1661.64 1083.82 1613.8 1000.43 1558.95C966.146 1536.96 933.458 1516.61 901.847 1496.94C857.553 1469.37 815.715 1443.32 780.526 1419.45C727.244 1389.88 680.194 1362.01 643.483 1319.96C609.899 1284.65 585.461 1230.74 572.793 1164.02C560.088 1097.12 559.76 1020.14 571.84 941.402C580.646 847.726 604.139 772.039 641.668 716.421C676.16 664.639 730.387 621.441 807.445 584.361C876.56 548.649 959.415 529.477 1053.73 527.364C1113.27 526.318 1164.91 535.184 1211.59 554.466C1229.56 561.89 1247.42 571.126 1264.68 581.917C1369.77 630.437 1575.98 813.332 1642.97 933.944C1731.29 1045.95 1704.32 1108.86 1663.49 1204.09C1648.1 1239.96 1630.67 1280.62 1616.33 1330.43C1604.85 1367.96 1594.9 1402.31 1586.11 1432.62C1540.25 1590.87 1519.33 1663.1 1425.97 1717.25C1390.02 1740.64 1344.72 1741.3 1291.31 1719.24C1278.72 1714.04 1265.64 1707.52 1252.43 1699.86C1245.51 1697.31 1238.5 1694.58 1231.48 1691.68ZM1211.92 553.413C1165.06 534.058 1113.25 525.162 1053.52 526.213C959.034 528.326 876.016 547.54 806.772 583.319C729.565 620.468 675.216 663.768 640.632 715.696C603.01 771.45 579.465 847.287 570.649 941.099C558.554 1019.93 558.884 1097.03 571.612 1164.06C584.327 1231.02 608.888 1285.17 642.634 1320.64C679.483 1362.85 726.646 1390.79 779.995 1420.39C815.154 1444.25 857.005 1470.3 901.308 1497.88C932.919 1517.55 965.598 1537.9 999.864 1559.88C1083.32 1614.76 1158.32 1662.64 1231.16 1692.73C1238.19 1695.63 1245.22 1698.37 1252.04 1700.88C1265.2 1708.52 1278.34 1715.06 1290.98 1720.29C1344.8 1742.52 1390.47 1741.84 1426.72 1718.25C1471.94 1692.02 1501.39 1660.77 1525.18 1613.76C1547.95 1568.78 1564.45 1511.86 1587.28 1433.08C1596.06 1402.78 1606.01 1368.43 1617.48 1330.9C1631.82 1281.14 1649.24 1240.51 1664.61 1204.65C1685.68 1155.51 1702.33 1116.69 1703.08 1075.03C1703.88 1029.98 1685.65 986.312 1643.95 933.437C1613.57 878.721 1550.28 805.143 1470.36 731.661C1393.82 661.267 1317.09 604.92 1265.14 580.929C1247.89 570.142 1229.96 560.869 1211.92 553.413Z" fill="#FFEDC2"/>
<path d="M1195.63 1659.61C1127.41 1631.43 1058.95 1590.97 1000.99 1555.11C922.978 1508.11 841.886 1458.5 782.997 1413.83C727.397 1380.19 686.402 1351.32 653.68 1311.29C588.734 1239.9 561.48 1099.77 582.533 945.559C588.562 852.557 609.178 777.768 643.814 723.232C676.137 671.361 728.273 628.241 803.203 591.382C873.139 554.113 960.611 534.224 1056.17 533.853C1111.12 533.899 1159.11 542.712 1202.88 560.79C1225.33 570.064 1246.68 581.675 1268.14 596.283C1317.72 620.276 1390.32 674.653 1462.44 741.8C1538.04 812.178 1598.3 882.777 1627.78 935.492C1713.22 1044.36 1688.78 1106.47 1651.78 1200.48C1638.48 1234.25 1623.42 1272.52 1611 1318.7C1600.81 1353.76 1591.92 1386.05 1584.09 1414.53C1543.12 1563.34 1522.56 1638.03 1433.52 1691.42C1395.84 1717.48 1344.97 1718.45 1286.39 1694.25C1278.26 1690.89 1269.9 1687.02 1261.53 1682.73C1240.51 1676.77 1218.38 1669.01 1195.63 1659.61ZM1203.2 559.739C1159.27 541.59 1111.12 532.746 1055.99 532.696C960.241 533.069 872.592 553.005 802.522 590.347C727.443 627.275 675.176 670.517 642.764 722.524C608.042 777.204 587.375 852.144 581.338 945.28C560.246 1099.79 587.63 1240.3 652.806 1311.95C689.19 1356.46 736.783 1387.13 782.411 1414.73C841.297 1459.4 922.423 1509.04 1000.47 1556.06C1058.47 1591.94 1126.98 1632.44 1195.31 1660.66C1218.1 1670.08 1240.28 1677.86 1261.23 1683.78C1269.5 1688.04 1277.89 1691.93 1286.06 1695.3C1345.06 1719.67 1396.32 1718.67 1434.28 1692.41C1523.62 1638.84 1544.21 1564.03 1585.25 1414.98C1593.09 1386.5 1601.97 1354.22 1612.16 1319.15C1624.56 1273.02 1639.62 1234.77 1652.9 1201.03C1672 1152.5 1687.09 1114.18 1687.09 1073.26C1687.09 1029.03 1669.1 986.38 1628.76 934.978C1599.27 882.232 1538.91 811.504 1463.21 741.03C1390.98 673.792 1318.24 619.317 1268.63 595.32C1247.18 580.708 1225.75 569.051 1203.2 559.739Z" fill="#FFEDC2"/>
<path d="M1155.59 1628.97C1109.73 1610.03 1059.36 1584.51 1001.62 1550.96C906.255 1497.11 835.513 1450.3 785.337 1407.82C735.592 1374.94 695.896 1344.42 663.63 1302.19C602.57 1231.82 575.459 1096.58 592.852 949.212C596.057 856.861 613.799 782.963 645.592 729.528C675.734 677.599 725.813 634.551 798.681 597.923C889.348 548.229 990.016 538.946 1058.5 539.909C1109.31 540.858 1153.94 549.548 1194.93 566.476C1221.36 577.395 1246.45 591.726 1271.64 610.29C1367.93 659.241 1550.69 826.342 1612.97 936.823C1695.67 1042.69 1673.78 1104.08 1640.65 1197C1629.4 1228.56 1616.64 1264.33 1606.11 1306.8C1597.22 1339.26 1589.41 1369.36 1582.53 1395.92C1545.09 1540.29 1526.29 1612.75 1441.45 1665.41C1401.21 1694.95 1345.22 1696.21 1279.52 1669.08C1276.67 1667.9 1273.76 1666.65 1270.88 1665.36C1234.4 1657.86 1196.73 1645.97 1155.59 1628.97ZM1195.25 565.425C1154.1 548.429 1109.32 539.706 1058.34 538.756C989.714 537.791 888.846 547.098 797.992 596.894C724.967 633.595 674.763 676.758 644.527 728.85C612.652 782.42 594.861 856.482 591.654 948.957C574.23 1096.6 601.465 1232.21 662.73 1302.81C695.091 1345.17 734.895 1375.78 784.696 1408.69C834.874 1451.17 905.691 1498.04 1001.12 1551.93C1058.91 1585.51 1109.34 1611.05 1155.26 1630.02C1196.49 1647.05 1234.24 1658.97 1270.66 1666.45C1273.41 1667.69 1276.33 1668.94 1279.19 1670.13C1345.32 1697.44 1401.7 1696.15 1442.23 1666.38C1527.36 1613.55 1546.19 1540.96 1583.7 1396.35C1590.58 1369.8 1598.39 1339.71 1607.27 1307.23C1617.8 1264.8 1630.54 1229.05 1641.79 1197.51C1675.04 1104.25 1697.01 1042.63 1613.94 936.314C1551.61 825.72 1368.54 658.325 1272.17 609.343C1246.99 590.782 1221.8 576.389 1195.25 565.425Z" fill="#FFEDC2"/>
<path d="M1115.69 1600.37C1079.73 1585.52 1042.79 1567.71 1002.76 1545.92C910.751 1497.32 838.487 1448.54 787.965 1400.92C748.58 1372.42 707.538 1339.58 673.723 1292.22C616.446 1222.89 589.37 1092.69 603.033 952.374C603.321 859.485 617.738 788.615 647.118 735.658C675.039 683.753 723.058 640.889 793.917 604.599C866.48 563.892 961.224 543.231 1060.71 546.416C1107.82 548.129 1149.39 556.673 1187.79 572.531C1217.96 584.993 1246.55 602.099 1275.21 624.833C1366.99 673.955 1537.6 831.485 1598.65 938.594C1678.8 1041.48 1659.54 1102.16 1630.39 1194.03C1621.13 1223.2 1610.63 1256.28 1601.96 1294.86C1594.4 1324.53 1587.69 1352.26 1581.78 1376.72C1547.96 1516.67 1530.99 1586.92 1450.25 1638.77C1398.44 1679.05 1329.62 1665.59 1281 1647.23L1280.85 1647.19C1229.16 1640.24 1175.14 1624.92 1115.69 1600.37ZM1188.11 571.483C1149.56 555.561 1107.84 546.983 1060.57 545.258C960.877 542.074 865.93 562.778 793.218 603.57C722.194 639.942 674.05 682.933 646.036 735.002C616.583 788.102 602.121 859.135 601.837 952.145C588.147 1092.71 615.337 1223.26 672.795 1292.8C706.703 1340.29 747.854 1373.23 787.269 1401.74C837.816 1449.39 910.185 1498.25 1002.3 1546.91C1042.37 1568.71 1079.35 1586.55 1115.37 1601.42C1174.9 1626.01 1229.01 1641.35 1280.79 1648.32C1329.7 1666.79 1398.91 1680.27 1451.06 1639.73C1532.07 1587.71 1549.07 1517.34 1582.95 1377.14C1588.86 1352.68 1595.56 1324.96 1603.13 1295.28C1611.8 1256.72 1622.29 1223.67 1631.55 1194.51C1660.8 1102.31 1680.13 1041.4 1599.62 938.078C1538.52 830.866 1367.61 673.059 1275.77 623.915C1247.12 601.173 1218.41 583.996 1188.11 571.483Z" fill="#FFEDC2"/>
<path d="M1078.44 1576.97C1053.88 1566.83 1028.51 1555.11 1003.04 1542.13C912.589 1497.47 838.938 1446.69 790.034 1395.28C741.911 1356.98 710.056 1323.55 683.445 1283.46C657.16 1249.82 636.781 1201.95 624.485 1144.98C612.117 1087.66 608.216 1022.4 613.207 956.257C610.57 863.955 622.206 793.918 648.786 742.082C674.482 690.1 720.441 647.281 789.286 611.179C863.651 568.372 960.813 547.508 1062.9 552.418C1106.64 554.709 1145.38 563.036 1181.33 577.883C1214.94 591.764 1246.73 611.675 1278.51 638.757C1366.58 688.582 1524.54 837.266 1583.51 939.887C1661.05 1040.02 1644.44 1100.26 1619.3 1191.46C1611.94 1218.16 1603.59 1248.43 1596.68 1283.06C1590.41 1309.81 1585.05 1333.96 1579.86 1357.31C1549.62 1493.41 1534.44 1561.72 1457.75 1613.03C1407.35 1654.62 1338.68 1645.32 1289.95 1630.2L1289.79 1630.17C1224.23 1625.71 1153.12 1607.81 1078.44 1576.97ZM1181.66 576.832C1145.56 561.925 1106.68 553.563 1062.78 551.265C960.475 546.342 863.099 567.258 788.579 610.154C719.566 646.345 673.476 689.298 647.691 741.456C621.036 793.438 609.363 863.636 612.007 956.058C607.012 1022.25 610.921 1087.62 623.316 1145.04C635.649 1202.2 656.115 1250.26 682.496 1284.01C709.163 1324.2 741.108 1357.72 789.282 1396.06C838.23 1447.52 912.025 1498.4 1002.62 1543.14C1028.12 1556.12 1053.52 1567.86 1078.12 1578.02C1152.9 1608.91 1224.12 1626.84 1289.82 1631.31C1338.83 1646.51 1407.87 1655.83 1458.57 1613.98C1535.53 1562.49 1550.74 1494.05 1581.04 1357.71C1586.22 1334.36 1591.59 1310.21 1597.85 1283.46C1604.76 1248.84 1613.11 1218.59 1620.47 1191.9C1645.69 1100.39 1662.36 1039.92 1584.49 939.373C1557.56 892.496 1505.74 830.274 1442.38 768.743C1382.88 710.96 1321.84 662.035 1279.11 637.863C1247.33 610.759 1215.41 590.772 1181.66 576.832Z" fill="#FFEDC2"/>
<path d="M1048.12 1557.44C1033.57 1551.43 1018.79 1544.86 1004.17 1537.91C913.128 1495.97 840.055 1444.56 792.835 1389.23C750.255 1351.82 719.741 1316.41 693.828 1274.33C643.463 1205.95 617.323 1088.48 623.875 960.03C618.23 868.392 627.059 799.265 650.869 748.635C674.304 696.64 718.196 653.942 785.053 618.092C861.212 573.256 960.812 552.262 1065.52 558.959C1106.26 561.729 1142.45 569.848 1176.17 583.773C1212.99 598.981 1247.72 621.71 1282.35 653.264C1364.8 702.73 1513.25 845.46 1569.13 941.653C1644.23 1039.15 1630.37 1099.09 1609.37 1189.8C1603.82 1213.78 1597.52 1240.97 1592.3 1271.42C1587.33 1294.98 1583.02 1316.5 1578.86 1337.31C1553.16 1465.59 1539.01 1536.25 1466.25 1587.04C1417.3 1629.86 1348.75 1624.69 1299.85 1612.81C1220.44 1612.27 1135.79 1593.65 1048.12 1557.44ZM1176.49 582.72C1142.64 568.739 1106.31 560.589 1065.42 557.81C960.484 551.095 860.663 572.14 784.34 617.072C717.306 653.015 673.279 695.859 649.762 748.04C625.881 798.811 617.02 868.104 622.677 959.868C616.113 1088.52 642.345 1206.29 692.852 1274.84C718.809 1317 749.409 1352.52 792.028 1389.96C839.307 1445.37 912.558 1496.91 1003.78 1538.94C1018.42 1545.89 1033.23 1552.47 1047.8 1558.49C1135.63 1594.77 1220.44 1613.42 1299.88 1613.94C1348.9 1625.87 1417.84 1631.06 1467.09 1587.98C1540.11 1537 1554.29 1466.21 1580.03 1337.69C1584.2 1316.88 1588.51 1295.37 1593.47 1271.78C1598.7 1241.35 1604.99 1214.18 1610.54 1190.2C1631.61 1099.18 1645.52 1039.04 1570.1 941.137C1543.63 895.565 1495.92 837.713 1435.81 778.312C1380.56 723.725 1323.43 676.653 1282.98 652.396C1248.34 620.813 1213.48 597.994 1176.49 582.72Z" fill="#FFEDC2"/>
<path d="M1023.29 1541.22C1017.06 1538.65 1010.77 1535.96 1004.57 1533.21C912.569 1493.75 840.12 1441.74 795.06 1382.8C757.924 1346.61 728.92 1309.17 703.705 1264.89C657.199 1197.52 631.195 1084.94 634.116 963.673C625.301 871.452 631.15 805.213 652.524 755.159C673.658 703.184 715.455 660.626 780.305 625.038C857.076 578.86 961.722 557.181 1067.43 565.544C1105.43 568.698 1139.29 576.589 1170.94 589.662C1211.3 606.328 1247.63 631.137 1285.3 667.74C1362.57 717.092 1499.42 850.912 1553.63 943.211C1626.43 1038.29 1615.38 1098.12 1598.67 1188.68C1594.8 1209.65 1590.42 1233.41 1586.76 1259.39C1583.07 1279.48 1579.8 1298.08 1576.65 1316.06C1554.68 1441.2 1542.58 1510.13 1473.67 1560.53C1426.23 1604.52 1357.83 1603.49 1308.8 1594.89C1218.09 1599.47 1119.41 1580.92 1023.29 1541.22ZM1171.27 588.609C1139.48 575.481 1105.48 567.558 1067.35 564.396C961.406 556.012 856.518 577.752 779.578 624.031C714.55 659.711 672.618 702.423 651.403 754.597C629.963 804.801 624.088 871.201 632.92 963.539C629.992 1084.98 656.08 1197.84 702.706 1265.37C727.952 1309.71 757.036 1347.25 794.201 1383.46C839.346 1442.53 911.995 1494.7 1004.22 1534.25C1010.42 1537 1016.73 1539.69 1022.97 1542.27C1119.27 1582.04 1218.14 1600.63 1308.9 1596.03C1358.05 1604.67 1426.82 1605.69 1474.53 1561.46C1543.69 1510.87 1555.82 1441.8 1577.83 1316.42C1580.99 1298.44 1584.25 1279.84 1587.95 1259.74C1591.6 1233.75 1595.98 1210 1599.85 1189.05C1608.49 1142.23 1615.31 1105.26 1611.02 1067.13C1606.38 1025.96 1588.98 987.58 1554.61 942.694C1529.03 899.145 1484.14 844.102 1428.24 787.774C1377.29 736.43 1324.1 691.246 1285.98 666.903C1248.28 630.256 1211.8 605.348 1171.27 588.609Z" fill="#FFEDC2"/>
<path d="M997.534 1526.64C908.006 1489.66 838.799 1438.07 797.399 1377.43C764.711 1341.85 738.912 1304.53 713.691 1256.36C670.993 1189.85 645.152 1081.98 644.534 967.75C632.608 876.056 635.764 810.624 654.454 761.763C673.039 710.445 713.916 666.724 775.962 631.786C854.507 583.493 961.646 561.59 1069.92 571.688C1105.47 575.128 1137.23 582.787 1167.03 595.091C1210.24 612.934 1248.97 640.494 1288.93 681.827C1363.56 732.83 1486.24 856.036 1538.88 944.717C1609.61 1037.83 1601.91 1094.8 1589.16 1189.21C1586.68 1207.62 1584.11 1226.65 1581.86 1247.82C1579.36 1264.11 1577.1 1279.44 1574.9 1294.27C1556.79 1417.06 1546.81 1484.7 1481.53 1535.03C1435.58 1580.25 1367.28 1583.42 1318.06 1578.12C1216.29 1588.78 1108.13 1572.04 1005.15 1529.73C1002.58 1528.7 1000.05 1527.68 997.534 1526.64ZM1167.36 594.035C1137.43 581.678 1105.54 573.992 1069.86 570.539C961.338 560.418 853.949 582.376 775.23 630.779C713.002 665.818 671.979 709.711 653.319 761.236C634.57 810.251 631.397 875.842 643.34 967.653C643.953 1082.03 669.873 1190.15 712.666 1256.8C737.915 1305.03 763.778 1342.44 796.489 1378.04C837.986 1438.83 907.415 1490.61 997.208 1527.69C999.732 1528.73 1002.27 1529.76 1004.83 1530.78C1108.02 1573.18 1216.39 1589.94 1318.24 1579.27C1367.57 1584.59 1436.22 1581.39 1482.4 1535.94C1547.94 1485.42 1557.94 1417.63 1576.1 1294.6C1578.28 1279.77 1580.55 1264.44 1583.05 1248.14C1585.3 1226.95 1587.87 1207.93 1590.35 1189.52C1596.72 1142.36 1601.75 1105.1 1596.44 1067.07C1590.71 1026.06 1573.26 988.169 1539.85 944.194C1515.18 902.609 1473.09 850.301 1421.39 796.978C1374.72 748.845 1325.47 705.492 1289.63 681.017C1249.65 639.63 1210.75 611.958 1167.36 594.035Z" fill="#FFEDC2"/>
<path d="M985.752 1517.81C901.092 1482.85 836.777 1432.26 799.761 1371.5C772.041 1337.61 748.556 1299.32 723.561 1247.29C684.54 1181.54 658.776 1078.43 654.616 971.424C639.249 879.041 639.656 816.363 655.933 768.108C672.228 716.782 711.01 673.166 771.207 638.45C851.571 588.114 961.29 566.078 1072.25 577.992C1105.61 581.682 1135.51 589.127 1163.64 600.744C1209.61 619.73 1250.61 650.057 1292.65 696.18C1361.64 746.843 1473.79 862.039 1524.59 946.499C1593.74 1038.18 1588.97 1096.02 1581.06 1191.86C1579.9 1205.99 1578.69 1220.61 1577.64 1236.36C1576.22 1248.33 1574.9 1259.87 1573.62 1270.97C1559.72 1392.14 1552.05 1458.89 1490.13 1509.35C1445.71 1555.69 1377.43 1563.03 1327.97 1561.05C1221.37 1577.51 1110.09 1565.3 1006.03 1525.73C999.186 1523.21 992.365 1520.54 985.752 1517.81ZM1163.96 599.693C1135.71 588.026 1105.7 580.553 1072.2 576.846C960.988 564.909 851.011 586.994 770.467 637.446C710.079 672.265 671.15 716.069 654.785 767.614C638.455 816.029 638.036 878.867 653.423 971.365C657.587 1078.49 683.416 1181.82 722.514 1247.69C747.528 1299.77 771.067 1338.14 798.806 1372.05C835.926 1432.99 900.478 1483.78 985.427 1518.86C992.058 1521.6 998.894 1524.27 1005.75 1526.8C1110.01 1566.45 1221.53 1578.69 1328.21 1562.19C1377.79 1564.2 1446.38 1556.8 1491.03 1510.24C1553.21 1459.57 1560.88 1392.69 1574.81 1271.27C1576.09 1260.16 1577.41 1248.63 1578.83 1236.63C1579.89 1220.86 1581.09 1206.25 1582.26 1192.12C1586.21 1144.15 1589.34 1106.27 1582.87 1068.08C1575.9 1026.93 1558.23 989.277 1525.57 945.978C1474.72 861.442 1362.38 746.049 1293.39 695.397C1251.3 649.205 1210.14 618.763 1163.96 599.693Z" fill="#FFEDC2"/>
<path d="M976.723 1510.14C895.731 1476.69 835.394 1426.65 802.234 1365.4C775.124 1327.82 755.215 1287.35 733.653 1238.13C697.748 1172.04 672.752 1076.21 665.043 975.175C652.466 913.365 640.288 834.784 657.797 774.64C671.77 723.335 708.421 679.833 766.732 645.343C847.628 593.731 962.694 570.983 1074.55 584.489C1105.9 588.364 1134.05 595.586 1160.63 606.562C1209.87 626.895 1251.65 658.977 1296.09 710.603C1360.52 761.775 1461.68 869.383 1509.71 948.146C1577.8 1039.2 1576.15 1098.78 1573.42 1197.48C1573.19 1206.21 1572.93 1215.23 1572.72 1224.59C1572.18 1231.58 1571.66 1238.44 1571.14 1245.14C1562.26 1361.82 1556.89 1432.24 1498.09 1483.26C1455.24 1530.65 1387.05 1542.21 1337.38 1543.56C1227.84 1565.65 1110.46 1557.78 1006.77 1521.43C996.535 1517.95 986.426 1514.14 976.723 1510.14ZM1160.96 605.511C1134.26 594.487 1105.99 587.232 1074.52 583.341C1022.08 577.013 967.257 578.56 915.974 587.824C859.143 598.088 808.681 617.098 765.986 644.34C707.468 678.954 670.673 722.644 656.635 774.183C639.064 834.542 651.264 913.293 663.855 975.157C671.568 1076.29 696.622 1172.29 732.58 1238.48C754.155 1287.74 774.1 1328.28 801.235 1365.88C834.507 1427.34 895.093 1477.61 976.398 1511.19C986.127 1515.21 996.265 1519.02 1006.52 1522.51C1058.22 1540.64 1112.82 1551.79 1168.8 1555.64C1225.51 1559.55 1282.34 1555.87 1337.69 1544.71C1387.47 1543.36 1455.96 1531.74 1499 1484.13C1558.06 1432.9 1563.44 1362.32 1572.35 1245.4C1572.85 1238.7 1573.37 1231.84 1573.92 1224.82C1574.13 1215.43 1574.38 1206.41 1574.62 1197.69C1577.36 1098.72 1579.01 1038.99 1510.69 947.625C1462.61 868.786 1361.3 761.012 1296.87 709.851C1252.36 658.147 1210.42 625.936 1160.96 605.511Z" fill="#FFEDC2"/>
<path d="M969.196 1503.08C891.012 1470.8 833.981 1420.97 804.274 1358.98C779.291 1319.31 761.801 1275.29 743.286 1228.68C710.926 1162.88 686.038 1071.78 674.985 978.7C659.205 913.495 644.995 839.071 659.156 781.011C670.783 729.754 705.297 686.39 761.743 652.13C844.347 598.528 961.943 575.66 1076.33 590.95C1105.83 594.975 1132.4 601.981 1157.56 612.372C1209.34 633.752 1252.97 668.481 1299.03 724.977C1358.51 776.421 1447.78 874.493 1494.36 949.715C1562.48 1041.69 1564.28 1104.63 1567.25 1208.91L1567.36 1212.69L1567.27 1215.72C1563.84 1333.58 1561.77 1404.73 1505.62 1456.94C1464.39 1505.3 1396.27 1521.08 1346.38 1525.81C1232.49 1553.77 1112.03 1550.56 1007.1 1516.79C994.072 1512.7 981.323 1508.09 969.196 1503.08ZM1157.89 611.32C1132.61 600.883 1105.93 593.849 1076.31 589.81C961.661 574.482 843.782 597.409 760.986 651.134C704.328 685.533 669.671 729.089 657.983 780.598C643.77 838.877 658.009 913.458 673.805 978.73C684.861 1071.87 709.795 1163.11 742.195 1229C760.712 1275.61 778.222 1319.68 803.233 1359.39C833.058 1421.64 890.348 1471.71 968.871 1504.13C981.035 1509.16 993.824 1513.78 1006.89 1517.88C1112.03 1551.73 1232.74 1554.94 1346.75 1526.94C1396.76 1522.21 1465.15 1506.35 1506.55 1457.79C1562.95 1405.35 1565.03 1334.05 1568.47 1215.92L1568.55 1212.86L1568.44 1209.05C1565.47 1104.53 1563.67 1041.45 1495.34 949.197C1448.71 873.903 1359.31 775.688 1299.83 724.262C1253.71 667.664 1209.9 632.798 1157.89 611.32Z" fill="#FFEDC2"/>
<path d="M963.648 1497.86C887.71 1466.5 833.56 1416.65 807.043 1353.68C788.838 1320.07 775.73 1282.79 761.849 1243.33C759.199 1235.8 756.5 1228.13 753.712 1220.32C724.619 1153.9 699.876 1067.48 685.821 983.171C667.594 918.352 650.462 844.559 661.486 788.207C670.768 736.97 703.15 693.704 757.742 659.618C842.041 603.951 962.138 580.892 1079 597.936C1106.81 602.059 1131.92 608.847 1155.76 618.691C1209.98 641.08 1255.31 678.45 1302.74 739.856C1356.65 791.089 1434.69 880.304 1479.68 951.851C1544.4 1040.29 1554.15 1105.16 1562.54 1201.49C1565.66 1310.41 1564.97 1379.82 1513.63 1431.51C1474.04 1480.83 1405.99 1500.89 1355.88 1509.04C1237.78 1543.01 1114.28 1544.52 1008.04 1513.29C992.655 1508.86 977.719 1503.67 963.648 1497.86ZM1156.08 617.641C1132.14 607.753 1106.93 600.934 1079.01 596.791C961.859 579.715 841.48 602.831 756.981 658.629C702.164 692.858 669.634 736.333 660.305 787.839C649.239 844.406 666.404 918.361 684.65 983.246C698.71 1067.59 723.481 1154.12 752.602 1220.58C755.373 1228.35 758.07 1236.01 760.718 1243.55C774.616 1283.06 787.743 1320.38 805.966 1354.03C818.759 1384.41 838.311 1412.13 864.054 1436.35C891.153 1461.85 924.553 1482.9 963.323 1498.91C977.443 1504.74 992.426 1509.94 1007.86 1514.39C1114.32 1545.68 1238.07 1544.18 1356.31 1510.17C1406.53 1502 1474.83 1481.85 1514.58 1432.34C1566.17 1380.41 1566.86 1310.82 1563.73 1201.6C1555.33 1105.03 1545.55 1040.01 1480.65 951.325C1435.62 879.722 1357.49 790.389 1303.59 739.18C1256.07 677.644 1210.55 640.133 1156.08 617.641Z" fill="#FFEDC2"/>
<path d="M958.685 1491.84C884.463 1461.19 832.753 1411.11 809.156 1347.01C795.687 1317.62 786.087 1285.56 775.923 1251.61C771.95 1238.35 767.841 1224.63 763.355 1210.56C744.088 1160.35 716.719 1080.72 695.679 986.215C673.851 918.529 654.762 848.435 662.723 793.981C669.62 742.78 699.897 699.637 752.706 665.758C838.779 608.072 961.504 584.899 1081.01 603.777C1106.93 607.924 1131.4 614.705 1153.74 623.93C1210.42 647.333 1257.42 687.36 1306.14 753.712C1350.39 800.359 1418.49 880.494 1464.98 953.055C1525.11 1036.27 1544.04 1100.31 1557.93 1189.4C1568.43 1294.61 1565.74 1356.87 1521.88 1405.15C1483.92 1455.31 1415.88 1479.65 1365.47 1491.24C1243.13 1531.17 1116.43 1537.31 1008.66 1508.52C991.193 1503.93 974.379 1498.32 958.685 1491.84ZM1154.07 622.88C1131.62 613.614 1107.05 606.804 1081.03 602.641C1025.59 593.884 966.995 594.268 911.571 603.747C851.328 614.053 796.124 635.159 751.936 664.772C698.888 698.805 668.469 742.169 661.533 793.663C653.544 848.327 672.666 918.573 694.523 986.34C715.564 1080.86 742.956 1160.56 762.225 1210.77C766.695 1224.8 770.802 1238.51 774.776 1251.77C784.95 1285.76 794.561 1317.86 808.049 1347.29C819.435 1378.22 837.67 1406.27 862.236 1430.63C888.11 1456.29 920.449 1477.23 958.36 1492.89C974.113 1499.39 990.985 1505.02 1008.51 1509.63C1116.51 1538.48 1243.45 1532.34 1365.96 1492.35C1416.48 1480.74 1484.76 1456.3 1522.85 1405.94C1544.62 1382 1557.02 1353.21 1561.86 1315.39C1566.71 1277.4 1563.41 1232.41 1559.12 1189.44C1545.19 1100.12 1526.22 1035.93 1465.94 952.531C1419.44 879.924 1351.26 799.701 1307.02 753.082C1258.2 686.567 1211 646.391 1154.07 622.88Z" fill="#FFEDC2"/>
<path d="M954.596 1487.21C881.874 1457.18 832.448 1406.79 811.659 1341.48C801.737 1315.23 794.849 1286.88 787.556 1256.88C783.255 1239.19 778.81 1220.89 773.499 1202.01C769.314 1189.21 764.888 1175.85 760.294 1161.99C743.2 1110.4 723.829 1051.93 706.212 990.562C677.873 912.825 659.984 850.881 664.748 801.14C669.26 749.997 697.398 706.976 748.386 673.282C834.822 614.442 963.158 590.528 1083.32 610.862C1107.8 615.055 1130.99 621.622 1152.21 630.387C1212.02 655.079 1259.04 696.433 1309.47 768.658C1328.85 791.628 1396.14 872.805 1449.93 955.213C1503.2 1030.12 1532.99 1094.7 1552.76 1178.16C1566.52 1251.22 1573.22 1326.21 1529.54 1379.58C1500.83 1419.91 1447.28 1452.65 1374.66 1474.28C1248.3 1520.24 1118.57 1531.06 1009.34 1504.74C990.052 1500.14 971.634 1494.24 954.596 1487.21ZM1152.54 629.335C1131.22 620.532 1107.94 613.937 1083.35 609.732C1026.95 600.185 967.134 600.194 910.362 609.757C848.752 620.132 792.473 641.762 747.606 672.305C696.372 706.162 668.092 749.42 663.556 800.87C658.769 850.816 676.693 912.896 705.072 990.749C722.683 1052.1 742.06 1110.58 759.157 1162.18C763.75 1176.04 768.173 1189.4 772.352 1202.17C777.648 1221.01 782.092 1239.29 786.39 1256.97C793.696 1287.02 800.593 1315.4 810.529 1341.7C820.559 1373.21 837.55 1401.64 861.025 1426.18C885.754 1452.04 917.126 1472.92 954.271 1488.26C971.376 1495.32 989.866 1501.24 1009.22 1505.86C1118.68 1532.23 1248.66 1521.4 1375.19 1475.37C1448 1453.69 1501.73 1420.83 1530.54 1380.35C1549.73 1356.91 1560.52 1328.43 1563.5 1293.32C1566.08 1263.05 1563.04 1226.44 1553.94 1178.1C1534.11 1094.43 1504.26 1029.72 1450.9 954.681C1397.08 872.239 1329.75 791.006 1310.39 768.072C1259.84 695.652 1212.62 654.141 1152.54 629.335Z" fill="#FFEDC2"/>
<path d="M951.001 1482.76C880.485 1453.64 831.807 1401.42 813.933 1335.7C806.764 1311.87 802.023 1286.33 797.003 1259.29C793.042 1237.95 788.948 1215.89 783.372 1193.07C768.465 1137.64 745.69 1074.97 721.585 1008.63L716.391 994.333C689.781 929.125 664.009 861.005 666.374 807.553C668.483 756.428 694.515 713.494 743.75 679.948C831.92 619.037 962.925 594.938 1085.64 617.055C1108.84 621.27 1130.84 627.64 1151.05 635.983C1229.23 668.261 1276.82 728.344 1313.06 782.86C1337.17 815.504 1385.08 881.464 1435.3 956.802C1477.88 1017.82 1521.01 1085.46 1548.13 1166.56C1573.27 1249.81 1569.96 1309.32 1537.7 1353.83C1509.92 1395.34 1458.28 1430.12 1384.2 1457.21C1253.77 1509.26 1120.88 1524.77 1010.01 1500.87C989.057 1496.37 969.205 1490.27 951.001 1482.76ZM1151.37 634.934C1131.08 626.553 1108.98 620.156 1085.69 615.92C962.674 593.755 831.35 617.913 742.961 678.977C693.47 712.695 667.297 755.885 665.174 807.331C662.802 861.014 688.622 929.272 715.271 994.582L720.456 1008.86C744.558 1075.17 767.319 1137.81 782.209 1193.18C787.777 1215.95 791.867 1238 795.823 1259.32C800.852 1286.4 805.597 1311.97 812.782 1335.85C821.532 1368.02 837.379 1396.91 859.879 1421.7C883.591 1447.83 914.138 1468.72 950.675 1483.81C968.953 1491.35 988.888 1497.47 1009.92 1502C1121.02 1525.94 1254.16 1510.42 1384.78 1458.29C1459.05 1431.13 1510.85 1396.23 1538.73 1354.57C1571.17 1309.8 1574.52 1250 1549.27 1166.38C1522.1 1085.1 1478.91 1017.37 1436.27 956.277C1386.04 880.929 1338.12 814.949 1314.02 782.324C1277.68 727.649 1229.92 667.363 1151.37 634.934Z" fill="#FFEDC2"/>
<path d="M947.956 1478.54C878.444 1449.84 831.713 1397.07 816.371 1329.96C811.414 1308.12 808.429 1284.82 805.267 1260.16C802.132 1235.68 798.888 1210.36 793.427 1184.2C782.83 1133.45 762.898 1077.82 726.778 998.201C696.175 930.639 668.673 865.721 668.238 814.105C667.936 763.014 691.855 720.174 739.338 686.768C829.217 623.78 962.848 599.496 1088.09 623.387C1110.06 627.602 1130.96 633.772 1150.21 641.72C1231.32 675.207 1279.88 739.091 1316.68 797.162C1322.66 806.62 1328.77 816.325 1335.02 826.276C1359.94 865.927 1388.19 910.871 1420.64 958.451C1428.33 969.719 1436.37 981.299 1444.14 992.499C1480.46 1044.81 1518 1098.9 1543.44 1154.98C1573.41 1221.1 1574.24 1282.56 1545.8 1328.04C1519.37 1370.09 1468.21 1407.8 1393.72 1440.1C1259.29 1498.26 1123.29 1518.47 1010.76 1497C988.295 1492.68 967.164 1486.47 947.956 1478.54ZM1150.54 640.668C1131.2 632.685 1110.21 626.489 1088.15 622.253C962.604 598.308 828.644 622.656 738.54 685.803C690.789 719.394 666.735 762.505 667.041 813.938C667.48 865.78 695.032 930.836 725.69 998.52C761.768 1078.06 781.676 1133.6 792.251 1184.26C797.703 1210.37 800.945 1235.67 804.079 1260.13C807.242 1284.82 810.232 1308.14 815.205 1330.04C822.717 1362.9 837.471 1392.27 859.065 1417.35C881.823 1443.78 911.619 1464.72 947.631 1479.59C966.926 1487.55 988.147 1493.79 1010.7 1498.14C1066.73 1508.82 1128.81 1509.2 1195.2 1499.26C1261.05 1489.39 1328.05 1469.84 1394.34 1441.17C1469.01 1408.78 1520.32 1370.95 1546.85 1328.74C1575.48 1282.97 1574.66 1221.14 1544.53 1154.66C1519.04 1098.48 1481.46 1044.33 1445.11 991.962C1437.33 980.766 1429.3 969.191 1421.62 957.926C1389.17 910.368 1360.94 865.439 1336.02 825.792C1329.77 815.849 1323.66 806.135 1317.68 796.677C1280.75 738.405 1232.02 674.31 1150.54 640.668Z" fill="#FFEDC2"/>
<path d="M950.485 1464.51C881.289 1435.94 835.014 1384.9 820.187 1320.79C814.923 1298.09 811.929 1274.19 808.761 1248.9C805.94 1226.39 803.023 1203.1 798.28 1178.92C796.019 1167.58 793.182 1155.6 789.849 1143.31C778.795 1102.55 762.218 1057.73 736.106 997.986C707.57 932.437 681.974 869.442 682.197 819.183C682.519 769.512 705.976 727.847 751.913 695.343C804.839 657.836 872.119 635.215 946.476 629.92C994.087 626.094 1044.34 629.302 1091.82 639.191C1112.76 643.415 1132.77 649.432 1151.27 657.072C1201 677.599 1242.77 710.427 1282.74 760.382C1293.66 774.11 1304.62 789.34 1316.24 806.94C1325.45 820.723 1334.8 834.908 1344.7 849.924C1366.91 883.58 1392.06 921.727 1419.82 961.622C1424.38 968.131 1428.98 974.673 1433.62 981.252C1465.11 1026 1497.69 1072.27 1522.8 1120.07C1528.77 1131.43 1534.18 1142.6 1538.87 1153.28C1567.22 1217.5 1567.62 1277.41 1540 1321.98C1514.17 1363.54 1464.66 1400.7 1392.86 1432.44C1344.88 1454.13 1293.04 1470.25 1238.79 1480.36C1201.04 1487.62 1162.65 1491.72 1124.69 1492.54C1086.57 1493.33 1051.13 1490.29 1013.16 1482.98C990.831 1478.67 969.741 1472.46 950.485 1464.51ZM1151.6 656.024C1133.01 648.351 1112.92 642.304 1091.9 638.066C1044.31 628.148 993.923 624.939 946.207 628.773C871.655 634.082 804.189 656.766 751.113 694.377C704.914 727.064 681.325 768.996 680.999 819.003C680.774 869.49 706.418 932.615 735.011 998.29C761.097 1057.98 777.653 1102.74 788.693 1143.44C792.017 1155.7 794.848 1167.65 797.105 1178.96C801.839 1203.11 804.752 1226.37 807.57 1248.86C810.742 1274.19 813.74 1298.11 819.019 1320.88C833.949 1385.42 880.523 1436.81 950.159 1465.56C969.502 1473.54 990.678 1479.78 1013.1 1484.11C1051.16 1491.44 1086.69 1494.48 1124.89 1493.69C1162.92 1492.87 1201.37 1488.77 1239.18 1481.49C1293.52 1471.37 1345.44 1455.22 1393.49 1433.5C1465.47 1401.69 1515.12 1364.4 1541.06 1322.68C1568.85 1277.81 1568.47 1217.54 1539.97 1152.97C1535.26 1142.26 1529.84 1131.06 1523.85 1119.69C1498.7 1071.8 1466.1 1025.49 1434.58 980.709C1429.94 974.133 1425.34 967.59 1420.79 961.081C1393.03 921.203 1368.97 884.709 1345.69 849.416C1335.79 834.398 1326.44 820.213 1317.22 806.429C1305.58 788.794 1294.6 773.534 1283.65 759.778C1243.52 709.616 1201.56 676.651 1151.6 656.024Z" fill="#FFEDC2"/>
<path d="M952.539 1450.31C883.784 1421.93 838.042 1372.68 823.74 1311.64C818.147 1288.03 815.166 1263.55 812.01 1237.64C809.512 1217.14 806.932 1195.95 802.883 1173.8C800.809 1162.84 798.193 1151.22 795.108 1139.24C784.879 1099.5 769.498 1055.98 745.232 998.141C718.78 934.683 695.11 873.681 695.99 824.828C696.943 776.626 719.908 736.183 764.258 704.618C816.358 667.289 882.049 646.117 954.226 643.384C999.972 640.814 1047.33 644.985 1094.99 655.79C1114.86 660.006 1133.92 665.854 1151.64 673.168C1200.25 693.236 1241.59 724.943 1281.73 772.952C1292.61 786.085 1303.5 800.602 1315.03 817.335C1328.71 836.704 1342.83 857.135 1357.77 878.766C1376.78 906.281 1396.44 934.731 1418.13 965.251L1420.46 968.491C1455.32 1016.95 1491.36 1067.05 1518.13 1119.46C1523.77 1130.48 1528.89 1141.38 1533.33 1151.83C1560.03 1214.08 1560 1272.37 1533.24 1315.98C1508.03 1357.01 1460.24 1393.58 1391.19 1424.7C1345.13 1446.43 1295.16 1461.37 1238.41 1470.41C1201.78 1476.67 1164.78 1479.82 1125.32 1480.07C1089.52 1480.22 1056.56 1476.86 1015.12 1468.81C992.916 1464.51 971.863 1458.29 952.539 1450.31ZM1151.96 672.117C1134.17 664.771 1115.03 658.901 1095.08 654.664C1047.31 643.839 999.838 639.658 953.989 642.238C881.608 644.974 815.717 666.209 763.453 703.656C718.853 735.403 695.75 776.103 694.793 824.634C693.909 873.703 717.628 934.84 744.131 998.426C768.371 1056.21 783.735 1099.67 793.948 1139.35C797.026 1151.31 799.634 1162.91 801.704 1173.84C805.747 1195.94 808.327 1217.12 810.821 1237.6C813.978 1263.54 816.965 1288.05 822.573 1311.73C829.606 1341.74 844.289 1369.08 866.219 1392.98C888.64 1417.42 917.574 1437.06 952.214 1451.36C971.622 1459.37 992.766 1465.62 1015.06 1469.93C1056.59 1478 1089.62 1481.38 1125.5 1481.21C1165.03 1480.97 1202.09 1477.81 1238.78 1471.55C1295.62 1462.5 1345.69 1447.52 1391.83 1425.75C1461.06 1394.56 1508.99 1357.86 1534.29 1316.67C1561.24 1272.78 1561.29 1214.13 1534.43 1151.53C1529.98 1141.05 1524.84 1130.14 1519.18 1119.08C1492.37 1066.59 1456.3 1016.44 1421.41 967.934L1419.09 964.705C1397.4 934.197 1377.75 905.745 1358.74 878.234C1343.8 856.6 1329.68 836.167 1315.99 816.795C1304.45 800.042 1293.53 785.492 1282.63 772.321C1242.32 724.12 1200.8 692.278 1151.96 672.117Z" fill="#FFEDC2"/>
<path d="M954.433 1436.02C887.04 1408.2 840.584 1359.44 826.976 1302.23C821.007 1277.6 818.056 1252.5 814.93 1225.93C812.755 1207.44 810.508 1188.33 807.106 1168.26C805.205 1157.65 802.804 1146.36 799.967 1134.69C790.541 1095.92 776.317 1053.66 753.843 997.636C729.413 936.19 707.609 877.105 709.137 829.587C710.71 782.797 733.225 743.534 776.048 712.889C827.407 675.708 891.62 655.976 961.754 655.822C1004.99 654.519 1050.89 659.764 1098.2 671.398C1117.01 675.605 1135.13 681.287 1152.07 688.278C1199.68 707.93 1240.69 738.58 1281.13 784.734C1291.98 797.305 1302.83 811.129 1314.28 827.001C1334.73 854.287 1356.27 884.153 1379.08 915.768C1391.28 932.686 1403.89 950.176 1417.13 968.37C1451.96 1015.41 1488.16 1065.74 1514.34 1118.53C1519.69 1129.28 1524.53 1139.9 1528.73 1150.12C1553.85 1210.48 1553.39 1267.23 1527.44 1309.91C1502.82 1350.45 1456.66 1386.48 1390.25 1416.99C1345.6 1438.92 1297.39 1452.75 1238.51 1460.51C1203.57 1465.68 1166.85 1468 1126.21 1467.61C1088.11 1467.16 1057.37 1462.5 1017.14 1454.61C994.995 1450.31 973.899 1444.05 954.433 1436.02ZM1152.39 687.229C1135.39 680.209 1117.19 674.508 1098.31 670.283C1050.9 658.624 1004.88 653.369 961.552 654.671C891.201 654.822 826.771 674.622 775.24 711.931C732.169 742.752 709.524 782.269 707.943 829.38C706.402 877.111 728.247 936.331 752.728 997.897C775.182 1053.87 789.391 1096.08 798.802 1134.78C801.633 1146.43 804.027 1157.7 805.927 1168.28C809.318 1188.31 811.568 1207.42 813.74 1225.88C816.869 1252.49 819.826 1277.62 825.809 1302.32C839.519 1359.96 886.282 1409.07 954.108 1437.07C973.658 1445.14 994.845 1451.42 1017.08 1455.74C1057.38 1463.64 1088.19 1468.3 1126.38 1468.76C1167.08 1469.15 1203.87 1466.83 1238.85 1461.65C1297.84 1453.87 1346.16 1440.01 1390.9 1418.04C1457.48 1387.46 1503.78 1351.3 1528.5 1310.6C1554.62 1267.63 1555.1 1210.54 1529.83 1149.84C1525.63 1139.6 1520.77 1128.95 1515.41 1118.17C1489.18 1065.28 1452.94 1014.89 1418.07 967.806C1404.84 949.62 1392.22 932.129 1380.03 915.216C1357.22 883.591 1335.68 853.723 1315.22 826.441C1303.75 810.539 1292.88 796.683 1282 784.079C1241.4 737.743 1200.22 706.97 1152.39 687.229Z" fill="#FFEDC2"/>
<path d="M956.005 1422.64C889.176 1395.06 843.368 1348.1 830.324 1293.79C823.984 1268.06 821.119 1242.31 818.083 1215.06C816.249 1198.59 814.352 1181.55 811.59 1163.59C809.878 1153.34 807.706 1142.38 805.125 1131C796.555 1093.19 783.546 1052.15 762.94 997.916C741.51 940.831 720.769 881.236 722.997 835.039C725.23 789.611 747.284 751.466 788.548 721.662C839.113 684.538 901.771 666.155 969.745 668.497C1010.3 668.371 1054.67 674.633 1101.64 687.107C1119.33 691.28 1136.45 696.757 1152.53 703.394C1199.07 722.603 1239.7 752.192 1280.38 796.506C1291.18 808.5 1301.95 821.636 1313.31 836.665C1345.22 876.82 1379.41 922.798 1415.61 971.479C1447.83 1013.8 1484.22 1064.25 1509.76 1117.63C1514.8 1128.09 1519.34 1138.45 1523.27 1148.44C1546.72 1206.93 1545.79 1262.19 1520.65 1304.03C1496.63 1344.15 1452.14 1379.71 1388.44 1409.71C1344.97 1432.02 1298.56 1444.83 1237.93 1451.25C1204.46 1455.48 1169.09 1456.97 1126.61 1455.94C1087.63 1454.88 1058.33 1449.1 1021.23 1441.78L1018.85 1441.31C996.76 1437.02 975.62 1430.73 956.005 1422.64ZM1152.86 702.344C1136.71 695.679 1119.52 690.176 1101.77 685.995C1054.71 673.496 1010.23 667.22 969.585 667.347C901.378 664.99 838.49 683.444 787.738 720.708C746.233 750.682 724.045 789.073 721.801 834.81C719.564 881.224 740.345 940.958 761.82 998.158C782.406 1052.34 795.399 1093.33 803.958 1131.07C806.53 1142.44 808.703 1153.38 810.407 1163.6C813.167 1181.53 815.061 1198.55 816.893 1215.01C819.931 1242.3 822.801 1268.08 829.159 1293.89C842.305 1348.62 888.422 1395.93 955.68 1423.69C975.379 1431.82 996.609 1438.13 1018.78 1442.44L1021.16 1442.91C1058.32 1450.24 1087.67 1456.03 1126.76 1457.09C1169.3 1458.12 1204.72 1456.63 1238.24 1452.39C1299.01 1445.96 1345.53 1433.12 1389.11 1410.75C1452.97 1380.67 1497.58 1344.99 1521.71 1304.71C1547.02 1262.59 1547.96 1207 1524.38 1148.17C1520.44 1138.16 1515.88 1127.76 1510.84 1117.28C1485.24 1063.8 1448.81 1013.27 1416.54 970.901C1380.34 922.219 1346.14 876.228 1314.22 836.068C1302.86 821.025 1292.07 807.854 1281.23 795.824C1240.39 751.337 1199.6 721.637 1152.86 702.344Z" fill="#FFEDC2"/>
<path d="M958.094 1408.44C891.854 1381.11 846.678 1336.01 834.143 1284.71C827.371 1257.84 824.605 1231.51 821.677 1203.63C820.164 1189.21 818.602 1174.31 816.407 1158.54C814.851 1148.51 812.944 1138.19 810.584 1126.98C802.834 1090.22 790.99 1050.47 772.186 998.112C752.711 943.043 733.939 885.522 736.819 840.698C739.671 796.74 761.243 759.823 800.939 730.984C850.702 694.061 911.814 677.143 977.672 682.061C1016.01 683.112 1057.69 690.234 1105.11 703.837C1121.65 707.957 1137.73 713.226 1152.93 719.497C1198.47 738.293 1238.81 766.823 1279.86 809.282C1290.63 820.691 1301.34 833.124 1312.61 847.283C1341.51 881.397 1372.95 920.901 1414.55 975.386C1457.03 1029.41 1486.04 1074.5 1505.84 1117.32C1510.57 1127.48 1514.83 1137.56 1518.5 1147.3C1540.35 1203.83 1539.01 1257.46 1514.72 1298.34C1491.63 1337.37 1447.64 1373.3 1387.51 1402.24C1333.8 1430.89 1279.5 1438.28 1238.19 1441.51C1197.49 1445.69 1157.8 1444.84 1127.78 1443.64C1094.18 1442.18 1068.57 1436.93 1038.92 1430.86C1033.25 1429.7 1027.39 1428.5 1021.26 1427.28C999.175 1422.96 977.924 1416.63 958.094 1408.44ZM1153.25 718.446C1138 712.15 1121.85 706.861 1105.27 702.729C1057.76 689.104 1015.98 681.968 977.557 680.91C911.452 675.974 850.087 692.959 800.127 730.027C760.198 759.043 738.492 796.2 735.626 840.457C732.732 885.493 751.544 943.143 771.056 998.329C789.842 1050.64 801.673 1090.33 809.411 1127.04C811.768 1138.23 813.672 1148.53 815.221 1158.53C817.41 1174.27 818.975 1189.17 820.487 1203.57C823.418 1231.49 826.184 1257.86 832.981 1284.81C845.615 1336.53 891.1 1381.98 957.769 1409.49C977.684 1417.71 999.024 1424.07 1021.19 1428.4C1027.32 1429.62 1033.17 1430.82 1038.84 1431.98C1068.55 1438.07 1094.21 1443.32 1127.91 1444.79C1157.98 1445.99 1197.72 1446.84 1238.48 1442.66C1279.88 1439.41 1334.32 1432.01 1388.19 1403.28C1448.48 1374.27 1492.6 1338.21 1515.78 1299.02C1540.24 1257.88 1541.6 1203.9 1519.62 1147.06C1515.94 1137.29 1511.67 1127.18 1506.92 1116.99C1487.07 1074.08 1458.02 1028.89 1415.47 974.794C1373.86 920.291 1342.41 880.776 1313.5 846.659C1302.23 832.484 1291.49 820.021 1280.69 808.579C1239.48 765.96 1198.99 737.321 1153.25 718.446Z" fill="#FFEDC2"/>
<path d="M959.678 1394.05C895.161 1367.43 849.604 1323.09 837.804 1275.45C830.582 1247.37 827.99 1220.44 825.244 1191.94C824.052 1179.56 822.816 1166.76 821.16 1153.19C819.79 1143.55 818.101 1133.56 815.999 1122.65C809.191 1087.38 798.228 1047.74 781.494 997.889C764.019 944.803 747.26 889.325 750.828 845.809C754.322 803.269 775.421 767.529 813.536 739.583C862.478 702.791 922.012 687.27 985.705 694.7C1021.57 696.85 1060.61 704.746 1108.58 719.555C1123.9 723.59 1138.87 728.611 1153.1 734.481C1197.64 752.862 1237.69 780.361 1279.14 821.015C1289.86 831.839 1300.51 843.567 1311.67 856.878C1343.21 891.767 1376.38 931.487 1413.09 978.319C1452.73 1027.15 1482.43 1073.5 1501.35 1116.1C1505.77 1125.96 1509.74 1135.77 1513.15 1145.28C1533.35 1199.87 1531.56 1251.95 1508.09 1291.93C1485.61 1330.5 1443.37 1365.88 1385.93 1394.25C1334.31 1422.93 1282.13 1429.13 1237.89 1431.42C1200.63 1434.38 1163.28 1433.01 1128.48 1431.09C1098.54 1429.32 1076.43 1424.49 1050.84 1418.9C1042.16 1417 1033.18 1415.05 1023.29 1413.07C1001.17 1408.73 979.768 1402.34 959.678 1394.05ZM1153.42 733.431C1139.13 727.535 1124.11 722.496 1108.75 718.456C1060.7 703.62 1021.57 695.708 985.635 693.559C921.679 686.088 861.874 701.679 812.719 738.632C774.379 766.743 753.155 802.714 749.635 845.549C746.053 889.27 762.847 944.877 780.358 998.082C797.074 1047.88 808.025 1087.48 814.823 1122.69C816.924 1133.58 818.608 1143.55 819.973 1153.17C821.628 1166.7 822.861 1179.5 824.053 1191.87C826.801 1220.42 829.399 1247.39 836.644 1275.56C842.733 1300.15 857.038 1323.35 879.154 1344.5C900.193 1364.63 927.927 1382.13 959.353 1395.1C979.528 1403.42 1001.02 1409.85 1023.22 1414.19C1033.1 1416.17 1042.07 1418.13 1050.75 1420.03C1076.4 1425.63 1098.55 1430.47 1128.58 1432.23C1163.44 1434.16 1200.83 1435.53 1238.14 1432.57C1282.5 1430.28 1334.83 1424.05 1386.61 1395.27C1444.2 1366.84 1486.58 1331.33 1509.16 1292.6C1532.78 1252.36 1534.6 1199.96 1514.27 1145.06C1510.85 1135.52 1506.87 1125.67 1502.44 1115.79C1483.47 1073.09 1453.71 1026.63 1414 977.713C1377.27 930.856 1344.08 891.116 1312.54 856.221C1301.37 842.903 1290.69 831.141 1279.94 820.286C1238.34 779.48 1198.14 751.885 1153.42 733.431Z" fill="#FFEDC2"/>
<path d="M961.43 1379.71C897.72 1353.42 852.961 1311.01 841.693 1266.26C833.983 1236.91 831.721 1210.7 829.1 1180.34C828.206 1169.98 827.283 1159.25 826.086 1147.91C824.899 1138.6 823.421 1128.94 821.576 1118.37C815.594 1084.12 805.843 1045.77 790.896 997.693C775.387 946.585 760.6 893.152 764.853 850.925C768.988 809.793 789.617 775.232 826.174 748.203C874.325 711.556 932.331 697.456 993.915 707.429C1036.37 711.477 1079.5 724.504 1112.35 735.398C1126.39 739.32 1140.18 744.057 1153.37 749.5C1197.01 767.505 1236.9 794.026 1278.91 832.955C1289.6 843.193 1300.18 854.23 1311.25 866.685C1345.03 901.571 1378.07 939.125 1412.27 981.515C1450 1026.42 1479.51 1072.63 1497.63 1115.19C1501.74 1124.75 1505.42 1134.3 1508.58 1143.58C1527.17 1196.23 1524.94 1246.76 1502.29 1285.84C1474.63 1333.98 1423.28 1367.17 1385.08 1386.53C1335.19 1415.36 1285 1420.4 1238.2 1421.56C1202.69 1423.51 1168.05 1421.43 1129.7 1418.72C1102.33 1416.67 1082.72 1412.04 1060.01 1406.66C1049.42 1404.16 1038.46 1401.56 1025.74 1399C1003.51 1394.63 981.87 1388.14 961.43 1379.71ZM1153.69 748.457C1140.45 742.993 1126.61 738.232 1112.55 734.304C1079.67 723.398 1036.44 710.344 993.89 706.288C932.03 696.272 873.734 710.436 825.353 747.256C788.58 774.446 767.822 809.233 763.663 850.648C759.391 893.073 774.205 946.637 789.749 997.859C804.685 1045.89 814.423 1084.19 820.397 1118.38C822.239 1128.95 823.713 1138.59 824.898 1147.86C826.091 1159.19 827.016 1169.9 827.909 1180.27C830.534 1210.67 832.796 1236.93 840.537 1266.37C851.902 1311.53 896.975 1354.3 961.105 1380.75C981.632 1389.22 1003.36 1395.74 1025.67 1400.13C1038.37 1402.69 1049.31 1405.28 1059.9 1407.78C1082.67 1413.17 1102.32 1417.81 1129.79 1419.86C1168.19 1422.58 1202.86 1424.66 1238.43 1422.71C1285.36 1421.55 1335.7 1416.49 1385.78 1387.56C1424.08 1368.15 1475.58 1334.85 1503.36 1286.51C1526.16 1247.17 1528.41 1196.33 1509.71 1143.37C1506.55 1134.06 1502.84 1124.48 1498.72 1114.9C1480.56 1072.22 1450.97 1025.88 1413.16 980.889C1378.94 938.477 1345.88 900.893 1312.08 865.994C1301.01 853.534 1290.4 842.47 1279.68 832.194C1237.53 793.135 1197.5 766.529 1153.69 748.457Z" fill="#FFEDC2"/>
<path d="M962.167 1365.98C899.346 1340.07 855.421 1299.59 844.673 1257.71C836.428 1227.07 834.437 1200.39 832.133 1169.51C831.506 1161.11 830.856 1152.42 830.053 1143.25C829.042 1134.3 827.774 1124.97 826.179 1114.71C821.009 1081.49 812.455 1044.44 799.262 998.108C785.681 948.985 772.837 897.599 777.777 856.644C782.542 816.92 802.718 783.541 837.736 757.44C885.128 720.961 941.646 708.304 1001.19 720.835C1036.77 725.625 1072.54 736.745 1115.3 751.974C1127.97 755.729 1140.48 760.147 1152.53 765.117C1195.38 782.793 1235.26 808.398 1278.03 845.692C1288.72 855.355 1299.26 865.704 1310.24 877.317C1345.71 911.37 1378.66 946.775 1410.99 985.581C1447.59 1027.55 1476.14 1072.36 1493.56 1115.19C1497.37 1124.46 1500.78 1133.74 1503.68 1142.78C1520.69 1193.51 1518.04 1242.47 1496.2 1280.66C1469.28 1328.22 1420.25 1360.76 1383.87 1379.69C1338.08 1407.13 1292.45 1412.65 1238.03 1412.51C1204.1 1413.51 1170.68 1410.61 1135.29 1407.55L1130.33 1407.12C1104.83 1404.81 1087.07 1400.22 1066.51 1394.91C1054.67 1391.86 1042.43 1388.7 1027.5 1385.66C1005.05 1381.23 983.074 1374.61 962.167 1365.98ZM1152.86 764.072C1140.76 759.084 1128.2 754.648 1115.52 750.89C1072.71 735.643 1036.88 724.501 1001.22 719.702C941.382 707.111 884.549 719.829 836.913 756.497C801.685 782.754 781.383 816.348 776.586 856.341C771.624 897.496 784.497 949.009 798.109 998.245C811.289 1044.53 819.832 1081.54 824.995 1114.71C826.59 1124.96 827.852 1134.27 828.86 1143.18C829.662 1152.33 830.314 1161.02 830.939 1169.42C833.249 1200.36 835.242 1227.09 843.514 1257.83C854.366 1300.11 898.603 1340.94 961.843 1367.03C982.832 1375.69 1004.9 1382.33 1027.43 1386.79C1042.32 1389.81 1054.55 1392.97 1066.37 1396.02C1086.99 1401.35 1104.8 1405.94 1130.39 1408.27L1135.37 1408.69C1170.79 1411.76 1204.25 1414.66 1238.22 1413.65C1292.82 1413.8 1338.62 1408.26 1384.58 1380.71C1421.05 1361.74 1470.24 1329.07 1497.27 1281.33C1519.25 1242.89 1521.93 1193.62 1504.82 1142.59C1501.91 1133.52 1498.49 1124.21 1494.66 1114.92C1477.19 1071.95 1448.56 1027.01 1411.87 984.933C1379.51 946.102 1346.53 910.659 1311.04 876.59C1300.06 864.978 1289.5 854.605 1278.78 844.903C1235.86 807.494 1195.86 781.81 1152.86 764.072Z" fill="#FFEDC2"/>
</g>
</svg>
