<svg width="1281" height="691" viewBox="0 0 1281 691" fill="none" xmlns="http://www.w3.org/2000/svg">
<path d="M323.594 -765.173C365.837 -781.138 398.305 -788.694 428.87 -789.669C546.415 -791.387 696.58 -677.24 811.426 -498.86C868.189 -409.367 903.162 -318.541 912.562 -236.209C920.252 -164.269 908.829 -87.8176 876.609 4.3884C854.044 67.5714 820.665 127.972 771.564 194.47C721.556 261.547 674.544 302.087 619.133 325.914C616.601 326.971 614.047 327.987 611.322 329.017C546.774 353.413 431.578 368.676 303.174 369.842C172.667 371.029 53.1906 356.982 -16.4272 332.265C-183.526 304.774 -207.323 225.076 -243.356 104.443C-259.335 50.9315 -277.454 -9.71723 -310.938 -78.6221C-335.113 -128.343 -357.355 -172.494 -376.982 -211.451C-471.234 -398.521 -514.257 -483.899 -478.698 -609.606C-469.472 -639.149 -447.313 -660.737 -412.852 -673.762C-385.687 -684.029 -350.649 -689.075 -308.705 -688.758C-270.585 -688.34 -229.786 -685.247 -186.592 -681.971C-129.781 -677.662 -71.0371 -673.204 -10.0411 -674.07C62.3924 -675.398 134.492 -689.987 210.384 -718.67C221.649 -722.927 233.335 -727.625 245.117 -732.627C250.41 -734.879 255.655 -737.123 260.853 -739.343C282.663 -748.676 303.265 -757.49 323.594 -765.173ZM611.883 330.051C614.621 329.016 617.192 327.996 619.745 326.934C675.364 303.017 722.518 262.364 772.652 195.119C821.816 128.537 855.238 68.053 877.841 4.77721C910.108 -87.5734 921.548 -164.16 913.842 -236.254C904.422 -318.753 869.39 -409.735 812.536 -499.368C697.446 -678.131 546.807 -792.522 428.765 -790.794C398.026 -789.815 365.419 -782.231 323.03 -766.211C302.676 -758.518 282.063 -749.7 260.237 -740.362C255.042 -738.137 249.801 -735.894 244.506 -733.645C232.738 -728.65 221.07 -723.96 209.82 -719.708C134.076 -691.081 62.1289 -676.52 -10.1419 -675.191C-71.063 -674.332 -129.77 -678.785 -186.553 -683.091C-229.771 -686.372 -270.589 -689.468 -308.761 -689.883C-350.886 -690.201 -386.094 -685.126 -413.415 -674.8C-448.227 -661.643 -470.606 -639.825 -479.94 -609.945C-497.232 -548.82 -496.711 -496.257 -478.188 -434.179C-460.208 -373.903 -425.79 -305.592 -378.155 -211.045C-358.531 -172.093 -336.284 -127.944 -312.119 -78.2268C-278.671 -9.41101 -260.569 51.201 -244.598 104.672C-226 166.936 -211.314 216.121 -179.896 254.53C-145.933 296.063 -95.6086 320.366 -16.7172 333.337C52.9196 358.079 172.588 372.156 303.261 370.971C431.821 369.798 547.193 354.5 611.883 330.051Z" fill="#EDE9F6"/>
<path d="M605.879 316.943C604.364 317.551 602.852 318.136 601.288 318.728C539.59 342.056 428.43 356.48 303.943 357.295C177.255 358.136 60.9021 344.261 -7.30587 320.181C-169.824 293.151 -194.519 215.893 -231.894 98.9453C-248.058 48.3757 -266.381 -8.9424 -298.767 -73.8392C-322.247 -121.195 -343.905 -163.359 -363.011 -200.559C-455.701 -381.018 -498.005 -463.382 -464.89 -585.302C-455.927 -616.98 -432.552 -640.164 -395.397 -654.213C-370.481 -663.634 -339.209 -668.99 -302.453 -670.128C-258.016 -673.181 -209.359 -672.27 -157.846 -671.303C-109.443 -670.393 -59.386 -669.456 -7.73439 -671.642C99.1227 -676.82 189.127 -706.024 247.531 -727.54L257.718 -731.543C270.085 -736.4 281.768 -740.99 293.469 -745.415C343.244 -764.235 385.213 -776.79 428.262 -776.886C542.296 -776.65 688.583 -666.179 800.937 -495.449C858.964 -408.29 895.303 -320.177 906.027 -240.64C915.226 -170.003 905.153 -94.9701 874.32 -4.50974C851.971 61.6262 817.232 123.684 764.988 190.783C713.878 255.755 665.004 294.59 606.519 316.701L605.879 316.943ZM601.853 319.769C603.423 319.175 604.944 318.587 606.451 317.974L607.083 317.74C665.784 295.545 714.816 256.596 766.06 191.451C818.375 124.261 853.169 62.1122 875.555 -4.1294C906.434 -94.7366 916.525 -169.911 907.305 -240.707C896.559 -320.404 860.16 -408.672 802.04 -495.972C689.445 -667.069 542.7 -777.777 428.186 -778.015C384.925 -777.914 342.818 -765.329 292.904 -746.456C281.194 -742.028 269.511 -737.435 257.137 -732.576L246.964 -728.581C188.656 -707.1 98.7862 -677.937 -7.86992 -672.764C-59.4755 -670.585 -109.508 -671.521 -157.893 -672.427C-209.436 -673.396 -258.123 -674.309 -302.589 -671.253C-339.479 -670.11 -370.9 -664.725 -395.96 -655.25C-433.466 -641.068 -457.083 -617.644 -466.131 -585.626C-499.358 -463.329 -456.996 -380.852 -364.179 -200.145C-345.074 -162.947 -323.419 -120.79 -299.938 -73.4345C-267.588 -8.61556 -249.282 48.6628 -233.132 99.1919C-213.84 159.555 -198.602 207.231 -167.367 244.522C-133.603 284.834 -84.3242 308.499 -7.60166 321.256C60.6326 345.356 177.183 359.262 304.021 358.424C428.672 357.606 540.012 343.151 601.853 319.769Z" fill="#EDE9F6"/>
<path d="M-377.587 -634.9C-355.13 -643.396 -327.765 -648.872 -296.261 -651.182C-244.426 -659.096 -186.082 -661.188 -124.311 -663.401C-85.7583 -664.784 -45.8943 -666.212 -5.11562 -669.123C95.0052 -677.078 180.354 -700.592 250.641 -722.545L254.672 -723.983C317.562 -746.453 371.88 -765.858 428.635 -764.308C539.317 -762.197 681.797 -655.518 791.629 -492.521C851.775 -406.539 888.421 -323.486 900.553 -245.655C911.074 -177.308 901.994 -101.534 872.81 -13.9924C850.907 54.1794 813.631 119.787 758.844 186.578C706.648 249.553 654.349 287.622 592.72 307.565L591.375 308.077C532.435 330.375 425.159 344.018 304.425 344.574C181.39 345.139 68.0081 331.509 1.11918 308.117C-157.036 281.658 -182.61 206.844 -221.321 93.5966C-237.592 46.0035 -256.035 -7.93844 -287.255 -68.7884C-309.996 -113.696 -331.022 -153.799 -349.569 -189.184C-440.701 -363.033 -482.296 -442.378 -451.436 -560.57C-442.762 -594.632 -417.916 -619.643 -377.587 -634.9ZM607.305 303.683C663.071 282.586 711.56 245.594 759.899 187.273C814.771 120.376 852.107 54.6622 874.047 -13.6206C903.283 -101.311 912.369 -177.24 901.827 -245.745C889.671 -323.738 852.96 -406.949 792.723 -493.059C738.547 -573.46 675.73 -641.525 611.071 -689.897C546.404 -738.271 483.304 -764.393 428.599 -765.433C371.579 -766.991 317.153 -747.546 254.13 -725.031L250.126 -723.6C179.939 -701.68 94.6804 -678.189 -5.29703 -670.245C-46.0373 -667.34 -85.8946 -665.909 -124.438 -664.53C-186.249 -662.312 -244.638 -660.221 -296.492 -652.299C-328.083 -649.986 -355.57 -644.482 -378.151 -635.939C-418.856 -620.54 -443.934 -595.285 -452.692 -560.875C-483.645 -442.315 -441.992 -362.858 -350.728 -188.764C-332.184 -153.381 -311.16 -113.281 -288.426 -68.3755C-257.239 -7.59657 -238.806 46.3062 -222.557 93.8643C-202.572 152.315 -186.792 198.477 -155.715 234.623C-122.121 273.708 -73.8425 296.702 0.824547 309.193C67.7377 332.605 181.309 346.265 304.508 345.698C425.401 345.146 532.855 331.469 591.939 309.116L593.257 308.615C597.953 307.092 602.69 305.429 607.305 303.683Z" fill="#EDE9F6"/>
<path d="M-358.266 -616.124C-338.654 -623.547 -315.482 -628.88 -289.406 -631.97C-229.034 -646.488 -158.794 -652.456 -84.4284 -658.777C-57.7656 -661.041 -30.1951 -663.384 -2.32271 -666.184C98.7862 -677.315 188.178 -700.225 253.451 -716.949C313.483 -736.203 370.147 -754.383 428.373 -750.996C481.156 -749.01 542.087 -723.44 604.602 -677.051C667.239 -630.565 728.337 -565.483 781.293 -488.838C842.729 -405.305 880.673 -324.952 894.064 -250.008C906.085 -183.043 898.383 -108.776 870.522 -22.9598C848.865 48.1085 810.186 115.383 752.271 182.709C706.539 235.316 660.563 269.155 607.585 289.207C598.502 292.645 589.057 295.723 579.508 298.349C522.643 319.257 419.513 331.772 303.561 331.845C183.36 331.919 76.5418 318.814 10.4922 295.881C-143.103 269.903 -169.621 197.554 -209.758 88.0405C-226.096 43.4617 -244.615 -7.06676 -274.631 -63.8338C-296.58 -106.2 -316.936 -144.176 -334.891 -177.685C-424.535 -344.953 -465.451 -421.295 -436.987 -535.703C-428.714 -572.432 -402.225 -599.486 -358.266 -616.124ZM608.149 290.249C661.323 270.123 707.446 236.178 753.312 183.427C811.323 115.984 850.067 48.593 871.762 -22.6054C899.671 -108.569 907.382 -182.994 895.333 -250.121C881.909 -325.23 843.901 -405.736 782.371 -489.394C729.348 -566.139 668.149 -631.326 605.396 -677.894C542.648 -724.457 481.437 -750.124 428.373 -752.122C369.895 -755.525 313.11 -737.307 252.99 -718.021C187.795 -701.317 98.4558 -678.427 -2.54728 -667.303C-30.3976 -664.506 -57.9637 -662.165 -84.6254 -659.899C-159.042 -653.575 -229.338 -647.598 -289.725 -633.075C-315.837 -629.983 -339.113 -624.627 -358.829 -617.164C-403.168 -600.382 -429.891 -573.072 -438.249 -535.993C-466.794 -421.222 -425.824 -344.765 -336.049 -177.252C-318.091 -143.747 -297.74 -105.777 -275.791 -63.4137C-245.812 -6.70553 -227.307 43.7823 -210.978 88.3296C-190.26 144.847 -173.901 189.493 -142.985 224.501C-109.562 262.351 -62.3147 284.697 10.1949 296.955C76.2775 319.91 183.279 333.046 303.641 332.973C419.734 332.898 523.056 320.348 580.008 299.41C589.539 296.786 599.028 293.702 608.149 290.249Z" fill="#EDE9F6"/>
<path d="M-339.211 -599.268C-322.846 -605.465 -304.138 -610.353 -283.587 -613.802C-213.057 -637.259 -127.732 -648.095 -37.4127 -659.561C-25.1467 -661.117 -12.7751 -662.686 -0.300955 -664.308C75.2922 -674.955 143.664 -689.208 203.986 -701.783C222.131 -705.569 239.273 -709.139 255.733 -712.435C319.326 -730.411 372.337 -743.761 427.764 -738.778C478.98 -735.826 538.11 -710.662 598.778 -666.009C659.591 -621.246 719.154 -558.949 771.029 -485.846C833.865 -404.644 873.156 -326.889 887.816 -254.718C901.371 -189.076 895.053 -116.22 868.494 -31.9965C847.4 41.0536 806.15 112.048 745.894 179.04C702.646 226.62 659.117 257.635 608.919 276.644C595.341 281.786 581.015 286.088 566.346 289.447C511.034 308.751 411.96 319.957 301.249 319.437C186.099 318.896 83.3381 305.934 19.3199 283.868C-129.929 258.299 -157.483 188.3 -199.181 82.3364C-215.552 40.7315 -234.109 -6.42041 -262.909 -59.1681C-284.054 -98.9679 -303.718 -134.806 -321.076 -166.423C-409.448 -327.445 -449.778 -400.933 -423.721 -511.759C-415.914 -551.552 -387.485 -580.988 -339.211 -599.268ZM609.484 277.688C659.872 258.607 703.538 227.494 746.918 179.769C807.283 112.666 848.602 41.5286 869.736 -31.6503C896.345 -116.025 902.674 -189.039 889.078 -254.858C874.384 -327.189 835.027 -405.1 772.094 -486.422C720.158 -559.613 660.492 -622.014 599.568 -666.855C538.674 -711.676 479.277 -736.937 427.8 -739.9C372.149 -744.905 319.008 -731.53 255.33 -713.523C238.917 -710.24 221.773 -706.669 203.622 -702.885C143.323 -690.312 74.9736 -676.065 -0.567882 -665.424C-13.029 -663.807 -25.4015 -662.235 -37.662 -660.678C-128.055 -649.203 -213.442 -638.36 -284.001 -614.884C-304.529 -611.451 -323.332 -606.536 -339.775 -600.309C-388.44 -581.881 -417.105 -552.18 -424.984 -512.03C-451.131 -400.849 -410.732 -327.248 -322.22 -165.984C-304.872 -134.367 -285.202 -98.5357 -264.065 -58.7357C-235.299 -6.04022 -216.75 41.0769 -200.397 82.6481C-178.872 137.336 -161.87 180.531 -131.045 214.461C-97.7181 251.143 -51.4376 272.886 19.0261 284.944C83.0818 307.032 186.006 320.024 301.313 320.564C412.177 321.083 511.424 309.852 566.808 290.522C581.468 287.175 595.852 282.85 609.484 277.688Z" fill="#EDE9F6"/>
<path d="M-256.823 -602.464C-184.084 -630.025 -96.4488 -645.358 2.27375 -661.174C42.4441 -668.101 80.2771 -675.192 116.862 -682.05C168.126 -691.661 216.551 -700.734 258.76 -706.838C317.729 -721.182 371.123 -732.484 428.014 -725.582C477.687 -721.715 535.007 -697.046 593.804 -654.237C652.76 -611.316 710.734 -551.937 761.462 -482.523C825.654 -403.832 866.21 -328.807 882.022 -259.51C897.051 -195.307 892.016 -123.959 866.626 -41.3903C845.695 34.567 802.87 107.319 739.337 174.87C699.008 217.295 656.701 246.522 610.008 264.214C592.029 271.027 572.769 276.358 552.759 280.062C443.803 315.938 164.22 318.437 27.4855 271.866C-117.519 246.862 -146.087 179.297 -189.335 77.0241C-205.62 38.4946 -224.085 -5.17223 -251.55 -53.7735C-271.777 -90.8503 -290.677 -124.406 -307.344 -154.013C-394.396 -308.605 -434.131 -379.161 -410.292 -486.336C-403.02 -529.574 -372.235 -561.749 -318.807 -581.994C-306.215 -586.765 -292.291 -590.856 -277.424 -594.161C-270.738 -597.021 -263.845 -599.804 -256.823 -602.464ZM610.573 265.258C657.442 247.499 699.891 218.175 740.344 175.616C803.997 107.944 846.903 35.0451 867.873 -41.0539C893.313 -123.78 898.356 -195.293 883.28 -259.674C867.432 -329.14 826.799 -404.318 762.511 -483.121C711.728 -552.614 653.658 -612.088 594.591 -655.092C535.58 -698.055 478.002 -722.818 428.088 -726.705C370.983 -733.632 317.46 -722.305 258.417 -707.941C216.243 -701.845 167.806 -692.765 116.528 -683.157C79.9427 -676.298 42.1184 -669.211 1.96792 -662.286C-96.8204 -646.456 -184.529 -631.108 -257.385 -603.503C-264.422 -600.837 -271.333 -598.048 -277.922 -595.216C-292.736 -591.939 -306.721 -587.825 -319.369 -583.032C-373.207 -562.633 -404.225 -530.188 -411.563 -486.588C-423.108 -434.677 -420 -389.894 -401.162 -336.866C-383.137 -286.116 -351.831 -230.513 -308.495 -153.558C-291.824 -123.955 -272.93 -90.3998 -252.697 -53.3255C-225.268 -4.77258 -206.815 38.8634 -190.533 77.3673C-168.211 130.148 -150.588 171.841 -119.851 204.624C-86.6111 240.075 -41.2667 261.142 27.1886 272.943C89.2152 294.074 188.108 306.817 298.411 307.863C404.071 308.872 499.314 298.882 553.185 281.148C573.182 277.449 592.518 272.099 610.573 265.258Z" fill="#EDE9F6"/>
<path d="M-208.097 -603.859C-139.826 -629.736 -62.1865 -646.255 4.75486 -659.001C93.9011 -677.146 187.138 -695.412 261.33 -701.982C324.975 -714.8 374.945 -721.105 427.585 -712.97C526.009 -703.074 649.987 -613.549 751.166 -479.332C816.789 -403.053 858.672 -330.683 875.674 -264.203C892.272 -201.405 888.621 -131.533 864.528 -50.57C844.193 27.2173 798.704 103.801 732.983 170.918C694.996 209.311 655.238 236.044 611.444 252.644C588.979 261.158 565.523 267.091 539.739 270.779C487.493 286.86 396.546 295.499 296.345 293.909C191.322 292.244 96.7239 279.685 36.8067 259.453C-103.898 234.845 -133.617 169.626 -178.61 70.9025C-194.764 35.4421 -213.076 -4.74647 -239.156 -49.2205C-258.431 -83.5117 -276.518 -114.742 -292.484 -142.292C-375.85 -286.251 -417.698 -358.51 -396.26 -462.145C-389.794 -508.683 -355.386 -545.01 -296.765 -567.23C-288.632 -570.312 -279.954 -573.158 -270.954 -575.687C-251.963 -585.77 -230.859 -595.231 -208.097 -603.859ZM612.008 253.686C655.972 237.022 695.865 210.2 733.977 171.686C799.826 104.437 845.402 27.6931 865.775 -50.2444C889.919 -131.365 893.569 -201.423 876.929 -264.389C859.879 -331.041 817.92 -403.563 752.201 -479.952C650.823 -614.429 526.472 -704.156 427.697 -714.09C369.166 -723.135 313.28 -713.618 261.056 -703.094C186.865 -696.527 93.5861 -678.255 4.40365 -660.105C-62.5848 -647.349 -140.29 -630.816 -208.661 -604.901C-231.466 -596.257 -252.624 -586.77 -271.532 -576.713C-280.443 -574.225 -289.158 -571.372 -297.33 -568.274C-356.369 -545.896 -391.017 -509.277 -397.532 -462.374C-419.037 -358.395 -377.122 -286.018 -293.616 -141.828C-277.659 -114.277 -259.577 -83.0501 -240.3 -48.7544C-214.245 -4.33065 -195.943 35.8346 -179.796 71.2679C-156.576 122.223 -138.239 162.467 -107.536 194.175C-74.3407 228.455 -29.9147 248.917 36.5194 260.534C96.463 280.785 191.229 293.373 296.396 295.04C396.734 296.63 487.847 287.974 540.119 271.872C565.9 268.193 589.45 262.236 612.008 253.686Z" fill="#EDE9F6"/>
<path d="M-157.617 -608.798C-111.71 -626.205 -57.7584 -641.665 7.31825 -656.058C113.62 -681.039 197.637 -694.241 264.185 -696.419C323.235 -705.733 373.569 -709.848 427.562 -699.679C522.568 -687.843 642.812 -601.948 741.415 -475.502C808.522 -401.648 851.734 -331.928 869.879 -268.244C888.034 -206.882 885.748 -138.456 862.899 -59.0589C837.561 42.9256 774.979 120.572 726.941 167.752C691.123 202.576 653.768 227.069 612.746 242.624C586.288 252.656 558.195 259.103 526.86 262.333C423.587 291.764 171.894 290.083 45.9361 247.997C-90.6636 223.784 -121.624 160.862 -168.482 65.6191C-184.397 33.2727 -202.434 -3.3899 -227.043 -43.6953C-245.27 -75.0863 -262.466 -103.89 -277.642 -129.301C-360.142 -267.453 -401.551 -336.799 -382.462 -436.999C-376.835 -488.073 -339.105 -528.231 -273.341 -553.167C-270.487 -554.249 -267.54 -555.315 -264.583 -556.339C-233.746 -576.043 -198.798 -593.183 -157.617 -608.798ZM613.31 243.667C654.495 228.051 691.984 203.475 727.919 168.533C776.054 121.257 838.756 43.4504 864.147 -58.7434C887.05 -138.307 889.336 -206.91 871.123 -268.463C852.934 -332.31 809.632 -402.191 742.433 -476.143C643.645 -602.824 523.039 -688.919 427.718 -700.791C373.563 -710.992 323.089 -706.87 263.975 -697.542C197.421 -695.368 113.313 -682.153 6.93729 -657.154C-58.1974 -642.748 -112.211 -627.272 -158.181 -609.841C-199.447 -594.194 -234.467 -577.017 -265.248 -557.33C-268.078 -556.368 -271.038 -555.297 -273.905 -554.21C-340.092 -529.114 -378.072 -488.655 -383.732 -437.211C-402.89 -336.668 -361.413 -267.207 -278.775 -128.82C-263.604 -103.413 -246.405 -74.618 -228.169 -43.2196C-203.587 -2.94462 -185.561 33.6924 -169.657 66.0186C-122.625 161.612 -91.5468 224.766 45.6442 249.075C171.722 291.213 423.856 292.897 527.206 263.437C558.532 260.21 586.742 253.741 613.31 243.667Z" fill="#EDE9F6"/>
<path d="M-108.834 -615.092C-72.8293 -628.751 -33.9147 -640.802 10.1151 -651.931C110.203 -678.65 196.781 -691.404 267.455 -689.835C316.078 -695.302 369.112 -698.553 428.049 -685.478C519.693 -671.792 636.183 -589.694 732.109 -471.211C801.664 -398.91 844.92 -333.803 864.381 -272.119C884.061 -212.274 883.06 -145.369 861.336 -67.5678C841.752 14.8551 791.782 97.2546 720.629 164.468C686.78 196.138 651.633 218.621 613.187 233.207C582.976 244.668 550.367 251.417 513.489 253.843C413.164 280.003 176.949 277.233 54.3208 236.857C-78.3388 213.141 -110.599 152.55 -159.433 60.8272C-174.944 31.6946 -192.527 -1.32979 -215.506 -37.3567C-232.561 -65.6839 -248.743 -91.8994 -263.03 -115.03C-344.754 -247.344 -385.772 -313.76 -368.905 -410.552C-363.341 -478.107 -305.672 -515.872 -258.277 -535.669L-258.143 -535.745C-217.201 -566.554 -168.36 -592.51 -108.834 -615.092ZM613.749 234.247C652.351 219.603 687.625 197.042 721.594 165.269C792.892 97.9091 842.968 15.3336 862.591 -67.2587C884.368 -145.239 885.36 -212.331 865.621 -272.368C846.103 -334.214 802.757 -399.479 733.108 -471.871C637.012 -590.566 520.184 -672.853 428.247 -686.585C369.15 -699.695 315.973 -696.438 267.319 -690.961C196.604 -692.536 109.894 -679.771 9.69195 -653.019C-34.3816 -641.879 -73.3354 -629.813 -109.397 -616.133C-169.009 -593.518 -217.929 -567.524 -258.952 -536.665C-306.624 -516.744 -364.582 -478.728 -370.187 -410.74C-387.109 -313.613 -346.018 -247.081 -264.156 -114.532C-249.875 -91.4077 -233.683 -65.1963 -216.633 -36.8613C-193.661 -0.856251 -176.095 32.142 -160.595 61.2628C-111.576 153.314 -79.2001 214.128 54.0337 237.942C176.778 278.357 413.41 281.132 513.787 254.952C550.669 252.535 583.414 245.755 613.749 234.247Z" fill="#EDE9F6"/>
<path d="M-65.5905 -623.219C-40.9924 -632.553 -14.6518 -641.225 12.705 -649.001C108.779 -677.703 197.834 -689.881 270.253 -684.23C332.293 -688.205 379.42 -684.571 427.933 -672.081C471.369 -664.38 521.412 -641.486 572.706 -605.858C624.307 -570.015 676.019 -522.072 722.249 -467.21C793.399 -397.379 837.961 -334.837 858.52 -275.957C879.799 -217.584 880.189 -152.127 859.712 -75.847C840.455 9.50608 788.957 93.7948 714.698 161.518C682.735 190.395 649.698 211.076 613.695 224.737C580.034 237.51 543.105 244.322 500.793 245.563C402.489 268.581 181.612 263.811 63.7646 225.446C-65.0442 202.024 -98.8148 143.601 -149.932 55.1624C-164.902 29.269 -181.864 -0.0832174 -203.096 -31.8269C-218.854 -56.9816 -233.285 -79.4965 -247.238 -101.263C-328.555 -228.145 -369.374 -291.83 -354.896 -385.419C-351.295 -453.035 -296.832 -493.93 -251.784 -516.337L-251.654 -516.421C-202.979 -558.908 -140.379 -594.84 -65.5905 -623.219ZM614.26 225.781C650.408 212.065 683.572 191.308 715.646 162.33C790.066 94.4641 841.673 9.98485 860.971 -75.5462C881.496 -152.012 881.097 -217.667 859.747 -276.239C839.13 -335.284 794.474 -397.977 723.228 -467.896C676.964 -522.799 625.163 -570.823 573.465 -606.729C522.005 -642.476 471.762 -665.452 428.172 -673.178C379.553 -685.698 332.29 -689.346 270.191 -685.359C197.699 -691.023 108.466 -678.824 12.2374 -650.08C-15.141 -642.295 -41.5209 -633.608 -66.1538 -624.261C-141.049 -595.842 -203.755 -559.854 -252.534 -517.297C-297.83 -494.753 -352.553 -453.61 -356.172 -385.586C-370.705 -291.664 -329.814 -227.859 -248.351 -100.751C-234.397 -78.9824 -219.971 -56.4765 -204.203 -31.309C-182.983 0.417458 -166.031 29.7516 -151.072 55.6354C-99.7741 144.382 -65.8826 203.015 63.4746 226.53C117.303 244.06 199.861 256.067 289.876 259.451C374.409 262.629 453.352 257.852 501.052 246.674C543.38 245.451 580.455 238.609 614.26 225.781Z" fill="#EDE9F6"/>
<path d="M-30.0393 -629.401C-15.4625 -634.934 -0.303046 -640.194 15.0181 -645.043C109.478 -676.286 198.627 -687.572 272.845 -677.687C330.393 -678.473 378.098 -672.349 427.628 -657.822C513.818 -640.01 620.145 -567.067 712.113 -462.677C784.86 -395.437 830.687 -335.539 852.259 -279.511C875.117 -222.685 876.845 -158.74 857.549 -84.0158C838.572 4.21067 785.476 90.3477 708.043 158.554C677.794 184.96 646.671 204.024 612.896 216.843C576.009 230.843 534.919 237.533 487.27 237.293C393.1 256.664 183.229 249.844 72.325 214.282C-52.8542 191.184 -88.2938 134.899 -141.917 49.7017C-156.1 27.1759 -172.167 1.64125 -191.434 -25.6823C-205.699 -47.4685 -218.888 -67.2085 -231.642 -86.2965C-310.245 -203.976 -353.546 -268.798 -341.393 -359.266C-339.714 -426.851 -288.427 -470.889 -245.694 -495.938C-190.379 -551.194 -117.861 -596.069 -30.0393 -629.401ZM613.462 217.89C647.373 205.019 678.619 185.879 708.973 159.378C786.579 91.025 839.79 4.69258 858.809 -83.7234C878.157 -158.644 876.413 -222.797 853.472 -279.825C831.843 -336.013 785.913 -396.062 713.063 -463.39C620.954 -567.943 514.339 -641.055 427.914 -658.91C378.293 -673.467 330.454 -679.608 272.86 -678.815C198.538 -688.723 109.166 -677.416 14.5201 -646.11C-0.823992 -641.255 -16.0117 -635.984 -30.6038 -630.446C-118.589 -597.051 -191.245 -552.089 -246.568 -496.803C-289.415 -471.702 -340.988 -427.404 -342.677 -359.408C-354.873 -268.609 -311.494 -203.665 -232.743 -85.7649C-219.99 -66.6761 -206.807 -46.9398 -192.521 -25.1397C-173.267 2.16976 -157.207 27.6886 -143.037 50.2079C-89.2205 135.698 -53.6665 192.176 72.0381 215.368C124.576 232.217 201.026 243.718 287.218 247.724C366.427 251.404 441.295 247.921 487.486 238.411C535.162 238.667 576.416 231.95 613.462 217.89Z" fill="#EDE9F6"/>
<path d="M-0.67699 -634.287C5.56443 -636.656 11.9466 -638.979 18.2886 -641.191C111.566 -675.045 200.749 -685.43 276.2 -671.218C329.076 -669.132 377.268 -660.371 427.976 -643.64C510.754 -623.898 613.332 -554.628 702.429 -458.326C777.819 -392.829 823.544 -337.242 846.372 -283.348C870.81 -228.129 873.882 -165.738 855.774 -92.5968C837.379 -2.86346 781.299 87.377 701.91 155.012C673.264 179.209 643.919 196.821 612.205 208.86C571.774 224.209 528.003 230.411 474.449 228.379C383.928 244.213 188.741 236.173 81.896 202.455C-39.8829 179.609 -77.2004 125.362 -133.692 43.2438C-146.771 24.2366 -161.592 2.69609 -178.589 -20.0596C-191.131 -38.2651 -202.843 -55.0122 -214.175 -71.2037C-293.007 -183.876 -336.436 -245.936 -326.648 -333.438C-326.894 -400.896 -278.818 -448.066 -238.446 -475.767C-179.16 -542.945 -96.9676 -597.733 -0.67699 -634.287ZM612.771 209.907C644.619 197.816 674.08 180.135 702.829 155.849C782.396 88.0641 838.598 -2.39339 857.033 -92.3237C875.195 -165.661 872.102 -228.267 847.571 -283.697C824.675 -337.755 778.846 -393.485 703.356 -459.06C614.134 -555.502 511.291 -624.926 428.306 -644.714C377.526 -661.475 329.204 -670.257 276.296 -672.336C200.696 -686.581 111.253 -676.181 17.7528 -642.246C11.4065 -640.032 5.01464 -637.703 -1.23983 -635.328C-97.7197 -598.702 -180.064 -543.812 -239.369 -476.583C-279.857 -448.829 -328.183 -401.394 -327.935 -333.554C-337.756 -245.725 -294.249 -183.54 -215.261 -70.6506C-203.931 -54.4606 -192.214 -37.7182 -179.67 -19.4976C-162.671 3.26038 -147.854 24.7942 -134.784 43.7887C-105.583 86.2365 -82.5222 119.763 -50.8984 146.386C-16.7549 175.13 24.1105 192.762 81.6082 203.543C132.019 219.452 204.423 230.752 285.406 235.328C359.223 239.5 429.953 237.321 474.612 229.502C528.215 231.55 572.163 225.322 612.771 209.907Z" fill="#EDE9F6"/>
<path d="M28.1283 -640.915C117.832 -674.972 204.466 -683.409 278.667 -665.307C328.015 -660.573 373.898 -649.662 427.538 -629.906C507.051 -608.149 605.982 -542.415 692.249 -454.044C769.4 -391.125 816.387 -338.043 840.178 -286.949C865.886 -234.017 870.469 -171.354 853.811 -100.67C835.777 -8.03019 778.135 84.1509 695.659 152.252C668.488 174.513 640.764 190.841 610.912 202.174C567.619 218.611 520.118 224.359 461.424 220.252C371.479 232.954 194.047 223.227 90.9997 191.21C-27.8853 168.438 -65.3784 118.743 -127.498 36.41C-139.617 20.3516 -152.141 3.75209 -166.498 -14.28C-177.002 -28.6982 -186.963 -42.2016 -196.584 -55.2665C-276.334 -163.437 -320.259 -223.021 -312.924 -307.942C-315.128 -375.322 -270.27 -425.697 -232.252 -456.104C-169.87 -535.773 -82.4832 -598.631 20.5412 -637.977C23.0832 -638.977 25.6031 -639.956 28.1283 -640.915ZM611.479 203.224C641.46 191.842 669.293 175.445 696.564 153.103C779.229 84.846 837.001 -7.55326 855.073 -100.4C871.783 -171.291 867.171 -234.19 841.358 -287.335C817.494 -338.591 770.4 -391.809 693.148 -454.806C606.777 -543.292 507.603 -609.165 427.917 -630.967C374.211 -650.75 328.214 -661.689 278.841 -666.418C204.457 -684.57 117.531 -676.12 27.5624 -641.962C25.0328 -641.002 22.5086 -640.022 19.969 -639.017C-83.2567 -599.597 -170.816 -536.611 -233.235 -456.871C-271.354 -426.403 -316.426 -375.769 -314.207 -308.036C-321.574 -222.782 -277.555 -163.077 -197.657 -54.6854C-188.025 -41.6247 -178.073 -28.1233 -167.555 -13.6888C-153.187 4.35292 -140.672 20.9504 -128.559 36.9975C-97.5215 78.1356 -73.0061 110.625 -40.7518 136.459C-5.97238 164.324 34.5712 181.544 90.7202 192.298C139.038 207.316 207.454 218.458 283.28 223.647C351.725 228.333 418.371 227.484 461.546 221.376C520.301 225.503 567.995 219.734 611.479 203.224Z" fill="#EDE9F6"/>
<path d="M42.9193 -642.292C127.758 -674.508 210.271 -680.291 281.538 -659.017C326.189 -652.106 371.208 -638.81 427.606 -615.883C504.013 -592.131 599.327 -530.022 682.63 -449.72C762.692 -388.656 809.518 -339.625 834.526 -290.675C861.829 -239.324 867.782 -178.19 852.234 -108.95C834.474 -13.4123 775.139 80.7149 689.428 149.312C663.577 169.851 637.302 185.039 609.113 195.743C563.041 213.238 511.89 218.419 448.142 212.051C362.343 221.059 198.186 210.165 99.5652 180.13C-17.1703 157.353 -57.3413 109.014 -123.905 28.9338C-133.721 17.133 -143.867 4.91453 -154.977 -8.07329C-162.996 -18.3835 -170.753 -28.2854 -178.212 -37.8114C-259.664 -141.806 -304.527 -199.089 -299.625 -281.789C-303.717 -349 -262.006 -402.624 -226.301 -435.782C-164.94 -523.386 -78.7834 -591.972 22.9425 -634.225C29.5703 -637.062 36.2917 -639.775 42.9193 -642.292ZM609.678 196.789C637.989 186.038 664.367 170.79 690.321 150.17C776.226 81.4127 835.703 -12.9339 853.5 -108.69C869.104 -178.143 863.111 -239.526 835.691 -291.096C810.6 -340.207 763.662 -389.372 683.499 -450.511C600.107 -530.902 504.583 -593.135 428.031 -616.927C371.582 -639.881 326.462 -653.204 281.79 -660.109C210.312 -681.455 127.484 -675.662 42.3557 -643.335C35.7106 -640.812 28.974 -638.094 22.3288 -635.25C-79.5917 -592.92 -165.928 -524.189 -227.327 -436.501C-263.129 -403.276 -305.021 -349.393 -300.91 -281.85C-305.841 -198.816 -260.879 -141.413 -179.262 -37.2038C-171.801 -27.6755 -164.047 -17.7781 -156.008 -7.44555C-144.884 5.55864 -134.738 17.7665 -124.929 29.5728C-91.6097 69.6515 -65.3058 101.307 -32.1247 126.472C3.62201 153.575 44.1473 170.462 99.284 181.217C197.992 211.282 362.425 222.198 448.219 213.179C512.048 219.57 563.401 214.362 609.678 196.789Z" fill="#EDE9F6"/>
<path d="M54.9839 -642.632C136.157 -673.462 215.518 -676.879 284.493 -652.511C331.499 -642.301 375.69 -624.794 427.607 -601.636C502.126 -575.421 591.449 -518.419 672.729 -445.228C727.891 -405.971 795.383 -353.387 828.479 -294.309C857.377 -244.588 864.719 -185.021 850.304 -117.261C833.133 -20.329 770.625 78.1333 683.09 146.137C658.49 165.125 633.58 179.271 606.942 189.388C557.594 208.13 504.574 212.497 435.023 203.527C351.982 208.943 201.112 196.233 108.68 168.671C-6.86664 145.625 -50.5071 98.1223 -122.814 19.4182C-129.211 12.4638 -135.816 5.27048 -142.705 -2.16253C-147.588 -7.98372 -152.386 -13.6822 -157.065 -19.2576C-238.622 -116.261 -287.844 -174.815 -285.514 -255.778C-291.49 -322.72 -252.999 -379.574 -219.656 -415.493C-160.469 -509.562 -73.3486 -585.831 25.706 -630.331C35.4076 -634.801 45.2593 -638.939 54.9839 -642.632ZM607.507 190.433C634.262 180.272 659.276 166.07 683.971 147.011C725.01 115.122 761.774 75.4411 790.289 32.2381C821.891 -15.6357 842.513 -65.8441 851.573 -117.004C866.039 -185.006 858.655 -244.821 829.626 -294.769C796.412 -354.057 728.778 -406.759 673.564 -446.048C592.213 -519.307 502.716 -576.408 428.083 -602.664C376.134 -625.837 331.863 -643.376 284.824 -653.584C215.608 -678.043 135.906 -674.627 54.4192 -643.678C44.6685 -639.975 34.7897 -635.824 25.0642 -631.345C-24.3282 -609.158 -70.4801 -579.508 -112.102 -543.218C-154.28 -506.451 -190.824 -463.702 -220.731 -416.162C-254.154 -380.173 -292.805 -323.057 -286.797 -255.813C-289.144 -174.506 -239.815 -115.828 -158.09 -18.6133C-153.399 -13.0452 -148.61 -7.34561 -143.71 -1.50132C-136.793 5.95382 -130.19 13.148 -123.8 20.0996C-51.3056 99.0095 -7.54593 146.641 108.397 169.761C200.921 197.346 352.019 210.081 435.051 204.658C504.705 213.643 557.935 209.261 607.507 190.433Z" fill="#EDE9F6"/>
<path d="M65.5631 -642.475C143.934 -672.246 220.861 -673.507 288.018 -646.124C335.129 -632.793 380.326 -610.814 428.175 -587.544C500.038 -559.054 585.747 -505.631 663.373 -440.951C723.313 -401.285 789.096 -353.342 822.948 -298.213C853.437 -250.159 862.156 -192.175 848.855 -125.879C831.997 -26.1621 767.819 74.2047 677.178 142.62C653.737 160.202 630.084 173.407 604.861 182.989C552.963 202.703 496.663 206.311 422.321 194.682C342.487 196.41 206.982 182.772 118.201 156.935C1.92036 133.186 -46.6376 85.4632 -127.092 6.39466L-130.011 3.52853L-132.227 1.10948C-218.463 -93.0314 -270.52 -149.854 -270.918 -229.913C-278.748 -296.493 -243.475 -356.604 -212.508 -395.319C-154.728 -497.051 -68.9627 -579.137 29.0315 -626.531C41.1192 -632.494 53.4075 -637.857 65.5631 -642.475ZM605.427 184.036C630.761 174.412 654.512 161.152 678.045 143.496C768.899 74.9237 833.229 -25.6879 850.128 -125.635C863.471 -192.189 854.707 -250.421 824.07 -298.715C790.09 -354.051 724.168 -402.096 664.166 -441.803C586.494 -506.526 500.645 -560.028 428.695 -588.553C380.838 -611.829 335.586 -633.835 288.429 -647.176C220.995 -674.677 143.709 -673.42 64.9987 -643.52C52.8061 -638.888 40.4798 -633.508 28.3597 -627.527C-69.8427 -580.038 -155.779 -497.787 -213.618 -395.937C-244.658 -357.143 -280.067 -296.782 -272.205 -229.915C-271.804 -149.502 -219.635 -92.5537 -133.209 1.78919L-130.969 4.23189L-128.024 7.12621C-47.3885 86.3756 1.27875 134.204 117.915 158.023C206.784 183.882 342.48 197.548 422.298 195.807C496.765 207.467 553.289 203.842 605.427 184.036Z" fill="#EDE9F6"/>
<path d="M73.3742 -642.176C149.502 -671.1 224.461 -670.321 290.154 -639.928C328.026 -626.547 365.125 -606.734 404.401 -585.763C411.902 -581.757 419.536 -577.683 427.338 -573.56C497.407 -542.293 579.512 -492.39 652.63 -436.627C713.981 -398.968 781.322 -353.553 816.063 -301.941C848.165 -255.534 858.287 -199.109 846.137 -134.23C829.655 -31.687 763.882 70.614 670.194 139.424C647.851 155.744 625.371 168.096 601.471 177.176C547.115 197.828 487.643 200.576 408.649 186.085C332.824 184.06 211.738 169.417 126.807 145.317C15.5191 121.92 -40.0052 78.2745 -118.238 9.1744C-202.298 -73.4302 -254.005 -127.948 -257.342 -204.25C-267.025 -270.446 -235.022 -333.856 -206.472 -375.404C-150.286 -484.794 -65.9483 -572.704 31.0508 -623.008C45.0267 -630.368 59.2673 -636.816 73.3742 -642.176ZM602.036 178.222C626.042 169.101 648.615 156.703 671.052 140.318C764.96 71.3343 830.885 -31.2093 847.407 -133.996C859.606 -199.143 849.429 -255.835 817.157 -302.484C782.283 -354.294 714.798 -399.81 653.384 -437.508C580.238 -493.293 498.035 -543.257 427.906 -574.548C420.152 -578.645 412.52 -582.72 405.023 -586.724C365.694 -607.725 328.551 -627.556 290.639 -640.954C258.943 -655.619 224.573 -663.464 188.544 -664.242C150.618 -665.059 111.679 -657.987 72.8109 -643.219C58.6561 -637.842 44.3723 -631.372 30.3497 -623.991C-66.856 -573.584 -151.363 -485.503 -207.617 -375.976C-236.232 -334.339 -268.344 -270.684 -258.625 -204.222C-255.276 -127.563 -203.44 -72.904 -119.148 9.92739C-40.7234 79.2073 14.9362 122.949 126.531 146.408C211.526 170.529 332.768 185.195 408.571 187.207C487.726 201.735 547.429 198.969 602.036 178.222Z" fill="#EDE9F6"/>
<path d="M81.3863 -641.114C155.809 -669.397 229.263 -666.726 293.798 -633.386C325.228 -619.956 355.984 -601.729 388.548 -582.432C401.275 -574.891 414.438 -567.092 428.124 -559.285C479.215 -533.722 558.051 -490.926 643.683 -432.106C709.695 -394.726 775.622 -353.545 811.064 -305.538C844.796 -260.813 856.285 -205.937 845.211 -142.443C829.016 -37.0336 761.497 67.2491 664.582 136.518C643.525 151.497 621.486 163.412 599.084 171.925C542.253 193.523 479.619 195.371 395.998 177.924C330.285 172.689 222.88 158.127 136.138 134.272C31.9323 111.716 -29.3299 75.133 -105.945 15.5023C-192.337 -59.0578 -237.298 -109.443 -243.243 -177.866C-254.698 -243.606 -225.907 -310.377 -199.733 -354.822C-145.084 -471.886 -61.9997 -565.688 34.2453 -618.994C49.7891 -627.694 65.6503 -635.134 81.3863 -641.114ZM599.649 172.971C622.151 164.42 644.281 152.456 665.423 137.415C710.38 105.282 750.651 63.8102 781.885 17.4835C815.833 -32.8739 838.17 -88.1021 846.485 -142.215C857.609 -205.997 846.051 -261.146 812.127 -306.127C776.546 -354.317 710.482 -395.593 644.389 -433.016C558.74 -491.851 479.842 -534.68 428.745 -560.246C415.103 -568.029 401.947 -575.826 389.222 -583.362C356.621 -602.683 325.826 -620.933 294.356 -634.38C263.216 -650.467 229.495 -659.506 194.174 -661.215C156.971 -663.017 118.836 -656.607 80.8219 -642.16C65.027 -636.158 49.1128 -628.689 33.5171 -619.964C-62.9364 -566.544 -146.184 -472.568 -200.905 -355.346C-227.137 -310.798 -256.022 -243.793 -244.515 -177.801C-241.576 -143.855 -228.512 -112.722 -203.418 -79.8686C-178.204 -46.8676 -142.08 -14.1415 -106.794 16.3114C-29.9858 76.0913 31.42 112.756 135.861 135.361C222.656 159.233 330.176 173.814 395.861 179.036C479.676 196.536 542.556 194.668 599.649 172.971Z" fill="#EDE9F6"/>
<path d="M87.7604 -640.33C160.69 -668.05 232.809 -663.531 296.325 -627.256C322.942 -613.772 349.03 -596.529 376.649 -578.276C392.932 -567.516 409.772 -556.383 427.654 -545.401C440.177 -538.371 453.288 -531.075 466.897 -523.501C517.533 -495.321 574.921 -463.381 633.28 -427.944C711.371 -387.294 770.347 -351.602 804.464 -309.496C839.81 -266.475 852.689 -213.175 842.735 -151.082C827.155 -44.477 756.297 64.3663 657.818 132.984C637.712 146.93 616.723 158.108 595.435 166.199C535.462 188.995 471.8 189.83 382.566 168.997C351.87 164.723 244.231 148.768 145.005 122.369C51.7859 101.451 -17.4132 72.0663 -93.882 20.9369C-158.359 -26.3261 -219.408 -80.0403 -229.306 -152.333C-239.767 -203.936 -227.321 -267.085 -193.316 -334.987C-140.415 -459.618 -58.7379 -559.238 36.67 -615.512C53.4859 -625.484 70.6733 -633.835 87.7604 -640.33ZM596.001 167.247C617.382 159.12 638.46 147.895 658.646 133.886C704.872 101.681 746.274 59.629 778.384 12.2722C813.231 -39.1194 835.923 -95.532 844.009 -150.868C854.011 -213.262 841.052 -266.846 805.492 -310.123C771.239 -352.405 712.134 -388.179 633.928 -428.892C575.587 -464.319 518.186 -496.265 467.539 -524.451C453.933 -532.024 440.824 -539.321 428.326 -546.333C410.489 -557.291 393.659 -568.414 377.384 -579.17C349.726 -597.446 323.606 -614.71 296.948 -628.215C266.299 -645.721 233.15 -655.931 198.441 -658.552C161.874 -661.315 124.448 -655.535 87.196 -641.376C70.0415 -634.855 52.7869 -626.474 35.9117 -616.465C-59.6987 -560.071 -141.535 -460.274 -194.508 -335.465C-228.599 -267.393 -241.083 -204.017 -230.578 -152.227C-226.231 -120.475 -212.286 -90.6992 -187.938 -61.2459C-166.951 -35.8505 -137.31 -9.458 -94.6468 21.8089C-17.9925 73.0635 51.347 102.509 144.732 123.467C244.001 149.874 351.718 165.838 382.368 170.102C471.837 190.997 535.751 190.149 596.001 167.247Z" fill="#EDE9F6"/>
<path d="M93.6393 -639.426C164.37 -666.318 237.366 -659.837 299.181 -621.179C322.072 -607.646 344.571 -591.068 368.394 -573.514C387.187 -559.668 406.622 -545.347 427.647 -531.482C479.673 -498.753 542.59 -465.915 609.195 -431.147L623.544 -423.656C691.028 -391.536 760.122 -356.555 798.699 -313.224C835.701 -271.886 849.976 -220.11 841.123 -159.336C825.897 -49.8487 753.317 61.0636 651.705 130.12C632.474 143.145 612.445 153.653 592.176 161.36C513.761 191.173 435.603 177.803 369.496 160.791C328.242 152.298 245.442 134.572 153.992 111.156C78.5998 93.5289 -2.14872 71.1373 -81.9466 26.9804C-161.98 -20.2358 -204.457 -68.9555 -215.608 -126.338C-227.607 -178.233 -218.011 -241.66 -187.094 -314.877C-135.945 -447.178 -55.5956 -552.715 39.15 -612.055C57.0471 -623.276 75.3791 -632.484 93.6393 -639.426ZM592.74 162.407C613.099 154.666 633.216 144.111 652.527 131.037C754.381 61.8095 827.137 -49.3739 842.399 -159.134C851.301 -220.222 836.931 -272.297 799.696 -313.894C760.951 -357.412 691.721 -392.465 624.133 -424.638L609.804 -432.118C543.222 -466.868 480.335 -499.695 428.368 -532.388C407.382 -546.223 387.964 -560.532 369.187 -574.37C345.333 -591.942 322.806 -608.542 299.87 -622.101C269.607 -641.027 236.902 -652.403 202.667 -655.91C166.594 -659.601 129.722 -654.409 93.0734 -640.476C74.7391 -633.505 56.3314 -624.258 38.3676 -612.995C-56.5758 -553.525 -137.083 -447.803 -188.312 -315.311C-219.304 -241.911 -228.918 -178.275 -216.88 -126.19C-205.657 -68.4803 -162.992 -19.5032 -82.6009 27.9226C-2.63319 72.1753 78.2313 94.6071 153.713 112.249C245.179 135.665 328.004 153.397 369.231 161.887C435.53 178.952 513.958 192.36 592.74 162.407Z" fill="#EDE9F6"/>
<path d="M98.9641 -638.319C168.702 -664.839 240.771 -656.562 301.899 -615.011C321.764 -601.468 341.361 -585.398 362.108 -568.388C382.705 -551.496 404.006 -534.03 427.47 -517.471C472.998 -485.345 528.661 -455.982 613.59 -419.294C685.624 -388.13 753.52 -356.847 792.663 -316.896C831.317 -277.26 846.988 -227.019 839.241 -167.559C824.392 -55.1992 750.117 57.756 645.404 127.232C627.014 139.405 607.897 149.296 588.584 156.64C507.213 187.585 425.51 171.924 356.324 152.524C345.064 149.357 333.535 146.08 321.718 142.717C274.617 129.328 221.235 114.148 162.958 99.8689C149.155 96.4879 134.874 93.1118 121.061 89.8465C56.5449 74.5921 -10.1624 58.8213 -69.976 32.9799C-140.482 2.49305 -187.313 -44.8546 -201.837 -100.338C-215.175 -151.727 -208.11 -217.13 -180.835 -294.733C-131.5 -434.665 -52.518 -546.109 41.5732 -608.538C60.3827 -620.971 79.6934 -630.99 98.9641 -638.319ZM589.151 157.69C608.548 150.314 627.748 140.378 646.216 128.159C751.18 58.5112 825.634 -54.7246 840.52 -167.368C848.313 -227.161 832.532 -277.708 793.617 -317.607C754.303 -357.732 686.267 -389.088 614.104 -420.308C529.268 -456.958 473.682 -486.275 428.241 -518.344C404.815 -534.874 383.535 -552.323 362.954 -569.2C342.185 -586.231 322.566 -602.317 302.645 -615.896C272.715 -636.239 240.394 -648.768 206.565 -653.139C170.92 -657.736 134.528 -653.106 98.3991 -639.367C79.0412 -632.005 59.6496 -621.942 40.7624 -609.463C-6.08807 -578.375 -49.36 -535 -87.8569 -480.535C-126.043 -426.507 -157.735 -364.127 -182.067 -295.125C-209.406 -217.334 -216.479 -151.732 -203.094 -100.143C-188.474 -44.2985 -141.379 3.34578 -70.4846 33.998C-10.5591 59.8866 56.219 75.6768 120.795 90.9462C134.605 94.2078 148.879 97.5833 162.674 100.968C220.932 115.232 274.297 130.408 321.389 143.797C333.198 147.158 344.738 150.436 355.997 153.606C425.419 173.075 507.401 188.779 589.151 157.69Z" fill="#EDE9F6"/>
<path d="M107.438 -625.664C176.884 -652.087 247.364 -644.827 305.899 -605.219C326.639 -591.199 346.7 -574.655 367.934 -557.14C386.838 -541.55 406.384 -525.428 427.88 -509.884C437.979 -502.626 448.963 -495.272 460.525 -488.024C498.865 -463.989 544.089 -440.672 607.157 -412.416C676.273 -381.336 741.429 -350.18 779.108 -310.787C816.277 -271.783 831.39 -222.739 824.032 -165.017C815.598 -98.469 786.013 -33.4345 738.482 23.0572C708.376 59.5691 671.143 92.4517 630.802 118.165C613.113 129.613 594.725 139.001 576.153 146.067C526.251 165.054 472.593 168.843 407.297 157.987C389.395 154.963 370.336 150.79 349.04 145.23C332.283 140.955 315.126 136.464 296.961 131.715C256.242 121.074 210.099 109.005 160.832 97.4088C152.774 95.5364 144.659 93.6718 136.497 91.7978C80.9931 79.0442 23.5944 65.8592 -29.7942 46.2208C-42.4761 41.5613 -54.6355 36.6486 -65.929 31.6134C-133.913 1.44088 -179.291 -45.0522 -193.709 -99.2939C-207.1 -149.927 -200.771 -213.8 -174.911 -289.133C-157.998 -339.851 -134.221 -388.939 -104.242 -435.037C-83.5561 -467.284 -60.0425 -497.515 -34.358 -524.887C-8.54208 -552.341 18.2927 -574.923 50.1042 -595.953C68.8215 -608.313 88.1128 -618.311 107.438 -625.664ZM576.717 147.114C595.371 140.016 613.841 130.592 631.598 119.096C672.037 93.3264 709.359 60.3555 739.532 23.7636C787.188 -32.8764 816.854 -98.0917 825.314 -164.827C832.716 -222.876 817.492 -272.221 780.074 -311.49C742.224 -351.063 676.937 -382.286 607.688 -413.424C544.68 -441.655 499.511 -464.943 461.23 -488.938C449.694 -496.172 438.736 -503.508 428.66 -510.747C407.2 -526.267 387.672 -542.374 368.787 -557.949C347.524 -575.488 327.441 -592.049 306.643 -606.107C247.709 -645.985 176.761 -653.304 106.873 -626.713C87.4605 -619.327 68.0912 -609.288 49.2996 -596.881C17.4119 -575.798 -9.49437 -553.158 -35.3683 -525.641C-61.0983 -498.222 -84.6482 -467.942 -105.371 -435.64C-135.391 -389.475 -159.208 -340.309 -176.151 -289.514C-202.074 -213.997 -208.403 -149.927 -194.962 -99.092C-180.446 -44.4958 -134.812 2.28681 -66.4572 32.6261C-55.1322 37.6711 -42.9443 42.5976 -30.2354 47.2631C23.2415 66.9387 80.6828 80.1347 136.24 92.8983C144.4 94.77 152.517 96.6339 160.57 98.511C209.818 110.101 253.966 121.643 296.663 132.803C314.827 137.556 331.984 142.047 348.743 146.321C370.084 151.891 389.179 156.072 407.122 159.1C472.686 170.003 526.573 166.193 576.717 147.114Z" fill="#EDE9F6"/>
<path d="M116.419 -613.192C185.449 -639.47 254.242 -633.224 310.124 -595.604C331.786 -581.09 352.284 -564.065 373.987 -546.039C391.156 -531.78 408.906 -517.035 428.39 -502.584C438.08 -495.483 448.648 -488.24 459.81 -481.052C496.826 -457.208 540.26 -434.04 600.641 -405.94C666.767 -374.992 729.115 -344.003 765.296 -305.204C800.937 -266.864 815.478 -219.073 808.509 -163.148C800.511 -97.2554 770.924 -34.4111 722.955 18.5959C693.183 52.8456 657.219 82.9634 616.045 108.112C599.096 118.823 581.482 127.685 563.694 134.457C514.885 153.037 462.355 157.392 398.374 148.168C380.944 145.571 362.464 141.901 341.871 136.949C317.798 131.46 292.624 125.444 265.978 119.071C232.08 110.965 197.034 102.584 159.008 94.0259L154.956 93.1338C94.3021 79.8354 31.5884 66.0793 -26.4335 43.9905C-38.6459 39.3532 -50.402 34.4469 -61.3506 29.413C-126.74 -0.415727 -170.622 -45.9943 -184.908 -98.9344C-198.337 -148.764 -192.757 -211.034 -168.333 -284.015C-152.768 -333.458 -129.389 -380.361 -96.8666 -427.419C-76.1831 -458.128 -52.9165 -486.666 -25.7471 -514.672C-1.05469 -540.022 24.3257 -560.62 59.1133 -583.539C77.7384 -595.831 97.0178 -605.806 116.419 -613.192ZM564.26 135.507C582.126 128.706 599.812 119.806 616.828 109.058C658.091 83.8484 694.147 53.6552 723.982 19.3241C772.091 -33.8285 801.769 -96.863 809.792 -162.963C816.797 -219.207 802.158 -267.296 766.272 -305.897C729.93 -344.866 667.447 -375.927 601.189 -406.939C540.871 -435.011 497.489 -458.149 460.529 -481.957C449.392 -489.131 438.846 -496.36 429.179 -503.443C409.73 -517.868 391.992 -532.6 374.841 -546.846C353.116 -564.893 332.587 -581.942 310.867 -596.494C283.388 -614.993 252.623 -626.007 219.424 -629.229C185.479 -632.524 150.633 -627.48 115.855 -614.24C96.3682 -606.822 77.0077 -596.802 58.3063 -584.463C23.4434 -561.493 -1.99479 -540.851 -26.7417 -515.437C-53.9578 -487.386 -77.2622 -458.801 -97.9811 -428.046C-130.561 -380.909 -153.98 -333.914 -169.571 -284.385C-194.059 -211.222 -199.645 -148.756 -186.161 -98.7325C-171.781 -45.4416 -127.649 0.425859 -61.8912 30.4167C-50.9097 35.4681 -39.1334 40.3775 -26.8837 45.0306C31.2342 67.1564 94.0061 80.923 154.718 94.2373L158.756 95.1267C196.765 103.683 231.815 112.066 265.708 120.168C292.36 126.541 317.532 132.56 341.611 138.05C362.23 143.006 380.751 146.685 398.23 149.29C462.466 158.553 515.224 154.174 564.26 135.507Z" fill="#EDE9F6"/>
<path d="M125.565 -600.851C193.259 -626.637 262.216 -621.26 314.758 -586.102C337.458 -571.041 358.412 -553.489 380.599 -534.907C396.04 -521.974 411.998 -508.607 429.482 -495.302C438.792 -488.345 448.967 -481.203 459.725 -474.075C495.469 -450.397 537.182 -427.362 594.976 -399.389C658.216 -368.55 717.855 -337.706 752.599 -299.45C786.764 -261.732 800.734 -215.128 794.13 -160.937C786.53 -95.6102 756.869 -34.8667 708.35 14.7362C679.354 46.2584 643.572 74.5397 601.997 98.8184C585.78 108.801 568.934 117.14 551.922 123.619C504.099 141.836 452.569 146.788 389.749 139.21C372.749 137.034 354.811 133.871 334.91 129.533C300.168 122.614 262.729 114.444 223.094 105.798C201.888 101.168 179.962 96.383 157.074 91.4883C97.4774 79.2647 34.4515 65.4253 -23.4847 42.5898C-35.2912 37.9579 -46.6496 33.0599 -57.2585 28.0264C-120.157 -1.47569 -162.602 -46.1994 -176.766 -97.9041C-190.241 -146.995 -185.375 -207.748 -162.312 -278.476C-147.872 -327.133 -124.86 -371.968 -89.8775 -419.585C-69.5469 -448.278 -45.8301 -476.006 -17.3532 -504.373C9.40378 -530.896 34.2293 -548.942 68.0705 -571.155C86.6705 -583.413 106.013 -593.404 125.565 -600.851ZM552.487 124.669C569.571 118.162 586.485 109.784 602.762 99.767C644.422 75.4399 680.292 47.084 709.358 15.4947C758.029 -34.2591 787.789 -95.2094 795.411 -160.757C802.056 -215.26 787.984 -262.156 753.583 -300.131C718.687 -338.563 658.918 -369.483 595.552 -400.38C537.811 -428.327 496.149 -451.332 460.463 -474.97C449.725 -482.085 439.574 -489.212 430.284 -496.15C412.835 -509.435 396.882 -522.792 381.46 -535.709C359.242 -554.32 338.256 -571.896 315.499 -586.997C262.562 -622.42 193.127 -627.854 124.999 -601.903C105.362 -594.423 85.9381 -584.388 67.2638 -572.082C33.3645 -549.831 8.48765 -531.744 -18.3395 -505.156C-46.8576 -476.744 -70.6176 -448.969 -90.9706 -420.235C-126.024 -372.528 -149.085 -327.595 -163.554 -278.835C-186.682 -207.931 -191.546 -146.983 -178.017 -97.6946C-163.753 -45.6467 -121.069 -0.640418 -57.8127 29.028C-47.1835 34.0701 -35.7888 38.9816 -23.9551 43.6249C34.093 66.5023 97.1897 80.3612 156.844 92.5952C179.722 97.4888 201.649 102.273 222.853 106.899C262.495 115.552 299.939 123.721 334.679 130.636C354.616 134.984 372.597 138.152 389.638 140.338C452.704 147.947 504.448 142.968 552.487 124.669Z" fill="#EDE9F6"/>
<path d="M134.292 -589.275C201.442 -614.865 268.616 -610.438 318.596 -577.123C342.396 -561.443 363.787 -543.307 386.436 -524.108C400.124 -512.504 414.28 -500.502 429.736 -488.386C438.648 -481.57 448.419 -474.518 458.789 -467.427C493.231 -443.871 533.192 -420.917 588.365 -392.996C646.261 -363.424 705.57 -331.399 738.846 -293.647C771.54 -256.495 784.993 -211.049 778.834 -158.571C771.739 -93.7923 742.13 -35.1504 693.21 11.0148C665.17 39.7532 629.671 66.1794 587.685 89.5794C572.267 98.8039 556.263 106.602 540.107 112.759C493.34 130.581 442.854 136.099 381.229 130.122C364.696 128.356 347.325 125.673 328.116 121.926C275.713 113.011 217.338 101.146 155.534 88.5846C101.279 78.1985 38.008 64.3761 -19.9442 40.6165C-31.3203 35.9817 -42.28 31.0763 -52.5362 26.0284C-112.896 -3.21887 -153.905 -47.1474 -168.002 -97.6666C-181.579 -146.054 -177.521 -205.31 -155.946 -273.791C-142.614 -321.958 -120.068 -364.764 -82.8432 -412.602C-62.8184 -439.548 -39.4009 -465.694 -9.15673 -494.887C18.6763 -521.579 43.3614 -537.741 74.6181 -558.211L76.6259 -559.522C95.1818 -571.756 114.583 -581.764 134.292 -589.275ZM540.672 113.811C556.899 107.627 572.969 99.8011 588.432 90.5432C630.501 67.0977 666.089 40.6021 694.188 11.8029C743.281 -34.5155 772.996 -93.3752 780.115 -158.396C786.313 -211.178 772.767 -256.911 739.849 -294.313C706.415 -332.24 646.973 -364.345 588.96 -393.976C533.84 -421.869 493.93 -444.793 459.54 -468.311C449.19 -475.394 439.436 -482.428 430.553 -489.225C415.123 -501.318 400.979 -513.311 387.299 -524.909C364.62 -544.136 343.196 -562.3 319.332 -578.021C268.959 -611.598 201.308 -616.082 133.727 -590.327C113.932 -582.783 94.4475 -572.736 75.8185 -560.452L73.8129 -559.141C42.51 -538.641 17.7875 -522.45 -10.1285 -495.683C-40.4205 -466.447 -63.8673 -440.262 -83.9222 -413.275C-121.233 -365.334 -143.826 -322.419 -157.194 -274.138C-178.824 -205.486 -182.878 -146.037 -169.251 -97.45C-155.06 -46.5982 -113.811 -2.39496 -53.1098 27.0227C-42.8276 32.0798 -31.8263 36.9993 -20.4261 41.6495C37.6417 65.458 100.998 79.2971 155.322 89.695C217.128 102.259 275.52 114.125 327.935 123.035C347.157 126.791 364.571 129.486 381.154 131.257C443.018 137.257 493.703 131.71 540.672 113.811Z" fill="#EDE9F6"/>
<path d="M143.236 -576.785C209.828 -602.181 275.196 -598.756 322.586 -567.389C347.551 -551.107 369.328 -532.415 392.384 -512.625C404.309 -502.387 416.636 -491.803 430.054 -480.987C438.695 -474.224 447.802 -467.48 457.894 -460.358C490.999 -437.01 529.196 -414.214 581.737 -386.45C636.787 -357.034 693.198 -325.199 725.005 -288.012C756.178 -251.526 769.047 -207.324 763.245 -156.644C756.553 -92.5075 726.897 -36.0349 677.476 6.6702C650.073 32.9524 615.774 56.8337 572.599 79.6949C558.012 88.1584 542.877 95.3939 527.602 101.219C481.814 118.681 432.301 124.826 371.788 120.552C355.707 119.22 338.897 117.042 320.397 113.905C274.609 107.587 222.994 98.8358 153.026 85.5227C82.8003 73.1958 28.6534 58.3391 -17.3782 38.76C-28.3241 34.1431 -38.8847 29.2456 -48.7817 24.2041C-106.577 -4.67233 -146.096 -47.6849 -160.07 -96.9159C-173.48 -143.844 -170.045 -203.118 -150.133 -268.322C-134.465 -328.762 -102.345 -372.948 -76.1138 -404.687C-51.0104 -436.74 -22.8309 -464.135 -1.08523 -484.417C23.3386 -507.026 45.0683 -521.02 70.2281 -537.219C75.0443 -540.32 80.0147 -543.521 85.1875 -546.897C103.772 -559.127 123.301 -569.183 143.236 -576.785ZM528.168 102.273C543.507 96.4237 558.701 89.1572 573.328 80.6734C616.58 57.7661 650.962 33.8233 678.425 7.491C728.029 -35.3745 757.811 -92.078 764.53 -156.468C770.361 -207.451 757.403 -251.936 726.014 -288.667C694.058 -326.029 637.521 -357.937 582.357 -387.418C529.866 -415.158 491.718 -437.921 458.664 -461.234C448.59 -468.34 439.501 -475.072 430.885 -481.817C417.493 -492.613 405.17 -503.191 393.255 -513.419C370.163 -533.242 348.356 -551.965 323.314 -568.292C275.539 -599.916 209.694 -603.397 142.671 -577.837C122.65 -570.202 103.038 -560.106 84.3861 -547.826C79.2142 -544.453 74.2449 -541.255 69.4364 -538.154C44.2281 -521.923 22.4573 -507.908 -2.03864 -485.228C-23.8172 -464.914 -52.0384 -437.484 -77.1795 -405.384C-103.468 -373.571 -135.668 -329.273 -151.385 -268.658C-171.352 -203.286 -174.786 -143.819 -161.317 -96.6973C-147.259 -47.1403 -107.499 -3.85081 -49.3734 25.1862C-39.4504 30.2369 -28.8589 35.1527 -17.8834 39.7856C28.2577 59.4022 82.4986 74.2968 152.836 86.6358C222.822 99.9582 274.449 108.713 320.247 115.027C338.763 118.172 355.616 120.353 371.742 121.689C432.485 125.976 482.189 119.808 528.168 102.273Z" fill="#EDE9F6"/>
<path d="M152.71 -564.519C217.599 -589.281 282.689 -586.714 326.831 -557.662C353.035 -540.727 375.151 -521.423 398.565 -500.987C408.735 -492.11 419.252 -482.934 430.637 -473.458C438.867 -466.853 447.577 -460.207 457.27 -453.127C488.607 -430.259 526.133 -406.894 575.37 -379.596C627.562 -350.286 681.06 -318.59 711.419 -281.899C741.091 -246.026 753.408 -203.033 748.028 -154.115C741.805 -90.5896 712.175 -36.2669 662.34 2.97863C635.811 26.6771 602.749 48.1039 558.262 70.4299C544.578 78.1065 530.394 84.76 516.084 90.2205C471.283 107.317 422.724 114.07 363.264 111.491C347.65 110.582 331.409 108.907 313.617 106.353C265.386 101.287 212.382 93.5783 151.554 82.7895C87.1746 72.5085 31.5792 57.1344 -13.7021 37.0807C-24.206 32.4726 -34.3719 27.5743 -43.9147 22.5257C-99.1355 -6.03905 -137.183 -48.1959 -151.06 -96.1951C-164.549 -142.388 -161.911 -200.065 -143.43 -262.992C-129.231 -322.041 -97.6738 -363.849 -68.678 -396.955C-45.0373 -425.645 -18.0686 -451.004 7.54881 -474.13C29.6699 -493.932 48.6639 -505.786 70.6521 -519.513C78.1142 -524.168 85.8249 -528.985 94.1891 -534.429C112.818 -546.685 132.505 -556.809 152.71 -564.519ZM516.651 91.2755C531.022 85.7917 545.259 79.112 558.968 71.4178C603.529 49.0582 636.673 27.5729 663.25 3.82617C713.298 -35.5747 743.063 -90.1433 749.313 -153.947C754.725 -203.153 742.321 -246.416 712.443 -282.539C681.94 -319.401 628.319 -351.174 576.012 -380.552C526.826 -407.822 489.345 -431.159 458.055 -453.993C448.378 -461.057 439.685 -467.693 431.483 -474.275C420.118 -483.732 409.608 -492.906 399.444 -501.777C375.992 -522.247 353.84 -541.58 327.556 -558.567C304.772 -573.565 277.333 -581.655 246.01 -582.613C216.212 -583.527 183.753 -577.633 152.145 -565.572C131.854 -557.829 112.084 -547.666 93.3887 -535.362C85.0288 -529.92 77.3222 -525.109 69.8688 -520.458C47.8331 -506.702 28.7993 -494.825 6.60706 -474.954C-19.0476 -451.794 -46.0448 -426.406 -69.7235 -397.674C-98.7918 -364.483 -130.438 -322.551 -144.679 -263.313C-163.212 -200.227 -165.849 -142.353 -152.306 -95.9712C-138.338 -47.6513 -100.061 -5.22395 -44.523 23.4959C-34.9539 28.5591 -24.7528 33.4741 -14.224 38.0945C31.1673 58.1964 86.8936 73.6136 151.377 83.9123C212.238 94.7047 265.273 102.415 313.508 107.485C331.313 110.037 347.6 111.717 363.259 112.627C422.938 115.222 471.671 108.44 516.651 91.2755Z" fill="#EDE9F6"/>
<path d="M162.004 -552.182C226.113 -576.664 289.232 -575.038 330.849 -547.836C358.364 -530.226 379.725 -511.22 404.463 -489.213C412.911 -481.696 421.649 -473.919 431.047 -465.846C438.896 -459.372 447.215 -452.826 456.484 -445.816C486.499 -423.126 522.224 -399.888 568.908 -372.681C618.27 -343.489 668.885 -311.956 697.812 -275.743C725.993 -240.474 737.754 -198.682 732.761 -151.524C726.975 -88.5884 697.32 -36.3963 647.002 -0.59502C614.45 26.3063 574.645 46.6327 543.602 61.3415C530.883 68.2098 517.725 74.2582 504.45 79.3273C460.535 96.0978 412.799 103.512 354.223 102.673C339.065 102.2 323.377 101.024 306.286 99.0725C256.477 95.5827 205.169 89.4693 149.399 80.3831C89.2851 71.817 33.8877 56.3901 -10.8283 35.7677C-20.9051 31.1654 -30.6728 26.2672 -39.8717 21.2147C-92.5385 -7.01102 -129.134 -48.3193 -142.909 -95.097C-160.043 -152.547 -149.416 -215.031 -137.497 -257.327C-124.594 -315.349 -93.5316 -354.877 -61.8925 -388.952C-38.6878 -415.653 -13.0503 -438.56 15.6392 -463.609C36.1965 -481.395 53.3235 -491.644 73.1564 -503.514C82.4113 -509.051 91.9833 -514.781 102.755 -521.776C121.5 -534.098 141.435 -544.327 162.004 -552.182ZM505.014 80.3766C518.34 75.2876 531.552 69.2214 544.287 62.3442C575.366 47.6189 615.257 27.2462 647.881 0.284286C698.422 -35.6789 728.232 -88.127 734.047 -151.361C739.069 -198.798 727.226 -240.86 698.848 -276.369C669.785 -312.752 619.052 -344.367 569.579 -373.624C522.94 -400.802 487.259 -424.013 457.29 -446.665C448.033 -453.666 439.731 -460.202 431.908 -466.65C422.528 -474.71 413.793 -482.481 405.349 -489.995C380.57 -512.041 359.174 -531.082 331.569 -548.743C289.573 -576.2 225.971 -577.879 161.439 -553.235C140.783 -545.347 120.769 -535.078 101.952 -522.709C91.1999 -515.727 81.6384 -510.007 72.3923 -504.473C52.5097 -492.573 35.3418 -482.298 14.7131 -464.448C-14.017 -439.367 -39.6788 -416.432 -62.9183 -389.694C-94.6449 -355.522 -125.804 -315.866 -138.755 -257.635C-150.71 -215.234 -161.354 -152.553 -144.16 -94.8627C-130.291 -47.7765 -93.4772 -6.20921 -40.5017 22.1805C-31.2741 27.2522 -21.4692 32.1608 -11.3684 36.7786C33.469 57.4558 89.0114 72.9231 149.252 81.5062C205.049 90.6016 256.398 96.7185 306.226 100.209C323.325 102.16 339.05 103.341 354.262 103.818C413.034 104.659 460.934 97.2095 505.014 80.3766Z" fill="#EDE9F6"/>
<path d="M171.609 -540.982C234.862 -565.157 295.98 -564.454 335.094 -539.099C363.972 -520.824 385.51 -501.229 410.445 -478.542C417.231 -472.369 424.247 -465.987 431.731 -459.338C439.192 -453.011 447.123 -446.563 455.987 -439.612C484.678 -417.12 518.615 -394.014 562.791 -366.89C609.345 -337.844 657.096 -306.492 684.604 -270.734C711.302 -236.07 722.493 -195.465 717.867 -150.059C712.479 -87.698 682.749 -37.6201 631.888 -5.23335C603.528 16.2499 570.264 32.8729 529.032 51.2263C517.386 57.2607 505.346 62.6655 493.214 67.3022C450.07 83.792 403.001 91.9298 345.089 92.9158C330.358 92.8911 315.215 92.2186 298.81 90.8637C248.422 89.2209 198.768 84.722 146.972 77.1073C89.8214 70.0327 36.1199 55.0039 -8.34845 33.6382C-18.0066 29.0446 -27.3807 24.1562 -36.228 19.0966C-86.3846 -8.78009 -121.535 -49.2251 -135.2 -94.7993C-152.413 -151.355 -142.919 -211.775 -131.923 -252.506C-120.821 -306.604 -93.2703 -343.334 -55.3246 -381.848C-32.4914 -406.715 -7.06846 -428.155 19.8484 -450.853L23.6243 -454.036C43.0968 -470.311 58.9023 -479.303 77.208 -489.713C87.748 -495.708 98.6464 -501.904 111.326 -510.114C130.278 -522.553 150.559 -532.937 171.609 -540.982ZM493.778 68.3549C505.954 63.7015 518.038 58.2802 529.696 52.2384C570.973 33.8675 604.307 17.207 632.718 -4.31478C683.834 -36.8677 713.736 -87.2171 719.152 -149.9C723.806 -195.578 712.539 -236.442 685.66 -271.341C658.018 -307.272 610.151 -338.703 563.489 -367.817C519.357 -394.914 485.46 -417.994 456.811 -440.45C447.959 -447.39 440.046 -453.828 432.611 -460.132C425.144 -466.766 418.125 -473.146 411.346 -479.317C386.361 -502.047 364.786 -521.678 335.811 -540.014C296.318 -565.616 234.718 -566.374 171.043 -542.037C149.91 -533.96 129.549 -523.534 110.523 -511.051C97.8796 -502.863 86.9986 -496.674 76.4716 -490.689C58.116 -480.249 42.2596 -471.23 22.71 -454.892L18.9313 -451.7C-8.01564 -428.979 -33.4653 -407.515 -56.3247 -382.614C-94.3981 -343.98 -122.047 -307.114 -133.187 -252.802C-144.21 -211.975 -153.726 -151.349 -136.449 -94.5605C-122.688 -48.6911 -87.3278 -7.98672 -36.8768 20.0514C-28.0065 25.1242 -18.5969 30.0347 -8.9106 34.6366C35.6922 56.0716 89.5525 71.1463 146.849 78.242C198.68 85.8596 248.389 90.3623 298.8 92.0076C315.207 93.3585 330.387 94.0306 345.17 94.063C403.268 93.066 450.483 84.9023 493.778 68.3549Z" fill="#EDE9F6"/>
<path d="M181.779 -528.986C243.858 -552.732 302.753 -552.862 339.321 -529.323C369.509 -510.404 391.065 -490.242 416.027 -466.899C421.227 -462.037 426.612 -457.002 432.29 -451.769C439.361 -445.583 446.892 -439.232 455.332 -432.343C482.645 -410.061 514.752 -387.074 556.38 -360.005C600.055 -331.098 644.885 -299.917 670.964 -264.589C696.159 -230.524 706.797 -191.132 702.584 -147.513C697.665 -85.7655 667.966 -37.8479 616.696 -8.93161C588.176 10.7069 555.02 25.1226 514.639 41.9343C504.253 47.0724 493.536 51.7532 482.751 55.8788C440.376 72.0872 393.911 80.972 336.517 83.8319C322.241 84.2438 307.671 84.074 291.995 83.3071C241.705 83.6172 193.784 80.7008 145.48 74.3962C91.8897 68.7805 38.5726 53.7167 -4.67721 31.9827C-13.9001 27.3981 -22.8775 22.5057 -31.3574 17.4422C-78.9226 -10.0897 -112.597 -49.6844 -126.182 -94.0423C-143.502 -149.689 -135.21 -208.007 -125.204 -247.131C-115.213 -300.573 -87.0647 -336.521 -47.8765 -374.063C-27.0561 -395.531 -4.10527 -414.155 20.1962 -433.872C24.1886 -437.113 28.211 -440.377 32.2656 -443.689C50.9176 -458.765 66.4323 -467.094 82.8554 -475.907C94.301 -482.052 106.136 -488.402 120.333 -497.579C139.53 -510.166 160.201 -520.732 181.779 -528.986ZM483.319 56.9394C494.139 52.8005 504.89 48.0933 515.276 42.9576C555.689 26.1364 588.905 11.695 617.476 -7.98199C669.032 -37.0601 698.924 -85.2654 703.869 -147.358C708.109 -191.242 697.396 -230.884 672.033 -265.181C645.828 -300.675 600.894 -331.934 557.108 -360.914C515.521 -387.955 483.447 -410.917 456.174 -433.167C447.75 -440.046 440.228 -446.386 433.181 -452.554C427.519 -457.769 422.14 -462.803 416.94 -467.665C391.929 -491.055 370.327 -511.254 340.035 -530.244C303.086 -554.023 243.711 -553.948 181.213 -530.042C159.552 -521.757 138.798 -511.15 119.533 -498.518C105.38 -489.372 93.5668 -483.03 82.1461 -476.898C65.67 -468.056 50.1064 -459.7 31.369 -444.552C27.3088 -441.241 23.292 -437.977 19.2984 -434.738C-5.0297 -414.997 -28.0141 -396.352 -48.8608 -374.855C-88.184 -337.182 -116.437 -301.086 -126.464 -247.411C-136.499 -208.194 -144.816 -149.677 -127.428 -93.7991C-113.753 -49.1517 -79.8746 -9.30874 -32.0305 18.3854C-23.5275 23.4674 -14.5161 28.3742 -5.25823 32.9701C38.1387 54.7822 91.6337 69.8987 145.386 75.5319C193.739 81.8428 241.718 84.7613 292.032 84.4505C307.71 85.2165 322.316 85.3914 336.648 84.9749C394.207 82.1093 440.809 73.1996 483.319 56.9394Z" fill="#EDE9F6"/>
<path d="M191.927 -516.981C253.598 -540.593 308.79 -541.492 343.349 -519.447C374.793 -499.948 395.19 -480.269 421.015 -455.352C424.771 -451.725 428.646 -447.989 432.687 -444.12C439.389 -438.056 446.531 -431.805 454.525 -424.998C480.451 -402.947 510.746 -380.088 549.877 -353.058C588.903 -325.584 632.619 -293.339 657.286 -258.405C680.981 -224.938 691.055 -186.751 687.233 -144.907C682.746 -83.7633 653.023 -37.9909 601.28 -12.522C574.48 4.03685 542.685 16.2975 509.023 29.2707L499.897 32.792C491.012 36.9596 481.877 40.8469 472.703 44.3596C430.893 60.3668 384.726 70.0995 327.409 74.9807C313.573 75.8442 299.557 76.1807 284.599 75.9964C234.021 78.4099 189.129 77.1422 143.279 71.9995C92.1633 67.6976 40.6399 53.0285 -1.81898 30.6965C-10.616 26.1219 -19.1998 21.2377 -27.3281 16.1572C-72.3265 -11.0147 -104.538 -49.7457 -118.033 -92.9048C-135.454 -147.654 -128.317 -203.88 -119.257 -241.404C-109.301 -300.185 -75.1743 -335.179 -41.0777 -365.986C-21.8537 -384.71 -0.839181 -401.016 21.4009 -418.278C27.6565 -423.131 33.9892 -428.045 40.3836 -433.091C58.4625 -447.222 73.1902 -454.623 88.7811 -462.462C100.907 -468.554 113.443 -474.858 128.922 -484.84C148.206 -497.47 169.994 -508.584 191.927 -516.981ZM473.268 45.4169C482.471 41.8933 491.638 37.9967 500.51 33.8287L509.591 30.3273C543.31 17.3268 575.159 5.05069 602.006 -11.5427C654.072 -37.1623 684.006 -83.2381 688.521 -144.763C692.367 -186.853 682.224 -225.28 658.368 -258.973C633.585 -294.071 589.766 -326.401 550.635 -353.947C511.54 -380.954 481.278 -403.786 455.395 -425.806C447.405 -432.601 440.276 -438.843 433.601 -444.887C429.57 -448.741 425.697 -452.477 421.942 -456.102C396.06 -481.072 375.617 -500.799 344.058 -520.369C309.111 -542.658 253.456 -541.812 191.362 -518.039C169.345 -509.61 147.475 -498.453 128.121 -485.78C112.704 -475.836 100.194 -469.547 88.0945 -463.465C72.4481 -455.602 57.6728 -448.172 39.4985 -433.968C33.0997 -428.921 26.7736 -424.009 20.5233 -419.161C-1.74908 -401.876 -22.7871 -385.549 -42.0312 -366.804C-76.2568 -335.88 -110.523 -300.739 -120.528 -241.669C-129.609 -204.052 -136.766 -147.633 -119.272 -92.6529C-105.692 -49.2185 -73.2829 -10.245 -28.0221 17.0927C-19.8656 22.1817 -11.2551 27.0913 -2.42766 31.6736C40.1956 54.0964 91.9186 68.8237 143.207 73.1443C189.117 78.2861 234.082 79.5616 284.693 77.1463C299.648 77.3207 313.693 76.9895 327.588 76.1204C385.053 71.2264 431.334 61.4718 473.268 45.4169Z" fill="#EDE9F6"/>
<path d="M202.33 -506.073C262.316 -529.057 315.086 -530.612 347.104 -510.339C379.667 -490.322 398.755 -471.213 425.173 -444.762C427.66 -442.274 430.206 -439.724 432.836 -437.101C439.178 -431.14 445.924 -424.977 453.477 -418.249C477.976 -396.43 506.462 -373.653 543.135 -346.56C588.166 -312.629 622.461 -283.639 643.409 -252.494C665.627 -219.556 675.18 -182.54 671.8 -142.461C667.826 -81.8733 638.167 -38.2269 586.027 -16.2375C574.534 -9.96496 561.396 -4.05873 544.618 2.36996C532.466 7.02614 519.935 11.387 506.664 16.0012C499.69 18.4313 492.612 20.8954 485.449 23.4501C478.507 26.5257 471.394 29.46 464.278 32.1865C422.286 48.2762 377.422 58.6457 318.8 65.8124C305.581 67.1119 291.76 67.9624 277.728 68.3436C227.855 72.8844 184.651 73.1389 141.726 69.1443C92.9407 66.0601 43.2393 51.7257 1.7473 28.7825C-6.64635 24.1957 -14.8308 19.2921 -22.5747 14.2141C-65.0031 -12.6447 -95.7693 -50.5748 -109.227 -92.5991C-126.815 -146.535 -120.905 -200.698 -112.852 -236.636C-104.073 -294.923 -70.5591 -327.729 -34.0267 -358.907C-16.1702 -375.343 3.22148 -389.69 23.7557 -404.884C31.8328 -410.864 40.1945 -417.048 48.585 -423.464C66.2279 -436.813 80.3239 -443.4 95.2426 -450.372C107.868 -456.272 120.918 -462.367 137.458 -473.029C157.202 -485.949 179.63 -497.375 202.33 -506.073ZM545.185 3.42994C562.018 -3.01965 575.204 -8.94742 586.692 -15.2205C639.188 -37.3633 669.088 -81.3166 673.086 -142.318C676.486 -182.635 666.871 -219.89 644.506 -253.038C623.453 -284.335 589.077 -313.404 543.93 -347.423C507.285 -374.494 478.828 -397.246 454.366 -419.036C446.822 -425.756 440.079 -431.912 433.762 -437.853C431.152 -440.458 428.599 -443.011 426.114 -445.5C399.631 -472.014 380.494 -491.17 347.801 -511.267C315.402 -531.782 262.169 -530.278 201.764 -507.133C178.98 -498.403 156.47 -486.935 136.66 -473.97C120.191 -463.358 107.181 -457.277 94.5955 -451.395C79.6138 -444.394 65.4623 -437.783 47.7155 -424.353C39.3247 -417.943 30.9718 -411.761 22.8978 -405.786C2.33668 -390.573 -17.0807 -376.205 -34.9647 -359.742C-71.6415 -328.446 -105.304 -295.486 -114.13 -236.886C-122.195 -200.859 -128.123 -146.502 -110.465 -92.3423C-96.9221 -50.056 -65.9687 -11.8838 -23.2927 15.1333C-15.5247 20.2268 -7.31063 25.1466 1.11828 29.7502C42.7907 52.7949 92.7118 67.1909 141.692 70.2858C184.684 74.2877 227.97 74.0379 277.886 69.4912C291.905 69.1128 305.756 68.259 319.027 66.9557C377.778 59.7698 422.744 49.3749 464.844 33.2442C471.981 30.5094 479.111 27.5683 486.032 24.501C493.145 21.9656 500.221 19.4993 507.194 17.0754C520.472 12.4556 533.013 8.09364 545.185 3.42994Z" fill="#EDE9F6"/>
<path d="M570.843 -20.9172C565.165 -18.2335 559.156 -15.6869 552.421 -13.1042C536.823 -7.1224 520.009 -1.99774 502.209 3.43065C492.035 6.53445 481.51 9.73985 470.845 13.227C466.61 14.9779 462.324 16.6847 458.054 18.3222C415.951 34.4683 370.194 46.0784 309.704 55.9677C296.876 57.7342 283.622 59.119 270.316 60.0754C220.538 66.9656 180.188 68.7651 139.437 65.8982C92.7772 64.0841 44.8616 50.1971 4.48987 26.7972C-3.48597 22.2346 -11.2703 17.3454 -18.655 12.2727C-59.0682 -14.5229 -87.5821 -50.5536 -101.111 -91.9401C-118.777 -144.933 -113.963 -196.926 -106.817 -231.213C-99.0398 -288.978 -66.051 -319.661 -26.9612 -351.053C-10.1864 -365.564 7.9222 -378.247 27.0836 -391.676C36.8334 -398.508 46.9094 -405.572 57.0773 -413.07C74.4663 -425.775 88.0968 -431.64 102.521 -437.848C115.546 -443.452 129.014 -449.247 146.528 -460.5C166.932 -473.816 190.223 -485.654 213.885 -494.728C272.016 -517.021 322.267 -519.231 351.757 -500.795C385.233 -480.498 402.835 -462.184 429.48 -434.46L433.828 -429.937C439.821 -424.083 446.171 -418.034 453.26 -411.425C476.573 -389.688 502.453 -367.749 537.178 -340.282C578.795 -306.677 610.549 -277.974 630.228 -247.148C650.929 -214.848 659.882 -179.086 656.847 -140.853C653.339 -82.5738 625.003 -41.6241 574.898 -22.4092C573.561 -21.8963 572.207 -21.3937 570.843 -20.9172ZM552.988 -12.0423C559.754 -14.6368 565.789 -17.1988 571.437 -19.8685C572.75 -20.3334 574.116 -20.8324 575.464 -21.3495C626.015 -40.7353 654.604 -82.0082 658.137 -140.715C661.189 -179.174 652.179 -215.16 631.343 -247.672C611.57 -278.644 579.735 -307.425 538.01 -341.119C503.31 -368.565 477.457 -390.483 454.169 -412.192C447.089 -418.795 440.745 -424.837 434.773 -430.671L430.44 -435.181C403.724 -462.979 386.074 -481.343 352.452 -501.727C322.58 -520.404 271.865 -518.24 213.319 -495.788C189.574 -486.682 166.203 -474.805 145.729 -461.44C128.304 -450.245 114.885 -444.472 101.91 -438.888C87.4132 -432.649 73.725 -426.759 56.224 -413.972C46.068 -406.481 35.9963 -399.425 26.2486 -392.594C7.06023 -379.147 -11.0685 -366.441 -27.869 -351.909C-65.6758 -321.547 -100.278 -289.477 -108.091 -231.445C-115.253 -197.075 -120.086 -144.888 -102.352 -91.6707C-88.7355 -50.0315 -60.0443 -13.7772 -19.4013 13.1725C-11.9947 18.2615 -4.17609 23.1705 3.82624 27.7532C44.4001 51.2654 92.5581 65.2219 139.431 67.0452C180.259 69.9183 220.708 68.1167 270.529 61.2129C283.828 60.2644 297.114 58.8755 309.982 57.0992C370.593 47.1941 416.428 35.5623 458.62 19.3818C462.899 17.741 467.196 16.0269 471.396 14.2925C482.002 10.8249 492.518 7.62052 502.686 4.52154C520.513 -0.911516 537.344 -6.04829 552.988 -12.0423Z" fill="#EDE9F6"/>
<path d="M224.898 -484.13C280.723 -505.551 328.224 -508.268 355.217 -491.588C389.357 -471.128 405.354 -453.735 431.847 -424.926L433.661 -422.953C439.329 -417.172 445.289 -411.22 451.893 -404.74C473.614 -383.439 497.738 -361.617 530.104 -333.985C563.168 -305.156 596.457 -274.008 615.99 -241.586C635.197 -209.847 643.6 -175.298 640.973 -138.884C638.085 -84.5755 612.617 -46.685 567.313 -29.3011C563.364 -27.7857 559.216 -26.4061 554.979 -25.2074C554.096 -24.8578 553.276 -24.5402 552.443 -24.2207C535.28 -17.6349 516.002 -12.6891 495.594 -7.45846C482.693 -4.15007 469.356 -0.732056 455.687 3.31743C401.22 24.1349 346.539 36.7261 300.235 46.3096C287.798 48.553 275.119 50.4597 262.561 51.9588C229.681 58.1434 185.722 64.9535 136.921 62.6938C92.9419 62.0686 45.6145 48.2079 7.04744 24.6717C-0.506547 20.1132 -7.89356 15.2262 -14.906 10.1431C-52.6971 -16.2363 -79.7862 -51.4356 -93.2698 -91.6518C-111.08 -143.794 -107.433 -193.661 -101.236 -226.311C-94.5321 -283.565 -60.7453 -313.372 -20.5846 -343.763C-4.77483 -356.615 12.2033 -367.854 30.1772 -379.753C41.392 -387.178 52.9854 -394.855 64.7221 -403.221C81.9202 -415.365 95.16 -420.564 109.176 -426.069C122.486 -431.295 136.258 -436.701 154.612 -448.465C175.547 -462.104 200.506 -474.77 224.898 -484.13ZM567.879 -28.2402C613.633 -45.7969 639.353 -84.0153 642.26 -138.758C644.909 -175.377 636.451 -210.147 617.12 -242.089C597.496 -274.651 564.125 -305.884 530.978 -334.789C498.626 -362.404 474.524 -384.21 452.826 -405.489C446.23 -411.958 440.276 -417.905 434.631 -423.667L432.831 -425.623C406.252 -454.523 390.21 -471.967 355.903 -492.524C328.53 -509.441 280.57 -506.77 224.332 -485.191C199.859 -475.8 174.816 -463.094 153.816 -449.41C135.571 -437.713 121.86 -432.33 108.603 -427.125C94.5108 -421.593 81.2066 -416.367 63.8792 -404.134C52.1609 -395.778 40.5794 -388.108 29.3709 -380.692C11.3744 -368.775 -5.62527 -357.522 -21.4694 -344.647C-61.8116 -314.117 -95.7678 -284.149 -102.521 -226.528C-108.735 -193.792 -112.39 -143.738 -94.4985 -91.3786C-80.939 -50.9216 -53.6807 -15.509 -15.6809 11.0299C-8.64238 16.1223 -1.22295 21.0355 6.36851 25.6099C45.1401 49.2824 92.7378 63.2158 136.95 63.8426C185.874 66.1103 229.937 59.2847 262.853 53.0922C275.386 51.5969 288.091 49.6886 300.574 47.433C346.949 37.8389 401.695 25.2279 456.203 4.39764C469.803 0.371888 483.127 -3.04652 496.014 -6.34988C517.45 -11.8454 537.639 -17.0247 555.498 -24.1311C559.704 -25.3235 563.893 -26.7105 567.879 -28.2402Z" fill="#EDE9F6"/>
<path d="M237.799 -473.382C269.002 -485.362 326.36 -502.399 359.934 -481.917C394.452 -461.484 408.731 -445.2 434.656 -415.637C440.122 -409.782 445.684 -403.934 451.753 -397.649C477.284 -371.223 503.903 -346.182 524.239 -327.312C554.321 -298.804 584.683 -267.966 602.922 -235.712C620.634 -204.531 628.484 -171.206 626.251 -136.654C623.916 -85.9634 601 -50.8513 559.982 -35.1032C553.834 -32.743 547.208 -30.7809 540.28 -29.2817C524.691 -24.2699 507.323 -20.7388 488.933 -17.0004C473.725 -13.9102 458.001 -10.7105 441.705 -6.39753C395.479 9.69587 348.422 22.5273 291.974 36.8467C279.898 39.589 267.796 42.0106 256.027 44.0396C221.841 52.2932 180.844 60.5869 135.65 59.6986C93.5784 60.2254 48.1134 46.768 10.8965 22.7886C3.76463 18.2432 -3.22628 13.3596 -9.87891 8.26629C-45.0051 -17.6626 -70.6691 -52.0046 -84.1045 -91.0636C-102.077 -142.347 -99.5852 -190.049 -94.3284 -221.039C-88.6421 -277.882 -55.5523 -305.653 -12.8878 -336.051C2.09786 -347.462 18.0992 -357.432 35.0452 -367.99C47.5775 -375.796 60.5334 -383.869 73.6812 -392.919C87.0306 -402.036 97.7287 -406.676 106.429 -410.016C110.092 -411.422 113.62 -412.675 117.365 -414.002C121.065 -415.313 124.906 -416.672 128.836 -418.18C137.398 -421.468 149.134 -426.461 163.999 -435.97C185.999 -450.272 212.21 -463.558 237.799 -473.382ZM560.549 -34.0392C602.022 -49.9617 625.185 -85.4004 627.538 -136.537C629.754 -170.795 621.638 -205.255 604.072 -236.183C585.751 -268.58 555.313 -299.496 525.15 -328.081C504.82 -346.942 478.224 -371.964 452.713 -398.373C446.648 -404.648 441.088 -410.492 435.72 -416.244C409.644 -445.981 395.313 -462.322 360.616 -482.86C326.518 -503.662 268.676 -486.516 237.232 -474.444C211.563 -464.589 185.272 -451.261 163.203 -436.916C148.435 -427.467 136.78 -422.507 128.27 -419.24C124.354 -417.736 120.53 -416.386 116.827 -415.075C113.247 -413.805 109.539 -412.492 105.861 -411.08C97.0913 -407.713 86.3182 -403.037 72.8577 -393.846C59.7348 -384.808 46.7865 -376.741 34.2617 -368.941C17.2983 -358.376 1.26871 -348.39 -13.7402 -336.954C-56.6214 -306.408 -89.8827 -278.476 -95.6159 -221.237C-100.887 -190.164 -103.379 -142.271 -85.337 -90.7778C-71.8243 -51.4949 -46.0091 -16.9435 -10.6758 9.13186C-4.00563 14.2433 3.0162 19.1453 10.1824 23.7107C47.6334 47.8427 93.3892 61.3814 135.715 60.8425C181.055 61.7435 222.159 53.4227 256.381 45.1634C268.141 43.1408 280.257 40.7058 292.372 37.9592C348.874 23.6273 395.962 10.7841 442.187 -5.30301C458.393 -9.59549 474.097 -12.7877 489.287 -15.8766C507.715 -19.6239 525.123 -23.1592 540.716 -28.1781C547.643 -29.6796 554.338 -31.6546 560.549 -34.0392Z" fill="#EDE9F6"/>
<path d="M250.57 -463.561C301.275 -483.039 341.566 -486.333 364.02 -472.836C398.651 -452.602 411.647 -437.002 435.235 -408.69C440.409 -402.849 445.584 -397.096 451.066 -391.083C473.523 -366.445 496.45 -342.894 517.882 -321.113C543.715 -294.306 572.422 -262.531 589.441 -230.218C605.444 -199.986 612.942 -166.968 611.128 -134.724C609.252 -86.6006 589.151 -54.8487 551.382 -40.3402C543.388 -37.2692 534.536 -34.9902 525.072 -33.5639C511.479 -30.2474 496.54 -28.0653 480.722 -25.7559C463.521 -23.2435 445.734 -20.644 427.106 -16.2992C399.312 -7.65786 371.695 0.601149 342.453 9.34336C323.076 15.1326 303.046 21.1235 282.923 27.2435C271.141 30.5269 259.611 33.473 248.659 36.0039C213.549 46.4702 175.323 56.2001 133.422 56.6109C93.1299 58.279 49.4819 45.2195 13.6614 20.7943C6.93018 16.2555 0.334096 11.3721 -5.94807 6.27146C-38.4349 -19.1886 -62.7005 -52.7138 -76.1134 -90.673C-94.2649 -141.177 -92.9208 -186.744 -88.5904 -216.08C-83.8899 -272.598 -51.4938 -298.433 -6.24779 -328.762C8.00837 -338.916 23.1842 -347.775 39.2467 -357.152C53.0003 -365.183 67.2256 -373.486 81.6897 -383.101C90.6548 -389.02 99.2633 -393.475 108.763 -397.124C114.237 -399.227 119.379 -400.849 124.82 -402.564C130.263 -404.276 135.898 -406.051 141.895 -408.355C152.405 -412.392 162.142 -417.362 172.528 -423.997C195.606 -438.954 224.049 -453.373 250.57 -463.561ZM551.95 -39.2743C590.185 -53.9618 610.526 -86.0406 612.414 -134.616C614.245 -167.035 606.699 -200.253 590.605 -230.66C573.517 -263.112 544.737 -294.964 518.836 -321.846C497.411 -343.617 474.493 -367.158 452.05 -391.779C446.572 -397.788 441.401 -403.539 436.246 -409.354C412.572 -437.774 399.525 -453.435 364.693 -473.785C341.859 -487.514 301.122 -484.261 250.003 -464.625C223.406 -454.407 194.877 -439.944 171.734 -424.943C161.42 -418.36 151.761 -413.424 141.329 -409.416C135.374 -407.129 129.758 -405.361 124.33 -403.651C118.871 -401.932 113.706 -400.307 108.195 -398.19C98.6055 -394.507 89.9287 -390.011 80.8837 -384.04C66.4453 -374.445 52.2376 -366.149 38.5012 -358.13C22.4083 -348.737 7.21308 -339.865 -7.07782 -329.691C-52.5612 -299.199 -85.1382 -273.209 -89.8774 -216.259C-94.2161 -186.84 -95.5683 -141.091 -77.3371 -90.3824C-63.8504 -52.2057 -39.4513 -18.4943 -6.77827 7.11227C-0.474143 12.2294 6.15303 17.1367 12.9089 21.702C48.9889 46.2926 92.9507 59.4413 133.531 57.7702C175.582 57.3488 213.923 47.5938 249.09 37.1142C260.019 34.5893 271.568 31.6356 283.386 28.3443C303.522 22.216 323.56 16.2281 342.921 10.4393C372.17 1.69459 399.792 -6.56069 427.546 -15.1955C446.07 -19.5138 463.826 -22.107 480.998 -24.6194C496.85 -26.9337 511.821 -29.1198 525.417 -32.4371C534.918 -33.8638 543.864 -36.168 551.95 -39.2743Z" fill="#EDE9F6"/>
</svg>
