<svg width="1691" height="1016" viewBox="0 0 1691 1016" fill="none" xmlns="http://www.w3.org/2000/svg">
<path d="M1052.53 -412.463C1052.53 -460.75 1056.43 -495.436 1065.19 -524.927C1100.52 -637.297 1241.93 -720.936 1425.44 -737.995C1517.24 -745.742 1603.32 -732.138 1674.39 -698.652C1736.31 -668.898 1796 -618.69 1862.22 -540.646C1907.44 -486.705 1946.98 -423.941 1986.64 -343.125C2026.5 -261.15 2045.35 -195.684 2047.73 -130.859C2047.82 -127.913 2047.86 -124.967 2047.86 -121.852C2047.86 -48.0677 2024.46 69.0489 1985.27 191.434C1945.44 315.823 1896.46 421.907 1854.24 475.206C1779.23 619.532 1705.85 601.059 1594.77 573.108C1545.49 560.705 1489.65 546.656 1422.16 542.928C1373.46 540.25 1329.98 538.608 1291.61 537.16C1107.35 530.213 1023.25 527.048 930.358 428.583C908.799 404.618 897.865 372.484 897.865 333.092C897.865 302.04 904.647 266.21 918.026 226.591C930.293 190.652 945.61 153.549 961.829 114.269C983.16 62.6057 1005.22 9.18655 1023.58 -49.1109C1045.13 -118.494 1055.61 -194.39 1055.61 -281.141C1055.61 -294.018 1055.37 -307.52 1054.92 -321.271C1054.71 -327.451 1054.49 -333.581 1054.28 -339.654C1053.38 -365.147 1052.53 -389.226 1052.53 -412.463ZM2048.89 -121.852C2048.89 -124.982 2048.85 -127.945 2048.77 -130.914C2046.37 -195.982 2027.48 -261.642 1987.52 -343.823C1947.8 -424.741 1908.21 -487.589 1862.92 -541.614C1796.6 -619.778 1736.81 -670.07 1674.75 -699.889C1603.54 -733.442 1517.31 -747.071 1425.36 -739.309C1241.46 -722.215 1099.71 -638.253 1064.22 -525.407C1055.42 -495.749 1051.5 -460.917 1051.5 -412.463C1051.5 -389.196 1052.35 -365.105 1053.25 -339.595C1053.46 -333.522 1053.68 -327.396 1053.89 -321.216C1054.34 -307.483 1054.57 -294 1054.57 -281.141C1054.57 -194.559 1044.12 -118.822 1022.62 -49.5928C1004.28 8.63018 982.235 62.017 960.914 113.655C944.685 152.956 929.358 190.075 917.077 226.065C903.641 265.855 896.83 301.861 896.83 333.092C896.83 372.884 907.884 405.346 929.689 429.587C974.857 477.467 1018.51 504.042 1075.67 518.444C1131.16 532.433 1198.45 534.969 1291.57 538.482C1329.94 539.93 1373.43 541.567 1422.12 544.252C1489.52 547.968 1545.33 562.014 1594.57 574.404C1651.9 588.831 1697.19 600.232 1738.8 590.214C1783.78 579.392 1819.63 544.177 1855.03 476.034C1897.28 422.729 1946.35 316.479 1986.24 191.933C2025.47 69.3967 2048.89 -47.9062 2048.89 -121.852Z" fill="#EDE9F6"/>
<path d="M2036.53 -122.718C2036.55 -120.968 2036.57 -119.233 2036.57 -117.446C2036.57 -46.9347 2013.74 65.8975 1975.49 184.364C1936.58 304.93 1888.73 408.122 1847.49 460.408C1774.33 600.607 1702.72 584.263 1594.33 559.517C1547.46 548.82 1494.34 536.695 1430.55 534.007C1384.05 531.9 1342.42 530.738 1305.68 529.711C1127.48 524.732 1046.15 522.458 955.691 428.311C932.298 403.508 920.436 369.41 920.436 326.948C920.436 298.472 925.785 266.062 936.335 230.621C947.704 186.913 963.67 141.241 980.576 92.8919C996.461 47.4612 1012.89 0.476676 1027.23 -49.6277C1056.36 -153.621 1060.35 -253.999 1060.82 -320.455L1060.69 -332.175C1060.54 -346.402 1060.4 -359.842 1060.4 -373.215C1060.4 -430.1 1063.14 -476.36 1076.52 -517.231C1112.37 -625.243 1249.45 -707.107 1425.75 -725.782C1515.97 -735.951 1600.19 -725.062 1669.31 -694.298C1730.59 -666.668 1789.49 -618.499 1854.65 -542.706C1902.35 -487.477 1942.8 -422.597 1981.95 -338.524C2019.7 -256.62 2036.53 -190.288 2036.53 -123.45V-122.718ZM2037.6 -117.446C2037.6 -119.241 2037.59 -120.986 2037.56 -122.73L2037.56 -123.45C2037.56 -190.536 2020.68 -257.077 1982.84 -339.196C1943.64 -423.384 1903.12 -488.363 1855.35 -543.682C1790.08 -619.594 1731.08 -667.852 1669.65 -695.543C1600.39 -726.37 1516.02 -737.281 1425.67 -727.097C1248.99 -708.383 1111.56 -626.206 1075.56 -517.74C1062.12 -476.665 1059.36 -430.259 1059.36 -373.215C1059.36 -359.832 1059.51 -346.389 1059.66 -332.155L1059.78 -320.452C1059.31 -254.106 1055.33 -153.877 1026.26 -50.0769C1011.93 -0.0197125 995.509 46.9424 979.632 92.3582C962.715 140.735 946.738 186.434 935.362 230.172C924.774 265.742 919.403 298.308 919.403 326.948C919.403 369.812 931.388 404.263 955.035 429.321C1045.77 523.769 1127.22 526.045 1305.66 531.031C1342.39 532.059 1384.02 533.22 1430.52 535.325C1494.23 538.008 1547.32 550.128 1594.15 560.818C1650.09 573.59 1694.28 583.677 1734.88 573.25C1778.77 561.979 1813.75 527.43 1848.28 461.242C1889.55 408.941 1937.48 305.578 1976.45 184.87C2014.74 66.2475 2037.6 -46.7709 2037.6 -117.446Z" fill="#EDE9F6"/>
<path d="M943.01 320.381C943.01 294.723 947.039 265.964 954.977 234.91C964.641 181.699 981.149 125.312 998.629 65.6136C1009.54 28.3541 1020.82 -10.1723 1031.16 -50.3284C1055.88 -149.336 1063.13 -242.339 1066.96 -320.262L1067.03 -324.823C1068.13 -395.998 1069.07 -457.47 1088.09 -510.479C1124.43 -614.323 1257.1 -694.543 1426.1 -714.854C1515.94 -727.662 1596.02 -719.698 1664.11 -691.177C1723.87 -666.008 1783.64 -618.437 1846.84 -545.756C1896.32 -489.938 1938.87 -420.864 1976.93 -334.58C2012.65 -252.716 2027.75 -183.56 2024.97 -114.879L2024.97 -113.341C2024.97 -45.9985 2002.71 62.717 1965.43 177.462C1927.44 294.392 1880.74 394.873 1840.51 446.257C1769.21 582.586 1699.4 568.362 1593.74 546.83C1549.33 537.783 1499 527.53 1438.97 525.839C1394.76 524.306 1355.05 523.618 1320.02 523.007C1147.9 520.008 1069.34 518.642 981.339 428.612C955.908 402.874 943.01 366.459 943.01 320.381ZM2026.32 -130.703C2026.32 -194.418 2010.91 -259.408 1977.83 -335.224C1939.71 -421.642 1897.09 -490.827 1847.53 -546.737C1784.22 -619.545 1724.33 -667.201 1664.44 -692.432C1596.2 -721.012 1515.97 -728.996 1426 -716.168C1342.64 -706.149 1266.77 -681.596 1206.59 -645.171C1146.41 -608.739 1105.11 -562.35 1087.15 -511.023C1068.04 -457.768 1067.1 -396.172 1066 -324.847L1065.93 -320.316C1062.1 -242.506 1054.86 -149.599 1030.17 -50.7333C1019.84 -10.617 1008.56 27.9044 997.656 65.154C980.168 124.892 963.646 181.322 953.983 234.554C946.019 265.693 941.975 294.581 941.975 320.381C941.975 366.889 955.002 403.649 980.694 429.646C1068.97 519.954 1147.64 521.323 1320 524.321C1355.03 524.935 1394.74 525.623 1438.94 527.16C1498.91 528.847 1549.2 539.089 1593.57 548.139C1648.11 559.248 1691.19 568.024 1730.76 557.149C1773.56 545.399 1807.64 511.453 1841.3 447.089C1881.56 395.693 1928.35 295.048 1966.38 177.961C2003.72 63.0673 2026 -45.8346 2026 -113.341L2026 -114.849C2026.21 -120.083 2026.32 -125.429 2026.32 -130.703Z" fill="#EDE9F6"/>
<path d="M965.582 312.104C965.582 289.701 968.42 264.999 974.018 238.695C980.898 174.014 997.919 104.373 1015.94 30.639C1022.4 4.20416 1029.08 -23.1314 1035.48 -50.9881C1057.89 -152.541 1066.91 -249.039 1073.5 -319.5C1076.36 -386.293 1079.06 -449.341 1100.05 -502.789C1118.18 -551.797 1158.34 -596.411 1216.17 -631.829C1274.12 -667.313 1346.95 -691.783 1426.78 -702.595C1514.94 -717.905 1593.14 -712.582 1659.2 -686.768C1718.24 -663.755 1777.15 -618.295 1839.3 -547.795C1891.21 -490.752 1934.66 -419.524 1972.15 -330.038C2001.29 -259.662 2014.86 -198.698 2014.86 -138.181C2014.86 -127.806 2014.45 -117.272 2013.64 -106.873C2013.13 -42.2311 1991.23 61.9473 1955.06 171.888C1917.56 285.855 1873.36 380.366 1833.78 431.186C1764.34 563.419 1696.32 551.379 1593.36 533.153C1551.45 525.734 1503.94 517.324 1447.7 516.607C1405.86 515.642 1368.15 515.423 1334.87 515.225C1168.76 514.247 1092.94 513.803 1007.38 428.039C979.64 401.327 965.582 362.318 965.582 312.104ZM2015.9 -138.181C2015.9 -198.922 2002.29 -260.079 1973.07 -330.656C1935.51 -420.293 1891.98 -491.642 1839.98 -548.787C1777.73 -619.409 1718.69 -664.959 1659.5 -688.029C1593.3 -713.898 1514.95 -719.238 1426.66 -703.902C1346.73 -693.078 1273.78 -668.567 1215.72 -633.015C1157.67 -597.466 1117.35 -552.636 1099.12 -503.367C1078.04 -449.689 1075.33 -386.506 1072.47 -319.614C1065.89 -249.238 1056.87 -152.799 1034.49 -51.3504C1028.09 -23.5161 1021.41 3.81458 1014.95 30.2494C996.918 104.033 979.886 173.731 973.006 238.43C967.399 264.768 964.547 289.582 964.547 312.104C964.547 362.752 978.744 402.113 1006.75 429.086C1092.58 515.113 1168.51 515.565 1334.86 516.545C1368.14 516.738 1405.85 516.959 1447.68 517.922C1503.87 518.644 1551.34 527.046 1593.22 534.458C1646.35 543.86 1688.33 551.295 1726.89 539.98C1768.58 527.749 1801.8 494.448 1834.58 432.019C1874.18 381.18 1918.46 286.51 1956.01 172.391C1992.23 62.3171 2014.16 -42.0624 2014.67 -106.801C2015.48 -117.183 2015.9 -127.761 2015.9 -138.181Z" fill="#EDE9F6"/>
<path d="M986.419 303.078C986.419 284.388 988.231 264.15 991.805 242.905C994.488 164.025 1012.21 77.6048 1030.96 -13.8718C1033.51 -26.2944 1036.08 -38.8237 1038.64 -51.4771C1053.47 -128.578 1063.08 -200.688 1071.55 -264.307C1074.09 -283.446 1076.5 -301.523 1078.93 -318.813C1083.96 -388.305 1089.51 -445.394 1110.94 -495.36C1129.37 -542.379 1168.61 -585.492 1224.41 -620.056C1280.34 -654.701 1350.34 -679.16 1426.87 -690.783C1513.49 -708.637 1589.92 -705.948 1654.04 -682.784C1712.44 -661.926 1770.57 -618.532 1831.76 -550.12C1885.44 -492.624 1931.13 -417.083 1967.58 -325.587C1993.32 -260.174 2005.31 -203 2005.31 -145.67C2005.31 -130.164 2004.39 -114.379 2002.57 -98.7537C2001.22 -36.4271 1979.51 63.2121 1944.49 167.858C1908.07 276.7 1865.27 367.424 1827.06 416.76C1759.34 545.066 1692.98 535.236 1592.53 520.344C1553.08 514.496 1508.38 507.872 1455.87 508.081C1416.42 507.684 1380.71 507.917 1349.2 508.133C1188.74 509.202 1115.51 509.688 1032.21 428.094C1001.82 400.264 986.419 358.21 986.419 303.078ZM2006.35 -145.67C2006.35 -203.216 1994.32 -260.571 1968.5 -326.182C1931.99 -417.84 1886.21 -493.52 1832.44 -551.12C1771.14 -619.656 1712.87 -663.142 1654.32 -684.052C1590.06 -707.265 1513.48 -709.972 1426.72 -692.088C1350.11 -680.452 1279.98 -655.949 1223.95 -621.239C1167.95 -586.547 1128.55 -543.23 1110.02 -495.971C1088.51 -445.804 1082.94 -388.578 1077.9 -318.99C1075.48 -301.751 1073.07 -283.672 1070.52 -264.528C1062.06 -200.931 1052.46 -128.846 1037.64 -51.7972C1035.08 -39.1587 1032.51 -26.6269 1029.96 -14.2092C1011.19 77.3418 993.459 163.824 990.783 242.741C987.202 263.957 985.383 284.299 985.383 303.078C985.383 358.656 1000.93 401.07 1031.6 429.151C1115.16 511.013 1188.5 510.519 1349.21 509.442C1380.71 509.237 1416.42 508.994 1455.86 509.398C1508.33 509.194 1553 515.809 1592.4 521.657C1644.25 529.338 1685.2 535.404 1722.82 523.614C1763.5 510.867 1795.9 478.174 1827.86 417.591C1866.1 368.231 1908.97 277.367 1945.44 168.377C1980.51 63.5843 2002.25 -36.231 2003.6 -98.6395C2005.42 -114.25 2006.35 -130.102 2006.35 -145.67Z" fill="#EDE9F6"/>
<path d="M1010.61 223.778C1010.61 140.73 1025.34 49.8405 1043.13 -51.8004C1049.97 -93.4102 1055.94 -132.89 1061.72 -171.068C1069.81 -224.564 1077.45 -275.095 1085.6 -318.214C1092.2 -381.439 1099.56 -437.82 1123.02 -488.177C1141.72 -533.253 1179.96 -574.903 1233.61 -608.646C1287.4 -642.484 1354.46 -666.949 1427.52 -679.401C1512.44 -699.851 1586.95 -699.789 1649.01 -679.223C1706.63 -660.528 1763.87 -619.159 1824 -552.752C1880.07 -493.96 1926.67 -416.069 1962.51 -321.229C1984.88 -261.26 1995.76 -206.187 1995.76 -152.875C1995.76 -132.348 1994.14 -111.367 1990.95 -90.5101C1986.49 31.1163 1901.22 297.27 1820.13 402.92C1754.23 527.469 1689.61 519.876 1591.8 508.388C1554.95 504.052 1513.19 499.146 1464.55 500.236C1427.67 500.38 1394.1 501.073 1364.49 501.676C1209.87 504.849 1139.3 506.302 1058.4 428.741C1025.03 399.673 1008.12 354.003 1008.12 293.001C1008.12 278.625 1009.1 263.335 1011.02 247.555C1010.75 239.754 1010.61 231.796 1010.61 223.778ZM1996.8 -152.875C1996.8 -206.388 1985.89 -261.645 1963.44 -321.8C1927.54 -416.816 1880.85 -494.859 1824.67 -553.76C1764.42 -620.297 1707.05 -661.757 1649.27 -680.499C1587.06 -701.118 1512.39 -701.185 1427.36 -680.703C1354.21 -668.238 1287.05 -643.731 1233.15 -609.831C1179.3 -575.963 1140.91 -534.117 1122.11 -488.823C1098.57 -438.277 1091.19 -381.759 1084.59 -318.455C1076.44 -275.373 1068.8 -224.827 1060.7 -171.319C1054.93 -133.14 1048.95 -93.6709 1042.12 -52.081C1024.32 49.6294 1009.57 140.596 1009.57 223.778C1009.57 231.813 1009.71 239.791 1009.99 247.486C1008.06 263.201 1007.09 278.56 1007.09 293.001C1007.09 354.47 1024.14 400.5 1057.79 429.816C1096.98 467.381 1134.86 487.409 1184.46 496.762C1231.92 505.718 1287.54 504.581 1364.51 503C1394.12 502.391 1427.68 501.704 1464.56 501.552C1513.15 500.472 1554.88 505.373 1591.71 509.699C1642.19 515.626 1682.06 520.316 1718.68 508.013C1758.29 494.706 1789.81 462.554 1820.92 403.755C1857.71 355.831 1899.11 268.678 1934.42 164.716C1968.25 65.1331 1989.77 -30.2233 1991.97 -90.3562C1995.17 -111.198 1996.8 -132.261 1996.8 -152.875Z" fill="#EDE9F6"/>
<path d="M1025.49 177.296C1025.49 99.3604 1036.12 17.3482 1046.52 -52.5961C1059.41 -146.341 1073.48 -244.024 1091.24 -317.67C1100.55 -384.528 1110.96 -435.095 1134.1 -480.787C1172.99 -568.945 1285.47 -640.484 1427.64 -667.516C1510.98 -690.57 1583.69 -693.14 1643.77 -675.162C1700.69 -658.69 1757.12 -619.41 1816.3 -555.08C1874.04 -495.939 1922.93 -413.586 1957.7 -316.923C1977.47 -261.258 1987.08 -209.892 1987.08 -159.898C1987.08 -134.254 1984.64 -108.994 1979.63 -82.6793C1976.57 -24.9444 1955.28 65.6326 1922.68 159.733C1888.51 258.361 1848.62 341.529 1813.24 387.913C1749.03 508.578 1686.01 503.293 1590.63 495.299C1556.37 492.421 1517.54 489.164 1472.75 491.067C1438.48 491.744 1407.1 492.865 1379.42 493.865C1234.77 499.028 1162.17 501.624 1083.48 428.186C1047.16 398.202 1027.97 346.985 1027.97 280.065C1027.97 270.781 1028.34 261.102 1029.07 251.28C1026.69 228.121 1025.49 203.281 1025.49 177.296ZM1988.12 -159.898C1988.12 -210.085 1978.48 -261.625 1958.65 -317.472C1923.8 -414.323 1874.81 -496.839 1816.96 -556.095C1757.66 -620.554 1701.08 -659.928 1644.01 -676.447C1583.77 -694.468 1510.92 -691.902 1427.46 -668.813C1285 -641.727 1172.25 -569.937 1133.21 -481.466C1107.48 -430.661 1097.87 -372.845 1090.24 -317.98C1072.48 -244.337 1058.4 -146.612 1045.5 -52.8293C1035.09 17.1646 1024.45 99.2463 1024.45 177.296C1024.45 203.33 1025.66 228.235 1028.04 251.302C1027.31 261.018 1026.94 270.736 1026.94 280.065C1026.94 347.461 1046.29 399.056 1082.9 429.273C1161.85 502.951 1234.57 500.353 1379.44 495.175C1407.13 494.185 1438.5 493.066 1472.78 492.389C1517.51 490.484 1556.32 493.739 1590.56 496.609C1639.79 500.738 1678.67 504 1714.38 491.173C1752.99 477.304 1783.73 445.712 1814.04 388.739C1849.45 342.34 1889.41 259.028 1923.63 160.264C1956.27 66.0345 1977.59 -24.7087 1980.65 -82.4783C1985.67 -108.785 1988.12 -134.147 1988.12 -159.898Z" fill="#EDE9F6"/>
<path d="M1037.64 127.111C1037.64 74.7145 1041.75 15.6957 1050.22 -53.3123C1062.84 -166.79 1078.2 -253.126 1097.19 -317.268C1107.96 -377.967 1120.28 -427.746 1145.52 -473.672C1184.92 -557.587 1293.2 -627.458 1428.11 -656.056C1509.87 -681.77 1580.78 -686.973 1638.88 -671.528C1695.08 -657.281 1750.71 -620.057 1808.96 -557.735C1885.02 -481.483 1929.42 -382.428 1953.27 -312.758C1970.76 -260.991 1979.27 -213.063 1979.27 -166.241C1979.27 -136.043 1975.81 -106.133 1968.68 -74.8014C1960.67 38.088 1880.7 275.602 1806.72 373.332C1744.13 490.298 1682.65 487.38 1589.59 482.959C1557.99 481.458 1522.17 479.756 1481.29 482.411C1449.76 483.589 1420.67 485.117 1395 486.47C1255.49 493.819 1185.45 497.506 1108.9 428.086C1068.6 396.588 1047.32 340.278 1047.32 265.216C1047.32 261.959 1047.36 258.622 1047.44 255.297C1040.84 215.996 1037.64 174.114 1037.64 127.111ZM1980.3 -166.241C1980.3 -213.249 1971.77 -261.346 1954.22 -313.284C1930.32 -383.095 1885.83 -482.346 1809.6 -558.755C1751.24 -621.213 1695.46 -658.529 1639.09 -672.818C1580.84 -688.305 1509.77 -683.1 1427.9 -657.348C1292.74 -628.696 1184.19 -558.584 1144.65 -474.389C1119.34 -428.327 1106.97 -378.411 1096.2 -317.645C1077.21 -253.498 1061.83 -167.07 1049.2 -53.5133C1040.73 15.5567 1036.61 74.6426 1036.61 127.111C1036.61 174.211 1039.82 216.179 1046.42 255.418C1046.32 258.592 1046.28 261.944 1046.28 265.216C1046.28 340.76 1067.74 397.461 1108.33 429.18C1185.14 498.841 1255.29 495.149 1395.05 487.79C1420.71 486.44 1449.79 484.904 1481.33 483.721C1522.17 481.076 1557.97 482.775 1589.56 484.276C1682.96 488.713 1744.66 491.638 1807.52 374.161C1881.58 276.344 1961.69 38.413 1969.7 -74.5632C1976.82 -105.885 1980.3 -135.917 1980.3 -166.241Z" fill="#EDE9F6"/>
<path d="M1048.06 77.7619C1048.06 36.6761 1050.29 -6.34187 1054.87 -53.7309C1064.13 -162.184 1080.66 -250.693 1104.02 -316.811C1114.69 -365.65 1128.57 -417.532 1157.73 -466.645C1197.6 -546.415 1301.52 -614.686 1428.95 -644.856C1510.16 -673.7 1577.23 -681.325 1634.07 -668.172C1689.45 -656.166 1744.19 -620.964 1801.43 -560.561C1863.14 -499.818 1915.34 -410.315 1948.44 -308.528C1963.93 -260.262 1971.46 -215.471 1971.46 -171.599C1971.46 -137.124 1966.83 -102.791 1957.32 -66.6306C1947.53 41.76 1871.51 264.012 1800.01 359.456C1739.08 472.928 1679.16 472.454 1588.44 471.734C1559.63 471.505 1526.96 471.247 1490.15 474.56C1461.51 476.206 1434.89 478.106 1411.4 479.793C1277.01 489.434 1209.56 494.269 1135.18 428.743C1081.33 388.886 1068.25 314.946 1066.76 259.932L1066.74 259.766C1054.17 205.224 1048.06 145.688 1048.06 77.7619ZM1972.49 -171.599C1972.49 -215.647 1964.94 -260.6 1949.4 -309.032C1916.23 -411.03 1863.91 -500.724 1802.08 -561.592C1744.71 -622.136 1689.81 -657.425 1634.25 -669.473C1577.27 -682.656 1510.03 -675.026 1428.72 -646.14C1301.06 -615.917 1196.88 -547.423 1156.88 -467.4C1127.65 -418.153 1113.73 -366.132 1103.05 -317.258C1079.68 -251.105 1063.11 -162.464 1053.85 -53.8873C1049.26 -6.4511 1047.02 36.6116 1047.02 77.7619C1047.02 145.787 1053.14 205.417 1065.73 260.061C1067.24 315.4 1080.43 389.743 1134.62 429.86C1209.26 495.61 1276.83 490.765 1411.45 481.114C1434.94 479.43 1461.56 477.518 1490.2 475.881C1527 472.563 1559.63 472.824 1588.43 473.057C1679.48 473.77 1739.63 474.249 1800.81 360.283C1872.38 264.75 1948.53 42.1052 1958.32 -66.345C1967.85 -102.506 1972.49 -136.983 1972.49 -171.599Z" fill="#EDE9F6"/>
<path d="M1055 32.7003C1055 4.63393 1056.09 -24.7433 1058.23 -54.6247C1064.61 -160.276 1082.39 -250.826 1109.64 -316.5C1125.74 -377.273 1143.43 -420.033 1168.85 -459.573C1188.74 -496.756 1223.19 -532.42 1268.51 -562.751C1314.1 -593.263 1369.67 -617.687 1429.23 -633.378C1508.88 -665.005 1574.23 -675.187 1629.08 -664.519C1683.73 -654.791 1737.7 -621.659 1794.05 -563.232C1858.25 -501.317 1911.51 -409.421 1944.03 -304.453C1957.81 -259.412 1964.51 -217.548 1964.51 -176.469C1964.51 -138.061 1958.59 -99.6117 1946.4 -58.915C1934.65 45.9389 1861.79 252.623 1793.45 344.566C1733.98 454.534 1675.38 456.608 1586.68 459.744C1560.71 460.665 1531.27 461.702 1498.53 465.558C1472.93 467.604 1449.9 469.744 1427.64 471.815C1297.89 483.869 1232.77 489.923 1160.31 428.318C1105.81 390.303 1089.17 317.808 1084.8 263.689L1084.77 263.522C1065.02 195.693 1055 118.034 1055 32.7003ZM1965.55 -176.469C1965.55 -217.714 1958.82 -259.737 1945 -304.935C1912.4 -410.129 1859.02 -502.226 1794.69 -564.27C1738.2 -622.839 1684.07 -656.062 1629.23 -665.825C1574.23 -676.523 1508.72 -666.329 1428.97 -634.657C1369.37 -618.953 1313.7 -594.487 1268.03 -563.915C1222.56 -533.488 1187.98 -497.677 1168.02 -460.36C1142.55 -420.736 1124.8 -377.854 1108.69 -317.019C1081.41 -251.283 1063.59 -160.554 1057.2 -54.7339C1055.06 -24.8278 1053.97 4.59417 1053.97 32.7003C1053.97 118.156 1064 195.944 1083.78 263.907C1088.19 318.332 1104.95 391.199 1159.77 429.44C1232.49 491.268 1297.74 485.208 1427.72 473.131C1449.98 471.06 1472.99 468.92 1498.62 466.872C1531.34 463.018 1560.76 461.981 1586.72 461.064C1675.73 457.916 1734.53 455.835 1794.25 345.395C1825.47 303.402 1861.11 231.382 1891.99 147.888C1920.99 69.4789 1941.7 -7.70837 1947.4 -58.5923C1959.6 -99.2939 1965.55 -137.898 1965.55 -176.469Z" fill="#EDE9F6"/>
<path d="M1061.08 -4.11581C1061.08 -20.7461 1061.49 -37.7885 1062.28 -54.7739C1066.07 -160.183 1084.61 -250.354 1115.9 -315.559C1133.22 -370.441 1153.14 -412.47 1180.54 -451.929C1222.09 -524.412 1315.25 -587.754 1429.79 -621.415C1507.78 -655.885 1571.33 -668.626 1624.13 -660.384C1677.99 -652.952 1731.11 -621.874 1786.53 -565.378C1853.15 -502.276 1907.41 -407.943 1939.33 -299.743C1951.6 -257.598 1957.56 -218.38 1957.56 -179.847C1957.56 -137.764 1950.24 -95.4419 1935.17 -50.4555C1921.71 48.606 1850.6 243.801 1786.75 330.6C1728.69 437.29 1671.35 442.046 1584.56 449.225C1561.62 451.127 1535.6 453.275 1507.12 457.536C1484.76 459.895 1464.41 462.282 1444.74 464.591C1323.44 478.8 1256.63 486.63 1186.03 428.842C1130.98 392.676 1110.78 321.594 1103.52 268.323C1075.35 187.687 1061.08 96.078 1061.08 -4.11581ZM1958.6 -179.847C1958.6 -218.536 1952.61 -257.908 1940.3 -300.202C1908.31 -408.641 1853.93 -503.183 1787.17 -566.421C1731.6 -623.066 1678.3 -654.236 1624.25 -661.693C1571.3 -669.962 1507.59 -657.201 1429.5 -622.679C1314.78 -588.969 1221.39 -525.44 1179.74 -452.756C1152.28 -413.227 1132.3 -371.079 1114.98 -316.15C1083.64 -250.858 1065.04 -160.466 1061.25 -54.8484C1060.45 -37.8382 1060.05 -20.7635 1060.05 -4.11581C1060.05 96.2642 1074.34 188.05 1102.54 268.708C1109.8 322.113 1130.13 393.6 1185.52 429.985C1256.37 487.983 1323.31 480.141 1444.83 465.905C1464.51 463.598 1484.85 461.214 1507.23 458.842C1535.7 454.586 1561.69 452.438 1584.63 450.543C1671.72 443.332 1729.26 438.567 1787.56 331.427C1817.81 290.31 1851.12 223.818 1881.32 144.27C1909.06 71.1661 1929.56 -1.49348 1936.16 -50.088C1951.25 -95.0918 1958.6 -137.583 1958.6 -179.847Z" fill="#EDE9F6"/>
<path d="M1066.29 -34.3535C1066.29 -41.4735 1066.37 -48.7028 1066.53 -55.8377C1067.81 -161.449 1087.1 -251.183 1122.33 -315.338C1140.55 -364.324 1162.79 -405.463 1192.36 -444.908C1234.42 -513.17 1323.37 -574.845 1430.34 -609.934C1507.7 -647.802 1567.66 -662.658 1619.09 -656.704C1672.11 -651.597 1724.35 -622.596 1778.82 -568.048C1846.85 -504.742 1903.52 -405.503 1934.35 -295.762C1945.3 -256.27 1950.62 -219.484 1950.62 -183.306C1950.62 -137.183 1942.06 -92.577 1923.68 -42.9204C1908.44 50.8659 1840.93 231.522 1779.87 315.419C1723.09 419.013 1666.85 426.594 1581.72 438.072C1562.01 440.732 1539.68 443.745 1515.67 448.197C1496.79 450.759 1479.37 453.28 1462.53 455.727C1345.31 472.727 1280.74 482.098 1211.87 428.081C1156.34 393.813 1132.57 324.179 1122.4 271.795C1085.67 181.317 1066.29 75.4919 1066.29 -34.3535ZM1951.65 -183.306C1951.65 -219.638 1946.31 -256.568 1935.32 -296.204C1904.43 -406.19 1847.61 -505.655 1779.44 -569.1C1724.82 -623.799 1672.4 -652.89 1619.18 -658.017C1567.6 -663.99 1507.48 -649.11 1430.02 -611.187C1322.9 -576.051 1233.74 -514.204 1191.58 -445.769C1161.96 -406.272 1139.66 -365.021 1121.44 -316C1086.14 -251.721 1066.78 -161.735 1065.5 -55.87C1065.34 -48.7301 1065.26 -41.4884 1065.26 -34.3535C1065.26 75.7078 1084.68 181.729 1121.44 272.252C1131.62 324.772 1155.53 394.779 1211.37 429.24C1280.5 483.455 1345.2 474.074 1462.64 457.037C1479.48 454.593 1496.9 452.064 1515.8 449.508C1539.81 445.056 1562.13 442.043 1581.82 439.385C1625.83 433.451 1660.59 428.768 1692.34 412.448C1726.62 394.828 1753.87 365.162 1780.67 316.247C1809.48 276.664 1841.36 213.904 1870.4 139.584C1896.86 71.8412 1917.14 3.77294 1924.65 -42.501C1943.06 -92.1947 1951.65 -136.982 1951.65 -183.306Z" fill="#EDE9F6"/>
<path d="M1069.77 -65.0142C1069.77 -167.34 1089.86 -253.661 1127.9 -314.642C1147.19 -358.932 1170.47 -396.784 1203.45 -437.457C1246.14 -501.596 1331.03 -561.629 1430.58 -598.099C1506.37 -638.955 1564.66 -656.289 1614.08 -652.681C1665.6 -649.949 1718.53 -622.245 1771.43 -570.333C1841.94 -505.891 1899.72 -404.192 1929.95 -291.299C1939.77 -254.197 1944.54 -219.605 1944.54 -185.552C1944.54 -136.168 1934.44 -88.2646 1912.75 -34.8065C1895.12 56.8284 1831.76 219.808 1773.29 300.978C1717.48 401.867 1664.94 411.945 1577.89 428.646C1560.91 431.906 1543.35 435.273 1524.05 439.642C1508.93 442.213 1494.72 444.736 1480.98 447.162C1367.19 467.339 1304.51 478.449 1237.01 428.083C1180.94 395.714 1153.54 327.493 1140.41 275.958C1094.4 176.17 1070 61.3093 1069.81 -56.3303C1069.78 -59.2481 1069.77 -62.1336 1069.77 -65.0142ZM1945.58 -185.552C1945.58 -219.751 1940.79 -254.482 1930.93 -291.721C1900.63 -404.872 1842.72 -506.806 1772.05 -571.39C1719 -623.456 1665.86 -651.254 1614.13 -653.996C1564.55 -657.616 1506.12 -640.251 1430.24 -599.339C1330.56 -562.83 1245.48 -502.638 1202.69 -438.357C1169.67 -397.637 1146.33 -359.691 1127.04 -315.373C1088.91 -254.246 1068.73 -167.643 1068.73 -65.0142C1068.73 -62.1286 1068.75 -59.2381 1068.78 -56.3203C1068.97 61.5475 1093.41 176.637 1139.47 276.496C1152.62 328.158 1180.17 396.714 1236.53 429.249C1304.3 479.816 1367.11 468.679 1481.12 448.475C1494.86 446.036 1509.07 443.52 1524.21 440.945C1543.52 436.57 1561.07 433.211 1578.04 429.951C1621.53 421.607 1655.88 415.014 1687.18 397.694C1720.94 379.021 1747.74 349.449 1774.1 301.799C1801.52 263.741 1832.03 204.678 1859.95 135.557C1885.16 73.1642 1905.26 9.64509 1913.71 -34.3475C1935.44 -87.8528 1945.58 -135.949 1945.58 -185.552Z" fill="#EDE9F6"/>
<path d="M1073.23 -79.7006C1073.23 -176.469 1094.23 -257.524 1133.94 -314.103C1153.55 -352.832 1178.52 -388.646 1214.96 -430.307C1258.32 -490.483 1339.09 -548.949 1431.06 -586.745C1506.21 -631.309 1561.11 -650.565 1609.13 -649.212C1659.84 -648.805 1711.93 -623.188 1763.97 -573.076C1836.93 -507.428 1895.75 -403.15 1925.37 -286.958C1934.18 -251.991 1938.46 -219.358 1938.46 -187.205C1938.46 -134.655 1926.76 -83.5922 1901.64 -26.5097C1882.27 59.3041 1822.1 209.109 1766.65 287.1C1711.51 385.947 1659.26 399.259 1572.7 421.324C1559.94 424.582 1546.73 427.94 1532.59 431.817C1521.62 434.136 1511.06 436.416 1500.91 438.607C1390.05 462.54 1328.98 475.72 1262.56 428.804C1206.06 398.32 1175.02 331.428 1158.91 280.683C1106.08 177.823 1076.61 61.2139 1073.63 -56.6689C1073.37 -64.3925 1073.23 -72.1409 1073.23 -79.7006ZM1939.5 -187.205C1939.5 -219.497 1935.2 -252.259 1926.36 -287.366C1896.67 -403.823 1837.7 -508.347 1764.58 -574.142C1712.38 -624.414 1660.08 -650.121 1609.15 -650.531C1560.97 -651.887 1505.93 -632.592 1430.68 -587.972C1338.61 -550.136 1257.67 -491.536 1214.23 -431.243C1177.76 -389.548 1152.74 -353.652 1133.12 -314.9C1093.28 -258.158 1072.2 -176.799 1072.2 -79.7006C1072.2 -72.1211 1072.33 -64.3552 1072.6 -56.6118C1075.58 61.4945 1105.11 178.347 1158 281.286C1174.13 332.158 1205.33 399.353 1262.11 429.989C1328.8 477.103 1389.99 463.891 1501.08 439.91C1511.24 437.72 1521.79 435.44 1532.79 433.113C1546.94 429.231 1560.14 425.869 1572.9 422.621C1616.23 411.572 1650.44 402.857 1681.47 384.315C1714.9 364.336 1741.42 334.611 1767.46 287.922C1822.96 209.864 1883.23 59.8082 1902.59 -26.0055C1927.76 -83.1526 1939.5 -134.421 1939.5 -187.205Z" fill="#EDE9F6"/>
<path d="M1076.71 -91.2518C1076.71 -183.833 1098.66 -260.69 1140.2 -313.517C1163.25 -352.787 1191.42 -385.664 1226.64 -422.965C1271.42 -480.095 1346.12 -535.502 1431.6 -575.023C1481.06 -607.167 1545.31 -644.17 1604.17 -645.3C1654.03 -647.239 1705.25 -623.746 1756.41 -575.472C1830.68 -509.682 1892.06 -400.202 1920.62 -282.6C1928.54 -249.614 1932.39 -218.808 1932.39 -188.427C1932.39 -132.143 1919.43 -79.731 1890.37 -18.4892C1868.91 62.8717 1811.4 199.165 1759.92 272.561C1704.94 370.141 1652.3 387.166 1565.09 415.377C1557.38 417.878 1549.41 420.452 1541.15 423.174C1534.85 424.82 1528.67 426.449 1522.63 428.028C1417.5 455.641 1354.04 472.301 1288.26 428.718C1231.41 400.162 1196.71 334.677 1177.61 284.762C1118.8 180.67 1083.33 59.2368 1077.68 -57.2553C1077.03 -68.7216 1076.71 -80.1605 1076.71 -91.2518ZM1933.42 -188.427C1933.42 -218.942 1929.56 -249.874 1921.61 -282.987C1908.22 -338.126 1887.09 -393.2 1860.5 -442.268C1831.03 -496.644 1796.22 -541.821 1757.02 -576.543C1705.67 -624.987 1654.23 -648.568 1604.15 -646.621C1545.08 -645.486 1480.69 -608.409 1431.19 -576.232C1345.63 -536.679 1270.8 -481.158 1225.94 -423.941C1190.7 -386.617 1162.48 -353.681 1139.42 -314.379C1097.73 -261.37 1075.67 -184.191 1075.67 -91.2518C1075.67 -80.1307 1076 -68.6595 1076.65 -57.166C1079.46 0.919926 1089.42 59.7532 1106.24 117.693C1123.29 176.402 1147 232.836 1176.72 285.438C1195.86 335.464 1230.72 401.235 1287.83 429.915C1353.89 473.689 1417.48 456.991 1522.84 429.327C1528.88 427.732 1535.05 426.114 1541.38 424.462C1549.67 421.726 1557.63 419.154 1565.34 416.658C1652.78 388.375 1705.56 371.303 1760.72 273.385C1812.25 199.915 1869.85 63.4181 1891.3 -17.938C1920.42 -79.2691 1933.42 -131.888 1933.42 -188.427Z" fill="#EDE9F6"/>
<path d="M1080.18 -101.099C1080.18 -190.477 1103.14 -263.922 1146.58 -313.487C1172.23 -351.259 1204.37 -382.803 1238.41 -416.196C1284.23 -469.648 1354.84 -523.466 1432.17 -563.882C1483.44 -600.341 1543.34 -638.101 1599.17 -641.972C1648.15 -646.274 1698.48 -624.901 1748.78 -578.442C1825.41 -511.542 1887.81 -399.528 1915.72 -278.795C1922.84 -247.629 1926.31 -218.498 1926.31 -189.732C1926.31 -130.545 1911.71 -75.4219 1878.97 -11.0088C1855.48 65.4249 1802.01 186.694 1753.09 257.512C1697.32 355.423 1642.98 376.994 1552.95 412.735L1549.68 414.034L1547 414.895C1442.79 448.408 1379.89 468.641 1314.02 428.115C1256.9 401.509 1218.54 337.416 1196.4 288.331C1130.88 181.674 1090.23 58.5705 1081.88 -58.3815C1080.75 -72.8673 1080.18 -87.2365 1080.18 -101.099ZM1927.35 -189.732C1927.35 -218.625 1923.87 -247.877 1916.71 -279.167C1888.74 -400.183 1826.18 -512.465 1749.37 -579.522C1698.88 -626.153 1648.33 -647.61 1599.11 -643.29C1543.07 -639.405 1483.04 -601.565 1431.72 -565.069C1354.34 -524.63 1283.62 -470.721 1237.75 -417.204C1203.7 -383.806 1171.51 -352.225 1145.85 -314.413C1102.22 -264.647 1079.15 -190.864 1079.15 -101.099C1079.15 -87.1943 1079.72 -72.7804 1080.85 -58.2548C1089.21 58.9428 1129.95 182.292 1195.55 289.066C1217.72 338.26 1256.25 402.609 1313.61 429.331C1379.77 470.036 1442.82 449.761 1547.25 416.171L1549.96 415.3L1553.26 413.992C1643.49 378.17 1697.95 356.55 1753.9 258.339C1802.86 187.449 1856.41 66.0132 1879.88 -10.413C1912.69 -74.9279 1927.35 -130.272 1927.35 -189.732Z" fill="#EDE9F6"/>
<path d="M1082.78 -108.338C1082.78 -195.152 1106.8 -265.688 1152.25 -312.329C1175.05 -341.332 1202.89 -366.319 1232.36 -392.774C1237.99 -397.825 1243.72 -402.969 1249.53 -408.246C1297.06 -458.581 1363.65 -510.787 1432.24 -551.496C1482.3 -590.317 1540.59 -630.845 1593.8 -637.357C1641.92 -644.031 1691.4 -624.788 1740.88 -580.152C1819.93 -512.177 1883.4 -397.682 1910.68 -273.878C1917.11 -244.398 1920.23 -216.816 1920.23 -189.562C1920.23 -127.576 1903.94 -69.8942 1867.4 -2.54398C1842.08 68.1755 1792.29 175.279 1746.01 243.339C1692.09 336.701 1638.93 366.95 1557.79 405.686C1463.75 443.038 1402.86 464.122 1339.17 428.306C1281.8 403.657 1239.72 340.983 1214.52 292.744C1142.23 183.7 1096.36 58.9882 1085.32 -58.4963C1083.63 -75.4815 1082.78 -92.2508 1082.78 -108.338ZM1921.27 -189.562C1921.27 -216.938 1918.13 -244.631 1911.68 -274.233C1884.33 -398.334 1820.71 -513.097 1741.47 -581.234C1691.78 -626.054 1642.06 -645.381 1593.7 -638.67C1540.28 -632.132 1481.86 -591.52 1431.75 -552.66C1363.13 -511.936 1296.47 -459.668 1248.9 -409.288C1243.12 -404.043 1237.39 -398.902 1231.76 -393.853C1202.25 -367.363 1174.39 -342.344 1151.56 -313.311C1129.63 -290.808 1112.47 -262.291 1100.59 -228.594C1088.09 -193.122 1081.75 -152.662 1081.75 -108.338C1081.75 -92.1963 1082.61 -75.3748 1084.29 -58.3351C1095.36 59.3976 1141.31 184.358 1213.69 293.536C1238.95 341.881 1281.2 404.783 1338.79 429.534C1402.78 465.521 1463.83 444.388 1558.13 406.932C1639.47 368.106 1692.75 337.778 1746.82 244.158C1793.14 176.049 1843 68.8082 1868.3 -1.89644C1904.92 -69.3807 1921.27 -127.291 1921.27 -189.562Z" fill="#EDE9F6"/>
<path d="M1086.26 -115.271C1086.26 -200.131 1111.36 -268.27 1158.85 -312.31C1179.68 -335.192 1204.23 -354.987 1230.22 -375.947C1240.38 -384.139 1250.89 -392.611 1261.57 -401.575C1298.48 -436.865 1358.2 -489.608 1433.18 -540.601C1484.45 -583.976 1538.81 -625.33 1589.27 -634.353C1636.5 -643.434 1685.12 -626.286 1733.78 -583.388C1815.24 -514.243 1879.77 -397.11 1906.39 -270.04C1912.12 -242.468 1915.02 -215.531 1915.02 -189.987C1915.02 -125.186 1897.01 -64.978 1856.6 5.23673C1831.81 64.7418 1786.36 158.933 1739.73 228.83C1688.71 315.913 1639.58 355.2 1566.74 397.247C1478.6 440.922 1423.22 457.737 1365.21 428.427C1307.68 405.699 1261.86 344.364 1233.55 296.904C1154.51 185.423 1103.44 58.914 1089.71 -59.3711C1087.42 -78.5208 1086.26 -97.3278 1086.26 -115.271ZM1916.06 -189.987C1916.06 -215.645 1913.14 -242.694 1907.39 -270.378C1895.04 -329.324 1873.56 -388.603 1845.28 -441.811C1814.54 -499.645 1776.18 -548.979 1734.36 -584.478C1685.48 -627.57 1636.61 -644.792 1589.12 -635.66C1538.47 -626.599 1483.98 -585.163 1432.66 -541.734C1357.65 -490.733 1297.89 -437.947 1260.97 -402.653C1250.33 -393.718 1239.83 -385.251 1229.67 -377.059C1203.65 -356.077 1179.06 -336.257 1158.21 -313.345C1135.29 -292.095 1117.36 -264.803 1104.94 -232.255C1091.86 -197.973 1085.22 -158.616 1085.22 -115.271C1085.22 -97.2608 1086.39 -78.3892 1088.69 -59.1775C1102.45 59.3634 1153.61 186.116 1232.75 297.746C1261.13 345.313 1307.12 406.856 1364.87 429.664C1393.65 444.215 1423.27 447.75 1458.06 440.78C1493.01 433.773 1531.14 416.302 1567.14 398.463C1640.16 356.31 1689.4 316.928 1740.53 229.647C1787.2 159.711 1832.7 65.4197 1857.47 5.93451C1897.98 -64.4366 1916.06 -124.888 1916.06 -189.987Z" fill="#EDE9F6"/>
<path d="M1088.86 -120.856C1088.86 -204.006 1115.06 -269.933 1164.63 -311.512C1184 -329.812 1206.28 -345.693 1229.87 -362.507C1243.78 -372.421 1258.17 -382.671 1272.75 -393.984C1282.43 -402.245 1292.5 -410.925 1302.96 -419.935C1341.88 -453.459 1385.98 -491.452 1433.26 -528.579C1490.96 -581.714 1538.64 -619.295 1583.83 -630.082C1630.15 -641.563 1677.9 -626.543 1725.74 -585.431C1808.35 -516.276 1875.56 -393.679 1901.15 -265.481C1906.32 -239.339 1908.95 -213.776 1908.95 -189.505C1908.95 -121.127 1889.78 -60.4683 1844.85 13.3242C1831.77 40.1857 1785.11 133.882 1732.51 214.287C1686.27 291.807 1640.58 342.279 1574.78 388.53C1515.89 425.409 1452.78 455.752 1390.38 428.216C1344.77 411.774 1296.84 367.766 1251.73 300.934C1165.97 187.267 1109.71 59.1412 1093.29 -59.8505C1090.35 -80.8508 1088.86 -101.375 1088.86 -120.856ZM1909.98 -189.505C1909.98 -213.882 1907.35 -239.555 1902.15 -265.804C1890.14 -325.978 1868.55 -386.614 1839.71 -441.166C1808.41 -500.368 1769.2 -550.632 1726.32 -586.528C1678.24 -627.839 1630.24 -642.928 1583.64 -631.375C1538.26 -620.548 1490.48 -582.888 1432.68 -529.676C1385.42 -492.561 1341.3 -454.558 1302.38 -421.027C1291.93 -412.019 1281.85 -403.342 1272.2 -395.096C1257.64 -383.813 1243.27 -373.567 1229.37 -363.659C1205.75 -346.82 1183.44 -330.919 1164.04 -312.591C1140.12 -292.529 1121.4 -266.377 1108.43 -234.875C1094.76 -201.689 1087.83 -163.328 1087.83 -120.856C1087.83 -101.298 1089.32 -80.6944 1092.27 -59.6197C1108.72 59.6251 1165.08 187.992 1250.97 301.817C1296.19 368.818 1344.3 412.977 1390.07 429.474C1417.47 441.568 1446.25 443.573 1478.01 435.571C1505.4 428.677 1536.3 414.104 1575.25 389.699C1641.22 343.336 1687 292.762 1733.32 215.106C1785.95 134.663 1832.64 40.8978 1845.7 14.0761C1890.75 -59.9076 1909.98 -120.812 1909.98 -189.505Z" fill="#EDE9F6"/>
<path d="M1091.47 -125.893C1091.47 -206.527 1119.55 -272.277 1170.53 -311.032C1188.77 -325.782 1209.38 -338.608 1231.21 -352.189C1248.43 -362.903 1266.23 -373.982 1284.16 -386.798C1327.23 -419.317 1373.78 -462.083 1423.07 -507.354L1433.69 -517.107C1481.08 -564.559 1531.32 -612.077 1578.89 -626.462C1624.33 -640.375 1671.25 -627.462 1718.33 -588.077C1803.39 -517.809 1871.73 -392.555 1896.68 -261.191C1901.37 -236.353 1903.74 -212.043 1903.74 -188.935C1903.74 -99.5404 1868.4 -32.4226 1833.83 21.437C1814 56.1303 1773.64 125.418 1725.92 199.985C1687.95 262.314 1644.4 327.28 1583.3 380.241C1519.62 431.864 1466.41 447.19 1415.87 428.461C1369.56 413.333 1320.53 371.893 1270.12 305.286C1177.56 189.393 1116.05 59.5312 1096.93 -60.3788C1093.3 -83.0352 1091.47 -105.076 1091.47 -125.893ZM1904.77 -188.935C1904.77 -212.145 1902.39 -236.561 1897.69 -261.501C1872.67 -393.18 1804.17 -518.74 1718.9 -589.182C1671.57 -628.773 1624.38 -641.748 1578.65 -627.748C1530.87 -613.298 1480.53 -565.689 1433.07 -518.164L1422.46 -508.426C1373.2 -463.168 1326.66 -420.424 1283.64 -387.942C1265.75 -375.148 1247.96 -364.08 1230.76 -353.376C1208.9 -339.775 1188.26 -326.934 1169.99 -312.154C1145.03 -293.181 1125.5 -268.045 1111.95 -237.447C1097.67 -205.204 1090.43 -167.673 1090.43 -125.893C1090.43 -104.992 1092.28 -82.8589 1095.91 -60.1181C1115.08 60.0451 1176.69 190.15 1269.39 306.217C1319.92 372.988 1369.12 414.552 1415.59 429.739C1466.43 448.568 1519.9 433.195 1583.87 381.341C1645.1 328.268 1688.72 263.213 1726.73 200.807C1774.46 126.225 1814.83 56.9173 1834.65 22.2462C1869.32 -31.7672 1904.77 -99.1209 1904.77 -188.935Z" fill="#EDE9F6"/>
<path d="M1094.07 -130.299C1094.07 -209.793 1123.33 -273.745 1176.46 -310.375C1193.76 -322.258 1213.04 -332.6 1233.46 -343.55C1253.73 -354.418 1274.69 -365.658 1295.59 -379.408C1336.12 -406.089 1377.55 -443.767 1434.11 -505.392C1482.13 -557.637 1528.95 -605.907 1573.91 -622.556C1618.46 -638.906 1664.54 -628.105 1710.87 -590.449C1798.37 -519.095 1867.82 -391.224 1892.13 -256.738C1896.38 -233.133 1898.53 -210.004 1898.53 -187.99C1898.53 -95.2353 1860.21 -25.9367 1822.73 29.6145C1816.62 38.6504 1810.34 47.8849 1803.9 57.3478C1778.24 95.0728 1749.15 137.827 1719.27 185.67C1712.19 197.003 1704.97 208.789 1697.99 220.191C1665.36 273.438 1631.63 328.495 1591.8 371.895C1544.82 423.04 1491.39 443.19 1441.37 428.63C1395.08 415.037 1343.66 374.996 1288.54 309.614C1189.19 191.576 1122.44 60.0238 1100.59 -60.8218C1096.27 -84.9557 1094.07 -108.333 1094.07 -130.299ZM1899.56 -187.99C1899.56 -210.101 1897.4 -233.331 1893.15 -257.033C1868.77 -391.845 1799.14 -520.028 1711.43 -591.561C1664.83 -629.43 1618.47 -640.283 1573.62 -623.822C1528.46 -607.099 1481.54 -558.734 1433.44 -506.395C1376.94 -444.839 1335.57 -407.211 1295.11 -380.582C1274.25 -366.854 1253.31 -355.624 1233.06 -344.764C1212.62 -333.804 1193.31 -323.45 1175.97 -311.532C1149.95 -293.596 1129.6 -269.413 1115.47 -239.641C1100.59 -208.269 1093.04 -171.482 1093.04 -130.299C1093.04 -108.233 1095.24 -84.7571 1099.58 -60.5265C1110.46 -0.353105 1132.54 62.7024 1165.19 126.897C1197.58 190.576 1238.84 252.37 1287.83 310.58C1343.09 376.118 1394.67 416.268 1441.14 429.919C1491.49 444.572 1545.23 424.323 1592.47 372.896C1632.38 329.414 1666.15 274.3 1698.81 221.002C1705.79 209.603 1713 197.822 1720.08 186.5C1749.94 138.666 1779.02 95.9268 1804.68 58.2092C1811.12 48.7537 1817.41 39.5093 1823.52 30.4758C1861.13 -25.264 1899.56 -94.8034 1899.56 -187.99Z" fill="#EDE9F6"/>
<path d="M1107.09 -132.024C1107.09 -211.169 1135.01 -274.126 1185.71 -309.299C1203.67 -321.768 1223.47 -332.309 1244.44 -343.465C1263.11 -353.397 1282.41 -363.667 1301.85 -376.075C1310.94 -381.928 1320.39 -388.567 1329.94 -395.808C1361.58 -419.819 1394.78 -450.705 1437.6 -495.951C1484.61 -545.478 1530.44 -591.221 1574.47 -606.78C1618.01 -622.053 1662.9 -611.351 1707.9 -574.974C1759.8 -533.08 1803.86 -471.955 1835.33 -398.211C1855.86 -351.13 1871.19 -299.158 1879.68 -247.9C1883.55 -225.337 1885.51 -203.161 1885.51 -181.995C1885.51 -125.124 1871.89 -72.4461 1842.64 -16.2251C1834.58 -0.835197 1825.22 15.0638 1814.02 32.3706C1805.3 46.0398 1796.27 59.9771 1786.72 74.7363C1765.3 107.823 1741.03 145.312 1716.17 185.996C1712.13 192.663 1708.07 199.388 1703.99 206.151C1676.24 252.145 1647.54 299.71 1614.81 340.193C1607.04 349.813 1599.22 358.809 1591.57 366.923C1545.66 415.842 1493.42 435.063 1444.48 421.054C1398.82 407.914 1348.46 369.374 1294.8 306.523C1258.52 264.679 1225.72 217.174 1197.29 165.328C1177.32 129.328 1159.88 91.683 1145.46 53.4417C1131.01 15.034 1120.88 -21.8541 1113.56 -62.6579C1109.27 -86.659 1107.09 -110 1107.09 -132.024ZM1886.54 -181.995C1886.54 -203.255 1884.58 -225.526 1880.7 -248.179C1872.19 -299.558 1856.81 -351.659 1836.23 -398.845C1804.68 -472.782 1760.5 -534.076 1708.46 -576.089C1663.2 -612.674 1618.03 -623.426 1574.19 -608.051C1529.97 -592.423 1484.03 -546.591 1436.93 -496.967C1394.16 -451.766 1361 -420.916 1329.41 -396.94C1319.88 -389.717 1310.46 -383.092 1301.39 -377.252C1281.98 -364.867 1262.7 -354.607 1244.05 -344.684C1223.05 -333.513 1203.22 -322.96 1185.22 -310.456C1134.17 -275.043 1106.06 -211.673 1106.06 -132.024C1106.06 -109.9 1108.25 -86.4654 1112.55 -62.3699C1119.89 -21.4667 1130.05 15.5182 1144.53 54.0128C1158.97 92.3212 1176.44 130.026 1196.45 166.087C1224.91 218.008 1257.77 265.59 1294.11 307.502C1347.9 370.506 1398.42 409.145 1444.26 422.342C1493.52 436.439 1546.07 417.123 1592.24 367.939C1599.9 359.8 1607.74 350.784 1615.52 341.142C1648.31 300.594 1677.03 252.994 1704.81 206.956C1708.89 200.192 1712.94 193.466 1716.99 186.806C1741.84 146.136 1765.06 110.266 1787.51 75.573C1797.07 60.8163 1806.1 46.879 1814.82 33.2074C1826.04 15.8634 1835.42 -0.0654211 1843.49 -15.4925C1872.87 -71.9421 1886.54 -124.848 1886.54 -181.995Z" fill="#EDE9F6"/>
<path d="M1120.12 -134.292C1120.12 -212.945 1146.67 -274.812 1194.89 -308.494C1213.52 -321.585 1233.85 -332.297 1255.37 -343.64C1272.39 -352.612 1290 -361.887 1307.9 -372.952C1316.73 -378.497 1325.96 -384.802 1335.32 -391.696C1366.38 -414.554 1398.88 -443.826 1440.71 -486.609C1486.65 -533.375 1531.46 -576.548 1574.5 -591.002C1616.99 -605.177 1660.65 -594.59 1704.27 -559.521C1755.72 -518.403 1797.95 -458.424 1826.39 -386.073C1845.16 -340.481 1858.61 -291.137 1866.36 -239.399C1869.85 -217.918 1871.61 -196.749 1871.61 -176.482C1871.61 -120.868 1858.81 -68.9803 1831.32 -13.1801C1823.76 1.9784 1814.99 17.5836 1804.52 34.5336C1792.52 54.5009 1779.75 75.2399 1766.23 97.1899C1749.03 125.115 1731.25 153.985 1712.39 185.583L1710.39 188.96C1680.6 239.539 1649.8 291.833 1613.63 335.448C1606.03 344.634 1598.35 353.251 1590.81 361.04C1546.01 407.68 1495.02 425.962 1447.23 412.511C1402.25 399.834 1353 362.847 1300.87 302.587C1265.24 262.692 1234.13 216.701 1205.73 161.985C1187.04 126.79 1170.93 90.2569 1156.47 50.3049C1143.41 14.0477 1134.45 -20.4404 1126.53 -65.0052C1122.27 -88.8757 1120.12 -112.185 1120.12 -134.292ZM1872.65 -176.482C1872.65 -196.839 1870.88 -218.094 1867.38 -239.657C1859.6 -291.512 1846.12 -340.98 1827.31 -386.673C1798.79 -459.23 1756.43 -519.393 1704.82 -560.64C1660.95 -595.905 1617.02 -606.552 1574.23 -592.277C1531 -577.759 1486.1 -534.494 1440.06 -487.636C1398.28 -444.898 1365.81 -415.66 1334.8 -392.837C1325.46 -385.959 1316.25 -379.669 1307.44 -374.135C1289.57 -363.091 1271.98 -353.82 1254.97 -344.858C1233.43 -333.506 1213.07 -322.776 1194.39 -309.65C1170.68 -293.087 1152.07 -269.606 1139.09 -239.855C1125.81 -209.436 1119.08 -173.919 1119.08 -134.292C1119.08 -112.089 1121.25 -88.6797 1125.52 -64.7125C1133.46 -20.0509 1142.44 14.5142 1155.53 50.8558C1170.01 90.8748 1186.15 127.467 1204.87 162.719C1233.31 217.53 1264.49 263.606 1300.18 303.57C1352.44 363.983 1401.84 401.074 1447 413.798C1495.11 427.339 1546.42 408.967 1591.47 362.063C1599.02 354.251 1606.71 345.616 1614.34 336.403C1650.57 292.717 1681.4 240.373 1711.22 189.746L1713.21 186.381C1732.06 154.799 1749.85 125.926 1767.04 98.0037C1780.57 76.0489 1793.34 55.3123 1805.34 35.34C1815.82 18.3676 1824.61 2.72781 1832.19 -12.4729C1859.79 -68.494 1872.65 -120.61 1872.65 -176.482Z" fill="#EDE9F6"/>
<path d="M1133.14 -136.76C1133.14 -213.872 1159.02 -276.324 1204.15 -308.106C1223.55 -321.902 1244.43 -332.781 1266.55 -344.301C1281.94 -352.318 1297.84 -360.604 1314.17 -370.362C1322.76 -375.624 1331.78 -381.609 1340.96 -388.153C1371.47 -409.896 1403.3 -437.609 1444.19 -478.012C1489.12 -522.105 1532.94 -562.791 1575.05 -576.172C1616.55 -589.279 1659.03 -578.775 1701.3 -544.961C1752.37 -504.54 1792.81 -445.596 1818.27 -374.494C1835.02 -331.045 1847 -282.831 1853.91 -231.176C1857.02 -210.767 1858.59 -190.599 1858.59 -171.22C1858.59 -116.743 1846.59 -65.5108 1820.82 -9.98025C1813.74 4.98303 1805.56 20.3315 1795.81 36.937C1779.33 66.2599 1760.98 97.4958 1741.56 130.565C1731.17 148.256 1720.42 166.549 1709.28 185.696C1680.72 235.815 1649.76 288.355 1613.03 331.506C1605.56 340.31 1598.01 348.556 1590.59 356.024C1546.86 400.474 1497.05 417.845 1450.35 404.928C1405.99 392.69 1357.81 357.181 1307.14 299.395C1271.84 260.989 1242.34 216.425 1214.29 159.128C1197.15 125.311 1181.86 88.7831 1167.53 47.4309C1154.17 8.64253 1147.14 -24.007 1139.52 -67.2995C1135.29 -91.1196 1133.14 -114.488 1133.14 -136.76ZM1859.63 -171.22C1859.63 -190.681 1858.05 -210.933 1854.92 -231.417C1848 -283.176 1835.99 -331.512 1819.2 -375.06C1793.67 -446.384 1753.09 -505.526 1701.84 -546.081C1659.33 -580.092 1616.59 -590.648 1574.8 -577.449C1532.49 -564.013 1488.58 -523.242 1443.56 -479.061C1402.71 -438.695 1370.91 -411.014 1340.46 -389.305C1331.29 -382.774 1322.3 -376.804 1313.73 -371.552C1297.43 -361.816 1281.53 -353.531 1266.16 -345.523C1244.01 -333.989 1223.1 -323.092 1203.65 -309.262C1158.18 -277.241 1132.1 -214.366 1132.1 -136.76C1132.1 -114.391 1134.26 -90.9233 1138.51 -67.0088C1146.15 -23.6418 1153.19 9.07729 1166.58 47.965C1180.94 89.3794 1196.25 125.972 1213.41 159.831C1241.52 217.24 1271.09 261.901 1306.46 300.386C1357.25 358.324 1405.59 393.93 1450.13 406.218C1497.15 419.214 1547.26 401.761 1591.24 357.057C1598.67 349.574 1606.24 341.301 1613.73 332.477C1650.53 289.242 1681.52 236.645 1710.12 186.476C1721.25 167.339 1731.99 149.044 1742.39 131.353C1761.82 98.2809 1780.16 67.04 1796.64 37.7171C1806.41 21.0817 1814.61 5.69607 1821.7 -9.30202C1847.58 -65.0487 1859.63 -116.497 1859.63 -171.22Z" fill="#EDE9F6"/>
<path d="M1145.29 -139.265C1145.29 -215.742 1169.84 -276.982 1212.64 -307.283C1232.87 -321.806 1254.36 -332.804 1277.11 -344.45C1290.86 -351.488 1305.08 -358.766 1319.8 -367.214C1328.15 -372.172 1336.95 -377.822 1345.98 -384.019C1375.97 -404.597 1407.18 -430.695 1447.19 -468.648C1489.4 -508.334 1534.05 -548.11 1575.27 -560.368C1615.83 -572.381 1657.17 -561.992 1698.15 -529.491C1748.89 -489.852 1787.6 -432.053 1810.1 -362.346C1824.85 -321.233 1835.4 -274.246 1841.44 -222.666C1844.18 -203.404 1845.57 -184.313 1845.57 -165.913C1845.57 -112.65 1834.35 -62.1278 1810.27 -6.92118C1803.68 7.80771 1796.07 22.8619 1787.03 39.1125C1763.41 84.1085 1735.53 133.25 1706.01 185.279C1680.62 231.278 1649.61 284.052 1612.14 326.747C1604.8 335.143 1597.38 343.008 1590.06 350.135C1547.35 392.316 1498.66 408.743 1452.98 396.382C1409.2 384.615 1362.02 350.654 1312.76 295.447C1277.55 258.358 1249.58 215.286 1222.07 155.782C1206.28 123.156 1192.2 87.7306 1177.76 44.3036C1164.61 4.42654 1159.09 -27.1216 1152.1 -67.0706L1151.65 -69.6351C1147.43 -93.393 1145.29 -116.818 1145.29 -139.265ZM1846.61 -165.913C1846.61 -184.393 1845.22 -203.561 1842.46 -222.882C1836.4 -274.564 1825.83 -321.67 1811.05 -362.87C1788.48 -432.818 1749.62 -490.827 1698.69 -530.613C1657.47 -563.305 1615.87 -573.752 1575.04 -561.654C1533.62 -549.336 1488.86 -509.476 1446.57 -469.709C1406.6 -431.793 1375.43 -405.726 1345.49 -385.178C1336.48 -378.997 1327.69 -373.354 1319.37 -368.414C1304.68 -359.978 1290.47 -352.707 1276.72 -345.673C1253.94 -334.013 1232.42 -322.998 1212.14 -308.435C1169 -277.895 1144.26 -216.234 1144.26 -139.265C1144.26 -116.721 1146.4 -93.1969 1150.64 -69.3446L1151.09 -66.7826C1158.09 -26.7741 1163.63 4.82365 1176.81 44.8173C1191.27 88.3114 1205.37 123.784 1221.18 156.46C1248.75 216.098 1276.79 259.269 1312.09 296.45C1361.47 351.796 1408.8 385.851 1452.77 397.673C1498.75 410.113 1547.74 393.599 1590.69 351.182C1598.03 344.035 1605.48 336.138 1612.83 327.727C1650.38 284.948 1681.43 232.103 1706.85 186.044C1736.37 134.015 1764.26 84.8582 1787.88 39.8474C1796.93 23.5892 1804.56 8.50033 1811.17 -6.27327C1835.35 -61.6934 1846.61 -112.419 1846.61 -165.913Z" fill="#EDE9F6"/>
<path d="M1158.32 -141.493C1158.32 -217.314 1181.47 -277.341 1221.84 -306.19C1242.91 -321.511 1264.96 -332.596 1288.3 -344.331C1300.37 -350.4 1312.85 -356.672 1325.87 -363.858C1334.08 -368.589 1342.42 -373.768 1351.38 -379.688C1380.76 -399.111 1411.27 -423.627 1450.3 -459.173C1491.47 -496.252 1535.03 -533.387 1575.3 -544.556C1614.81 -555.482 1654.91 -545.194 1694.49 -513.974C1744.78 -475.078 1781.66 -418.376 1801.14 -349.99C1814.07 -310.749 1822.89 -266.211 1828.11 -213.805C1830.48 -195.723 1831.68 -177.747 1831.68 -160.355C1831.68 -108.222 1821.28 -58.3159 1798.94 -3.30698C1792.85 11.2119 1785.83 25.989 1777.51 41.8761C1758.09 81.934 1734.87 126.26 1702.21 185.612C1670.27 245.709 1641.28 289.328 1610.96 322.88C1603.78 330.878 1596.49 338.37 1589.29 345.161C1547.71 385.107 1500.28 400.605 1455.72 388.807C1413.23 377.646 1365.89 344.297 1318.85 292.367C1274.37 246.869 1248.29 194.077 1230.54 153.173C1212.18 113.174 1198.59 72.6347 1188.8 41.7867C1177.94 7.22645 1173.28 -20.4133 1167.89 -52.4135C1166.86 -58.5394 1165.79 -64.8614 1164.64 -71.4641C1160.44 -95.2352 1158.32 -118.795 1158.32 -141.493ZM1832.72 -160.355C1832.72 -177.819 1831.51 -195.867 1829.14 -213.996C1823.9 -266.5 1815.06 -311.146 1802.11 -350.469C1782.55 -419.11 1745.52 -476.049 1695.03 -515.099C1655.22 -546.5 1614.85 -556.848 1575.08 -545.842C1534.62 -534.621 1490.96 -497.404 1449.71 -460.251C1410.71 -424.74 1380.24 -400.254 1350.91 -380.86C1341.97 -374.95 1333.64 -369.781 1325.45 -365.065C1312.46 -357.894 1299.98 -351.621 1287.92 -345.558C1264.54 -333.805 1242.46 -322.708 1221.33 -307.337C1180.63 -278.255 1157.28 -217.805 1157.28 -141.493C1157.28 -118.698 1159.42 -95.039 1163.64 -71.1786C1164.78 -64.5784 1165.84 -58.2588 1166.88 -52.1404C1172.28 -20.0781 1176.95 7.61134 1187.84 42.2759C1197.65 73.1711 1211.26 113.768 1229.64 153.826C1247.43 194.822 1273.58 247.745 1318.18 293.38C1365.35 345.447 1412.84 378.892 1455.51 390.096C1500.36 401.98 1548.09 386.396 1589.91 346.219C1597.12 339.408 1604.43 331.896 1611.64 323.878C1642.02 290.242 1671.08 246.553 1703.06 186.357C1735.73 126.993 1758.96 82.6567 1778.38 42.5888C1786.71 26.6892 1793.74 11.8724 1799.86 -2.6862C1822.27 -57.9062 1832.72 -108.003 1832.72 -160.355Z" fill="#EDE9F6"/>
<path d="M1171.34 -144.317C1171.34 -218.18 1193.7 -278.367 1231.14 -305.327C1253.12 -321.489 1275.75 -332.587 1299.72 -344.338C1310.12 -349.442 1320.89 -354.721 1332.16 -360.669C1340.11 -365.092 1348.25 -369.948 1357.04 -375.513C1385.45 -393.514 1416.2 -417.109 1453.8 -449.773C1493.96 -484.206 1536.48 -518.664 1575.87 -528.727C1614.37 -538.557 1653.29 -528.38 1691.52 -498.477C1741.41 -460.367 1776.51 -404.815 1793.01 -337.825C1804.09 -300.74 1811.28 -258.635 1815.64 -205.281C1817.64 -188.459 1818.66 -171.684 1818.66 -155.396C1818.66 -104.399 1809.05 -55.0988 1788.43 -0.236294C1782.83 14.0525 1776.41 28.5447 1768.78 44.0567C1749.63 87.0495 1726.84 133.211 1699.1 185.2C1670.67 240.802 1640.82 285.522 1610.36 318.124C1603.33 325.708 1596.17 332.827 1589.08 339.28C1548.58 376.954 1502.34 391.508 1458.86 380.263C1416.97 369.57 1370.73 337.814 1325.15 288.427C1281.39 245.055 1257.11 194.03 1239.12 149.842C1223.08 112.952 1210.78 74.6092 1199.89 38.6751C1190.62 7.73062 1186.86 -16.2271 1182.51 -43.9636C1181.04 -53.3744 1179.51 -63.1029 1177.67 -73.7668C1173.47 -97.583 1171.34 -121.317 1171.34 -144.317ZM1819.69 -155.396C1819.69 -171.754 1818.68 -188.593 1816.67 -205.447C1812.3 -258.888 1805.09 -301.099 1793.99 -338.254C1777.42 -405.525 1742.17 -461.33 1692.06 -499.606C1653.6 -529.685 1614.44 -539.917 1575.66 -530.02C1536.09 -519.907 1493.48 -485.372 1453.22 -450.865C1415.66 -418.236 1384.95 -394.667 1356.58 -376.694C1347.8 -371.136 1339.68 -366.291 1331.76 -361.882C1320.5 -355.945 1309.75 -350.67 1299.35 -345.569C1275.34 -333.801 1252.67 -322.683 1230.63 -306.471C1211.3 -292.557 1196.16 -270.74 1185.62 -241.637C1175.6 -213.95 1170.3 -180.296 1170.3 -144.317C1170.3 -121.221 1172.44 -97.387 1176.66 -73.4839C1178.5 -62.825 1180.02 -53.104 1181.5 -43.703C1185.86 -15.907 1189.62 8.10029 1198.92 39.1465C1209.83 75.1327 1222.14 113.518 1238.21 150.464C1256.24 194.765 1280.6 245.936 1324.5 289.444C1370.2 338.96 1416.59 370.815 1458.65 381.553C1502.42 392.875 1548.96 378.241 1589.68 340.347C1596.79 333.876 1603.98 326.733 1611.02 319.131C1641.56 286.45 1671.48 241.628 1699.96 185.937C1727.72 133.918 1750.52 87.7293 1769.67 44.734C1777.3 29.2096 1783.74 14.6753 1789.36 0.344313C1810.05 -54.7167 1819.69 -104.195 1819.69 -155.396Z" fill="#EDE9F6"/>
<path d="M1184.36 -146.947C1184.36 -219.901 1205.33 -278.688 1240.45 -304.207C1263.37 -321.268 1285.51 -331.81 1311.14 -344.019C1319.9 -348.188 1328.96 -352.499 1338.46 -357.283C1346.18 -361.415 1354.11 -365.954 1362.71 -371.156C1390.54 -388.003 1420.6 -409.965 1457.3 -440.266C1496.46 -472.09 1537.91 -503.912 1576.43 -512.878C1613.95 -521.618 1651.67 -511.545 1688.55 -482.93C1738.04 -445.569 1771.35 -391.11 1784.87 -325.444C1796.66 -281.068 1800.84 -233.173 1803.17 -196.401C1804.81 -180.908 1805.64 -165.415 1805.64 -150.31C1805.64 -100.335 1796.83 -51.4946 1777.91 3.40108C1772.81 17.4768 1766.97 31.6964 1760.06 46.8491C1741.71 92.1211 1720.76 137.48 1695.99 185.546C1670.3 237.978 1640.49 282.478 1609.76 314.257C1602.88 321.442 1595.84 328.184 1588.86 334.311C1549.47 369.746 1504.41 383.373 1462 372.674C1409.84 359.74 1362.22 318.037 1331.46 285.344C1288.19 243.752 1265.64 194.383 1247.71 147.233C1233.17 111.785 1222.48 75.9633 1211 36.1732C1202.9 7.74387 1199.87 -13.6253 1196.37 -38.3719C1194.74 -49.9188 1193.05 -61.8627 1190.7 -75.5811C1186.49 -99.5286 1184.36 -123.541 1184.36 -146.947ZM1806.67 -150.31C1806.67 -165.475 1805.84 -181.027 1804.2 -196.54C1801.87 -233.354 1797.68 -281.354 1785.86 -325.829C1772.28 -391.788 1738.81 -446.522 1689.08 -484.061C1651.98 -512.846 1614.02 -522.978 1576.24 -514.173C1537.54 -505.165 1495.99 -473.274 1456.74 -441.378C1420.08 -411.105 1390.05 -389.17 1362.26 -372.347C1353.68 -367.153 1345.77 -362.624 1338.08 -358.504C1328.59 -353.73 1319.53 -349.419 1310.78 -345.253C1285.1 -333.023 1262.92 -322.466 1239.94 -305.346C1204.49 -279.599 1183.33 -220.383 1183.33 -146.947C1183.33 -123.441 1185.47 -99.335 1189.69 -75.2957C1192.04 -61.6022 1193.72 -49.6731 1195.35 -38.1361C1198.86 -13.3275 1201.9 8.09379 1210.02 36.6224C1221.52 76.4671 1232.23 112.326 1246.79 147.826C1264.76 195.108 1287.39 244.633 1330.82 286.376C1361.65 319.156 1409.43 360.976 1461.8 373.975C1504.49 384.74 1549.83 371.039 1589.45 335.396C1596.46 329.251 1603.51 322.479 1610.42 315.28C1641.23 283.413 1671.12 238.797 1696.86 186.253C1721.64 138.167 1742.61 92.7713 1760.96 47.4819C1767.88 32.3218 1773.73 18.0699 1778.86 3.94456C1797.83 -51.1348 1806.67 -100.149 1806.67 -150.31Z" fill="#EDE9F6"/>
<path d="M1196.52 -150.417C1196.52 -222.373 1216.1 -279.721 1248.91 -303.816C1272.77 -321.831 1295.43 -332.247 1321.65 -344.306C1328.79 -347.589 1336.17 -350.983 1343.91 -354.683C1351.38 -358.524 1359.1 -362.749 1367.51 -367.599C1394.75 -383.303 1424.12 -403.649 1459.94 -431.628C1498.07 -460.88 1538.45 -490.094 1576.12 -497.966C1612.64 -505.627 1649.18 -495.64 1684.7 -468.289C1733.79 -431.638 1765.31 -378.222 1775.85 -313.81C1784.51 -276.16 1787.69 -236.34 1789.8 -188.122C1791.09 -174.073 1791.75 -159.969 1791.75 -146.168C1791.75 -97.0878 1783.73 -48.5293 1766.51 6.64641C1761.91 20.5416 1756.65 34.499 1750.44 49.3011C1733.43 96.0433 1714.32 140.646 1692 185.693C1668.46 236.071 1639.52 279.165 1608.29 310.335C1601.55 317.129 1594.65 323.505 1587.78 329.297C1549.48 362.541 1505.62 375.256 1464.27 365.091C1412.88 352.716 1366.65 313.17 1336.91 282.172C1296.33 244.308 1275 199.705 1255.45 144.386C1242.31 110.242 1232.77 75.3869 1222.67 38.4846L1221.25 33.3087C1214.06 6.68622 1211.66 -12.7875 1208.88 -35.3398C1207.28 -48.3255 1205.63 -61.751 1202.89 -77.8776C1198.66 -102.067 1196.52 -126.471 1196.52 -150.417ZM1792.78 -146.168C1792.78 -160.019 1792.13 -174.172 1790.84 -188.236C1788.72 -236.507 1785.53 -276.411 1776.85 -314.128C1766.26 -378.865 1734.57 -432.582 1685.23 -469.423C1649.49 -496.937 1612.72 -506.983 1575.95 -499.27C1538.1 -491.359 1497.62 -462.075 1459.41 -432.756C1423.62 -404.804 1394.28 -384.484 1367.09 -368.802C1358.68 -363.956 1350.98 -359.745 1343.54 -355.915C1335.81 -352.223 1328.44 -348.826 1321.3 -345.549C1295.03 -333.465 1272.33 -323.031 1248.39 -304.956C1215.26 -280.627 1195.48 -222.853 1195.48 -150.417C1195.48 -126.377 1197.63 -101.876 1201.87 -77.5943C1204.61 -61.5125 1206.26 -48.1068 1207.86 -35.1384C1210.64 -12.524 1213.05 7.01175 1220.27 33.7386L1221.69 38.922C1231.8 75.864 1241.36 110.756 1254.52 144.942C1274.12 200.443 1295.53 245.208 1336.28 283.216C1366.08 314.289 1412.47 353.959 1464.08 366.39C1505.7 376.616 1549.84 363.834 1588.36 330.393C1595.25 324.586 1602.17 318.187 1608.93 311.371C1640.26 280.11 1669.29 236.889 1692.89 186.384C1715.22 141.304 1734.35 96.6521 1751.37 49.89C1757.58 35.0829 1762.85 21.0908 1767.47 7.15084C1784.74 -48.2062 1792.78 -96.9164 1792.78 -146.168Z" fill="#EDE9F6"/>
<path d="M1209.54 -154.013C1209.54 -224.612 1227.75 -280.266 1258.26 -302.882C1283.04 -321.81 1306.14 -331.964 1332.88 -343.723C1338.45 -346.173 1344.22 -348.711 1350.24 -351.424C1357.47 -354.971 1364.98 -358.869 1373.2 -363.352C1399.82 -377.867 1428.49 -396.55 1463.45 -422.157C1500.54 -448.767 1539.84 -475.317 1576.68 -482.072C1612.21 -488.63 1647.55 -478.757 1681.71 -452.729C1730.39 -416.869 1760.11 -364.613 1767.68 -301.603C1774.78 -264.756 1776.19 -226.173 1777.3 -179.56C1778.25 -167.16 1778.72 -154.678 1778.72 -142.412C1778.72 -94.2222 1771.49 -45.8735 1755.97 9.74387C1751.86 23.4273 1747.19 37.0933 1741.69 51.5015C1726.3 99.1253 1709.03 142.881 1688.88 185.287C1667.64 233.03 1638.81 275.739 1607.68 305.573C1601.09 311.96 1594.32 317.96 1587.56 323.405C1550.38 354.381 1507.71 366.148 1467.42 356.546C1416.78 344.761 1371.94 307.452 1343.24 278.228C1302.9 241.781 1282.42 197.039 1264.08 141.072C1253.1 110.567 1245.1 79.489 1236.62 46.5838C1235.23 41.177 1233.82 35.7304 1232.39 30.2293C1225.93 5.00232 1223.99 -13.852 1221.93 -33.8086C1220.49 -47.718 1219.01 -62.0989 1215.96 -80.1391C1211.7 -104.621 1209.54 -129.473 1209.54 -154.013ZM1779.76 -142.412C1779.76 -154.718 1779.27 -167.244 1778.33 -179.644C1777.22 -226.292 1775.81 -264.944 1768.69 -301.859C1761.09 -365.222 1731.19 -417.805 1682.23 -453.863C1647.87 -480.051 1612.3 -489.981 1576.53 -483.38C1539.52 -476.59 1500.12 -449.981 1462.94 -423.304C1428.02 -397.722 1399.37 -379.056 1372.79 -364.564C1364.58 -360.09 1357.09 -356.195 1349.88 -352.663C1343.88 -349.954 1338.11 -347.422 1332.54 -344.972C1305.74 -333.19 1282.6 -323.012 1257.74 -304.021C1226.91 -281.167 1208.5 -225.088 1208.5 -154.013C1208.5 -129.379 1210.67 -104.428 1214.95 -79.8586C1217.99 -61.8756 1219.47 -47.5194 1220.9 -33.6399C1222.97 -13.6187 1224.92 5.2953 1231.41 30.6388C1232.84 36.145 1234.25 41.5865 1235.64 46.9933C1244.12 79.9358 1252.14 111.056 1263.13 141.6C1281.53 197.762 1302.1 242.677 1342.62 279.276C1371.39 308.574 1416.39 346.007 1467.23 357.844C1507.79 367.508 1550.72 355.674 1588.12 324.517C1594.9 319.06 1601.69 313.035 1608.31 306.62C1639.54 276.687 1668.47 233.837 1689.77 185.95C1709.94 143.502 1727.24 99.6914 1742.63 52.0452C1748.13 37.6344 1752.82 23.9361 1756.94 10.1981C1772.51 -45.5781 1779.76 -94.0683 1779.76 -142.412Z" fill="#EDE9F6"/>
<path d="M1222.56 -157.591C1222.56 -227.701 1238.99 -280.232 1267.64 -301.71C1293.25 -321.536 1315.57 -330.846 1343.83 -342.634C1347.95 -344.347 1352.18 -346.118 1356.58 -347.977C1363.59 -351.24 1370.89 -354.822 1378.9 -358.929C1404.87 -372.259 1432.85 -389.304 1466.97 -412.58C1501.41 -435.533 1541.19 -460.503 1577.22 -466.141C1611.77 -471.604 1645.91 -461.831 1678.7 -437.1C1726.96 -401.998 1754.89 -350.845 1759.48 -289.165C1764.6 -255.518 1764.67 -219.329 1764.74 -181.016L1764.76 -170.628C1765.38 -160.141 1765.7 -149.559 1765.7 -139.129C1765.7 -91.5983 1759.25 -43.1241 1745.39 13.4217C1741.79 26.9133 1737.71 40.3081 1732.91 54.3284C1719.14 103.269 1704.16 144.988 1685.73 185.654C1666.34 231.712 1638.41 272.922 1607.07 301.71C1600.62 307.701 1593.99 313.334 1587.33 318.439C1551.28 347.18 1509.81 358.02 1470.57 348.965C1420.69 337.763 1377.25 302.643 1349.6 275.151C1304.96 236.082 1287.15 186.215 1272.74 138.49C1263.51 110.899 1256.8 82.8384 1249.7 53.1392C1247.7 44.787 1245.68 36.3306 1243.57 27.75C1237.71 3.55765 1236.28 -14.0753 1234.76 -32.7435C1233.59 -47.2604 1232.37 -62.2714 1229.07 -81.9153C1224.81 -106.488 1222.56 -132.656 1222.56 -157.591ZM1766.73 -139.129C1766.73 -149.592 1766.42 -160.208 1765.79 -170.683L1765.77 -181.019C1765.7 -219.398 1765.63 -255.647 1760.51 -289.356C1755.89 -351.416 1727.78 -402.922 1679.22 -438.242C1646.24 -463.12 1611.88 -472.949 1577.1 -467.45C1540.89 -461.784 1501.01 -436.76 1466.48 -413.744C1432.39 -390.49 1404.44 -373.463 1378.51 -360.158C1370.51 -356.049 1363.23 -352.474 1356.24 -349.226C1351.86 -347.369 1347.62 -345.601 1343.51 -343.888C1315.19 -332.073 1292.81 -322.742 1267.11 -302.845C1238.14 -281.123 1221.53 -228.182 1221.53 -157.591C1221.53 -132.562 1223.79 -106.294 1228.06 -81.6348C1231.34 -62.0678 1232.56 -47.0891 1233.74 -32.6019C1235.26 -13.8692 1236.7 3.82325 1242.58 28.1423C1244.69 36.7278 1246.71 45.1768 1248.71 53.5215C1255.82 83.2629 1262.54 111.356 1271.77 138.977C1286.25 186.883 1304.13 236.956 1348.99 276.216C1376.71 303.775 1420.3 339.011 1470.39 350.261C1509.88 359.375 1551.61 348.471 1587.88 319.566C1594.55 314.439 1601.21 308.793 1607.68 302.777C1639.14 273.88 1667.18 232.512 1686.63 186.299C1705.08 145.576 1720.1 103.793 1733.87 54.82C1738.66 40.7971 1742.76 27.3776 1746.37 13.8289C1760.27 -42.8634 1766.73 -91.4568 1766.73 -139.129Z" fill="#EDE9F6"/>
<path d="M1234.72 -161.972C1234.72 -230.147 1249.86 -280.709 1276.25 -300.688C1302.61 -321.312 1324.04 -329.682 1353.71 -341.263C1356.5 -342.354 1359.36 -343.47 1362.31 -344.629C1369.12 -347.605 1376.21 -350.861 1384.02 -354.593C1409.33 -366.7 1436.66 -382.086 1470.04 -403.018C1511.56 -428.385 1545.73 -446.117 1577.51 -450.172C1611.13 -454.522 1644.13 -444.867 1675.59 -421.469C1723.5 -387.168 1749.69 -337.181 1751.32 -276.91C1752.84 -262.905 1753.54 -247.534 1753.54 -228.466C1753.54 -214.655 1753.19 -200.635 1752.81 -185.79C1752.61 -177.985 1752.41 -170.067 1752.25 -162.022C1752.59 -153.922 1752.76 -145.733 1752.76 -137.646C1752.76 -89.9208 1747.23 -42.3718 1734.82 16.5404C1731.77 29.6646 1728.16 43.1309 1724.11 56.5601C1712.29 105.895 1699.07 146.777 1682.49 185.254C1664.82 229.718 1637.75 269.373 1606.24 296.943C1599.91 302.548 1593.39 307.796 1586.86 312.54C1551.89 339.019 1511.56 348.914 1473.28 340.418C1424.07 329.811 1381.97 296.924 1355.32 271.206C1310.76 233.532 1294.57 185.376 1280.63 135.193C1272.85 110.061 1267.24 84.5345 1261.3 57.5025C1258.96 46.8683 1256.54 35.8621 1253.94 24.7121C1248.6 1.3381 1247.63 -15.2804 1246.62 -32.8685C1245.75 -47.7534 1244.87 -63.1368 1241.36 -84.1151C1237.01 -109.255 1234.72 -136.173 1234.72 -161.972ZM1754.58 -228.466C1754.58 -247.596 1753.87 -263.024 1752.35 -277.024C1750.71 -337.709 1724.35 -388.078 1676.1 -422.609C1644.46 -446.147 1611.25 -455.864 1577.41 -451.482C1545.48 -447.404 1511.21 -429.635 1469.58 -404.203C1436.23 -383.287 1408.93 -367.916 1383.65 -355.828C1375.86 -352.101 1368.77 -348.845 1361.99 -345.881C1359.06 -344.733 1356.2 -343.612 1353.41 -342.523C1323.67 -330.912 1302.18 -322.519 1275.72 -301.814C1249 -281.597 1233.68 -230.623 1233.68 -161.972C1233.68 -136.078 1235.99 -109.061 1240.35 -83.8373C1243.84 -62.9508 1244.72 -47.6121 1245.58 -32.7743C1246.61 -15.1118 1247.57 1.57121 1252.95 25.084C1255.54 36.2316 1257.96 47.2279 1260.3 57.8571C1266.25 84.9238 1271.87 110.485 1279.66 135.657C1293.65 186.036 1309.93 234.41 1354.72 272.285C1381.44 298.059 1423.69 331.061 1473.11 341.715C1511.62 350.263 1552.2 340.314 1587.39 313.681C1593.93 308.922 1600.48 303.654 1606.83 298.025C1638.48 270.336 1665.67 230.504 1683.4 185.862C1700.01 147.325 1713.26 106.368 1725.09 56.9891C1729.14 43.5748 1732.75 30.0787 1735.82 16.9025C1748.25 -42.1412 1753.79 -89.7992 1753.79 -137.646C1753.79 -145.758 1753.62 -153.967 1753.29 -162.041C1753.44 -170.03 1753.64 -177.948 1753.84 -185.748C1754.22 -200.603 1754.58 -214.632 1754.58 -228.466Z" fill="#EDE9F6"/>
<path d="M1742.52 -265.173C1742.93 -258.468 1743.13 -251.518 1743.13 -243.867C1743.13 -226.145 1742.05 -207.708 1740.92 -188.189C1740.27 -177.032 1739.6 -165.492 1739.11 -153.679C1739.22 -148.803 1739.27 -143.902 1739.27 -139.051C1739.27 -91.2165 1734.46 -42.22 1723.67 19.8034C1721.12 32.7905 1718.12 45.9861 1714.76 59.0155C1704.88 109.427 1693.8 148.383 1678.82 185.369C1662.85 228.456 1636.71 266.648 1605.21 292.935C1599.04 298.159 1592.66 303.037 1586.25 307.447C1551.99 332.063 1513.94 340.807 1476.2 332.723C1427.78 322.695 1387.15 291.972 1361.59 267.966C1317.21 231.542 1302.6 184.981 1289.31 132.31C1282.76 109.184 1278.11 85.7196 1273.19 60.8874C1270.68 48.2529 1268.09 35.1938 1265.17 21.8293C1260.28 -0.967071 1259.77 -16.7746 1259.22 -33.5032C1258.73 -48.6081 1258.22 -64.2269 1254.54 -86.41C1250.09 -112.357 1247.74 -140.283 1247.74 -167.166C1247.74 -233.211 1261.56 -281.711 1285.66 -300.237C1312.5 -321.583 1332.81 -328.96 1363.55 -340.124L1368.57 -341.947C1375.17 -344.65 1382.05 -347.592 1389.6 -350.949C1414.46 -361.987 1440.27 -375.344 1473.31 -394.258C1513.47 -416.58 1546.59 -432.069 1577.68 -435.103C1610.28 -438.358 1642.04 -428.792 1672.07 -406.676C1718.2 -374.018 1742.57 -326.675 1742.57 -269.749C1742.57 -268.23 1742.56 -266.7 1742.52 -265.173ZM1744.16 -243.867C1744.16 -251.553 1743.96 -258.535 1743.55 -265.206C1743.59 -266.678 1743.61 -268.217 1743.61 -269.749C1743.61 -327.182 1719.05 -374.927 1672.58 -407.823C1642.37 -430.068 1610.42 -439.694 1577.6 -436.419C1546.37 -433.37 1513.16 -417.843 1472.89 -395.464C1439.88 -376.563 1414.09 -363.221 1389.26 -352.193C1381.71 -348.841 1374.85 -345.902 1368.26 -343.208L1363.26 -341.393C1332.44 -330.198 1312.08 -322.802 1285.12 -301.362C1260.71 -282.597 1246.7 -233.683 1246.7 -167.166C1246.7 -140.188 1249.06 -112.168 1253.53 -86.1294C1257.19 -64.0605 1257.69 -48.4988 1258.19 -33.451C1258.74 -16.6381 1259.26 -0.763513 1264.18 22.1793C1267.09 35.5289 1269.68 48.5806 1272.19 61.2126C1277.12 86.0796 1281.78 109.574 1288.33 132.735C1301.19 183.678 1316.42 232.458 1361.01 269.051C1386.63 293.114 1427.41 323.952 1476.03 334.029C1514 342.157 1552.29 333.359 1586.75 308.603C1593.17 304.182 1599.58 299.281 1605.78 294.042C1637.43 267.621 1663.7 229.236 1679.75 185.952C1694.76 148.897 1705.87 109.847 1715.75 59.3879C1719.12 46.3685 1722.12 33.1405 1724.68 20.1112C1735.48 -42.0338 1740.3 -91.1148 1740.3 -139.051C1740.3 -143.912 1740.25 -148.828 1740.15 -153.662C1740.63 -165.41 1741.3 -176.94 1741.95 -188.09C1743.09 -207.636 1744.16 -226.095 1744.16 -243.867Z" fill="#EDE9F6"/>
<path d="M1259.89 -172.304C1259.89 -235.715 1272.45 -281.867 1294.33 -298.924C1321.5 -320.818 1340.55 -327.148 1372.1 -337.632L1374.26 -338.349C1380.7 -340.785 1387.37 -343.409 1394.67 -346.375C1418.66 -356.137 1443.82 -367.901 1476.24 -384.514C1509.85 -401.182 1545.4 -416.896 1577.72 -418.999C1609.38 -421.139 1639.96 -411.678 1668.62 -390.88C1711.68 -360.831 1734.45 -317.754 1734.45 -266.294C1734.45 -261.808 1734.27 -257.203 1733.93 -252.606C1733.94 -251.598 1733.94 -250.664 1733.94 -249.718C1733.94 -230.223 1731.96 -209.559 1729.85 -187.685C1728.52 -173.858 1727.14 -159.563 1726.18 -144.638C1726.11 -82.8112 1719.32 -24.9213 1712.69 23.5574C1710.64 36.4119 1708.25 49.3259 1705.56 61.9197C1700.36 96.032 1692.21 140.904 1675.23 185.778C1661.06 226.928 1635.14 264.575 1604.1 289.095C1598.07 293.924 1591.82 298.429 1585.52 302.483C1552.43 324.841 1515.52 332.671 1478.78 325.149C1431.03 315.705 1391.8 287.176 1367.29 264.905C1323.03 229.778 1309.39 182.925 1297.27 129.77C1291.77 108.397 1287.95 86.7351 1283.9 63.8015C1281.37 49.4923 1278.76 34.6989 1275.63 19.424C1271.14 -2.90133 1271.05 -18 1270.95 -33.985C1270.85 -49.1631 1270.75 -64.8676 1266.93 -88.0915C1262.39 -114.692 1259.89 -144.596 1259.89 -172.304ZM1735.48 -266.294C1735.48 -318.266 1712.53 -361.745 1669.12 -392.029C1640.3 -412.952 1609.52 -422.472 1577.66 -420.317C1545.21 -418.2 1509.56 -402.451 1475.86 -385.743C1443.46 -369.135 1418.32 -357.383 1394.35 -347.632C1387.07 -344.667 1380.4 -342.046 1373.99 -339.623L1371.84 -338.91C1340.19 -328.392 1321.09 -322.044 1293.79 -300.042C1271.59 -282.746 1258.86 -236.184 1258.86 -172.304C1258.86 -144.504 1261.36 -114.501 1265.92 -87.8159C1269.72 -64.7285 1269.82 -49.0936 1269.91 -33.9751C1270.01 -17.9057 1270.11 -2.73258 1274.63 19.7591C1277.76 35.0117 1280.37 49.7902 1282.89 64.0895C1286.95 87.0528 1290.77 108.743 1296.28 130.159C1308.46 183.556 1322.17 230.649 1366.72 266.008C1391.29 288.338 1430.67 316.969 1478.62 326.445C1515.58 334.016 1552.71 326.134 1586 303.66C1592.31 299.586 1598.59 295.063 1604.65 290.207C1635.86 265.563 1661.92 227.697 1676.16 186.329C1693.2 141.343 1701.36 96.3647 1706.57 62.2152C1709.25 49.6462 1711.66 36.7073 1713.71 23.8031C1720.35 -24.7475 1727.14 -82.7094 1727.21 -144.581C1728.18 -159.429 1729.55 -173.711 1730.88 -187.524C1733.09 -210.5 1735.17 -232.14 1734.96 -252.553C1735.3 -257.119 1735.48 -261.766 1735.48 -266.294Z" fill="#EDE9F6"/>
<path d="M1272.91 -179.065C1272.91 -214.502 1276.95 -277.135 1303.94 -298.487C1331.19 -320.753 1348.8 -326.027 1380.76 -335.602C1387.19 -337.811 1393.65 -340.114 1400.62 -342.675C1429.93 -353.457 1458.45 -365.961 1480.03 -375.643C1512.43 -389.668 1546.8 -402.785 1578.56 -403.763C1609.28 -404.783 1638.68 -395.429 1665.93 -375.953C1706.21 -348.267 1727.5 -309.013 1727.5 -262.43C1727.5 -255.448 1727.03 -248.216 1726.09 -240.932C1725.3 -223.717 1722.76 -205.569 1720.08 -186.354C1717.85 -170.465 1715.56 -154.035 1713.99 -136.505C1712.65 -84.8385 1708.41 -34.0287 1702.47 26.3813C1700.93 39.1434 1699.13 51.7688 1697.12 63.8831C1693.18 100.258 1687.16 143.074 1672.4 185.229C1659.76 225.153 1634.76 261.246 1603.8 284.273C1597.91 288.71 1591.79 292.845 1585.6 296.556C1553.72 316.632 1517.97 323.559 1482.2 316.587C1435.14 307.747 1397.33 281.416 1373.89 260.881C1329.67 226.943 1317.49 181.789 1306.15 126.289C1301.57 106.426 1298.48 86.3296 1295.2 65.0472C1292.78 49.3093 1290.27 33.0379 1287.03 16.0938C1283.8 -1.07367 1283.37 -13.4907 1283.37 -23.3713C1283.37 -27.531 1283.46 -31.4872 1283.54 -35.6841C1283.63 -39.8313 1283.73 -44.135 1283.73 -48.5975C1283.73 -58.3217 1283.33 -71.8953 1280.26 -90.6884C1275.52 -118.618 1272.91 -150.004 1272.91 -179.065ZM1728.54 -262.43C1728.54 -309.529 1707.06 -349.18 1666.43 -377.107C1639.4 -396.419 1609.01 -406.093 1578.54 -405.083C1546.64 -404.1 1512.18 -390.951 1479.69 -376.889C1458.12 -367.207 1429.62 -354.715 1400.33 -343.944C1393.37 -341.382 1386.92 -339.079 1380.6 -336.91C1348.45 -327.28 1330.78 -321.986 1303.39 -299.604C1275.97 -277.92 1271.88 -214.775 1271.88 -179.065C1271.88 -149.912 1274.49 -118.429 1279.24 -90.413C1282.3 -71.7415 1282.69 -58.2621 1282.69 -48.5975C1282.69 -44.1499 1282.6 -39.8661 1282.51 -35.7163C1282.42 -31.7031 1282.34 -27.5483 1282.34 -23.3713C1282.34 -13.4113 1282.77 -0.904923 1286.03 16.404C1289.26 33.3183 1291.77 49.5798 1294.19 65.3077C1297.46 86.61 1300.56 106.741 1305.15 126.638C1316.54 182.417 1328.81 227.814 1373.33 261.995C1396.83 282.585 1434.79 309.013 1482.05 317.893C1518.02 324.904 1553.99 317.94 1586.06 297.742C1592.26 294.024 1598.41 289.87 1604.33 285.409C1635.48 262.238 1660.64 225.913 1673.35 185.743C1688.16 143.456 1694.19 100.526 1698.14 64.1139C1700.16 52.0121 1701.95 39.3667 1703.49 26.565C1709.44 -33.9021 1713.68 -84.7467 1715.02 -136.408C1716.58 -153.843 1718.88 -170.251 1721.1 -186.123C1723.79 -205.378 1726.33 -223.566 1727.12 -240.788C1728.05 -248.072 1728.54 -255.376 1728.54 -262.43Z" fill="#EDE9F6"/>
<path d="M1285.07 -186.208C1285.07 -243.781 1294.92 -283.408 1312.8 -297.792C1339.9 -320.266 1356.55 -324.678 1386.76 -332.687C1393.09 -334.63 1399.34 -336.617 1405.9 -338.763C1432.79 -347.552 1458.95 -357.33 1483.21 -366.589C1512.89 -377.469 1547.49 -388.564 1578.89 -388.372C1608.3 -388.268 1637.31 -378.749 1662.81 -360.843C1701.13 -334.9 1720.55 -300.005 1720.55 -257.121C1720.55 -248.044 1719.65 -238.557 1717.86 -228.921C1716.32 -214.443 1713.44 -199.267 1710.4 -183.199C1707.09 -165.726 1703.67 -147.656 1701.4 -127.916C1699.75 -97.3808 1697.85 -67.203 1695.84 -35.2515C1694.5 -14.0814 1693.12 7.80671 1691.82 29.8463C1690.82 42.6001 1689.62 54.9464 1688.27 66.5401C1685.82 104.888 1681.82 145.803 1669.14 185.5C1657.98 224.313 1633.87 258.89 1603.01 280.381C1597.25 284.445 1591.25 288.208 1585.18 291.567C1554.51 309.396 1519.88 315.425 1485.03 308.998C1438.58 300.736 1402.16 276.58 1379.8 257.762C1335.57 224.941 1324.75 181.431 1314.28 123.552C1310.5 105.015 1308.05 86.262 1305.46 66.4134C1303.24 49.4167 1300.95 31.8386 1297.67 13.3762C1295.67 1.95397 1294.74 -8.39759 1294.74 -19.1839C1294.74 -25.3993 1295.02 -31.0607 1295.33 -37.05C1295.63 -43.0394 1295.95 -49.2424 1295.95 -56.0516C1295.95 -67.9855 1294.95 -79.6587 1292.82 -92.7801C1287.89 -122.044 1285.07 -156.094 1285.07 -186.208ZM1721.59 -257.121C1721.59 -300.534 1701.98 -335.82 1663.3 -362C1637.66 -380.011 1608.47 -389.585 1578.9 -389.692C1547.36 -389.888 1512.68 -378.764 1482.91 -367.856C1458.66 -358.6 1432.52 -348.824 1405.65 -340.04C1399.09 -337.896 1392.84 -335.912 1386.53 -333.974C1356.21 -325.938 1339.5 -321.508 1312.24 -298.902C1294.05 -284.278 1284.03 -244.25 1284.03 -186.208C1284.03 -156.007 1286.87 -121.855 1291.8 -92.5069C1293.92 -79.4798 1294.91 -67.8961 1294.91 -56.0516C1294.91 -49.2896 1294.6 -43.1089 1294.3 -37.1345C1293.99 -31.1253 1293.7 -25.4415 1293.7 -19.1839C1293.7 -8.29574 1294.64 2.14028 1296.66 13.6644C1299.93 32.092 1302.22 49.6502 1304.44 66.6246C1307.04 86.5104 1309.49 105.288 1313.27 123.867C1323.8 182.052 1334.69 225.811 1379.25 258.885C1401.68 277.752 1438.24 302.008 1484.89 310.298C1519.93 316.764 1554.76 310.702 1585.6 292.772C1591.69 289.401 1597.72 285.62 1603.51 281.546C1634.58 259.894 1658.86 225.065 1670.11 185.979C1682.83 146.136 1686.85 105.1 1689.3 66.6917C1690.65 55.1229 1691.85 42.7541 1692.86 29.9631C1694.16 7.90606 1695.54 -13.987 1696.87 -35.1423C1698.88 -67.1012 1700.79 -97.2814 1702.43 -127.777C1704.69 -147.405 1708.1 -165.442 1711.4 -182.889C1714.46 -198.991 1717.34 -214.199 1718.88 -228.68C1720.67 -238.35 1721.59 -247.939 1721.59 -257.121Z" fill="#EDE9F6"/>
</svg>
