<svg width="1587" height="691" viewBox="0 0 1587 691" fill="none" xmlns="http://www.w3.org/2000/svg">
<path d="M-276.217 -303.944C-292.694 -345.256 -300.715 -377.093 -302.222 -407.174C-306.015 -522.894 -196.297 -672.807 -22.693 -789.089C64.4183 -846.585 153.232 -882.649 234.138 -893.377C304.842 -902.236 380.331 -892.354 471.705 -862.275C534.327 -841.184 594.402 -809.395 660.763 -762.233C727.709 -714.188 768.471 -668.619 792.925 -614.48C794.011 -612.005 795.058 -609.508 796.121 -606.843C821.298 -543.717 838.388 -430.553 841.832 -304.13C845.334 -175.638 833.638 -57.734 810.544 11.2628C786.46 176.301 708.405 201.161 590.258 238.8C537.849 255.492 478.45 274.419 411.196 308.624C362.667 333.319 319.588 356.011 281.577 376.034C99.0485 472.192 15.7433 516.085 -108.68 483.316C-137.937 474.759 -159.592 453.325 -173.034 419.623C-183.63 393.056 -189.225 358.644 -189.664 317.335C-189.933 279.788 -187.617 239.558 -185.163 196.964C-181.936 140.943 -178.596 83.0172 -180.54 22.9681C-183.143 -48.3357 -198.798 -119.074 -228.4 -193.294C-232.794 -204.31 -237.628 -215.734 -242.766 -227.247C-245.077 -232.419 -247.381 -237.544 -249.66 -242.622C-259.24 -263.933 -268.288 -284.063 -276.217 -303.944ZM797.129 -607.414C796.061 -610.092 795.01 -612.605 793.919 -615.1C769.373 -669.442 728.497 -715.15 661.382 -763.316C594.938 -810.538 534.78 -842.368 472.066 -863.495C380.549 -893.619 304.927 -903.514 234.072 -894.637C153 -883.885 64.0346 -847.761 -23.2134 -790.173C-197.189 -673.643 -307.14 -523.26 -303.327 -407.05C-301.814 -376.798 -293.763 -344.825 -277.229 -303.37C-269.29 -283.464 -260.238 -263.323 -250.652 -241.998C-248.368 -236.922 -246.066 -231.801 -243.757 -226.627C-238.628 -215.129 -233.8 -203.722 -229.412 -192.72C-199.868 -118.645 -184.243 -48.0562 -181.642 23.0873C-179.706 83.0628 -183.042 140.953 -186.267 196.946C-188.725 239.563 -191.043 279.813 -190.77 317.409C-190.33 358.897 -184.703 393.477 -174.046 420.196C-160.468 454.241 -138.583 475.889 -108.992 484.545C-48.4905 500.48 3.25997 499.028 64.0593 479.677C123.093 460.894 189.746 425.78 281.997 377.182C320.004 357.161 363.081 334.465 411.607 309.78C478.774 275.612 538.137 256.703 590.506 240.019C651.486 220.592 699.657 205.251 736.919 173.625C777.21 139.439 800.242 89.4479 811.605 11.5292C834.723 -57.4867 846.446 -175.58 842.943 -304.236C839.488 -430.812 822.361 -544.15 797.129 -607.414Z" fill="#EDE9F6"/>
<path d="M784.329 -601.267C784.954 -599.786 785.558 -598.307 786.168 -596.778C810.243 -536.44 826.435 -427.235 829.464 -304.663C832.557 -179.924 820.974 -65.0999 798.481 2.49711C774.77 163.017 699.133 188.716 584.639 227.612C535.131 244.434 479.016 263.501 415.689 296.554C369.476 320.521 328.343 342.603 292.052 362.083C116.006 456.584 35.6568 499.714 -84.9937 469.285C-116.349 461.025 -139.597 438.421 -154.095 402.085C-163.818 377.718 -169.651 347.019 -171.43 310.845C-175.23 267.141 -175.203 219.21 -175.172 168.467C-175.142 120.787 -175.113 71.4774 -178.19 20.6535C-185.2 -84.4795 -215.567 -172.588 -237.799 -229.715L-241.923 -239.675C-246.927 -251.766 -251.656 -263.188 -256.222 -274.632C-275.645 -323.31 -288.759 -364.414 -289.623 -406.804C-291.43 -519.101 -185.261 -665.129 -19.1469 -778.82C65.6434 -837.52 151.762 -874.88 229.893 -886.863C299.286 -897.184 373.354 -888.606 462.984 -859.861C528.51 -839.036 590.242 -805.937 657.25 -755.691C722.143 -706.523 761.26 -659.09 784.079 -601.893L784.329 -601.267ZM787.183 -597.353C786.57 -598.889 785.964 -600.376 785.333 -601.849L785.092 -602.467C762.186 -659.875 722.955 -707.461 657.889 -756.759C590.789 -807.073 528.967 -840.225 463.337 -861.084C373.561 -889.872 299.353 -898.465 229.803 -888.119C151.516 -876.113 65.2459 -838.691 -19.6812 -779.898C-186.153 -665.963 -292.547 -519.478 -290.734 -406.709C-289.861 -364.11 -276.714 -322.871 -257.237 -274.057C-252.668 -262.605 -247.936 -251.182 -242.929 -239.084L-238.814 -229.138C-216.619 -172.104 -186.294 -84.1281 -179.293 20.807C-176.224 71.5856 -176.251 120.871 -176.278 168.534C-176.311 219.306 -176.339 267.267 -172.535 310.999C-170.749 347.305 -164.885 378.15 -155.106 402.658C-140.471 439.338 -116.982 462.176 -85.2906 470.513C35.7331 501.046 116.193 457.856 292.481 363.225C328.77 343.747 369.896 321.668 416.108 297.699C479.359 264.684 535.435 245.633 584.904 228.826C644 208.75 690.676 192.892 726.839 161.468C765.932 127.498 788.355 78.5485 799.545 2.76925C822.057 -64.8541 833.667 -179.873 830.573 -304.76C827.539 -427.493 811.314 -536.874 787.183 -597.353Z" fill="#EDE9F6"/>
<path d="M-135.396 384.202C-144.164 362.24 -150.046 335.39 -152.884 304.409C-161.604 253.507 -164.707 196.091 -167.991 135.302C-170.042 97.3636 -172.161 58.1338 -175.756 18.0298C-185.38 -80.42 -210.062 -164.045 -232.936 -232.866L-234.424 -236.81C-257.676 -298.338 -277.755 -351.479 -277.244 -407.396C-277.145 -516.426 -174.642 -658.638 -16.0974 -769.707C67.4964 -830.472 148.626 -868.044 225.052 -881.382C292.166 -892.964 366.946 -885.378 453.673 -858.205C521.195 -837.855 586.467 -802.322 653.219 -749.565C716.165 -699.292 754.588 -648.473 775.329 -588.141L775.857 -586.826C798.868 -529.184 814.221 -423.79 816.927 -304.91C819.684 -183.764 808.289 -71.8693 786.451 -5.5834C763.223 150.63 690.008 177.151 579.183 217.296C532.607 234.17 479.819 253.296 420.456 285.127C376.641 308.324 337.526 329.746 303.014 348.643C133.448 441.491 56.0588 483.869 -60.8804 455.594C-94.5779 447.662 -119.651 423.642 -135.396 384.202ZM771.245 -602.434C749.473 -656.972 712.179 -704.059 653.884 -750.617C587.027 -803.455 521.649 -839.046 454.017 -859.429C367.142 -886.652 292.211 -894.241 224.94 -882.635C148.356 -869.27 67.0711 -831.631 -16.647 -770.775C-94.851 -715.988 -160.754 -652.913 -207.231 -588.377C-253.711 -523.832 -278.305 -461.229 -278.351 -407.34C-278.866 -351.163 -258.744 -297.916 -235.446 -236.257L-233.966 -232.341C-211.125 -163.617 -186.468 -80.0803 -176.858 18.2286C-173.269 58.2949 -171.148 97.5179 -169.1 135.448C-165.811 196.276 -162.707 253.735 -153.979 304.656C-151.137 335.724 -145.226 362.692 -136.409 384.776C-120.517 424.584 -95.1998 448.827 -61.1585 456.836C56.1445 485.197 133.644 442.759 303.447 349.776C337.958 330.882 377.071 309.462 420.884 286.272C480.177 254.475 532.927 235.36 579.469 218.508C636.669 197.783 681.844 181.419 716.883 150.17C754.77 116.39 776.55 68.4378 787.515 -5.31252C809.373 -71.6227 820.794 -183.704 818.032 -305.012C815.328 -424.049 799.938 -529.618 776.87 -587.4L776.353 -588.689C774.769 -593.285 773.047 -597.92 771.245 -602.434Z" fill="#EDE9F6"/>
<path d="M-117.253 364.84C-124.913 345.66 -130.579 322.938 -134.088 297.315C-149.463 238.124 -156.597 169.064 -164.151 95.9464C-166.857 69.7312 -169.657 42.6236 -172.912 15.2269C-185.682 -84.1391 -209.84 -171.756 -227.475 -235.734C-247.51 -294.505 -266.425 -349.978 -264.131 -407.376C-263.119 -459.388 -239.029 -519.846 -194.466 -582.236C-149.81 -644.749 -86.8138 -706.077 -12.2855 -759.595C68.8728 -821.586 147.321 -860.387 220.881 -874.914C286.608 -887.95 359.88 -881.693 444.883 -855.792C515.254 -835.736 582.192 -798.85 649.526 -743.024C702.148 -698.931 736.292 -654.262 756.986 -602.451C760.533 -593.568 763.733 -584.323 766.49 -574.967C788.095 -519.343 802.263 -418.012 804.408 -303.831C806.631 -185.467 795.635 -80.0458 774.233 -14.5947C751.398 137.12 680.628 164.526 573.505 206.009C529.899 222.894 480.473 242.034 425.109 272.607C383.783 294.978 346.75 315.702 314.075 333.983C150.963 425.249 76.5183 466.905 -36.652 440.921C-72.9675 433.431 -100.082 407.83 -117.253 364.84ZM758.002 -603.025C737.232 -655.028 702.98 -699.839 650.215 -744.062C582.764 -799.981 515.709 -836.929 445.21 -857.019C360.06 -882.965 286.634 -889.227 220.747 -876.162C147.024 -861.6 68.4281 -822.733 -12.8528 -760.646C-87.4773 -707.061 -150.575 -645.631 -195.311 -583.003C-240.041 -520.381 -264.22 -459.645 -265.239 -407.356C-267.544 -349.71 -248.59 -294.117 -228.524 -235.26C-210.908 -171.36 -186.771 -83.7939 -174.01 15.468C-170.758 42.8432 -167.96 69.9465 -165.252 96.1605C-157.694 169.328 -150.552 238.443 -135.17 297.649C-131.658 323.306 -125.968 346.132 -118.267 365.413C-100.948 408.775 -73.5767 434.602 -36.9144 442.169C76.6145 468.226 151.171 426.514 314.522 335.115C347.194 316.832 384.22 296.113 425.544 273.742C480.85 243.206 530.236 224.081 573.811 207.205C629.095 185.793 672.767 168.886 706.688 137.816C743.363 104.226 764.522 57.3005 775.296 -14.321C796.72 -79.8052 807.742 -185.408 805.518 -303.93C803.368 -418.25 789.162 -519.77 767.526 -575.477C764.771 -584.816 761.564 -594.105 758.002 -603.025Z" fill="#EDE9F6"/>
<path d="M-100.994 345.774C-107.389 329.77 -112.537 311.435 -116.301 291.26C-140.661 222.226 -152.857 138.398 -165.763 49.6625C-167.515 37.6116 -169.281 25.4569 -171.101 13.2023C-182.938 -61.0463 -198.195 -128.12 -211.657 -187.295C-215.709 -205.096 -219.531 -221.912 -223.071 -238.062C-241.91 -300.362 -256.004 -352.325 -252.088 -406.995C-250.097 -457.482 -226.375 -516.159 -183.488 -576.699C-140.496 -637.384 -80.2153 -697.151 -9.15566 -749.541C69.6825 -812.87 145.548 -852.951 216.355 -868.678C280.752 -883.199 352.608 -878.281 436.021 -853.633C508.333 -834.167 578.981 -794.817 646.027 -736.679C693.654 -694.942 724.974 -652.632 744.59 -603.54C749.896 -590.261 754.389 -576.231 757.959 -561.846C777.957 -507.724 790.763 -410.363 792.231 -301.333C793.757 -187.932 782.831 -86.5082 762.246 -23.0729C739.737 124.355 671.299 152.739 567.699 195.695C527.022 212.56 480.922 231.677 429.494 260.98C390.68 282.514 355.741 302.518 324.917 320.177C167.934 410.079 96.2889 451.107 -13.3101 427.43C-52.6355 420.453 -82.1299 392.984 -100.994 345.774ZM745.608 -604.115C725.918 -653.393 694.499 -695.836 646.727 -737.7C579.569 -795.944 508.779 -835.36 436.34 -854.863C352.777 -879.557 280.765 -884.483 216.195 -869.918C145.23 -854.155 69.2127 -814.006 -9.74222 -750.579C-80.8873 -698.128 -141.269 -638.257 -184.335 -577.462C-227.383 -516.696 -251.196 -457.754 -253.194 -407.01C-257.127 -352.12 -243.006 -300.029 -224.136 -237.645C-220.609 -221.542 -216.787 -204.724 -212.735 -186.918C-199.276 -127.764 -184.025 -60.7127 -172.195 13.485C-170.381 25.727 -168.611 37.8825 -166.859 49.9279C-153.942 138.735 -141.738 222.624 -117.359 291.686C-113.612 311.84 -108.435 330.268 -102.009 346.348C-82.9924 393.941 -53.2327 421.637 -13.5546 428.678C96.3965 452.437 168.151 411.339 325.37 321.296C356.194 303.647 391.126 283.637 429.941 262.111C481.317 232.842 527.383 213.734 568.027 196.887C621.496 174.713 663.727 157.199 696.587 126.237C732.114 92.7631 752.697 46.8005 763.312 -22.803C783.916 -86.2756 794.869 -187.861 793.34 -301.416C791.869 -410.597 779.035 -508.128 759.009 -562.32C755.451 -576.696 750.935 -590.784 745.608 -604.115Z" fill="#EDE9F6"/>
<path d="M-105.615 264.701C-134.055 193.566 -150.722 107.543 -168.061 10.6109C-175.601 -28.8222 -183.26 -65.9507 -190.667 -101.855C-201.048 -152.164 -210.848 -199.687 -217.614 -241.143C-232.794 -298.955 -244.877 -351.331 -239.098 -407.477C-236.178 -456.461 -212.911 -513.347 -171.807 -572.011C-130.595 -630.835 -73.16 -688.985 -5.71267 -740.179C70.6287 -804.798 143.784 -846.077 211.739 -862.886C274.693 -878.834 345.043 -875.152 426.804 -851.626C501.976 -832.373 574.383 -791.502 642.038 -730.147C684.537 -691.193 714.074 -650.054 732.331 -604.39C739.361 -586.808 744.955 -567.937 748.96 -548.299C786.237 -441.648 793.697 -166.379 750.281 -30.8992C728.252 112.338 662.23 141.678 562.292 186.094C524.642 202.82 481.972 221.783 434.604 249.698C398.455 270.279 365.749 289.491 336.892 306.433C186.218 394.92 117.449 435.31 11.4839 413.751C-31.2231 407.363 -63.4579 377.624 -84.3484 325.373C-89.2718 313.059 -93.5497 299.42 -97.0697 284.84C-100.006 278.307 -102.869 271.569 -105.615 264.701ZM733.348 -604.965C715.022 -650.802 685.388 -692.077 642.755 -731.152C574.978 -792.623 502.425 -833.571 427.113 -852.859C345.196 -876.432 274.684 -880.119 211.556 -864.123C143.434 -847.274 70.1305 -805.917 -6.32007 -741.202C-73.8441 -689.952 -131.372 -631.705 -172.663 -572.771C-213.915 -513.893 -237.27 -456.751 -240.205 -407.529C-246.005 -351.173 -233.894 -298.669 -218.694 -240.785C-211.937 -199.364 -202.129 -151.829 -191.751 -101.506C-184.343 -65.6017 -176.688 -28.4817 -169.151 10.9319C-151.796 107.929 -135.114 194.024 -106.628 265.274C-103.876 272.156 -101.006 278.912 -98.0999 285.349C-94.6086 299.878 -90.3069 313.576 -85.3614 325.945C-64.311 378.596 -31.8063 408.561 11.2592 415.007C62.5841 425.447 106.628 421.587 158.509 402.088C208.162 383.43 262.355 351.608 337.361 307.558C366.214 290.612 398.919 271.407 435.065 250.819C482.386 222.941 525.026 203.99 562.651 187.268C614.227 164.343 654.968 146.244 686.701 115.39C721.016 82.0237 740.95 36.995 751.348 -30.6261C771.047 -92.0835 781.827 -189.694 780.884 -298.331C779.989 -402.396 768.449 -496.007 750.022 -548.738C746.022 -568.363 740.408 -587.308 733.348 -604.965Z" fill="#EDE9F6"/>
<path d="M-107.859 216.744C-134.562 149.978 -152.217 73.82 -165.966 8.12873C-185.427 -79.3319 -205.082 -170.819 -212.878 -243.761C-226.638 -306.204 -233.741 -355.299 -226.671 -407.28C-218.686 -504.379 -132.745 -628.064 -2.38649 -730.098C71.5549 -796.083 142.071 -838.62 207.232 -856.551C268.774 -874.019 337.644 -871.673 417.802 -849.396C494.765 -830.762 570.993 -787.337 638.26 -723.819C676.746 -687.099 703.782 -648.426 720.911 -605.597C729.698 -583.628 735.959 -560.636 740.052 -535.312C756.822 -484.151 766.955 -394.747 767.181 -296.047C767.419 -192.599 756.743 -99.2203 737.892 -39.8562C716.175 99.1399 652.483 129.572 556.072 175.643C521.442 192.184 482.194 210.936 438.866 237.412C405.443 257.006 375.012 275.375 348.169 291.59C207.898 376.257 137.491 418.758 35.0556 399.501C-10.8874 393.966 -47.2757 360.733 -70.204 303.404C-73.385 295.45 -76.342 286.956 -78.9936 278.138C-89.2627 259.617 -98.9563 239.005 -107.859 216.744ZM721.927 -606.171C704.732 -649.166 677.606 -687.97 638.999 -724.812C571.599 -788.453 495.212 -831.961 418.1 -850.63C337.787 -872.955 268.733 -875.296 207.026 -857.784C141.697 -839.803 71.0327 -797.188 -3.01506 -731.106C-133.626 -628.872 -219.759 -504.814 -227.775 -407.37C-235.636 -349.572 -225.265 -294.709 -213.968 -243.471C-206.174 -170.53 -186.514 -79.0019 -167.047 8.49434C-153.288 74.2318 -135.617 150.455 -108.875 217.318C-99.9554 239.621 -90.2353 260.286 -79.9933 278.726C-77.3849 287.456 -74.4186 295.987 -71.2223 303.979C-48.1307 361.716 -11.4512 395.181 34.852 400.757C137.629 420.075 208.151 377.506 348.646 292.696C375.491 276.491 405.918 258.126 439.345 238.53C482.625 212.079 521.849 193.338 556.453 176.804C606.215 153.027 645.516 134.25 676.191 103.449C709.354 70.1484 728.709 26.0348 738.961 -39.5925C757.831 -98.983 768.533 -192.527 768.294 -296.118C768.065 -394.953 757.912 -484.519 741.121 -535.705C737.038 -561.027 730.75 -584.111 721.927 -606.171Z" fill="#EDE9F6"/>
<path d="M-113.625 167.124C-131.587 122.229 -147.776 69.3779 -163.113 5.55222C-189.614 -98.6797 -204.116 -181.178 -207.451 -246.671C-217.678 -304.653 -222.631 -354.145 -213.582 -407.495C-203.626 -501.262 -121.192 -621.206 1.55966 -720.564C73.0866 -787.967 140.969 -831.765 203.356 -850.773C263.457 -869.747 330.879 -868.72 409.472 -847.64C510.353 -824.511 587.933 -764.274 635.251 -717.813C670.184 -683.164 694.971 -646.818 711.021 -606.7C721.373 -580.826 728.224 -553.277 731.965 -522.478C762.793 -421.308 765.639 -173.428 726.448 -48.6409C705.047 86.306 643.639 117.919 550.688 165.764C519.12 182.014 483.34 200.432 444.09 225.385C413.504 243.895 385.448 261.344 360.696 276.742C226.129 360.453 158.582 402.47 59.5703 385.464C9.17604 380.836 -31.0434 344.401 -56.7748 280.086C-57.8916 277.295 -58.9939 274.412 -60.0547 271.519C-80.0098 241.505 -97.5128 207.397 -113.625 167.124ZM712.038 -607.274C695.924 -647.552 671.053 -684.028 636.002 -718.79C588.587 -765.345 510.848 -825.698 409.761 -848.874C331.002 -870.004 263.406 -871.029 203.118 -851.993C140.571 -832.94 72.5321 -789.05 0.910487 -721.555C-122.07 -622.011 -204.694 -501.707 -214.68 -407.628C-223.757 -354.118 -218.795 -304.489 -208.553 -246.444C-205.222 -180.945 -190.705 -98.3579 -164.186 5.94695C-148.835 69.8295 -132.629 122.742 -114.643 167.698C-98.4968 208.054 -80.9553 242.232 -61.0192 272.191C-60.0213 274.961 -58.9139 277.857 -57.792 280.661C-31.8956 345.388 8.62485 382.065 59.3842 386.718C158.735 403.786 226.394 361.7 361.19 277.85C385.938 262.456 413.986 245.005 444.579 226.486C483.799 201.559 519.554 183.153 551.103 166.914C644.396 118.891 706.03 87.1581 727.515 -48.3728C766.755 -173.279 763.905 -421.594 733.046 -522.838C729.309 -553.629 722.434 -581.292 712.038 -607.274Z" fill="#EDE9F6"/>
<path d="M-120.696 119.198C-134.79 83.9876 -147.353 45.8826 -159.098 2.72413C-187.2 -95.3578 -201.306 -180.386 -201.025 -250.009C-207.279 -297.791 -211.428 -349.957 -199.606 -408.228C-187.768 -498.718 -109.006 -614.897 5.95233 -711.477C75.9056 -781.263 139.245 -825.022 199.639 -845.289C258.218 -865.738 324.12 -865.949 401.121 -845.948C482.636 -828.137 564.671 -780.404 632.13 -711.538C663.922 -678.773 686.69 -644.565 701.74 -606.966C713.567 -577.421 720.796 -545.431 723.845 -509.16C751.399 -410.834 752.895 -178.176 715.328 -56.6986C694.346 74.3595 635.257 107.211 545.808 156.939C517.397 172.734 485.192 190.639 450.126 213.911C422.536 231.213 397.01 247.616 374.488 262.099C245.656 344.941 180.987 386.52 85.372 371.641C18.7482 367.37 -19.4708 311.257 -39.8133 264.94L-39.8901 264.808C-70.9613 225.042 -97.3943 177.411 -120.696 119.198ZM702.755 -607.539C687.645 -645.289 664.796 -679.621 632.902 -712.504C565.296 -781.508 483.085 -829.343 401.403 -847.19C324.224 -867.24 258.139 -867.017 199.372 -846.506C138.819 -826.18 75.3257 -782.329 5.28394 -712.449C-109.88 -615.698 -188.822 -499.182 -200.7 -408.404C-212.553 -349.975 -208.395 -297.667 -202.132 -249.854C-202.419 -180.191 -188.298 -95.033 -160.162 3.1603C-148.405 46.3617 -135.827 84.505 -121.71 119.771C-98.375 178.069 -71.903 225.777 -40.7816 265.622C-20.3121 312.209 18.1589 368.603 85.2096 372.907C181.156 387.834 245.937 346.18 374.998 263.199C397.515 248.722 423.036 232.308 450.634 215.013C485.678 191.747 517.859 173.859 546.258 158.076C636.026 108.159 695.334 75.19 716.401 -56.4352C754.005 -178.028 752.506 -411.096 724.931 -509.473C721.892 -545.749 714.63 -577.872 702.755 -607.539Z" fill="#EDE9F6"/>
<path d="M-129.472 76.7603C-139.103 52.7048 -148.113 26.9213 -156.26 0.121371C-186.241 -93.972 -199.826 -181.45 -195.556 -252.865C-200.58 -313.886 -197.844 -360.358 -186.412 -408.354C-179.605 -451.264 -157.956 -500.953 -123.789 -552.1C-89.4162 -603.555 -43.1296 -655.334 10.0686 -701.839C77.5603 -773.152 138.35 -818.151 195.964 -839.449C253.066 -861.447 317.516 -863.001 392.997 -844.201C477.392 -826.764 561.314 -777.56 629.331 -705.646C658.338 -674.687 679.294 -642.524 693.391 -607.315C706.571 -574.396 713.939 -538.153 715.917 -496.509C740.342 -400.118 739.594 -182.529 703.922 -65.7943C683.161 61.4665 626.233 95.7661 540.06 147.684C514.829 162.888 486.228 180.117 455.349 201.592C430.86 217.559 408.947 232.172 387.763 246.301C264.272 328.646 202.289 369.98 109.871 357.397C43.2221 355.06 1.97819 302.159 -20.8922 258.2L-20.9778 258.073C-63.6865 210.901 -100.189 149.9 -129.472 76.7603ZM694.409 -607.89C680.256 -643.241 659.223 -675.528 630.114 -706.593C561.953 -778.664 477.841 -827.973 393.271 -845.446C317.605 -864.291 252.961 -862.724 195.665 -840.653C137.89 -819.295 76.9526 -774.199 9.37526 -702.791C-43.8625 -656.251 -90.2269 -604.383 -124.66 -552.832C-158.941 -501.518 -180.668 -451.633 -187.496 -408.569C-198.956 -360.469 -201.703 -313.863 -196.667 -252.783C-200.948 -181.297 -187.339 -93.6445 -157.314 0.601041C-149.158 27.4223 -140.133 53.244 -130.488 77.3337C-101.163 150.577 -64.6033 211.682 -21.8245 258.955C1.18579 303.157 42.6781 356.308 109.729 358.656C202.477 371.288 264.576 329.881 388.287 247.388C409.473 233.258 431.378 218.65 455.879 202.673C486.742 181.21 515.325 163.991 540.546 148.798C627.02 96.6969 684.152 62.2744 704.994 -65.5281C721.295 -118.848 731.642 -200.36 733.365 -289.061C734.983 -372.36 728.868 -450.012 717.007 -496.785C715.046 -538.444 707.645 -574.83 694.409 -607.89Z" fill="#EDE9F6"/>
<path d="M-136.196 41.8626C-141.905 27.6074 -147.355 12.7734 -152.405 -2.22706C-184.86 -94.6858 -197.567 -182.272 -189.16 -255.534C-190.963 -312.189 -185.785 -359.274 -172.366 -408.308C-156.367 -493.501 -86.4387 -599.509 14.713 -691.939C79.6253 -764.777 137.789 -810.976 192.576 -833.22C248.125 -856.745 311.063 -859.591 384.992 -841.925C472.21 -824.815 557.981 -774.07 626.531 -699.039C653.074 -669.724 672.404 -639.417 685.631 -606.387C700.077 -570.314 707.399 -529.971 708.015 -483.045C728.774 -390.659 725.811 -183.87 692.775 -74.0242C672.268 49.6567 617.476 85.5616 534.538 139.89C512.61 154.258 487.753 170.537 461.191 189.998C439.992 204.435 420.79 217.775 402.221 230.676C287.744 310.183 224.685 353.982 135.382 343.632C68.7989 343.187 24.5165 293.471 -0.914262 251.838C-56.3162 198.355 -101.802 127.748 -136.196 41.8626ZM686.652 -606.963C673.371 -640.126 653.964 -670.552 627.325 -699.97C558.629 -775.168 472.663 -826.023 385.257 -843.171C311.135 -860.883 247.992 -858.019 192.245 -834.409C137.302 -812.105 78.9913 -765.803 13.9937 -692.861C-87.3164 -600.29 -157.405 -493.996 -173.442 -408.57C-186.89 -359.447 -192.082 -312.228 -190.271 -255.528C-198.699 -182.164 -185.966 -94.359 -153.446 -1.71764C-148.391 13.3053 -142.929 28.167 -137.214 42.4371C-102.756 128.482 -57.1816 199.224 -1.7501 252.714C23.7333 294.458 68.2775 344.452 135.265 344.899C224.895 355.285 288.073 311.407 402.764 231.75C421.334 218.851 440.533 205.516 461.745 191.059C488.293 171.61 513.135 155.34 535.057 140.983C618.279 86.4599 673.259 50.4388 693.849 -73.7611C709.502 -125.798 719.46 -201.287 721.864 -286.234C724.071 -364.299 719.303 -437.962 709.112 -483.278C708.512 -530.23 701.16 -570.734 686.652 -606.963Z" fill="#EDE9F6"/>
<path d="M-141.532 13.0359C-143.976 6.93217 -146.378 0.689027 -148.67 -5.51658C-183.674 -96.764 -195.496 -184.4 -182.849 -258.953C-181.741 -311.059 -173.976 -358.672 -158.406 -408.905C-140.446 -490.771 -74.0679 -593.022 19.1707 -682.48C82.3194 -757.891 136.24 -803.912 188.903 -827.355C242.841 -852.407 304.225 -856.547 376.573 -840.024C465.265 -823.514 555.131 -769.903 623.153 -692.937C647.492 -665.161 665.36 -636.579 677.783 -605.564C693.62 -566.025 700.51 -523.033 699.467 -470.26C716.677 -381.405 712.251 -189.054 680.957 -83.2377C660.638 37.0903 607.886 74.808 528.032 131.905C509.549 145.125 488.602 160.104 466.498 177.249C448.795 189.925 432.513 201.757 416.771 213.206C307.229 292.849 246.893 336.725 160.552 328.65C94.1283 330.099 46.8195 283.6 18.8192 244.34C-48.3936 187.161 -103.814 107.203 -141.532 13.0359ZM678.803 -606.14C666.328 -637.286 648.39 -665.98 623.96 -693.856C555.788 -770.996 465.707 -824.722 376.82 -841.269C304.277 -857.842 242.683 -853.676 188.537 -828.528C135.714 -805.016 81.6553 -758.89 18.431 -683.38C-74.9427 -593.796 -141.468 -491.282 -159.47 -409.21C-175.068 -358.906 -182.851 -311.165 -183.952 -259.027C-196.628 -184.327 -184.788 -96.4358 -149.699 -4.97016C-147.405 1.23972 -144.997 7.49226 -142.547 13.6088C-104.755 107.961 -49.2307 188.066 18.0326 245.263C46.0863 284.637 93.6612 331.377 160.461 329.92C247.124 338.021 307.582 294.066 417.335 214.265C433.075 202.819 449.353 190.982 467.071 178.303C489.177 161.157 510.117 146.181 528.588 132.971C569.866 103.456 602.468 80.1485 628.119 48.5316C655.813 14.3955 672.446 -26.1612 682.034 -82.9737C696.799 -132.899 706.631 -204.4 709.69 -284.228C712.478 -356.993 709.067 -426.604 700.57 -470.441C701.628 -523.262 694.709 -566.428 678.803 -606.14Z" fill="#EDE9F6"/>
<path d="M-148.573 -15.2108C-183.714 -102.936 -193.572 -188.096 -177.073 -261.488C-173.294 -310.167 -163.369 -355.544 -144.874 -408.719C-124.871 -487.407 -61.9097 -586.003 23.569 -672.532C84.1475 -749.631 135.579 -796.849 185.468 -821.19C237.132 -847.452 298.756 -853.086 368.659 -837.946C460.206 -821.843 552.011 -766.73 620.547 -686.731C642.954 -660.373 659.527 -633.365 671.222 -604.17C688.182 -561.833 694.691 -515.16 691.697 -457.289C705.813 -368.944 699.407 -194.047 669.721 -92.0009C649.423 25.4759 601.157 63.2851 521.192 125.928C505.595 138.15 489.473 150.779 471.973 165.239C457.963 175.841 444.844 185.891 432.151 195.599C327.058 276.065 269.169 320.385 185.414 314.681C119.101 318.056 68.6942 274.783 38.0711 237.89C-41.4966 177.884 -104.958 92.9557 -145.545 -7.79201C-146.575 -10.2773 -147.584 -12.7412 -148.573 -15.2108ZM672.246 -604.748C660.501 -634.067 643.857 -661.183 621.368 -687.638C552.676 -767.82 460.654 -823.058 368.902 -839.194C298.795 -854.38 236.939 -848.715 185.067 -822.346C135.02 -797.929 83.4567 -750.602 22.8025 -673.404C-62.7878 -586.77 -125.881 -487.932 -145.926 -409.073C-164.447 -355.834 -174.396 -310.343 -178.17 -261.639C-194.715 -188.067 -184.84 -102.619 -149.595 -14.6348C-148.604 -12.161 -147.593 -9.69282 -146.558 -7.20997C-105.895 93.7347 -42.3051 178.83 37.3334 238.871C68.0176 275.863 118.685 319.342 185.344 315.945C269.427 321.676 327.434 277.261 432.742 196.645C445.431 186.926 458.548 176.885 472.574 166.269C490.084 151.799 506.204 139.178 521.789 126.963C561.744 95.6634 593.299 70.9415 618.163 38.7178C644.98 3.97105 661.212 -36.2614 670.798 -91.7452C684.722 -139.594 694.471 -207.164 698.225 -281.925C701.615 -349.409 699.588 -415.022 692.801 -457.429C695.814 -515.36 689.28 -562.223 672.246 -604.748Z" fill="#EDE9F6"/>
<path d="M-150.193 -29.7519C-183.435 -112.719 -190.605 -193.869 -170.93 -264.428C-164.923 -308.521 -152.635 -353.091 -131.066 -409.037C-109.043 -484.702 -49.5869 -579.672 27.9997 -663.138C86.6997 -743.07 134.144 -790.057 181.9 -815.558C231.978 -843.363 292.073 -850.318 360.533 -836.246C454.93 -820.465 548.681 -763.719 617.763 -680.543C638.451 -655.455 653.876 -629.852 664.922 -602.285C682.973 -557.229 688.989 -506.952 683.858 -444.063C694.263 -359.735 686.471 -197.89 658.657 -100.238C638.316 15.122 591.434 55.5441 513.766 122.523C502.321 132.4 490.47 142.61 477.88 153.783C467.87 161.864 458.258 169.679 449.011 177.195C348.061 259.263 292.454 304.465 210.93 301.116C144.818 306.348 91.2671 266.232 57.9767 231.665C-29.3863 172.808 -98.4663 89.1927 -141.893 -10.2244C-144.805 -16.7002 -147.597 -23.2704 -150.193 -29.7519ZM665.941 -602.86C654.848 -630.547 639.361 -656.249 618.592 -681.439C549.349 -764.802 455.379 -821.684 360.767 -837.497C292.095 -851.621 231.757 -844.622 181.464 -816.699C133.552 -791.112 85.9773 -744.012 27.2047 -663.98C-50.4672 -580.423 -110.042 -485.245 -132.102 -409.437C-153.697 -353.44 -166.009 -308.77 -172.01 -264.657C-191.752 -193.888 -184.566 -112.428 -151.211 -29.1783C-148.607 -22.6797 -145.81 -16.0947 -142.891 -9.6018C-99.3853 90.0057 -30.16 173.795 57.2873 232.688C90.6454 267.35 144.454 307.639 210.893 302.382C292.747 305.754 348.47 260.452 449.628 178.217C458.878 170.7 468.485 162.888 478.516 154.787C491.123 143.599 502.963 133.39 514.414 123.52C553.285 89.993 583.986 63.5247 608.174 30.4003C634.224 -5.28517 650.129 -45.4937 659.733 -99.9807C687.574 -197.719 695.383 -359.837 684.968 -444.159C690.121 -507.128 684.073 -557.604 665.941 -602.86Z" fill="#EDE9F6"/>
<path d="M-150.745 -41.6258C-182.555 -121.008 -187.34 -199.096 -164.576 -267.454C-155.363 -313.925 -138.913 -357.754 -117.037 -409.293C-92.5551 -483.143 -38.021 -572.121 32.5993 -653.469C70.2706 -708.49 120.845 -775.892 178.429 -809.538C226.874 -838.884 285.401 -847.18 352.384 -834.196C448.143 -819.02 546.219 -759.228 614.75 -674.245C633.887 -650.36 648.263 -626.083 658.701 -600.033C678.04 -551.774 683.289 -499.642 675.699 -430.992C682.517 -349.316 672.699 -200.522 647.21 -109.008C626.583 5.18589 580.585 49.0093 504.376 121.62C497.642 128.044 490.677 134.676 483.48 141.593C477.835 146.505 472.309 151.332 466.903 156.039C372.839 238.086 316.059 287.603 236.29 286.756C170.478 293.837 113.804 256.951 77.8373 224.759C-15.854 168.158 -92.5158 83.7316 -138.108 -13.015C-142.683 -22.4885 -146.934 -32.1158 -150.745 -41.6258ZM659.721 -600.608C649.236 -626.773 634.804 -651.151 615.594 -675.128C583.459 -714.971 543.726 -750.463 500.673 -777.771C452.965 -808.034 403.155 -827.443 352.614 -835.451C285.392 -848.48 226.622 -840.138 177.956 -810.66C120.167 -776.893 69.4792 -709.349 31.7773 -654.276C-38.9088 -572.857 -93.5378 -483.706 -118.058 -409.743C-139.949 -358.173 -156.428 -314.264 -165.639 -267.761C-188.487 -199.164 -183.698 -120.74 -151.765 -41.051C-147.944 -31.5154 -143.679 -21.8617 -139.095 -12.3648C-116.364 35.8767 -86.341 80.7937 -49.8609 121.131C-12.901 162.008 29.8484 197.23 77.1968 225.83C113.235 258.099 170.169 295.139 236.28 288.02C316.386 288.877 373.287 239.252 467.556 157.037C472.955 152.318 478.482 147.501 484.149 142.57C491.367 135.626 498.333 128.995 505.064 122.578C581.473 49.7798 627.595 5.83658 648.289 -108.75C673.798 -200.354 683.637 -349.373 676.812 -431.04C684.414 -499.791 679.147 -552.13 659.721 -600.608Z" fill="#EDE9F6"/>
<path d="M-150.779 -52.0465C-181.497 -128.689 -184.114 -204.418 -158.35 -271.04C-146.065 -317.669 -125.23 -362.569 -103.17 -410.104C-76.4003 -481.379 -25.3255 -566.734 36.9788 -644.331C74.9674 -704.066 121.002 -769.702 174.684 -804.022C221.459 -834.905 278.401 -844.528 343.923 -832.616C442.419 -817.798 542.401 -756.394 611.392 -668.361C629.125 -645.592 642.551 -622.536 652.437 -597.87C672.779 -547.116 677.339 -491.74 667.217 -418.326C670.345 -339.742 659.338 -206.062 635.483 -118.175C614.177 -3.24475 568.05 45.4251 491.628 126.065L488.858 128.991L486.515 131.216C395.353 217.818 340.329 270.096 261.5 271.92C196.077 280.821 136.252 247.162 97.5753 217.36C-3.63662 162.281 -86.0029 79.2927 -134.425 -16.3578C-140.513 -28.1543 -146.014 -40.1591 -150.779 -52.0465ZM653.459 -598.445C643.529 -623.221 630.046 -646.372 612.24 -669.23C543.09 -757.471 442.864 -819.019 344.141 -833.874C278.364 -845.823 221.178 -836.151 174.169 -805.118C120.286 -770.668 74.1535 -704.893 36.125 -645.098C-26.22 -567.454 -77.3709 -481.959 -104.174 -410.598C-126.238 -363.055 -147.1 -318.101 -159.393 -271.425C-185.269 -204.53 -182.649 -128.446 -151.798 -51.472C-147.019 -39.5484 -141.501 -27.5066 -135.395 -15.6785C-86.8745 80.1754 -4.34249 163.329 96.9865 218.464C135.743 248.336 195.815 282.125 261.521 273.187C340.699 271.355 395.845 218.964 487.202 132.17L489.567 129.921L492.365 126.97C568.962 46.1482 615.19 -2.63111 636.56 -117.913C660.435 -205.887 671.466 -339.755 668.324 -418.324C678.475 -491.862 673.895 -547.458 653.459 -598.445Z" fill="#EDE9F6"/>
<path d="M-150.624 -59.7437C-180.467 -134.192 -181.041 -208.021 -152.286 -273.254C-139.787 -310.787 -120.94 -347.674 -100.991 -386.725C-97.1807 -394.183 -93.3049 -401.773 -89.3851 -409.529C-59.8482 -479.088 -12.1748 -560.831 41.4289 -633.83C77.4163 -694.918 120.933 -762.043 171.137 -797.176C216.26 -829.618 271.643 -840.594 335.748 -829.79C437.021 -815.392 538.936 -752.453 608.371 -661.426C624.841 -639.716 637.406 -617.8 646.775 -594.428C668.083 -541.271 671.853 -482.756 658.996 -404.709C658.358 -330.005 646.102 -210.506 623.889 -126.442C602.84 -16.4346 560.853 39.0224 494.207 117.296C414.367 201.549 361.606 253.442 286.528 258.093C221.516 268.811 158.503 238.43 117.079 211.059C8.3545 157.687 -79.7217 76.2092 -130.991 -18.4093C-138.49 -32.0403 -145.094 -45.948 -150.624 -59.7437ZM647.794 -595.002C638.384 -618.479 625.772 -640.485 609.236 -662.287C539.626 -753.528 437.469 -816.613 335.957 -831.044C271.586 -841.892 215.942 -830.857 170.582 -798.244C120.187 -762.976 76.5719 -695.707 40.5476 -634.557C-13.0773 -561.53 -60.8086 -479.689 -90.3675 -410.071C-94.2632 -402.363 -98.1398 -394.774 -101.949 -387.32C-121.925 -348.216 -140.79 -311.286 -153.305 -273.713C-167.18 -242.239 -174.291 -208.253 -174.412 -172.76C-174.539 -135.399 -166.878 -97.1809 -151.641 -59.1704C-146.093 -45.3279 -139.466 -31.3779 -131.947 -17.7014C-80.5721 77.1188 7.67505 158.761 116.536 212.197C158.049 239.63 221.306 270.114 286.579 259.355C362.008 254.687 414.906 202.665 494.965 118.179C561.785 39.7129 603.863 -15.8788 624.969 -126.189C647.202 -210.317 659.476 -329.97 660.102 -404.652C672.992 -482.858 669.201 -541.6 647.794 -595.002Z" fill="#EDE9F6"/>
<path d="M-149.722 -67.6525C-178.903 -140.433 -177.587 -212.813 -145.91 -276.959C-133.247 -308.149 -115.848 -338.762 -97.4285 -371.174C-90.23 -383.841 -82.7852 -396.942 -75.3424 -410.559C-51.083 -461.327 -10.3503 -539.724 46.0404 -625.101C81.6698 -690.773 121.043 -756.43 167.683 -792.189C211.122 -826.205 264.955 -838.5 327.677 -828.73C431.767 -814.668 535.664 -750.045 605.609 -655.847C620.735 -635.38 632.863 -613.891 641.646 -591.983C663.93 -536.406 666.87 -474.762 651.185 -392.105C647.205 -327.302 634.785 -221.277 612.846 -135.432C592.497 -32.4147 557.568 28.5663 500.218 105.078C428.341 191.484 379.529 236.659 312.257 243.737C247.726 256.192 181.46 229.035 137.226 204.055C20.9715 152.334 -72.8838 72.1955 -127.096 -21.6268C-135.941 -36.7777 -143.552 -52.2637 -149.722 -67.6525ZM642.666 -592.558C633.843 -614.563 621.667 -636.142 606.477 -656.692C574.031 -700.388 532.472 -739.302 486.294 -769.231C436.099 -801.76 381.314 -822.769 327.879 -829.99C264.872 -839.803 210.772 -827.436 167.084 -793.225C120.266 -757.326 80.8022 -691.533 45.1321 -625.78C-11.2735 -540.387 -52.0378 -461.927 -76.2999 -411.153C-83.72 -397.58 -91.1622 -384.486 -98.3562 -371.821C-116.799 -339.372 -134.22 -308.721 -146.899 -277.49C-162.183 -246.539 -170.481 -213.171 -171.533 -178.359C-172.642 -141.692 -165.647 -104.253 -150.742 -67.0779C-144.549 -51.6316 -136.91 -36.0939 -128.039 -20.8923C-73.7097 73.1332 20.3195 153.429 136.73 205.219C181.067 230.253 247.566 257.499 312.344 244.988C345.719 241.487 376.143 228.066 408.046 202.767C440.093 177.349 471.673 141.191 501.03 105.899C558.524 29.195 593.53 -31.9288 613.923 -135.18C635.879 -221.076 648.315 -327.215 652.282 -391.99C668.017 -474.839 665.053 -536.725 642.666 -592.558Z" fill="#EDE9F6"/>
<path d="M-149.063 -73.9428C-177.665 -145.263 -174.504 -216.362 -139.919 -279.557C-127.117 -306.008 -110.604 -332.006 -93.1231 -359.53C-82.818 -375.756 -72.1564 -392.539 -61.6623 -410.344C-54.9632 -422.802 -48.0128 -435.843 -40.7977 -449.38C-13.954 -499.746 16.4722 -556.829 50.3245 -614.93C88.9584 -692.556 123.05 -751.27 163.903 -785.619C205.636 -821.194 257.892 -834.83 319.215 -826.138C424.47 -812.702 532.919 -744.872 602.249 -649.124C616.342 -629.574 627.724 -609.105 636.073 -588.287C659.593 -529.637 661.553 -466.962 642.634 -378.719C638.975 -348.414 625.187 -242.133 600.966 -143.951C582.034 -51.7811 554.335 16.8868 505.354 93.1023C459.966 157.44 408.163 218.517 337.151 229.556C286.523 240.78 224.116 229.654 156.643 197.382C32.9683 147.518 -66.5905 68.8686 -123.711 -24.0762C-133.832 -40.4571 -142.362 -57.2328 -149.063 -73.9428ZM637.095 -588.863C628.71 -609.772 617.278 -630.328 603.123 -649.955C570.583 -694.9 528.433 -734.918 481.225 -765.69C429.995 -799.086 374.038 -820.423 319.402 -827.397C257.782 -836.13 205.248 -822.41 163.267 -786.62C122.243 -752.133 88.0733 -693.292 49.3801 -615.552C15.5368 -557.468 -14.8949 -500.372 -41.7448 -449.994C-48.9585 -436.461 -55.9098 -423.422 -62.592 -410.989C-73.0634 -393.228 -83.7158 -376.456 -94.0159 -360.237C-111.519 -332.675 -128.052 -306.645 -140.875 -280.153C-157.565 -249.659 -167.027 -216.834 -168.987 -182.607C-171.053 -146.55 -164.693 -109.798 -150.083 -73.3684C-143.356 -56.5924 -134.794 -39.751 -124.636 -23.3125C-67.3934 69.8297 32.3426 148.632 156.193 198.565C223.836 230.918 286.466 242.078 337.278 230.807C368.468 225.959 397.54 211.695 426.108 187.192C450.74 166.071 476.2 136.41 506.226 93.8399C555.328 17.4394 583.084 -51.3678 602.052 -143.701C626.281 -241.927 640.075 -348.285 643.726 -378.543C662.702 -467.02 660.724 -529.943 637.095 -588.863Z" fill="#EDE9F6"/>
<path d="M-148.279 -79.7484C-176.025 -148.918 -170.948 -220.915 -133.985 -282.478C-121.068 -305.261 -105.146 -327.713 -88.2858 -351.487C-74.9876 -370.24 -61.232 -389.634 -47.9554 -410.586C-16.6556 -462.403 14.5552 -524.946 47.6017 -591.156L54.7217 -605.421C85.145 -672.448 118.356 -741.113 160.336 -779.875C200.381 -817.051 251.111 -832.035 311.115 -824.403C419.203 -811.367 529.72 -741.879 599.539 -643.053C612.709 -624.349 623.415 -604.814 631.366 -584.991C662.126 -508.307 650.358 -431.104 634.787 -365.701C627.161 -324.926 611.187 -243.073 589.764 -152.6C573.754 -78.0442 553.148 1.8718 511.092 81.2407C466.028 160.897 418.811 203.596 362.504 215.603C311.617 228.346 248.987 220.031 176.335 190.895C45.139 142.893 -60.2231 65.6574 -120.352 -26.5805C-131.721 -44.0038 -141.116 -61.8912 -148.279 -79.7484ZM632.387 -585.566C624.401 -605.476 613.647 -625.096 600.427 -643.879C530.435 -742.939 419.649 -812.597 311.292 -825.664C250.977 -833.337 199.955 -818.255 159.658 -780.845C117.498 -741.914 84.2173 -673.113 53.7439 -605.982L46.6342 -591.739C13.6054 -525.552 -17.5955 -463.039 -48.8596 -411.28C-62.1087 -390.367 -75.8524 -370.99 -89.1429 -352.252C-106.02 -328.448 -121.964 -305.968 -134.906 -283.14C-153.002 -253.001 -163.619 -220.591 -166.46 -186.817C-169.45 -151.228 -163.678 -115.012 -149.302 -79.1724C-142.11 -61.2428 -132.675 -43.2814 -121.263 -25.7932C-61.0035 66.6371 44.5435 144.024 175.929 192.103C248.763 221.309 311.598 229.638 362.673 216.852C419.301 204.769 466.767 161.879 512.032 81.8682C554.179 2.33024 574.822 -77.7007 590.845 -152.345C612.268 -242.833 628.249 -324.71 635.871 -365.46C651.49 -431.052 663.291 -508.522 632.387 -585.566Z" fill="#EDE9F6"/>
<path d="M-147.284 -85.012C-174.646 -153.21 -167.784 -224.328 -127.96 -285.265C-114.979 -305.069 -99.5049 -324.654 -83.1259 -345.389C-66.8597 -365.973 -50.0412 -387.261 -34.1548 -410.663C-3.33327 -456.07 24.586 -511.408 59.1954 -595.697C88.595 -667.187 118.187 -734.607 156.828 -773.866C195.168 -812.639 244.361 -828.969 303.051 -822.403C413.961 -809.789 526.52 -738.668 596.807 -636.797C609.123 -618.905 619.205 -600.257 626.782 -581.371C658.71 -501.795 644.749 -421.06 626.882 -352.583C623.965 -341.438 620.944 -330.026 617.844 -318.33C605.502 -271.709 591.508 -218.87 578.488 -161.228C575.406 -147.575 572.337 -133.452 569.368 -119.791C555.5 -55.9877 541.163 9.98293 516.786 69.3453C488.025 139.32 442.238 186.282 387.861 201.577C337.495 215.63 272.965 209.842 196.058 184.371C57.3814 138.291 -53.7732 62.5084 -116.932 -29.0298C-129.511 -47.3299 -139.722 -66.1665 -147.284 -85.012ZM627.806 -581.947C620.196 -600.916 610.068 -619.646 597.705 -637.613C527.244 -739.729 414.406 -811.022 303.217 -823.666C244.198 -830.271 194.704 -813.827 156.11 -774.793C117.301 -735.361 87.6404 -667.804 58.1874 -596.184C23.6135 -511.988 -4.26123 -456.727 -35.028 -411.406C-50.8869 -388.043 -67.689 -366.775 -83.9402 -346.207C-100.34 -325.45 -115.829 -305.843 -128.845 -285.984C-148.343 -256.148 -160.102 -224.096 -163.801 -190.705C-167.691 -155.522 -162.481 -119.768 -148.305 -84.4368C-140.71 -65.5062 -130.454 -46.5906 -117.828 -28.2149C-86.3771 17.3643 -42.8906 59.1999 11.4311 96.1352C65.3173 132.773 127.311 162.865 195.695 185.591C272.787 211.122 337.514 216.914 388.076 202.811C442.806 187.416 488.881 140.188 517.797 69.828C542.219 10.3545 556.574 -55.6864 570.456 -119.55C573.421 -133.206 576.489 -147.324 579.575 -160.968C592.581 -218.592 606.571 -271.413 618.913 -318.026C622.012 -329.714 625.034 -341.136 627.954 -352.28C645.883 -420.991 659.882 -502.001 627.806 -581.947Z" fill="#EDE9F6"/>
<path d="M-134.974 -93.5831C-162.235 -161.496 -156.346 -231.03 -118.389 -289.379C-104.954 -310.053 -89.0211 -330.103 -72.1536 -351.327C-57.1392 -370.22 -41.613 -389.757 -26.6908 -411.203C-19.7248 -421.277 -12.6794 -432.225 -5.74843 -443.74C17.2337 -481.924 39.3861 -526.874 66.0836 -589.485C95.4525 -658.101 124.968 -722.819 163.085 -760.628C200.83 -797.926 248.855 -813.685 305.826 -807.472C371.509 -800.356 436.08 -772.386 492.559 -726.591C529.052 -697.598 562.098 -661.521 588.14 -622.256C599.729 -605.042 609.303 -587.102 616.594 -568.94C636.183 -520.139 640.873 -467.369 631.35 -402.876C628.692 -385.193 624.924 -366.35 619.829 -345.28C615.92 -328.702 611.804 -311.727 607.452 -293.754C597.702 -253.467 586.642 -207.813 576.104 -159.091C574.404 -151.122 572.713 -143.098 571.014 -135.027C559.447 -80.1423 547.49 -23.3843 529.106 29.5402C524.745 42.1119 520.124 54.1734 515.368 65.3845C486.872 132.87 441.9 178.387 388.744 193.554C339.123 207.646 276.112 202.556 201.467 178.438C151.221 162.69 102.458 140.153 56.5276 111.457C24.403 91.6629 -5.78691 69.049 -33.1999 44.246C-60.6966 19.3152 -83.4137 -6.706 -104.691 -37.6558C-117.197 -55.8662 -127.388 -74.6843 -134.974 -93.5831ZM617.614 -569.514C610.291 -587.757 600.681 -605.775 589.043 -623.056C562.943 -662.417 529.809 -698.58 493.236 -727.638C436.609 -773.553 371.859 -801.6 305.991 -808.738C248.696 -814.988 200.377 -799.115 162.376 -761.566C124.084 -723.586 94.5051 -658.738 65.0813 -589.989C38.4082 -527.439 16.2826 -482.544 -6.66082 -444.417C-13.5779 -432.928 -20.6064 -422.006 -27.5547 -411.955C-42.4536 -390.546 -57.9657 -371.027 -72.9659 -352.152C-89.8568 -330.9 -105.806 -310.828 -119.277 -290.096C-157.493 -231.349 -163.431 -161.353 -135.997 -93.0078C-128.376 -74.0237 -118.144 -55.1297 -105.591 -36.8469C-84.2589 -5.82305 -61.4842 20.2676 -33.9245 45.2544C-6.46419 70.1012 23.7749 92.7502 55.9539 112.579C101.951 141.315 150.793 163.889 201.114 179.665C275.942 203.842 339.146 208.929 388.965 194.785C442.468 179.514 487.721 133.74 516.375 65.8864C521.14 54.6442 525.773 42.5543 530.14 29.956C548.559 -23.0561 560.527 -79.8563 572.102 -134.793C573.799 -142.862 575.49 -150.889 577.194 -158.852C587.727 -207.556 598.303 -251.236 608.529 -293.48C612.885 -311.452 617 -328.427 620.909 -345.007C626.013 -366.121 629.788 -385 632.449 -402.723C642.014 -467.481 637.298 -520.477 617.614 -569.514Z" fill="#EDE9F6"/>
<path d="M-122.852 -102.65C-149.963 -170.155 -145.043 -238.01 -108.997 -293.711C-95.0911 -315.302 -78.6927 -335.791 -61.3304 -357.485C-47.5961 -374.647 -33.3931 -392.39 -19.5115 -411.835C-12.6922 -421.503 -5.74904 -432.04 1.13028 -443.16C23.9482 -480.037 45.9853 -523.223 72.5766 -583.183C101.87 -648.853 131.271 -710.803 168.83 -747.126C205.948 -782.908 252.749 -798.082 307.945 -792.219C372.974 -785.521 435.388 -757.51 488.443 -711.221C522.703 -682.516 553.004 -647.639 578.504 -607.544C589.355 -591.045 598.397 -573.858 605.383 -556.463C624.553 -508.731 629.78 -457.082 621.841 -393.913C619.595 -376.703 616.312 -358.439 611.804 -338.072C606.828 -314.268 601.355 -289.372 595.555 -263.019C588.18 -229.493 580.553 -194.832 572.805 -157.234L571.999 -153.228C559.989 -93.262 547.564 -31.2598 526.85 26.2711C522.502 38.3799 517.881 50.0443 513.119 60.9157C484.915 125.84 440.817 169.867 388.941 184.881C340.112 198.996 278.693 194.615 206.39 171.868C157.424 157.426 110.819 135.242 63.8972 104.058C33.288 84.2393 4.76958 61.8381 -23.2945 35.5843C-48.699 11.7223 -69.4367 -12.9022 -92.6275 -46.749C-105.064 -64.8698 -115.232 -83.6766 -122.852 -102.65ZM606.407 -557.039C599.391 -574.511 590.31 -591.768 579.422 -608.332C553.859 -648.515 523.483 -683.479 489.142 -712.245C435.941 -758.669 373.338 -786.767 308.104 -793.486C252.594 -799.378 205.5 -784.103 168.131 -748.075C130.406 -711.591 100.937 -649.506 71.5835 -583.706C45.0187 -523.807 23.0092 -480.673 0.22561 -443.852C-6.63903 -432.756 -13.5697 -422.242 -20.3713 -412.597C-34.2288 -393.186 -48.4181 -375.456 -62.1404 -358.312C-79.5235 -336.596 -95.9446 -316.075 -109.887 -294.427C-127.611 -267.037 -137.907 -236.545 -140.486 -203.795C-143.124 -170.31 -137.534 -136.085 -123.875 -102.075C-116.221 -83.0186 -106.008 -64.133 -93.5226 -45.9377C-70.2808 -12.0178 -49.499 12.6628 -24.0302 36.5775C4.07908 62.8765 32.6445 85.3138 63.2998 105.166C110.3 136.406 156.996 158.627 206.048 173.095C278.532 195.901 340.143 200.284 389.162 186.111C441.382 170.998 485.76 126.72 514.117 61.4301C518.895 50.526 523.519 38.8417 527.882 26.6959C548.631 -30.9303 561.065 -92.9899 573.09 -153.013L573.894 -157.005C581.64 -194.586 589.268 -229.251 596.64 -262.772C602.44 -289.131 607.917 -314.026 612.893 -337.836C617.404 -358.228 620.695 -376.533 622.948 -393.791C630.922 -457.212 625.666 -509.086 606.407 -557.039Z" fill="#EDE9F6"/>
<path d="M-110.863 -111.877C-137.465 -178.076 -133.404 -246.076 -99.7221 -298.445C-85.2969 -321.066 -68.3877 -342.015 -50.4864 -364.195C-38.0273 -379.631 -25.1489 -395.586 -12.3597 -413.04C-5.6758 -422.332 1.17563 -432.48 8.00189 -443.201C30.6793 -478.823 52.6164 -520.31 79.1292 -577.723C108.366 -640.548 137.673 -699.828 174.724 -734.725C211.255 -769.043 256.898 -783.634 310.38 -778.098C374.845 -771.783 435.191 -743.661 484.904 -696.77C516.463 -668.78 544.953 -634.051 569.604 -593.544C579.724 -577.753 588.237 -561.313 594.922 -544.678C613.715 -497.91 619.513 -447.255 613.174 -385.259C611.335 -368.48 608.541 -350.759 604.626 -331.085C598.433 -296.749 591.057 -259.735 583.252 -220.551C579.072 -199.586 574.752 -177.91 570.341 -155.283C559.37 -96.3784 546.869 -34.0675 525.418 23.3923C521.068 35.1015 516.448 46.3741 511.681 56.911C483.754 119.377 440.472 161.973 389.81 176.845C341.709 190.992 281.798 187.287 211.737 165.841C163.564 152.492 119.003 130.633 71.4869 97.0354C42.8687 77.5283 15.1397 54.6694 -13.3029 27.1346C-39.8994 1.2604 -58.1134 -22.8634 -80.5924 -55.7907C-92.9965 -73.8875 -103.18 -92.7562 -110.863 -111.877ZM595.945 -545.253C589.232 -561.959 580.679 -578.465 570.525 -594.315C545.824 -634.903 517.26 -669.719 485.633 -697.776C435.769 -744.814 375.217 -773.03 310.534 -779.364C256.744 -784.932 210.816 -770.237 174.036 -735.682C136.815 -700.632 107.435 -641.222 78.1432 -578.272C51.655 -520.913 29.7466 -479.475 7.10791 -443.912C0.292824 -433.21 -6.54392 -423.087 -13.2092 -413.815C-25.9797 -396.395 -38.847 -380.447 -51.2919 -365.029C-69.2211 -342.817 -86.1531 -321.838 -100.617 -299.158C-134.552 -246.396 -138.662 -177.924 -111.889 -111.3C-104.172 -92.0967 -93.9435 -73.1489 -81.4914 -54.9797C-58.9734 -21.9959 -40.7177 2.17768 -14.0562 28.1198C14.4322 55.6944 42.2077 78.5951 70.8669 98.1235C118.472 131.788 163.131 153.694 211.406 167.07C281.64 188.578 341.744 192.277 390.039 178.074C441.037 163.096 484.593 120.259 512.677 57.4388C517.452 46.8817 522.085 35.5731 526.446 23.8371C547.936 -33.7337 560.455 -96.1148 571.436 -155.077C575.845 -177.693 580.164 -199.371 584.34 -220.334C592.153 -259.525 599.528 -296.543 605.715 -330.876C609.64 -350.587 612.439 -368.35 614.286 -385.17C620.652 -447.409 614.824 -498.274 595.945 -545.253Z" fill="#EDE9F6"/>
<path d="M-99.6202 -120.678C-126.02 -186.345 -122.862 -252.572 -90.9491 -302.385C-75.9342 -326.101 -58.458 -347.49 -39.9565 -370.136C-28.7745 -383.823 -17.2093 -397.978 -5.55476 -413.414C0.998456 -422.311 7.76793 -432.06 14.5655 -442.398C37.1451 -476.736 59.0346 -516.496 85.543 -571.327C113.628 -628.867 144.103 -687.843 180.684 -721.287C216.684 -754.146 261.196 -768.206 312.983 -763.079C376.899 -757.251 435.175 -729.142 481.51 -681.795C510.311 -654.696 536.968 -620.212 560.762 -579.286C570.121 -564.268 578.086 -548.648 584.438 -532.848C602.825 -487.114 609.16 -437.498 604.377 -376.707C602.934 -360.395 600.602 -343.241 597.256 -324.258C589.414 -272.497 578.774 -214.801 567.509 -153.715C558.252 -100.103 545.772 -37.5511 523.411 19.9411C519.051 31.2264 514.416 42.1065 509.629 52.2963C481.907 112.258 439.383 153.426 389.887 168.211C342.482 182.446 284.057 179.509 216.236 159.488C168.566 147.221 126.011 125.785 78.2377 89.9835C51.3456 70.7463 25.1799 48.1538 -4.10804 18.8934C-30.8907 -8.03732 -47.2475 -32.0565 -67.9632 -62.4699L-69.2906 -64.4236C-81.6695 -82.4774 -91.8713 -101.404 -99.6202 -120.678ZM585.464 -533.424C579.084 -549.292 571.091 -564.977 561.698 -580.038C537.858 -621.046 511.13 -655.616 482.269 -682.772C435.78 -730.287 377.287 -758.496 313.132 -764.344C261.045 -769.504 216.253 -755.346 180.01 -722.262C143.26 -688.66 112.708 -629.552 84.5671 -571.895C58.0855 -517.118 36.2247 -477.408 13.6812 -443.122C6.89176 -432.803 0.139627 -423.073 -6.39528 -414.204C-18.0276 -398.793 -29.5843 -384.651 -40.7614 -370.972C-59.2886 -348.296 -76.7921 -326.874 -91.8463 -303.093C-124.01 -252.889 -127.216 -186.191 -100.646 -120.102C-92.8635 -100.744 -82.6208 -81.7368 -70.1916 -63.612L-68.8651 -61.6603C-48.1178 -31.202 -31.7328 -7.14648 -4.87451 19.8646C24.4565 49.1714 50.6605 71.792 77.5941 91.0581C125.471 126.942 168.134 148.423 215.917 160.723C283.908 180.795 342.522 183.724 390.123 169.437C439.944 154.553 482.735 113.144 510.618 52.8434C515.414 42.6277 520.062 31.7064 524.437 20.3972C546.844 -37.2097 559.339 -99.8459 568.607 -153.526C579.874 -214.614 590.515 -272.326 598.351 -324.1C601.706 -343.096 604.048 -360.292 605.496 -376.653C610.298 -437.68 603.93 -487.492 585.464 -533.424Z" fill="#EDE9F6"/>
<path d="M-87.4809 -129.708C-113.679 -194.829 -111.475 -259.26 -81.4345 -306.487C-65.8475 -331.362 -47.831 -353.141 -28.7552 -376.199C-18.8867 -388.125 -8.6842 -400.453 1.72635 -413.86C8.2316 -422.49 14.7097 -431.578 21.5421 -441.644C43.9421 -474.66 65.7072 -512.682 92.108 -564.917C120.09 -619.652 150.43 -675.771 186.481 -707.757C221.853 -739.107 265.149 -752.57 315.159 -747.763C378.436 -742.319 434.577 -714.126 477.513 -666.224C503.884 -639.709 528.014 -606.361 551.298 -564.254C559.893 -550.04 567.289 -535.266 573.299 -520.328C591.312 -475.552 598.249 -426.904 595.122 -367.239C594.099 -351.379 592.254 -334.787 589.495 -316.514C584.093 -271.312 576.398 -220.329 564.539 -151.191C553.656 -81.817 539.995 -28.2312 521.538 17.4475C517.187 28.3088 512.553 38.7958 507.766 48.6318C480.363 106.061 438.714 145.745 390.485 160.387C344.513 174.431 286.083 172.108 221.518 153.666C161.721 139.319 117.635 108.478 85.9113 83.2154C53.8995 59.0685 26.4191 31.8091 6.05783 10.7581C-16.6425 -12.8885 -30.812 -34.0362 -47.213 -58.5222C-50.353 -63.2095 -53.5939 -68.0467 -57.0113 -73.0802C-69.3865 -91.1617 -79.6379 -110.213 -87.4809 -129.708ZM574.326 -520.905C568.292 -535.904 560.865 -550.737 552.249 -564.988C528.918 -607.171 504.726 -640.599 478.305 -667.172C435.207 -715.253 378.837 -743.566 315.31 -749.031C265.001 -753.862 221.427 -740.306 185.817 -708.739C149.597 -676.603 119.188 -620.359 91.1433 -565.51C64.7658 -513.325 43.0324 -475.352 20.6664 -442.386C13.8482 -432.339 7.38215 -423.268 0.893861 -414.663C-9.49754 -401.283 -19.6934 -388.959 -29.5525 -377.043C-48.6599 -353.949 -66.7075 -332.14 -82.337 -307.188C-112.624 -259.577 -114.874 -194.676 -88.5064 -129.133C-80.6299 -109.554 -70.3376 -90.4216 -57.9116 -72.2744C-54.4972 -67.2418 -51.2594 -62.4055 -48.1199 -57.7259C-31.6863 -33.1927 -17.4952 -12.0049 5.27653 11.7115C25.6695 32.7943 53.1851 60.0941 85.2441 84.2774C117.042 109.595 161.239 140.512 221.209 154.905C285.941 173.398 344.561 175.716 390.722 161.61C439.271 146.881 481.189 106.955 508.743 49.1969C513.539 39.3352 518.191 28.8174 522.557 17.9266C541.049 -27.8606 554.746 -81.5396 565.639 -151.024C577.507 -220.179 585.205 -271.175 590.603 -316.386C593.369 -334.676 595.215 -351.31 596.243 -367.214C599.378 -427.107 592.416 -475.941 574.326 -520.905Z" fill="#EDE9F6"/>
<path d="M-75.5716 -139.257C-101.115 -202.713 -99.752 -266.854 -71.9321 -310.842C-55.7243 -336.948 -37.1104 -359.072 -17.4059 -382.493C-8.84647 -392.667 0.00162954 -403.188 9.12992 -414.569C15.4866 -422.791 21.8754 -431.486 28.6737 -441.158C50.6324 -472.425 72.9702 -509.796 98.97 -558.77C126.9 -610.688 157.155 -663.937 192.743 -694.488C227.537 -724.349 269.654 -737.247 317.921 -732.823C380.588 -727.831 434.611 -699.625 474.149 -651.252C497.96 -625.552 519.65 -593.378 542.431 -549.969C550.235 -536.631 557.04 -522.783 562.673 -508.79C580.31 -464.978 587.828 -417.281 586.351 -358.683C585.736 -343.291 584.376 -327.269 582.179 -309.703C578.053 -262.117 571.41 -209.785 561.874 -149.693C552.901 -86.1124 538.756 -31.091 519.818 13.8575C515.468 24.2833 510.826 34.3817 506.025 43.869C478.884 98.7574 438.051 136.978 391.033 151.501C345.787 165.61 288.944 164.044 226.647 146.97C168.246 134.044 126.511 103.716 93.3924 75.7548C64.7182 52.988 39.2643 26.8845 16.0329 2.0718C-3.86253 -19.3575 -15.8753 -37.8494 -29.7856 -59.2565C-34.5024 -66.5215 -39.3843 -74.0283 -44.895 -82.1675C-57.2969 -100.292 -67.6176 -119.498 -75.5716 -139.257ZM563.702 -509.367C558.045 -523.42 551.213 -537.321 543.391 -550.683C520.576 -594.164 498.826 -626.417 474.967 -652.163C435.273 -700.743 381.005 -729.078 318.064 -734.092C269.512 -738.541 227.131 -725.553 192.095 -695.486C156.34 -664.789 126.012 -611.419 98.0173 -559.385C72.043 -510.463 49.7334 -473.136 27.8073 -441.916C21.0242 -432.26 14.6452 -423.581 8.30994 -415.386C-0.799672 -404.027 -9.64507 -393.512 -18.1988 -383.345C-37.9371 -359.886 -56.5795 -337.726 -72.8365 -311.539C-87.198 -288.835 -94.6743 -261.67 -95.0579 -230.809C-95.4248 -201.449 -89.0404 -169.591 -76.598 -138.682C-68.6106 -118.839 -58.249 -99.5521 -45.7993 -81.3625C-40.2903 -73.2276 -35.4154 -65.7247 -30.702 -58.4683C-16.7624 -37.015 -4.72576 -18.4842 15.238 3.01388C38.503 27.8627 63.9869 53.9937 92.703 76.7971C125.907 104.828 167.765 135.241 226.352 148.206C288.807 165.328 345.844 166.89 391.276 152.724C438.608 138.106 479.703 99.6541 506.992 44.4506C511.806 34.9372 516.464 24.8039 520.826 14.3533C539.809 -30.7043 553.994 -85.8554 562.983 -149.538C572.522 -209.664 579.167 -262.026 583.296 -309.616C585.491 -327.194 586.854 -343.263 587.47 -358.699C588.958 -417.513 581.409 -465.381 563.702 -509.367Z" fill="#EDE9F6"/>
<path d="M-63.5888 -148.629C-88.8432 -211.322 -88.3713 -273.506 -62.3286 -314.974C-45.4791 -342.384 -27.1458 -363.759 -5.9172 -388.512C1.33429 -396.966 8.83578 -405.709 16.6184 -415.108C22.8529 -422.953 29.1504 -431.262 35.8872 -440.515C57.6939 -470.477 79.9381 -506.072 105.895 -552.53C133.759 -601.66 163.905 -652.066 199.048 -681.199C233.275 -709.58 274.219 -721.909 320.746 -717.835C382.824 -713.263 434.749 -684.994 470.904 -636.084C497.976 -604.511 518.704 -565.677 533.743 -535.371C540.734 -522.969 546.925 -510.12 552.155 -497.139C569.454 -454.193 577.609 -407.319 577.83 -349.622C577.635 -334.688 576.757 -319.218 575.142 -302.353C572.596 -253.243 567.493 -202.608 559.543 -147.527C552.182 -88.1782 537.981 -33.3509 518.474 11.0512C514.122 21.0563 509.473 30.7625 504.662 39.9113C477.809 92.2786 437.786 129.054 391.969 143.455C335.702 161.355 273.983 152.007 232.119 141.026C174.753 129.358 135.273 99.4765 101.151 68.9299C74.4435 46.5569 51.4283 21.7204 26.2488 -6.08309C8.36612 -26.0085 -2.03201 -42.6907 -14.0755 -62.0086C-19.6938 -71.0231 -25.5071 -80.3465 -32.588 -90.8288C-45.0569 -109.067 -55.4862 -128.515 -63.5888 -148.629ZM553.178 -497.712C547.928 -510.744 541.718 -523.646 534.718 -536.063C519.662 -566.404 498.887 -605.322 471.754 -636.966C435.436 -686.092 383.256 -714.509 320.883 -719.104C274.081 -723.201 232.873 -710.787 198.414 -682.208C163.106 -652.938 132.88 -602.414 104.955 -553.174C79.0255 -506.761 56.8074 -471.209 35.0364 -441.293C28.308 -432.053 22.0204 -423.76 15.8104 -415.942C8.04206 -406.561 0.54499 -397.82 -6.70293 -389.371C-27.969 -364.576 -46.337 -343.166 -63.2345 -315.666C-89.5215 -273.821 -90.0375 -211.16 -64.6164 -148.054C-56.4795 -127.854 -46.0086 -108.33 -33.4924 -90.0215C-26.4246 -79.5581 -20.6208 -70.2449 -15.006 -61.2389C-2.93216 -41.8727 7.49287 -25.1507 25.4387 -5.15617C50.6504 22.6868 73.694 47.5467 100.44 69.9532C134.657 100.584 174.265 130.559 231.838 142.271C273.805 153.285 335.72 162.646 392.222 144.682C438.341 130.183 478.615 93.1886 505.624 40.5144C510.454 31.337 515.112 21.5941 519.479 11.5649C539.038 -32.9576 553.276 -87.9285 560.651 -147.403C568.61 -202.51 573.715 -253.185 576.262 -302.314C577.877 -319.187 578.759 -334.693 578.957 -349.681C578.735 -407.571 570.542 -454.607 553.178 -497.712Z" fill="#EDE9F6"/>
<path d="M-52.7319 -158.288C-77.6691 -220.143 -78.069 -280.34 -53.8008 -319.31C-36.3212 -348.074 -17.41 -369.634 4.4841 -394.594C10.4419 -401.387 16.6004 -408.41 23.0144 -415.898C29.111 -423.358 35.3189 -431.283 42.006 -440.136C63.6413 -468.792 85.7876 -502.624 111.708 -546.61C139.477 -592.972 169.497 -640.555 204.217 -668.282C237.875 -695.192 277.659 -706.938 322.455 -703.195C383.96 -699.004 433.805 -670.623 466.606 -621.119C488.269 -593.575 505.233 -561.116 524.043 -520.842C530.194 -509.483 535.731 -497.722 540.514 -485.859C557.524 -443.668 566.379 -397.463 568.385 -340.453C568.624 -325.947 568.233 -311.023 567.192 -294.845C566.475 -245.196 562.933 -196.22 556.36 -145.079C550.416 -88.6744 536.577 -35.5242 516.332 8.64721C511.982 18.2401 507.335 27.5584 502.511 36.3612C475.957 86.2504 436.758 121.587 392.124 135.859C336.74 153.82 277.072 145.551 236.766 135.451C183.296 125.486 146.634 99.0129 108.03 62.3353C83.1349 40.2954 61.5677 15.6439 38.7344 -10.4561L35.5327 -14.1174C19.1578 -33.0015 10.0209 -48.4049 -0.557667 -66.2451C-6.65004 -76.5168 -12.9459 -87.1381 -21.2576 -99.4768C-33.8449 -117.918 -44.433 -137.703 -52.7319 -158.288ZM541.541 -486.433C536.741 -498.339 531.186 -510.143 525.028 -521.514C506.2 -561.833 489.197 -594.359 467.496 -621.952C434.526 -671.705 384.411 -700.251 322.588 -704.463C277.525 -708.229 237.486 -696.404 203.601 -669.312C168.713 -641.448 138.617 -593.75 110.782 -547.281C84.8883 -503.338 62.7666 -469.546 41.1657 -440.933C34.4902 -432.092 28.2913 -424.184 22.217 -416.75C15.8181 -409.278 9.66046 -402.253 3.70538 -395.467C-18.2311 -370.457 -37.1762 -348.86 -54.7149 -320C-79.2192 -280.652 -78.8641 -219.979 -53.7607 -157.712C-45.4291 -137.046 -34.7985 -117.183 -22.166 -98.6698C-13.8765 -86.3658 -7.58755 -75.7616 -1.50563 -65.5024C9.10332 -47.6138 18.2683 -32.1607 34.706 -13.2018L37.917 -9.53782C60.773 16.5914 82.3642 41.2687 107.294 63.3338C146.019 100.135 182.816 126.703 236.498 136.701C276.899 146.826 336.769 155.113 392.382 137.084C437.304 122.713 476.755 87.1649 503.463 36.9829C508.3 28.1575 512.967 18.8037 517.326 9.183C537.636 -35.1221 551.517 -88.4295 557.48 -144.978C564.055 -196.154 567.6 -245.184 568.318 -294.855C569.355 -311.036 569.746 -325.996 569.513 -340.553C567.493 -397.747 558.609 -444.095 541.541 -486.433Z" fill="#EDE9F6"/>
<path d="M-41.1011 -168.516C-65.5942 -229.223 -66.775 -287.217 -44.2498 -323.647C-26.1591 -353.713 -6.69067 -375.3 15.8495 -400.298C20.5441 -405.506 25.4061 -410.898 30.4577 -416.583C36.423 -423.657 42.5421 -431.187 49.1749 -439.621C70.6282 -466.915 92.6908 -498.943 118.602 -540.419C146.287 -583.945 176.19 -628.648 210.513 -654.96C243.607 -680.379 282.207 -691.56 325.235 -688.19C386.128 -684.45 433.845 -656.062 463.236 -606.092C483.085 -578.359 497.873 -545.967 515.15 -506.503C520.396 -496.368 525.197 -485.898 529.452 -475.351C546.171 -433.913 555.751 -388.316 559.593 -331.85C560.254 -317.799 560.347 -303.449 559.872 -287.998C561.077 -238.482 559.062 -191.241 553.717 -143.561C549.146 -90.6884 535.265 -37.9162 514.636 5.06191C510.287 14.2259 505.629 23.1538 500.795 31.5947C474.534 78.9259 436.146 112.794 392.708 126.965C338.221 145.016 280.645 137.893 241.94 128.739C189.135 119.856 153.232 92.7806 115.563 54.8619C94.0507 34.7434 75.3002 12.476 55.4498 -11.1019C52.1867 -14.9754 48.901 -18.878 45.5674 -22.8115C30.3873 -40.9091 21.9084 -56.038 12.9361 -72.0527C6.68103 -83.2137 0.215743 -94.7542 -9.07498 -108.571C-21.8126 -127.25 -32.5876 -147.416 -41.1011 -168.516ZM530.486 -475.929C526.217 -486.51 521.39 -497.012 516.147 -507.149C498.86 -546.644 484.045 -579.094 464.157 -606.877C434.601 -657.126 386.598 -685.699 325.365 -689.459C282.075 -692.849 243.229 -681.591 209.91 -656.002C175.426 -629.563 145.448 -584.755 117.693 -541.12C91.8093 -499.685 69.7717 -467.689 48.3484 -440.436C41.7255 -432.017 35.6167 -424.496 29.6684 -417.447C24.635 -411.778 19.7735 -406.391 15.0789 -401.183C-7.50681 -376.136 -27.0109 -354.503 -45.169 -324.334C-67.9244 -287.524 -66.7895 -229.057 -42.131 -167.94C-33.5848 -146.758 -22.7687 -126.511 -9.98538 -107.766C-0.725555 -93.9924 5.73114 -82.4732 11.9736 -71.3366C20.975 -55.2701 29.4812 -40.0936 44.7329 -21.9132C48.0659 -17.9742 51.3521 -14.0771 54.613 -10.2024C74.4875 13.4013 93.2593 35.7014 114.801 55.8454C152.602 93.8945 188.651 121.071 241.686 129.985C280.484 139.166 338.256 146.31 392.97 128.187C436.691 113.923 475.32 79.8494 501.736 32.2407C506.588 23.7766 511.259 14.8151 515.619 5.61643C536.322 -37.5079 550.251 -90.4564 554.837 -143.489C560.187 -191.216 562.203 -238.515 560.998 -288.055C561.472 -303.507 561.383 -317.894 560.716 -331.999C556.865 -388.628 547.258 -434.359 530.486 -475.929Z" fill="#EDE9F6"/>
<path d="M-29.4611 -178.725C-53.8145 -239.032 -55.6872 -293.366 -34.5962 -327.791C-15.9574 -359.103 3.05621 -379.54 27.131 -405.417C30.6357 -409.181 34.245 -413.063 37.9833 -417.112C43.8341 -423.82 49.8626 -430.964 56.4224 -438.958C77.6729 -464.882 99.6419 -495.123 125.559 -534.14C151.915 -573.062 182.887 -616.686 216.846 -641.601C249.378 -665.533 286.802 -676.137 328.075 -673.121C388.366 -669.796 433.971 -641.345 459.976 -590.847C476.761 -564.753 489.403 -533.663 502.78 -500.746L506.411 -491.823C510.674 -483.148 514.665 -474.222 518.288 -465.25C534.799 -424.365 545.208 -379.078 551.04 -322.723C552.138 -309.113 552.72 -295.317 552.806 -280.585C556.087 -230.823 555.641 -186.593 551.397 -141.351C548.074 -90.939 534.55 -39.94 513.319 2.26991C508.971 11.0144 504.315 19.5544 499.457 27.6495C473.505 72.4467 435.941 104.858 393.683 118.92C340.081 137.053 284.586 131.031 247.473 122.78C189.411 114.027 154.341 81.0472 123.395 48.0221C104.614 29.4264 88.18 9.02432 70.784 -12.5675C65.894 -18.6409 60.9411 -24.789 55.8584 -30.9955C41.6196 -48.5456 34.068 -62.9162 26.0701 -78.1288C19.8542 -89.9606 13.4222 -102.192 3.31659 -117.256C-9.46536 -136.021 -20.7997 -157.277 -29.4611 -178.725ZM519.319 -465.826C515.685 -474.826 511.684 -483.783 507.421 -492.445L503.811 -501.324C490.406 -534.296 477.748 -565.44 460.928 -591.58C434.768 -642.392 388.861 -671.046 328.194 -674.392C286.679 -677.427 249.02 -666.751 216.267 -642.657C182.148 -617.625 151.096 -573.897 124.67 -534.871C98.7742 -495.89 76.8324 -465.682 55.6111 -439.8C49.0632 -431.811 43.0433 -424.679 37.2117 -417.997C33.4882 -413.96 29.878 -410.079 26.3755 -406.317C2.25019 -380.383 -16.8098 -359.899 -35.517 -328.473C-56.8412 -293.661 -55.0129 -238.87 -30.4922 -178.149C-21.798 -156.62 -10.4202 -135.283 2.40522 -116.451C12.473 -101.448 18.8893 -89.241 25.0949 -77.4348C33.1174 -62.1679 40.6986 -47.7511 55.0103 -30.1082C60.0947 -23.8974 65.045 -17.7557 69.9302 -11.6875C87.3498 9.9357 103.803 30.3605 122.606 48.9756C153.671 82.1257 188.888 115.241 247.234 124.036C284.439 132.306 340.125 138.345 393.953 120.135C436.481 105.986 474.28 73.3747 500.391 28.3162C505.257 20.1932 509.937 11.6264 514.292 2.85186C535.61 -39.5215 549.188 -90.7181 552.525 -141.301C556.767 -186.602 557.219 -230.903 553.936 -280.698C553.84 -295.428 553.263 -309.253 552.159 -322.919C546.312 -379.42 535.879 -424.82 519.319 -465.826Z" fill="#EDE9F6"/>
<path d="M-18.9052 -189.164C-42.611 -247.823 -45.0862 -299.76 -25.6949 -331.651C-6.56559 -364.075 11.9101 -383.213 37.485 -409.701C39.8902 -412.194 42.3559 -414.747 44.8915 -417.383C50.649 -423.735 56.5965 -430.488 63.0868 -438.047C84.1347 -462.562 106.054 -491.02 132.078 -527.617C164.686 -572.568 192.62 -606.857 222.915 -628.042C254.952 -650.51 291.233 -660.579 330.76 -657.967C390.494 -655.137 434.004 -626.711 456.59 -575.761C462.972 -564.556 469.023 -551.724 475.654 -535.317C480.456 -523.434 484.975 -511.172 489.756 -498.186C492.273 -491.362 494.826 -484.436 497.47 -477.428C500.623 -470.647 503.64 -463.695 506.452 -456.737C523.047 -415.673 534.06 -371.68 542.165 -314.081C543.681 -301.088 544.766 -287.493 545.392 -273.681C550.756 -224.651 551.779 -182.112 548.613 -139.77C546.448 -91.6749 533.221 -42.4761 511.37 -1.20742C507.003 7.14012 502.321 15.2872 497.459 23.0037C471.769 65.2645 434.968 96.2391 393.826 110.243C341.028 128.527 287.586 123.675 252.054 116.388C194.5 108.785 161.595 76.3695 130.24 40.9524C113.735 23.6624 99.2609 4.82343 83.9312 -15.1256C77.8988 -22.9724 71.6592 -31.0958 65.1912 -39.2435C51.7305 -56.3783 44.9918 -70.1414 37.8602 -84.7076C31.8246 -97.035 25.5888 -109.776 14.7946 -125.873C1.71786 -145.084 -9.93431 -166.966 -18.9052 -189.164ZM476.688 -535.894C470.036 -552.354 463.963 -565.234 457.58 -576.434C434.836 -627.733 391.02 -656.39 330.878 -659.236C291.116 -661.863 254.602 -651.729 222.36 -629.113C191.917 -607.822 163.907 -573.451 131.214 -528.385C105.211 -491.816 83.3157 -463.386 62.2964 -438.908C55.8133 -431.359 49.8725 -424.609 44.1352 -418.282C41.6162 -415.665 39.1478 -413.105 36.7417 -410.614C11.1059 -384.062 -7.41552 -364.874 -26.621 -332.321C-46.2437 -300.05 -43.8102 -247.656 -19.9389 -188.587C-10.9352 -166.308 0.760371 -144.346 13.882 -125.071C24.6265 -109.043 30.8467 -96.3402 36.8638 -84.0521C44.0257 -69.4243 50.7891 -55.6071 64.3315 -38.3714C70.7941 -30.2233 77.0303 -22.1085 83.0588 -14.2646C98.4072 5.71054 112.903 24.5745 129.434 41.8911C160.909 77.4482 193.967 110.008 251.83 117.651C287.451 124.948 341.084 129.814 394.101 111.457C435.5 97.3651 472.535 66.2018 498.377 23.6943C503.254 15.9538 507.952 7.77719 512.334 -0.605332C534.282 -42.0535 547.566 -91.4697 549.737 -139.757C552.909 -182.165 551.889 -224.785 546.52 -273.858C545.896 -287.655 544.808 -301.28 543.287 -314.325C535.161 -372.051 524.12 -416.144 507.483 -457.313C504.662 -464.292 501.639 -471.261 498.495 -478.021C495.871 -484.98 493.316 -491.904 490.804 -498.727C486.017 -511.72 481.498 -523.991 476.688 -535.894Z" fill="#EDE9F6"/>
<path d="M452.253 -560.725C454.998 -555.182 457.613 -549.31 460.277 -542.724C466.446 -527.471 471.793 -511.006 477.457 -493.575C480.695 -483.611 484.04 -473.304 487.664 -462.865C489.464 -458.725 491.222 -454.536 492.91 -450.36C509.563 -409.189 521.814 -364.338 532.634 -304.949C534.603 -292.347 536.203 -279.321 537.383 -266.235C545.058 -217.34 547.552 -177.639 545.457 -137.459C544.505 -91.479 531.687 -44.0467 509.366 -3.87301C505.016 4.06266 500.34 11.8155 495.477 19.1781C469.813 59.4535 434.843 88.1763 394.33 102.239C342.462 120.583 291.177 116.771 257.286 110.348C200.264 103.722 169.459 71.7857 137.848 33.854C123.259 17.5948 110.445 -0.0104596 96.8784 -18.6392C89.9769 -28.118 82.8407 -37.9138 75.2752 -47.7924C62.4533 -64.6888 56.4336 -78.0062 50.0622 -92.0989C44.3116 -104.825 38.3644 -117.984 26.9696 -135.029C13.4918 -154.883 1.41846 -177.608 -7.94012 -200.746C-30.9321 -257.591 -34.0065 -307.035 -16.3798 -336.404C3.00865 -369.732 20.7288 -387.393 47.5523 -414.126L51.9286 -418.489C57.586 -424.495 63.4298 -430.857 69.8108 -437.955C90.7991 -461.301 111.94 -487.178 138.367 -521.864C170.715 -563.446 198.411 -595.228 228.415 -615.158C259.852 -636.12 294.908 -645.577 332.611 -643.272C390.063 -640.859 430.894 -613.688 450.712 -564.692C451.241 -563.384 451.76 -562.06 452.253 -560.725ZM461.312 -543.302C458.636 -549.917 456.005 -555.815 453.276 -561.329C452.794 -562.614 452.278 -563.95 451.745 -565.268C431.751 -614.7 390.598 -642.116 332.724 -644.545C294.797 -646.862 259.523 -637.346 227.879 -616.247C197.734 -596.223 169.961 -564.359 137.528 -522.669C111.122 -488.008 89.9999 -462.157 69.0393 -438.837C62.6633 -431.746 56.8274 -425.392 51.1889 -419.406L46.8255 -415.059C19.93 -388.254 2.16117 -370.545 -17.3103 -337.072C-35.168 -307.322 -32.1296 -257.42 -8.97345 -200.169C0.417979 -176.95 12.5308 -154.148 26.0584 -134.225C37.3934 -117.267 43.3186 -104.156 49.0492 -91.4792C55.4523 -77.315 61.4975 -63.9411 74.4016 -46.936C81.9596 -37.069 89.0888 -27.2772 95.9894 -17.8005C109.575 0.854405 122.41 18.4792 137.02 34.7633C167.596 71.4498 199.794 104.95 257.08 111.607C291.054 118.045 342.53 121.87 394.617 103.456C435.377 89.3027 470.565 60.4013 496.377 19.897C501.255 12.5125 505.95 4.72553 510.319 -3.2366C532.747 -43.6114 545.629 -91.2836 546.587 -137.473C548.686 -177.729 546.188 -217.528 538.499 -266.465C537.327 -279.545 535.722 -292.602 533.743 -305.242C522.905 -364.75 510.632 -409.678 493.944 -450.937C492.252 -455.12 490.487 -459.322 488.704 -463.426C485.099 -473.809 481.756 -484.106 478.522 -494.064C472.854 -511.521 467.494 -528.004 461.312 -543.302Z" fill="#EDE9F6"/>
<path d="M2.29971 -211.78C-19.7925 -266.369 -23.3181 -313.096 -7.37545 -339.976C12.1626 -373.96 29.004 -390.023 56.8986 -416.627L58.8093 -418.449C64.4005 -424.134 70.1556 -430.109 76.418 -436.728C97.0053 -458.498 118.063 -482.644 144.694 -515.01C172.492 -548.084 202.57 -581.423 234.147 -601.236C265.058 -620.718 298.929 -629.61 334.834 -627.675C388.365 -625.802 426.132 -601.4 444.061 -557.099C445.624 -553.237 447.056 -549.177 448.312 -545.026C448.673 -544.163 449 -543.361 449.33 -542.547C456.122 -525.764 461.337 -506.868 466.852 -486.865C470.341 -474.221 473.945 -461.148 478.177 -447.76C499.651 -394.497 513.027 -340.876 523.292 -295.451C525.724 -283.244 527.828 -270.792 529.529 -258.453C536.207 -226.185 543.699 -183.02 542.347 -134.924C542.517 -91.6046 529.715 -44.7521 507.227 -6.35299C502.874 1.16714 498.193 8.5288 493.313 15.5251C468.012 53.2107 433.835 80.5156 394.474 94.5125C343.446 112.983 294.276 110.283 262.013 104.764C205.514 99.1869 175.557 66.449 144.912 27.4449C131.974 12.1064 120.603 -4.41157 108.564 -21.8982C101.052 -32.809 93.285 -44.0881 84.8371 -55.4961C72.5704 -72.2144 67.2142 -85.1592 61.5426 -98.8631C56.1587 -111.876 50.5891 -125.341 38.6761 -143.205C24.8711 -163.576 11.9529 -187.927 2.29971 -211.78ZM445.095 -557.675C426.989 -602.417 388.894 -627.06 334.936 -628.944C298.828 -630.898 264.74 -621.948 233.632 -602.34C201.917 -582.434 171.758 -549.014 143.887 -515.857C117.272 -483.505 96.23 -459.381 75.6637 -437.633C69.4117 -431.022 63.6624 -425.053 58.0892 -419.391L56.1946 -417.584C28.2117 -390.894 11.3206 -374.785 -8.30873 -340.634C-24.4783 -313.377 -20.9906 -266.197 1.26507 -211.203C10.9502 -187.272 23.9098 -162.838 37.7598 -142.403C49.6052 -124.646 55.1505 -111.241 60.5136 -98.2793C66.2124 -84.5014 71.5968 -71.4939 83.9527 -54.6497C92.3906 -43.2598 100.15 -31.9922 107.654 -21.0875C119.71 -3.57885 131.096 12.9601 144.058 28.332C174.843 67.5124 204.961 100.414 261.822 106.034C294.17 111.568 343.525 114.272 394.765 95.7175C434.362 81.6417 468.746 54.1664 494.2 16.2722C499.089 9.25012 503.795 1.85611 508.163 -5.7012C530.781 -44.304 543.651 -91.4242 543.477 -134.972C544.836 -183.19 537.327 -226.458 530.64 -258.76C528.943 -271.075 526.837 -283.552 524.393 -295.804C514.116 -341.3 500.719 -394.985 479.232 -448.288C475.024 -461.608 471.42 -474.667 467.936 -487.299C462.142 -508.31 456.68 -528.097 449.363 -545.557C448.114 -549.677 446.673 -553.777 445.095 -557.675Z" fill="#EDE9F6"/>
<path d="M12.6522 -224.676C0.297316 -255.188 -17.505 -311.366 2.0636 -344.794C21.5681 -379.15 37.3473 -393.502 65.9959 -419.559C71.6638 -425.047 77.3233 -430.629 83.4039 -436.718C108.97 -462.331 133.152 -488.992 151.371 -509.354C178.905 -539.487 208.729 -569.936 240.165 -588.474C270.554 -606.473 303.229 -614.798 337.293 -613.217C387.252 -611.824 422.237 -589.886 438.478 -549.776C440.912 -543.764 442.963 -537.275 444.563 -530.479C449.777 -515.218 453.565 -498.178 457.575 -480.135C460.89 -465.215 464.322 -449.789 468.861 -433.819C485.535 -388.586 499.012 -342.477 514.122 -287.147C517.038 -275.304 519.639 -263.43 521.848 -251.877C530.586 -218.361 539.487 -178.138 539.42 -133.619C540.691 -92.1987 528.252 -47.1873 505.304 -10.1099C500.956 -3.00565 496.272 3.96583 491.375 10.608C466.47 45.6614 433.111 71.5476 394.889 85.4763C344.71 104.091 297.692 102.49 267.081 97.8681C211.004 93.285 183.066 61.197 152.369 19.7275C140.865 5.17472 130.761 -10.4041 120.06 -26.9025C112.15 -39.1039 103.969 -51.7176 94.8211 -64.5029C85.6045 -77.4854 80.8447 -87.9372 77.3999 -96.4448C75.9496 -100.026 74.6529 -103.479 73.2789 -107.142C71.9222 -110.763 70.5155 -114.521 68.9597 -118.363C65.5694 -126.736 60.442 -138.204 50.8126 -152.672C36.3355 -174.081 22.7841 -199.653 12.6522 -224.676ZM439.516 -550.354C423.095 -590.908 387.783 -613.084 337.386 -614.487C303.611 -616.056 269.822 -607.448 239.68 -589.597C208.105 -570.977 178.206 -540.451 150.597 -510.238C132.387 -489.881 108.223 -463.243 82.6739 -437.649C76.6022 -431.565 70.9471 -425.986 65.3792 -420.596C36.5622 -394.387 20.7274 -379.983 1.123 -345.448C-18.7514 -311.499 -0.833312 -254.847 11.6168 -224.099C21.7807 -198.997 35.3747 -173.347 49.8955 -151.871C59.4647 -137.497 64.557 -126.11 67.9265 -117.788C69.4771 -113.958 70.8747 -110.216 72.2322 -106.594C73.5466 -103.091 74.9059 -99.4636 76.3622 -95.8669C79.8347 -87.291 84.6324 -76.766 93.9229 -63.6753C103.058 -50.9145 111.233 -38.3081 119.138 -26.114C129.845 -9.59846 139.966 6.00778 151.495 20.583C182.341 62.2634 210.442 94.5173 266.91 99.1395C297.602 103.774 344.808 105.372 395.192 86.6849C433.634 72.6761 467.196 46.6372 492.242 11.3772C497.156 4.7175 501.857 -2.28476 506.225 -9.42319C529.319 -46.7339 541.833 -92.0331 540.545 -133.703C540.622 -178.367 531.693 -218.694 522.948 -252.247C520.746 -263.79 518.131 -275.678 515.21 -287.559C500.087 -342.942 486.598 -389.081 469.93 -434.312C465.413 -450.195 461.989 -465.602 458.675 -480.505C454.656 -498.584 450.863 -515.663 445.642 -530.928C444.04 -537.722 441.975 -544.28 439.516 -550.354Z" fill="#EDE9F6"/>
<path d="M22.095 -237.428C2.00769 -287.01 -1.95616 -326.627 10.9325 -348.98C30.239 -383.444 45.3684 -396.52 72.8267 -420.254C78.486 -425.453 84.0582 -430.652 89.8811 -436.158C113.741 -458.712 136.523 -481.711 157.588 -503.205C183.524 -529.123 214.3 -557.959 245.816 -575.297C275.3 -591.596 307.68 -599.57 339.464 -598.36C386.886 -597.373 418.513 -578.146 433.475 -541.214C436.642 -533.396 439.044 -524.721 440.618 -515.427C444.127 -502.1 446.543 -487.428 449.1 -471.894C451.882 -455 454.759 -437.531 459.371 -419.265C468.377 -392.051 477.004 -365.002 486.136 -336.363C492.183 -317.386 498.441 -297.768 504.827 -278.062C508.271 -266.519 511.378 -255.218 514.066 -244.478C525 -210.091 535.265 -172.623 536.419 -131.369C538.782 -91.7221 526.702 -48.5071 503.291 -12.7968C498.942 -6.08716 494.251 0.495514 489.34 6.77294C464.85 39.219 432.27 63.7135 395.131 77.6004C345.722 96.3777 300.827 95.8689 271.862 92.1292C216.123 88.511 190.103 57.0715 159.428 13.0587C149.174 -0.798212 140.179 -15.5839 130.658 -31.2335C122.504 -44.6335 114.073 -58.4931 104.346 -72.5645C98.3576 -81.2868 93.816 -89.6842 90.0527 -98.9735C87.8841 -104.326 86.195 -109.361 84.4094 -114.689C82.6259 -120.017 80.7769 -125.535 78.4012 -131.399C74.2374 -141.676 69.1699 -151.176 62.4505 -161.285C47.3093 -183.742 32.6014 -211.494 22.095 -237.428ZM434.514 -541.792C419.367 -579.181 387.415 -598.638 339.547 -599.628C307.591 -600.852 275.015 -592.826 245.36 -576.435C213.709 -559.028 182.858 -530.118 156.849 -504.131C135.794 -482.645 113.022 -459.655 89.1786 -437.114C83.3592 -431.613 77.7884 -426.418 72.1542 -421.238C44.5915 -397.417 29.4033 -384.289 9.98628 -349.625C-3.12457 -326.894 0.806687 -286.838 21.0578 -236.85C31.5946 -210.842 46.347 -183.008 61.5332 -160.486C68.1996 -150.447 73.2336 -141.023 77.3662 -130.823C79.7254 -124.999 81.5667 -119.501 83.3472 -114.187C85.1375 -108.841 86.83 -103.784 89.0133 -98.3951C92.8122 -89.0181 97.3943 -80.5542 103.436 -71.754C113.142 -57.7076 121.566 -43.8652 129.708 -30.4819C139.246 -14.8027 148.254 0.00186852 158.527 13.8926C189.367 58.1363 215.543 89.7512 271.708 93.3997C300.756 97.1462 345.831 97.6596 395.439 78.8001C432.791 64.8367 465.552 40.2075 490.183 7.5754C495.109 1.27609 499.823 -5.33768 504.198 -12.072C527.768 -48.0408 539.93 -91.5664 537.559 -131.498C536.392 -172.899 526.1 -210.48 515.152 -244.922C512.47 -255.639 509.355 -266.959 505.903 -278.538C499.508 -298.257 493.253 -317.882 487.206 -336.844C478.072 -365.489 469.449 -392.542 460.45 -419.719C455.866 -437.882 452.995 -455.321 450.214 -472.186C447.652 -487.754 445.231 -502.458 441.722 -515.787C440.147 -525.117 437.718 -533.885 434.514 -541.792Z" fill="#EDE9F6"/>
</svg>
