<svg width="1725" height="516" viewBox="0 0 1725 516" fill="none" xmlns="http://www.w3.org/2000/svg">
<path d="M1788.27 234.961C1771.18 280.123 1755.25 311.183 1736.63 335.668C1663.81 428.258 1501.96 456.436 1324.29 407.443C1235.69 382.199 1159.99 339.007 1105.38 282.538C1057.99 232.791 1019.93 164.709 985.625 68.2802C962.421 1.82563 947.656 -70.8689 939.159 -160.494C930.891 -251.27 936.438 -319.167 957.149 -380.642C958.115 -383.426 959.117 -386.196 960.22 -389.109C986.334 -458.118 1049.67 -559.374 1129.63 -659.968C1210.91 -762.209 1294.27 -844.089 1352.62 -878.996C1473.85 -987.434 1535.95 -944.185 1629.95 -878.728C1671.64 -849.689 1718.9 -816.784 1780.7 -789.412C1825.3 -769.672 1865.39 -752.746 1900.76 -737.811C2070.64 -666.099 2148.17 -633.375 2200.2 -508.407C2211.88 -478.363 2210.74 -444.439 2196.79 -407.596C2185.8 -378.555 2166.78 -347.444 2140.25 -315.125C2116.05 -285.853 2088.6 -256.573 2059.52 -225.575C2021.29 -184.806 1981.75 -142.652 1943.95 -94.6247C1899.23 -37.3603 1862.58 29.9154 1831.87 111.051C1827.31 123.094 1822.75 135.805 1818.31 148.827C1816.32 154.68 1814.35 160.491 1812.4 166.246C1804.22 190.407 1796.49 213.228 1788.27 234.961ZM959.256 -389.474C958.148 -386.547 957.137 -383.761 956.162 -380.957C935.373 -319.252 929.803 -251.156 938.092 -160.151C946.599 -70.4137 961.386 2.37952 984.621 68.9359C1018.99 165.513 1057.11 233.712 1104.6 283.566C1159.32 340.149 1235.15 383.416 1323.89 408.698C1501.94 457.797 1664.24 429.441 1737.36 336.457C1756.09 311.835 1772.09 280.645 1789.24 235.328C1797.47 213.567 1805.2 190.734 1813.39 166.556C1815.34 160.8 1817.3 154.994 1819.3 149.142C1823.73 136.137 1828.29 123.444 1832.84 111.418C1863.48 30.4398 1900.06 -36.696 1944.68 -93.8345C1982.43 -141.798 2021.95 -183.928 2060.16 -224.678C2089.25 -255.69 2116.72 -284.983 2140.95 -314.297C2167.6 -346.755 2186.71 -378.021 2197.76 -407.23C2211.85 -444.447 2213 -478.72 2201.18 -509.109C2175.88 -569.876 2144.46 -610.181 2096.1 -643.88C2049.15 -676.605 1987.12 -702.791 1901.26 -739.036C1865.89 -753.969 1825.8 -770.891 1781.21 -790.636C1719.49 -817.965 1672.26 -850.856 1630.59 -879.87C1582.07 -913.655 1543.75 -940.347 1501.29 -945.703C1455.39 -951.502 1409.4 -931.254 1352.17 -880.051C1293.79 -845.149 1210.29 -763.144 1128.91 -660.775C1048.85 -560.055 985.427 -458.634 959.256 -389.474Z" fill="#EDE9F6"/>
<path d="M970.514 -384.289C971.106 -385.935 971.71 -387.562 972.342 -389.233C997.298 -455.181 1058.58 -552.631 1136.28 -649.893C1215.35 -748.882 1296.62 -828.459 1353.7 -862.766C1471.74 -967.997 1532.93 -927.368 1625.54 -865.863C1665.59 -839.27 1710.99 -809.128 1769.7 -784.038C1812.44 -765.61 1850.97 -749.787 1884.96 -735.825C2049.87 -668.099 2125.13 -637.188 2176.41 -517.118C2189.51 -485.641 2188.54 -449.552 2173.51 -409.838C2163.43 -383.206 2146.96 -354.786 2124.55 -325.374C2098.45 -288.518 2067.35 -251.454 2034.43 -212.217C2003.49 -175.349 1971.5 -137.219 1940.35 -95.4336C1876.3 -8.47973 1837.04 83.9878 1813.09 145.976L1809.05 156.982C1804.16 170.341 1799.54 182.962 1794.8 195.469C1774.67 248.672 1755.73 290.968 1728.76 324.459C1657 412.792 1499.81 440.84 1328.31 395.908C1240.34 373.49 1165.42 333.498 1111.67 280.261C1064.13 232.73 1026.09 166.835 991.974 72.886C966.909 4.34911 952.036 -70.6488 945.177 -163.136C938.863 -253.097 946.597 -321.093 970.255 -383.604L970.514 -384.289ZM971.372 -389.601C970.736 -387.922 970.129 -386.286 969.545 -384.642L969.286 -383.97C945.543 -321.226 937.777 -253.02 944.108 -162.821C950.977 -70.2084 965.869 4.90299 990.973 73.5503C1025.15 167.649 1063.26 233.667 1110.9 281.305C1164.77 334.649 1239.82 374.714 1327.93 397.169C1499.8 442.198 1657.41 413.978 1729.47 325.273C1756.58 291.615 1775.58 249.188 1795.77 195.836C1800.51 183.32 1805.13 170.696 1810.03 157.33L1814.06 146.341C1837.98 84.4549 1877.18 -7.87656 1941.1 -94.6699C1972.22 -136.414 2004.2 -174.527 2035.12 -211.384C2068.06 -250.642 2099.18 -287.728 2125.3 -324.609C2147.79 -354.129 2164.34 -382.687 2174.48 -409.473C2189.65 -449.563 2190.63 -486.025 2177.38 -517.831C2125.95 -638.279 2050.58 -669.233 1885.45 -737.052C1851.46 -751.014 1812.94 -766.834 1770.19 -785.259C1711.55 -810.318 1666.19 -840.442 1626.18 -867.014C1578.37 -898.76 1540.62 -923.833 1498.95 -928.451C1453.91 -933.444 1408.97 -913.509 1353.25 -863.828C1296.15 -829.516 1214.73 -749.81 1135.57 -650.705C1057.76 -553.314 996.385 -455.701 971.372 -389.601Z" fill="#EDE9F6"/>
<path d="M2150.07 -411.686C2140.99 -387.688 2127.05 -362.217 2108.63 -335.982C2080.76 -289.636 2045.36 -242.741 2007.89 -193.093C1984.5 -162.106 1960.31 -130.065 1936.43 -96.1686C1878.26 -12.3191 1838.57 72.0988 1807.41 143.621L1805.72 147.862C1779.51 214.043 1756.87 271.202 1720.32 314.048C1649.58 398.309 1497.1 426.381 1331.85 385.564C1243.3 365.747 1171.23 329.958 1117.63 279.183C1070.65 234.494 1031.59 168.849 998.197 78.5025C971.678 8.7856 956.325 -70.878 951.267 -165.047C946.838 -254.253 957.186 -324.279 984.1 -387.529L984.642 -388.968C1008.48 -451.951 1067.77 -545.752 1143.25 -639.876C1220.16 -735.793 1299.4 -813.241 1355.22 -847.06C1470.15 -949.332 1530.4 -911.323 1621.61 -853.787C1659.94 -829.608 1703.38 -802.206 1758.93 -779.377C1799.74 -762.296 1836.63 -747.6 1869.18 -734.629C2029.1 -670.908 2102.09 -641.827 2152.53 -526.477C2167.21 -493.404 2166.38 -454.782 2150.07 -411.686ZM977.235 -373.208C954.685 -313.616 946.093 -247.38 950.195 -164.765C955.261 -70.4493 970.639 9.34342 997.201 79.1747C1030.65 169.677 1069.8 235.446 1116.88 280.242C1170.59 331.123 1242.8 366.983 1331.48 386.829C1413 406.962 1492.64 410.851 1561.82 398.081C1631 385.306 1686.05 356.539 1721.01 314.89C1757.73 271.846 1780.41 214.571 1806.68 148.251L1808.35 144.038C1839.47 72.6184 1879.13 -11.7121 1937.2 -95.4417C1961.07 -129.304 1985.25 -161.341 2008.63 -192.319C2046.13 -242.001 2081.56 -288.931 2109.43 -335.298C2127.9 -361.603 2141.91 -387.189 2151.04 -411.32C2167.5 -454.817 2168.33 -493.809 2153.5 -527.216C2102.9 -642.923 2029.81 -672.045 1869.66 -735.853C1837.11 -748.825 1800.22 -763.52 1759.42 -780.604C1703.94 -803.404 1660.52 -830.784 1622.23 -854.952C1575.15 -884.645 1537.97 -908.097 1497.11 -911.933C1452.92 -916.089 1409.03 -896.406 1354.77 -848.12C1298.93 -814.298 1219.55 -736.727 1142.53 -640.681C1066.95 -546.437 1007.57 -452.471 983.674 -389.334L983.142 -387.923C981.094 -383.102 979.102 -378.14 977.235 -373.208Z" fill="#EDE9F6"/>
<path d="M2126.03 -411.933C2118.1 -390.981 2106.71 -368.881 2092.16 -346.262C2062.84 -288.202 2022.27 -229.092 1979.32 -166.509C1963.92 -144.073 1947.99 -120.871 1932.15 -97.0822C1875.25 -10.0321 1832.66 77.0278 1801.56 140.595C1775.24 202.052 1750.41 260.065 1711.86 302.623C1677.55 342.042 1624.21 369.557 1557.58 382.213C1490.82 394.89 1414.05 392.001 1335.56 373.859C1247.69 356.976 1176.43 324.321 1123.78 276.798C1076.71 234.377 1037.7 171.01 1004.53 83.0785C976.171 11.3561 960.737 -70.641 957.347 -167.602C954.999 -243.738 963.883 -305.559 985.302 -362.159C988.974 -371.862 993.086 -381.569 997.53 -391.007C1020.88 -451.285 1078.23 -540.971 1150.98 -630.992C1226.39 -724.311 1301.17 -797.06 1356.17 -830.585C1467.92 -929.681 1527.28 -894.346 1617.12 -840.861C1653.7 -819.088 1695.15 -794.41 1747.5 -773.832C1786.29 -758.122 1821.49 -744.569 1852.54 -732.606C2007.55 -672.901 2078.3 -645.652 2127.97 -535.157C2144.46 -500.356 2143.81 -458.897 2126.03 -411.933ZM984.332 -362.526C962.835 -305.717 953.921 -243.7 956.27 -167.35C959.669 -70.2229 975.13 11.9147 1003.54 83.7662C1036.77 171.849 1075.86 235.345 1123.05 277.869C1175.82 325.496 1247.2 358.218 1335.21 375.126C1413.8 393.292 1490.7 396.183 1557.58 383.481C1624.46 370.779 1678.03 343.12 1712.52 303.493C1751.24 260.751 1776.13 202.615 1802.48 141.067C1833.55 77.5748 1876.12 -9.42941 1932.95 -96.3914C1948.78 -120.161 1964.7 -143.358 1980.1 -165.795C2023.08 -228.42 2063.68 -287.579 2093.01 -345.655C2107.58 -368.304 2119.03 -390.503 2127 -411.567C2144.93 -458.937 2145.58 -500.775 2128.94 -535.913C2079.1 -646.751 2008.25 -674.045 1853.01 -733.84C1821.96 -745.797 1786.77 -759.349 1747.98 -775.056C1695.69 -795.618 1654.27 -820.276 1617.72 -842.031C1571.35 -869.63 1534.73 -891.439 1494.65 -894.505C1451.33 -897.822 1408.48 -878.432 1355.73 -831.645C1300.69 -798.113 1225.77 -725.244 1150.26 -631.802C1077.43 -541.67 1019.98 -451.807 996.59 -391.439C992.156 -382.016 988.02 -372.271 984.332 -362.526Z" fill="#EDE9F6"/>
<path d="M2103.35 -410.867C2096.74 -393.387 2087.88 -375.1 2077.02 -356.495C2046.59 -283.669 1999.43 -209.114 1949.51 -130.197C1942.73 -119.48 1935.89 -108.672 1929.02 -97.743C1887.86 -30.8817 1853.36 33.162 1822.92 89.6655C1813.77 106.664 1805.11 122.718 1796.73 138.032C1767.42 201.244 1742.03 252.674 1704.3 291.822C1670.42 329.272 1618.47 355.708 1554.05 368.288C1489.48 380.895 1415.34 378.993 1339.66 362.782C1252.32 348.82 1181.79 319.256 1130.02 274.896C1082.79 234.722 1043.77 173.561 1010.75 87.9192C980.897 15.1461 964.903 -71.6748 963.199 -170.148C962.272 -240.439 971.294 -298.155 991.584 -351.774C997.072 -366.277 1003.52 -380.712 1010.75 -394.685C1034.08 -452.498 1089.64 -538.005 1159.43 -623.484C1232.02 -712.39 1304.16 -782.095 1357.35 -814.715C1466.1 -910.747 1524.69 -878.066 1613.37 -828.586C1648.19 -809.158 1687.65 -787.141 1736.84 -768.749C1773.59 -754.418 1807.08 -741.997 1836.62 -731.047C1987.07 -675.256 2055.74 -649.792 2104.76 -543.999C2123.34 -507.213 2122.86 -462.43 2103.35 -410.867ZM990.613 -352.141C970.247 -298.321 961.197 -240.421 962.126 -169.917C963.828 -71.2727 979.862 15.7121 1009.77 88.6159C1042.84 174.412 1081.95 235.704 1129.31 275.983C1181.2 320.44 1251.86 350.074 1339.33 364.053C1415.1 380.285 1489.36 382.187 1554.05 369.554C1618.71 356.928 1670.89 330.36 1704.94 292.717C1742.82 253.412 1768.28 201.861 1797.62 138.559C1805.99 123.293 1814.64 107.237 1823.8 90.2338C1854.23 33.7496 1888.72 -30.2718 1929.85 -97.0883C1936.72 -108.003 1943.55 -118.814 1950.33 -129.527C2000.29 -208.508 2047.48 -283.117 2077.91 -355.98C2088.77 -374.555 2097.67 -392.937 2104.32 -410.5C2123.99 -462.481 2124.46 -507.652 2105.72 -544.768C2056.54 -650.907 1987.76 -676.403 1837.08 -732.274C1807.54 -743.232 1774.06 -755.642 1737.31 -769.98C1688.17 -788.358 1648.74 -810.353 1613.95 -829.77C1568.18 -855.304 1532.03 -875.47 1492.66 -877.759C1450.11 -880.233 1408.24 -861.123 1356.9 -815.775C1303.67 -783.142 1231.41 -713.334 1158.73 -624.306C1088.84 -538.706 1033.18 -453.046 1009.83 -395.157C1002.6 -381.2 996.124 -366.702 990.613 -352.141Z" fill="#EDE9F6"/>
<path d="M2052.66 -345.259C2023.27 -267.587 1977.32 -187.794 1924.71 -99.0307C1903.58 -62.5337 1884.03 -27.7232 1865.11 5.94063C1838.62 53.1109 1813.58 97.6654 1790.7 135.109C1762.15 191.907 1735.31 242.034 1695.55 280.829C1662.1 316.368 1611.6 341.789 1549.48 354.359C1487.19 366.968 1415.82 366.117 1343.08 351.905C1256.42 340.977 1186.75 314.548 1135.99 273.348C1088.72 235.471 1049.82 176.521 1017.08 93.1294C985.446 18.2963 969.435 -71.0443 969.481 -172.43C969.778 -236.437 979.096 -291.795 997.964 -341.656C1005.23 -360.854 1014.17 -379.904 1024.54 -398.28C1071.76 -510.456 1245.7 -729.206 1358.94 -799.316C1464.66 -892.479 1522.4 -862.508 1609.82 -817.145C1642.75 -800.049 1680.07 -780.68 1725.95 -764.484C1760.49 -751.565 1792.13 -740.335 1820.04 -730.419C1965.77 -678.662 2032.29 -655.044 2080.51 -553.87C2101.43 -514.873 2101.08 -466.176 2079.49 -409.122C2074.4 -395.676 2068.07 -381.721 2060.69 -367.643C2058.19 -360.251 2055.5 -352.758 2052.66 -345.259ZM996.995 -342.023C978.055 -291.974 968.706 -236.431 968.41 -172.225C968.359 -70.6522 984.407 18.864 1016.1 93.8363C1048.9 177.389 1087.89 236.472 1135.29 274.45C1186.18 315.752 1255.99 342.239 1342.77 353.18C1415.59 367.41 1487.08 368.26 1549.49 355.63C1611.84 343.011 1662.56 317.464 1696.17 281.752C1736.08 242.811 1762.98 192.564 1791.56 135.694C1814.43 98.2836 1839.47 53.7145 1865.98 6.53496C1884.89 -27.1289 1904.44 -61.9302 1925.55 -98.41C1978.2 -187.235 2024.19 -267.096 2053.63 -344.894C2056.47 -352.409 2059.16 -359.92 2061.63 -367.215C2068.99 -381.231 2075.34 -395.251 2080.45 -408.757C2102.21 -466.247 2102.55 -515.334 2081.45 -554.662C2058.1 -603.664 2029.75 -635.805 1986.68 -662.105C1945.46 -687.281 1893.04 -705.899 1820.49 -731.662C1792.58 -741.572 1760.95 -752.807 1726.4 -765.719C1680.58 -781.906 1643.28 -801.26 1610.37 -818.339C1565.25 -841.748 1529.62 -860.246 1491.02 -861.702C1449.27 -863.274 1408.4 -844.361 1358.49 -800.378C1307.12 -768.577 1237.56 -701.715 1167.74 -616.98C1100.85 -535.818 1046.98 -454.247 1023.64 -398.787C1013.27 -380.426 1004.29 -361.303 996.995 -342.023Z" fill="#EDE9F6"/>
<path d="M2022.3 -307.052C1994.71 -234.161 1955.74 -161.221 1921.25 -99.486C1876.02 -16.3704 1828.29 70.0111 1785.62 132.606C1753.24 191.84 1725.61 235.449 1687.8 269.993C1620.22 338.681 1489.71 365.783 1347.17 340.744C1261.06 332.811 1192.15 309.483 1142.32 271.404C1094.92 235.852 1056.04 179.143 1023.46 98.0319C990.391 22.2833 973.81 -72.0425 975.499 -174.756C976.711 -233.815 985.903 -285.258 1003.6 -332.016C1012.67 -356 1023.89 -378.763 1037.9 -401.599C1061.2 -454.512 1113.16 -531.694 1176.96 -608.165C1243.82 -688.316 1310.56 -751.983 1360.07 -782.843C1462.83 -872.971 1519.9 -845.726 1606.28 -804.489C1637.31 -789.672 1672.47 -772.882 1715.03 -758.811C1747.32 -747.315 1777.07 -737.258 1803.32 -728.395C1940.42 -682.032 2009.24 -658.764 2056.85 -562.23C2080.21 -521.331 2080.02 -466.639 2056.34 -404.05C2053.05 -395.367 2049.29 -386.444 2045.13 -377.515C2039.16 -355.014 2031.49 -331.355 2022.3 -307.052ZM1002.63 -332.382C984.867 -285.443 975.642 -233.827 974.423 -174.577C972.732 -71.6627 989.353 22.8533 1022.49 98.7481C1055.13 180.02 1094.11 236.872 1141.65 272.522C1191.61 310.695 1260.65 334.08 1346.88 342.024C1489.7 367.109 1620.57 339.874 1688.39 270.943C1730.43 232.533 1759.88 181.86 1786.45 133.251C1829.12 70.6586 1876.87 -15.7592 1922.12 -98.9072C1956.63 -160.686 1995.64 -233.688 2023.26 -306.686C2032.48 -331.035 2040.16 -354.756 2046.1 -377.173C2050.22 -386 2054.01 -394.958 2057.31 -403.683C2081.16 -466.717 2081.33 -521.82 2057.78 -563.038C2010.02 -659.891 1941.08 -683.199 1803.75 -729.631C1777.51 -738.502 1747.77 -748.56 1715.47 -760.057C1672.96 -774.109 1637.82 -790.888 1606.81 -805.69C1562.23 -826.976 1527.01 -843.789 1489.07 -844.431C1448.06 -845.125 1408.13 -826.455 1359.61 -783.899C1310.08 -753.034 1243.21 -689.259 1176.26 -608.997C1112.38 -532.42 1060.32 -455.096 1037.01 -402.148C1023.01 -379.321 1011.74 -356.466 1002.63 -332.382Z" fill="#EDE9F6"/>
<path d="M1993.17 -264.418C1974.62 -215.412 1949.88 -161.67 1917.54 -100.125C1865.58 1.54088 1820.65 76.8521 1780.2 130.124C1748.64 183.082 1719.49 225.277 1679.64 259.3C1613.08 323.835 1487.09 350.863 1350.79 329.863C1265.22 324.973 1197.06 304.745 1148.18 269.735C1100.67 236.521 1061.81 182.016 1029.39 103.115C985.235 4.87538 978.769 -103.481 981.119 -177.084C983.081 -231.69 992.089 -279.527 1008.66 -323.318C1019.35 -351.561 1033.17 -378.31 1050.92 -405.092C1098.37 -507.84 1257.23 -701.678 1361.01 -766.897C1460.94 -854.141 1517.41 -829.653 1602.88 -792.582C1631.91 -779.993 1664.81 -765.723 1703.98 -753.74C1733.89 -743.679 1761.64 -734.814 1786.12 -726.996C1919.21 -684.49 1986.01 -663.152 2033.04 -571.133C2059.58 -527.411 2059.56 -467.212 2032.99 -397.009C2031.84 -393.962 2030.62 -390.856 2029.37 -387.775C2021.63 -348.682 2009.8 -308.378 1993.17 -264.418ZM1007.69 -323.684C991.055 -279.719 982.012 -231.716 980.046 -176.927C977.692 -103.175 984.176 5.39788 1028.42 103.839C1060.91 182.911 1099.86 237.552 1147.53 270.868C1196.53 305.97 1264.84 326.253 1350.53 331.146C1487.08 352.184 1613.42 325.029 1680.2 260.277C1720.17 226.154 1749.4 183.845 1780.99 130.827C1821.45 77.5524 1866.42 2.16168 1918.43 -99.5756C1950.8 -161.176 1975.56 -214.979 1994.13 -264.051C2010.8 -308.102 2022.65 -348.491 2030.37 -387.526C2031.58 -390.461 2032.8 -393.581 2033.96 -396.642C2060.7 -467.296 2060.7 -527.922 2033.96 -571.955C1986.77 -664.291 1919.86 -685.665 1786.55 -728.245C1762.07 -736.064 1734.33 -744.92 1704.4 -754.979C1665.27 -766.96 1632.39 -781.219 1603.38 -793.801C1517.6 -831.007 1460.92 -855.583 1360.56 -767.954C1256.67 -702.682 1097.53 -508.504 1050.06 -405.675C1032.31 -378.902 1018.42 -352.046 1007.69 -323.684Z" fill="#EDE9F6"/>
<path d="M1965.96 -221.948C1951.42 -183.522 1934.11 -144.078 1913.04 -101.38C1866 -3.22308 1819.21 73.7065 1773.97 127.28C1746.7 169.178 1715.36 212.79 1670.7 248.404C1605.18 308.9 1483.83 335.974 1353.96 319.088C1267.81 317.325 1202.37 300.717 1153.88 268.301C1106.32 237.47 1067.58 185.172 1035.43 108.421C999.215 29.7698 982.067 -72.4162 987.139 -179.328C989.73 -229.953 998.541 -274.51 1014.07 -315.543C1026.27 -347.786 1042.75 -378.259 1064.44 -408.712C1111.96 -506.621 1261.72 -687.585 1362.37 -751.544C1459.52 -836.109 1515.4 -814.455 1599.99 -781.674C1626.86 -771.263 1657.31 -759.461 1692.92 -749.529C1720.28 -740.935 1745.85 -733.29 1768.42 -726.553C1897.52 -688.008 1962.32 -668.656 2008.7 -581.046C2044.96 -524.711 2031.01 -450.929 2012.94 -398.947L2012.9 -398.784C2005.35 -343.323 1990 -285.478 1965.96 -221.948ZM1013.1 -315.908C997.514 -274.71 988.669 -229.994 986.062 -179.196C980.986 -72.0604 998.17 30.3439 1034.46 109.157C1066.69 186.086 1105.54 238.52 1153.24 269.453C1201.87 301.951 1267.45 318.61 1353.72 320.371C1483.82 337.288 1605.5 310.098 1671.23 249.411C1716 213.699 1747.43 169.971 1774.72 128.041C1819.99 74.4416 1866.85 -2.60016 1913.95 -100.87C1935.03 -143.611 1952.36 -183.096 1966.92 -221.583C1991 -285.205 2006.38 -343.142 2013.95 -398.703C2032.12 -450.995 2046.1 -525.194 2009.61 -581.895C1963.07 -669.806 1898.16 -689.19 1768.84 -727.809C1746.27 -734.546 1720.7 -742.18 1693.34 -750.785C1657.75 -760.705 1627.31 -772.499 1600.46 -782.911C1515.56 -815.801 1459.48 -837.537 1361.92 -752.602C1261.17 -688.583 1111.15 -507.3 1063.61 -409.335C1041.9 -378.886 1025.35 -348.283 1013.1 -315.908Z" fill="#EDE9F6"/>
<path d="M1943.51 -182.262C1933.58 -156.012 1922.16 -128.922 1909.59 -101.733C1866.23 -5.17741 1817.55 73.2194 1768.82 124.998C1732.26 176.141 1700.57 209.87 1662.81 237.855C1631.04 265.591 1586.2 286.754 1533.08 299.083C1479.65 311.485 1419.02 314.658 1357.77 308.256C1272.08 309.647 1207.36 296.04 1159.83 266.649C1112.16 238.207 1073.41 188.121 1041.39 113.531C1003.26 32.9027 985.97 -71.8946 992.698 -181.581C995.754 -228.583 1004.3 -270.108 1018.84 -308.528C1032.44 -344.45 1051.59 -378.315 1077.39 -412.064C1125.48 -505.973 1266.78 -673.491 1363.24 -735.296C1457.78 -817.099 1513.32 -798.299 1597.39 -769.839C1622 -761.509 1649.9 -752.06 1681.89 -744.08C1706.56 -736.93 1728.85 -730.783 1750.41 -724.841C1876.02 -690.195 1939.07 -672.807 1985.04 -589.543C2022.56 -534.701 2012.46 -461.01 1997.39 -408.847L1997.36 -408.681C1991.83 -338.25 1973.72 -262.072 1943.51 -182.262ZM1017.88 -308.895C1003.28 -270.319 994.692 -228.637 991.626 -181.472C984.88 -71.5502 1002.21 33.4786 1040.42 114.275C1072.52 189.046 1111.39 239.276 1159.23 267.817C1206.88 297.29 1271.76 310.94 1357.56 309.544C1418.86 315.95 1479.58 312.771 1533.12 300.342C1586.41 287.975 1631.43 266.721 1663.3 238.884C1701.15 210.84 1732.93 177.017 1769.52 125.819C1818.31 73.9941 1867.08 -4.55646 1910.51 -101.265C1923.1 -128.477 1934.53 -155.609 1944.48 -181.896C1974.72 -261.82 1992.87 -338.124 1998.43 -408.689C2013.57 -461.15 2023.68 -535.233 1985.94 -590.403C1939.81 -673.966 1876.64 -691.39 1750.8 -726.098C1729.25 -732.04 1706.97 -738.184 1682.28 -745.337C1650.31 -753.313 1622.43 -762.755 1597.82 -771.086C1513.46 -799.644 1457.72 -818.511 1362.78 -736.355C1318.72 -708.13 1259.9 -653.386 1201.46 -586.226C1146.59 -523.155 1099.9 -458.294 1076.57 -412.718C1050.75 -378.971 1031.53 -344.97 1017.88 -308.895Z" fill="#EDE9F6"/>
<path d="M1924.8 -149.981C1918.91 -134.427 1912.5 -118.631 1905.75 -103.027C1864.89 -5.78183 1815.64 71.9905 1763.3 121.901C1727.68 167.103 1694.17 199.36 1654.58 226.566C1590.07 279.654 1480.52 305.925 1361.48 296.869C1276.34 301.505 1212.39 290.928 1165.92 264.532C1118.18 238.519 1079.5 190.652 1047.66 118.198C1007.68 35.6017 990.323 -71.8286 998.766 -184.321C1002.2 -228.082 1010.51 -266.872 1024.15 -302.91C1039.04 -342.27 1060.87 -379.261 1090.88 -416.003C1138.53 -503.888 1274.12 -661.283 1364.56 -719.865C1456.62 -799.101 1511.93 -783.254 1595.65 -759.252C1617.78 -752.909 1642.87 -745.712 1671.01 -739.618C1692.77 -733.908 1712.64 -728.939 1731.86 -724.135C1850.33 -694.496 1915.59 -678.171 1961.17 -599.139C1999.85 -545.831 1993.59 -472.198 1981.53 -419.806C1979.34 -334.419 1960.26 -243.69 1924.8 -149.981ZM1023.18 -303.278C1009.48 -267.093 1001.15 -228.151 997.698 -184.234C989.233 -71.4949 1006.63 36.1746 1046.7 118.95C1078.62 191.594 1117.43 239.609 1165.34 265.713C1211.94 292.188 1276.04 302.801 1361.3 298.154C1480.52 307.226 1590.35 280.862 1655.04 227.625C1694.7 200.372 1728.31 168.023 1763.95 122.78C1816.37 72.807 1865.75 -5.1539 1906.69 -102.591C1913.45 -118.219 1919.87 -134.045 1925.77 -149.615C1961.29 -243.498 1980.41 -334.402 1982.58 -419.818C1994.69 -472.338 2000.98 -546.393 1962.06 -600.024C1916.32 -679.346 1850.93 -695.703 1732.24 -725.397C1713.02 -730.203 1693.15 -735.173 1671.38 -740.877C1643.25 -746.971 1618.18 -754.162 1596.05 -760.509C1512.04 -784.587 1456.55 -800.494 1364.1 -720.923C1321.26 -693.173 1266.56 -642.777 1210.17 -579.063C1158.35 -520.511 1113.46 -459.81 1090.09 -416.695C1060.05 -379.945 1038.13 -342.807 1023.18 -303.278Z" fill="#EDE9F6"/>
<path d="M1909.23 -123.542C1906.71 -116.883 1904.07 -110.151 1901.4 -103.535C1862.82 -5.21175 1813.02 71.8854 1757.36 119.42C1722.99 158.789 1687.63 189.394 1646.01 215.817C1582.51 264.775 1477.49 290.977 1365.03 285.937C1279.27 293.973 1217.93 286.645 1171.94 262.876C1124.16 239.335 1085.56 193.72 1053.92 123.424C1012.71 40.1412 994.822 -72.734 1004.83 -186.281C1008.57 -227.092 1016.61 -263.381 1029.42 -297.217C1045.74 -340.355 1069.54 -379.044 1104.3 -418.98C1151.74 -501.305 1278.83 -646.372 1365.63 -703.228C1455.4 -780.021 1510.68 -767.208 1594.36 -747.813C1613.73 -743.327 1635.68 -738.241 1659.72 -733.908C1678.28 -729.621 1695.47 -725.814 1712.09 -722.14C1827.73 -696.553 1891.44 -682.466 1936.74 -607.57C1976.54 -555.867 1974.13 -482.327 1965.1 -429.733C1967.43 -332.115 1948.1 -226.278 1909.23 -123.542ZM1028.45 -297.584C1015.59 -263.604 1007.51 -227.174 1003.77 -186.213C993.731 -72.4122 1011.67 40.724 1052.97 124.19C1084.7 194.679 1123.43 240.442 1171.39 264.073C1217.52 287.916 1279.01 295.273 1364.88 287.22C1477.5 292.27 1582.78 265.983 1646.43 216.899C1688.12 190.443 1723.57 159.754 1757.96 120.354C1813.73 72.7299 1863.68 -4.57959 1902.35 -103.139C1905.03 -109.759 1907.67 -116.504 1910.19 -123.177C1949.15 -226.115 1968.5 -332.148 1966.16 -429.821C1975.23 -482.545 1977.64 -556.483 1937.61 -608.478C1892.14 -683.651 1828.32 -697.774 1712.44 -723.407C1695.82 -727.082 1678.64 -730.882 1660.06 -735.177C1636.03 -739.512 1614.08 -744.595 1594.73 -749.079C1551.47 -759.104 1517.31 -767.024 1481.83 -762.999C1443.53 -758.653 1407.55 -740.55 1365.17 -704.288C1324.21 -677.463 1272.18 -630.049 1218.73 -570.816C1170 -516.823 1126.94 -460.339 1103.54 -419.717C1068.73 -379.756 1044.84 -340.909 1028.45 -297.584Z" fill="#EDE9F6"/>
<path d="M1895.12 -96.0972C1858.91 -0.394227 1809.56 73.2255 1752.4 116.799C1718.69 151.396 1683.51 178.557 1638.28 204.926C1575.65 249.804 1475 275.904 1368.99 274.781C1283.65 286.17 1222.99 281.752 1178.05 260.888C1130.83 240.096 1091.13 195.452 1060.03 128.178C1016.89 42.9517 998.847 -72.6124 1010.52 -188.9C1014.47 -227.075 1022.26 -261.116 1034.31 -292.965C1051.79 -339.152 1078.19 -380.381 1117.39 -422.702C1166.31 -502.167 1283.25 -632.173 1366.66 -687.395C1454.57 -762.001 1507.28 -752.831 1594.61 -737.64C1611.64 -734.68 1629.25 -731.617 1648.85 -728.873C1663.91 -725.923 1678.09 -723.255 1691.79 -720.662C1805.36 -699.259 1867.91 -687.468 1913.22 -616.469C1954.2 -566.352 1955.69 -492.848 1949.73 -440.002C1957.45 -330.388 1939.61 -214.328 1898.15 -104.236C1897.15 -101.496 1896.14 -98.7913 1895.12 -96.0972ZM1033.34 -293.333C1021.23 -261.347 1013.42 -227.169 1009.46 -188.853C997.752 -72.2996 1015.84 43.5339 1059.08 128.949C1090.27 196.421 1130.12 241.226 1177.54 262.099C1222.62 283.03 1283.42 287.47 1368.87 276.064C1475.02 277.195 1575.9 251.013 1638.66 206.035C1683.96 179.637 1719.22 152.408 1752.95 117.788C1810.25 74.1119 1859.77 0.256075 1896.09 -95.73C1897.11 -98.4288 1898.12 -101.139 1899.12 -103.879C1940.66 -214.184 1958.53 -330.476 1950.8 -440.174C1956.79 -493.145 1955.28 -567.014 1914.08 -617.391C1868.6 -688.67 1805.91 -700.483 1692.13 -721.94C1678.41 -724.521 1664.24 -727.195 1649.16 -730.147C1629.55 -732.89 1611.95 -735.958 1594.93 -738.915C1551.3 -746.505 1516.83 -752.497 1481.43 -747.375C1443.25 -741.857 1407.72 -723.685 1366.2 -688.449C1327.09 -662.559 1277.65 -618.116 1227.07 -563.352C1181.41 -513.92 1140.13 -461.626 1116.65 -423.472C1077.4 -381.119 1050.89 -339.725 1033.34 -293.333Z" fill="#EDE9F6"/>
<path d="M1886.68 -83.5888C1852.43 6.91604 1804.11 75.2948 1746.94 114.155C1714.89 143.437 1678.86 168.095 1630.04 194.164C1568.19 235.101 1471.96 261.196 1372.56 263.994C1286.5 279.074 1228.34 277.656 1183.91 259.394C1136.62 241.065 1096.97 198.67 1066.03 133.384C1021.03 46.164 1002.92 -72.1848 1016.34 -191.339C1020.48 -227.161 1028.02 -259.197 1039.4 -289.269C1058 -338.418 1087.02 -382.033 1130.72 -426.53C1179.21 -499.934 1288.5 -618.747 1367.97 -672.065C1454.52 -745 1508.1 -738.956 1596.87 -728.956C1609.96 -727.488 1623.5 -725.954 1638.09 -724.576C1649.18 -722.862 1659.86 -721.258 1670.13 -719.713C1782.28 -702.86 1844.06 -693.575 1889.58 -626.188C1931.63 -577.68 1936.99 -504.13 1934.1 -450.97C1947.11 -336.068 1933.4 -216.576 1894.46 -105.27C1891.97 -97.9528 1889.36 -90.6592 1886.68 -83.5888ZM1038.44 -289.635C1027.01 -259.433 1019.43 -227.27 1015.28 -191.306C1001.83 -71.8784 1019.98 46.7486 1065.09 134.165C1096.11 199.658 1135.94 242.213 1183.42 260.621C1228 278.941 1286.31 280.376 1372.48 265.276C1471.98 262.476 1568.42 236.315 1630.39 195.296C1679.26 169.209 1715.36 144.493 1747.42 115.19C1804.77 76.2212 1853.28 7.59067 1887.65 -83.2231C1890.33 -90.3121 1892.95 -97.6219 1895.45 -104.957C1934.46 -216.474 1948.2 -336.215 1935.16 -451.212C1938.08 -504.499 1932.68 -578.388 1890.42 -627.137C1844.72 -694.803 1782.81 -704.104 1670.43 -720.993C1660.15 -722.539 1649.48 -724.141 1638.37 -725.857C1623.76 -727.237 1610.22 -728.763 1597.14 -730.241C1552.71 -735.241 1517.62 -739.201 1482.04 -732.842C1443.7 -725.985 1408.38 -707.57 1367.5 -673.119C1287.97 -619.757 1178.49 -500.746 1130.01 -427.337C1086.25 -382.797 1057.12 -339.003 1038.44 -289.635Z" fill="#EDE9F6"/>
<path d="M1879.34 -74.0157C1846.58 12.5733 1798.84 76.6862 1741.3 111.393C1705.84 139.962 1667.86 160.742 1621.71 183.163C1559.61 220.745 1470.14 246.13 1376.2 252.839C1318.57 265.398 1245.38 277.265 1189.93 257.491C1142.61 241.658 1103.02 201.556 1072.25 138.299C1026.08 50.4816 1007.42 -73.637 1022.33 -193.732C1026.6 -227.387 1033.9 -257.561 1044.66 -285.976C1064.58 -338.617 1095.24 -383.052 1144.1 -430.042C1192.97 -498.542 1294.99 -605.659 1369.12 -656.084C1455.07 -727.889 1510.33 -725.183 1601.88 -720.702C1609.98 -720.312 1618.34 -719.9 1627.03 -719.523C1633.51 -718.831 1639.86 -718.168 1646.07 -717.507C1754.17 -706.125 1819.41 -699.248 1865.51 -635.204C1908.58 -588.374 1917.85 -514.848 1918.05 -461.403C1936.21 -343.235 1926.41 -217.107 1890.47 -106.155C1887.01 -95.2029 1883.27 -84.389 1879.34 -74.0157ZM1043.69 -286.343C1032.89 -257.802 1025.55 -227.505 1021.27 -193.722C1014.28 -137.412 1014.55 -78.4255 1022.05 -23.1216C1030.37 38.1643 1046.93 92.7376 1071.31 139.085C1102.19 202.568 1141.95 242.827 1189.49 258.734C1245.13 278.577 1318.48 266.69 1376.16 254.116C1470.18 247.404 1559.82 221.961 1622.02 184.322C1668.19 161.888 1706.24 141.071 1741.72 112.474C1799.47 77.651 1847.42 13.2742 1880.31 -73.6493C1884.25 -84.0505 1888 -94.8953 1891.46 -105.873C1909.39 -161.196 1920.9 -219.745 1925.67 -279.889C1930.51 -340.831 1928.3 -402.006 1919.12 -461.722C1918.93 -515.283 1909.6 -589.134 1866.34 -636.172C1820.05 -700.492 1754.66 -707.382 1646.33 -718.796C1640.12 -719.442 1633.77 -720.114 1627.27 -720.81C1618.55 -721.182 1610.19 -721.596 1602.1 -721.989C1510.31 -726.484 1454.9 -729.196 1368.65 -657.141C1294.46 -606.663 1192.28 -499.387 1143.42 -430.889C1094.49 -383.831 1063.7 -339.222 1043.69 -286.343Z" fill="#EDE9F6"/>
<path d="M1872.61 -66.0343C1840.98 17.5585 1793.51 78.1226 1735.34 109.105C1697.98 135.357 1656.75 153.481 1613.1 172.666C1551.33 206.443 1466.24 231.787 1379.61 242.217C1318.75 258.17 1249.37 272.288 1195.78 256.147C1148.46 242.837 1108.94 205.032 1078.35 143.78C1030.35 54.0883 1011.63 -72.7613 1028.26 -195.557C1032.63 -227.228 1039.7 -255.7 1049.88 -282.603C1070.83 -337.96 1103.99 -384.347 1157.41 -433.003C1206.43 -496.177 1299.36 -590.672 1370.17 -639.594C1456.99 -711.427 1515.45 -712.369 1612.3 -713.933L1615.82 -713.992L1618.63 -713.85C1727.95 -708.31 1793.95 -704.97 1841.21 -643.755C1885.22 -598.655 1898.41 -525.134 1901.74 -471.392C1925.27 -348.45 1919.72 -218.925 1886.14 -106.588C1882.07 -92.6409 1877.52 -78.9997 1872.61 -66.0343ZM1048.91 -282.97C1038.68 -255.948 1031.58 -227.357 1027.2 -195.559C1010.53 -72.4766 1029.3 54.6782 1077.4 144.579C1108.13 206.061 1147.81 244.022 1195.38 257.402C1249.17 273.603 1318.69 259.455 1379.62 243.487C1466.3 233.053 1551.52 207.663 1613.37 173.844C1657.03 154.657 1698.31 136.513 1735.7 110.232C1794.11 79.1257 1841.81 18.2869 1873.58 -65.6681C1878.5 -78.673 1883.06 -92.3567 1887.15 -106.342C1920.8 -218.914 1926.36 -348.698 1902.8 -471.777C1899.47 -525.636 1886.21 -599.454 1842.02 -644.75C1794.55 -706.236 1728.41 -709.585 1618.84 -715.133L1616 -715.275L1612.46 -715.218C1515.38 -713.652 1456.8 -712.706 1369.71 -640.653C1298.83 -591.679 1205.77 -497.057 1156.76 -433.885C1103.25 -385.157 1069.95 -338.582 1048.91 -282.97Z" fill="#EDE9F6"/>
<path d="M1867.61 -60.1852C1836.89 21.0097 1789.46 78.4782 1730.44 106.016C1698.86 125.073 1663.97 138.589 1627.05 152.902C1620 155.634 1612.82 158.417 1605.51 161.294C1543.24 191.55 1462.49 216.811 1383.93 230.609C1323.38 249.2 1254.51 266.473 1202.44 253.731C1155.08 242.944 1115.6 207.433 1085.13 148.174C1035.25 56.6206 1016.41 -72.9291 1034.72 -198.372C1039.14 -228.219 1045.97 -255.122 1055.62 -280.612C1077.56 -338.587 1113.21 -386.768 1171.22 -436.827C1219.93 -494.009 1304.41 -576.557 1371.78 -623.832C1455.26 -692.065 1515.68 -701.544 1605.27 -709.056C1706.45 -710.707 1770.86 -708.875 1817.75 -652.836C1862.68 -609.478 1879.86 -535.969 1886.36 -481.931C1915.37 -354.361 1914.13 -221.487 1882.88 -107.698C1878.45 -91.2164 1873.31 -75.231 1867.61 -60.1852ZM1054.65 -280.979C1044.96 -255.375 1038.1 -228.363 1033.66 -198.394C1015.31 -72.6471 1034.2 57.2068 1084.19 148.977C1114.8 208.48 1154.46 244.154 1202.07 254.996C1254.34 267.786 1323.36 250.48 1383.98 231.87C1462.57 218.067 1543.42 192.777 1605.73 162.493C1613 159.634 1620.17 156.853 1627.22 154.122C1664.2 139.791 1699.12 126.255 1730.74 107.18C1759.22 93.8939 1785.36 73.2968 1808.4 45.9841C1832.64 17.2332 1852.89 -18.3649 1868.58 -59.8197C1874.29 -74.9166 1879.44 -90.9523 1883.9 -107.486C1915.22 -221.514 1916.46 -354.651 1887.41 -482.378C1880.9 -536.535 1863.65 -610.317 1818.54 -653.852C1771.43 -710.155 1706.86 -711.996 1605.4 -710.339C1515.58 -702.817 1455.02 -693.307 1371.31 -624.884C1303.89 -577.576 1219.3 -494.924 1170.62 -437.749C1112.48 -387.594 1076.69 -339.22 1054.65 -280.979Z" fill="#EDE9F6"/>
<path d="M1861.91 -54.9309C1831.88 24.4365 1784.28 79.2805 1724.28 103.662C1696.7 117.692 1666.73 127.516 1635 137.919C1622.6 141.985 1609.78 146.191 1596.62 150.796C1549.6 170.736 1475.09 198.932 1386.91 220.085C1323.6 242.507 1258.12 261.944 1207.74 252.526C1160.36 244.304 1120.95 211.057 1090.62 153.714C1038.91 60.2131 1020.01 -72.1769 1040.08 -200.445C1044.48 -228.259 1051.3 -254.481 1060.34 -278.371C1083.28 -338.978 1121.44 -388.912 1184.07 -440.283C1228.32 -487.162 1304.17 -559.17 1372.52 -608.038C1451.06 -671.429 1510.91 -690.784 1593.92 -704.33C1691.81 -713.983 1749.56 -710.111 1793.44 -662.166C1839.2 -620.548 1860.35 -546.966 1870.03 -492.557C1904.5 -360.319 1907.49 -223.923 1878.47 -108.434C1873.83 -89.7125 1868.26 -71.7124 1861.91 -54.9309ZM1059.37 -278.737C1050.29 -254.74 1043.45 -228.41 1039.03 -200.483C1029.72 -140.981 1028.82 -77.9371 1036.44 -18.164C1044.72 46.8069 1063.14 106.525 1089.69 154.527C1120.16 212.129 1159.76 245.532 1207.42 253.801C1258 263.253 1323.62 243.782 1387 221.33C1475.2 200.176 1549.77 171.958 1596.79 152.014C1609.91 147.425 1622.73 143.223 1635.12 139.155C1666.89 128.742 1696.9 118.906 1724.51 104.857C1753.46 93.0928 1779.9 73.9156 1803.03 47.8695C1827.4 20.4368 1847.54 -14.0252 1862.88 -54.5647C1869.25 -71.4089 1874.84 -89.4718 1879.49 -108.253C1908.58 -223.991 1905.58 -360.648 1871.07 -493.063C1861.37 -547.595 1840.14 -621.43 1794.2 -663.201C1772.43 -686.995 1745.98 -700.788 1710.97 -706.582C1675.8 -712.398 1633.96 -709.552 1593.98 -705.609C1510.76 -692.028 1450.77 -672.624 1372.06 -609.088C1303.66 -560.194 1227.73 -488.111 1183.51 -441.243C1120.72 -389.763 1082.41 -339.623 1059.37 -278.737Z" fill="#EDE9F6"/>
<path d="M1857.5 -50.6285C1828.07 27.1396 1780.23 79.5259 1719.15 100.869C1694.56 111.131 1668.1 118.097 1640.09 125.474C1623.57 129.824 1606.49 134.319 1588.84 139.737C1576.87 144.039 1564.37 148.591 1551.4 153.317C1503.14 170.899 1448.45 190.823 1391.09 208.814C1318.31 238.086 1260.42 256.36 1214.34 250.455C1166.95 244.799 1127.61 213.852 1097.41 158.468C1044.63 64.5516 1025.16 -73.8965 1046.6 -202.853C1051.02 -229.133 1057.61 -253.971 1066.2 -276.671C1090.4 -340.623 1129.8 -390.571 1197.93 -443.688C1219.67 -464.181 1296.47 -535.298 1374.13 -591.881C1444.81 -648.019 1505.41 -679.053 1583.32 -699.022C1651.45 -712.672 1721.21 -718.715 1769.83 -670.875C1806.66 -639.357 1835.91 -581.233 1854.45 -502.762C1894.43 -366.1 1901.71 -226.354 1874.95 -109.253C1870.26 -88.5724 1864.39 -68.8492 1857.5 -50.6285ZM1065.23 -277.038C1056.6 -254.238 1049.98 -229.294 1045.55 -202.904C1035.49 -142.375 1034.22 -78.0219 1041.89 -16.7932C1050.21 49.654 1069.09 110.541 1096.49 159.291C1126.83 214.942 1166.39 246.046 1214.06 251.733C1260.33 257.667 1318.35 239.356 1391.24 210.044C1448.58 192.059 1503.29 172.129 1551.56 154.543C1564.53 149.819 1577.02 145.269 1588.97 140.973C1606.57 135.571 1623.64 131.077 1640.15 126.729C1668.2 119.34 1694.7 112.365 1719.32 102.088C1748.8 91.7909 1775.56 73.9557 1798.84 49.0853C1823.37 22.8853 1843.43 -10.5394 1858.46 -50.2624C1865.39 -68.5551 1871.28 -88.3541 1875.98 -109.109C1902.8 -226.458 1895.52 -366.463 1855.48 -503.318C1836.9 -581.987 1807.53 -640.314 1770.56 -671.941C1749.21 -692.954 1723 -705.015 1690.47 -708.771C1662.42 -712.015 1628.36 -709.321 1583.28 -700.284C1505.18 -680.267 1444.46 -649.171 1373.66 -592.935C1295.97 -536.325 1219.11 -465.154 1197.4 -444.69C1129.09 -391.438 1089.54 -341.285 1065.23 -277.038Z" fill="#EDE9F6"/>
<path d="M1853.28 -46.8406C1824.74 28.5745 1775.21 80.1312 1713.81 98.3326C1691.53 105.673 1667.71 110.374 1642.49 115.351C1622.59 119.278 1602.02 123.337 1580.72 128.979C1528.92 144.149 1470.25 167.671 1408.13 192.568L1394.75 197.931C1333.63 225.54 1269.83 252.202 1220.24 248.82C1172.82 245.749 1133.51 217.066 1103.41 163.565C1048.73 67.7429 1029.14 -73.5905 1052.3 -205.283C1056.71 -230.172 1063.09 -253.749 1071.27 -275.361C1102.91 -358.969 1159.71 -409.236 1211.11 -447.374C1241.93 -472.804 1304.2 -523.322 1375.23 -576.173C1432.8 -621.03 1496.52 -666.379 1572.41 -694.286C1650.24 -720.029 1705.43 -715.532 1746.07 -680.126C1784.03 -649.589 1815.22 -593.478 1838.79 -513.341C1884.35 -372.188 1895.91 -228.964 1871.36 -110.046C1866.73 -87.5741 1860.64 -66.3102 1853.28 -46.8406ZM1070.3 -275.727C1062.09 -254.02 1055.68 -230.34 1051.25 -205.35C1028.04 -73.3393 1047.67 68.3389 1102.49 164.399C1132.74 218.178 1172.29 247.016 1220.01 250.107C1269.81 253.501 1333.74 226.79 1394.95 199.141L1408.32 193.785C1470.41 168.893 1529.06 145.385 1580.79 130.232C1602.06 124.599 1622.61 120.543 1642.49 116.621C1667.74 111.635 1691.59 106.93 1713.92 99.5738C1743.98 90.6633 1771.14 74.0659 1794.64 50.2452C1819.4 25.1418 1839.46 -7.39736 1854.25 -46.4736C1861.64 -66.0221 1867.75 -87.375 1872.4 -109.931C1897 -229.101 1885.43 -372.589 1839.81 -513.951C1816.17 -594.286 1784.87 -650.572 1746.78 -681.225C1705.9 -716.826 1650.45 -721.374 1572.27 -695.516C1496.21 -667.551 1432.4 -622.143 1374.76 -577.228C1303.73 -524.365 1241.44 -473.833 1210.63 -448.42C1159.09 -410.174 1102.09 -359.728 1070.3 -275.727Z" fill="#EDE9F6"/>
<path d="M1849.28 -43.6402C1821.15 30.7083 1771.15 80.1653 1708.5 95.6214C1688.11 100.613 1666.41 103.46 1643.44 106.475C1620.64 109.465 1597.05 112.559 1572.65 118.024C1525.29 128.632 1473.21 149.207 1398.5 186.825C1335.1 218.696 1274.23 247.271 1226.28 246.93C1178.83 246.454 1139.56 220.043 1109.55 168.426C1052.97 70.724 1033.27 -73.4514 1058.13 -207.838C1062.51 -231.418 1068.69 -253.811 1076.48 -274.4C1109.31 -361.151 1169.67 -412.403 1224.38 -451.094C1233.29 -457.383 1242.44 -463.797 1251.81 -470.368C1289.16 -496.568 1331.5 -526.259 1376.38 -560.43C1387.01 -568.525 1397.94 -576.993 1408.5 -585.185C1457.86 -623.439 1508.89 -662.995 1561.51 -689.486C1623.55 -720.693 1680.65 -720.631 1722.28 -689.311C1760.77 -660.213 1794.69 -604.564 1823.1 -523.905C1874.24 -378.346 1890.11 -231.685 1867.77 -110.929C1863.28 -86.8252 1857.06 -64.1852 1849.28 -43.6402ZM1075.51 -274.767C1067.68 -254.087 1061.48 -231.596 1057.08 -207.921C1032.16 -73.2075 1051.91 71.3221 1108.64 169.269C1138.81 221.178 1178.33 247.738 1226.1 248.215C1274.26 248.556 1335.26 219.929 1398.77 188.001C1473.4 150.427 1525.41 129.875 1572.68 119.291C1597.04 113.833 1620.6 110.742 1643.39 107.753C1666.39 104.737 1688.11 101.886 1708.55 96.8779C1739.22 89.3096 1766.82 73.8939 1790.57 51.051C1815.59 26.9767 1835.68 -4.75638 1850.25 -43.2738C1858.06 -63.9116 1864.31 -86.6484 1868.82 -110.848C1879.94 -170.977 1881.62 -237.763 1873.8 -309.359C1866.04 -380.38 1849.32 -452.779 1824.1 -524.559C1795.62 -605.412 1761.59 -661.219 1722.95 -690.434C1681.05 -721.957 1623.62 -722.042 1561.24 -690.661C1508.52 -664.119 1457.43 -624.524 1408.03 -586.234C1397.46 -578.043 1386.54 -569.579 1375.92 -561.493C1331.06 -527.325 1288.73 -497.644 1251.38 -471.45C1242.02 -464.885 1232.86 -458.464 1223.95 -452.178C1169.05 -413.356 1108.49 -361.922 1075.51 -274.767Z" fill="#EDE9F6"/>
<path d="M1836.49 -46.6362C1808.48 27.3856 1760.09 76.3867 1700.22 91.3389C1679.02 96.6478 1656.76 99.4952 1633.2 102.508C1612.23 105.19 1590.54 107.964 1567.97 112.69C1557.39 114.945 1546.2 117.81 1534.71 121.204C1496.62 132.462 1454.64 149.598 1398.58 176.763C1337.09 206.446 1278.02 233.005 1231.35 231.976C1185.21 230.85 1147.01 204.951 1117.8 155.003C1084.09 97.4536 1064.52 24.6904 1061.18 -55.4176C1058.65 -106.717 1062.7 -160.753 1072.9 -211.698C1077.27 -234.169 1083.28 -255.604 1090.78 -275.399C1110.9 -328.59 1142.29 -373.036 1189.54 -415.266C1202.53 -426.808 1216.91 -438.365 1233.5 -450.59C1246.5 -460.286 1259.88 -470.126 1274.04 -480.548C1305.77 -503.915 1341.74 -530.387 1379.39 -559.64C1385.54 -564.443 1391.71 -569.296 1397.92 -574.178C1440.16 -607.372 1483.83 -641.703 1528.77 -667.981C1539.44 -674.227 1549.94 -679.875 1559.96 -684.758C1620.22 -714.26 1675.88 -713.748 1716.69 -683.326C1754.74 -654.876 1788.2 -601.008 1816.15 -523.233C1835.27 -471.257 1849.14 -415.215 1857.37 -356.665C1863.31 -315.927 1866.3 -274.546 1866.25 -233.676C1866.17 -192.642 1862.59 -154.554 1854.99 -113.803C1850.51 -89.836 1844.29 -67.2352 1836.49 -46.6362ZM1089.81 -275.765C1082.28 -255.881 1076.24 -234.357 1071.85 -211.796C1061.63 -160.731 1057.57 -106.559 1060.11 -55.1461C1063.45 25.1723 1083.08 98.1369 1116.89 155.849C1146.26 206.082 1184.71 232.127 1231.15 233.263C1278.04 234.297 1337.23 207.689 1398.84 177.947C1454.84 150.809 1496.77 133.694 1534.81 122.451C1546.27 119.065 1557.43 116.206 1567.98 113.955C1590.52 109.239 1612.19 106.468 1633.14 103.789C1656.73 100.772 1679.01 97.9205 1700.27 92.5964C1760.55 77.5415 1809.27 28.2235 1837.46 -46.2697C1845.29 -66.9616 1851.54 -89.6538 1856.04 -113.714C1863.66 -154.565 1867.24 -192.753 1867.32 -233.88C1867.37 -274.821 1864.38 -316.268 1858.43 -357.076C1850.19 -415.711 1836.29 -471.843 1817.14 -523.901C1789.13 -601.866 1755.56 -655.884 1717.35 -684.452C1676.27 -715.069 1620.28 -715.604 1559.7 -685.943C1549.65 -681.043 1539.13 -675.384 1528.44 -669.121C1483.42 -642.803 1439.71 -608.449 1397.44 -575.221C1391.23 -570.338 1385.06 -565.483 1378.91 -560.688C1341.28 -531.445 1306.87 -506.114 1273.59 -481.614C1259.43 -471.194 1246.05 -461.354 1233.05 -451.656C1216.42 -439.404 1202.01 -427.826 1189 -416.255C1141.55 -373.855 1110.04 -329.213 1089.81 -275.765Z" fill="#EDE9F6"/>
<path d="M1823.51 -49.1239C1795.67 24.4386 1748.94 72.9034 1691.93 87.3402C1669.87 92.9892 1647.06 95.8137 1622.92 98.8047C1603.82 101.171 1584.07 103.615 1563.41 107.627C1553.19 109.688 1542.33 112.32 1531.13 115.453C1494 125.84 1453.24 141.713 1398.98 166.925C1339.45 194.402 1282.27 218.924 1236.9 217.209C1192.14 215.426 1155.05 190.072 1126.67 141.837C1093.1 85.1698 1074.83 14.1271 1073.84 -63.6086C1072.42 -112.89 1077.31 -163.8 1088.37 -214.934C1092.71 -236.259 1098.55 -256.682 1105.72 -275.638C1125.41 -327.652 1155.75 -371.649 1201.21 -414.107C1213.64 -425.61 1227.36 -437.103 1243.16 -449.249C1261.44 -463.678 1280.73 -478.555 1301.14 -494.298C1327.11 -514.328 1353.97 -535.035 1382.79 -557.913L1385.85 -560.366C1431.61 -597.128 1478.93 -635.134 1528.19 -663.125C1538.56 -669.026 1548.79 -674.367 1558.59 -678.986C1617 -706.75 1671.16 -705.802 1711.1 -676.306C1748.68 -648.53 1781.65 -596.509 1809.08 -521.697C1828.28 -471.775 1841.11 -417.749 1848.29 -356.526C1853.32 -316.992 1855.46 -277.122 1854.85 -234.638C1854.23 -196.105 1850.4 -160.681 1842.03 -116.197C1837.57 -92.3641 1831.34 -69.7993 1823.51 -49.1239ZM1104.75 -276.005C1097.55 -256.966 1091.69 -236.458 1087.32 -215.054C1076.25 -163.802 1071.35 -112.764 1072.77 -63.3714C1073.76 14.5838 1092.08 85.8433 1125.76 142.689C1154.3 191.196 1191.63 216.703 1236.7 218.495C1282.27 220.217 1339.58 195.644 1399.22 168.114C1453.42 142.93 1494.13 127.074 1531.21 116.704C1542.39 113.578 1553.22 110.953 1563.42 108.896C1584.05 104.892 1603.78 102.446 1622.86 100.084C1647.03 97.0923 1669.86 94.2618 1691.98 88.5976C1720.02 81.4979 1745.73 66.1217 1768.4 42.8918C1791.59 19.141 1810.45 -11.6958 1824.48 -48.7578C1832.34 -69.5237 1838.59 -92.1852 1843.08 -116.114C1851.46 -160.695 1855.3 -196.198 1855.92 -234.821C1856.54 -277.376 1854.39 -317.312 1849.36 -356.909C1842.16 -418.236 1829.31 -472.363 1810.07 -522.373C1782.57 -597.374 1749.5 -649.548 1711.77 -677.431C1671.56 -707.123 1617.08 -708.098 1558.34 -680.173C1548.51 -675.542 1538.26 -670.188 1527.87 -664.27C1478.52 -636.233 1431.16 -598.191 1385.35 -561.396L1382.3 -558.952C1353.49 -536.085 1326.64 -515.377 1300.67 -495.348C1280.25 -479.6 1260.97 -464.727 1242.67 -450.294C1226.86 -438.13 1213.11 -426.612 1200.64 -415.078C1155 -372.452 1124.53 -328.261 1104.75 -276.005Z" fill="#EDE9F6"/>
<path d="M1810.46 -51.4257C1783.16 20.6954 1736.85 69.9444 1683.4 83.6969C1660.38 89.7362 1636.99 92.519 1612.23 95.4671C1595 97.5184 1577.19 99.6376 1558.46 102.985C1548.57 104.865 1538.02 107.273 1527.11 110.143C1490.89 119.683 1451.3 134.333 1398.76 157.65C1341.13 182.986 1285.76 205.533 1241.63 203.141C1198.18 200.713 1162.17 175.856 1134.6 129.27C1101.15 73.3911 1084.18 3.94755 1085.53 -71.5627C1085.25 -118.128 1091.1 -167.463 1102.92 -218.218C1107.24 -238.408 1112.9 -257.827 1119.76 -275.951C1139.04 -326.902 1168.4 -370.57 1212.16 -413.385C1224.08 -424.875 1237.16 -436.336 1252.15 -448.416C1277.95 -470.007 1306.16 -492.727 1336.03 -516.782C1352.01 -529.649 1368.54 -542.955 1385.73 -556.921C1430.19 -593.686 1477.74 -631.868 1527.36 -659.226C1537.46 -664.817 1547.44 -669.859 1557.02 -674.216C1613.65 -700.312 1666.39 -698.93 1705.5 -670.319C1742.65 -643.175 1775.14 -592.913 1802.08 -520.934C1821.51 -472.52 1833.33 -420.397 1839.28 -356.881C1843.34 -319.188 1844.72 -279.613 1843.48 -235.865C1842.25 -194.859 1837.27 -161.836 1829.08 -118.647C1824.6 -94.871 1818.34 -72.2564 1810.46 -51.4257ZM1118.79 -276.317C1111.91 -258.117 1106.22 -238.615 1101.89 -218.352C1090.04 -167.494 1084.18 -118.033 1084.46 -71.3636C1083.1 4.38028 1100.12 74.0587 1133.69 130.124C1161.42 176.98 1197.66 201.981 1241.41 204.424C1285.74 206.832 1341.24 184.243 1398.98 158.854C1451.47 135.559 1491.01 120.924 1527.18 111.399C1538.06 108.535 1548.58 106.134 1558.46 104.255C1577.15 100.919 1594.95 98.7959 1612.16 96.7476C1636.96 93.7974 1660.38 91.0087 1683.46 84.9549C1737.32 71.0993 1783.96 21.5247 1811.43 -51.0587C1819.34 -71.98 1825.63 -94.6916 1830.12 -118.562C1838.33 -161.825 1843.32 -194.92 1844.56 -236.029C1845.79 -279.844 1844.42 -319.488 1840.35 -357.23C1834.38 -420.869 1822.54 -473.105 1803.07 -521.62C1776.07 -593.784 1743.46 -644.194 1706.16 -671.448C1666.78 -700.244 1613.74 -701.657 1556.78 -675.412C1547.18 -671.045 1537.17 -665.986 1527.05 -660.382C1477.33 -632.969 1429.73 -594.748 1385.23 -557.946C1368.04 -543.987 1351.52 -530.679 1335.54 -517.811C1305.66 -493.756 1277.44 -471.032 1251.65 -449.439C1236.63 -437.338 1223.52 -425.849 1211.57 -414.333C1167.64 -371.352 1138.16 -327.498 1118.79 -276.317Z" fill="#EDE9F6"/>
<path d="M1798.2 -53.3839C1771.14 18.1431 1726.51 66.7316 1675.75 79.9236C1651.69 86.3461 1627.7 89.0268 1602.3 91.867C1586.95 93.5833 1571.07 95.358 1554.32 98.05C1544.75 99.7321 1534.52 101.899 1523.88 104.5C1488.55 113.134 1450.13 126.497 1399.27 147.832C1345.75 170.011 1289.91 191.408 1247.01 188.282C1204.83 185.165 1169.85 160.817 1143.02 115.916C1109.6 60.8845 1093.85 -6.8739 1097.48 -80.0316C1098.23 -123.706 1105 -171.384 1117.59 -221.765C1121.85 -240.75 1127.31 -259.096 1133.82 -276.306C1152.67 -326.121 1181.04 -369.403 1223.11 -412.513C1234.49 -423.955 1246.93 -435.343 1261.14 -447.34C1299.15 -481.067 1342.62 -517.16 1388.64 -555.373C1428.67 -589.408 1476.35 -627.791 1526.51 -654.459C1536.34 -659.717 1546.07 -664.445 1555.44 -668.52C1610.31 -692.854 1661.66 -690.988 1700.01 -663.258C1736.8 -636.756 1768.9 -588.298 1795.43 -519.231C1815.24 -472.077 1826.15 -421.895 1830.82 -356.507C1834.04 -320.405 1834.67 -282.29 1832.8 -236.563C1830.99 -194.613 1824.99 -163.153 1817.39 -123.314L1816.9 -120.757C1812.44 -97.0433 1806.15 -74.3781 1798.2 -53.3839ZM1132.85 -276.672C1126.31 -259.389 1120.83 -240.969 1116.56 -221.925C1103.94 -171.444 1097.15 -123.645 1096.4 -79.8775C1092.76 -6.46932 1108.57 61.5378 1142.12 116.774C1169.1 161.937 1204.31 186.432 1246.78 189.567C1289.87 192.705 1345.84 171.267 1399.47 149.042C1450.28 127.727 1488.66 114.38 1523.93 105.757C1534.55 103.166 1544.76 100.999 1554.3 99.324C1571.02 96.6341 1586.88 94.8623 1602.23 93.1484C1627.66 90.3053 1651.69 87.6203 1675.81 81.1795C1726.97 67.884 1771.93 18.9695 1799.17 -53.0173C1807.15 -74.102 1813.47 -96.8625 1817.95 -120.671L1818.44 -123.225C1826.05 -163.124 1832.05 -194.634 1833.88 -236.706C1835.75 -282.503 1835.11 -320.67 1831.89 -356.827C1827.22 -422.361 1816.27 -472.662 1796.41 -519.931C1769.82 -589.171 1737.6 -637.774 1700.67 -664.39C1662.06 -692.301 1610.4 -694.192 1555.21 -669.724C1545.82 -665.636 1536.06 -660.887 1526.21 -655.622C1475.95 -628.902 1428.21 -590.466 1388.13 -556.386C1342.1 -518.174 1298.62 -482.069 1260.6 -448.328C1246.38 -436.329 1233.9 -424.916 1222.49 -413.439C1180.26 -370.163 1151.78 -326.704 1132.85 -276.672Z" fill="#EDE9F6"/>
<path d="M1785.24 -55.9082C1758.4 15.0044 1715.5 62.9517 1667.53 75.6446C1642.4 82.5164 1617.86 85.0813 1591.88 87.7961C1578.44 89.1988 1564.54 90.6474 1549.83 92.7636C1540.47 94.2808 1530.84 96.1725 1520.36 98.5385C1486.01 106.308 1448.8 118.438 1399.71 137.868C1348.09 157.977 1294.2 177.291 1252.58 173.483C1211.77 169.721 1177.9 145.906 1151.94 102.698C1118.67 48.5209 1104.24 -17.5643 1110.22 -88.419C1112.02 -129.696 1119.53 -174.472 1133.2 -225.335C1137.38 -243.085 1142.63 -260.32 1148.78 -276.587C1167.23 -325.346 1194.62 -368.34 1234.98 -411.884C1245.82 -423.305 1257.61 -434.644 1271.02 -446.557C1303.36 -477.149 1340.76 -510.389 1392.32 -554.339C1443.45 -599.243 1486.01 -629.777 1526.25 -650.425C1535.79 -655.365 1545.26 -659.792 1554.4 -663.596C1607.42 -686.241 1657.27 -683.948 1694.76 -657.145C1730.56 -631.665 1763.03 -583.722 1788.65 -518.503C1814.14 -460.208 1819.85 -401.604 1821.97 -357.065C1824.99 -313.158 1823.35 -270.431 1821.59 -238.115C1819.51 -201.949 1814.09 -174.448 1807.81 -142.611C1806.61 -136.516 1805.37 -130.226 1804.1 -123.645C1799.62 -99.9262 1793.27 -77.1373 1785.24 -55.9082ZM1147.81 -276.954C1141.63 -260.62 1136.37 -243.315 1132.17 -225.52C1118.49 -174.561 1110.96 -129.674 1109.15 -88.3125C1103.15 -17.1926 1117.63 49.1661 1151.03 103.558C1177.16 147.019 1211.24 170.982 1252.33 174.765C1294.15 178.59 1348.16 159.235 1399.89 139.088C1448.93 119.677 1486.1 107.56 1520.39 99.8028C1530.85 97.4398 1540.46 95.5518 1549.79 94.0407C1564.48 91.9297 1578.37 90.4787 1591.8 89.0768C1617.82 86.3592 1642.4 83.7953 1667.6 76.8983C1715.96 64.1039 1759.2 15.8305 1786.2 -55.5419C1794.27 -76.8617 1800.65 -99.7457 1805.15 -123.555C1806.41 -130.133 1807.65 -136.42 1808.85 -142.509C1815.14 -174.408 1820.58 -201.957 1822.66 -238.233C1824.43 -270.599 1826.06 -313.385 1823.05 -357.356C1820.92 -401.997 1815.19 -460.748 1789.63 -519.216C1763.94 -584.605 1731.36 -632.694 1695.42 -658.276C1657.68 -685.264 1607.52 -687.582 1554.19 -664.804C1545.03 -660.987 1535.54 -656.55 1525.96 -651.6C1485.64 -630.895 1443 -600.318 1391.78 -555.337C1340.22 -511.379 1302.8 -478.133 1270.46 -447.531C1257.04 -435.61 1245.22 -424.241 1234.35 -412.788C1193.84 -369.076 1166.34 -325.917 1147.81 -276.954Z" fill="#EDE9F6"/>
<path d="M1772.06 -57.8763C1745.91 11.2058 1703.7 59.584 1659.14 71.5456C1632.86 78.8841 1607.77 81.2527 1581.2 83.7619C1569.65 84.8513 1557.72 85.9808 1545.07 87.5521C1536.07 88.8756 1526.74 90.5381 1516.55 92.6306C1483.6 99.4097 1446.49 110.596 1399.77 127.838C1350.02 145.828 1298.06 163.008 1257.66 158.48C1218.17 154.046 1185.37 130.755 1160.2 89.2554C1127.02 35.9543 1113.86 -28.4236 1122.13 -96.919C1124.9 -135.524 1133.08 -177.447 1147.88 -228.893C1151.96 -245.335 1156.95 -261.382 1162.72 -276.616C1180.76 -324.313 1207.2 -367.021 1245.9 -411.036C1256.2 -422.417 1267.33 -433.698 1279.95 -445.507C1313.08 -478.94 1350.73 -514.047 1395.08 -552.854C1441.35 -594.794 1485.09 -626.054 1525.12 -645.765C1534.38 -650.371 1543.6 -654.494 1552.51 -658.02C1603.72 -678.922 1652.12 -676.169 1688.81 -650.263C1724.2 -625.437 1756.2 -579.372 1781.36 -517.048C1806.93 -460.996 1811.59 -404.68 1812.77 -356.986C1814.72 -316.805 1812.65 -276.593 1810.12 -239.13C1807.83 -206.908 1802.87 -183.17 1797.13 -155.688C1795.17 -146.365 1793.16 -136.725 1791.11 -126.101C1786.6 -102.34 1780.2 -79.3875 1772.06 -57.8763ZM1161.75 -276.983C1155.96 -261.684 1150.95 -245.575 1146.86 -229.1C1132.03 -177.572 1123.84 -135.541 1121.07 -96.8625C1112.75 -28.0835 1125.98 36.5871 1159.29 90.121C1184.62 131.865 1217.62 155.294 1257.39 159.761C1297.98 164.308 1350.06 147.091 1399.92 129.064C1446.6 111.841 1483.67 100.667 1516.56 93.8986C1526.74 91.8067 1536.05 90.1487 1545.02 88.8297C1557.65 87.2598 1569.57 86.1334 1581.11 85.0439C1607.72 82.5327 1632.86 80.1581 1659.21 72.7969C1682.21 66.6247 1704.1 51.58 1724.25 28.0883C1743.43 5.74091 1760.29 -23.86 1773.02 -57.51C1781.2 -79.1118 1787.64 -102.159 1792.15 -126.008C1794.2 -136.627 1796.22 -146.259 1798.17 -155.573C1803.92 -183.114 1808.9 -206.9 1811.19 -239.229C1813.72 -276.746 1815.79 -317.004 1813.84 -357.246C1812.66 -405.06 1807.99 -461.54 1782.33 -517.769C1757.11 -580.254 1724.99 -626.468 1689.46 -651.397C1652.53 -677.478 1603.83 -680.26 1552.33 -659.231C1543.39 -655.696 1534.14 -651.558 1524.86 -646.943C1484.73 -627.183 1440.88 -595.855 1394.53 -553.847C1350.16 -515.018 1312.49 -479.889 1279.36 -446.456C1266.73 -434.635 1255.57 -423.321 1245.24 -411.906C1206.39 -367.734 1179.87 -324.87 1161.75 -276.983Z" fill="#EDE9F6"/>
<path d="M1758.95 -60.0258C1733.13 8.20648 1692.71 55.7666 1650.83 67.2023C1623.35 75.0483 1598.92 77.0725 1570.62 79.4187C1560.95 80.2189 1550.96 81.0448 1540.37 82.1554C1531.69 83.2878 1522.67 84.7282 1512.79 86.55C1480.8 92.4558 1444.91 102.358 1399.86 117.707C1351.97 133.613 1301.94 148.704 1262.74 143.457C1224.56 138.353 1192.85 115.582 1168.48 75.7654C1135.41 23.3061 1123.53 -39.4164 1134.13 -105.616C1138.81 -151.294 1151.85 -197.568 1162.69 -232.784C1166.64 -247.854 1171.34 -262.639 1176.69 -276.767C1194.38 -323.507 1219.91 -366.066 1257.03 -410.714C1266.78 -422.073 1277.28 -433.305 1289.1 -445.031C1322.28 -480.879 1357.93 -515.887 1398.11 -552.078C1440.69 -592.023 1484.33 -623.09 1524.31 -641.938C1533.29 -646.22 1542.26 -650.037 1550.96 -653.297C1600.34 -672.495 1647.31 -669.293 1683.19 -644.276C1727.39 -613.72 1757.17 -557.863 1774.37 -516.398C1800.12 -462.183 1803.74 -408.029 1803.81 -357.586C1804.87 -319.287 1802.19 -282 1798.85 -240.72C1796.36 -211.265 1791.62 -190.209 1786.14 -165.825C1783.58 -154.448 1780.93 -142.678 1778.27 -129.017C1773.73 -105.13 1767.23 -81.9174 1758.95 -60.0258ZM1175.73 -277.131C1170.36 -262.948 1165.63 -248.108 1161.68 -233.018C1150.83 -197.762 1137.75 -151.387 1133.07 -105.607C1122.43 -39.1111 1134.36 23.9258 1167.58 76.6352C1192.09 116.687 1224.01 139.601 1262.46 144.735C1301.84 150.006 1352 134.887 1399.99 118.945C1445 103.608 1480.84 93.7188 1512.78 87.8204C1522.65 86.0016 1531.65 84.5657 1540.31 83.4347C1550.87 82.3271 1560.86 81.4996 1570.52 80.7001C1598.87 78.3511 1623.35 76.3272 1650.9 68.45C1693.17 56.916 1733.92 9.02302 1759.91 -59.6596C1768.23 -81.6439 1774.76 -104.948 1779.32 -128.926C1781.97 -142.563 1784.62 -154.317 1787.18 -165.685C1792.67 -190.13 1797.42 -211.238 1799.91 -240.796C1803.26 -282.132 1805.94 -319.459 1804.89 -357.814C1804.81 -408.398 1801.18 -462.724 1775.33 -517.136C1758.09 -558.708 1728.21 -614.73 1683.83 -645.422C1647.71 -670.601 1600.46 -673.832 1550.79 -654.521C1542.06 -651.253 1533.07 -647.415 1524.06 -643.127C1483.97 -624.227 1440.22 -593.078 1397.54 -553.047C1357.35 -516.843 1321.67 -481.806 1288.48 -445.944C1276.65 -434.212 1266.13 -422.955 1256.33 -411.557C1219.09 -366.76 1193.48 -324.045 1175.73 -277.131Z" fill="#EDE9F6"/>
<path d="M1746.35 -61.0819C1720.88 6.21651 1682.27 52.9193 1643.05 63.8431C1614.36 72.2469 1589.49 73.9717 1560.69 75.9682C1552.85 76.5123 1544.75 77.0758 1536.2 77.7964C1527.86 78.745 1519.14 79.9646 1509.55 81.5221C1478.52 86.5703 1443.85 95.2052 1400.45 108.694C1354.43 122.558 1306.33 135.59 1268.31 129.621C1231.44 123.859 1200.8 101.588 1177.26 63.4348C1144.32 11.7823 1133.75 -49.3309 1146.69 -113.304C1151.91 -151.584 1163.03 -189.952 1178.12 -235.797C1181.88 -249.393 1186.26 -262.816 1191.15 -275.723C1208.52 -321.627 1233.21 -364.204 1268.84 -409.715C1278.06 -421.082 1287.92 -432.274 1298.96 -443.922C1331.42 -481.617 1365.08 -516.569 1401.89 -550.803C1441.74 -589.588 1484.06 -619.65 1524.3 -637.75C1533.01 -641.717 1541.72 -645.239 1550.19 -648.225C1597.78 -665.763 1643.3 -662.132 1678.38 -637.989C1722.06 -608.226 1751.31 -554.877 1768.15 -515.361C1792.7 -465.584 1796.86 -416.32 1795.57 -357.663C1795.77 -321.078 1792.36 -285.102 1788.75 -247.013L1788.24 -241.671C1785.54 -214.226 1780.9 -195.163 1775.51 -173.087C1772.42 -160.375 1769.21 -147.234 1766.06 -131.181C1761.46 -107.061 1754.83 -83.4782 1746.35 -61.0819ZM1190.18 -276.088C1185.28 -263.134 1180.88 -249.666 1177.11 -236.055C1162 -190.161 1150.87 -151.711 1145.64 -113.363C1132.63 -49.0653 1143.25 12.3884 1176.36 64.3074C1200.05 102.689 1230.88 125.099 1268.01 130.9C1306.21 136.896 1354.43 123.834 1400.55 109.939C1443.92 96.4634 1478.54 87.84 1509.53 82.7977C1519.1 81.2402 1527.8 80.0273 1536.11 79.0809C1544.64 78.3609 1552.75 77.7952 1560.58 77.2542C1589.43 75.2526 1614.35 73.5257 1643.14 65.0945C1682.73 54.0652 1721.68 7.03132 1747.32 -60.7156C1755.83 -83.2003 1762.49 -106.877 1767.11 -131.088C1770.25 -147.096 1773.45 -160.219 1776.54 -172.913C1781.94 -195.05 1786.6 -214.174 1789.31 -241.725L1789.81 -247.077C1793.43 -285.207 1796.84 -321.222 1796.64 -357.852C1797.95 -416.7 1793.77 -466.143 1769.11 -516.113C1752.23 -555.723 1722.88 -609.245 1679.02 -639.136C1643.71 -663.43 1597.9 -667.096 1550.04 -649.453C1541.54 -646.46 1532.8 -642.927 1524.07 -638.945C1483.7 -620.794 1441.26 -590.644 1401.31 -551.762C1364.47 -517.502 1330.77 -482.511 1298.3 -444.801C1287.26 -433.148 1277.38 -421.927 1268.12 -410.526C1232.38 -364.863 1207.61 -322.152 1190.18 -276.088Z" fill="#EDE9F6"/>
<path d="M1732.9 -62.3283C1707.91 3.70118 1671.18 49.3076 1634.64 59.6597C1604.77 68.5956 1579.57 69.9166 1550.4 71.4494C1544.32 71.7694 1538.03 72.1005 1531.43 72.5072C1523.42 73.2663 1515.02 74.2548 1505.74 75.5364C1475.71 79.693 1442.27 87.017 1400.52 98.5939C1356.41 110.354 1310.26 121.278 1273.41 114.557C1237.86 108.115 1208.3 86.3737 1185.57 49.9406C1152.73 -0.826402 1143.42 -60.221 1158.65 -121.831C1165.05 -158.805 1177.39 -195.389 1192.85 -239.379C1196.35 -251.312 1200.32 -263.153 1204.66 -274.625C1221.72 -319.696 1245.59 -362.357 1279.8 -408.88C1288.48 -420.224 1297.68 -431.353 1307.93 -442.882C1339.17 -481.977 1370.82 -516.787 1404.67 -549.316C1441.43 -586.453 1483.51 -616.193 1523.18 -633.081C1531.61 -636.72 1540.07 -639.936 1548.31 -642.637C1594.05 -658.449 1638.12 -654.352 1672.41 -631.111C1715.59 -602.168 1744.33 -551.404 1760.83 -513.914C1785.66 -465.545 1788.98 -416.452 1786.32 -357.618C1785.8 -325.201 1782.28 -293.301 1778.56 -259.526C1777.95 -253.976 1777.34 -248.386 1776.73 -242.734C1773.84 -216.854 1768.99 -198.531 1763.85 -179.138C1760.27 -165.621 1756.57 -151.646 1753.03 -133.695C1748.36 -109.288 1741.58 -85.2793 1732.9 -62.3283ZM1203.69 -274.993C1199.34 -263.484 1195.36 -251.597 1191.85 -239.665C1176.38 -195.643 1164.02 -158.993 1157.61 -121.951C1142.3 -59.9963 1151.65 -0.233636 1184.67 50.8154C1207.54 87.4705 1237.29 109.345 1273.09 115.834C1310.11 122.583 1356.37 111.638 1400.59 99.8481C1442.31 88.2818 1475.7 80.963 1505.69 76.8139C1514.95 75.5369 1523.34 74.5467 1531.33 73.7936C1537.9 73.3844 1544.19 73.0573 1550.27 72.7372C1579.5 71.2025 1604.75 69.874 1634.73 60.9117C1671.65 50.4479 1708.71 4.51319 1733.87 -61.9621C1742.58 -85.0013 1749.39 -109.106 1754.08 -133.599C1757.61 -151.492 1761.3 -165.444 1764.87 -178.933C1770.03 -198.389 1774.89 -216.77 1777.79 -242.77C1778.4 -248.425 1779.02 -254.012 1779.63 -259.561C1783.35 -293.375 1786.87 -325.317 1787.4 -357.776C1790.06 -416.815 1786.73 -466.101 1761.78 -514.674C1745.24 -552.257 1716.41 -603.192 1673.04 -632.258C1638.53 -655.651 1594.19 -659.778 1548.18 -643.874C1539.91 -641.169 1531.43 -637.939 1522.97 -634.281C1483.16 -617.339 1440.94 -587.501 1404.07 -550.252C1370.18 -517.691 1338.5 -482.837 1307.24 -443.724C1296.99 -432.192 1287.76 -421.039 1279.05 -409.648C1244.74 -362.993 1220.8 -320.207 1203.69 -274.993Z" fill="#EDE9F6"/>
<path d="M1719.45 -63.59C1694.64 1.98146 1660.68 45.2977 1626.29 55.2474C1595.32 64.7252 1571.14 65.5328 1540.54 66.555C1536.09 66.7014 1531.49 66.857 1526.72 67.0394C1519.01 67.6106 1510.92 68.3787 1501.97 69.3835C1472.97 72.6605 1440.77 78.698 1400.62 88.3932C1360.28 97.6705 1314.24 106.946 1278.54 99.4648C1244.3 92.3474 1215.83 71.1237 1193.91 36.3875C1161.2 -13.522 1153.18 -71.249 1170.71 -130.563C1177.84 -163.843 1190.58 -197.715 1204.08 -233.571L1207.73 -243.295C1210.86 -253.324 1214.31 -263.333 1218 -273.088C1234.82 -317.542 1258.01 -360.596 1290.98 -408.578C1299.13 -419.922 1307.69 -431.004 1317.14 -442.418C1347.34 -483.319 1376.12 -517.033 1407.75 -548.544C1442.18 -584.76 1482.89 -613.417 1522.39 -629.251C1530.54 -632.571 1538.74 -635.492 1546.77 -637.911C1590.66 -652.031 1633.28 -647.493 1666.78 -625.135C1709.46 -597.005 1737.66 -548.785 1753.8 -513.285C1781.72 -460.945 1780.72 -408.003 1777.32 -358.266C1776.18 -329.194 1772.52 -300.576 1768.66 -270.284C1767.57 -261.767 1766.46 -253.142 1765.4 -244.37C1762.31 -219.672 1757.41 -202.673 1752.22 -184.676C1748.19 -170.682 1744.02 -156.21 1740.15 -136.673C1735.43 -112.183 1728.28 -86.9109 1719.45 -63.59ZM1217.03 -273.454C1213.33 -263.669 1209.87 -253.628 1206.75 -243.609L1203.11 -233.935C1189.59 -198.014 1176.83 -164.088 1169.69 -130.746C1152.04 -71.0685 1160.11 -12.9477 1193.02 37.2726C1215.06 72.2137 1243.72 93.5673 1278.19 100.733C1314.06 108.248 1360.22 98.9573 1400.66 89.6543C1440.77 79.9697 1472.94 73.9366 1501.9 70.6695C1510.84 69.6584 1518.92 68.8933 1526.6 68.3274C1531.35 68.1418 1535.94 67.9884 1540.4 67.8413C1571.07 66.8148 1595.3 66.0076 1626.38 56.4955C1661.16 46.4312 1695.44 2.79808 1720.42 -63.2239C1729.28 -86.633 1736.46 -112.001 1741.19 -136.577C1745.05 -156.039 1749.21 -170.479 1753.24 -184.445C1758.44 -202.503 1763.36 -219.56 1766.46 -244.388C1767.53 -253.164 1768.63 -261.782 1769.72 -270.292C1773.59 -300.625 1777.25 -329.277 1778.39 -358.381C1781.81 -408.308 1782.8 -461.469 1754.74 -514.064C1738.57 -549.652 1710.27 -598.035 1667.41 -626.283C1633.69 -648.786 1590.81 -653.354 1546.66 -639.158C1538.61 -636.723 1530.37 -633.801 1522.2 -630.463C1482.55 -614.571 1441.68 -585.804 1407.13 -549.468C1375.46 -517.911 1346.63 -484.147 1316.41 -443.218C1306.97 -431.799 1298.39 -420.698 1290.21 -409.306C1257.15 -361.2 1233.91 -318.041 1217.03 -273.454Z" fill="#EDE9F6"/>
<path d="M1706.53 -63.7951C1682.4 -0.0327021 1650.35 41.8984 1618.59 51.2417C1586.64 61.2014 1563.63 61.4438 1531.78 61.7756C1528.79 61.8085 1525.72 61.84 1522.55 61.8809C1515.13 62.255 1507.34 62.7892 1498.72 63.5175C1470.76 65.882 1439.76 70.5992 1401.13 78.363C1353.32 87.3937 1315.08 91.8824 1283.93 84.4287C1250.94 76.5967 1223.5 55.8888 1202.35 22.8699C1169.68 -26.1683 1162.88 -82.1878 1182.69 -139.136C1186.22 -152.77 1191 -167.397 1197.75 -185.231C1202.64 -198.148 1207.94 -211.134 1213.55 -224.883C1216.49 -232.113 1219.48 -239.448 1222.48 -246.918C1225.03 -254.613 1227.77 -262.332 1230.63 -269.895C1247.52 -314.531 1269.52 -357.045 1301.98 -407.753C1309.48 -418.946 1317.62 -430.265 1326.16 -441.391C1354.67 -483.349 1381.51 -516.906 1410.64 -547.024C1442.89 -582.358 1482.25 -609.864 1521.48 -624.498C1529.38 -627.5 1537.34 -630.1 1545.12 -632.227C1587.2 -644.614 1628.43 -639.595 1661.21 -618.103C1703.49 -590.762 1731.23 -545.104 1747.05 -511.619C1775.38 -460.616 1773.49 -409.844 1768.76 -357.977C1767.15 -331.717 1763.36 -305.857 1759.35 -278.471C1757.78 -267.697 1756.14 -256.548 1754.62 -245.2C1751.35 -221.447 1746.37 -205.564 1741.1 -188.754C1736.63 -174.527 1732.02 -159.825 1727.88 -138.963C1723.04 -113.913 1715.66 -87.9245 1706.53 -63.7951ZM1196.78 -185.598C1190.01 -167.706 1185.22 -153.025 1181.68 -139.394C1161.74 -82.0541 1168.57 -25.6158 1201.47 23.7543C1222.74 56.9694 1250.36 77.8105 1283.56 85.689C1314.87 93.1771 1353.2 88.6851 1401.14 79.6321C1439.73 71.8728 1470.7 67.1592 1498.62 64.8006C1507.23 64.0738 1515.02 63.5372 1522.41 63.166C1525.55 63.1273 1528.63 63.0927 1531.62 63.0622C1563.55 62.7278 1586.61 62.4835 1618.69 52.4844C1650.83 43.0299 1683.2 0.779293 1707.5 -63.4284C1716.67 -87.646 1724.07 -113.731 1728.92 -138.865C1733.05 -159.635 1737.65 -174.295 1742.09 -188.477C1747.39 -205.358 1752.39 -221.303 1755.68 -245.197C1757.2 -256.541 1758.83 -267.681 1760.41 -278.45C1764.42 -305.87 1768.22 -331.766 1769.83 -358.068C1774.58 -410.136 1776.48 -461.14 1747.99 -512.416C1732.13 -545.978 1704.29 -591.797 1661.84 -619.253C1628.84 -640.878 1587.36 -645.937 1545.04 -633.479C1537.23 -631.345 1529.24 -628.734 1521.31 -625.718C1481.91 -611.021 1442.38 -583.393 1409.99 -547.917C1380.82 -517.752 1353.93 -484.136 1325.39 -442.139C1316.86 -431.026 1308.7 -419.682 1301.17 -408.444C1268.65 -357.622 1246.6 -315.011 1229.66 -270.261C1226.79 -262.674 1224.04 -254.937 1221.5 -247.265C1218.53 -239.849 1215.54 -232.513 1212.59 -225.289C1206.98 -211.53 1201.68 -198.536 1196.78 -185.598Z" fill="#EDE9F6"/>
<path d="M1195.07 -146.998C1197.06 -153.415 1199.34 -159.983 1202.05 -167.14C1208.32 -183.714 1215.85 -200.578 1223.81 -218.433C1228.37 -228.64 1233.08 -239.194 1237.72 -250.07C1239.35 -254.666 1241.03 -259.268 1242.75 -263.805C1259.68 -308.544 1281.52 -352.667 1313.56 -406.859C1320.54 -418.102 1328.01 -429.383 1335.77 -440.38C1362.85 -484.031 1387 -516.545 1414.11 -545.832C1444.29 -580.48 1482.25 -606.949 1521.02 -620.385C1528.64 -623.085 1536.34 -625.39 1543.89 -627.247C1584.65 -638.143 1623.33 -632.854 1655.76 -611.938C1697.5 -585.421 1724.63 -542.307 1740.04 -510.81C1768.66 -461.035 1765.84 -412.317 1759.63 -358.352C1757.56 -334.406 1753.61 -310.815 1749.43 -285.846C1747.3 -273.143 1745.1 -260.011 1743.1 -246.48C1739.6 -223.428 1734.49 -208.461 1729.08 -192.621C1724.2 -178.319 1719.15 -163.531 1714.74 -141.483C1709.71 -115.64 1702.03 -88.6891 1692.52 -63.5462C1669.14 -1.77568 1639.05 38.6929 1609.95 47.4906C1577.29 57.9542 1555.69 57.6658 1522.98 57.2285L1517.65 57.1577C1510.51 57.3488 1503.04 57.6673 1494.79 58.1322C1467.64 59.6593 1438.76 63.0151 1401.17 69.0098C1355.71 75.6745 1319.25 78.4395 1289.1 70.2737C1257.46 61.7797 1231.14 41.5937 1210.88 10.2798C1179.3 -36.5896 1173.26 -89.4946 1193.4 -142.736C1193.94 -144.157 1194.5 -145.583 1195.07 -146.998ZM1201.08 -167.507C1198.36 -160.318 1196.07 -153.717 1194.09 -147.334C1193.54 -145.968 1192.98 -144.535 1192.44 -143.102C1172.11 -89.387 1178.18 -36.0412 1209.99 11.1711C1230.38 42.6689 1256.86 62.9808 1288.71 71.532C1319 79.736 1355.55 76.9676 1401.13 70.2866C1438.7 64.2948 1467.55 60.9442 1494.66 59.4154C1502.91 58.9528 1510.37 58.6335 1517.48 58.4438L1522.8 58.516C1555.59 58.9546 1577.25 59.2442 1610.06 48.7334C1639.53 39.824 1669.94 -0.968423 1693.48 -63.1801C1703.03 -88.4113 1710.74 -115.453 1715.78 -141.388C1720.17 -163.322 1725.2 -178.056 1730.07 -192.304C1735.5 -208.224 1740.64 -223.255 1744.15 -246.455C1746.15 -259.971 1748.35 -273.094 1750.48 -285.795C1754.67 -310.799 1758.62 -334.422 1760.69 -358.404C1766.7 -410.598 1769.72 -461.612 1740.97 -511.618C1725.52 -543.191 1698.29 -586.465 1656.38 -613.1C1623.75 -634.14 1584.83 -639.461 1543.83 -628.505C1536.26 -626.644 1528.53 -624.327 1520.88 -621.622C1481.92 -608.115 1443.77 -581.511 1413.45 -546.706C1386.29 -517.364 1362.08 -484.772 1334.98 -441.078C1327.22 -430.092 1319.73 -418.783 1312.73 -407.502C1280.63 -353.204 1258.75 -309.005 1241.78 -264.172C1240.06 -259.625 1238.37 -255.008 1236.76 -250.452C1232.14 -239.636 1227.44 -229.09 1222.88 -218.892C1214.9 -201.013 1207.37 -184.126 1201.08 -167.507Z" fill="#EDE9F6"/>
<path d="M1679.33 -63.0422C1656.89 -3.73552 1628.81 34.9862 1602.3 43.193C1569.14 54.0537 1549.09 53.2326 1515.87 51.8713L1513.59 51.7775C1506.71 51.7758 1499.54 51.8694 1491.67 52.0615C1465.77 52.7001 1438.08 54.7989 1401.88 58.8616C1364.54 62.5555 1325.73 64.6688 1294.76 55.1991C1264.4 45.9954 1239.15 26.3246 1219.7 -3.27211C1190.06 -46.6178 1184.01 -94.9622 1202.23 -143.092C1203.81 -147.287 1205.6 -151.533 1207.55 -155.711C1207.9 -156.657 1208.23 -157.531 1208.57 -158.415C1215.47 -176.649 1224.64 -195.273 1234.35 -214.986C1240.48 -227.448 1246.83 -240.33 1253.02 -253.947C1274.96 -311.748 1301.8 -363.487 1325.16 -406.483C1331.62 -417.781 1338.43 -429.012 1345.4 -439.839C1362.35 -469.901 1385.84 -508.986 1417.61 -544.943C1445.43 -578.416 1482.99 -604.452 1520.7 -616.402C1528.05 -618.781 1535.49 -620.783 1542.81 -622.347C1581.68 -631.545 1618.97 -625.805 1650.67 -605.765C1691.98 -580.036 1718.58 -539.467 1733.62 -509.965C1762.59 -461.444 1758.76 -412.799 1751.28 -358.791C1748.86 -336.859 1744.77 -315.245 1740.44 -292.362C1737.74 -278.085 1734.95 -263.324 1732.46 -247.931C1728.76 -225.462 1723.51 -211.307 1717.95 -196.32C1712.66 -182.091 1707.2 -167.368 1702.55 -144.294C1697.38 -117.81 1689.14 -88.9562 1679.33 -63.0422ZM1201.26 -143.458C1182.86 -94.8502 1188.94 -46.0633 1218.82 -2.37469C1238.37 27.3941 1263.79 47.1901 1294.35 56.4517C1325.45 65.958 1364.37 63.8454 1401.8 60.1451C1437.98 56.0807 1465.65 53.9864 1491.52 53.3484C1499.38 53.1546 1506.54 53.0611 1513.4 53.0665L1515.66 53.1586C1548.98 54.5229 1569.1 55.3475 1602.42 44.4304C1629.3 36.1104 1657.69 -2.93048 1680.3 -62.676C1690.14 -88.6759 1698.41 -117.625 1703.6 -144.194C1708.21 -167.133 1713.65 -181.79 1718.91 -195.964C1724.51 -211.029 1729.79 -225.255 1733.52 -247.89C1736 -263.262 1738.78 -278.008 1741.49 -292.274C1745.82 -315.187 1749.91 -336.828 1752.35 -358.805C1759.85 -413.057 1763.7 -461.956 1734.55 -510.792C1719.47 -540.373 1692.77 -581.09 1651.28 -606.921C1619.39 -627.084 1581.87 -632.855 1542.78 -623.617C1535.44 -622.039 1527.97 -620.032 1520.58 -617.636C1482.67 -605.632 1444.89 -579.442 1416.93 -545.791C1385.08 -509.745 1361.52 -470.567 1344.56 -440.472C1337.61 -429.666 1330.78 -418.415 1324.29 -407.072C1300.9 -364.014 1274.03 -312.209 1252.07 -254.366C1245.91 -240.821 1239.57 -227.949 1233.44 -215.501C1223.24 -194.794 1213.64 -175.29 1206.61 -156.125C1204.67 -151.976 1202.86 -147.693 1201.26 -143.458Z" fill="#EDE9F6"/>
<path d="M1664.76 -61.328C1652.22 -28.1849 1626.28 28.9679 1593.47 39.3837C1560.11 50.5639 1541.77 49.2654 1508.49 46.9076C1501.69 46.6965 1494.83 46.5649 1487.41 46.494C1456.19 46.2059 1425.08 47.8058 1401.47 49.2234C1366.21 50.8729 1329.41 50.9751 1299.37 40.6506C1270.27 30.7309 1246.09 11.5787 1227.49 -16.2828C1199.62 -56.4323 1193.6 -100.679 1210.09 -144.247C1212.56 -150.777 1215.56 -157.375 1219.02 -163.855C1225.85 -179.677 1234.64 -195.752 1243.96 -212.772C1251.66 -226.846 1259.62 -241.401 1267.3 -257.24C1286.83 -305.088 1308.78 -351.11 1335.72 -405.505C1341.67 -416.899 1347.82 -428.07 1353.99 -438.688C1370.55 -471.314 1391.34 -509.226 1420.06 -543.432C1446.01 -576.298 1482.17 -601.204 1519.27 -611.785C1526.35 -613.85 1533.54 -615.551 1540.64 -616.832C1577.57 -624.325 1613.45 -618.151 1644.44 -598.971C1685.33 -574.045 1711.37 -536.036 1726.02 -508.535C1755.37 -461.146 1750.78 -414.601 1741.75 -358.679C1739 -338.483 1734.78 -318.592 1730.31 -297.527C1727.01 -281.95 1723.59 -265.845 1720.62 -248.852C1717.57 -231.652 1713.58 -219.887 1710.08 -210.646C1708.61 -206.755 1707.13 -203.084 1705.56 -199.191C1704.01 -195.343 1702.4 -191.351 1700.82 -187.178C1697.38 -178.083 1692.94 -165.248 1689.17 -146.583C1683.71 -118.785 1675.04 -88.5079 1664.76 -61.328ZM1209.12 -144.614C1192.45 -100.563 1198.5 -55.8788 1226.62 -15.3786C1245.06 12.2476 1270.06 32.0536 1298.92 41.8942C1329.1 52.2638 1365.99 52.1622 1401.35 50.5086C1424.95 49.0879 1456.03 47.4917 1487.23 47.782C1494.65 47.8497 1501.5 47.9797 1508.18 48.1877C1541.66 50.5607 1560.05 51.8628 1593.59 40.6233C1626.91 30.0455 1653.09 -27.5633 1665.73 -60.9618C1676.04 -88.2275 1684.74 -118.599 1690.21 -146.482C1693.96 -165.027 1698.36 -177.773 1701.79 -186.812C1703.36 -190.972 1704.97 -194.945 1706.52 -198.794C1708.02 -202.518 1709.57 -206.372 1711.05 -210.279C1714.57 -219.594 1718.59 -231.446 1721.67 -248.786C1724.63 -265.75 1728.05 -281.846 1731.35 -297.412C1735.82 -318.496 1740.05 -338.421 1742.8 -358.655C1751.89 -414.855 1756.48 -461.654 1726.94 -509.38C1712.25 -536.953 1686.1 -575.108 1645.04 -600.138C1613.88 -619.428 1577.78 -625.643 1540.64 -618.102C1533.52 -616.821 1526.3 -615.11 1519.18 -613.034C1481.85 -602.388 1445.46 -577.319 1419.36 -544.247C1390.54 -509.938 1369.7 -471.923 1353.12 -439.265C1346.95 -428.66 1340.8 -417.467 1334.83 -406.039C1307.86 -351.593 1285.9 -305.539 1266.36 -257.696C1258.73 -241.942 1250.78 -227.408 1243.09 -213.349C1233.75 -196.293 1224.94 -180.184 1218.11 -164.354C1214.65 -157.872 1211.62 -151.211 1209.12 -144.614Z" fill="#EDE9F6"/>
<path d="M1650.86 -58.9498C1630.48 -5.10299 1607.25 28.4743 1585.44 35.5983C1552.13 47.0238 1535 45.2593 1503.91 42.0584C1497.31 41.6358 1490.75 41.2802 1483.85 40.9651C1455.6 39.6692 1427.67 39.5572 1401.71 39.6303C1370.09 39.2993 1333.81 37.431 1304.5 26.138C1277.04 15.6334 1253.27 -3.53945 1235.76 -29.3111C1209.11 -67.1348 1203.29 -106.646 1218.47 -146.754C1221.68 -155.244 1225.89 -163.796 1230.97 -172.177C1237.53 -185.172 1245.59 -198.348 1254.12 -212.299C1263.4 -227.47 1273 -243.159 1282.11 -260.817C1294.46 -288.793 1306.91 -316.346 1320.11 -345.517C1328.85 -364.843 1337.88 -384.827 1346.9 -404.98C1352.35 -416.552 1357.84 -427.675 1363.22 -438.039C1379.07 -473.041 1397.3 -509.89 1423.2 -542.531C1447.38 -574.881 1482.17 -598.687 1518.64 -607.863C1525.46 -609.626 1532.4 -611.024 1539.27 -612.016C1574.26 -617.838 1608.79 -611.219 1639.1 -592.876C1679.63 -568.706 1705.14 -533.226 1719.4 -507.71C1749.14 -461.361 1743.86 -416.837 1733.17 -359C1730.14 -340.325 1725.8 -321.919 1721.2 -302.438C1717.26 -285.755 1713.18 -268.503 1709.72 -250.074C1707.54 -238.683 1704.75 -228.673 1700.93 -218.585C1698.73 -212.772 1696.46 -207.578 1694.06 -202.084C1691.65 -196.59 1689.16 -190.9 1686.75 -184.532C1682.53 -173.37 1679.33 -162.101 1676.68 -149.072C1670.93 -119.96 1661.52 -87.1139 1650.86 -58.9498ZM1217.5 -147.122C1202.13 -106.518 1207.99 -66.5753 1234.89 -28.4005C1252.5 -2.48318 1276.41 16.8032 1304.03 27.3702C1333.46 38.7152 1369.83 40.5856 1401.54 40.9203C1427.49 40.8456 1455.4 40.956 1483.64 42.2502C1490.53 42.566 1497.09 42.9231 1503.66 43.341C1534.87 46.5565 1552.06 48.3276 1585.56 36.8343C1607.75 29.5932 1631.29 -4.29731 1651.83 -58.5833C1662.52 -86.8287 1671.96 -119.773 1677.72 -148.97C1680.35 -161.903 1683.53 -173.088 1687.72 -184.166C1690.11 -190.49 1692.59 -196.159 1694.99 -201.64C1697.4 -207.152 1699.69 -212.365 1701.9 -218.218C1705.76 -228.401 1708.57 -238.494 1710.76 -249.986C1714.22 -268.379 1718.29 -285.613 1722.23 -302.273C1726.84 -321.791 1731.19 -340.221 1734.22 -358.938C1744.97 -417.081 1750.27 -461.862 1720.3 -508.567C1706 -534.152 1680.39 -569.777 1639.7 -594.04C1609.21 -612.491 1574.5 -619.147 1539.3 -613.292C1532.41 -612.296 1525.44 -610.892 1518.58 -609.13C1481.85 -599.879 1446.82 -575.898 1422.47 -543.323C1396.47 -510.559 1378.19 -473.601 1362.3 -438.546C1356.94 -428.205 1351.45 -417.061 1345.98 -405.455C1336.95 -385.285 1327.91 -365.298 1319.18 -345.984C1305.99 -316.806 1293.52 -289.253 1281.2 -261.311C1272.14 -243.754 1262.56 -228.093 1253.29 -212.945C1244.74 -198.964 1236.66 -185.76 1230.1 -172.762C1225 -164.353 1220.75 -155.709 1217.5 -147.122Z" fill="#EDE9F6"/>
</svg>
