<svg width="428" height="927" viewBox="0 0 428 927" fill="none" xmlns="http://www.w3.org/2000/svg">
<g clip-path="url(#clip0_815_710)">
<path d="M-281 30C-281 13.4315 -267.569 0 -251 0H678C694.569 0 708 13.4315 708 30V897C708 913.569 694.569 927 678 927H-251C-267.569 927 -281 913.569 -281 897V30Z" fill="#FBFAFF"/>
<path d="M-466.736 1179.29C-464.384 1227.76 -458.914 1262.54 -448.997 1292.08C-409.279 1404.59 -268.165 1487.41 -89.4902 1503.07C-0.14861 1510.12 82.6186 1495.77 149.857 1461.59C208.425 1431.23 263.823 1380.36 324.195 1301.49C365.394 1246.99 400.655 1183.67 435.163 1102.23C469.802 1019.63 484.874 953.767 484.031 888.678C483.968 885.72 483.865 882.763 483.714 879.636C480.121 805.573 451.745 688.201 407.806 565.668C363.149 441.127 310.51 335.034 266.996 281.87C187.282 137.599 117.062 156.727 10.7705 185.671C-36.3778 198.514 -89.8173 213.061 -155.036 217.343C-202.103 220.419 -244.167 222.414 -281.283 224.174C-459.515 232.619 -540.862 236.467 -626.091 336.045C-645.818 360.272 -654.849 392.615 -652.931 432.156C-651.419 463.325 -643.102 499.236 -628.207 538.897C-614.568 574.875 -597.917 611.995 -580.287 651.294C-557.098 702.982 -533.119 756.426 -512.489 814.797C-488.224 884.27 -474.375 960.369 -470.151 1047.45C-469.524 1060.37 -469.091 1073.93 -468.863 1087.73C-468.763 1093.94 -468.674 1100.09 -468.584 1106.19C-468.216 1131.79 -467.867 1155.96 -466.736 1179.29ZM484.713 879.628C484.865 882.77 484.97 885.744 485.037 888.724C485.883 954.058 470.773 1020.12 436.046 1102.93C401.496 1184.47 366.185 1247.87 324.927 1302.46C264.459 1381.45 208.962 1432.41 150.269 1462.83C82.8939 1497.08 -0.0147883 1511.45 -89.4976 1504.39C-268.555 1488.7 -410.024 1405.55 -449.907 1292.57C-459.883 1262.87 -465.38 1227.93 -467.739 1179.3C-468.872 1155.94 -469.221 1131.75 -469.59 1106.14C-469.676 1100.04 -469.765 1093.89 -469.867 1087.69C-470.096 1073.9 -470.528 1060.36 -471.154 1047.46C-475.37 960.547 -489.187 884.607 -513.395 815.289C-534.004 756.992 -557.967 703.58 -581.143 651.917C-598.786 612.598 -615.446 575.461 -629.1 539.433C-644.06 499.601 -652.414 463.512 -653.934 432.164C-655.872 392.222 -646.74 359.549 -626.789 335.043C-585.346 286.622 -544.334 259.597 -489.643 244.685C-436.542 230.2 -371.457 227.117 -281.377 222.848C-244.266 221.088 -202.201 219.098 -155.142 216.014C-90.0044 211.746 -36.5993 197.201 10.515 184.371C65.3761 169.433 108.712 157.627 149.521 167.35C193.645 177.854 230.099 212.915 267.728 281.034C311.267 334.202 363.996 440.461 408.713 565.159C452.701 687.844 481.112 805.403 484.713 879.628Z" fill="#EDE9F7"/>
<path d="M472.883 880.187C472.826 878.431 472.752 876.69 472.665 874.898C469.234 804.158 441.629 691.142 398.813 572.597C355.248 451.951 303.872 348.807 261.38 296.68C183.683 156.611 115.113 173.579 11.319 199.269C-33.5638 210.374 -84.4364 222.962 -146.099 226.167C-191.041 228.652 -231.319 230.15 -266.854 231.473C-439.237 237.889 -517.915 240.819 -600.964 335.992C-622.418 361.062 -632.25 395.365 -630.184 437.965C-628.798 466.533 -622.039 499.005 -610.094 534.477C-596.953 578.236 -579.264 623.928 -560.534 672.299C-542.935 717.75 -524.736 764.756 -508.405 814.908C-475.128 919.006 -466.376 1019.68 -462.688 1086.34L-462.238 1098.1C-461.691 1112.38 -461.175 1125.86 -460.524 1139.28C-457.756 1196.35 -452.85 1242.74 -437.9 1283.63C-397.916 1391.71 -261.135 1472.74 -89.4384 1490.07C-1.55199 1499.56 79.5055 1487.96 144.968 1456.55C202.991 1428.34 257.7 1379.54 317.134 1302.99C360.653 1247.2 396.685 1181.78 430.517 1097.13C463.096 1014.66 476.173 947.976 472.918 880.921L472.883 880.187ZM473.67 874.889C473.758 876.69 473.832 878.44 473.882 880.191L473.921 880.913C477.186 948.217 464.076 1015.11 431.411 1097.79C397.532 1182.57 361.449 1248.08 317.86 1303.96C258.328 1380.64 203.516 1429.52 145.361 1457.79C79.7681 1489.27 -1.43108 1500.89 -89.4587 1491.39C-261.525 1474.03 -398.65 1392.68 -438.803 1284.15C-453.823 1243.05 -458.753 1196.52 -461.53 1139.29C-462.181 1125.86 -462.694 1112.37 -463.242 1098.09L-463.693 1086.35C-467.376 1019.79 -476.112 919.271 -509.323 815.366C-525.644 765.261 -543.832 718.278 -561.423 672.842C-580.165 624.443 -597.866 578.724 -611.015 534.935C-623.003 499.335 -629.791 466.706 -631.184 437.973C-633.27 394.97 -623.337 360.312 -601.649 334.984C-518.346 239.507 -439.56 236.574 -266.94 230.149C-231.407 228.825 -191.135 227.328 -146.193 224.845C-84.6041 221.646 -33.768 209.063 11.0785 197.965C64.6518 184.705 106.966 174.233 146.805 184.37C189.871 195.328 225.434 229.71 262.111 295.837C304.628 347.978 356.097 451.294 399.716 572.082C442.587 690.783 470.231 803.985 473.67 874.889Z" fill="#EDE9F7"/>
<path d="M-607.363 444.218C-606.115 469.942 -600.816 498.742 -591.62 529.813C-579.677 583.082 -560.951 639.481 -541.124 699.193C-528.751 736.461 -515.956 774.996 -503.991 815.172C-475.241 914.235 -463.699 1007.42 -456.199 1085.51L-455.908 1090.08C-451.389 1161.43 -447.484 1223.05 -426.49 1276.04C-386.257 1379.86 -253.902 1459.23 -89.2891 1478.25C-1.6847 1490.37 75.4544 1481.75 139.999 1452.62C196.631 1426.91 252.184 1378.74 309.844 1305.37C355.034 1249.01 392.875 1179.43 425.528 1092.62C456.126 1010.26 467.389 940.808 461.351 871.974L461.278 870.432C458.004 802.918 431.165 694.103 389.493 579.362C347.025 462.436 296.923 362.07 255.47 310.875C179.812 174.766 112.918 189.582 11.6609 212.011C-30.8943 221.435 -79.127 232.114 -137.169 234.288C-179.899 236.176 -218.308 237.182 -252.196 238.074C-418.697 242.45 -494.688 244.446 -575.516 335.406C-598.887 361.412 -609.604 398.023 -607.363 444.218ZM463.429 887.828C466.528 951.706 454.771 1016.98 426.434 1093.26C393.73 1180.2 355.827 1249.9 310.564 1306.35C252.806 1379.84 197.136 1428.1 140.373 1453.87C75.6955 1483.07 -1.58962 1491.71 -89.3246 1479.57C-170.522 1470.19 -245.173 1446.17 -305.207 1410.14C-365.245 1374.09 -407.491 1327.91 -427.375 1276.6C-448.467 1223.36 -452.378 1161.61 -456.909 1090.11L-457.196 1085.57C-464.686 1007.59 -476.215 914.507 -504.924 815.586C-516.881 775.449 -529.671 736.919 -542.043 699.662C-561.88 639.91 -580.621 583.468 -592.566 530.177C-601.79 499.022 -607.111 470.093 -608.365 444.227C-610.627 397.6 -599.802 360.642 -576.191 334.375C-495.11 243.134 -419.011 241.135 -252.275 236.757C-218.389 235.863 -179.983 234.857 -137.257 232.963C-79.2818 230.795 -31.0831 220.126 11.4374 210.7C63.7016 199.128 104.976 189.986 143.825 200.575C185.828 212.014 220.483 245.775 256.2 310.035C297.678 361.242 347.869 461.771 390.393 578.854C432.124 693.743 458.998 802.746 462.281 870.424L462.352 871.936C462.809 877.182 463.173 882.54 463.429 887.828Z" fill="#EDE9F7"/>
<path d="M-584.491 452.129C-583.402 474.576 -579.455 499.304 -572.76 525.615C-562.958 590.369 -543.101 660.012 -522.079 733.747C-514.539 760.183 -506.745 787.519 -499.199 815.38C-472.581 916.954 -459.162 1013.57 -449.36 1084.12C-443.343 1151.02 -437.669 1214.17 -414.756 1267.56C-394.825 1316.52 -353.801 1360.9 -296.11 1395.93C-238.301 1431.02 -166.635 1454.96 -88.856 1465.16C-2.79158 1479.8 72.626 1473.84 135.3 1447.45C191.321 1423.92 246.121 1377.91 302.835 1306.77C350.296 1249.2 388.888 1177.49 420.818 1087.53C445.6 1016.78 455.77 955.593 452.829 894.956C452.325 884.561 451.416 874.01 450.121 863.596C446.487 798.831 420.235 694.622 379.885 584.753C338.055 470.86 290.687 376.514 249.919 325.909C176.287 193.968 111.047 206.572 12.2953 225.653C-27.9029 233.42 -73.4661 242.224 -127.865 243.39C-168.306 244.69 -204.793 245.209 -236.986 245.672C-397.694 247.973 -471.042 249.021 -549.677 335.633C-575.222 362.619 -586.932 401.816 -584.491 452.129ZM453.832 894.948C456.784 955.808 446.583 1017.19 421.736 1088.14C389.75 1178.25 351.09 1250.09 303.541 1307.76C246.73 1379.02 191.811 1425.13 135.655 1448.71C72.841 1475.16 -2.71603 1481.13 -88.9111 1466.47C-166.79 1456.26 -238.572 1432.28 -296.486 1397.12C-354.392 1361.96 -395.589 1317.36 -415.628 1268.14C-438.64 1214.53 -444.328 1151.24 -450.351 1084.24C-460.14 1013.78 -473.556 917.221 -500.144 815.751C-507.684 787.912 -515.478 760.581 -523.015 734.146C-544.053 660.361 -563.924 590.66 -573.726 525.889C-580.432 499.544 -584.398 474.703 -585.492 452.137C-587.954 401.389 -576.128 361.838 -550.34 334.589C-471.453 247.711 -397.997 246.654 -237.055 244.349C-204.864 243.891 -168.383 243.37 -127.944 242.073C-73.6037 240.902 -28.0768 232.106 12.0937 224.346C63.0586 214.503 103.316 206.72 141.187 217.751C182.131 229.675 215.891 262.777 250.647 325.068C291.444 375.692 338.899 470.196 380.786 584.241C421.184 694.244 447.476 798.654 451.116 863.516C452.406 873.912 453.326 884.508 453.832 894.948Z" fill="#EDE9F7"/>
<path d="M-563.315 460.799C-562.407 479.516 -559.671 499.768 -555.182 521.015C-548.756 599.985 -527.42 686.386 -504.832 777.843C-501.764 790.263 -498.669 802.79 -495.578 815.441C-477.486 892.533 -464.695 964.668 -453.411 1028.31C-450.019 1047.46 -446.81 1065.54 -443.626 1082.83C-435.379 1152.38 -427.24 1209.51 -404.085 1259.38C-383.967 1306.32 -343.92 1349.18 -288.27 1383.35C-232.484 1417.6 -163.578 1441.53 -88.9937 1452.57C-4.33117 1469.76 69.4671 1466.46 130.371 1442.75C185.842 1421.4 239.97 1377.48 295.837 1308.49C344.97 1250.49 385.494 1174.48 416.304 1082.56C438.03 1016.85 446.85 959.501 444.066 902.09C443.313 886.562 441.65 870.763 439.139 855.129C434.801 792.725 408.964 693.118 370.007 588.602C329.49 479.896 283.683 389.383 244.329 340.281C172.586 212.333 108.871 222.703 12.4254 238.413C-25.4422 244.583 -68.3596 251.571 -119.17 251.78C-157.305 252.49 -191.861 252.541 -222.349 252.575C-377.617 252.778 -448.479 252.873 -525.088 335.244C-553.135 363.354 -565.993 405.59 -563.315 460.799ZM445.07 902.082C447.865 959.709 439.016 1017.24 417.225 1083.15C386.366 1175.23 345.756 1251.38 296.538 1309.49C240.57 1378.61 186.324 1422.61 130.702 1444.02C69.6627 1467.78 -4.27923 1471.09 -89.0684 1453.87C-163.742 1442.83 -232.765 1418.85 -288.649 1384.54C-344.508 1350.24 -384.722 1307.17 -404.94 1260C-428.189 1209.93 -436.354 1152.67 -444.608 1083.02C-447.785 1065.78 -450.994 1047.69 -454.389 1028.54C-465.668 964.92 -478.455 892.809 -496.534 815.769C-499.624 803.133 -502.717 790.604 -505.783 778.189C-528.389 686.658 -549.741 600.194 -556.162 521.187C-560.657 499.97 -563.404 479.613 -564.317 460.808C-567.016 405.151 -554.036 362.554 -525.737 334.19C-448.884 251.549 -377.912 251.461 -222.409 251.263C-191.923 251.219 -157.37 251.179 -119.238 250.46C-68.4799 250.248 -25.5922 243.269 12.2429 237.1C62.0206 228.996 101.337 222.596 138.304 234.104C178.27 246.547 211.198 279.028 245.059 339.442C284.442 388.569 330.329 479.221 370.902 588.075C409.91 692.737 435.789 792.521 440.13 855.007C442.648 870.625 444.313 886.492 445.07 902.082Z" fill="#EDE9F7"/>
<path d="M-535.405 539.807C-531.374 622.913 -512.72 713.749 -490.582 815.32C-481.953 856.904 -474.264 896.364 -466.829 934.523C-456.412 987.992 -446.568 1038.5 -436.595 1081.58C-427.152 1144.8 -417.3 1201.16 -392.177 1251.37C-371.909 1296.33 -332.921 1337.7 -279.416 1371.04C-225.768 1404.48 -159.757 1428.43 -88.5194 1440.31C-5.43584 1460.1 66.595 1459.45 125.593 1438.38C180.387 1419.21 233.716 1377.36 288.625 1310.43C339.982 1251.15 381.247 1172.84 411.291 1077.65C430.012 1017.46 437.855 962.262 435.267 908.913C434.271 888.372 431.686 867.389 427.584 846.543C417.37 724.867 322.025 459.204 238.498 354.123C168.744 230.01 106.644 238.12 12.6421 250.392C-22.769 255.022 -62.904 260.263 -109.98 259.558C-145.641 259.706 -178.122 259.279 -206.778 258.91C-356.41 256.96 -424.705 256.066 -499.15 334.323C-529.999 363.676 -544.128 409.511 -541.167 470.555C-540.469 484.942 -538.783 500.235 -536.162 516.01C-536.044 523.819 -535.794 531.784 -535.405 539.807ZM436.269 908.905C438.867 962.455 430.998 1017.84 412.217 1078.21C382.121 1173.58 340.771 1252.05 289.319 1311.43C234.306 1378.49 180.852 1420.44 125.905 1439.65C66.763 1460.78 -5.41202 1461.44 -88.6157 1441.61C-159.933 1429.72 -226.052 1405.73 -279.802 1372.23C-333.501 1338.77 -372.651 1297.2 -393.018 1252.02C-418.234 1201.63 -428.112 1145.13 -437.566 1081.83C-447.533 1038.78 -457.376 988.263 -467.8 934.782C-475.234 896.623 -482.923 857.173 -491.546 815.608C-513.697 713.968 -532.365 623.055 -536.402 539.815C-536.792 531.775 -537.044 523.79 -537.15 516.088C-539.775 500.377 -541.464 485.015 -542.165 470.563C-545.148 409.052 -530.893 362.855 -499.786 333.252C-463.728 295.35 -428.074 275.008 -380.582 265.255C-335.131 255.916 -281.314 256.613 -206.827 257.586C-178.173 257.96 -145.695 258.382 -110.033 258.241C-63.0071 258.937 -22.8999 253.701 12.4901 249.081C61.0037 242.75 99.3217 237.74 135.325 249.761C174.258 262.763 206.298 294.688 239.227 353.282C277.12 400.947 321.366 487.832 360.551 591.587C398.092 690.971 423.518 786.223 428.57 846.38C432.671 867.212 435.269 888.277 436.269 908.905Z" fill="#EDE9F7"/>
<path d="M-518.352 585.902C-514.571 663.861 -500.314 745.812 -486.867 815.695C-469.862 909.365 -451.528 1006.97 -430.796 1080.49C-418.55 1147.3 -406.037 1197.8 -381.456 1243.32C-339.595 1331.19 -227.427 1401.86 -88.7133 1427.78C-7.05446 1450.18 63.3326 1452.17 120.525 1433.71C174.736 1416.79 227.362 1377.05 281.434 1312.23C334.364 1252.61 377.618 1169.85 406.534 1072.88C422.939 1017.04 429.733 965.588 427.308 915.579C426.064 889.927 422.483 864.68 416.361 838.397C410.597 780.67 385.633 690.235 349.562 596.365C311.756 497.979 269.171 415.102 232.729 368.985C164.818 248.793 104.176 254.579 12.3789 263.33C-20.5912 266.481 -57.9587 270.047 -101.333 268.498C-134.486 268.092 -164.866 267.219 -191.668 266.438C-331.702 262.418 -401.992 260.398 -474.475 334.48C-508.124 364.76 -524.18 416.144 -520.933 483.083C-520.483 492.37 -519.66 502.049 -518.481 511.869C-519.654 535.053 -519.613 559.91 -518.352 585.902ZM428.308 915.571C430.743 965.773 423.927 1017.4 407.472 1073.42C378.499 1170.58 335.151 1253.51 282.119 1313.24C227.943 1378.19 175.173 1418.02 120.818 1435C63.4768 1453.5 -7.05451 1451.51 -88.8314 1429.08C-227.815 1403.11 -340.269 1332.19 -382.281 1244C-409.612 1193.39 -421.705 1135.63 -431.749 1080.81C-452.483 1007.29 -470.828 909.644 -487.841 815.936C-501.297 746.004 -515.566 663.983 -519.352 585.91C-520.615 559.869 -520.656 534.947 -519.473 511.854C-520.653 502.141 -521.483 492.423 -521.935 483.091C-525.205 415.676 -509.008 363.913 -475.095 333.397C-402.368 259.072 -331.965 261.095 -191.704 265.127C-164.904 265.898 -134.529 266.769 -101.371 267.175C-58.0442 268.727 -20.6982 265.163 12.2485 262.021C59.6276 257.501 97.0466 253.93 132.182 266.478C170.167 280.045 201.4 311.403 233.463 368.152C269.929 414.284 312.594 497.304 350.452 595.827C386.571 689.825 411.579 780.426 417.336 838.188C423.464 864.463 427.058 889.813 428.308 915.571Z" fill="#EDE9F7"/>
<path d="M-503.864 635.961C-501.323 688.351 -494.486 747.329 -482.959 816.26C-465.265 929.622 -446.238 1015.83 -424.787 1079.81C-411.441 1140.41 -397.118 1190.09 -370.515 1235.81C-328.374 1319.4 -220.385 1388.4 -88.6691 1415.93C-8.42906 1441 60.3192 1445.64 115.705 1429.73C169.303 1415.04 221.242 1377.39 274.488 1314.61C344.276 1237.77 382.363 1138.38 402.027 1068.53C416.415 1016.63 422.307 968.64 420.036 921.825C418.572 891.631 413.776 861.752 405.374 830.481C392.162 717.671 303.388 480.822 227.176 383.691C161.039 267.236 101.787 270.64 12.1016 275.797C-18.3576 277.548 -52.8808 279.533 -92.4953 277.202C-123.022 276.273 -151.197 274.975 -176.054 273.826C-311.195 267.581 -379.029 264.449 -449.614 334.465C-487.019 366.277 -504.853 422.747 -501.213 497.799C-501.055 501.056 -500.852 504.392 -500.613 507.716C-505.081 547.064 -506.143 588.965 -503.864 635.961ZM421.037 921.817C423.316 968.818 417.406 1016.98 402.968 1069.04C383.264 1139.04 345.096 1238.62 275.164 1315.63C221.809 1378.54 169.734 1416.29 115.968 1431.02C60.442 1446.97 -8.46157 1442.33 -88.809 1417.23C-220.771 1389.65 -329.039 1320.4 -371.318 1236.53C-398.002 1190.68 -412.368 1140.87 -425.725 1080.19C-447.181 1016.21 -466.23 929.911 -483.937 816.469C-495.473 747.476 -502.319 688.431 -504.864 635.97C-507.148 588.877 -506.081 546.888 -501.609 507.602C-501.851 504.43 -502.054 501.079 -502.213 497.807C-505.877 422.274 -487.897 365.411 -450.219 333.375C-379.394 263.117 -311.447 266.253 -176.077 272.506C-151.224 273.652 -123.055 274.958 -92.52 275.891C-52.9384 278.213 -18.4387 276.23 12.0011 274.48C102.017 269.305 161.489 265.892 227.905 382.856C304.199 480.073 393.129 717.338 406.346 830.235C414.747 861.496 419.566 891.496 421.037 921.817Z" fill="#EDE9F7"/>
<path d="M-491.093 685.306C-489.101 726.363 -484.862 769.333 -478.136 816.652C-463.941 924.955 -443.688 1013.27 -417.934 1079.16C-405.255 1127.88 -389.339 1179.62 -358.804 1228.46C-316.441 1307.86 -212.789 1375.26 -88.2733 1404.41C-8.46416 1432.59 56.6734 1439.68 110.912 1426.09C163.812 1413.65 214.963 1378.04 267.303 1317.23C323.945 1256.04 370.015 1166.19 397.038 1064.21C409.659 1015.86 414.758 971.039 412.632 927.197C410.961 892.747 404.831 858.475 393.89 822.415C379.182 714.178 295.009 492.682 221.341 397.87C157.011 284.96 99.1687 285.907 11.6066 287.343C-16.2046 287.799 -47.7313 288.315 -83.443 285.295C-111.171 283.876 -136.969 282.188 -159.736 280.688C-289.965 272.115 -355.334 267.816 -423.979 333.884C-474.045 374.137 -483.085 448.129 -481.862 503.116L-481.874 503.283C-491.369 557.885 -494.385 617.428 -491.093 685.306ZM413.629 927.189C415.763 971.207 410.648 1016.19 397.99 1064.71C370.904 1166.9 324.735 1256.94 267.977 1318.25C215.517 1379.21 164.219 1414.91 111.152 1427.38C56.7681 1441.01 -8.52256 1433.92 -88.435 1405.69C-213.173 1376.5 -317.087 1308.88 -359.588 1229.22C-390.204 1180.24 -406.166 1128.37 -418.849 1079.61C-444.621 1013.69 -464.911 925.244 -479.12 816.817C-485.853 769.45 -490.095 726.435 -492.089 685.314C-495.386 617.337 -492.368 557.7 -482.863 502.995C-484.086 447.683 -474.954 373.288 -424.569 332.771C-355.685 266.478 -290.202 270.786 -159.744 279.367C-136.984 280.864 -111.185 282.565 -83.4532 283.974C-47.7607 286.999 -16.26 286.481 11.5381 286.02C99.417 284.589 157.473 283.635 222.076 397.038C295.815 491.938 380.136 713.825 394.847 822.121C405.797 858.182 411.951 892.598 413.629 927.189Z" fill="#EDE9F7"/>
<path d="M-482.096 730.313C-480.736 758.352 -478.261 787.691 -474.746 817.527C-463.469 923.024 -441.918 1013.34 -412.428 1078.74C-393.946 1139.33 -374.788 1181.9 -348.337 1221.21C-327.333 1258.2 -292.347 1293.55 -247.13 1323.5C-201.642 1353.62 -146.807 1377.58 -88.5523 1392.79C-10.1313 1423.75 53.4516 1433.41 105.884 1422.32C158.178 1412.17 208.667 1378.64 260.237 1319.83C319.211 1257.47 366.172 1165.24 392.488 1060.12C403.604 1015.01 408.044 973.138 406.053 932.099C404.192 893.729 396.611 855.364 382.875 814.803C366.453 710.145 286.097 504.238 215.668 412.925C152.93 303.533 96.2613 301.924 10.4809 299.492C-14.6354 298.776 -43.1043 297.972 -74.8951 294.378C-99.7171 292.536 -122.047 290.58 -143.636 288.687C-269.475 277.669 -332.638 272.135 -399.606 334.252C-450.372 372.66 -462.922 445.215 -464.518 499.315L-464.538 499.482C-480.323 567.401 -486.23 645.063 -482.096 730.313ZM407.052 932.091C409.051 973.296 404.598 1015.33 393.441 1060.59C367.072 1165.94 320.002 1258.37 260.906 1320.86C209.209 1379.82 158.564 1413.44 106.094 1423.62C53.5142 1434.74 -10.2179 1425.08 -88.7402 1394.06C-147.038 1378.85 -201.966 1354.84 -247.537 1324.66C-292.902 1294.62 -328.02 1259.12 -349.098 1222C-375.609 1182.61 -394.825 1139.91 -413.318 1079.27C-442.844 1013.81 -464.44 923.31 -475.738 817.644C-479.254 787.784 -481.731 758.399 -483.093 730.321C-487.233 644.949 -481.319 567.158 -465.518 499.105C-463.901 444.699 -451.251 371.771 -400.178 333.135C-332.972 270.793 -269.693 276.333 -143.628 287.372C-122.038 289.265 -99.7162 291.221 -74.8812 293.065C-43.1077 296.657 -14.6561 297.462 10.4492 298.172C96.5296 300.615 153.401 302.229 216.401 412.09C248.576 453.795 286.476 525.464 320.331 608.632C352.125 686.735 375.858 763.684 383.82 814.473C397.575 855.038 405.183 893.557 407.052 932.091Z" fill="#EDE9F7"/>
<path d="M-474.363 767.114C-473.558 783.723 -472.34 800.741 -470.751 817.699C-461.987 922.945 -439.723 1012.86 -406.364 1077.73C-386.996 1132.41 -365.731 1174.23 -337.372 1213.42C-293.765 1285.49 -200.782 1348.02 -88.6067 1380.73C-11.6639 1414.54 50.2913 1426.77 100.853 1418.12C152.475 1410.27 202.237 1378.81 252.989 1321.95C314.232 1258.4 362.027 1163.76 387.591 1055.44C397.394 1013.25 401.249 974.039 399.382 935.555C397.343 893.524 388.225 851.313 371.504 806.502C353.713 707.671 275.63 513.281 209.799 427.095C148.595 320.996 93.0225 316.699 8.91097 310.214C-13.3293 308.495 -38.5373 306.555 -66.2308 302.523C-87.9313 300.344 -107.685 298.121 -126.787 295.969C-244.541 282.735 -309.405 275.442 -374.74 333.713C-426.118 370.268 -442.174 441.421 -446.601 494.682C-469.885 575.439 -479.217 667.045 -474.363 767.114ZM400.383 935.546C402.257 974.187 398.386 1013.56 388.547 1055.89C362.931 1164.45 315.025 1259.3 253.651 1322.99C202.766 1380 152.839 1411.55 101.033 1419.42C50.328 1428.1 -11.7788 1415.86 -88.8254 1381.99C-201.175 1349.23 -294.387 1286.52 -338.109 1214.25C-366.523 1174.99 -387.847 1133.05 -407.227 1078.33C-440.639 1013.37 -462.964 923.236 -471.744 817.781C-473.337 800.799 -474.556 783.748 -475.362 767.122C-480.225 666.868 -470.874 575.084 -447.569 494.305C-443.142 440.91 -426.985 369.352 -375.295 332.577C-309.72 274.092 -244.735 281.396 -126.76 294.657C-107.658 296.805 -87.9091 299.026 -66.1907 301.218C-38.5125 305.244 -13.3196 307.185 8.91173 308.896C93.3154 315.412 149.076 319.717 210.534 426.262C241.722 467.09 277.098 533.235 310.092 612.445C340.412 685.239 363.718 757.645 372.438 806.127C389.182 850.955 398.336 893.335 400.383 935.546Z" fill="#EDE9F7"/>
<path d="M-467.856 797.278C-467.511 804.388 -467.082 811.606 -466.581 818.729C-460.232 924.174 -437.269 1013.62 -400.169 1077.4C-380.22 1126.17 -356.767 1167.08 -326.316 1206.23C-282.425 1274.06 -193.605 1334.94 -88.6896 1369.14C-12.2022 1406.34 46.3775 1420.7 95.7119 1414.35C146.623 1408.83 195.633 1379.46 245.554 1324.57C308.125 1260.82 358.011 1161.28 382.439 1051.46C391.093 1011.94 394.446 975.165 392.693 939.04C390.46 892.986 380.038 848.513 359.896 799.075C340.655 705.548 266.755 525.692 203.773 442.401C143.965 339.409 89.3314 332.281 6.62879 321.491C-12.5151 318.99 -34.2097 316.158 -57.5935 311.902C-75.9346 309.493 -92.8672 307.113 -109.241 304.802C-223.174 288.751 -285.931 279.903 -349.774 334.383C-401.697 369.037 -421.263 438.755 -428.542 491.142C-459.594 581.775 -473.176 687.596 -467.856 797.278ZM393.694 939.032C395.453 975.31 392.089 1012.23 383.4 1051.89C358.92 1161.96 308.909 1261.72 246.2 1325.61C196.147 1380.66 146.965 1410.12 95.8594 1415.66C46.3754 1422.03 -12.3496 1407.65 -88.9322 1370.39C-193.998 1336.15 -283.029 1275.1 -327.027 1207.1C-357.526 1167.89 -381.04 1126.88 -400.995 1078.07C-438.172 1014.17 -461.214 924.467 -467.578 818.769C-468.078 811.641 -468.507 804.411 -468.852 797.286C-474.182 687.388 -460.573 581.372 -429.489 490.693C-422.21 438.171 -402.527 368.08 -350.31 333.23C-286.227 278.55 -223.347 287.407 -109.193 303.493C-92.8211 305.801 -75.8903 308.189 -57.5365 310.592C-34.1506 314.849 -12.4624 317.681 6.6684 320.18C49.4186 325.758 83.1824 330.16 114.613 346.205C148.547 363.529 176.275 392.937 204.509 441.567C234.225 480.865 268.029 543.28 299.645 617.261C328.462 684.695 351.328 752.503 360.815 798.649C380.988 848.124 391.45 892.777 393.694 939.032Z" fill="#EDE9F7"/>
<path d="M-463.063 827.91C-458.108 930.072 -434.535 1016.1 -394.888 1076.68C-374.132 1120.75 -349.832 1158.35 -316.046 1198.7C-271.748 1262.4 -186.929 1321.67 -89.1133 1357.3C-14.0125 1397.49 43.0668 1414.34 90.5725 1410.35C140.155 1407.21 189.884 1379.14 238.407 1326.89C303.32 1262 354.14 1160.01 377.846 1047.05C385.521 1009.93 388.447 975.36 386.798 941.362C384.406 892.057 372.343 844.31 348.827 791.109C327.382 699.76 258.356 537.541 198.011 456.962C139.275 356.674 88.0908 347.026 3.29028 331.038C-13.2505 327.917 -30.3475 324.693 -49.1809 320.483C-63.9014 318.036 -77.7305 315.629 -91.105 313.314C-201.871 294.067 -262.884 283.468 -325.578 334.286C-378.106 367.044 -401.243 435.372 -411.415 486.928C-450.978 586.918 -468.952 701.787 -463.438 819.239C-463.325 822.153 -463.203 825.034 -463.063 827.91ZM387.801 941.354C389.457 975.498 386.517 1010.21 378.813 1047.47C355.053 1160.68 304.111 1262.9 239.053 1327.94C190.389 1380.34 140.468 1408.51 90.6857 1411.66C43.0299 1415.66 -14.1909 1398.79 -89.3869 1358.54C-187.327 1322.87 -272.337 1263.45 -316.73 1199.61C-350.559 1159.21 -374.92 1121.51 -395.681 1077.42C-435.43 1016.69 -459.094 930.382 -464.064 827.918C-464.204 825.037 -464.327 822.151 -464.436 819.237C-469.963 701.557 -451.95 586.46 -412.345 486.397C-402.162 434.715 -378.899 366.052 -326.095 333.125C-263.156 282.105 -202.018 292.73 -91.0308 312.003C-77.6557 314.33 -63.8313 316.73 -49.0933 319.182C-30.2489 323.397 -13.1565 326.612 3.37345 329.734C45.7443 337.722 79.2082 344.033 110.244 361.079C143.716 379.456 171.01 408.77 198.751 456.136C227.05 493.916 259.343 552.644 289.635 621.435C316.979 683.529 339.447 746.787 349.732 790.643C373.285 843.891 385.399 891.831 387.801 941.354Z" fill="#EDE9F7"/>
<path d="M-459.019 842.587C-454.334 939.18 -430.157 1019.92 -389.105 1076.08C-368.313 1114.59 -342.49 1150.14 -305.325 1191.44C-260.588 1251.17 -179.84 1308.89 -89.2881 1345.89C-14.6323 1389.78 39.2565 1408.57 85.5167 1406.84C134.417 1406.04 183.425 1380.06 231.199 1329.63C298.401 1263.52 350.1 1158.97 373.047 1042.76C379.854 1007.79 382.403 975.178 380.847 943.084C378.302 890.629 364.54 839.751 337.542 782.971C314.702 697.465 249.406 548.406 192.139 470.994C134.165 372.761 83.1147 359.885 -1.46173 338.541C-13.9275 335.39 -26.8286 332.142 -40.6548 328.384C-51.3528 326.155 -61.6463 323.962 -71.5479 321.856C-179.651 298.839 -239.196 286.164 -300.999 333.517C-354.027 364.391 -380.737 431.406 -393.816 482.185C-439.803 585.274 -462.588 701.903 -459.753 819.594C-459.633 827.306 -459.385 835.041 -459.019 842.587ZM381.846 943.075C383.409 975.309 380.849 1008.05 374.017 1043.16C351.013 1159.64 299.194 1264.43 231.839 1330.69C183.919 1381.28 134.707 1407.35 85.5977 1408.16C39.1849 1409.89 -14.8457 1391.07 -89.5946 1347.12C-180.246 1310.08 -261.161 1252.22 -305.98 1192.38C-343.183 1151.05 -369.061 1115.41 -389.857 1076.89C-431.037 1020.56 -455.314 939.517 -460.015 842.595C-460.382 835.03 -460.631 827.277 -460.752 819.545C-463.596 701.631 -440.763 584.758 -394.723 481.59C-381.627 430.684 -354.781 363.365 -301.491 332.338C-239.442 284.785 -179.77 297.491 -71.4453 320.553C-61.5415 322.659 -51.2523 324.852 -40.5302 327.088C-26.6866 330.851 -13.7938 334.104 -1.3264 337.246C41.0046 347.934 74.4344 356.363 105.266 374.626C138.475 394.306 165.496 423.768 192.877 470.167C250.196 547.646 315.606 696.955 338.435 782.46C365.479 839.305 379.29 890.388 381.846 943.075Z" fill="#EDE9F7"/>
<path d="M-455.144 854.097C-450.663 946.494 -425.769 1023.03 -383.148 1075.42C-359.012 1114.43 -330.252 1147.02 -294.474 1183.97C-248.514 1240.63 -173.789 1295.34 -89.4263 1334.11C-40.1668 1365.8 23.5978 1402.23 80.4202 1402.89C128.605 1404.43 176.873 1380.58 223.886 1332C292.335 1265.76 346.239 1156.01 368.086 1038.42C374.131 1005.44 376.352 974.665 374.881 944.344C372.157 888.173 357.125 835.967 326.124 775.076C301.488 694.046 239.42 558.476 186.214 485.632C128.461 388.679 76.8664 372.102 -8.61676 344.633C-16.173 342.198 -23.9845 339.692 -32.0787 337.041C-38.2399 335.447 -44.2777 333.87 -50.1796 332.342C-152.917 305.611 -214.928 289.483 -276.266 333.497C-329.721 362.444 -360.015 428.072 -376.024 478.038C-427.708 582.385 -456.042 703.856 -455.854 820.16C-455.921 831.609 -455.681 843.028 -455.144 854.097ZM375.88 944.336C377.357 974.791 375.129 1005.69 369.062 1038.8C358.815 1093.94 341.104 1149.07 317.829 1198.25C292.04 1252.75 260.651 1298.11 224.523 1333.07C177.342 1381.82 128.869 1405.76 80.4648 1404.21C23.4399 1403.54 -40.464 1367.04 -89.7659 1335.32C-174.206 1296.52 -249.067 1241.7 -295.099 1184.95C-330.898 1147.98 -359.711 1115.33 -383.857 1076.29C-426.631 1023.71 -451.644 946.859 -456.143 854.105C-456.681 843.006 -456.92 831.555 -456.855 820.079C-456.951 762.087 -450.194 703.293 -436.771 645.336C-423.173 586.61 -403.032 530.101 -376.911 477.371C-360.875 427.293 -330.436 361.379 -276.737 332.306C-215.142 288.099 -152.997 304.264 -50.0402 331.044C-44.1397 332.588 -38.1046 334.155 -31.9194 335.753C-23.7987 338.418 -15.9872 340.923 -8.43558 343.353C77.2705 370.891 129.005 387.515 186.953 484.803C240.208 557.721 302.374 693.493 327.001 774.518C358.049 835.498 373.143 887.91 375.88 944.336Z" fill="#EDE9F7"/>
<path d="M-451.344 863.87C-447.019 953.05 -421.321 1026.15 -377.033 1075.27C-350.475 1112.75 -317.947 1143.97 -283.507 1177.03C-236.739 1230 -166.043 1283.14 -89.512 1322.86C-38.3027 1358.84 21.2824 1396.04 75.3117 1399.46C122.748 1403.37 170.255 1381.65 216.508 1334.9C287.167 1267.54 341.923 1155.29 362.992 1034.6C368.356 1003.45 370.287 974.355 368.895 945.653C366.031 886.596 349.283 831.71 314.592 767.697C288.244 691.617 230.81 571.037 180.213 500.76C121.686 403.505 68.2404 382.409 -20.3097 347.454L-23.5205 346.184L-26.1447 345.346C-128.262 312.727 -189.902 293.034 -251.461 333.988C-305.256 360.984 -339.147 425.237 -358.115 474.388C-416.135 581.324 -449.383 704.475 -451.775 821.233C-452.16 835.696 -452.015 850.038 -451.344 863.87ZM369.895 945.645C371.293 974.473 369.353 1003.69 363.965 1034.97C342.849 1155.93 287.958 1268.46 217.136 1335.97C170.701 1382.9 122.987 1404.7 75.3154 1400.78C21.0832 1397.34 -38.6284 1360.06 -89.8911 1324.05C-166.47 1284.31 -237.276 1231.07 -284.101 1178.04C-318.547 1144.98 -351.117 1113.72 -377.698 1076.19C-422.172 1026.88 -447.998 953.445 -452.342 863.878C-453.015 850.004 -453.16 835.618 -452.773 821.115C-450.379 704.111 -417.064 580.714 -358.974 473.661C-339.97 424.401 -305.935 359.892 -251.909 332.777C-190.077 291.643 -128.302 311.377 -25.9634 344.071L-23.3131 344.919L-20.0717 346.198C68.6801 381.231 122.244 402.375 180.949 499.929C231.593 570.277 289.114 691.023 315.446 767.095C350.205 831.209 367.017 886.316 369.895 945.645Z" fill="#EDE9F7"/>
<path d="M-448.548 871.123C-444.347 957.73 -417.773 1027.91 -371.697 1074.08C-348.31 1102.84 -320.259 1127.55 -290.564 1153.71C-284.893 1158.7 -279.122 1163.79 -273.257 1169.01C-224.995 1218.85 -158.269 1270.41 -90.1638 1310.48C-40.0204 1348.81 18.1462 1388.79 69.7687 1394.87C116.484 1401.14 163.265 1381.56 208.811 1336.64C281.741 1268.21 337.403 1153.48 357.707 1029.76C362.479 1000.3 364.161 972.76 362.842 945.571C359.843 883.732 341.34 826.316 302.851 759.414C275.02 689.062 221.826 582.604 173.91 515.071C117.399 422.356 64.684 392.597 -15.4222 354.59C-107.904 318.066 -167.635 297.512 -227.309 333.743C-281.431 358.784 -318.97 421.639 -340.939 469.961C-405.36 579.314 -443.553 704.089 -448.515 821.38C-449.317 838.338 -449.327 855.074 -448.548 871.123ZM363.84 945.563C365.165 972.873 363.479 1000.53 358.689 1030.11C338.329 1154.13 282.534 1269.12 209.431 1337.71C163.696 1382.82 116.691 1402.49 69.7312 1396.18C17.9118 1390.07 -40.3836 1350.02 -90.5783 1311.64C-158.71 1271.56 -225.516 1219.94 -273.817 1170.05C-279.646 1164.86 -285.417 1159.78 -291.086 1154.79C-320.821 1128.59 -348.902 1103.85 -372.316 1075.07C-394.548 1052.79 -412.475 1024.48 -425.558 990.953C-439.328 955.664 -447.399 915.349 -449.544 871.131C-450.325 855.028 -450.313 838.24 -449.512 821.228C-444.542 703.689 -406.278 578.665 -341.775 469.178C-319.76 420.749 -282.071 357.665 -227.732 332.521C-167.78 296.116 -107.897 316.719 -15.1599 353.345C65.1506 391.439 117.986 421.276 174.651 514.247C222.606 581.83 275.871 688.423 303.684 758.761C342.257 825.796 360.827 883.44 363.84 945.563Z" fill="#EDE9F7"/>
<path d="M-444.842 877.967C-440.737 962.602 -413.242 1030.36 -365.332 1073.91C-344.149 1096.57 -319.524 1116.12 -293.453 1136.82C-283.264 1144.91 -272.726 1153.28 -262.001 1162.14C-224.708 1197.04 -164.595 1249.18 -89.8456 1299.45C-38.3258 1342.3 16.0773 1383.12 65.1507 1391.72C111.117 1400.41 157.157 1382.92 201.986 1339.76C277.168 1270.16 333.705 1152.83 353.222 1025.88C357.407 998.341 358.905 971.453 357.669 945.977C354.534 881.347 334.252 821.44 291.91 751.729C265.132 692.576 216.762 598.991 168.428 529.646C115.039 443.195 65.7759 404.397 -6.47077 363.035C-93.5477 320.167 -147.742 303.831 -202.245 333.52C-256.6 356.639 -297.803 418.172 -322.801 465.728C-393.593 577.534 -436.705 704.109 -444.219 822.189C-445.502 841.306 -445.71 860.072 -444.842 877.967ZM358.667 945.968C359.908 971.558 358.405 998.558 354.201 1026.21C345.147 1085.1 327.312 1144.39 302.625 1197.68C275.789 1255.6 241.197 1305.11 202.602 1340.84C157.57 1384.2 111.296 1401.76 65.0677 1393.03C15.8055 1384.39 -38.7177 1343.49 -90.2981 1300.58C-165.065 1250.3 -225.225 1198.13 -262.522 1163.22C-273.214 1154.39 -283.747 1146.03 -293.932 1137.94C-320.035 1117.21 -344.691 1097.64 -365.9 1074.95C-389.018 1053.94 -407.628 1026.86 -421.175 994.494C-435.444 960.406 -443.743 921.206 -445.839 877.975C-446.711 860.013 -446.5 841.182 -445.215 822.004C-437.686 703.669 -394.497 576.85 -323.609 464.894C-298.552 417.231 -257.202 355.489 -202.636 332.289C-175.599 317.551 -147.211 313.791 -113.337 320.47C-79.308 327.184 -41.7101 344.309 -6.14489 361.818C66.2833 403.286 115.658 442.177 169.167 528.825C217.533 598.21 265.957 691.893 292.715 751.026C335.165 820.893 355.517 881.042 358.667 945.968Z" fill="#EDE9F7"/>
<path d="M-442.114 883.533C-438.092 966.444 -409.652 1031.98 -359.865 1073.05C-340.317 1091.14 -318.073 1106.8 -294.524 1123.38C-280.641 1133.16 -266.28 1143.27 -251.675 1154.43C-241.951 1162.59 -231.821 1171.17 -221.306 1180.07C-182.181 1213.19 -137.837 1250.73 -90.478 1287.38C-32.2905 1339.91 15.4773 1377.01 59.5495 1387.41C104.749 1398.49 150.041 1383.14 194.162 1341.77C270.433 1272.17 329.275 1149.4 347.735 1021.37C351.454 995.259 352.749 969.749 351.575 945.548C348.268 877.366 326.858 817.032 279.994 743.804C266.089 717.123 216.587 624.062 161.997 544.301C113.688 467.367 67.2108 417.398 1.55791 371.796C-56.9798 335.485 -119.272 305.725 -178.082 333.672C-221.237 350.425 -265.304 394.682 -305.544 461.677C-382.7 575.69 -430.729 703.889 -440.796 822.667C-442.612 843.63 -443.056 864.107 -442.114 883.533ZM352.574 945.539C353.753 969.847 352.453 995.467 348.713 1021.68C340.05 1081.78 322.175 1142.41 297.016 1197.03C269.715 1256.31 234.358 1306.73 194.767 1342.86C150.433 1384.43 104.894 1399.86 59.4251 1388.7C15.1706 1378.26 -32.7042 1341.08 -90.9792 1288.48C-138.325 1251.84 -182.678 1214.29 -221.811 1181.16C-232.325 1172.27 -242.455 1163.69 -252.156 1155.55C-266.728 1144.41 -281.078 1134.31 -294.954 1124.53C-318.534 1107.93 -340.805 1092.25 -360.384 1074.13C-384.41 1054.31 -403.712 1028.38 -417.741 997.07C-432.522 964.087 -441.056 925.891 -443.111 883.541C-444.057 864.038 -443.612 843.483 -441.789 822.445C-431.7 703.414 -383.591 574.974 -306.324 460.802C-265.982 393.639 -221.755 349.228 -178.442 332.42C-152.611 320.145 -124.971 317.92 -93.9753 325.651C-67.2521 332.309 -36.7674 346.598 1.96105 370.627C67.774 416.339 114.346 466.408 162.744 543.478C217.354 623.276 266.89 716.406 280.772 743.048C327.766 816.466 349.251 877.044 352.574 945.539Z" fill="#EDE9F7"/>
<path d="M-439.364 888.533C-435.465 968.915 -405.231 1034.24 -354.231 1072.47C-335.945 1087.03 -315.463 1099.66 -293.776 1113.02C-276.669 1123.57 -258.976 1134.47 -241.082 1147.11C-198.011 1179.19 -151.088 1221.45 -101.409 1266.2L-90.7053 1275.84C-42.7496 1322.77 7.95352 1369.74 54.4843 1383.71C98.9442 1397.22 143.527 1383.98 186.992 1344.35C265.546 1273.64 325.335 1148.24 343.026 1017.09C346.34 992.295 347.452 968.043 346.334 945.008C342.011 855.894 304.716 789.264 268.803 735.844C248.019 701.415 205.781 632.662 156.192 558.703C116.594 496.867 71.4946 432.447 10.0601 380.131C-53.7983 329.17 -105.805 314.309 -153.599 333.376C-197.485 348.819 -242.724 390.514 -288.076 457.307C-371.66 573.562 -424.643 703.499 -437.273 823.182C-439.667 845.796 -440.37 867.782 -439.364 888.533ZM347.331 944.999C348.454 968.137 347.337 992.495 344.013 1017.39C326.274 1148.86 266.339 1274.56 187.589 1345.45C143.9 1385.29 99.0557 1398.59 54.3165 1384.99C7.58492 1370.96 -43.2215 1323.9 -91.2538 1276.89L-101.941 1267.27C-151.598 1222.54 -198.503 1180.3 -241.525 1148.25C-259.383 1135.64 -277.062 1124.75 -294.157 1114.21C-315.869 1100.82 -336.377 1088.18 -354.699 1073.59C-379.667 1054.88 -399.7 1029.97 -414.237 999.577C-429.552 967.547 -438.343 930.191 -440.363 888.542C-441.374 867.706 -440.667 845.628 -438.263 822.93C-425.603 702.994 -372.533 572.814 -288.83 456.384C-243.363 389.427 -197.971 347.607 -153.926 332.104C-105.857 312.936 -53.5875 327.841 10.555 379.031C72.1217 431.456 117.292 495.965 156.932 557.878C206.526 631.851 248.778 700.624 269.551 735.031C305.57 788.603 342.988 855.467 347.331 944.999Z" fill="#EDE9F7"/>
<path d="M-436.649 892.904C-432.806 972.127 -401.53 1035.63 -348.581 1071.72C-331.344 1083.43 -312.265 1093.58 -292.07 1104.34C-272.016 1115.01 -251.28 1126.04 -230.489 1139.58C-190.151 1165.86 -148.419 1203.08 -90.9536 1264.05C-42.1786 1315.74 5.25639 1363.48 49.3722 1379.72C93.0779 1395.67 136.943 1384.54 179.758 1346.65C260.592 1274.86 321.314 1146.88 338.234 1012.66C341.183 989.1 342.135 966.033 341.071 944.095C336.587 851.656 296.327 782.893 257.538 727.825C251.218 718.868 244.721 709.714 238.058 700.334C211.512 662.939 181.422 620.558 150.327 573.112C142.963 561.874 135.437 550.184 128.158 538.876C94.1574 486.066 59.0035 431.46 18.5299 388.521C-29.1989 337.918 -81.6349 318.256 -129.115 333.157C-173.052 347.067 -220.65 387.375 -270.589 452.966C-360.584 571.38 -418.521 703.007 -433.725 823.612C-436.729 847.697 -437.711 871.012 -436.649 892.904ZM342.071 944.086C343.139 966.122 342.182 989.29 339.224 1012.94C322.26 1147.49 261.385 1275.78 180.347 1347.76C137.294 1385.86 93.1552 1397.04 49.1582 1380.99C4.84965 1364.67 -42.6887 1316.84 -91.5521 1265.06C-148.956 1204.16 -190.625 1166.98 -230.89 1140.76C-251.645 1127.24 -272.362 1116.21 -292.398 1105.55C-312.618 1094.79 -331.716 1084.62 -349 1072.88C-374.924 1055.21 -395.697 1031.26 -410.749 1001.71C-426.604 970.556 -435.656 933.954 -437.647 892.912C-438.714 870.921 -437.725 847.508 -434.713 823.325C-427.141 763.272 -408.928 700.258 -380.578 636.026C-352.453 572.311 -315.692 510.404 -271.315 452.009C-221.255 386.261 -173.507 345.844 -129.401 331.875C-81.6115 316.877 -28.8568 336.636 19.1328 387.518C59.6813 430.539 94.8746 485.201 128.907 538.061C136.182 549.366 143.705 561.051 151.069 572.279C182.146 619.716 212.227 662.082 238.77 699.469C245.429 708.842 251.931 718.006 258.253 726.961C297.176 782.216 337.566 851.217 342.071 944.086Z" fill="#EDE9F7"/>
<path d="M-423.789 894.782C-419.964 973.616 -390.04 1036.11 -339.525 1070.75C-321.637 1083.03 -302.055 1093.37 -281.325 1104.32C-262.872 1114.07 -243.791 1124.14 -224.477 1136.35C-215.437 1142.11 -206.018 1148.65 -196.48 1155.79C-164.851 1179.46 -131.39 1209.96 -87.9828 1254.7C-40.3263 1303.66 6.01917 1348.86 49.157 1364.02C91.8211 1378.89 134.53 1367.88 176.1 1331.29C224.043 1289.16 263.514 1227.93 290.249 1154.23C307.741 1107.17 319.995 1055.28 325.694 1004.16C328.326 981.654 329.141 959.55 328.118 938.468C325.37 881.819 309.708 829.455 278.829 773.683C270.326 758.417 260.545 742.653 248.93 725.502C239.868 711.955 230.502 698.143 220.59 683.516C198.375 650.727 173.193 613.575 147.291 573.244C143.073 566.635 138.841 559.969 134.586 553.264C105.643 507.668 75.7147 460.514 42.2414 420.445C34.2943 410.924 26.3343 402.025 18.5803 394.002C-27.9917 345.635 -79.2186 326.897 -125.659 341.235C-168.988 354.68 -215.614 393.462 -264.244 456.486C-297.156 498.45 -326.449 546.026 -351.311 597.891C-368.802 633.905 -383.774 671.539 -395.809 709.743C-407.863 748.113 -415.841 784.936 -420.911 825.637C-423.883 849.577 -424.853 872.844 -423.789 894.782ZM329.113 938.46C330.14 959.636 329.325 981.834 326.681 1004.43C320.972 1055.67 308.682 1107.69 291.152 1154.85C264.346 1228.75 224.765 1290.14 176.689 1332.4C134.884 1369.2 91.9068 1380.26 48.9541 1365.29C5.61951 1350.07 -40.8226 1304.77 -88.5697 1255.71C-131.937 1211.02 -165.357 1180.55 -196.935 1156.92C-206.453 1149.8 -215.85 1143.27 -224.867 1137.53C-244.15 1125.34 -263.213 1115.27 -281.649 1105.54C-302.407 1094.57 -322.009 1084.22 -339.946 1071.9C-390.806 1037.03 -420.937 974.126 -424.786 894.79C-425.855 872.753 -424.881 849.393 -421.898 825.358C-416.814 784.558 -408.817 747.639 -396.735 709.182C-384.679 670.911 -369.682 633.217 -352.162 597.141C-327.262 545.201 -297.924 497.548 -264.964 455.517C-216.215 392.339 -169.438 353.457 -125.939 339.953C-79.1927 325.526 -27.6561 344.355 19.1715 392.985C26.944 401.033 34.9243 409.952 42.8853 419.495C76.4177 459.627 106.369 506.816 135.338 552.456C139.591 559.161 143.823 565.83 148.042 572.431C173.933 612.747 198.023 648.295 221.319 682.676C231.233 697.3 240.599 711.112 249.661 724.662C261.299 741.85 271.098 757.643 279.618 772.947C310.627 828.945 326.352 881.537 329.113 938.46Z" fill="#EDE9F7"/>
<path d="M-410.939 897.176C-407.14 975.477 -378.598 1036.86 -330.571 1070.01C-312.006 1082.9 -291.927 1093.41 -270.668 1104.53C-253.851 1113.33 -236.461 1122.43 -218.698 1133.3C-209.929 1138.75 -200.748 1144.96 -191.404 1151.75C-160.412 1174.26 -127.718 1203.15 -85.4022 1245.41C-38.9272 1291.61 6.27356 1334.24 48.3923 1348.29C89.974 1362.07 131.478 1351.19 171.756 1315.94C219.286 1274.6 257.029 1214.56 280.91 1142.32C296.764 1096.78 307.323 1047.55 312.288 995.986C314.607 974.574 315.284 953.486 314.305 933.31C311.619 877.944 296.788 826.389 267.636 771.053C259.631 756.022 250.443 740.555 239.546 723.763C227.036 703.978 213.745 683.432 199.672 661.686C181.77 634.02 163.26 605.418 143.587 574.109L141.505 570.763C110.393 520.642 78.2196 468.823 41.3074 425.686C33.5473 416.6 25.7396 408.081 18.1134 400.386C-27.2526 354.305 -77.2074 336.503 -122.553 350.267C-165.228 363.239 -210.829 400.444 -258.093 460.841C-290.453 500.836 -318.174 546.864 -342.853 601.557C-359.144 636.741 -372.886 673.236 -384.873 713.122C-395.688 749.319 -402.639 783.722 -408.11 828.15C-411.055 851.946 -412.007 875.169 -410.939 897.176ZM315.302 933.301C316.286 953.567 315.604 974.741 313.281 996.235C308.3 1047.92 297.715 1097.27 281.821 1142.91C257.877 1215.36 220.021 1275.58 172.34 1317.05C131.831 1352.5 90.0662 1363.44 48.2007 1349.57C5.89653 1335.45 -39.4052 1292.73 -85.9747 1246.44C-128.247 1204.22 -160.901 1175.37 -191.847 1152.89C-201.171 1146.11 -210.334 1139.92 -219.081 1134.48C-236.813 1123.63 -254.187 1114.54 -270.989 1105.75C-292.272 1094.61 -312.38 1084.09 -330.994 1071.17C-354.61 1054.87 -373.649 1031.64 -387.582 1002.12C-401.828 971.94 -410.021 936.634 -411.934 897.184C-413.007 875.08 -412.05 851.759 -409.094 827.866C-403.611 783.342 -396.646 748.862 -385.8 712.581C-373.795 672.628 -360.031 636.073 -343.717 600.833C-318.997 546.046 -291.22 499.932 -258.804 459.868C-211.423 399.318 -165.674 362.007 -122.832 348.987C-77.186 335.131 -26.9243 353.02 18.6927 399.363C26.3435 407.08 34.1607 415.617 41.9457 424.729C78.9193 467.937 111.121 519.806 142.265 569.973L144.34 573.307C164.006 604.601 182.518 633.206 200.415 660.869C214.491 682.62 227.785 703.164 240.297 722.953C251.205 739.768 260.414 755.269 268.443 770.343C297.713 825.897 312.604 877.679 315.302 933.301Z" fill="#EDE9F7"/>
<path d="M-398.033 899.745C-394.311 976.464 -366.402 1038.4 -321.462 1069.66C-302.144 1083.24 -281.531 1093.9 -259.707 1105.19C-244.519 1113.04 -228.819 1121.16 -212.641 1130.75C-204.124 1135.91 -195.167 1141.8 -186.02 1148.24C-155.63 1169.63 -123.67 1196.96 -82.3929 1236.83C-37.0514 1280.35 7.05116 1320.49 48.2059 1333.47C88.7512 1346.19 129.096 1335.41 168.119 1301.44C215.285 1260.83 251.34 1201.87 272.392 1130.93C286.405 1087.57 295.605 1039.51 299.753 988.063C301.762 967.734 302.3 947.657 301.365 928.377C298.735 874.178 284.716 823.3 257.248 768.253C249.719 753.421 241.114 738.215 230.936 721.77C213.666 692.725 194.511 661.791 174.235 629.042C163.383 611.522 152.166 593.406 140.531 574.444C110.636 524.802 78.3246 472.772 40.9141 430.127C33.307 421.425 25.6517 413.281 18.152 405.909C-26.053 362.026 -74.7969 345.131 -119.096 358.346C-161.165 370.867 -205.789 406.57 -251.733 464.457C-283.832 502.942 -310.057 547.509 -334.27 604.733C-349.119 638.511 -362.063 674.971 -373.85 716.225C-384.826 754.919 -390.008 787.457 -395.252 830.588C-398.173 854.32 -399.108 877.586 -398.033 899.745ZM302.36 928.369C303.299 947.73 302.754 967.892 300.74 988.295C296.584 1039.84 287.358 1088.03 273.318 1131.48C252.203 1202.64 216.025 1261.8 168.698 1302.55C129.451 1336.72 88.8494 1347.55 48.0273 1334.75C6.68554 1321.71 -37.5198 1281.49 -82.9493 1237.88C-124.188 1198.04 -156.108 1170.75 -186.447 1149.39C-195.578 1142.96 -204.516 1137.09 -213.011 1131.93C-229.162 1122.37 -244.85 1114.25 -260.022 1106.41C-281.878 1095.1 -302.52 1084.43 -321.889 1070.82C-367.166 1039.31 -395.284 976.964 -399.03 899.753C-400.11 877.497 -399.169 854.133 -396.238 830.307C-390.984 787.102 -385.789 754.494 -374.788 715.701C-362.98 674.385 -350.015 637.86 -335.143 604.04C-310.886 546.705 -284.603 502.041 -252.434 463.476C-206.38 405.438 -161.606 369.637 -119.368 357.065C-74.7729 343.769 -25.7312 360.742 18.724 404.875C26.2373 412.262 33.9154 420.434 41.5407 429.155C79.0216 471.883 111.372 523.97 141.296 573.661C152.925 592.614 164.143 610.732 174.991 628.252C195.275 661.004 214.431 691.942 231.697 720.987C241.895 737.462 250.519 752.705 258.069 767.572C285.646 822.832 299.718 873.925 302.36 928.369Z" fill="#EDE9F7"/>
<path d="M-386.049 902.371C-382.359 978.421 -355.809 1039.13 -313.199 1068.93C-293.05 1083.21 -271.862 1093.98 -249.43 1105.38C-235.872 1112.28 -221.85 1119.4 -207.293 1127.69C-199.028 1132.55 -190.288 1138.11 -181.311 1144.2C-151.494 1164.43 -120.229 1190.14 -79.9336 1227.57C-37.4423 1266.7 7.40367 1305.91 47.6272 1317.78C87.1927 1329.41 126.433 1318.76 164.258 1286.12C211.126 1246.3 245.552 1188.53 263.817 1119.04C276.019 1078.04 283.887 1031.23 287.213 979.892C288.915 960.716 289.329 941.721 288.442 923.424C285.872 870.458 272.65 820.306 246.835 765.595C239.786 750.999 231.749 736.088 222.267 719.999C197.397 675.438 168.221 626.787 137.331 575.279C110.702 529.734 78.3457 477.496 40.2597 435.332C32.8057 427.039 25.2893 419.276 17.9072 412.246C-25.1874 370.633 -72.7812 354.676 -116.105 367.323C-157.627 379.365 -201.339 413.504 -246.028 468.785C-278.096 505.941 -302.905 548.99 -326.478 608.375C-340.081 640.941 -351.905 676.279 -363.693 719.575C-374.409 759.332 -378.195 790.747 -382.993 830.527L-383.298 833.081C-386.209 856.739 -387.133 880.05 -386.049 902.371ZM289.437 923.416C290.329 941.792 289.917 960.864 288.205 980.099C284.873 1031.54 276.982 1078.46 264.754 1119.55C246.433 1189.28 211.877 1247.27 164.834 1287.23C126.79 1320.06 87.2996 1330.77 47.466 1319.06C7.055 1307.13 -37.898 1267.84 -80.4748 1228.63C-120.73 1191.23 -151.954 1165.55 -181.725 1145.35C-190.689 1139.28 -199.409 1133.73 -207.65 1128.89C-222.18 1120.61 -236.191 1113.49 -249.742 1106.6C-272.205 1095.19 -293.426 1084.4 -313.629 1070.08C-356.574 1040.04 -383.332 978.918 -387.045 902.379C-388.133 879.961 -387.208 856.552 -384.285 832.8L-383.979 830.249C-379.174 790.409 -375.379 758.945 -364.634 719.072C-352.83 675.708 -340.987 640.324 -327.363 607.708C-303.74 548.189 -278.866 505.041 -246.722 467.793C-201.922 412.372 -158.063 378.139 -116.372 366.041C-72.7614 353.313 -24.8758 369.354 18.4663 411.199C25.8643 418.249 33.4059 426.044 40.8799 434.351C79.0429 476.599 111.441 528.908 138.103 574.512C168.996 626.02 198.179 674.686 223.049 719.262C232.542 735.358 240.602 750.304 247.673 764.943C273.589 819.866 286.856 870.221 289.437 923.416Z" fill="#EDE9F7"/>
<path d="M-373.184 904.726C-369.528 980.07 -344.39 1039.54 -304.213 1067.89C-283.231 1082.96 -261.518 1093.8 -238.529 1105.28C-226.636 1111.22 -214.342 1117.35 -201.496 1124.39C-193.377 1129.03 -185.112 1134.11 -176.22 1139.93C-147.063 1159 -116.569 1183.12 -77.354 1218.14C-36.0195 1254.67 7.62311 1291.23 46.8513 1302.02C85.3285 1312.57 123.359 1302.04 159.877 1270.71C206.315 1231.66 239.012 1175.03 254.431 1106.93C264.959 1067.83 271.285 1023.5 273.776 971.387C275.179 953.4 275.461 935.528 274.622 918.246C272.108 866.44 259.709 816.928 235.599 762.438C229.043 748.058 221.593 733.428 212.831 717.705C192.244 678.05 167.799 634.182 133.56 575.456C99.9808 515.985 70.0226 472.865 39.2729 439.759C31.9904 431.867 24.6275 424.479 17.3839 417.786C-24.4874 378.413 -70.8017 363.382 -113.036 375.45C-153.326 386.872 -197.19 420.378 -239.883 472.346C-280.417 517.904 -302.926 570.566 -318.006 611.351C-333.712 651.241 -344.818 691.631 -352.736 722.361C-361.499 756.789 -364.644 784.291 -368.282 816.132C-368.978 822.227 -369.698 828.518 -370.48 835.088C-373.369 858.742 -374.279 882.171 -373.184 904.726ZM275.618 918.238C276.46 935.592 276.176 953.535 274.77 971.569C272.272 1023.78 265.927 1068.22 255.382 1107.39C239.904 1175.76 207.075 1232.62 160.454 1271.82C123.716 1303.33 85.4394 1313.93 46.7012 1303.3C7.28842 1292.46 -36.4524 1255.82 -77.8762 1219.22C-117.055 1184.23 -147.507 1160.14 -176.62 1141.09C-185.495 1135.29 -193.744 1130.22 -201.841 1125.6C-214.663 1118.57 -226.95 1112.43 -238.831 1106.5C-261.858 1095.01 -283.606 1084.15 -304.648 1069.04C-345.153 1040.45 -370.498 980.566 -374.178 904.734C-375.277 882.082 -374.366 858.555 -371.463 834.812C-370.682 828.244 -369.965 821.956 -369.265 815.868C-365.62 783.965 -362.473 756.414 -353.681 721.883C-345.75 691.105 -334.632 650.658 -318.903 610.709C-303.787 569.832 -281.22 517.039 -240.57 471.345C-197.769 419.24 -153.756 385.636 -113.3 374.171C-70.7888 362.014 -24.181 377.13 17.9264 416.73C25.1859 423.443 32.5734 430.85 39.8782 438.762C70.6941 471.951 100.714 515.14 134.34 574.709C168.593 633.447 193.045 677.325 213.632 716.99C222.405 732.725 229.873 747.394 236.448 761.814C260.647 816.513 273.094 866.215 275.618 918.238Z" fill="#EDE9F7"/>
<path d="M-360.3 907.626C-356.741 980.98 -332.373 1040.58 -295.121 1067.06C-273.243 1082.94 -250.976 1093.79 -227.403 1105.27C-217.164 1110.26 -206.578 1115.42 -195.464 1121.24C-187.617 1125.57 -179.574 1130.33 -170.862 1135.79C-142.714 1153.45 -112.057 1176.64 -74.382 1208.79C-34.1615 1242.67 8.31937 1276.56 46.6202 1286.25C84.0639 1295.72 120.933 1285.31 156.203 1255.32C202.267 1217.08 233.286 1161.64 245.903 1094.99C254.749 1058.07 259.622 1016.2 261.241 963.182C262.353 946.461 262.517 929.794 261.732 913.618C259.274 862.973 247.673 814.088 225.234 759.764C219.167 745.617 212.301 731.274 204.234 715.928C183.777 673.381 159.67 627.714 130.53 576.298C100.553 521.3 69.7362 477.12 38.9208 444.979C31.8058 437.501 24.5869 430.487 17.4686 424.133C-23.2293 387.034 -68.3268 372.938 -109.532 384.441C-149.233 395.385 -192.094 427.28 -233.483 476.678C-273.403 520.09 -294.261 570.95 -309.396 614.973C-323.025 651.732 -332.98 689.906 -341.707 725.676C-349.115 756.479 -351.568 780.3 -354.411 807.879C-355.373 817.236 -356.373 826.909 -357.624 837.514C-360.508 861.198 -361.409 884.785 -360.3 907.626ZM262.727 913.61C263.516 929.855 263.351 946.586 262.234 963.34C260.615 1016.45 255.726 1058.42 246.86 1095.41C234.198 1162.34 203.04 1218.03 156.773 1256.43C121.296 1286.6 84.1915 1297.07 46.4876 1287.54C8.00668 1277.8 -34.5743 1243.83 -74.8861 1209.88C-112.523 1177.76 -143.143 1154.6 -171.249 1136.97C-179.943 1131.51 -187.973 1126.76 -195.793 1122.45C-206.885 1116.64 -217.467 1111.48 -227.7 1106.5C-251.312 1095 -273.614 1084.13 -295.558 1068.2C-314.788 1054.53 -330.379 1032.98 -341.895 1004.16C-352.852 976.745 -359.56 943.365 -361.294 907.634C-362.407 884.697 -361.504 861.011 -358.607 837.241C-357.357 826.641 -356.36 816.975 -355.398 807.628C-352.549 779.99 -350.092 756.119 -342.657 725.215C-333.918 689.393 -323.95 651.177 -310.302 614.362C-295.127 570.227 -274.206 519.221 -234.157 475.673C-192.666 426.145 -149.655 394.151 -109.791 383.161C-68.3113 371.579 -22.9294 385.752 17.9954 423.069C25.1338 429.44 32.3774 436.479 39.5104 443.974C70.4002 476.193 101.295 520.474 131.322 575.56C160.475 627.005 184.594 672.699 205.056 715.249C213.126 730.607 220.01 744.991 226.095 759.18C248.62 813.701 260.26 862.763 262.727 913.61Z" fill="#EDE9F7"/>
<path d="M-347.406 910.347C-343.892 982.746 -320.942 1040.92 -286.014 1065.98C-263.205 1082.73 -241.457 1093.02 -216.273 1104.94C-207.671 1109.01 -198.773 1113.22 -189.423 1117.89C-181.818 1121.93 -173.996 1126.38 -165.496 1131.47C-137.979 1147.98 -108.083 1169.54 -71.4073 1199.33C-32.3069 1230.61 8.99745 1261.87 46.3848 1270.47C82.8005 1278.85 118.507 1268.56 152.513 1239.88C198.2 1202.42 227.533 1148.12 237.34 1082.85C246.518 1038.72 248.219 991.158 248.679 954.648C249.506 939.261 249.56 923.879 248.832 908.889C246.425 859.294 235.616 810.894 214.823 756.562C209.249 742.633 202.96 728.566 195.601 713.582C175.818 668.797 153.531 623.945 127.457 576.435C100.282 524.601 69.533 480.67 38.5234 449.369C31.5695 442.293 24.4977 435.656 17.5048 429.63C-22.0007 394.768 -65.8866 381.594 -106.063 392.538C-155.481 405.776 -199.158 447.529 -227.099 480.211C-266.613 521.82 -285.869 570.987 -300.796 617.917C-313.038 653.207 -321.569 688.839 -330.673 728.415C-337.073 756.69 -338.943 777.92 -341.111 802.505C-342.121 813.977 -343.168 825.843 -344.76 839.475C-347.645 863.273 -348.534 887.119 -347.406 910.347ZM249.821 908.881C250.552 923.93 250.502 939.371 249.675 954.778C249.214 991.33 247.507 1039 238.308 1083.22C228.456 1148.79 198.981 1203.36 153.079 1241C118.871 1269.85 82.9324 1280.2 46.2675 1271.75C8.70478 1263.11 -32.7035 1231.78 -71.8908 1200.43C-108.528 1170.67 -138.39 1149.14 -165.863 1132.66C-174.351 1127.57 -182.16 1123.14 -189.736 1119.11C-199.069 1114.44 -207.963 1110.23 -216.56 1106.17C-241.788 1094.23 -263.575 1083.92 -286.453 1067.11C-321.704 1041.83 -344.862 983.232 -348.399 910.355C-349.531 887.028 -348.638 863.089 -345.743 839.2C-344.154 825.592 -343.111 813.741 -342.1 802.279C-339.927 777.632 -338.051 756.351 -331.627 727.977C-322.513 688.346 -313.969 652.678 -301.71 617.336C-286.74 570.275 -267.421 520.952 -227.765 479.191C-199.758 446.423 -155.936 404.553 -106.316 391.249C-65.8733 380.236 -21.7163 393.483 18.0196 428.549C25.0369 434.592 32.1294 441.259 39.1033 448.35C70.1962 479.736 101.026 523.782 128.257 575.727C154.347 623.256 176.651 668.144 196.441 712.947C203.803 727.939 210.109 742.037 215.705 756.015C236.566 810.529 247.405 859.102 249.821 908.881Z" fill="#EDE9F7"/>
<path d="M-335.364 913.888C-331.9 985.238 -310.361 1041.95 -277.748 1065.59C-254.006 1083.27 -231.789 1093.43 -206.067 1105.18C-199.067 1108.38 -191.831 1111.69 -184.232 1115.3C-176.885 1119.05 -169.284 1123.18 -160.981 1127.93C-134.115 1143.29 -104.982 1163.24 -69.2921 1190.71C-31.3321 1219.42 8.7834 1248.07 45.2717 1255.59C80.6552 1262.91 115.2 1252.72 147.938 1225.33C193.232 1188.61 220.873 1135.4 227.877 1071.45C234.371 1034.05 235.505 994.54 235.209 946.711C235.768 932.77 235.716 918.78 235.051 905.095C232.689 856.428 222.663 808.34 203.503 753.761C198.421 740.018 192.708 726.219 186.045 711.589C167.484 665.371 147.016 621.291 123.457 576.794C98.4647 527.022 68.6448 484.513 37.2075 453.846C30.4151 447.161 23.4973 440.892 16.6312 435.201C-21.6835 402.531 -64.3423 390.261 -103.494 400.659C-152.168 413.325 -194.583 452.894 -221.598 483.86C-258.681 521.717 -276.98 566.109 -293.055 621.113C-304.006 655.071 -311.477 689.706 -319.386 726.375L-320.495 731.518C-326.106 757.972 -327.471 777.3 -329.05 799.684C-329.96 812.573 -330.898 825.898 -332.747 841.91C-335.636 865.929 -336.516 890.143 -335.364 913.888ZM236.041 905.088C236.708 918.821 236.763 932.861 236.202 946.817C236.501 994.697 235.362 1034.29 228.857 1071.76C221.815 1136.03 194.028 1189.54 148.499 1226.45C115.566 1254.01 80.7996 1264.25 45.1763 1256.89C8.51081 1249.33 -31.7043 1220.61 -69.7531 1191.83C-105.408 1164.39 -134.508 1144.46 -161.332 1129.12C-169.621 1124.38 -177.208 1120.26 -184.53 1116.53C-192.111 1112.92 -199.348 1109.61 -206.343 1106.42C-232.115 1094.64 -254.372 1084.47 -278.194 1066.73C-311.123 1042.86 -332.869 985.722 -336.356 913.896C-337.513 890.058 -336.629 865.747 -333.731 841.637C-331.886 825.669 -330.947 812.364 -330.041 799.492C-328.457 777.047 -327.088 757.657 -321.456 731.099L-320.342 725.949C-312.426 689.24 -304.946 654.568 -293.977 620.568C-277.856 565.383 -259.488 520.831 -222.255 482.83C-195.178 451.789 -152.614 412.096 -103.743 399.372C-64.335 388.913 -21.4079 401.247 17.1301 434.111C24.014 439.816 30.9606 446.107 37.7691 452.814C69.3049 483.571 99.2142 526.205 124.272 576.103C147.846 620.631 168.336 664.761 186.906 710.998C193.567 725.633 199.293 739.467 204.398 753.254C223.614 808.012 233.67 856.25 236.041 905.088Z" fill="#EDE9F7"/>
<path d="M-322.45 917.513C-319.053 987.465 -298.93 1042.47 -268.612 1064.64C-243.971 1083.21 -221.356 1093.09 -195.172 1104.54C-189.718 1106.92 -184.069 1109.39 -178.171 1112.04C-171.075 1115.5 -163.697 1119.3 -155.601 1123.68C-129.41 1137.86 -101.04 1156.15 -66.3218 1181.25C-29.513 1207.33 9.40776 1233.34 45.02 1239.75C79.3752 1245.98 112.752 1235.92 144.219 1209.87C189.124 1173.97 215.085 1121.96 219.302 1059.47C224.328 1022.91 223.822 984.666 222.644 938.472C222.955 926.178 222.807 913.807 222.217 901.653C219.899 853.905 210.649 806.055 193.102 751.066C188.511 737.539 183.38 724.034 177.419 709.8C160.386 662.731 141.732 619.508 120.39 577.645C97.7524 530.502 68.0793 488.406 36.8296 459.084C30.2036 452.806 23.4295 446.912 16.6971 441.57C-20.4093 411.163 -61.8487 399.831 -99.985 409.654C-147.922 421.719 -189.081 459.03 -215.167 488.206C-252.063 524.629 -269.525 569.118 -284.398 624.713C-293.449 655.023 -299.622 685.877 -306.157 718.546C-307.232 723.914 -308.313 729.322 -309.42 734.783C-314.393 759.829 -315.35 778.525 -316.362 798.315C-317.069 812.108 -317.797 826.368 -319.847 844.267C-322.754 868.557 -323.63 893.198 -322.45 917.513ZM223.213 901.645C223.805 913.838 223.944 926.254 223.635 938.547C224.817 984.777 225.324 1023.09 220.286 1059.72C216.046 1122.56 189.934 1174.89 144.778 1210.99C113.12 1237.2 79.5278 1247.31 44.9398 1241.05C9.15932 1234.6 -29.8562 1208.54 -66.7579 1182.39C-101.441 1157.31 -129.78 1139.04 -155.934 1124.88C-164.017 1120.51 -171.384 1116.71 -178.458 1113.27C-184.336 1110.63 -189.982 1108.16 -195.436 1105.78C-221.673 1094.31 -244.332 1084.4 -269.062 1065.78C-299.692 1043.37 -320.021 987.945 -323.441 917.521C-324.626 893.113 -323.748 868.373 -320.831 843.996C-318.788 826.155 -318.059 811.919 -317.353 798.155C-316.338 778.302 -315.377 759.546 -310.38 734.385C-309.275 728.918 -308.191 723.516 -307.118 718.148C-300.575 685.442 -294.397 654.545 -285.333 624.197C-270.408 568.409 -252.871 523.747 -215.811 487.173C-189.664 457.922 -148.364 420.487 -100.229 408.369C-61.8437 398.482 -20.1468 409.878 17.1777 440.464C23.932 445.818 30.7286 451.736 37.3752 458.041C68.7343 487.461 98.5083 529.697 121.215 576.982C142.578 618.886 161.254 662.163 178.294 709.254C184.256 723.491 189.403 737.028 194.009 750.608C211.609 805.754 220.887 853.744 223.213 901.645Z" fill="#EDE9F7"/>
<path d="M-309.518 921.128C-306.147 990.536 -287.897 1042.42 -259.448 1063.46C-233.984 1082.89 -212.173 1091.94 -184.557 1103.39C-180.538 1105.06 -176.396 1106.78 -172.097 1108.58C-165.234 1111.76 -158.078 1115.25 -150.212 1119.26C-124.719 1132.25 -97.1185 1148.91 -63.3485 1171.7C-29.2805 1194.16 9.98851 1218.57 44.7497 1223.88C78.0728 1229.02 110.279 1219.09 140.474 1194.35C184.971 1159.23 209.242 1108.38 210.674 1047.28C213.951 1013.93 212.279 978.106 210.503 940.177L210.025 929.892C210.116 919.505 209.91 909.027 209.409 898.701C207.124 851.646 198.62 803.706 182.64 747.833C178.545 734.504 173.992 721.274 168.724 707.431C153.197 659.085 136.848 617.898 117.253 577.781C96.4858 532.331 67.7727 491.748 36.3986 463.487C29.9376 457.605 23.3166 452.079 16.7041 447.076C-19.185 418.898 -59.392 408.484 -96.5152 417.748C-143.711 429.219 -183.597 464.319 -208.742 491.747C-249.586 530.766 -264.23 580.27 -275.733 627.627C-283.238 655.013 -288.309 682.844 -293.679 712.3C-295.188 720.584 -296.716 728.971 -298.322 737.482C-302.762 761.477 -303.285 778.944 -303.84 797.437C-304.269 811.818 -304.716 826.688 -306.923 846.16C-309.82 870.519 -310.717 896.443 -309.518 921.128ZM210.399 898.693C210.902 909.051 211.112 919.564 211.016 929.938L211.493 940.171C213.268 978.167 214.947 1014.05 211.66 1047.46C210.225 1108.94 185.799 1160.14 141.024 1195.48C110.653 1220.36 78.2421 1230.36 44.6932 1225.18C9.76845 1219.84 -29.5991 1195.38 -63.7577 1172.85C-97.4988 1150.09 -125.066 1133.45 -150.522 1120.48C-158.377 1116.47 -165.522 1112.99 -172.361 1109.82C-176.646 1108.02 -180.787 1106.3 -184.804 1104.64C-212.479 1093.16 -234.342 1084.09 -259.899 1064.59C-288.665 1043.3 -307.114 991.021 -310.508 921.136C-311.711 896.358 -310.81 870.335 -307.906 845.89C-305.705 826.494 -305.261 811.656 -304.831 797.305C-304.276 778.748 -303.748 761.222 -299.286 737.101C-297.681 728.585 -296.152 720.206 -294.645 711.929C-289.269 682.431 -284.19 654.568 -276.676 627.153C-265.129 579.616 -250.421 529.908 -209.378 490.697C-184.17 463.202 -144.144 427.986 -96.7503 416.466C-59.391 407.141 -18.9334 417.618 17.1705 445.956C23.7991 450.981 30.4484 456.519 36.9255 462.426C68.4244 490.793 97.2497 531.533 118.091 577.135C137.706 617.309 154.085 658.559 169.622 706.937C174.882 720.783 179.449 734.037 183.559 747.422C199.581 803.441 208.107 851.498 210.399 898.693Z" fill="#EDE9F7"/>
<path d="M-297.442 925.521C-294.166 992.966 -277.257 1042.87 -251.053 1062.44C-224.854 1082.64 -203.954 1090.76 -175.025 1101.99C-172.303 1103.05 -169.514 1104.13 -166.642 1105.25C-159.989 1108.14 -153.047 1111.31 -145.403 1114.94C-120.613 1126.73 -93.7363 1141.74 -60.8116 1162.19C-19.8844 1186.97 13.651 1204.26 44.2339 1208.03C76.5988 1212.07 107.691 1202.27 136.653 1178.88C180.826 1144.58 203.468 1094.93 202.132 1035.29C202.909 1021.43 202.847 1006.22 201.931 987.351C201.267 973.688 200.252 959.821 199.173 945.138C198.61 937.418 198.038 929.586 197.504 921.628C197.437 913.613 197.206 905.51 196.817 897.509C194.524 850.295 186.948 803.297 172.251 745.11C168.7 732.149 164.604 718.854 160.083 705.6C146.411 656.883 131.802 616.539 114.095 578.6C95.0645 534.746 67.2654 495.722 35.8087 468.687C29.4861 463.19 22.9971 458.048 16.528 453.404C-18.1922 427.475 -57.2378 417.993 -93.4309 426.69C-139.991 437.559 -178.672 470.415 -202.922 496.06C-243.719 533.67 -256.894 581.434 -267.81 631.186C-274.045 656.109 -278.185 681.405 -282.569 708.193C-284.296 718.731 -286.079 729.638 -288.027 740.688C-292.015 763.853 -292.137 780.301 -292.265 797.708C-292.374 812.441 -292.485 827.666 -294.831 848.447C-297.778 873.35 -298.682 899.998 -297.442 925.521ZM202.922 987.343C203.841 1006.27 203.903 1021.54 203.124 1035.4C204.467 1095.45 181.677 1145.48 137.201 1180.01C108.066 1203.53 76.7743 1213.4 44.2007 1209.32C13.4673 1205.53 -20.1553 1188.21 -61.188 1163.37C-94.0865 1142.93 -120.934 1127.93 -145.69 1116.17C-153.325 1112.54 -160.261 1109.37 -166.89 1106.49C-169.742 1105.38 -172.535 1104.29 -175.257 1103.24C-204.255 1091.98 -225.208 1083.84 -251.511 1063.55C-278.028 1043.76 -295.134 993.445 -298.433 925.529C-299.677 899.912 -298.77 873.167 -295.812 848.18C-293.478 827.49 -293.365 812.309 -293.256 797.623C-293.127 780.142 -293.007 763.63 -288.993 740.328C-287.05 729.28 -285.266 718.383 -283.541 707.849C-279.151 681.027 -275.005 655.696 -268.759 630.735C-257.803 580.789 -244.564 532.808 -203.548 494.997C-179.235 469.295 -140.414 436.325 -93.6619 425.409C-57.2429 416.658 -17.9512 426.192 16.9728 452.272C23.4619 456.93 29.9732 462.091 36.3205 467.612C67.9152 494.764 95.8359 533.962 114.941 577.992C132.677 615.989 147.317 656.407 161 705.168C165.518 718.408 169.621 731.732 173.188 744.744C187.914 803.061 195.506 850.167 197.806 897.501C198.195 905.527 198.428 913.649 198.493 921.64C199.024 929.541 199.595 937.374 200.162 945.088C201.239 959.781 202.257 973.658 202.922 987.343Z" fill="#EDE9F7"/>
<path d="M193.097 1023.78C193.167 1017.14 193.021 1010.27 192.653 1002.71C191.802 985.191 189.892 966.974 187.873 947.687C186.719 936.663 185.522 925.261 184.488 913.587C184.351 908.766 184.165 903.921 183.932 899.126C181.635 851.84 174.685 803.442 161.403 742.212C158.338 729.394 154.842 716.372 151.006 703.518C139.141 653.76 126.684 615.335 110.59 578.888C93.2631 536.416 66.4527 498.861 35.0892 473.114C28.9383 467.997 22.6079 463.223 16.2767 458.913C-17.6476 434.84 -54.4264 426.485 -90.0944 434.762C-135.882 445.042 -173.228 475.721 -196.497 499.645C-237.158 535.988 -248.881 582.126 -259.049 634.293C-264.191 657.204 -267.508 680.434 -271.022 705.019C-272.809 717.527 -274.659 730.456 -276.803 743.689C-280.382 766.261 -280.117 781.891 -279.837 798.432C-279.582 813.367 -279.32 828.811 -281.767 850.767C-284.772 876.45 -285.68 904.073 -284.389 930.647C-281.217 995.935 -265.679 1043.77 -241.762 1061.9C-215.086 1082.8 -195.327 1089.94 -165.419 1100.74L-160.539 1102.51C-154.098 1105.13 -147.388 1107.98 -140.006 1111.25C-115.726 1121.97 -90.4175 1134.98 -57.9364 1153.42C-18.4926 1175.18 13.8986 1190.24 43.7512 1193.01C75.0585 1195.98 104.943 1186.28 132.578 1164.19C175.085 1131.56 196.1 1084.57 193.366 1028.3C193.293 1026.8 193.207 1025.28 193.097 1023.78ZM193.644 1002.7C194.013 1010.3 194.157 1017.2 194.087 1023.8C194.188 1025.25 194.281 1026.78 194.354 1028.29C197.113 1085.06 175.942 1132.45 133.123 1165.32C105.324 1187.54 75.2525 1197.3 43.7398 1194.31C13.7459 1191.53 -18.7322 1176.43 -58.2788 1154.62C-90.7359 1136.18 -116.021 1123.19 -140.27 1112.48C-147.645 1109.22 -154.347 1106.37 -160.766 1103.75L-165.63 1102C-195.619 1091.17 -215.432 1084.01 -242.224 1063.02C-266.453 1044.66 -282.183 996.409 -285.377 930.655C-286.673 903.988 -285.763 876.271 -282.745 850.497C-280.312 828.654 -280.574 813.267 -280.826 798.388C-281.107 781.764 -281.373 766.068 -277.772 743.351C-275.63 730.132 -273.784 717.211 -271.996 704.705C-268.477 680.086 -265.152 656.826 -260.002 633.881C-250.167 583.425 -237.956 535.088 -197.107 498.577C-173.781 474.596 -136.296 443.803 -90.3169 433.472C-54.4295 425.149 -17.4224 433.556 16.6961 457.766C23.0471 462.088 29.404 466.884 35.5791 472.015C67.096 497.893 94.0414 535.639 111.448 578.304C127.573 614.819 140.062 653.338 151.932 703.142C155.772 715.987 159.276 729.04 162.347 741.901C175.658 803.25 182.618 851.731 184.92 899.118C185.154 903.923 185.339 908.783 185.475 913.562C186.504 925.172 187.699 936.564 188.854 947.581C190.879 966.895 192.786 985.134 193.644 1002.7Z" fill="#EDE9F7"/>
<path d="M-272.206 935.762C-269.161 998.412 -254.955 1043.92 -233.234 1060.6C-206.238 1082.03 -187.743 1088.14 -157.109 1098.26L-155.011 1098.95C-148.744 1101.31 -142.248 1103.85 -135.138 1106.73C-111.759 1116.19 -87.1674 1127.62 -55.4071 1143.79C-22.5113 1160 12.1979 1175.26 43.1571 1177.09C73.4941 1178.97 102.241 1169.39 128.615 1148.62C168.299 1118.61 187.968 1075.88 185.497 1025.03C185.282 1020.6 184.897 1016.05 184.346 1011.51C184.306 1010.52 184.264 1009.59 184.218 1008.66C183.282 989.398 180.395 968.997 177.334 947.401C175.401 933.75 173.401 919.637 171.76 904.898C168.727 843.813 159.461 786.669 150.807 738.822C148.234 726.137 145.327 713.396 142.156 700.973C135.546 667.309 125.616 623.038 107.238 578.83C91.7329 538.281 65.1706 501.281 34.3575 477.29C28.3608 472.565 22.1751 468.161 15.9707 464.203C-16.7064 442.364 -52.3297 434.907 -87.0584 442.617C-132.198 452.309 -168.297 480.793 -190.63 502.982C-231.217 538.024 -241.988 584.418 -251.016 637.028C-255.235 658.185 -257.848 679.617 -260.614 702.306C-262.34 716.463 -264.126 731.098 -266.378 746.214C-269.593 768.305 -268.96 783.224 -268.29 799.018C-267.653 814.015 -266.993 829.532 -269.528 852.506C-272.584 878.822 -273.536 908.386 -272.206 935.762ZM186.486 1025.03C188.981 1076.37 169.152 1119.5 129.149 1149.75C102.63 1170.64 73.6987 1180.28 43.1671 1178.4C12.0709 1176.55 -22.7294 1161.26 -55.7102 1145.01C-87.4532 1128.84 -112.025 1117.42 -135.38 1107.97C-142.48 1105.1 -148.969 1102.56 -155.214 1100.21L-157.295 1099.52C-188.026 1089.37 -206.575 1083.24 -233.7 1061.71C-255.729 1044.79 -270.127 998.884 -273.194 935.769C-274.528 908.303 -273.575 878.64 -270.508 852.241C-267.985 829.402 -268.642 813.954 -269.277 799.016C-269.952 783.138 -270.587 768.147 -267.35 745.89C-265.099 730.797 -263.315 716.176 -261.593 702.029C-258.821 679.31 -256.206 657.852 -251.981 636.65C-242.91 583.802 -232.076 537.169 -191.232 501.897C-168.84 479.649 -132.604 451.063 -87.2739 441.338C-52.3389 433.577 -16.498 441.084 16.3699 463.037C22.5902 467.014 28.8065 471.435 34.828 476.187C65.8132 500.299 92.5222 537.514 108.108 578.279C126.534 622.596 136.488 666.973 143.105 700.674C146.27 713.072 149.185 725.837 151.764 738.571C160.435 786.489 169.709 843.705 172.745 904.834C174.38 919.497 176.376 933.597 178.308 947.234C181.522 969.918 184.545 991.282 185.33 1011.45C185.875 1015.96 186.268 1020.55 186.486 1025.03Z" fill="#EDE9F7"/>
<path d="M-259.045 942.373C-257.344 977.368 -250.489 1039.19 -223.698 1060.07C-196.621 1081.86 -179.563 1086.93 -148.593 1096.15C-142.347 1098.28 -136.072 1100.5 -129.297 1102.98C-100.809 1113.41 -72.9847 1125.54 -51.9222 1134.94C-20.3215 1148.54 13.1172 1161.24 43.4744 1161.96C72.8481 1162.74 100.455 1153.28 125.535 1133.84C162.652 1106.2 181.085 1067.27 178.849 1021.27C178.514 1014.37 177.717 1007.23 176.472 1000.05C174.894 983.052 171.601 965.149 168.114 946.194C165.229 930.519 162.25 914.311 159.908 897.011C156.151 845.999 149.67 795.854 141.094 736.241C139.019 723.65 136.695 711.195 134.192 699.247C128.685 663.354 120.881 621.118 104.775 579.599C90.7941 540.267 65.1945 504.813 34.5431 482.307C28.7065 477.969 22.6653 473.931 16.5827 470.314C-14.8125 450.729 -49.2674 444.158 -83.0723 451.313C-127.571 460.399 -162.398 486.687 -183.781 507.144C-224.355 540.993 -233.82 585.676 -241.979 640.571C-245.394 660.221 -247.384 680.09 -249.491 701.133C-251.047 716.693 -252.659 732.781 -254.936 749.538C-257.194 766.516 -257.009 778.782 -256.535 788.539C-256.335 792.647 -256.066 796.553 -255.78 800.697C-255.496 804.792 -255.2 809.042 -254.985 813.449C-254.519 823.052 -254.244 836.459 -256.277 855.042C-259.458 882.659 -260.439 913.674 -259.045 942.373ZM179.839 1021.26C182.099 1067.77 163.507 1107.09 126.063 1134.98C101.197 1154.25 72.6492 1164.04 43.5144 1163.27C13.0229 1162.54 -20.5004 1149.81 -52.186 1136.17C-73.2399 1126.77 -101.042 1114.65 -129.511 1104.24C-136.277 1101.76 -142.547 1099.53 -148.684 1097.44C-179.835 1088.17 -196.954 1083.08 -224.17 1061.18C-251.379 1039.97 -258.318 977.646 -260.032 942.381C-261.431 913.591 -260.446 882.48 -257.257 854.777C-255.235 836.315 -255.507 823.001 -255.971 813.456C-256.184 809.064 -256.482 804.835 -256.766 800.737C-257.039 796.774 -257.324 792.672 -257.524 788.547C-258.002 778.711 -258.186 766.357 -255.911 749.239C-253.634 732.511 -252.024 716.433 -250.47 700.883C-248.363 679.821 -246.371 659.918 -242.945 640.233C-234.75 585.063 -225.222 540.139 -184.369 506.047C-162.929 485.536 -127.959 459.151 -83.2797 450.025C-49.2809 442.829 -14.6177 449.435 16.9578 469.139C23.06 472.764 29.1256 476.82 34.9888 481.18C65.8344 503.827 91.5941 539.51 105.653 579.084C121.818 620.733 129.638 663.082 135.153 699.011C137.658 710.947 139.977 723.421 142.062 736.052C150.647 795.721 157.13 845.9 160.891 896.908C163.218 914.115 166.196 930.301 169.075 945.958C172.569 964.953 175.872 982.895 177.446 999.896C178.69 1007.08 179.5 1014.29 179.839 1021.26Z" fill="#EDE9F7"/>
<path d="M-246.73 949.399C-243.967 1006.23 -232.671 1045.27 -214.923 1059.33C-187.985 1081.31 -171.895 1085.54 -142.693 1093.22C-136.563 1095.09 -130.499 1097 -124.136 1099.07C-98.0652 1107.55 -72.6451 1117 -49.0576 1125.96C-20.2138 1136.47 13.3226 1147.16 43.2704 1146.74C71.3166 1146.41 98.5406 1136.8 122.006 1118.93C157.313 1093.04 174.168 1058.44 172.11 1016.11C171.674 1007.15 170.355 997.797 168.189 988.299C166.025 974.02 162.554 959.062 158.879 943.225C154.883 926.002 150.752 908.191 147.637 888.724C144.602 858.596 141.342 828.822 137.889 797.299C135.597 776.412 133.233 754.817 130.934 733.072C129.364 720.491 127.628 708.313 125.78 696.88C121.61 659.045 115.827 618.69 101.828 579.601C89.3169 541.374 64.6593 507.425 34.1843 486.445C28.4958 482.477 22.5959 478.807 16.641 475.537C-13.4688 458.17 -46.7962 452.48 -79.7302 459.086C-123.653 467.592 -157.231 491.71 -177.666 510.453C-218.278 543.183 -226.516 586.213 -233.723 643.422C-236.44 661.748 -237.876 680.277 -239.396 699.889C-240.699 716.683 -242.044 734.051 -244.289 752.3C-245.648 763.589 -246.037 773.814 -245.52 784.461C-245.222 790.596 -244.677 796.182 -244.1 802.092C-243.521 808.001 -242.924 814.122 -242.597 820.843C-242.024 832.623 -242.412 844.153 -243.822 857.121C-247.115 886.043 -248.175 919.675 -246.73 949.399ZM173.1 1016.11C175.183 1058.96 158.166 1093.94 122.526 1120.07C98.9354 1138.04 71.5458 1147.71 43.3379 1148.04C13.2626 1148.47 -20.3561 1137.75 -49.28 1127.21C-72.8567 1118.26 -98.2661 1108.8 -124.32 1100.34C-130.679 1098.27 -136.74 1096.36 -142.844 1094.49C-172.156 1086.79 -188.308 1082.54 -215.402 1060.43C-233.454 1046.13 -244.933 1006.7 -247.718 949.407C-249.167 919.597 -248.103 885.865 -244.8 856.859C-243.404 843.984 -243.014 832.542 -243.583 820.851C-243.907 814.176 -244.504 808.078 -245.08 802.183C-245.66 796.254 -246.21 790.646 -246.51 784.469C-247.032 773.721 -246.637 763.413 -245.265 752.023C-243.028 733.809 -241.681 716.46 -240.381 699.688C-238.859 680.04 -237.42 661.486 -234.7 643.119C-227.452 585.607 -219.161 542.331 -178.239 509.349C-157.745 490.556 -124.033 466.339 -79.9309 457.805C-46.8092 451.158 -13.2973 456.878 16.9856 474.345C22.9603 477.627 28.8887 481.313 34.6054 485.291C65.2925 506.429 90.124 540.624 102.731 579.121C116.773 618.354 122.577 658.829 126.756 696.722C128.602 708.131 130.338 720.331 131.915 732.949C134.212 754.711 136.581 776.311 138.867 797.183C142.321 828.714 145.586 858.49 148.612 888.579C151.711 907.936 155.836 925.715 159.822 942.911C163.506 958.782 166.984 973.772 169.148 988.053C171.326 997.586 172.66 1007.04 173.1 1016.11Z" fill="#EDE9F7"/>
</g>
<defs>
<clipPath id="clip0_815_710">
<path d="M-281 30C-281 13.4315 -267.569 0 -251 0H678C694.569 0 708 13.4315 708 30V897C708 913.569 694.569 927 678 927H-251C-267.569 927 -281 913.569 -281 897V30Z" fill="white"/>
</clipPath>
</defs>
</svg>
